<?xml version="1.0" encoding="utf-8"?>
<!-- Generator: Adobe Illustrator 23.0.3, SVG Export Plug-In . SVG Version: 6.00 Build 0)  -->
<svg version="1.1" id="Calque_1" xmlns="http://www.w3.org/2000/svg" xmlns:xlink="http://www.w3.org/1999/xlink" x="0px" y="0px"
	 viewBox="0 0 42 42" style="enable-background:new 0 0 42 42;" xml:space="preserve">
<style type="text/css">
	.st0{fill:none;}
	.st1{fill:#1F3563;}
	.st2{fill:#1F3461;}
	.st3{fill:#20325E;}
</style>
<rect class="st0" width="42" height="42"/>
<g>
	<g>
		<path class="st1" d="M15.2,22.8c0.3,0,0.7,0,1,0c0.2,0.6,0.4,0.8,1,0.8c1,0,2.1,0,3.1,0c0.6,0,0.9-0.3,0.9-0.8
			c0-0.4-0.2-0.7-0.6-0.8c-0.5-0.1-1-0.1-1.5-0.2c-0.8,0-1.6,0-2.5,0c-1.3-0.1-1.7-1.1-1.5-2.2c0.1-0.5,0.5-0.9,1-1
			c0.2,0,0.4-0.1,0.6-0.1c1.3,0,2.6,0,3.9,0c0.9,0,1.5,0.6,1.5,1.5c0,0,0,0.1,0,0.2c-0.3,0-0.7,0-1,0c-0.2-0.6-0.4-0.8-1.1-0.8
			c-1,0-2,0-3,0c-0.6,0-0.9,0.4-0.8,0.9c0.1,0.3,0.3,0.5,0.6,0.5c0.6,0.1,1.3,0.1,1.9,0.1c0.7,0,1.5-0.1,2.2,0.2
			c1.2,0.3,1.7,2,0.9,2.9c-0.2,0.2-0.4,0.3-0.6,0.4c-0.3,0.1-0.6,0.1-0.9,0.1c-1.1,0-2.3,0-3.4,0c-0.3,0-0.6,0-0.8-0.1
			C15.5,24.1,15.1,23.5,15.2,22.8z"/>
		<path class="st1" d="M29.9,22.7c0.3,0,0.6,0,0.9,0c0.2,0.7-0.2,1.4-0.9,1.6c-0.5,0.1-1.1,0.2-1.6,0.2c-1,0-2,0-3,0
			c-1.1-0.1-1.6-0.6-1.7-1.7c0-0.9,0-1.8,0-2.7c0.1-1,0.5-1.4,1.5-1.5c1.5-0.2,3-0.3,4.4,0.1c0.9,0.2,1.3,0.8,1.3,1.6
			c-0.3,0-0.6,0-0.9,0c0-0.6-0.4-0.8-0.9-0.8c-1.1,0-2.3,0-3.4,0c-0.8,0-1.2,0.7-1,1.5c1.3,0,2.7,0,4.1,0c0,0.3,0,0.6,0,0.9
			c-1.4,0-2.7,0-4.2,0c0.1,0.4,0.1,0.7,0.2,1.1c0.1,0.3,0.3,0.5,0.6,0.6c0.3,0,0.7,0.1,1.1,0.1c0.9,0,1.7,0,2.6,0
			C29.6,23.5,29.8,23.3,29.9,22.7z"/>
		<path class="st2" d="M35.7,24.5c-0.6,0-1.2,0-1.9-0.1c-1-0.1-1.5-0.6-1.6-1.6c-0.1-1-0.1-2,0-3c0.1-0.7,0.6-1.1,1.2-1.3
			c0.2,0,0.5-0.1,0.7-0.1c1.1,0,2.2,0,3.4,0.1c1.1,0.1,1.6,0.6,1.6,1.6c0.1,0.9,0.1,1.9,0,2.8c-0.1,0.9-0.6,1.4-1.6,1.5
			C37,24.5,36.3,24.5,35.7,24.5z M35.6,23.5c0.6,0,1.1,0,1.7-0.1c0.5,0,0.8-0.3,0.8-0.8c0-0.8,0-1.6,0-2.4c0-0.5-0.3-0.8-0.8-0.8
			c-1.1,0-2.2,0-3.3,0c-0.4,0-0.7,0.3-0.8,0.6c-0.2,0.9-0.2,1.8,0,2.6c0.1,0.4,0.3,0.6,0.7,0.6C34.6,23.4,35.2,23.5,35.6,23.5z"/>
		<path class="st1" d="M3.6,18.4c0.4,0,0.7,0,1.1,0c0.1,0,0.2,0.1,0.2,0.2c0.8,1.5,1.6,3.1,2.4,4.6c0,0.1,0.1,0.2,0.2,0.4
			c0.1-0.2,0.2-0.3,0.2-0.4c0.8-1.5,1.5-3,2.3-4.6c0.1-0.2,0.2-0.3,0.4-0.3c0.3,0,0.6,0,0.9,0c-0.1,0.2-0.1,0.3-0.2,0.4
			c-0.9,1.8-1.9,3.6-2.8,5.4c-0.1,0.2-0.2,0.3-0.4,0.3c-0.4,0-0.7,0-1.1,0c-0.1,0-0.3-0.1-0.3-0.2c-1-1.9-1.9-3.8-2.9-5.7
			C3.6,18.5,3.6,18.5,3.6,18.4z"/>
		<path class="st3" d="M12.7,18.4c0.3,0,0.7,0,1,0c0,2,0,4,0,6.1c-0.3,0-0.6,0-1,0C12.7,22.4,12.7,20.4,12.7,18.4z"/>
	</g>
</g>
</svg>
