<?xml version="1.0" encoding="utf-8"?>
<!-- Generator: Adobe Illustrator 23.0.3, SVG Export Plug-In . SVG Version: 6.00 Build 0)  -->
<svg version="1.2" baseProfile="tiny" id="Calque_1"
	 xmlns="http://www.w3.org/2000/svg" xmlns:xlink="http://www.w3.org/1999/xlink" x="0px" y="0px" viewBox="0 0 88.1 84.1"
	 xml:space="preserve">
<g>
	<g>
		<path fill="#FFFFFF" d="M69.7,35.5c0,4,0,8.1,0,12.1c0,0.8,1.2,0.8,1.2,0c0-4,0-8.1,0-12.1C70.9,34.7,69.7,34.7,69.7,35.5
			L69.7,35.5z"/>
	</g>
</g>
<g>
	<g>
		<path fill="#588B8E" d="M21.5,42.4c0-1.8,0-3.6,0-5.4c0-0.3,0.1-0.4,0.4-0.4c1.1,0,2.3,0,3.4,0c0.8,0,1.6,0.1,2.3,0.5
			c1,0.5,1.5,1.3,1.8,2.4c0.3,1.1,0.3,2.3,0.3,3.4c0,0.9-0.1,1.7-0.3,2.6c-0.5,1.6-1.5,2.5-3.2,2.7c-1.5,0.2-2.9,0-4.4,0.1
			c-0.3,0-0.3-0.2-0.3-0.3c0-1,0-2.1,0-3.1C21.5,44,21.5,43.2,21.5,42.4z M23.4,42.5c0,1.2,0,2.5,0,3.7c0,0.4,0,0.5,0.5,0.4
			c0.5,0,1,0,1.5,0c1.4,0,2.1-0.6,2.4-1.9c0.3-1.2,0.2-2.4,0.1-3.6c0-0.4-0.1-0.9-0.2-1.3c-0.3-0.8-0.8-1.3-1.7-1.5
			c-0.7-0.1-1.4,0-2.1-0.1c-0.4,0-0.4,0.1-0.4,0.4C23.4,40,23.4,41.2,23.4,42.5z"/>
		<path fill="#588B8E" d="M69.8,44.7c-0.7,0-1.4,0-2.2,0c-0.2,0-0.3,0.1-0.3,0.3c0,1,0.5,1.7,1.3,1.8s1.7,0.1,2.4-0.3
			c0.3-0.2,0.5-0.1,0.6,0.2c0.1,0.2,0.2,0.4,0.3,0.6c0.2,0.3,0.1,0.4-0.2,0.5c-0.5,0.2-1.1,0.4-1.7,0.4c-0.8,0.1-1.6,0.1-2.4-0.1
			c-1-0.3-1.6-0.9-1.8-1.8c-0.4-1.6-0.4-3.3,0-4.9c0.3-1.3,1.2-1.9,2.5-2.1c0.6-0.1,1.3-0.1,1.9,0.1c0.8,0.2,1.4,0.7,1.7,1.5
			c0.4,1.2,0.3,2.4,0.3,3.6c0,0.2-0.2,0.2-0.3,0.2C71.3,44.7,70.6,44.7,69.8,44.7z M69,43.2c0.2,0,0.5,0,0.7,0c1,0,1,0,0.8-1
			c-0.1-0.4-0.1-0.7-0.4-1c-0.8-0.7-2.3-0.3-2.7,0.7c-0.1,0.3-0.1,0.6-0.2,0.9c0,0.2,0.1,0.3,0.3,0.3C68.1,43.1,68.6,43.2,69,43.2z"
			/>
		<path fill="#588B8E" d="M43.3,44.7c-0.7,0-1.4,0-2.2,0c-0.2,0-0.3,0.1-0.3,0.3c0,1.2,0.6,1.8,1.8,1.8c0.7,0,1.4-0.1,2-0.4
			c0.3-0.1,0.4,0,0.5,0.2c0.1,0.3,0.2,0.5,0.4,0.7c0.2,0.3,0.1,0.4-0.2,0.5c-0.6,0.3-1.1,0.4-1.8,0.5s-1.4,0.1-2.1-0.1
			c-1.1-0.2-1.9-0.9-2.1-2.1c-0.4-1.6-0.4-3.2,0-4.7c0.3-1.2,1.1-1.9,2.4-2.1c0.7-0.1,1.5-0.1,2.2,0.1c0.8,0.2,1.2,0.7,1.5,1.4
			s0.3,1.4,0.3,2.1c0,0.4,0,0.8,0,1.2c0,0.5,0,0.5-0.5,0.5C44.6,44.7,43.9,44.7,43.3,44.7z M42.4,43.2L42.4,43.2c0.5,0,0.9,0,1.4,0
			c0.2,0,0.3,0,0.3-0.2c0-0.4,0-0.9-0.2-1.3c-0.1-0.3-0.3-0.6-0.6-0.6c-1.3-0.3-2.4,0-2.5,1.6v0.1c-0.1,0.3,0,0.4,0.4,0.4
			C41.6,43.1,42,43.2,42.4,43.2z"/>
		<path fill="#588B8E" d="M62.8,43.6c0,0.7,0,1.4,0,2.1c0,0.8,0.3,1,1,1.1c0.3,0,0.8-0.2,0.9,0.1c0.2,0.2,0,0.6,0.1,1
			c0,0.1,0,0.2,0,0.3s-0.1,0.2-0.2,0.2c-0.7,0-1.3,0.1-1.9,0c-1.1-0.2-1.6-0.8-1.6-2c0-1.6,0-3.1,0-4.7c0-0.5,0-0.5-0.5-0.5
			c-0.9,0-0.9,0-0.9-0.9c0-0.8-0.1-0.6,0.6-0.6c0.8,0,0.8,0,0.9-0.8c0-0.2,0.1-0.4,0.1-0.6c0.1-0.8,0.1-0.8,0.9-1
			c0.6-0.1,0.6-0.1,0.6,0.5c0,0.5,0,1.1,0,1.6c0,0.2,0.1,0.3,0.3,0.3c0.5,0,1,0,1.4,0c0.2,0,0.3,0.1,0.3,0.3c0,0.3,0,0.6,0,1
			c0,0.2-0.1,0.3-0.3,0.3c-0.5,0-1,0-1.4,0c-0.2,0-0.3,0.1-0.3,0.3C62.8,42.1,62.8,42.8,62.8,43.6L62.8,43.6z"/>
		<path fill="#588B8E" d="M46.7,43.8c0-0.7,0.1-1.4,0.2-2.1c0.3-1.4,1.1-2.1,2.5-2.3c1-0.1,1.9-0.1,2.8,0.3c0.2,0.1,0.3,0.2,0.2,0.4
			c-0.2,0.3-0.3,0.6-0.5,1c-0.1,0.2-0.2,0.2-0.4,0.2C51,41,50.5,40.9,50,41c-0.7,0.1-1.2,0.5-1.3,1.2c-0.3,1.2-0.3,2.3,0,3.5
			c0.2,0.7,0.7,1.1,1.5,1.1c0.5,0,1,0,1.5-0.3c0.3-0.1,0.4,0,0.5,0.2c0.1,0.3,0.3,0.5,0.4,0.8c0.1,0.2,0.1,0.3-0.1,0.3
			c-1.3,0.6-2.6,0.7-4,0.2c-1-0.4-1.4-1.3-1.6-2.3C46.8,45.1,46.7,44.5,46.7,43.8z"/>
		<path fill="#588B8E" d="M53.2,43.7c0-0.6,0-1.3,0.2-2c0.3-1.3,1.1-2.1,2.4-2.2c1-0.1,2-0.1,2.9,0.3c0.2,0.1,0.3,0.2,0.2,0.4
			c-0.2,0.3-0.4,0.7-0.5,1c-0.1,0.2-0.2,0.2-0.4,0.2c-0.6-0.2-1.2-0.3-1.8-0.2c-0.4,0.1-0.7,0.4-0.9,0.8c-0.1,0.2-0.2,0.4-0.2,0.6
			c-0.2,1-0.2,2,0,3.1c0.2,0.9,0.7,1.3,1.6,1.3c0.5,0,1-0.1,1.4-0.3c0.2-0.1,0.3-0.1,0.4,0.1c0.1,0.3,0.3,0.6,0.4,0.9
			c0.1,0.2,0.1,0.3-0.1,0.4c-1.2,0.5-2.4,0.6-3.6,0.3c-1.3-0.3-1.8-1.4-2-2.5C53.2,45.1,53.2,44.4,53.2,43.7z"/>
		<path fill="#588B8E" d="M34.6,43.9c0-1.3,0-2.6,0-3.9c0-0.3,0-0.4,0.3-0.4c0.1,0,0.2,0,0.3,0c0.7-0.1,0.7-0.1,0.9,0.6
			c0,0.2,0.1,0.2,0.2,0.1c0.5-0.6,1.3-0.7,2-0.8c0.2,0,0.3,0.1,0.3,0.3c0,0.4,0,0.7,0,1.1c0,0.2,0,0.3-0.3,0.3c-0.1,0-0.3,0-0.4,0
			c-0.9,0.2-1.4,0.7-1.5,1.5c-0.1,0.4-0.1,0.9-0.1,1.3c0,1.3,0,2.6,0,3.9c0,0.3-0.1,0.4-0.3,0.3c-0.3,0-0.7,0-1,0s-0.4-0.1-0.4-0.4
			C34.6,46.5,34.6,45.2,34.6,43.9L34.6,43.9z"/>
		<path fill="#588B8E" d="M31.1,43.9c0-1.3,0-2.7,0-4c0-0.3,0.1-0.4,0.4-0.4s0.7,0,1,0s0.4,0.1,0.4,0.4c0,2,0,4,0,6.1
			c0,0.7,0,1.3,0,2c0,0.3-0.1,0.4-0.3,0.4c-0.4,0-0.8,0-1.1,0c-0.3,0-0.3-0.1-0.3-0.3C31.1,46.6,31.1,45.2,31.1,43.9z"/>
		<path fill="#6291CC" d="M41.6,25.5c0.3-0.4,0.7-0.8,1.1-1.2c0.9-1,1.6-2,2.2-3.2c0-0.1,0.1-0.2,0.2-0.2c0.1,0,0.1,0.1,0.2,0.2
			c0.4,0.7,0.8,1.3,1.2,2c0.1,0.2,0.1,0.3,0,0.5c-1.2,1.7-2.7,3.1-4.5,4.2c-0.1-0.3-0.2-0.5-0.1-0.8C41.9,26.4,41.5,26,41.6,25.5z"
			/>
		<path fill="#6291CC" d="M42.7,57.4c1.4,1,2.6,2.2,3.6,3.6c0.1,0.2,0.1,0.3,0,0.5c-0.4,0.7-0.8,1.3-1.2,2c-0.1,0.1-0.2,0.3-0.3,0.1
			c-0.6-1.4-1.5-2.6-2.5-3.7c0.1-0.1,0.1-0.2,0.1-0.3c0-0.6,0-1.1,0.1-1.7C42.5,57.6,42.6,57.5,42.7,57.4z"/>
		<path fill="#2A3F92" d="M17,28.7c1.8,0.5,3.7,0.9,5.6,1.2C23,30,23.4,30,23.8,30h0.1c0.1,0,0.2,0,0.3,0h0.1c0.1,0,0.3,0,0.4,0
			c0.1,0.1,0.2,0.1,0.3,0c1.1,0.1,2.3,0.1,3.4,0c-0.1,0.2-0.2,0.3-0.1,0.5s0.1,0.4,0.1,0.6c-1.3,0-2.7-0.1-4-0.3
			C21.7,30.6,19.3,29.9,17,28.7C16.9,28.8,17,28.8,17,28.7z"/>
		<path fill="#2A3F92" d="M27.3,54.3c-0.6,0-1.2,0-1.7,0h-0.1c-0.5,0-0.9,0.1-1.4,0.1c-0.1-0.1-0.1-0.1-0.2,0
			c-2.2,0.2-4.4,0.6-6.5,1.2l0,0c-0.1,0-0.1,0-0.2,0.1v-0.1c2.2-1,4.5-1.6,6.9-2h0.1c1.3-0.2,2.5-0.3,3.8-0.3c0,0.1,0,0.1,0,0.2
			c0,0.3,0,0.6-0.4,0.6C27.3,54,27.3,54.2,27.3,54.3z"/>
		<path fill="#334E9D" d="M33.8,29.3c0.5-0.1,1-0.3,1.5-0.4c0.2,0,0.3,0.1,0.3,0.3c0,0.3,0,0.5,0,0.8c0,0.2,0.1,0.3,0.2,0.4
			c-1.6,0.5-3.2,0.8-4.8,0.8c0-0.1-0.1-0.1-0.1,0c-0.1,0-0.3,0.1-0.4,0c0-0.4,0-0.8,0.1-1.3C31.6,29.7,32.7,29.6,33.8,29.3
			C33.8,29.4,33.8,29.4,33.8,29.3z"/>
		<path fill="#3D5EA9" d="M38,56.7c-0.8-0.3-1.6-0.7-2.4-1c0.1-0.5,0.1-1,0.2-1.5c1.4,0.3,2.8,0.9,4.1,1.6c-0.1,0.5-0.2,1-0.2,1.5
			c0,0.1,0,0.3-0.1,0.3c-0.4-0.2-0.9-0.5-1.3-0.7C38.3,56.7,38.1,56.7,38,56.7z"/>
		<path fill="#32A337" d="M42.7,55.8c-0.8-0.5-1.6-0.9-2.3-1.4c0,0-0.1,0-0.1-0.1l0,0c0-0.1-0.1-0.1-0.2-0.1l0,0
			c0-0.1-0.1-0.1-0.1-0.1c-1.1-0.5-2.2-1-3.3-1.4l-0.1-0.1l0,0c-0.1-0.1-0.3-0.2-0.5-0.2c-0.8-0.2-1.5-0.4-2.3-0.6
			c0.2-0.1,0.2-0.3,0.4-0.4c0.1,0,0.1-0.2,0-0.2c0,0-0.2,0-0.1-0.2c0.1,0,0.2,0,0.3,0c0.8,0.2,1.6,0.4,2.4,0.8
			c0,0.1,0.1,0.1,0.1,0.1c1.9,0.7,3.6,1.7,5.1,3C42.2,55.1,42.5,55.4,42.7,55.8C42.8,55.7,42.7,55.7,42.7,55.8z"/>
		<path fill="#7FBA28" d="M25.4,51c-1.1,0-2.1,0.1-3.2,0.1c-0.3,0-0.8,0.2-0.9,0c-0.1-0.2,0-0.6,0.1-0.9c0.1-0.8,0.1-0.8,0.9-0.7
			c1.1,0,2.2,0.1,3.2,0.2c0,0.1,0.2,0.2,0.1,0.4C25.4,50.3,25.5,50.7,25.4,51z"/>
		<path fill="#7FBA28" d="M25.5,34.9c-1.2,0.2-2.5,0.2-3.7,0.2c-0.2,0-0.3,0-0.3-0.2c0-0.4-0.1-0.9-0.2-1.3c0-0.2,0.1-0.2,0.2-0.2
			c1.3,0.1,2.6,0.1,3.9,0.2c0,0.1-0.4,0.1-0.2,0.3C25.6,34.1,25.5,34.5,25.5,34.9z"/>
		<path fill="#4B72B7" d="M39.6,57.6c0.1-0.1,0.1-0.2,0.1-0.3c0-0.5,0.1-1,0.2-1.5c1,0.4,1.9,1,2.8,1.7c-0.1,0.1-0.2,0.2-0.2,0.4
			c0,0.6-0.1,1.1-0.1,1.7c0,0.1,0,0.2-0.1,0.3l0,0c0-0.1-0.1-0.1-0.1-0.1C41.4,58.9,40.5,58.2,39.6,57.6z"/>
		<path fill="#32A337" d="M37.4,31.5c0.4-0.2,0.9-0.4,1.3-0.5c0.1,0,0.1,0,0.2-0.1c1.4-0.7,2.8-1.5,4.1-2.3c0,0,0,0,0.1,0.1
			c-1.5,1.4-3.1,2.6-5,3.4c-0.1,0.1-0.3,0.1-0.4,0.2c-0.2,0-0.3,0-0.4,0.2l0,0c-0.1,0-0.2,0-0.3,0.1c-0.7,0.3-1.5,0.6-2.2,0.8
			c-0.2-0.3-0.2-0.5-0.3-0.8l0,0c0.2,0,0.3,0,0.5-0.1c0.7-0.2,1.5-0.5,2.2-0.7C37.3,31.6,37.4,31.6,37.4,31.5z M35.2,33
			C35.2,32.9,35.2,32.9,35.2,33C35.2,32.9,35.1,32.9,35.2,33C35.1,32.9,35.1,33,35.2,33L35.2,33z"/>
		<path fill="#4B72B7" d="M41.6,25.5c-0.1,0.5,0.3,0.9,0.2,1.4c-0.1,0.3,0,0.5,0.1,0.8c-0.8,0.6-1.7,1.1-2.7,1.5
			c-0.2-0.4-0.1-0.8-0.2-1.3c-0.1-0.2-0.1-0.3-0.3-0.4C39.6,26.9,40.6,26.2,41.6,25.5z M41.5,26.1C41.5,26,41.4,26,41.5,26.1
			c-0.1-0.1-0.2,0-0.2,0S41.3,26.1,41.5,26.1C41.4,26.1,41.4,26.1,41.5,26.1z"/>
		<path fill="#3D5EA9" d="M38.6,27.5c0.2,0.1,0.3,0.2,0.3,0.4c0.1,0.4,0.1,0.9,0.2,1.3c-0.6,0.3-1.2,0.5-1.8,0.7c0,0-0.1,0-0.1,0.1
			c-0.4,0.2-0.9,0.3-1.4,0.4c-0.1-0.1-0.2-0.2-0.2-0.4c0-0.3,0-0.5,0-0.8c0-0.2-0.1-0.3-0.3-0.3c0.9-0.4,1.8-0.7,2.7-1.1
			C38.2,27.7,38.4,27.6,38.6,27.5z"/>
		<path fill="#111111" d="M51.8,33.9c0-0.6,0-1.2,0-1.8c0-0.2,0.1-0.3,0.3-0.3c0.4,0,0.8,0,1.2,0s0.8,0.1,0.9,0.5
			c0.2,0.4,0.2,0.9-0.2,1.3c-0.1,0.1-0.2,0.2,0,0.3c0.5,0.4,0.4,0.9,0.3,1.4c-0.1,0.4-0.5,0.6-0.9,0.6s-0.9,0-1.3,0
			c-0.2,0-0.3-0.1-0.3-0.3C51.8,35.2,51.8,34.6,51.8,33.9z M52.3,34.9c0,0.2,0,0.4,0,0.7c0,0.1,0,0.2,0.2,0.2c0.3,0,0.7,0,1,0
			c0.2,0,0.4-0.2,0.5-0.4c0.2-0.7-0.1-1.2-0.8-1.2C52.3,34.1,52.3,34.1,52.3,34.9z M52.3,32.9c0,0.7,0,0.7,0.8,0.7
			c0.1,0,0.1,0,0.2,0c0.4,0,0.6-0.2,0.6-0.6c0.1-0.5-0.2-0.8-0.7-0.8C52.3,32.2,52.3,32.2,52.3,32.9z"/>
		<path fill="#2E4597" d="M27.3,54.3c0-0.1,0-0.3,0.1-0.3c0.4,0,0.4-0.3,0.4-0.6c0-0.1,0-0.1,0-0.2c1.5-0.1,2.9,0,4.4,0.2
			c-0.1,0.5-0.1,0.9,0.1,1.4c-0.8-0.1-1.6-0.2-2.4-0.4c-0.1-0.1-0.2-0.1-0.3,0c-0.5,0-0.9-0.1-1.4-0.1c-0.2-0.3-0.4-0.2-0.6,0
			C27.6,54.3,27.4,54.3,27.3,54.3z"/>
		<path fill="#111111" d="M65.7,33.2c0.2,0.3,0.2,0.6,0.2,0.9c0,0.5-0.3,0.8-0.8,0.8c-0.1,0-0.3,0-0.4,0c-0.1,0-0.2,0-0.2,0.1
			c0,0.2,0.1,0.2,0.2,0.2c0.2,0,0.5,0,0.7,0c0.5,0,0.7,0.2,0.8,0.7c0,0.5-0.2,0.9-0.7,1c-0.4,0.1-0.8,0.1-1.1,0
			c-0.3,0-0.6-0.2-0.6-0.5c-0.1-0.3,0-0.7,0.3-0.9c0.2-0.1,0.1-0.2,0.1-0.4c0-0.4-0.1-0.7-0.2-1c-0.2-0.9,0.2-1.4,1.1-1.4
			c0.3,0,0.6,0,0.9-0.1c0.1,0,0.2-0.1,0.2,0.1s-0.1,0.2-0.2,0.2C65.8,33.1,65.7,33.1,65.7,33.2z M64.9,34.6c0.4,0,0.6-0.2,0.6-0.6
			c0-0.5-0.2-0.7-0.6-0.7s-0.6,0.2-0.6,0.6C64.2,34.3,64.4,34.6,64.9,34.6z M64.9,36.7c0.1,0,0.3,0,0.5-0.1c0.2-0.1,0.3-0.3,0.3-0.5
			s-0.1-0.3-0.3-0.4c-0.3-0.1-0.7-0.1-1,0c-0.3,0.1-0.3,0.3-0.3,0.5c0,0.3,0.2,0.4,0.4,0.4C64.6,36.7,64.7,36.7,64.9,36.7z"/>
		<path fill="#334E9D" d="M32.4,54.8c-0.2-0.4-0.2-0.9-0.1-1.4c1.2,0.1,2.4,0.4,3.6,0.7c-0.1,0.5-0.1,1-0.2,1.5
			C34.6,55.3,33.5,55.1,32.4,54.8z"/>
		<path fill="#57B031" d="M34.5,32.4c0.1,0.3,0.1,0.6,0.3,0.8c-1.1,0.4-2.1,0.6-3.2,0.8c-0.5,0.1-0.9,0.2-1.4,0.2
			c0.2-0.4,0.2-0.7-0.1-1.1c0.8-0.1,1.5-0.2,2.3-0.3h0.1C33.1,32.7,33.8,32.6,34.5,32.4z"/>
		<path fill="#111111" d="M47.4,33.8c0,0.6,0,1.3,0,1.9c0,0.1,0.1,0.3-0.1,0.3c-0.1,0-0.2,0-0.2-0.2s-0.1,0-0.2,0
			c-0.3,0.2-0.6,0.2-1,0.2s-0.7-0.2-0.8-0.6c-0.2-0.7-0.2-1.3,0-2c0.2-0.6,0.8-0.8,1.5-0.5c0.4,0.2,0.3,0,0.3-0.3s0-0.5,0-0.8
			c0-0.2,0.1-0.2,0.2-0.2c0.2,0,0.2,0.1,0.2,0.2C47.4,32.5,47.4,33.2,47.4,33.8z M47,34.5c0-0.2,0-0.4,0-0.6
			c-0.1-0.4-0.3-0.6-0.8-0.6c-0.4,0-0.6,0.2-0.7,0.6c-0.1,0.4-0.1,0.8,0,1.2c0.1,0.4,0.3,0.6,0.7,0.7c0.5,0,0.7-0.2,0.8-0.6
			C47,34.9,47,34.7,47,34.5z"/>
		<path fill="#111111" d="M63.1,34.5c0,0.3,0,0.6,0,0.8c0,0.1,0,0.3,0.1,0.3c0.2,0.1,0.2,0.3,0.1,0.4c-0.1,0.2-0.4,0.1-0.4,0
			c-0.2-0.2-0.3-0.1-0.5,0c-0.4,0.2-0.9,0.2-1.2-0.1c-0.4-0.3-0.3-0.8-0.3-1.2c0.1-0.5,0.4-0.7,0.9-0.7c0.2,0,0.3,0,0.5-0.1
			c0.1,0,0.3,0.1,0.4-0.2c0-0.2-0.1-0.4-0.3-0.5c-0.3-0.1-0.5,0-0.8,0c-0.1,0-0.2,0.1-0.3-0.1c-0.1-0.1-0.1-0.2,0.1-0.3
			c0.4-0.1,0.8-0.2,1.3-0.1c0.3,0.1,0.5,0.4,0.5,0.7C63.1,33.9,63.1,34.2,63.1,34.5L63.1,34.5z M62.7,34.8c-0.1-0.1,0.2-0.4-0.2-0.4
			c-0.3,0-0.5,0-0.8,0.1c-0.3,0.1-0.5,0.5-0.3,0.9c0.1,0.3,0.3,0.4,0.7,0.4C62.5,35.7,62.7,35.4,62.7,34.8z"/>
		<path fill="#111111" d="M57.7,34.7c-0.2,0-0.3,0-0.4,0c-0.2,0-0.5-0.2-0.5,0.2c-0.1,0.3,0.2,0.8,0.5,0.9c0.3,0.1,0.6,0.1,0.9-0.1
			c0.2-0.1,0.2,0,0.3,0.1c0.1,0.2-0.1,0.2-0.2,0.3c-0.3,0.1-0.7,0.2-1.1,0.1c-0.5-0.1-0.7-0.4-0.8-0.8c-0.1-0.5-0.1-1,0-1.5
			c0.2-0.8,1.1-1.2,1.8-0.8c0.2,0.1,0.3,0.4,0.3,0.6c0.1,0.3,0.2,0.7,0,1C58.4,34.8,58,34.6,57.7,34.7z M57.5,34.3
			c0.2,0,0.3,0,0.5,0c0.1,0,0.2,0,0.2-0.2c0-0.3,0-0.6-0.2-0.8s-0.5-0.1-0.7-0.1c-0.3,0.1-0.6,0.6-0.4,0.9c0.1,0.3,0.4,0.1,0.5,0.1
			C57.4,34.3,57.4,34.3,57.5,34.3z"/>
		<path fill="#111111" d="M70.8,34.7c-0.3,0-0.5,0-0.7,0c-0.3,0-0.3,0.1-0.3,0.4c0.1,0.5,0.4,0.8,0.9,0.7c0.2,0,0.4,0,0.5-0.1
			c0.2-0.1,0.2,0.1,0.2,0.2c0.1,0.1,0,0.1-0.1,0.2c-0.9,0.5-1.9,0-2-1c-0.1-0.4-0.1-0.9,0-1.3c0.2-0.8,1.2-1.1,1.8-0.7
			c0.1,0.1,0.2,0.2,0.3,0.4v0.1c0.1,0.4,0.2,0.8,0,1.1C71.5,34.8,71,34.6,70.8,34.7z M70.5,34.3c0.2,0,0.3,0,0.5,0
			c0.1,0,0.2,0,0.2-0.1c0.1-0.3-0.1-0.8-0.4-0.9c-0.4-0.1-0.8,0-1,0.5c-0.2,0.5-0.1,0.5,0.4,0.5C70.3,34.3,70.4,34.3,70.5,34.3z"/>
		<path fill="#111111" d="M47.9,34.5c0-0.2,0-0.4,0.1-0.5c0.1-0.9,0.7-1.3,1.6-1c0.2,0.1,0.4,0.2,0.5,0.4c0,0.1,0.1,0.3,0.1,0.4
			c0.1,0.9,0.1,0.9-0.8,0.9c-0.3,0-0.5,0-0.8,0c-0.2,0-0.2,0.1-0.2,0.3c0,0.6,0.3,0.8,0.9,0.8c0.2,0,0.3,0,0.5-0.1
			c0.2-0.1,0.3-0.1,0.3,0.1c0.1,0.3-0.1,0.2-0.2,0.3c-0.2,0.1-0.5,0.1-0.8,0.1c-0.6,0-1-0.3-1.1-0.9C48,35,47.9,34.7,47.9,34.5z
			 M49.1,34.3L49.1,34.3c0.2,0,0.3,0,0.5,0c0.1,0,0.2,0,0.2-0.1c0.1-0.3-0.1-0.8-0.4-0.9c-0.4-0.1-0.8,0-0.9,0.4
			c-0.2,0.5-0.1,0.6,0.4,0.6C48.9,34.3,49,34.3,49.1,34.3z"/>
		<path fill="#57B031" d="M33.9,51c-0.1,0.1,0.1,0.1,0.1,0.2c0.1,0.1,0.2,0.2,0,0.2c-0.2,0.1-0.2,0.3-0.4,0.4h-0.1
			c-0.1-0.1-0.1-0.1-0.2-0.1h-0.1l0,0c0,0,0-0.1,0,0l0,0c-1-0.2-2-0.3-3-0.5c0-0.1,0-0.2,0.2-0.2s0.2-0.1,0.2-0.2
			c0-0.2,0-0.2,0.2-0.3s0-0.1,0-0.1c-0.2,0-0.3,0-0.2-0.2c0.1,0,0.1,0,0.2,0c0.1,0.1,0.2,0.1,0.3,0c0.9,0.1,1.8,0.3,2.7,0.6
			C33.7,51,33.8,51,33.9,51C33.9,50.9,33.9,50.9,33.9,51L33.9,51z"/>
		<path fill="#111111" d="M66.6,34.5c0-0.4,0-0.9,0-1.3c0-0.2,0.2-0.3,0.3-0.2c0.2,0.3,0.3,0.1,0.4,0c0.3-0.1,0.7-0.1,1-0.1
			c0.4,0.1,0.5,0.4,0.5,0.7c0,0.8,0,1.5,0,2.3c0,0.1,0,0.2-0.2,0.2s-0.2,0-0.2-0.2c0-0.7,0-1.3,0-2c0-0.5-0.3-0.7-0.8-0.6
			c-0.3,0.1-0.5,0.3-0.5,0.6c-0.1,0.6,0,1.2,0,1.9c0,0.1,0.1,0.3-0.2,0.3c-0.3,0-0.2-0.2-0.2-0.3C66.6,35.3,66.6,34.9,66.6,34.5z"/>
		<path fill="#588B8E" d="M32.9,37.6c0,1,0,1-0.9,1c-0.9,0-0.9,0-0.9-0.9c0-0.3-0.1-0.8,0.1-1s0.7-0.1,1-0.1c0.7,0,0.7,0,0.7,0.8
			C32.9,37.4,32.9,37.5,32.9,37.6z"/>
		<path fill="#76B72A" d="M25.4,51c0.1-0.3,0-0.7,0.2-1c0.1-0.2-0.1-0.2-0.1-0.4c0.8,0,1.7,0.1,2.5,0.3c0,0.2,0.1,0.4,0.1,0.6
			c-0.1,0.3-0.3,0.4-0.5,0.6c-0.1,0-0.2,0-0.3,0c0-0.1,0-0.1-0.1-0.1s-0.1,0.1-0.1,0.1C26.6,51,26,51.1,25.4,51z"/>
		<path fill="#76B72A" d="M25.5,34.9c0-0.4,0.1-0.8-0.3-1.1c-0.2-0.2,0.2-0.1,0.2-0.3c0.6,0,1.2,0,1.8,0c0.1,0.2,0.2,0.2,0.4,0
			c0.1,0,0.2,0,0.3,0c-0.1,0.4,0.3,0.8,0.2,1.2C27.2,34.8,26.4,34.9,25.5,34.9z"/>
		<path fill="#69B42E" d="M27.6,51c0.2-0.2,0.4-0.3,0.5-0.6c0-0.2-0.1-0.4-0.1-0.6c0.3,0,0.6,0.1,0.9,0.1H29c0.5,0,1,0.1,1.4,0.2
			c-0.1,0.2,0,0.2,0.2,0.2c0,0,0.2,0,0,0.1s-0.2,0.2-0.2,0.3s0,0.2-0.2,0.2c-0.1,0-0.2,0.1-0.2,0.2C29.3,51.2,28.4,51.1,27.6,51z"/>
		<path fill="#111111" d="M59.4,34.4c0-0.2,0-0.5,0-0.7s0.1-0.5-0.3-0.5C59,33.2,59,33.1,59,33c0-0.1,0-0.2,0.2-0.2
			c0.4,0.1,0.4-0.2,0.4-0.4c0-0.1,0-0.2,0-0.3c0-0.2,0.2-0.2,0.3-0.2S60,32,60,32.1c0,0.1,0,0.1,0,0.2c0,0.5,0,0.5,0.5,0.5
			c0.1,0,0.3,0,0.3,0.2s-0.1,0.2-0.3,0.2c-0.5,0-0.5,0-0.5,0.5s0,0.9,0,1.4c0,0.4,0.1,0.5,0.5,0.5c0.1,0,0.3,0,0.3,0.2
			S60.6,36,60.5,36c-0.6,0-0.9-0.2-0.9-0.8C59.4,35,59.4,34.7,59.4,34.4L59.4,34.4z"/>
		<path fill="#2E4597" d="M30.6,30c-0.1,0.4-0.1,0.8-0.1,1.3c-0.8,0-1.5,0.1-2.3,0c0-0.2,0.1-0.4-0.1-0.6c-0.1-0.2-0.1-0.4,0.1-0.5
			C29.1,30.1,29.8,30,30.6,30z"/>
		<path fill="#69B42E" d="M28,34.6c0.1-0.4-0.2-0.8-0.2-1.2l0,0c0.1,0,0.3,0.1,0.4-0.1c0.6-0.1,1.2-0.1,1.8-0.2
			c0.2,0.3,0.3,0.7,0.1,1.1C29.5,34.5,28.8,34.6,28,34.6z"/>
		<path fill="#111111" d="M54.9,34.5c0-0.4,0-0.9,0-1.3c0-0.1,0-0.2,0.1-0.2s0.2,0,0.3,0.1c0,0.2,0.1,0.1,0.2,0
			c0.2-0.1,0.3-0.2,0.5-0.2c0.1,0,0.2,0,0.2,0.1c0,0.1,0,0.3-0.1,0.3c-0.6,0.1-0.7,0.6-0.7,1.1s0,1,0,1.4c0,0.2,0,0.3-0.2,0.3
			S55,36,55,35.8C54.9,35.4,54.9,34.9,54.9,34.5z"/>
		<path fill="#6291CC" d="M16.6,28.7L16.6,28.7c-0.2-0.1-0.4-0.1-0.5-0.2c0.2,0,0.3,0,0.5,0.1C16.7,28.6,16.6,28.7,16.6,28.7z"/>
		<path fill="#2A3F92" d="M27.7,54.3c0.2-0.2,0.4-0.3,0.6,0C28.1,54.4,27.9,54.4,27.7,54.3z"/>
		<path fill="#334E9D" d="M17.2,55.6L17.2,55.6c-0.1,0.2-0.3,0.2-0.4,0.3v-0.1C16.9,55.7,17,55.6,17.2,55.6z"/>
		<path fill="#588B8E" d="M42.7,55.8C42.7,55.7,42.8,55.7,42.7,55.8c0.3,0,0.4,0.1,0.5,0.3c-0.1,0-0.1,0-0.2,0
			C42.9,55.9,42.8,55.8,42.7,55.8z"/>
		<path fill="#6291CC" d="M16.7,55.8L16.7,55.8c-0.1,0.1-0.2,0.2-0.3,0.2C16.4,55.8,16.6,55.8,16.7,55.8z"/>
		<path fill="#588B8E" d="M43,28.6L43,28.6c0-0.1,0.1-0.2,0.2-0.2C43.2,28.5,43.1,28.6,43,28.6z"/>
		<path fill="#4B72B7" d="M16.6,28.7v-0.1c0.1,0,0.3,0,0.3,0.1l-0.1,0.1C16.8,28.8,16.7,28.8,16.6,28.7z"/>
		<path fill="#69B42E" d="M27.6,33.5c-0.1,0.2-0.2,0.2-0.4,0C27.4,33.5,27.5,33.5,27.6,33.5z"/>
		<path fill="#57B031" d="M36,52.5c0.2,0,0.4,0,0.5,0.2C36.3,52.6,36.1,52.6,36,52.5z"/>
		<path fill="#69B42E" d="M35.1,32.3c-0.1,0.1-0.3,0.2-0.5,0.1C34.7,32.4,34.9,32.3,35.1,32.3z"/>
		<path fill="#3D5EA9" d="M29.7,54.4c0.1-0.1,0.2-0.1,0.3,0C29.9,54.5,29.8,54.5,29.7,54.4z"/>
		<path fill="#69B42E" d="M30.9,50.3c-0.1,0.1-0.2,0.1-0.3,0C30.7,50.2,30.8,50.3,30.9,50.3z"/>
		<path fill="#3D5EA9" d="M24.9,30.1c-0.1,0.1-0.2,0.1-0.3,0C24.7,30.1,24.8,30.1,24.9,30.1z"/>
		<path fill="#57B031" d="M37.3,32.4c0.1-0.1,0.2-0.2,0.4-0.2C37.6,32.3,37.5,32.4,37.3,32.4z"/>
		<path fill="#6291CC" d="M38,56.7c0.1,0,0.2,0,0.3,0.1C38.2,56.8,38.1,56.8,38,56.7z"/>
		<path fill="#76B72A" d="M28.3,33.4c-0.1,0.1-0.3,0.1-0.4,0.1C28,33.4,28.2,33.4,28.3,33.4z"/>
		<path fill="#69B42E" d="M27.2,51c0-0.1,0-0.1,0.1-0.1s0.1,0.1,0.1,0.1C27.3,51,27.2,51,27.2,51z"/>
		<path fill="#69B42E" d="M33.9,51L33.9,51c0.1-0.1,0.2-0.1,0.3,0C34.2,51.1,34,51.1,33.9,51z"/>
		<path fill="#57B031" d="M37.1,32.5c0-0.1,0.2-0.1,0.3-0.1C37.3,32.5,37.2,32.5,37.1,32.5z"/>
		<path fill="#69B42E" d="M33.9,51c-0.1,0-0.2,0-0.3-0.1C33.7,50.9,33.8,50.9,33.9,51z"/>
		<path fill="#69B42E" d="M38.9,30.9c0,0.1-0.1,0.1-0.2,0.1C38.8,30.9,38.8,30.9,38.9,30.9z"/>
		<path fill="#57B031" d="M40.1,54.2c0.1,0,0.1,0,0.2,0.1C40.2,54.3,40.1,54.3,40.1,54.2z"/>
		<path fill="#6291CC" d="M42.2,59.7C42.3,59.7,42.4,59.7,42.2,59.7L42.2,59.7z"/>
		<path fill="#69B42E" d="M33.4,51.8c0.1,0,0.2,0,0.2,0.1C33.5,51.8,33.4,51.8,33.4,51.8z"/>
		<path fill="#3D5EA9" d="M24,54.4c0.1-0.1,0.1-0.1,0.2,0C24.1,54.4,24,54.4,24,54.4z"/>
		<path fill="#57B031" d="M40,54.1C40.1,54.1,40.1,54.1,40,54.1C40,54.2,40,54.2,40,54.1z"/>
		<path fill="#3D5EA9" d="M23.9,30.1C23.8,30.1,23.8,30.1,23.9,30.1C23.8,30,23.8,30,23.9,30.1z"/>
		<path fill="#69B42E" d="M36.8,51.9c-0.1,0-0.1,0-0.1-0.1C36.7,51.8,36.7,51.8,36.8,51.9z"/>
		<path fill="#2E4597" d="M25.5,54.3C25.5,54.3,25.6,54.3,25.5,54.3C25.6,54.3,25.5,54.3,25.5,54.3z"/>
		<path fill="#3D5EA9" d="M24.2,30.1h-0.1C24.2,30,24.2,30.1,24.2,30.1z"/>
		<path fill="#57B031" d="M40.3,54.3L40.3,54.3L40.3,54.3z"/>
		<path fill="#57B031" d="M37.4,31.5l-0.1,0.1C37.3,31.5,37.4,31.5,37.4,31.5z"/>
		<path fill="#76B72A" d="M29,50h-0.1C29,49.9,29,50,29,50z"/>
		<path fill="#69B42E" d="M32.5,32.9C32.4,33,32.4,33,32.5,32.9C32.4,32.9,32.4,32.9,32.5,32.9z"/>
		<path fill="#334E9D" d="M17.4,55.7C17.4,55.6,17.4,55.6,17.4,55.7L17.4,55.7L17.4,55.7z"/>
		<path fill="#2E4597" d="M31,31.2C31,31.1,31,31.1,31,31.2L31,31.2z"/>
		<path fill="#6291CC" d="M37.2,29.9l0.1-0.1C37.3,29.9,37.3,29.9,37.2,29.9z"/>
		<path fill="#69B42E" d="M33.2,51.8C33.2,51.8,33.2,51.7,33.2,51.8L33.2,51.8L33.2,51.8L33.2,51.8z"/>
		<path fill="#334E9D" d="M24.1,53.6L24.1,53.6L24.1,53.6z"/>
		<path fill="#4B72B7" d="M33.8,29.3c0,0-0.1,0.1-0.1,0C33.8,29.4,33.8,29.4,33.8,29.3z"/>
		<path fill="#57B031" d="M36.5,52.6C36.6,52.6,36.6,52.6,36.5,52.6C36.6,52.7,36.5,52.7,36.5,52.6z"/>
		<path fill="#57B031" d="M35.2,33L35.2,33C35.1,33,35.1,32.9,35.2,33C35.1,32.9,35.2,32.9,35.2,33C35.2,32.9,35.2,32.9,35.2,33z"/>
		<path fill="#6291CC" d="M41.5,26.1C41.4,26.1,41.4,26.1,41.5,26.1c-0.1,0.1-0.2,0-0.2,0C41.3,26,41.3,26,41.5,26.1
			C41.4,26,41.5,26,41.5,26.1z"/>
		<path fill="#32A337" d="M33.2,51.7L33.2,51.7L33.2,51.7z"/>
	</g>
</g>
<circle fill="none" stroke="#020203" stroke-width="0.75" stroke-miterlimit="10" cx="43.5" cy="42" r="33.1"/>
</svg>
