<?xml version="1.0" encoding="utf-8"?>
<!-- Generator: Adobe Illustrator 23.0.3, SVG Export Plug-In . SVG Version: 6.00 Build 0)  -->
<svg version="1.2" baseProfile="tiny" id="Calque_1"
	 xmlns="http://www.w3.org/2000/svg" xmlns:xlink="http://www.w3.org/1999/xlink" x="0px" y="0px" viewBox="0 0 88.1 84.1"
	 xml:space="preserve">
<g>
	<g>
		<path fill="#FDFDFD" d="M21.8,60.4c-0.6,0-1.2,0-1.8,0c-0.2,0-0.2,0-0.2-0.2s0-0.3,0-0.5c0-13.3,0-26.6,0-39.8c0-0.2,0-0.3,0-0.5
			c0-0.2,0-0.2,0.2-0.2s0.3,0,0.5,0c15.4,0,30.8,0,46.1,0c0.2,0,0.3,0,0.5,0s0.2,0,0.2,0.2c0,0.2,0,0.5,0,0.7c0,11.1,0,22.2,0,33.3
			c-0.6,0-1.2,0-1.8,0s-0.9,0.4-1.4,0.7c-0.3,0.3-0.3,0.6-0.3,0.9c-0.1,0.8,0.3,1.6-0.4,2.3v0.1c-0.1,0.5-0.2,1,0,1.5s0.3,1,0.9,1.2
			c0.1,0.4,0.6,0,0.7,0.4c-0.9,0-1.8,0-2.7,0c-0.1-0.3,0.5-0.1,0.4-0.5c-0.1-0.1,0-0.3,0-0.5c0-0.3-0.1-0.4-0.4-0.4
			c-0.1,0-0.2-0.1-0.2-0.2c0-0.4,0-0.8,0-1.2c0.1-0.8-0.1-1.6-0.2-2.5c0-0.3-0.1-0.6-0.3-0.8c-0.3-0.4-0.7-0.9-1.2-1
			c-0.6-0.1-1.3-0.2-1.9,0.1c-0.5,0.3-0.9,0.2-1.2-0.1l-0.1-0.1c-0.2-0.1-0.6,0.1-0.9,0.3c-0.2,0.2,0,0.3,0.1,0.5
			c0.1,0.1,0.3,0.3,0.4,0.4c0.2,0.1,0.2,0.3,0.1,0.5c-0.2,0.3-0.3,0.6-0.3,1c0,1.3,0,2.7,0,4c0,0.1,0,0.3,0.1,0.3c0.4,0,0.8,0,1.2,0
			c0,0,0.1-0.2,0.1-0.4c0-1.2,0-2.4,0-3.5c0-0.6,0.2-1.1,0.6-1.5c0.5-0.4,1.3-0.4,1.6,0.1c0.2,0.3,0.3,0.6,0.3,0.9c0,1,0,2,0,2.9
			c0,0.8,0.2,1.2,0.8,1.6c-2.7,0-5.4,0-8,0c0.3-0.4,0.8-0.3,1.1-0.6c0.1-0.1,0.5,0,0.8,0c0.2,0,0.3,0,0.3-0.2c0-0.8,0-1.6,0-2.4
			c0-0.1-0.1-0.2-0.2-0.2c-0.7,0-1.3,0-2,0c-0.1,0-0.2,0.1-0.2,0.2c0,0.2,0,0.3,0,0.5s0.1,0.3,0.3,0.2c0.1,0,0.3,0,0.4,0
			c0.3,0,0.3,0.2,0.3,0.4c0,0.3-0.5,0.9-0.8,1c-0.5,0.1-1.1-0.2-1.4-0.6c-0.5-0.7-0.4-1.6-0.4-2.4c0-0.6,0.2-1.2,0.7-1.5
			c0.2-0.2,1-0.2,1.2,0s0.6,0.4,0.6,0.8c0,0.1,0.1,0.2,0.2,0.2c0.6,0.1,0.8,0,0.8-0.6c0-0.1,0-0.3,0-0.4c0-0.3,0.1-0.6,0-0.9
			c-0.1-0.1-0.5,0-0.7-0.2c-0.5-0.4-1-0.3-1.5-0.3c-0.2,0-0.3,0-0.5,0c-0.4,0-0.8,0.2-1.1,0.4c-0.8,0.7-1.1,1.7-1.3,2.7
			c-0.1,0.7,0.1,1.5,0.2,2.2c0.2,0.7,0.5,1.5,1.5,1.6c0.1,0,0.2,0.1,0.3,0.2c-0.9,0-1.8,0-2.7,0c0.1-0.1,0.3-0.1,0.3-0.2
			c0.1-0.3,0.1-0.6,0.1-1c0-0.3-0.3-0.1-0.4-0.2c-0.1-0.1-0.3-0.2-0.3-0.3c-0.4-1.5-1.1-3-1.4-4.5c-0.1-0.7-0.4-0.8-1-0.8
			c-0.3,0-0.6,0-0.9,0c-0.3,0-0.4,0.2-0.5,0.4s-0.2,0.4-0.2,0.6c-0.1,1.1-0.7,2.1-0.9,3.1c-0.2,0.8-0.5,1.6-0.8,2.4
			c-0.1,0.2-0.1,0.3,0.2,0.3c0.2,0,0.3,0,0.5,0c0.7,0,0.7,0,0.9-0.7c0.1-0.3,0.2-0.7,0.4-1c0-0.1,0.2-0.2,0.2-0.2
			c0.6-0.1,1.2,0.2,1.7-0.2c0,0,0.2,0.1,0.2,0.2c0.2,0.8,0.4,1.5,1,2.1c-2.2,0-4.5,0-6.7,0c0.4-0.3,0.4-0.3,0.4-0.8
			c0-0.1,0-0.1,0-0.2c0-0.3-0.1-0.4-0.4-0.4C41,59.1,41,59,41,58.6c0-0.8,0-1.6,0-2.4c0-0.5,0-1,0-1.6c0.5,0,1-0.1,1.5-0.1h0.1
			c0.3,0,0.3-0.1,0.3-0.3s0-0.4,0-0.6c0-0.2-0.1-0.3-0.3-0.3c-1.6,0-3.1,0-4.7,0c-0.2,0-0.3,0-0.3,0.3c0,0.2,0,0.4,0,0.6
			c0,0.2,0,0.4,0.3,0.3c0.4,0,0.9,0,1.3,0c0.3,0,0.4,0.1,0.4,0.4c0,1.4,0,2.8,0,4.2c0,0.7,0.1,0.9,0.6,1.3c-1.5,0-3,0-4.5,0
			c0.2-0.4,0.6-0.4,1-0.6c0.6-0.2,0.6-0.2,0.6-0.7c0-0.1,0-0.3,0-0.4c0-0.8,0-0.7-0.8-0.7c-0.3,0-0.3,0.1-0.4,0.4
			c-0.1,0.5-0.8,1-1.3,0.8c-0.3-0.1-0.7-0.1-0.9-0.4c-0.2-0.3-0.3-0.5-0.3-0.9c0-0.6,0.1-0.7,0.7-0.7c0.4,0,0.9,0,1.3,0
			c0.7,0,0.6,0.1,0.6-0.6c0-0.6,0-0.6-0.6-0.6c-0.2,0-0.4,0-0.6,0c-0.9,0-1.1-0.3-1-1.1c0-0.3,0.2-0.5,0.5-0.4
			c0.6,0.1,1.2-0.2,1.8,0.2c0,0,0.2-0.1,0.2-0.2c0.1-0.1,0.1-0.3,0.1-0.4c0.1-0.4,0.1-0.4-0.3-0.6c-0.2-0.1-0.3-0.1-0.5-0.1
			c-0.4,0-0.9,0-1.3,0c-0.5,0-0.8,0.1-1.2,0.3s-0.6,0.4-0.6,0.7c-0.1,0.4-0.5,0.8-0.2,1.2c0.3,0.5,0.1,1-0.1,1.4
			c-0.5,1-0.4,1.3,0,2.3c0.3,0.6,0.7,0.9,1.4,0.9c0.2,0,0.4-0.1,0.5,0.2c-1,0-2.1,0-3.1,0c0.4-0.3,0.4-0.3,0.4-0.8
			c0-0.1,0-0.2,0-0.3c0-0.2-0.1-0.3-0.3-0.3c-0.2,0-0.5,0.1-0.7-0.1c-0.3-0.4-0.6-0.9-0.8-1.3c-0.1-0.1-0.1-0.4,0.2-0.5
			c0.5-0.2,0.8-0.8,0.8-1.4c0-0.2,0-0.4,0-0.6c0.1-1.2-0.8-1.6-1.6-1.7c-0.8-0.1-1.6,0-2.4,0c-0.5,0-0.6,0.1-0.6,0.6
			c0,2,0,3.9,0,5.9c0,0.3,0.1,0.4,0.4,0.4c0.2,0,0.5,0,0.7,0c0.3,0,0.3-0.1,0.3-0.3c0-0.7,0-1.4,0-2.2c0-0.2,0.1-0.3,0.3-0.3
			c0.3,0,0.5,0,0.7,0.3c0.1,0.2,0.3,0.5,0.4,0.7c0.7,1.5,0.7,1.5,1.4,2c-2.2,0-4.5,0-6.7,0c0.1-0.1,0.2-0.2,0.3-0.2
			c0.5,0,0.8-0.3,1-0.6c0.2-0.4,0.5-0.9,0.5-1.3c-0.1-0.6-0.2-1.4-1-1.7c-0.2-0.1-0.2-0.2-0.1-0.3s0.2-0.2,0.3-0.4
			c0.4-0.5,0.5-1,0.2-1.6s-0.7-1-1.3-1c-1-0.1-2,0-3,0c-0.1,0-0.2,0.1-0.2,0.2c0,1.9,0,3.7,0,5.6c0,0.1,0.1,0.3,0.2,0.3
			c0.4,0,0.6,0.3,0.8,0.5C21.2,60.2,21.6,60.1,21.8,60.4z M59.1,29c0-0.3,0-0.5,0-0.7c0-0.3-0.1-0.2-0.3-0.1
			c-0.1,0.1-0.3,0.2-0.5,0.3c-1.2,1.1-2.6,1.7-4.1,2.3c-1,0.4-2,0.8-3.1,0.8c-0.4,0.3-1,0-1.4,0.2c-0.5,0.3-1,0.2-1.5,0.2
			c-1.2,0-2.5,0.2-3.7-0.2c-0.4-0.1-0.9,0-1.4-0.2c-0.4-0.2-0.9-0.1-1.4-0.2c-0.9-0.2-1.8-0.4-2.7-0.6c-1.3-0.3-2.5-0.7-3.6-1.2
			c-1.3-0.6-2.6-1.2-3.7-2.1c-0.1,0-0.2,0-0.3,0c0,0.1,0,0.3,0,0.3c0.3,0.4,0.7,0.7,0.9,1.1c0.3,0.5,0.8,0.9,1.1,1.4
			c0.3,0.5,0.8,0.9,1.2,1.4c0.2,0.2,0.5,0.4,0.7,0.7c0.7,1.2,1.8,2,2.8,2.9c0.8,0.7,1.5,1.4,2.3,2c0.7,0.5,1.4,1.2,2.2,1.7
			c0.9,0.6,1.8,1.3,2.8,1.8c0.9,0.5,1.7,1,2.6,1.5c1.2,0.6,2.4,1.2,3.6,1.8c0.9,0.4,1.8,0.8,2.8,1.1c0.8,0.3,1.6,0.5,2.4,0.8
			c0.8,0.3,1.7,0.4,2.5,0.8c0,0,0.2-0.1,0.3-0.2c0.1-0.6-0.1-1.2-0.3-1.8c-0.2-0.8-0.6-1.5-1.1-2.1c-0.5-0.7-0.9-1.5-1.7-1.8
			c-0.1,0-0.1-0.2-0.2-0.3c0.1,0,0.2-0.1,0.3-0.1c0.6,0,1.2,0.1,1.8,0c0.7-0.2,1.4-0.5,2.1-0.9c1.3-0.7,2.4-1.6,3.4-2.6
			c0.4-0.4,0.4-0.4-0.2-0.8c-0.8-0.5-1.7-0.8-2.6-1.1c-1.1-0.4-2.3-0.8-3.6-0.6c-0.2,0-0.4,0-0.6,0c-0.1,0-0.2-0.1-0.3-0.2
			c0.1-0.1,0.1-0.1,0.2-0.2c0.2-0.2,0.4-0.3,0.5-0.5c0.5-0.9,1-1.7,1.3-2.7C58.8,30.3,59.2,29.6,59.1,29z M31.2,24
			c0,0.2,0,0.5,0,0.7c0,0.1,0.1,0.2,0.2,0.2c0.6,0.1,1.2-0.1,1.8-0.3c1-0.3,1.6-1.2,2.2-1.9c0.5-0.7,0.7-1.6,0.6-2.5
			c-0.1-0.6-0.5-1-0.8-0.8c-0.4,0.2-0.8,0.1-1.1,0.4c-0.3,0.2-0.7,0.4-1,0.6C32,21.4,31.3,22.5,31.2,24z M29.1,27.6
			c0-0.3,0-0.6-0.2-0.7c-0.1-0.2-0.5-0.3-0.7-0.2c-0.6,0.2-1.2,0.2-1.8,0.5c-1,0.6-2.3,1.7-2.8,2.9c-0.2,0.4-0.2,0.8-0.2,1.2
			c0,0.1,0.1,0.2,0.1,0.2c0.6-0.1,1.1,0.4,1.7,0.2c0.7-0.2,1.4-0.5,2-0.9C28.3,29.9,28.8,28.9,29.1,27.6z M27.8,24.7
			c0.2,0,0.5,0,0.7,0c0.1,0,0.2-0.1,0.2-0.2c0.1-0.8,0-1.6-0.5-2.3c-0.5-0.8-1.2-1.5-2.1-2.1c-0.7-0.4-1.4-0.7-2.3-0.7
			c-0.1,0-0.3,0.1-0.3,0.1c-0.1,0.9,0,1.8,0.5,2.6c0.4,0.6,0.9,1.1,1.4,1.6C26.1,24.3,26.8,24.8,27.8,24.7z M23.3,48
			c0,0.7,0,1.3,0,2c0,0.3,0.1,0.3,0.3,0.3s0.3-0.1,0.3-0.3c0-0.4,0-0.8,0-1.3c0-0.1,0.1-0.2,0.2-0.2c0.3-0.1,0.6,0,0.8,0.3
			c0.1,0.2,0.3,0.5,0.4,0.7c0.2,0.3,0.3,0.6,0.6,0.8c0.2,0.1,0.5,0.1,0.7,0.1c0.1,0,0.2-0.3,0.3-0.5c0-0.1-0.1-0.3-0.2-0.3
			c-0.7,0-0.8-0.6-1-1.1c-0.1-0.2-0.2-0.3,0-0.4c0.5-0.4,0.7-0.9,0.6-1.5c0-0.3-0.5-0.9-0.8-0.9c-0.7,0-1.4,0-2,0
			c0,0.6-0.1,1.2-0.1,1.7C23.3,47.6,23.3,47.8,23.3,48z M42.4,48.7c0-0.1,0-0.1,0-0.2c0-0.5-0.5-1.5-0.9-1.6c-0.7-0.2-1.3,0-1.8,0.5
			c-0.4,0.4-0.6,1.1-0.5,1.7c0.2,1.2,1.3,1.7,2.3,1.1C42.2,49.9,42.4,49.4,42.4,48.7z M44.1,49c0,0.4,0,0.7,0,1s0.1,0.3,0.4,0.3
			c0.2,0,0.5,0.1,0.4-0.3c0-0.6,0-1.2,0-1.8c0-0.2,0.3-0.6,0.6-0.7c0.3-0.1,0.4,0.1,0.6,0.3c0.2,0.2,0.2,0.4,0.2,0.6
			c0,0.5,0,1,0,1.6c0,0.2,0,0.3,0.3,0.3c0.5,0,0.5,0,0.5-0.5s0-0.9,0-1.4c0-0.6-0.3-0.9-0.7-1.3c-0.3-0.3-0.7-0.3-1-0.2
			c-0.4,0.1-0.8,0.2-1.2,0c-0.1,0-0.2,0-0.2,0.1s0,0.2,0.1,0.3c0.1,0.2,0.3,0.4,0.3,0.5C44,48.2,44.2,48.6,44.1,49z M34.2,46.9
			c-0.2,0-0.5,0-0.7,0c-0.3,0.1-0.6,0.2-0.7,0.6c-0.1,0.5-0.3,0.9,0.1,1.3C33,48.9,33.1,49,33,49c-0.1,0.6,0.2,1,0.6,1.3
			c0.3,0.2,0.2,0.5-0.1,0.7c-0.1,0-0.2,0-0.3,0c-0.3,0-0.2,0.2-0.2,0.4c0,0.1,0.1,0.2,0.2,0.2c0.2,0,0.4,0,0.6,0
			c0.4-0.1,0.7-0.3,0.8-0.7c0.1-0.3,0.1-0.6-0.3-0.9c-0.2-0.1-0.3-0.3-0.4-0.4c-0.2-0.3-0.1-0.5,0.2-0.6c0.5-0.2,1-0.8,0.8-1.2
			c-0.1-0.3-0.2-0.5-0.2-0.8c0-0.1-0.1-0.2-0.2-0.2C34.6,46.9,34.4,46.9,34.2,46.9z M30,48.7c0.3,0,0.5,0,0.8,0c0.1,0,0.2,0,0.2-0.1
			c0-0.3,0.1-0.7,0-1c-0.2-0.6-1.1-0.8-1.7-0.5c-0.8,0.3-1,0.9-1,1.7c0,1.1,0.7,1.8,1.9,1.7c0.4,0,0.8-0.4,0.9-0.7
			c0-0.2-0.1-0.4-0.2-0.3c-0.4,0.3-0.8,0.2-1.2,0.2c-0.4,0-0.5-0.2-0.5-0.7c0-0.4,0.3-0.2,0.5-0.2C29.7,48.6,29.8,48.7,30,48.7z
			 M37.5,48.8c0-0.5,0-0.9,0-1.4c0-0.3-0.1-0.3-0.3-0.3s-0.3,0.1-0.3,0.3c0,0.8,0,1.7,0,2.5c0,0.3,0.1,0.3,0.3,0.3s0.3-0.1,0.3-0.3
			C37.5,49.6,37.5,49.2,37.5,48.8z M30.2,45.5c-0.2,0-0.3,0-0.4,0.1c-0.2,0.1-0.3,0.8-0.3,1l0.1,0.1c0.4,0,0.4-0.4,0.6-0.6
			c0.1-0.1,0.1-0.2,0.1-0.3C30.4,45.7,30.3,45.6,30.2,45.5z M37.5,46c-0.2,0-0.4-0.1-0.6-0.1l-0.1,0.2c0.1,0.3,0.3,0.1,0.5,0.1
			C37.4,46.3,37.4,46.2,37.5,46z"/>
		<path fill="#030304" d="M21.8,60.4c-0.1-0.4-0.6-0.3-0.8-0.5s-0.4-0.5-0.8-0.5c0,0-0.2-0.2-0.2-0.3c0-1.9,0-3.7,0-5.6
			c0-0.1,0.1-0.2,0.2-0.2c1,0,2-0.1,3,0c0.6,0,1,0.4,1.3,1s0.2,1.1-0.2,1.6c-0.1,0.1-0.2,0.2-0.3,0.4c-0.1,0.1-0.1,0.3,0.1,0.3
			c0.8,0.3,0.9,1,1,1.7c0,0.4-0.2,0.9-0.5,1.3c-0.2,0.3-0.6,0.6-1,0.6c-0.1,0-0.2,0.1-0.3,0.2C22.8,60.4,22.3,60.4,21.8,60.4z
			 M21.4,58c0,0.2,0,0.4,0,0.6c0,0.3,0.5,0.9,0.8,0.9c0.5,0.1,1.1-0.2,1.3-0.6c0.2-0.3,0-1-0.3-1.3c-0.2-0.3-0.5-0.5-0.9-0.4
			c-0.2,0-0.5,0-0.7,0s-0.3,0.1-0.3,0.3C21.4,57.6,21.4,57.8,21.4,58z M21.4,55.2c0,0.9,0,0.9,0.9,0.9c0.2,0,0.3,0,0.4-0.1
			s0.5,0,0.4-0.3s0.4-0.5,0.1-0.9c-0.2-0.3-0.4-0.5-0.8-0.5c-0.2,0-0.5,0-0.7,0c-0.3,0-0.4,0.1-0.4,0.4
			C21.4,54.9,21.4,55.1,21.4,55.2z"/>
		<path fill="#030304" d="M30,60.4c-0.7-0.5-0.7-0.5-1.4-2c-0.1-0.2-0.3-0.5-0.4-0.7c-0.2-0.3-0.4-0.3-0.7-0.3c-0.2,0-0.3,0-0.3,0.3
			c0,0.7,0,1.4,0,2.2c0,0.2,0,0.4-0.3,0.3c-0.2,0-0.5,0-0.7,0c-0.3,0-0.4-0.1-0.4-0.4c0-2,0-3.9,0-5.9c0-0.5,0.1-0.6,0.6-0.6
			c0.8,0,1.6-0.1,2.4,0s1.8,0.5,1.6,1.7c0,0.2,0,0.4,0,0.6c0.1,0.6-0.2,1.2-0.8,1.4c-0.4,0.2-0.3,0.4-0.2,0.5
			c0.2,0.5,0.5,0.9,0.8,1.3c0.2,0.3,0.5,0.1,0.7,0.1s0.3,0.1,0.3,0.3c0,0.1,0,0.2,0,0.3c0,0.5,0,0.5-0.4,0.8
			C30.7,60.4,30.3,60.4,30,60.4z M27.3,55.4c0,0.3,0,0.6,0,0.9c0,0.2,0.1,0.2,0.3,0.3c0.3,0.2,0.6,0.3,1,0.1
			c0.7-0.4,0.8-0.6,0.7-1.3c0-0.4-0.4-0.8-0.9-0.9C27.3,54.2,27.3,54.2,27.3,55.4z"/>
		<path fill="#030304" d="M61.2,60.4c-0.6-0.4-0.8-0.9-0.8-1.6c0-1,0-2,0-2.9c0-0.4-0.2-0.7-0.3-0.9c-0.3-0.5-1.1-0.5-1.6-0.1
			s-0.6,0.9-0.6,1.5c0,1.2,0,2.4,0,3.5c0,0.1,0,0.3-0.1,0.4c-0.4,0-0.8,0-1.2,0c0,0-0.1-0.2-0.1-0.3c0-1.3,0-2.7,0-4
			c0-0.3,0.1-0.7,0.3-1c0.1-0.2,0.1-0.3-0.1-0.5c-0.1-0.1-0.3-0.3-0.4-0.4c-0.1-0.1-0.3-0.2-0.1-0.5s0.7-0.5,0.9-0.3
			c0.1,0,0.1,0.1,0.1,0.1c0.4,0.4,0.8,0.4,1.2,0.1c0.6-0.4,1.3-0.2,1.9-0.1c0.5,0.1,0.9,0.6,1.2,1c0.2,0.2,0.2,0.5,0.3,0.8
			c0.1,0.8,0.3,1.6,0.2,2.5c0,0.4,0,0.8,0,1.2c0,0.1,0.1,0.2,0.2,0.2c0.3,0,0.4,0.1,0.4,0.4c0,0.2,0,0.3,0,0.5
			c0.1,0.4-0.5,0.2-0.4,0.5C61.9,60.4,61.5,60.4,61.2,60.4z"/>
		<path fill="#030304" d="M51.8,60.4c-0.1-0.1-0.2-0.2-0.3-0.2c-0.9-0.1-1.3-0.9-1.5-1.6c-0.2-0.7-0.3-1.4-0.2-2.2
			c0.1-1,0.4-2,1.3-2.7c0.3-0.3,0.7-0.5,1.1-0.4c0.2,0,0.3,0,0.5,0c0.5,0,1.1-0.1,1.5,0.3c0.2,0.1,0.6,0,0.7,0.2
			c0.1,0.2,0,0.6,0,0.9c0,0.1,0,0.3,0,0.4c0,0.6-0.2,0.8-0.8,0.6c-0.1,0-0.2-0.1-0.2-0.2c0.1-0.5-0.3-0.6-0.6-0.8
			c-0.2-0.2-1-0.2-1.2,0c-0.5,0.4-0.7,0.9-0.7,1.5c0,0.8-0.1,1.6,0.4,2.4c0.3,0.5,0.9,0.8,1.4,0.6c0.3-0.1,0.7-0.7,0.8-1
			c0-0.2,0-0.4-0.3-0.4c-0.1,0-0.3,0-0.4,0c-0.2,0-0.3,0-0.3-0.2s0-0.3,0-0.5c0-0.1,0.1-0.2,0.2-0.2c0.7,0,1.3,0,2,0
			c0.1,0,0.2,0.2,0.2,0.2c0,0.8,0,1.6,0,2.4c0,0.2-0.1,0.2-0.3,0.2c-0.3,0-0.6-0.1-0.8,0c-0.3,0.3-0.8,0.2-1.1,0.6
			C52.7,60.4,52.3,60.4,51.8,60.4z"/>
		<path fill="#030304" d="M48.1,60.4c-0.6-0.6-0.8-1.4-1-2.1c0-0.1-0.2-0.2-0.2-0.2c-0.5,0.4-1.1,0.1-1.7,0.2
			c-0.1,0-0.2,0.1-0.2,0.2c-0.1,0.3-0.2,0.7-0.4,1c-0.2,0.7-0.2,0.7-0.9,0.7c-0.2,0-0.3,0-0.5,0S43,60,43,59.9
			c0.3-0.8,0.6-1.6,0.8-2.4c0.3-1.1,0.8-2,0.9-3.1c0-0.2,0.1-0.4,0.2-0.6c0.1-0.2,0.2-0.4,0.5-0.4s0.6,0,0.9,0c0.7,0,0.9,0.2,1,0.8
			c0.3,1.6,1,3,1.4,4.5c0,0.1,0.2,0.3,0.3,0.3c0.1,0.1,0.4-0.1,0.4,0.2s0,0.6-0.1,1c0,0.1-0.2,0.2-0.3,0.2
			C48.7,60.4,48.4,60.4,48.1,60.4z M46,57.1c0.1,0,0.2,0,0.3,0c0.4,0,0.5-0.1,0.4-0.4c-0.1-0.4-0.2-0.9-0.4-1.3
			c-0.1-0.2-0.2-0.4-0.3-0.6c-0.1,0.2-0.2,0.4-0.3,0.7c-0.1,0.4-0.2,0.8-0.4,1.1c-0.2,0.4,0,0.5,0.3,0.5
			C45.8,57.1,45.9,57.1,46,57.1z"/>
		<path fill="#030304" d="M34.1,60.4c0-0.3-0.3-0.2-0.5-0.2c-0.7,0-1.1-0.3-1.4-0.9c-0.4-1-0.4-1.2,0-2.3c0.2-0.4,0.4-0.9,0.1-1.4
			c-0.2-0.4,0.1-0.8,0.2-1.2c0.1-0.3,0.3-0.5,0.6-0.7c0.4-0.2,0.8-0.3,1.2-0.3s0.9,0,1.3,0c0.2,0,0.4,0.1,0.5,0.1
			c0.4,0.2,0.4,0.2,0.3,0.6c0,0.1-0.1,0.3-0.1,0.4c0,0.1-0.2,0.2-0.2,0.2c-0.6-0.4-1.2-0.1-1.8-0.2c-0.3,0-0.5,0.2-0.5,0.4
			c-0.1,0.8,0.1,1.1,1,1.1c0.2,0,0.4,0,0.6,0c0.6,0,0.6,0,0.6,0.6c0,0.7,0.1,0.6-0.6,0.6c-0.4,0-0.9,0-1.3,0c-0.5,0-0.6,0.1-0.7,0.7
			c0,0.3,0.1,0.6,0.3,0.9c0.2,0.3,0.6,0.3,0.9,0.4c0.5,0.2,1.2-0.3,1.3-0.8C36,58.1,36,58,36.3,58c0.8,0,0.8,0,0.8,0.7
			c0,0.1,0,0.3,0,0.4c0,0.5,0,0.4-0.6,0.7c-0.3,0.1-0.8,0.2-1,0.6C35.2,60.4,34.7,60.4,34.1,60.4z"/>
		<path fill="#030304" d="M64.9,60.4c-0.1-0.4-0.6,0-0.7-0.4c-0.6-0.2-0.8-0.6-0.9-1.2c-0.2-0.5-0.1-1,0-1.5v-0.1
			c0.6-0.7,0.3-1.5,0.4-2.3c0-0.4,0-0.7,0.3-0.9c0.4-0.3,0.7-0.8,1.4-0.7c0.6,0,1.2,0,1.8,0c0,0.4,0,0.8,0,1.2c-0.1,0-0.3,0.1-0.4,0
			c-0.5-0.4-0.9-0.1-1.4,0C65,54.6,65,55,64.9,55.3c-0.1,0.3,0.2,0.5,0.4,0.7c0.1,0.1,0.2,0.1,0.4,0.1c0.5,0,1,0,1.6,0
			c0,0.4,0,0.8,0,1.2c-0.7,0-1.4,0-2.1,0c-0.3,0-0.4,0.2-0.5,0.5c-0.1,0.7,0.4,1.6,1.4,1.5c0.4,0,0.8-0.1,1.2-0.2c0,0.4,0,0.8,0,1.2
			c-0.2,0-0.5,0-0.7,0c-0.1,0-0.2,0.1-0.2,0.2C65.9,60.4,65.4,60.4,64.9,60.4z"/>
		<path fill="#030304" d="M40.2,60.4c-0.5-0.4-0.6-0.6-0.6-1.3c0-1.4,0-2.8,0-4.2c0-0.3-0.1-0.4-0.4-0.4c-0.4,0-0.9,0-1.3,0
			c-0.3,0-0.3-0.1-0.3-0.3s0-0.4,0-0.6c0-0.2,0.1-0.3,0.3-0.3c1.6,0,3.1,0,4.7,0c0.2,0,0.3,0,0.3,0.3c0,0.2,0,0.4,0,0.6
			c0,0.2,0,0.4-0.3,0.3h-0.1c-0.5,0-1,0.1-1.5,0.1c0,0.5,0,1,0,1.6c0,0.8,0,1.6,0,2.4c0,0.3,0.1,0.5,0.4,0.4
			c0.3-0.1,0.4,0.1,0.4,0.4c0,0.1,0,0.1,0,0.2c0,0.5,0,0.5-0.4,0.8C41,60.4,40.6,60.4,40.2,60.4z"/>
		<path fill="#FDFDFD" d="M67.3,59.1c-0.4,0.1-0.8,0.2-1.2,0.2c-1,0.1-1.5-0.8-1.4-1.5c0-0.3,0.2-0.5,0.5-0.5c0.7,0,1.4,0,2.1,0
			C67.3,57.9,67.3,58.5,67.3,59.1z"/>
		<path fill="#FDFDFD" d="M67.3,56.1c-0.5,0-1,0-1.6,0c-0.1,0-0.3,0-0.4-0.1c-0.2-0.2-0.6-0.4-0.4-0.7c0.1-0.3,0.2-0.7,0.5-0.8
			c0.5-0.1,0.9-0.4,1.4,0c0.1,0.1,0.3,0,0.4,0C67.3,55.1,67.3,55.6,67.3,56.1z"/>
		<path fill="#FDFDFD" d="M66.3,60.4c0.1-0.1,0.2-0.2,0.2-0.2c0.2,0,0.5,0,0.7,0c0,0.1-0.1,0.2-0.1,0.2
			C66.9,60.4,66.6,60.4,66.3,60.4z"/>
		<path fill="#030304" d="M59.1,29c0.2,0.7-0.3,1.3-0.5,2c-0.3,1-0.8,1.8-1.3,2.7c-0.1,0.2-0.4,0.3-0.5,0.5
			c-0.1,0.1-0.2,0.1-0.2,0.2c0.1,0.1,0.2,0.1,0.3,0.2c0.2,0,0.4,0,0.6,0c1.3-0.2,2.4,0.2,3.6,0.6c0.9,0.3,1.8,0.6,2.6,1.1
			c0.6,0.4,0.6,0.3,0.2,0.8c-1,1-2.1,1.9-3.4,2.6c-0.7,0.4-1.4,0.7-2.1,0.9c-0.6,0.1-1.2,0-1.8,0c-0.1,0-0.2,0-0.3,0.1
			c0.1,0.1,0.1,0.2,0.2,0.3c0.9,0.4,1.2,1.2,1.7,1.8s0.8,1.3,1.1,2.1c0.2,0.6,0.4,1.2,0.3,1.8c0,0.1-0.2,0.2-0.3,0.2
			c-0.8-0.4-1.7-0.5-2.5-0.8s-1.6-0.5-2.4-0.8c-0.9-0.4-1.9-0.7-2.8-1.1c-1.2-0.6-2.4-1.1-3.6-1.8c-0.9-0.5-1.8-1-2.6-1.5
			c-0.9-0.6-1.9-1.2-2.8-1.8c-0.7-0.5-1.4-1.2-2.2-1.7c-0.8-0.6-1.5-1.3-2.3-2c-1-0.9-2.1-1.8-2.8-2.9c-0.2-0.3-0.5-0.5-0.7-0.7
			c-0.4-0.5-0.8-0.9-1.2-1.4c-0.3-0.5-0.8-0.9-1.1-1.4c-0.2-0.4-0.6-0.7-0.9-1.1c-0.1-0.1,0-0.2,0-0.3c0.1,0,0.2,0,0.3,0
			c1.1,0.9,2.5,1.5,3.7,2.1c1.1,0.5,2.3,1,3.6,1.2c0.9,0.2,1.8,0.4,2.7,0.6c0.5,0.1,1,0,1.4,0.2c0.5,0.2,1,0.1,1.4,0.2
			c1.2,0.3,2.5,0.1,3.7,0.2c0.5,0,1,0.1,1.5-0.2c0.4-0.2,0.9,0.1,1.4-0.2c1.1,0,2.1-0.4,3.1-0.8c1.4-0.6,2.9-1.2,4.1-2.3
			c0.1-0.1,0.3-0.2,0.5-0.3c0.1-0.1,0.2-0.3,0.3,0.1C59.1,28.5,59.1,28.7,59.1,29z"/>
		<path fill="#030304" d="M31.2,24c0.1-1.5,0.8-2.7,1.9-3.6c0.3-0.2,0.7-0.4,1-0.6c0.3-0.3,0.8-0.1,1.1-0.4c0.4-0.2,0.8,0.1,0.8,0.8
			c0.1,0.9-0.1,1.8-0.6,2.5c-0.6,0.7-1.2,1.6-2.2,1.9c-0.6,0.2-1.2,0.4-1.8,0.3c-0.1,0-0.2-0.1-0.2-0.2C31.2,24.5,31.2,24.2,31.2,24
			z"/>
		<path fill="#030304" d="M29.1,27.6c-0.2,1.2-0.8,2.2-1.8,3c-0.6,0.4-1.3,0.7-2,0.9c-0.6,0.2-1.1-0.2-1.7-0.2c0,0-0.1-0.1-0.1-0.2
			c0-0.4,0-0.8,0.2-1.2c0.5-1.1,1.7-2.3,2.8-2.9c0.6-0.3,1.2-0.2,1.8-0.5c0.2-0.1,0.5,0,0.7,0.2C29,27.1,29,27.4,29.1,27.6z"/>
		<path fill="#030304" d="M27.8,24.7c-0.9,0.1-1.7-0.4-2.3-1c-0.5-0.5-1-1-1.4-1.6c-0.5-0.8-0.6-1.7-0.5-2.6c0-0.1,0.2-0.1,0.3-0.1
			c0.8,0,1.6,0.3,2.3,0.7c0.9,0.5,1.5,1.2,2.1,2.1c0.5,0.7,0.5,1.5,0.5,2.3c0,0.1-0.1,0.2-0.2,0.2C28.2,24.7,28,24.7,27.8,24.7z"/>
		<path fill="#030304" d="M23.3,48c0-0.2,0-0.3,0-0.5c0-0.6,0-1.2,0.1-1.7c0.7,0,1.4,0,2,0c0.3,0,0.8,0.6,0.8,0.9
			c0.1,0.6-0.1,1.1-0.6,1.5c-0.2,0.2-0.1,0.3,0,0.4c0.2,0.5,0.3,1,1,1.1c0.1,0,0.2,0.2,0.2,0.3c-0.1,0.2-0.1,0.4-0.3,0.5
			c-0.2,0.1-0.5,0.1-0.7-0.1c-0.3-0.2-0.4-0.5-0.6-0.8c-0.1-0.2-0.3-0.5-0.4-0.7c-0.2-0.3-0.5-0.4-0.8-0.3c-0.1,0-0.2,0.1-0.2,0.2
			c0,0.4,0,0.8,0,1.3c0,0.2-0.1,0.3-0.3,0.3c-0.3,0-0.3-0.1-0.3-0.3C23.3,49.3,23.3,48.6,23.3,48z M23.9,47c0,0.2,0,0.3,0,0.5
			c0.1,0.2,0.2,0.3,0.3,0.4c0.1,0,0.2,0,0.3,0c0.7,0,1,0,0.9-0.9c0-0.3-0.1-0.5-0.4-0.7C24.3,45.9,23.9,46.1,23.9,47z"/>
		<path fill="#030304" d="M42.4,48.7c0.1,0.7-0.2,1.2-0.8,1.6c-1,0.5-2.1,0-2.3-1.1c-0.1-0.7,0-1.3,0.5-1.7c0.4-0.4,1.1-0.6,1.8-0.5
			c0.4,0.1,0.9,1,0.9,1.6C42.4,48.5,42.4,48.6,42.4,48.7z M41.6,48.7c0-0.2,0-0.4,0-0.6c0-0.2-0.4-0.6-0.6-0.6
			c-0.4-0.1-0.6,0-0.8,0.4c-0.3,0.5-0.3,1,0,1.5c0.3,0.6,0.7,0.6,1.2,0.2C41.7,49.3,41.6,49,41.6,48.7z"/>
		<path fill="#030304" d="M44.1,49c0.1-0.3-0.2-0.8,0.2-1.2c0,0-0.2-0.3-0.3-0.5c0-0.1-0.1-0.2-0.1-0.3l0.2-0.1
			c0.4,0.2,0.8,0.1,1.2,0c0.3-0.1,0.7-0.1,1,0.2c0.3,0.4,0.7,0.7,0.7,1.3c0,0.5,0,0.9,0,1.4s0,0.5-0.5,0.5c-0.3,0-0.3-0.1-0.3-0.3
			c0-0.5,0-1,0-1.6c0-0.2,0-0.4-0.2-0.6c-0.2-0.2-0.3-0.3-0.6-0.3c-0.2,0.1-0.6,0.5-0.6,0.7c0,0.6,0,1.2,0,1.8
			c0,0.4-0.2,0.3-0.4,0.3S44,50.3,44,50C44.2,49.6,44.1,49.4,44.1,49z"/>
		<path fill="#030304" d="M34.2,46.9c0.2,0,0.3,0,0.5,0c0.1,0,0.2,0.1,0.2,0.2c0,0.3,0.1,0.5,0.2,0.8c0.2,0.4-0.3,1-0.8,1.2
			c-0.3,0.1-0.4,0.3-0.2,0.6c0.1,0.1,0.3,0.3,0.4,0.4c0.3,0.2,0.3,0.6,0.3,0.9c-0.1,0.3-0.4,0.6-0.8,0.7c-0.2,0-0.4,0-0.6,0
			c-0.1,0-0.2-0.1-0.2-0.2c0-0.1-0.1-0.3,0.2-0.4c0.1,0,0.2,0,0.3,0c0.3-0.1,0.4-0.4,0.1-0.7C33.4,50,33,49.6,33.1,49
			c0-0.1-0.1-0.2-0.1-0.2c-0.4-0.4-0.3-0.9-0.1-1.3c0.1-0.4,0.4-0.5,0.7-0.6C33.8,46.9,34,46.9,34.2,46.9z M33.3,47.9
			c0,0.6,0.1,0.8,0.5,0.8c0.3,0,0.8-0.4,0.7-0.7c0-0.2-0.4-0.7-0.6-0.6c-0.2,0-0.4,0.1-0.5,0.2C33.3,47.6,33.4,47.8,33.3,47.9z"/>
		<path fill="#030304" d="M30,48.7c-0.2,0-0.3,0-0.5,0S29,48.5,29,48.9c0,0.5,0.1,0.7,0.5,0.7s0.8,0.1,1.2-0.2
			c0.2-0.1,0.3,0.1,0.2,0.3c0,0.3-0.4,0.6-0.9,0.7c-1.1,0.1-1.8-0.5-1.9-1.7c0-0.8,0.2-1.4,1-1.7c0.7-0.3,1.5-0.1,1.7,0.5
			c0.1,0.3,0,0.7,0,1c0,0-0.1,0.1-0.2,0.1C30.5,48.7,30.3,48.7,30,48.7z M29.8,48.3c0.1,0,0.2,0,0.3,0c0.1,0,0.3,0,0.3-0.1
			s0-0.3-0.1-0.5c-0.1-0.1-0.2-0.3-0.3-0.3c-0.2-0.1-0.4-0.1-0.6,0.1c-0.2,0.2-0.5,0.4-0.3,0.7c0,0.1,0.3,0.1,0.5,0.1
			C29.6,48.3,29.7,48.3,29.8,48.3z"/>
		<path fill="#030304" d="M37.5,48.8c0,0.4,0,0.8,0,1.2c0,0.2,0,0.3-0.3,0.3c-0.2,0-0.4,0-0.3-0.3c0-0.8,0-1.7,0-2.5
			c0-0.2,0-0.3,0.3-0.3c0.2,0,0.4,0,0.3,0.3C37.4,47.9,37.5,48.3,37.5,48.8z"/>
		<path fill="#030304" d="M30.2,45.5c0.1,0.1,0.1,0.2,0.2,0.3c0,0.1,0,0.2-0.1,0.3c-0.2,0.2-0.1,0.6-0.6,0.6c-0.1,0-0.1-0.1-0.1-0.1
			c-0.1-0.2,0.1-0.9,0.3-1C29.9,45.5,30.1,45.5,30.2,45.5z"/>
		<path fill="#030304" d="M37.5,46c-0.1,0.2-0.1,0.3-0.2,0.3c-0.2,0-0.4,0.1-0.5-0.1c0-0.1,0.1-0.2,0.1-0.2
			C37.1,45.9,37.3,46,37.5,46z"/>
		<path fill="#FDFDFD" d="M21.4,58c0-0.2,0-0.4,0-0.6c0-0.2,0.1-0.3,0.3-0.3c0.2,0,0.5,0,0.7,0c0.4-0.1,0.7,0.1,0.9,0.4
			c0.2,0.3,0.4,1,0.3,1.3c-0.2,0.4-0.8,0.7-1.3,0.6c-0.3-0.1-0.8-0.6-0.8-0.9C21.4,58.3,21.4,58.1,21.4,58z"/>
		<path fill="#FDFDFD" d="M21.4,55.2c0-0.2,0-0.3,0-0.5c0-0.3,0-0.4,0.4-0.4c0.2,0,0.5,0,0.7,0c0.4,0,0.6,0.2,0.8,0.5
			c0.3,0.4-0.2,0.6-0.1,0.9c0.1,0.3-0.3,0.2-0.4,0.3c-0.1,0.1-0.3,0.1-0.4,0.1C21.4,56.2,21.4,56.2,21.4,55.2z"/>
		<path fill="#FDFDFD" d="M27.3,55.4c0-1.1,0-1.1,1.1-1c0.4,0.1,0.8,0.5,0.9,0.9c0.1,0.8-0.1,1-0.7,1.3c-0.4,0.2-0.6,0.2-1-0.1
			c-0.1-0.1-0.3-0.1-0.3-0.3C27.3,56,27.3,55.7,27.3,55.4z"/>
		<path fill="#FDFDFD" d="M46,57.1c-0.1,0-0.2,0-0.3,0c-0.4,0-0.5-0.1-0.3-0.5s0.3-0.7,0.4-1.1c0-0.2,0.2-0.5,0.3-0.7
			c0.1,0.2,0.3,0.4,0.3,0.6c0.2,0.4,0.3,0.9,0.4,1.3c0.1,0.4,0,0.4-0.4,0.4C46.2,57.1,46.1,57.1,46,57.1z"/>
		<path fill="#FDFDFD" d="M23.9,47c0-0.9,0.4-1.1,1.2-0.7c0.3,0.2,0.4,0.4,0.4,0.7c0,0.9-0.2,1-0.9,0.9c-0.1,0-0.2,0-0.3,0
			c-0.1-0.1-0.3-0.2-0.3-0.4C23.9,47.3,23.9,47.1,23.9,47z"/>
		<path fill="#FDFDFD" d="M41.6,48.7c0,0.3,0.1,0.6-0.2,0.9c-0.5,0.4-0.8,0.3-1.2-0.2c-0.3-0.5-0.2-1,0-1.5c0.2-0.4,0.4-0.5,0.8-0.4
			c0.2,0,0.6,0.4,0.6,0.6C41.6,48.3,41.6,48.5,41.6,48.7z"/>
		<path fill="#FDFDFD" d="M33.3,47.9c0-0.1,0-0.3,0.1-0.3c0.1-0.1,0.3-0.2,0.5-0.2c0.2,0,0.6,0.4,0.6,0.6c0,0.3-0.4,0.7-0.7,0.7
			S33.3,48.4,33.3,47.9z"/>
		<path fill="#FDFDFD" d="M29.8,48.3c-0.1,0-0.1,0-0.2,0c-0.2,0-0.5,0-0.5-0.1c-0.2-0.3,0.1-0.5,0.3-0.7c0.2-0.2,0.4-0.2,0.6-0.1
			c0.1,0.1,0.3,0.2,0.3,0.3c0.1,0.1,0.1,0.3,0.1,0.5c0,0.1-0.2,0.1-0.3,0.1S29.9,48.3,29.8,48.3z"/>
	</g>
</g>
<polygon fill="#020203" points="20.4,61.5 20.6,61.6 20.7,61.7 20.8,61.7 20.7,61.6 20.6,61.5 20.5,61.5 "/>
<polyline fill="#020203" points="21.3,62.1 21.4,62.2 21.5,62.3 21.6,62.3 21.8,62.4 20,62.4 20,61.2 "/>
<polygon fill="#020203" points="21.7,62.4 21.8,62.4 21.6,62.4 21.5,62.3 21.4,62.2 21.3,62.2 21.3,62.1 21.3,62.1 21.3,62.1 
	21.4,62.1 21.5,62.2 21.5,62.2 21.6,62.2 21.7,62.3 21.7,62.3 "/>
<circle fill="none" stroke="#051821" stroke-width="3" stroke-miterlimit="10" cx="43.6" cy="41.8" r="33.4"/>
</svg>
