<?xml version="1.0" encoding="utf-8"?>
<!-- Generator: Adobe Illustrator 23.0.3, SVG Export Plug-In . SVG Version: 6.00 Build 0)  -->
<svg version="1.2" baseProfile="tiny" id="Calque_1"
	 xmlns="http://www.w3.org/2000/svg" xmlns:xlink="http://www.w3.org/1999/xlink" x="0px" y="0px" viewBox="0 0 88.1 84.1"
	 xml:space="preserve">
<circle fill="#1E3C73" cx="43.7" cy="42.1" r="34.2"/>
<g>
	<g>
		<path fill="#1E3C73" d="M15.1,58.2c0-10.7,0-21.4,0-32.2c19.1,0,38.1,0,57.2,0c0,10.7,0,21.4,0,32.2
			C53.2,58.2,34.2,58.2,15.1,58.2z M23.8,55c0,0.5,0,1.1,0,1.6c0,0.2,0,0.5,0.1,0.7c0.1,0.3,0.3,0.5,0.6,0.5c0.2,0,0.3,0,0.5,0
			c0.4,0,0.8-0.3,0.8-0.7c0-0.2,0.1-0.4,0.1-0.7c0-0.2,0.1-0.3,0.3-0.3c0.2,0,0.5,0,0.7-0.1c0.4-0.1,0.8-0.3,1.1-0.6
			c0.2-0.2,0.3-0.2,0.4,0c0.3,0.4,0.7,0.5,1.2,0.6c0.2,0,0.4,0.1,0.7,0.1c0.2,0,0.3,0,0.5-0.1c0.3,0,0.5-0.1,0.8-0.3
			c0.2-0.1,0.3-0.2,0.5-0.4c0.1-0.1,0.2-0.1,0.4,0c0.3,0.2,0.5,0.4,0.8,0.5c0.6,0.2,1.1,0.3,1.6,0c0.1-0.1,0.2-0.1,0.3,0
			c0.3,0.1,0.6,0.2,0.9,0.3c0.4,0.1,0.8,0.1,1.2,0c0.3-0.1,0.5-0.2,0.8-0.3c0.2-0.1,0.4-0.3,0.5-0.6c0-0.2,0-0.4,0-0.6
			c-0.1-0.2,0-0.3,0.1-0.5c0.2-0.2,0.2-0.5,0.2-0.8s0-0.6-0.1-0.9c-0.1-0.4-0.3-0.8-0.6-1.1c-0.2-0.2-0.5-0.4-0.9-0.5
			c-0.4-0.1-0.9-0.2-1.3-0.1c-0.4,0.1-0.7,0.2-1,0.4s-0.4,0.4-0.6,0.7c-0.1,0.2-0.2,0.5-0.3,0.7c0,0,0,0.1-0.1,0.1
			c-0.1,0,0-0.1,0-0.1c0-0.3,0-0.7,0-1s0-0.6,0-1c0-0.3,0-0.6-0.1-0.8c-0.1-0.2-0.1-0.3-0.3-0.4c-0.1-0.1-0.3-0.2-0.5-0.2
			c-0.4-0.1-0.9,0-1.2,0.5c-0.1,0.2-0.2,0.2-0.4,0.1l-0.1-0.1c-0.3-0.1-0.5-0.3-0.8-0.4c-0.3-0.1-0.7-0.1-1,0
			c-0.4,0.2-0.8,0.4-1.1,0.6c-0.2,0.3-0.3,0.6-0.3,1c0,0.2,0.1,0.3,0.1,0.5c0,0.1,0,0.2-0.1,0.3s-0.2,0-0.2-0.1
			c-0.2-0.2-0.4-0.4-0.7-0.5c-0.2-0.1-0.3-0.1-0.5-0.2c-0.3-0.1-0.6-0.1-0.9,0c-0.3,0-0.6,0.1-0.9,0.2c-0.4,0.2-0.7,0.5-0.9,0.8
			c-0.2,0.5-0.3,1-0.4,1.5C23.8,53.9,23.8,54.4,23.8,55z M57.2,53.3L57.2,53.3c-0.1-0.3-0.1-0.5-0.1-0.7c0-0.8,0-1.7,0-2.5
			c0-0.4-0.4-0.9-0.9-0.8c-0.1,0-0.1,0-0.2,0c-0.4,0-0.7,0.3-0.8,0.7c-0.1,0.3-0.1,0.7-0.1,1v0.1c0,0.2-0.1,0.2-0.3,0.1
			c-0.1-0.1-0.3-0.2-0.4-0.2c-0.5-0.2-1-0.2-1.5-0.1c-0.2,0-0.4,0.1-0.6,0.2c-0.2,0.2-0.4,0.3-0.6,0.5c-0.2,0.2-0.2,0.2-0.5,0
			c-0.1-0.1-0.2-0.2-0.3-0.3c-0.3-0.2-0.7-0.4-1-0.4c-0.5-0.1-0.9-0.1-1.3,0.1c-0.3,0.1-0.7,0.2-1,0c-0.1,0-0.2-0.1-0.4-0.1
			c-0.4-0.1-0.8-0.1-1.2,0s-0.8,0.3-1,0.6c-0.1,0.1-0.1,0.2-0.2,0.2c-0.1,0.1-0.2,0.1-0.3,0l-0.1-0.1c-0.2-0.2-0.4-0.4-0.7-0.5
			c-0.2-0.1-0.5-0.2-0.7-0.2c-0.4-0.1-0.7-0.1-1.1,0c-0.5,0.1-0.9,0.4-1.2,0.8c-0.2,0.3-0.4,0.7-0.5,1.1c0,0.3,0,0.6,0,1
			c0,0.3,0.1,0.7,0.2,1c0.1,0.4,0.3,0.7,0.6,0.9c0.6,0.5,1.3,0.6,2.1,0.5c0.3,0,0.7-0.1,1-0.3c0.2-0.1,0.4-0.1,0.6,0
			c0.2,0.2,0.5,0.2,0.8,0.2c0.4,0,0.6-0.2,0.7-0.6c0-0.1,0-0.3,0-0.4c0-0.6,0-1.1,0-1.7c0-0.1,0-0.3,0.2-0.4
			c0.2-0.2,0.5-0.1,0.6,0.2c0,0.2,0.1,0.4,0.1,0.5c0,0.4,0,0.8,0,1.3c0,0.1,0,0.2,0,0.4c0.1,0.4,0.4,0.9,0.9,0.8h0.1
			c0.4,0,0.7-0.2,0.8-0.6c0.1-0.2,0.1-0.4,0.1-0.7c0-0.4,0-0.9,0-1.3c0-0.2,0-0.3,0.1-0.5s0.2-0.2,0.4-0.2c0.1,0,0.3,0.2,0.3,0.3
			c0,0.3,0.1,0.6,0.1,0.9c0,0.4,0,0.9,0,1.3c0,0.3,0.2,0.5,0.4,0.7c0.2,0.1,0.4,0.1,0.6,0.1c0.2,0,0.3,0.1,0.3,0.3s0,0.4,0.1,0.6
			c0,0.2,0.2,0.4,0.4,0.6c0.2,0.1,0.4,0.2,0.6,0.1c0.4,0,0.6-0.2,0.8-0.5c0.1-0.3,0.1-0.5,0.1-0.8c0-0.2,0.1-0.3,0.3-0.3
			s0.3,0,0.5,0c0.4-0.1,0.7-0.2,1-0.4c0.1-0.1,0.3-0.3,0.4-0.4c0.1-0.1,0.2-0.1,0.3,0s0.1,0.1,0.2,0.2c0.4,0.3,0.8,0.4,1.2,0.5
			c0.3,0,0.6,0,0.8-0.2c0.2-0.1,0.3-0.1,0.5,0c0.1,0,0.2,0.1,0.3,0.1c0.2,0.1,0.4,0.1,0.7,0.1s0.6,0,0.9-0.1
			c0.3-0.1,0.5-0.2,0.8-0.4c0.2-0.1,0.2-0.1,0.3,0c0.2,0.3,0.5,0.4,0.9,0.4c0.3,0,0.6-0.2,0.7-0.4c0.1-0.2,0.1-0.5,0.1-0.7
			c0-1,0-1.9,0-2.9c0-0.3-0.1-0.6-0.2-0.9c-0.1-0.1-0.1-0.3,0-0.4C63,50.5,63,50.2,63,50c0-0.4-0.3-0.7-0.6-0.8c-0.1,0-0.3,0-0.4,0
			c-0.3,0-0.5,0.2-0.7,0.4c-0.2,0.3-0.2,0.7,0,1c0.1,0.2,0.1,0.3,0.1,0.5c-0.1,0.2-0.2,0.3-0.4,0.1c-0.1-0.1-0.2-0.1-0.3-0.2
			c-0.6-0.3-1.2-0.3-1.9-0.2c-0.5,0.1-0.9,0.3-1.1,0.7c-0.2,0.3-0.3,0.6-0.4,0.9C57.3,52.8,57.3,53,57.2,53.3z M43.7,47.3
			c0.3,0,0.6,0,0.9-0.1c0.4,0,0.8-0.1,1.2-0.2c0.5-0.1,1-0.3,1.5-0.4c0.4-0.1,0.8-0.3,1.1-0.5c0.2-0.1,0.5-0.3,0.7-0.4
			c0.6-0.4,1.1-0.8,1.6-1.2c0.3-0.2,0.5-0.5,0.8-0.8c0.1-0.1,0.2-0.2,0.3-0.3c0.2-0.1,0.3-0.2,0.5-0.3c0.4-0.2,0.8-0.5,1.1-0.8
			s0.6-0.5,0.8-0.9c0.4-0.5,0.6-1.1,0.6-1.7c0-0.5-0.2-0.8-0.6-1.1c-0.2-0.1-0.3-0.3-0.3-0.5c0-0.1,0-0.1,0-0.2
			c0-0.2,0.1-0.4,0.3-0.6c0.2-0.1,0.4-0.3,0.5-0.5c0.2-0.3,0.3-0.6,0.3-0.9c0-0.2,0-0.5,0-0.7c0-0.3,0-0.5-0.1-0.8s-0.1-0.6-0.2-1
			c-0.1-0.2-0.2-0.4-0.2-0.6c-0.1-0.3-0.3-0.6-0.5-0.9c-0.3-0.4-0.6-0.8-1-1.1c-0.3-0.2-0.5-0.4-0.8-0.6s-0.6-0.4-0.9-0.6
			c-0.2-0.3-0.5-0.5-0.8-0.8s-0.6-0.5-0.9-0.8c-0.2-0.2-0.4-0.3-0.6-0.4c-0.4-0.3-0.8-0.5-1.3-0.7s-0.9-0.4-1.4-0.5
			c-0.3-0.1-0.6-0.2-0.9-0.2c-0.3-0.1-0.5-0.1-0.8-0.1C44.2,26,43.9,26,43.5,26c-0.3,0-0.6,0-0.9,0c-0.3,0-0.6,0-0.9,0.1
			c-0.2,0-0.4,0.1-0.6,0.1c-0.4,0.1-0.8,0.2-1.2,0.3c-0.4,0.1-0.8,0.3-1.1,0.5c-1,0.4-1.9,1.1-2.7,1.8c-0.5,0.4-0.9,0.9-1.3,1.5
			c-0.6,0.7-1,1.6-1.4,2.4c-0.2,0.5-0.4,1-0.5,1.4c-0.1,0.3-0.1,0.7-0.2,1c-0.1,0.4-0.1,0.9-0.1,1.3c0,0.2,0,0.4,0,0.6
			c0,0.3,0,0.6,0.1,0.9c0,0.3,0.1,0.7,0.2,1c0.1,0.4,0.2,0.7,0.3,1c0.1,0.4,0.3,0.8,0.5,1.2c0.3,0.6,0.6,1.1,1,1.7
			c0.3,0.4,0.6,0.8,0.9,1.1s0.5,0.5,0.8,0.8c0.6,0.5,1.2,0.9,1.8,1.3c1,0.5,1.9,0.9,3,1.1C42.3,47.2,43,47.3,43.7,47.3z"/>
		<path fill="#026298" d="M23.8,55c0-0.5,0-1.1,0-1.6s0.1-1,0.4-1.5c0.2-0.4,0.5-0.7,0.9-0.8c0.3-0.1,0.6-0.2,0.9-0.2s0.6,0,0.9,0
			c0.2,0,0.3,0.1,0.5,0.2c0.3,0.1,0.5,0.3,0.7,0.5c0.1,0.1,0.1,0.1,0.2,0.1s0.1-0.2,0.1-0.3c-0.1-0.2-0.1-0.3-0.1-0.5
			c0-0.3,0.1-0.7,0.4-0.9s0.7-0.5,1.1-0.6c0.3-0.1,0.7-0.1,1,0s0.5,0.3,0.8,0.4l0.1,0.1c0.2,0.1,0.3,0.1,0.4-0.1
			c0.2-0.5,0.7-0.6,1.2-0.5c0.2,0,0.3,0.1,0.5,0.2c0.2,0.1,0.2,0.3,0.3,0.4c0.1,0.3,0.1,0.6,0.1,0.8c0,0.3,0,0.6,0,1
			c0,0.3,0,0.7,0,1v0.1c0.1,0,0.1,0,0.1-0.1c0.1-0.2,0.2-0.5,0.3-0.7c0.1-0.3,0.3-0.5,0.6-0.7s0.7-0.4,1-0.4c0.4-0.1,0.9,0,1.3,0.1
			c0.3,0.1,0.6,0.3,0.9,0.5c0.3,0.3,0.5,0.7,0.6,1.1c0.1,0.3,0.1,0.6,0.1,0.9c0,0.3-0.1,0.5-0.2,0.8c-0.1,0.2-0.1,0.3-0.1,0.5
			c0.1,0.2,0.1,0.4,0,0.6c-0.1,0.3-0.3,0.5-0.5,0.6s-0.5,0.3-0.8,0.3c-0.4,0.1-0.8,0.1-1.2,0c-0.3,0-0.6-0.2-0.9-0.3
			c-0.1,0-0.2,0-0.3,0c-0.5,0.3-1.1,0.2-1.6,0c-0.3-0.1-0.6-0.3-0.8-0.5c-0.1-0.1-0.2-0.1-0.4,0c-0.1,0.1-0.3,0.3-0.5,0.4
			c-0.3,0.1-0.5,0.2-0.8,0.3c-0.2,0-0.3,0.1-0.5,0.1s-0.4,0-0.7-0.1c-0.5-0.1-0.9-0.3-1.2-0.6c-0.2-0.2-0.3-0.2-0.4,0
			c-0.3,0.3-0.7,0.5-1.1,0.6c-0.2,0-0.5,0.1-0.7,0.1s-0.2,0.1-0.3,0.3c0,0.2,0,0.5-0.1,0.7c-0.1,0.4-0.4,0.7-0.8,0.7
			c-0.2,0-0.3,0-0.5,0c-0.3,0-0.5-0.3-0.6-0.5S24,57,24,56.8C23.8,56.1,23.8,55.5,23.8,55z M24.1,55c0,0.5,0,0.9,0,1.4
			c0,0.2,0,0.4,0.1,0.6c0.1,0.2,0.2,0.4,0.4,0.5c0.4,0.1,0.8-0.1,0.9-0.5c0-0.2,0.1-0.3,0.1-0.5c0-0.3,0.1-0.4,0.4-0.5
			c0.2,0,0.4,0,0.5,0c0.6-0.1,1.1-0.4,1.4-0.9c0-0.1,0.1-0.1,0.2-0.2c0.1-0.1,0.1,0,0.2,0c0.1,0.1,0.1,0.1,0.2,0.2
			c0.2,0.3,0.5,0.5,0.8,0.7c0.4,0.2,0.8,0.2,1.3,0.2c0.2,0,0.4-0.1,0.6-0.2c0.3-0.1,0.5-0.4,0.7-0.6l0.1-0.1c0.2-0.2,0.3-0.2,0.4,0
			c0.3,0.4,0.6,0.6,1.1,0.8c0.4,0.1,0.7,0.1,1-0.2c0.1-0.1,0.3-0.2,0.5-0.1c0.1,0,0.2,0.1,0.3,0.1c0.3,0.2,0.5,0.3,0.8,0.3
			c0.4,0,0.8,0,1.2-0.1c0.3-0.1,0.6-0.2,0.7-0.5c0.1-0.1,0.1-0.3,0.1-0.4c0-0.2-0.1-0.3-0.2-0.5c-0.1-0.1-0.1-0.2,0-0.3
			c0.1-0.1,0.2-0.2,0.3-0.3c0.1-0.1,0.2-0.3,0.2-0.5c0-0.4-0.1-0.8-0.2-1.1c-0.3-0.8-1.1-1.2-1.9-1.2c-0.3,0-0.6,0.1-0.9,0.2
			c-0.4,0.2-0.7,0.5-0.9,0.8c-0.2,0.3-0.3,0.6-0.3,0.9c0,0.2-0.1,0.5-0.1,0.7s0,0.3,0,0.5c0,0.1-0.1,0.2-0.2,0.1
			c-0.2,0-0.4-0.2-0.4-0.5c0-0.7,0-1.3,0-2c0-0.5,0-0.9,0-1.4c0-0.2,0-0.4-0.1-0.6c-0.2-0.4-0.8-0.5-1.2-0.1
			c-0.2,0.3-0.3,0.5-0.3,0.9c0,0.3,0,0.6,0,0.9c0,0.1,0,0.1,0,0.2c0,0.1-0.1,0.2-0.2,0.1c-0.1-0.1-0.2-0.2-0.3-0.3
			c0-0.1,0-0.1,0-0.2c0.1-0.1,0.1-0.2,0.2-0.4c0.1-0.1,0.1-0.2,0-0.3c-0.1-0.3-0.3-0.5-0.5-0.6s-0.4-0.2-0.7-0.3
			c-0.3-0.1-0.5-0.1-0.8-0.1c-0.4,0.1-0.7,0.3-1,0.6c-0.2,0.2-0.3,0.7-0.1,0.9c0.1,0.1,0.1,0.3,0,0.4c-0.1,0.2-0.3,0.5-0.5,0.6h-0.1
			c-0.2,0-0.2-0.2-0.3-0.3c-0.2-0.3-0.5-0.5-0.8-0.6c-0.5-0.2-0.9-0.2-1.4-0.1c-0.4,0.1-0.8,0.3-1.1,0.7c-0.1,0.1-0.1,0.2-0.2,0.2
			c-0.1,0.2-0.2,0.4-0.2,0.6c-0.1,0.4-0.1,0.9-0.1,1.3C24.1,54.4,24.1,54.7,24.1,55z"/>
		<path fill="#026298" d="M57.2,53.3c0.1-0.3,0.1-0.5,0.2-0.7c0.1-0.3,0.2-0.6,0.4-0.9c0.3-0.4,0.7-0.6,1.1-0.7
			c0.6-0.1,1.3-0.1,1.9,0.2c0.1,0.1,0.2,0.1,0.3,0.2c0.2,0.1,0.3,0.1,0.4-0.1c0.1-0.2,0-0.4-0.1-0.5c-0.1-0.3-0.1-0.7,0-1
			s0.4-0.4,0.7-0.4c0.1,0,0.3,0,0.4,0c0.3,0.1,0.6,0.4,0.6,0.8c0,0.3,0,0.5-0.1,0.7c-0.1,0.1,0,0.3,0,0.4c0.1,0.3,0.2,0.6,0.2,0.9
			c0,1,0,1.9,0,2.9c0,0.2,0,0.5-0.1,0.7c-0.2,0.3-0.4,0.4-0.7,0.4c-0.4,0-0.7-0.1-0.9-0.4c-0.1-0.1-0.2-0.1-0.3,0
			c-0.2,0.2-0.5,0.3-0.8,0.4c-0.3,0.1-0.6,0.1-0.9,0.1c-0.2,0-0.5-0.1-0.7-0.1c-0.1,0-0.2-0.1-0.3-0.1c-0.2-0.1-0.4-0.1-0.5,0
			c-0.3,0.2-0.5,0.2-0.8,0.2c-0.5,0-0.9-0.2-1.2-0.5c-0.1-0.1-0.1-0.1-0.2-0.2c-0.1-0.1-0.2-0.1-0.3,0s-0.3,0.2-0.4,0.4
			c-0.3,0.2-0.7,0.3-1,0.4c-0.2,0-0.3,0-0.5,0s-0.3,0.1-0.3,0.3c0,0.3,0,0.6-0.1,0.8C53,57.8,52.8,58,52.4,58c-0.2,0-0.4,0-0.6-0.1
			c-0.2-0.1-0.3-0.3-0.4-0.6c0-0.2-0.1-0.4-0.1-0.6c0-0.2-0.1-0.3-0.3-0.3s-0.4,0-0.6-0.1c-0.2-0.2-0.4-0.4-0.4-0.7
			c-0.1-0.4,0-0.9,0-1.3c0-0.3,0-0.6-0.1-0.9c0-0.1-0.2-0.3-0.3-0.3c-0.2,0-0.3,0.1-0.4,0.2c-0.1,0.2-0.1,0.3-0.1,0.5
			c0,0.4,0,0.9,0,1.3c0,0.2,0,0.4-0.1,0.7s-0.4,0.6-0.8,0.6h-0.1c-0.5,0.1-0.8-0.4-0.9-0.8c0-0.1,0-0.2,0-0.4c0-0.4,0-0.8,0-1.3
			c0-0.2,0-0.4-0.1-0.5c-0.1-0.3-0.4-0.4-0.6-0.2c-0.1,0.1-0.2,0.3-0.2,0.4c0,0.6,0,1.1,0,1.7c0,0.2,0,0.4-0.1,0.5
			c-0.1,0.3-0.4,0.5-0.7,0.6c-0.3,0-0.6,0-0.8-0.2s-0.4-0.2-0.6,0c-0.3,0.2-0.6,0.3-1,0.3c-0.8,0.1-1.5,0-2.1-0.5
			c-0.3-0.2-0.5-0.6-0.6-0.9c-0.1-0.3-0.1-0.6-0.2-1c0-0.4,0-0.7,0.1-1.1c0.1-0.4,0.2-0.8,0.5-1.1c0.3-0.4,0.7-0.6,1.2-0.8
			c0.3-0.1,0.7-0.1,1.1,0c0.2,0.1,0.5,0.1,0.7,0.2c0.3,0.1,0.5,0.3,0.7,0.5l0.1,0.1c0.1,0.1,0.2,0.1,0.3,0s0.1-0.1,0.2-0.2
			c0.3-0.3,0.6-0.5,1-0.6s0.8-0.1,1.2,0c0.1,0,0.2,0,0.4,0.1c0.3,0.1,0.7,0.1,1,0c0.4-0.2,0.9-0.2,1.3-0.1c0.4,0.1,0.7,0.2,1,0.4
			c0.1,0.1,0.2,0.2,0.3,0.3c0.2,0.3,0.3,0.3,0.5,0s0.4-0.4,0.6-0.5c0.2-0.1,0.4-0.2,0.6-0.2c0.5-0.1,1-0.1,1.5,0.1
			c0.1,0.1,0.3,0.1,0.4,0.2c0.1,0.1,0.2,0.1,0.3-0.1v-0.1c0-0.4,0-0.7,0.1-1s0.4-0.7,0.8-0.7c0.1,0,0.1,0,0.2,0
			c0.5-0.1,0.8,0.4,0.9,0.8c0.1,0.8,0,1.7,0,2.5C57.1,52.8,57.2,53,57.2,53.3L57.2,53.3z M56.9,51.9c0-0.5,0-1.1,0-1.6
			c0-0.3-0.2-0.6-0.5-0.8c-0.1-0.1-0.3,0-0.4,0c-0.2,0-0.3,0.1-0.4,0.2c-0.2,0.2-0.3,0.5-0.3,0.7c0,0.3,0,0.7,0,1
			c0,0.1,0,0.2-0.1,0.3c-0.1,0-0.2,0-0.3-0.1c0,0,0,0-0.1-0.1s-0.3-0.2-0.5-0.3c-0.5-0.2-1.1-0.2-1.6-0.1c-0.4,0.1-0.8,0.3-1,0.7
			c-0.1,0.1-0.1,0.2-0.2,0.2c-0.1,0.1-0.2,0.1-0.4,0c-0.1-0.1-0.1-0.1-0.2-0.2c-0.4-0.5-0.8-0.7-1.4-0.8c-0.5,0-0.9,0-1.3,0.2
			c-0.2,0.1-0.4,0.1-0.7,0C47.1,51,46.7,51,46.3,51c-0.3,0-0.5,0.1-0.7,0.2c-0.4,0.1-0.6,0.4-0.8,0.7c0,0.1-0.1,0.1-0.2,0.2
			c-0.1,0.1-0.2,0.1-0.2,0L44.3,52c-0.1-0.2-0.3-0.4-0.5-0.5c-0.5-0.4-1.2-0.5-1.8-0.4s-1.1,0.5-1.4,1.1c-0.2,0.4-0.3,0.9-0.3,1.3
			c0,0.4,0,0.8,0.2,1.2c0.2,0.5,0.5,0.9,1,1.2c0.4,0.2,0.8,0.3,1.3,0.3s1-0.2,1.4-0.6c0.2-0.2,0.3-0.1,0.4,0l0,0
			c0.1,0.2,0.3,0.3,0.5,0.3c0.4,0,0.7-0.1,0.8-0.5c0.1-0.2,0.1-0.5,0.1-0.7c0-0.4,0-0.8,0-1.1c0-0.1,0-0.3,0.1-0.4
			c0-0.2,0.2-0.3,0.3-0.4c0.3-0.1,0.6,0,0.7,0.3c0,0.1,0.1,0.2,0.1,0.4c0,0.4,0,0.8,0,1.3c0,0.2,0,0.5,0.1,0.7
			c0.1,0.3,0.3,0.4,0.6,0.5c0.3,0,0.5,0,0.7-0.3c0.2-0.2,0.2-0.4,0.2-0.7c0-0.5,0-1.1,0-1.6c0-0.1,0-0.3,0.1-0.4
			c0.1-0.1,0.1-0.2,0.2-0.3c0.3-0.1,0.6,0,0.7,0.4c0,0.2,0.1,0.3,0.1,0.5c0,0.4,0,0.8,0,1.2c0,0.2,0,0.4,0.1,0.6
			c0.1,0.3,0.3,0.5,0.6,0.6c0.1,0,0.2,0,0.3,0s0.2,0.1,0.3,0.2c0.1,0.2,0,0.3,0.1,0.5c0,0.3,0.1,0.6,0.3,0.8c0.3,0.3,1,0.2,1.2-0.3
			c0.1-0.2,0.1-0.4,0.1-0.6c0-0.3,0.2-0.5,0.5-0.5c0.2,0,0.4,0,0.6-0.1c0.4-0.1,0.7-0.2,0.9-0.5c0.1-0.1,0.2-0.3,0.4-0.4
			c0.1-0.1,0.2-0.1,0.3,0s0.2,0.1,0.2,0.2c0.2,0.2,0.5,0.4,0.9,0.5s0.8,0.1,1.1-0.2c0.1-0.1,0.3-0.1,0.4-0.1c0.1,0,0.2,0.1,0.4,0.2
			c0.4,0.2,0.8,0.2,1.2,0.2c0.2,0,0.5-0.1,0.7-0.2c0.2-0.1,0.4-0.3,0.6-0.4c0.2-0.2,0.3-0.2,0.5,0c0.1,0.1,0.1,0.2,0.2,0.3
			c0.2,0.2,0.7,0.3,1,0c0.2-0.2,0.3-0.4,0.3-0.7c0-1,0-2,0-3c0-0.3-0.1-0.5-0.3-0.7c-0.1-0.1-0.1-0.1-0.1-0.2c0-0.1-0.1-0.2,0-0.2
			c0-0.1,0.1-0.1,0.1-0.2c0.1-0.1,0.1-0.2,0.2-0.3c0.1-0.4-0.2-0.9-0.7-0.9c-0.3,0-0.5,0.1-0.6,0.3c-0.1,0.3-0.1,0.6,0,0.8
			c0,0.1,0.1,0.1,0.1,0.2c0.1,0.2,0.1,0.2,0,0.4c-0.1,0.1-0.2,0.3-0.3,0.4c-0.1,0.1-0.2,0.2-0.4,0.1c-0.1,0-0.1-0.1-0.2-0.2
			c-0.2-0.2-0.5-0.3-0.8-0.4c-0.4-0.1-0.9-0.1-1.3,0c-0.5,0.1-0.9,0.5-1.1,0.9c-0.3,0.5-0.4,1.2-0.3,1.8c0,0.1,0,0.2,0,0.3
			c-0.1,0.2-0.2,0.2-0.4,0.1c-0.1-0.1-0.2-0.3-0.2-0.4c0-0.2,0-0.4,0-0.6C57,52.8,56.9,52.4,56.9,51.9z"/>
		<path fill="#026298" d="M43.7,47.3c-0.7,0-1.4-0.1-2.1-0.2c-1.1-0.2-2.1-0.6-3-1.1c-0.7-0.3-1.3-0.8-1.8-1.3
			c-0.3-0.2-0.6-0.5-0.8-0.8c-0.3-0.4-0.7-0.7-0.9-1.1c-0.4-0.5-0.7-1.1-1-1.7c-0.2-0.4-0.3-0.8-0.5-1.2c-0.1-0.3-0.2-0.7-0.3-1
			c-0.1-0.3-0.1-0.6-0.2-1c0-0.3-0.1-0.6-0.1-0.9c0-0.2,0-0.4,0-0.6c0-0.4,0-0.9,0.1-1.3c0-0.4,0.1-0.7,0.2-1c0.1-0.5,0.3-1,0.5-1.4
			c0.4-0.9,0.8-1.7,1.4-2.4c0.4-0.5,0.8-1,1.3-1.5c0.8-0.7,1.7-1.3,2.7-1.8c0.4-0.2,0.8-0.3,1.1-0.5c0.4-0.1,0.8-0.2,1.2-0.3
			c0.2,0,0.4-0.1,0.6-0.1c0.3,0,0.6-0.1,0.9-0.1c0.3,0,0.6,0,0.9,0c0.4,0,0.7,0.1,1.1,0.1c0.3,0,0.5,0.1,0.8,0.1
			c0.3,0.1,0.6,0.1,0.9,0.2c0.5,0.1,1,0.3,1.4,0.5s0.9,0.4,1.3,0.7c0.2,0.1,0.4,0.3,0.6,0.4c0.3,0.2,0.6,0.5,0.9,0.8
			c0.3,0.3,0.5,0.5,0.8,0.8c0.2,0.3,0.6,0.4,0.9,0.6c0.3,0.2,0.6,0.4,0.8,0.6c0.4,0.3,0.7,0.7,1,1.1c0.2,0.3,0.3,0.6,0.5,0.9
			c0.1,0.2,0.2,0.4,0.2,0.6c0.1,0.3,0.2,0.6,0.2,1c0,0.3,0.1,0.5,0.1,0.8c0,0.2,0,0.5,0,0.7c-0.1,0.3-0.2,0.6-0.3,0.9
			c-0.1,0.2-0.3,0.4-0.5,0.5c-0.2,0.1-0.3,0.3-0.3,0.6c0,0.1,0,0.1,0,0.2c0,0.1,0,0.3,0.3,0.5c0.4,0.2,0.6,0.6,0.6,1.1
			c0,0.6-0.2,1.2-0.6,1.7c-0.2,0.3-0.5,0.6-0.8,0.9c-0.3,0.3-0.7,0.6-1.1,0.8c-0.2,0.1-0.3,0.2-0.5,0.3c-0.1,0.1-0.2,0.2-0.3,0.3
			c-0.3,0.3-0.5,0.5-0.8,0.8c-0.5,0.5-1,0.9-1.6,1.2c-0.2,0.1-0.5,0.3-0.7,0.4c-0.4,0.2-0.7,0.3-1.1,0.5c-0.5,0.2-1,0.3-1.5,0.4
			c-0.4,0.1-0.8,0.2-1.2,0.2C44.3,47.3,44,47.3,43.7,47.3z M33.3,36.7c0,0.4,0,0.9,0.1,1.3c0.1,0.7,0.3,1.4,0.5,2
			c0.1,0.4,0.3,0.8,0.5,1.1c0.2,0.4,0.4,0.8,0.7,1.2s0.6,0.8,0.9,1.2c0.3,0.3,0.6,0.6,0.9,0.9c0.3,0.3,0.7,0.6,1.1,0.8
			c0.5,0.4,1.1,0.6,1.6,0.9c0.2,0.1,0.5,0.2,0.8,0.3c0.5,0.2,1.1,0.3,1.7,0.4c0.5,0.1,1,0.1,1.5,0.1c0.3,0,0.7,0,1,0
			c0.4,0,0.7-0.1,1.1-0.1c0.6-0.1,1.3-0.3,1.9-0.6c0.6-0.2,1.2-0.5,1.7-0.9c0.3-0.2,0.6-0.4,0.9-0.6c0.5-0.3,0.9-0.7,1.2-1.1
			c0.2-0.2,0.4-0.4,0.7-0.5c0.6-0.3,1.1-0.7,1.6-1.1c0.4-0.3,0.7-0.7,0.9-1.2c0.2-0.4,0.3-0.8,0.3-1.2c0-0.2,0-0.3-0.1-0.4
			c-0.1-0.2-0.3-0.3-0.4-0.4c-0.2-0.1-0.3-0.2-0.3-0.4c0-0.1,0-0.2,0-0.3c0-0.4,0.2-0.7,0.5-0.9c0.2-0.2,0.4-0.4,0.5-0.7
			c0.1-0.2,0.1-0.4,0.2-0.6c0.1-0.4,0-0.8,0-1.2c0-0.4-0.1-0.8-0.3-1.1c-0.1-0.3-0.3-0.7-0.4-1c-0.3-0.5-0.6-1-1.1-1.4
			c-0.3-0.2-0.5-0.5-0.8-0.6c-0.3-0.2-0.5-0.4-0.8-0.5c-0.1-0.1-0.2-0.2-0.3-0.3c-0.2-0.3-0.5-0.5-0.7-0.7c-0.3-0.3-0.7-0.6-1.1-0.9
			c-0.5-0.4-1-0.6-1.6-0.9c-0.5-0.2-1-0.4-1.5-0.6c-0.4-0.1-0.8-0.2-1.2-0.3c-0.7,0-1.2,0-1.6,0c-0.3,0-0.6,0-0.9,0
			c-0.3,0-0.7,0.1-1,0.1c-0.4,0.1-0.8,0.1-1.1,0.2c-0.4,0.1-0.7,0.2-1.1,0.4c-0.3,0.1-0.5,0.3-0.8,0.4c-0.4,0.2-0.7,0.4-1.1,0.6
			c-0.3,0.2-0.7,0.5-1,0.8c-0.4,0.4-0.8,0.8-1.2,1.2c-0.4,0.4-0.7,0.9-1,1.4c-0.3,0.4-0.5,0.9-0.7,1.4c-0.3,0.6-0.4,1.3-0.6,2
			C33.3,35.5,33.2,36.1,33.3,36.7z"/>
		<path fill="#3598C5" d="M24.1,55c0-0.3,0-0.7,0-1c0-0.5,0-0.9,0.1-1.3c0-0.2,0.1-0.4,0.2-0.6c0.1-0.1,0.1-0.2,0.2-0.2
			c0.3-0.4,0.6-0.6,1.1-0.7c0.5-0.1,1-0.1,1.4,0.1c0.3,0.1,0.6,0.4,0.8,0.6c0.1,0.1,0.2,0.3,0.3,0.3h0.1c0.2-0.2,0.4-0.4,0.5-0.6
			c0.1-0.1,0.1-0.3,0-0.4c-0.3-0.2-0.2-0.7,0.1-0.9c0.3-0.2,0.6-0.5,1-0.6c0.3-0.1,0.5-0.1,0.8,0.1c0.2,0.1,0.5,0.2,0.7,0.3
			c0.2,0.2,0.4,0.4,0.5,0.6c0,0.1,0,0.2,0,0.3c-0.1,0.1-0.1,0.2-0.2,0.4c0,0.1,0,0.1,0,0.2c0,0.1,0.1,0.3,0.3,0.3
			c0.1,0.1,0.2,0,0.2-0.1s0-0.1,0-0.2c0-0.3-0.1-0.6,0-0.9c0-0.3,0.1-0.6,0.3-0.9c0.3-0.4,0.9-0.3,1.2,0.1c0.1,0.2,0.1,0.4,0.1,0.6
			c0,0.5,0,0.9,0,1.4c0,0.7,0,1.3,0,2c0,0.3,0.2,0.4,0.4,0.5c0.1,0,0.2,0,0.2-0.1c0-0.2,0-0.3,0-0.5s0-0.5,0.1-0.7
			c0.1-0.3,0.2-0.6,0.3-0.9c0.2-0.4,0.5-0.6,0.9-0.8c0.3-0.1,0.6-0.2,0.9-0.2c0.8,0,1.5,0.4,1.9,1.2c0.2,0.4,0.3,0.7,0.2,1.1
			c0,0.2-0.1,0.4-0.2,0.5c-0.1,0.1-0.2,0.2-0.3,0.3s-0.1,0.2,0,0.3c0.1,0.1,0.2,0.3,0.2,0.5s0,0.3-0.1,0.4c-0.2,0.3-0.4,0.4-0.7,0.5
			c-0.4,0.2-0.8,0.1-1.2,0.1c-0.3,0-0.6-0.1-0.8-0.3c-0.1-0.1-0.2-0.1-0.3-0.1c-0.2-0.1-0.4,0-0.5,0.1c-0.3,0.3-0.7,0.3-1,0.2
			c-0.5-0.1-0.8-0.4-1.1-0.8c-0.1-0.2-0.3-0.2-0.4,0l-0.1,0.1c-0.2,0.3-0.4,0.5-0.7,0.6c-0.2,0.1-0.4,0.1-0.6,0.2
			c-0.4,0-0.9,0-1.3-0.2c-0.3-0.2-0.6-0.4-0.8-0.7c-0.1-0.1-0.1-0.2-0.2-0.2s-0.1-0.1-0.2,0c-0.1,0-0.1,0.1-0.2,0.2
			c-0.3,0.5-0.8,0.8-1.4,0.9c-0.2,0-0.4,0-0.5,0c-0.3,0.1-0.4,0.2-0.4,0.5c0,0.2,0,0.3-0.1,0.5c-0.1,0.4-0.5,0.6-0.9,0.5
			c-0.2-0.1-0.4-0.3-0.4-0.5c-0.1-0.2-0.1-0.4-0.1-0.6C24.1,55.9,24.1,55.5,24.1,55z M31.7,50.6L31.7,50.6c0-0.1-0.1-0.2-0.2-0.3
			c-0.3-0.3-0.6-0.5-1-0.6c-0.1,0-0.2-0.1-0.3,0c-0.5,0.1-0.9,0.3-1.2,0.6c-0.1,0.1-0.1,0.1-0.1,0.3l-0.1,0.1c0,0.1,0,0.2,0.1,0.2
			C29,51,29,51,29.1,51.1c0.1,0.1,0.1,0.2,0,0.3L29,51.5c-0.1,0.2-0.3,0.3-0.4,0.5c-0.1,0.1-0.1,0.2-0.2,0.2c-0.1,0.1-0.2,0.1-0.2,0
			c-0.1-0.1-0.2-0.3-0.3-0.4c-0.2-0.3-0.4-0.5-0.7-0.6c-0.3-0.1-0.7-0.2-1-0.2s-0.5,0.1-0.7,0.2c-0.6,0.3-0.9,0.8-1,1.4
			c-0.1,0.3-0.1,0.6-0.1,1c0,0.8,0,1.7,0,2.5c0,0.2,0,0.4,0,0.5c0,0.2,0,0.3,0.2,0.4c0,0,0,0,0,0.1c0.1,0.1,0.3,0.1,0.5,0.1
			c0.1,0,0.1,0,0.2-0.1l0,0l0,0c0.1,0,0.1-0.1,0.1-0.1c0.1-0.2,0.2-0.4,0.2-0.7c0-0.4,0.2-0.6,0.5-0.6c0.2,0,0.4,0,0.6,0
			c0.5-0.1,0.9-0.3,1.2-0.8c0.1-0.1,0.1-0.2,0.2-0.3s0.2-0.1,0.3,0c0.1,0.1,0.1,0.2,0.2,0.3c0.1,0.2,0.3,0.4,0.5,0.5
			c0.5,0.3,1.1,0.4,1.6,0.3c0.5-0.1,0.9-0.4,1.2-0.8c0-0.1,0.1-0.1,0.2-0.2c0.1-0.1,0.2-0.1,0.3,0s0.1,0.1,0.1,0.2
			c0.2,0.4,0.5,0.6,0.9,0.8c0.4,0.2,0.9,0.2,1.3-0.3c0-0.1,0.1-0.1,0.2-0.1c0.1,0,0.2,0,0.3,0.1c0.2,0.1,0.3,0.2,0.5,0.3
			c0.7,0.3,1.4,0.3,2.1-0.1c0.2-0.1,0.4-0.3,0.4-0.6c0,0,0,0,0-0.1c0-0.4-0.4-0.6-0.8-0.5c-0.1,0-0.3,0.1-0.4,0.1
			c-0.2,0.1-0.4,0.1-0.7-0.1c-0.1-0.1-0.2-0.2-0.2-0.3s0.1-0.2,0.3-0.2h0.1c0.3,0,0.7,0,1,0c0.2,0,0.4-0.1,0.6-0.2c0,0,0,0,0-0.1
			l0,0c0,0,0,0,0.1,0c0.1-0.2,0.2-0.4,0.2-0.6c0-0.3-0.1-0.6-0.3-0.9c-0.2-0.3-0.4-0.6-0.8-0.8c-0.3-0.2-0.7-0.3-1.1-0.2
			c-0.4,0-0.8,0.2-1.1,0.5c-0.4,0.3-0.6,0.7-0.7,1.2c-0.1,0.3-0.1,0.6-0.1,0.9c0,0.2,0,0.3,0,0.5s-0.1,0.3-0.3,0.3
			c-0.1,0-0.2,0-0.2-0.1c-0.3-0.2-0.4-0.4-0.4-0.7s0-0.7,0-1c0-0.8,0-1.6,0-2.4c0-0.2,0-0.4-0.2-0.6l0,0c-0.2-0.1-0.3-0.1-0.5-0.1
			c-0.1,0-0.1,0-0.2,0.1c0,1.4,0,2.9,0,4.3v0.1c0-0.1,0-0.1,0-0.2c0-1.3,0-2.6,0-3.9c0,0,0,0,0-0.1l0,0c0-0.1,0-0.2,0-0.3
			c-0.1,0-0.1,0.1-0.1,0.1c-0.1,0.3-0.1,0.7-0.1,1c0,0.4,0,0.7-0.1,1.1c-0.1,0.2-0.1,0.2-0.3,0.1c-0.2-0.1-0.3-0.3-0.4-0.5
			c-0.1-0.1-0.2-0.3,0-0.5c0-0.1,0.1-0.1,0.1-0.2C31.6,50.8,31.7,50.7,31.7,50.6L31.7,50.6L31.7,50.6z"/>
		<path fill="#3598C5" d="M56.9,51.9c0,0.5,0,0.9,0,1.3c0,0.2,0,0.4,0,0.6c0,0.2,0.1,0.3,0.2,0.4c0.1,0.1,0.3,0.1,0.4-0.1
			c0-0.1,0-0.2,0-0.3c-0.1-0.6,0-1.2,0.3-1.8c0.2-0.4,0.6-0.8,1.1-0.9c0.4-0.1,0.9-0.1,1.3,0c0.3,0.1,0.5,0.2,0.8,0.4
			c0.1,0.1,0.1,0.1,0.2,0.2c0.1,0.1,0.3,0.1,0.4-0.1c0.1-0.2,0.2-0.3,0.3-0.4c0.1-0.2,0.1-0.2,0-0.4c0-0.1-0.1-0.1-0.1-0.2
			c-0.2-0.3-0.2-0.5,0-0.8c0.1-0.2,0.3-0.3,0.6-0.3c0.5,0,0.7,0.4,0.7,0.9c0,0.1-0.1,0.2-0.2,0.3c0,0.1-0.1,0.1-0.1,0.2
			c0,0.1,0,0.2,0,0.2c0,0.1,0.1,0.1,0.1,0.2c0.2,0.2,0.3,0.5,0.3,0.7c0,1,0,2,0,3c0,0.3-0.1,0.5-0.3,0.7c-0.2,0.3-0.8,0.2-1,0
			c-0.1-0.1-0.1-0.2-0.2-0.3c-0.2-0.3-0.3-0.2-0.5,0c-0.2,0.1-0.4,0.3-0.6,0.4c-0.2,0.1-0.5,0.2-0.7,0.2c-0.4,0-0.8,0-1.2-0.2
			c-0.1-0.1-0.2-0.1-0.4-0.2c-0.2,0-0.3,0-0.4,0.1c-0.3,0.3-0.7,0.3-1.1,0.2c-0.3-0.1-0.6-0.3-0.9-0.5c-0.1-0.1-0.2-0.1-0.2-0.2
			c-0.1-0.1-0.2-0.1-0.3,0s-0.2,0.3-0.4,0.4c-0.3,0.2-0.6,0.4-0.9,0.5c-0.2,0-0.4,0.1-0.6,0.1c-0.3,0-0.5,0.2-0.5,0.5
			c0,0.2,0,0.4-0.1,0.6c-0.2,0.5-0.9,0.6-1.2,0.3c-0.2-0.2-0.3-0.5-0.3-0.8c0-0.2,0-0.3-0.1-0.5c-0.1-0.1-0.1-0.2-0.3-0.2
			c-0.1,0-0.2,0-0.3,0c-0.3-0.1-0.6-0.3-0.6-0.6c0-0.2-0.1-0.4-0.1-0.6c0-0.4,0-0.8,0-1.2c0-0.2,0-0.3-0.1-0.5
			c-0.1-0.3-0.4-0.5-0.7-0.4c-0.1,0-0.2,0.1-0.2,0.3c-0.1,0.1-0.1,0.3-0.1,0.4c0,0.5,0,1,0,1.6c0,0.2,0,0.5-0.2,0.7
			s-0.4,0.3-0.7,0.3s-0.5-0.2-0.6-0.5c-0.2-0.4-0.2-0.6-0.2-0.8c0-0.4,0-0.8,0-1.3c0-0.1,0-0.3-0.1-0.4c-0.1-0.3-0.4-0.4-0.7-0.3
			c-0.2,0.1-0.3,0.2-0.3,0.4c0,0.1-0.1,0.3-0.1,0.4c0,0.4,0,0.8,0,1.1s0,0.5-0.1,0.7c-0.1,0.4-0.4,0.5-0.8,0.5
			c-0.2,0-0.4-0.2-0.5-0.3l0,0c-0.1-0.2-0.3-0.2-0.4,0c-0.4,0.4-0.9,0.5-1.4,0.6c-0.5,0-0.9-0.1-1.3-0.3c-0.5-0.3-0.8-0.6-1-1.2
			c-0.1-0.4-0.2-0.8-0.2-1.2c0-0.5,0.1-0.9,0.3-1.3c0.3-0.6,0.8-0.9,1.4-1.1c0.6-0.1,1.3,0,1.8,0.4c0.2,0.1,0.3,0.3,0.5,0.5l0.1,0.1
			c0.1,0.1,0.2,0.1,0.2,0c0.1-0.1,0.1-0.1,0.2-0.2c0.2-0.3,0.5-0.6,0.8-0.7c0.2-0.1,0.5-0.2,0.7-0.2c0.4,0,0.8,0.1,1.2,0.2
			c0.2,0.1,0.4,0.1,0.7,0c0.4-0.2,0.9-0.3,1.3-0.2c0.6,0.1,1.1,0.3,1.4,0.8C51,51.9,51,52,51.1,52c0.1,0.1,0.3,0.1,0.4,0
			c0.1-0.1,0.1-0.2,0.2-0.2c0.3-0.3,0.6-0.6,1-0.7c0.5-0.1,1.1-0.1,1.6,0.1c0.2,0.1,0.3,0.2,0.5,0.3c0,0,0,0,0.1,0.1
			s0.2,0.1,0.3,0.1s0.1-0.1,0.1-0.3c0-0.3,0-0.7,0-1s0.1-0.5,0.3-0.7c0.1-0.1,0.2-0.2,0.4-0.2c0.1,0,0.3,0,0.4,0
			c0.3,0.2,0.5,0.4,0.5,0.8C57,50.9,56.9,51.4,56.9,51.9z M61.9,50.6C61.9,50.7,62,50.7,61.9,50.6c0.3,0.2,0.5,0.2,0.7,0l0,0
			c0.1,0,0.1-0.1,0.1-0.1c0.1-0.2,0-0.4,0-0.5s-0.1-0.1-0.1-0.1l0,0c-0.2-0.2-0.6-0.2-0.8,0l0,0C61.7,49.9,61.7,50.4,61.9,50.6
			L61.9,50.6z M50.4,55.6c0.1,0.1,0.2,0.1,0.3,0.1c0.2,0,0.3,0,0.5,0c0.1,0,0.2,0,0.3,0.1s0.1,0.2,0.1,0.4s0,0.4,0.1,0.6
			c0,0.1,0.1,0.3,0.1,0.4c0,0.1,0.1,0.1,0.1,0.1c0.1,0,0.1,0,0.2,0.1c0.2,0,0.3,0,0.5-0.1l0,0l0,0c0.1,0,0.1,0,0.1-0.1
			c0.1-0.1,0.1-0.3,0.1-0.4c0-0.2,0-0.3,0.1-0.5c0.1-0.3,0.3-0.4,0.6-0.4c0.2,0,0.5,0,0.7-0.1c0.4-0.1,0.7-0.3,0.9-0.6
			c0.1-0.1,0.2-0.2,0.2-0.3c0.1-0.1,0.2-0.1,0.3,0l0.1,0.1c0.2,0.2,0.3,0.4,0.6,0.6c0.3,0.2,0.7,0.3,1.1,0.2c0.1,0,0.1,0,0.2-0.1
			c0.1,0,0.1,0,0.1-0.1c0.1,0,0.1-0.1,0.2-0.1c0.1-0.1,0.2-0.1,0.3-0.1s0.1,0.1,0.2,0.1c0.4,0.3,0.9,0.4,1.5,0.4
			c0.4,0,0.7-0.1,1-0.4c0.1-0.1,0.2-0.2,0.3-0.3c0.2-0.2,0.3-0.2,0.5,0.1c0.1,0.1,0.1,0.3,0.2,0.4l0,0c0.2,0.2,0.6,0.2,0.8,0
			c0-0.1,0-0.1,0-0.2c0.1-0.1,0.2-0.3,0.2-0.5c0-1,0-1.9,0-2.9c0-0.2-0.1-0.4-0.2-0.5v-0.1l0,0c-0.2-0.1-0.5-0.2-0.7,0l0,0l-0.1,0.1
			c-0.1,0.1-0.1,0.3-0.2,0.4c-0.1,0.2-0.2,0.2-0.3,0.1c-0.1-0.1-0.2-0.2-0.3-0.3c-0.2-0.2-0.4-0.3-0.7-0.4c-0.5-0.2-1-0.1-1.5,0.1
			c-0.4,0.1-0.6,0.4-0.8,0.7c-0.1,0.2-0.2,0.5-0.3,0.7c-0.1,0.3-0.1,0.7,0,1c0,0.1,0,0.3,0,0.5s-0.2,0.3-0.4,0.2s-0.5-0.4-0.5-0.6
			c0-0.1,0-0.2,0-0.4c0-1,0-2,0-3c0-0.3-0.1-0.5-0.2-0.7c-0.3-0.3-0.8-0.1-0.9,0.2c-0.1,0.2-0.1,0.4-0.1,0.6c0,0.3,0,0.6,0,0.9
			c0,0.1,0,0.2,0,0.4s-0.2,0.2-0.3,0.1c-0.1-0.1-0.2-0.2-0.3-0.2c-0.1-0.1-0.3-0.2-0.4-0.3c-0.4-0.2-0.9-0.3-1.3-0.2
			c-0.6,0.1-1,0.3-1.3,0.9c-0.1,0.1-0.2,0.3-0.3,0.4c-0.1,0.1-0.2,0.1-0.2,0c-0.4-0.3-0.4-0.4-0.5-0.5c-0.1-0.2-0.2-0.4-0.4-0.5
			c-0.4-0.3-0.8-0.5-1.3-0.5c-0.3,0-0.7,0.1-1,0.2c-0.2,0.1-0.4,0.1-0.7,0.1c-0.1,0-0.3-0.1-0.4-0.1c-0.4-0.1-0.9-0.2-1.3-0.1
			c-0.3,0.1-0.6,0.3-0.9,0.5c-0.1,0.2-0.3,0.4-0.4,0.6c-0.1,0.2-0.3,0.2-0.4,0c0-0.1-0.1-0.1-0.1-0.2c-0.3-0.5-0.7-0.8-1.2-0.9
			c-0.4-0.1-0.9-0.1-1.3,0.1c-0.4,0.2-0.7,0.5-0.9,0.9s-0.3,0.9-0.3,1.4c0,0.4,0.1,0.8,0.3,1.2s0.5,0.7,0.9,0.9
			c0.6,0.3,1.3,0.3,1.9,0c0.2-0.1,0.4-0.2,0.6-0.5c0.1-0.2,0.1-0.4-0.1-0.6c-0.1-0.1-0.2-0.2-0.3-0.2c-0.1-0.1-0.3-0.1-0.4,0
			c-0.2,0.1-0.4,0.1-0.5,0.2c-0.1,0-0.3,0-0.4,0c-0.1,0-0.3-0.2-0.2-0.3c0-0.1,0.1-0.2,0.3-0.2c0.3-0.1,0.5,0,0.8,0
			c0.2,0,0.4,0.1,0.5,0c0.1,0,0.2-0.1,0.3-0.1c0.4-0.2,0.5-0.1,0.5,0.3c0,0.2,0,0.3,0,0.5c-0.1,0.3,0.1,0.6,0.3,0.8l0,0
			c0,0.1,0.1,0.1,0.2,0.1c0.2,0.1,0.4,0.1,0.6-0.1l0,0c0.1,0,0.1-0.1,0.1-0.1c0.1-0.2,0.1-0.4,0.1-0.7c0-0.4,0-0.8,0-1.2
			c0-0.2,0-0.4,0.1-0.6c0.1-0.3,0.4-0.5,0.7-0.5s0.5,0.2,0.6,0.5c0.1,0.2,0.1,0.3,0.1,0.5c0,0.5,0,1,0,1.5c0,0.2,0.1,0.4,0.2,0.5
			l0,0c0.3,0.1,0.5,0.1,0.8,0l0,0c0.1,0,0.1-0.1,0.1-0.1c0.1-0.2,0.1-0.4,0.1-0.6c0-0.4,0-0.8,0-1.2c0-0.2,0-0.5,0.1-0.7
			c0.1-0.3,0.3-0.4,0.6-0.4s0.5,0.1,0.6,0.3s0.2,0.4,0.2,0.6c0,0.4,0,0.8,0,1.2c0,0.2,0,0.5,0.1,0.7C50.3,55.5,50.3,55.5,50.4,55.6
			C50.4,55.5,50.4,55.6,50.4,55.6z"/>
		<path fill="#3598C5" d="M33.3,36.7c0-0.6,0.1-1.3,0.2-1.9c0.1-0.7,0.3-1.3,0.6-2c0.2-0.5,0.4-0.9,0.7-1.4s0.6-1,1-1.4
			c0.4-0.4,0.7-0.8,1.2-1.2c0.3-0.3,0.6-0.5,1-0.8c0.3-0.2,0.7-0.5,1.1-0.6c0.3-0.1,0.5-0.3,0.8-0.4c0.4-0.1,0.7-0.3,1.1-0.4
			s0.8-0.2,1.1-0.2c0.3-0.1,0.7-0.1,1-0.1s0.6,0,0.9,0c0.5,0,0.9,0,1.4,0.1c0.4,0.1,0.8,0.2,1.2,0.3c0.5,0.1,1,0.3,1.5,0.6
			c0.5,0.2,1.1,0.5,1.6,0.9c0.4,0.3,0.8,0.6,1.1,0.9c0.2,0.2,0.5,0.5,0.7,0.7c0.1,0.1,0.2,0.2,0.3,0.3c0.3,0.2,0.5,0.4,0.8,0.5
			c0.3,0.2,0.6,0.4,0.8,0.6c0.4,0.4,0.8,0.8,1.1,1.4c0.2,0.3,0.3,0.6,0.4,1c0.1,0.4,0.2,0.8,0.3,1.1c0,0.4,0.1,0.8,0,1.2
			c0,0.2-0.1,0.4-0.2,0.6c-0.1,0.3-0.3,0.5-0.5,0.7c-0.3,0.2-0.5,0.5-0.5,0.9c0,0.1,0,0.2,0,0.3c0,0.2,0.1,0.3,0.3,0.4
			c0.2,0.1,0.3,0.3,0.4,0.4c0.1,0.1,0.1,0.3,0.1,0.4c0,0.4-0.1,0.8-0.3,1.2S54,41.6,53.6,42c-0.5,0.5-1,0.8-1.6,1.1
			c-0.3,0.1-0.5,0.3-0.7,0.5c-0.4,0.4-0.8,0.8-1.2,1.1c-0.3,0.2-0.6,0.4-0.9,0.6c-0.5,0.4-1.1,0.6-1.7,0.9c-0.6,0.2-1.2,0.4-1.9,0.6
			c-0.3,0.1-0.7,0.1-1.1,0.1c-0.3,0-0.7,0-1,0c-0.5,0-1,0-1.5-0.1c-0.6-0.1-1.1-0.2-1.7-0.4c-0.3-0.1-0.5-0.2-0.8-0.3
			c-0.5-0.3-1.1-0.5-1.6-0.9c-0.4-0.3-0.7-0.5-1.1-0.8c-0.3-0.3-0.6-0.6-0.9-0.9c-0.3-0.4-0.6-0.8-0.9-1.2s-0.5-0.8-0.7-1.2
			S34,40.3,33.8,40c-0.2-0.7-0.4-1.3-0.5-2C33.3,37.6,33.2,37.1,33.3,36.7z M55,35.4c0-0.1,0-0.3,0-0.4c-0.1-0.6-0.2-1.2-0.5-1.8
			c-0.3-0.7-0.8-1.4-1.4-1.9c-0.2-0.2-0.4-0.4-0.7-0.5c-0.4-0.2-0.8-0.5-1.1-0.8c-0.6-0.7-1.3-1.3-2.2-1.9c-0.7-0.4-1.4-0.8-2.2-1.1
			c-0.6-0.2-1.2-0.3-1.8-0.4c-0.5-0.1-1.1-0.1-1.6-0.1c-0.3,0-0.7,0-1,0.1c-0.4,0-0.8,0.1-1.3,0.2c-0.3,0.1-0.5,0.1-0.8,0.2
			c-0.2,0-0.4,0.1-0.6,0.2c-0.5,0.2-0.9,0.4-1.4,0.7c-0.3,0.2-0.5,0.3-0.8,0.5c-0.2,0.1-0.4,0.3-0.6,0.5c-0.3,0.2-0.6,0.5-0.9,0.8
			s-0.6,0.6-0.9,1s-0.6,0.9-0.9,1.4c-0.2,0.4-0.4,0.8-0.5,1.1c-0.1,0.3-0.2,0.6-0.3,0.9c-0.1,0.4-0.2,0.8-0.3,1.3
			c-0.1,0.4-0.1,0.9-0.1,1.3c0,0.3,0,0.5,0,0.8c0,0.4,0.1,0.8,0.1,1.2c0.1,0.6,0.3,1.2,0.5,1.8c0.2,0.5,0.4,1.1,0.7,1.6
			c0.4,0.7,0.9,1.3,1.4,1.9c0.3,0.3,0.6,0.6,1,0.9c0.4,0.3,0.8,0.6,1.2,0.8c0.4,0.2,0.8,0.5,1.2,0.6c0.4,0.2,0.7,0.3,1.1,0.4
			c0.5,0.1,0.9,0.2,1.4,0.3s1,0.1,1.4,0.1c0.3,0,0.5,0,0.8,0c0.5,0,0.9-0.1,1.4-0.2c0.6-0.1,1.2-0.3,1.8-0.5c0.5-0.2,1-0.4,1.4-0.7
			c0.5-0.3,1-0.7,1.5-1.1c0.3-0.3,0.6-0.6,0.9-0.9c0.2-0.2,0.5-0.4,0.8-0.6c0.6-0.3,1.1-0.7,1.6-1.2c0.2-0.2,0.4-0.4,0.5-0.7
			c0.3-0.4,0.5-0.8,0.4-1.3c0-0.3-0.1-0.6-0.4-0.7c-0.1,0-0.1-0.1-0.2-0.1c-0.2-0.2-0.3-0.4-0.3-0.6c0-0.1,0-0.2,0-0.3
			c0-0.3,0.2-0.6,0.4-0.8c0.4-0.3,0.6-0.6,0.7-1C54.9,36,55,35.7,55,35.4z"/>
		<path fill="#1E3C73" d="M24.5,57.3C24.5,57.2,24.5,57.2,24.5,57.3c0-0.2,0-0.2,0-0.3c0-1.1,0-2.3,0-3.4c0-0.3,0-0.6,0.1-0.9
			c0.2-0.6,0.5-1,1.1-1.1c0.2-0.1,0.5-0.1,0.7-0.1c0.7,0,1.3,0.4,1.5,1.1c0.2,0.6,0.1,1.2,0,1.8c-0.2,0.8-0.7,1.3-1.5,1.3
			c-0.4,0-0.7,0-1.1,0c-0.1,0-0.1,0-0.1,0.1c0,0.4,0,0.8,0,1.3c0,0.1,0,0.2,0,0.3l0,0l0,0C25,57.3,24.7,57.3,24.5,57.3z M25.9,54.8
			c0.2,0,0.4,0,0.6,0c0.3,0,0.6-0.2,0.7-0.5c0.2-0.5,0.2-1,0-1.5c-0.1-0.3-0.3-0.4-0.6-0.5c-0.2,0-0.4,0-0.6,0
			c-0.3,0.1-0.5,0.2-0.6,0.5c0,0.1-0.1,0.2-0.1,0.3c-0.1,0.5,0,1.1,0,1.6c0,0.1,0,0.1,0.1,0.1C25.5,54.8,25.7,54.8,25.9,54.8z"/>
		<path fill="#1E3C73" d="M38.1,55L38.1,55c-0.1,0.1-0.2,0.2-0.2,0.3c0,0-0.1,0-0.1,0.1l0,0c-0.1,0-0.2,0.1-0.3,0.1
			c-0.4,0.2-0.9,0.2-1.3,0.2c-0.7-0.1-1.1-0.5-1.4-1.1c-0.2-0.6-0.2-1.2,0-1.8c0.1-0.5,0.4-0.9,0.9-1.1c0.3-0.1,0.5-0.2,0.8-0.1
			c0.7,0,1.1,0.3,1.4,0.9c0.2,0.4,0.2,0.7,0.2,1.1c0,0.1,0,0.2,0,0.3l0,0c-0.1,0-0.3,0-0.5,0c-0.7,0-1.4,0-2.1,0
			c-0.1,0-0.1,0-0.1,0.1c0,0.5,0.3,1,0.9,1c0.3,0,0.7,0,0.9-0.3c0.1,0,0.1,0,0.1-0.1c0.1-0.1,0.1-0.1,0.2,0
			C37.8,54.7,38,54.8,38.1,55z M36.5,53.2L36.5,53.2c0.3,0,0.5,0,0.8,0c0.1,0,0.1,0,0.1-0.1V53c0-0.3-0.1-0.5-0.4-0.7s-0.6-0.2-1,0
			c-0.3,0.2-0.5,0.5-0.5,0.9c0,0.1,0,0.1,0.1,0.1C35.9,53.2,36.2,53.2,36.5,53.2z"/>
		<path fill="#EDF1F4" d="M25.2,57c0-0.4,0-0.8,0-1.3c0-0.1,0-0.1,0.1-0.1c0.4,0,0.7,0,1.1,0c0.8,0,1.3-0.5,1.5-1.3
			c0.1-0.6,0.1-1.2,0-1.8c-0.2-0.7-0.8-1.1-1.5-1.1c-0.2,0-0.5,0-0.7,0.1c-0.6,0.2-0.9,0.5-1.1,1.1c-0.1,0.3-0.1,0.6-0.1,0.9
			c0,1.1,0,2.3,0,3.4c-0.1-0.1-0.1-0.2-0.1-0.4c0-1.1,0-2.1,0-3.2c0-0.3,0-0.5,0.1-0.7c0.1-0.5,0.4-0.9,0.9-1.2
			c0.2-0.1,0.4-0.1,0.7-0.2c0.3,0,0.6,0,0.9,0.1c0.4,0.1,0.7,0.4,0.8,0.8c0.1,0.2,0.2,0.3,0.3,0.5c0.1,0.1,0.1,0.1,0.2,0
			s0.2-0.2,0.2-0.4c0.2-0.4,0.4-0.7,0.8-0.9c0.1-0.1,0.2-0.1,0.3-0.1c0.3,0,0.7,0,1,0c0.2,0,0.3,0.1,0.5,0.2
			c0.3,0.2,0.6,0.5,0.8,0.9c0.1,0.1,0.1,0.2,0.2,0.3c0.1,0.1,0.2,0.1,0.2,0c0.1-0.2,0.1-0.4,0.1-0.6c0-0.4,0-0.9,0-1.3
			c0-0.1,0-0.3,0.1-0.4c0,0,0-0.1,0.1-0.1c0,1.3,0,2.6,0,3.9c0,0.1,0,0.1,0,0.2v0.1c0,0.5,0.3,0.9,0.7,1.1c0.2,0.1,0.5,0.2,0.8,0.2
			c-0.2,0.1-0.3,0-0.5,0c-0.5-0.1-0.9-0.5-1.1-1c0-0.1-0.1-0.2-0.2-0.3c-0.1-0.2-0.2-0.2-0.3,0s-0.2,0.4-0.3,0.6
			c-0.1,0.2-0.3,0.4-0.4,0.5c-0.5,0.4-1,0.4-1.6,0.3c-0.5-0.1-0.9-0.4-1.2-0.9c-0.1-0.1-0.1-0.3-0.3-0.4c-0.1-0.1-0.2-0.1-0.3,0
			c-0.1,0.1-0.2,0.2-0.2,0.3c-0.1,0.3-0.3,0.5-0.5,0.6c-0.2,0.2-0.4,0.3-0.6,0.4c-0.2,0.1-0.5,0.1-0.7,0.1c-0.5,0-0.7,0.2-0.7,0.7
			C25.4,56.6,25.3,56.8,25.2,57C25.3,57,25.2,57,25.2,57z M32,53.5c0-0.3,0-0.7-0.1-1c-0.2-0.5-0.5-0.9-1-1
			c-0.3-0.1-0.5-0.1-0.8-0.1c-0.8,0-1.3,0.5-1.5,1.1s-0.2,1.2,0,1.8c0.1,0.6,0.5,1,1.1,1.2c0.3,0.1,0.6,0.1,1,0c0.6-0.1,1-0.4,1.2-1
			C32,54.2,32,53.9,32,53.5z"/>
		<path fill="#97B8CF" d="M25.2,57C25.2,57,25.3,57,25.2,57c0.1-0.2,0.1-0.3,0.1-0.5c0-0.5,0.3-0.7,0.7-0.7c0.2,0,0.5,0,0.7-0.1
			s0.5-0.2,0.6-0.4c0.2-0.2,0.4-0.4,0.5-0.6c0-0.1,0.1-0.2,0.2-0.3s0.2-0.1,0.3,0c0.1,0.1,0.2,0.3,0.3,0.4c0.2,0.5,0.6,0.8,1.2,0.9
			c0.6,0.1,1.1,0.1,1.6-0.3c0.2-0.1,0.3-0.3,0.4-0.5s0.2-0.4,0.3-0.6c0.1-0.1,0.2-0.1,0.3,0c0.1,0.1,0.1,0.2,0.2,0.3
			c0.2,0.5,0.5,0.8,1.1,1c0.1,0,0.3,0.1,0.5,0c0.1,0,0.2,0,0.3,0s0.1,0,0.1-0.1c0-0.2,0-0.4,0-0.6c0-0.1,0-0.1-0.1-0.1
			c-0.1,0-0.1,0-0.2,0c0,0,0.1,0,0-0.1c-0.1,0-0.2-0.1-0.3-0.1c-0.3-0.1-0.4-0.4-0.4-0.7c0-0.4,0-0.7,0-1.1c0-0.5,0-1,0-1.5
			c0-0.3,0-0.6,0-0.9c0-0.1,0-0.2-0.1-0.3c0-0.1,0-0.3,0-0.4c0.2,0.1,0.2,0.4,0.2,0.6c0.1,0.8,0,1.6,0,2.4c0,0.3,0,0.7,0,1
			s0.1,0.5,0.4,0.7c0.1,0,0.1,0.1,0.2,0.1c0.2,0,0.3-0.1,0.3-0.3s0-0.3,0-0.5c0-0.3,0-0.6,0.1-0.9c0.1-0.5,0.3-0.9,0.7-1.2
			c0.3-0.3,0.7-0.4,1.1-0.5c0.4,0,0.8,0,1.1,0.2c0.3,0.2,0.6,0.4,0.8,0.8c0.2,0.3,0.2,0.6,0.3,0.9c0,0.2,0,0.4-0.2,0.6
			c0,0,0,0-0.1,0c0-0.1,0-0.2,0-0.3c0.1-0.1,0.1-0.1,0.1-0.2c0-0.4-0.1-0.7-0.3-1.1c-0.2-0.3-0.5-0.5-0.8-0.7
			c-0.3-0.1-0.7-0.2-1-0.1c-0.3,0-0.6,0.2-0.8,0.4c-0.5,0.4-0.7,0.9-0.7,1.5c0,0.5,0,1,0.1,1.5c0,0.1,0.1,0.2,0.1,0.2
			c0.2,0.1,0.3,0.2,0.4,0.3c0.2,0.1,0.3,0.2,0.5,0.3c0.3,0.1,0.7,0.2,1.1,0.1c0.3,0,0.6-0.1,0.8-0.3l0.1-0.1l0,0c0,0,0.1,0,0.1-0.1
			c0.1-0.1,0.2-0.1,0.2-0.2c0,0.3-0.2,0.5-0.4,0.6c-0.7,0.4-1.4,0.3-2.1,0.1c-0.2-0.1-0.3-0.2-0.5-0.3c-0.1,0-0.2-0.1-0.3-0.1
			c-0.1,0-0.1,0-0.2,0.1c-0.3,0.5-0.8,0.5-1.3,0.3c-0.4-0.1-0.7-0.4-0.9-0.8c0-0.1-0.1-0.2-0.1-0.2c-0.1-0.1-0.2-0.1-0.3,0
			c-0.1,0.1-0.1,0.1-0.2,0.2c-0.3,0.4-0.7,0.7-1.2,0.8c-0.6,0.1-1.1,0-1.6-0.3c-0.2-0.1-0.4-0.3-0.5-0.5c-0.1-0.1-0.1-0.2-0.2-0.3
			s-0.2-0.1-0.3,0c-0.1,0.1-0.2,0.2-0.2,0.3c-0.3,0.4-0.7,0.7-1.2,0.8c-0.2,0-0.4,0-0.6,0c-0.4,0.1-0.5,0.3-0.5,0.6
			c0,0.2,0,0.5-0.2,0.7l-0.1,0.1C25.2,57.2,25.2,57.1,25.2,57z"/>
		<path fill="#1E3C73" d="M33.3,49.8c0,0.1,0,0.3,0,0.4c0,1.3,0,2.6,0,3.9l0,0c0,0.3,0.2,0.5,0.4,0.6c0.1,0,0.3,0.1,0.4,0.1
			c0.1,0,0.1,0,0.2,0c0.1,0,0.1,0,0.1,0.1c0,0.2,0,0.4,0,0.6c0,0.1,0,0.1-0.1,0.1c-0.1,0-0.2,0-0.3,0c-0.3,0-0.5-0.1-0.8-0.2
			c-0.5-0.2-0.7-0.6-0.7-1.1v-0.1v-0.1c0-1.4,0-2.9,0-4.3C32.8,49.8,33.1,49.8,33.3,49.8L33.3,49.8z"/>
		<path fill="#97B8CF" d="M32.6,50.1C32.5,50.2,32.5,50.2,32.6,50.1c-0.1,0.2-0.1,0.4-0.1,0.5c0,0.4,0,0.9,0,1.3
			c0,0.2,0,0.4-0.1,0.6c-0.1,0.2-0.1,0.2-0.2,0c-0.1-0.1-0.1-0.2-0.2-0.3c-0.2-0.3-0.5-0.6-0.8-0.9c-0.1-0.1-0.3-0.2-0.5-0.2
			c-0.3,0-0.7,0-1,0c-0.1,0-0.2,0.1-0.3,0.1c-0.3,0.2-0.6,0.5-0.8,0.9c-0.1,0.1-0.1,0.3-0.2,0.4c-0.1,0.1-0.1,0.1-0.2,0
			S28,52.2,27.9,52c-0.2-0.4-0.5-0.6-0.8-0.8c-0.3-0.1-0.6-0.1-0.9-0.1c-0.2,0-0.5,0.1-0.7,0.2c-0.5,0.2-0.8,0.6-0.9,1.2
			c-0.1,0.2-0.1,0.5-0.1,0.7c0,1.1,0,2.1,0,3.2c0,0.1,0,0.3,0.1,0.4c0,0.1,0,0.2,0,0.3c-0.2-0.1-0.2-0.3-0.2-0.4c0-0.2,0-0.4,0-0.5
			c0-0.8,0-1.7,0-2.5c0-0.3,0-0.6,0.1-1c0.1-0.6,0.5-1.1,1-1.4c0.2-0.1,0.5-0.2,0.7-0.2c0.3,0,0.7,0,1,0.2c0.3,0.1,0.5,0.3,0.7,0.6
			c0.1,0.1,0.2,0.3,0.3,0.4c0.1,0.1,0.2,0.1,0.2,0c0.1-0.1,0.2-0.2,0.2-0.2c0.1-0.2,0.3-0.4,0.4-0.5l0.1-0.1c0.1-0.1,0.1-0.2,0-0.3
			S29,51.1,28.9,51c0-0.1-0.1-0.1-0.1-0.2c0,0.1,0.1,0.1,0.1,0.2c0.1,0.2,0.1,0.2,0.3,0.1l0,0c0.1,0,0.2,0,0.3,0
			c0.1-0.1,0.2-0.1,0.3-0.2c0.1-0.1,0.3-0.1,0.5-0.1c0.1,0,0.3,0.1,0.4,0.2c0.1,0.1,0.3,0.2,0.5,0.1h0.1c0.1,0.1,0.1,0.1,0.2,0
			s0.2-0.2,0.2-0.3c0,0.1,0,0.2-0.1,0.3c0,0.1-0.1,0.2-0.1,0.2c-0.1,0.2,0,0.3,0,0.5c0.1,0.2,0.3,0.3,0.4,0.5
			c0.1,0.1,0.2,0.1,0.3-0.1c0.1-0.4,0.1-0.7,0.1-1.1c0-0.3,0-0.7,0.1-1c0,0,0-0.1,0.1-0.1C32.6,49.9,32.6,50,32.6,50.1L32.6,50.1
			L32.6,50.1L32.6,50.1z"/>
		<path fill="#1E3C73" d="M29.3,51C29.2,51,29.2,51,29.3,51c-0.2,0.1-0.2,0.1-0.4-0.1c0-0.1-0.1-0.1-0.1-0.2c-0.1-0.1,0-0.1,0.1-0.1
			c0.4-0.2,0.9-0.5,1.3-0.7c0.1,0,0.1-0.1,0.2,0c0.4,0.3,0.9,0.5,1.3,0.7l0,0c0,0,0,0,0.1,0l0,0c-0.1,0.1-0.2,0.2-0.2,0.3
			c-0.1,0.1-0.1,0.1-0.2,0h-0.1c-0.3-0.2-0.6-0.3-0.9-0.5h-0.1C29.9,50.6,29.6,50.8,29.3,51z"/>
		<path fill="#97B8CF" d="M37.8,53.8c0.1,0,0.3,0,0.5,0v0.1c-0.2,0.1-0.4,0.2-0.6,0.2c-0.3,0-0.7-0.1-1,0h-0.1
			c-0.1,0-0.2,0.1-0.3,0.2c0,0.1,0.1,0.2,0.2,0.3c0.2,0.1,0.4,0.1,0.7,0.1c0.1,0,0.3-0.1,0.4-0.1c0.4-0.1,0.7,0.2,0.8,0.5
			c-0.1-0.1-0.3-0.3-0.4-0.4c-0.1-0.1-0.1-0.1-0.2,0l-0.1,0.1c-0.1,0-0.2,0-0.3,0c-0.2,0.1-0.3,0.1-0.5,0.1s-0.4-0.1-0.5-0.2
			c-0.1-0.1-0.2-0.2-0.1-0.4c0-0.2,0.2-0.3,0.3-0.3s0.3-0.1,0.4,0c0.3,0,0.6,0,0.9,0C37.6,53.9,37.7,53.9,37.8,53.8z"/>
		<path fill="#97B8CF" d="M31.7,50.6c-0.5-0.2-0.9-0.5-1.3-0.7c-0.1-0.1-0.1,0-0.2,0c-0.4,0.2-0.9,0.5-1.3,0.7c0-0.1,0-0.2,0.1-0.3
			c0.4-0.3,0.8-0.6,1.2-0.6c0.1,0,0.2,0,0.3,0c0.4,0.1,0.7,0.3,1,0.6C31.6,50.3,31.7,50.4,31.7,50.6z"/>
		<path fill="#97B8CF" d="M24.5,57.3c0.2,0,0.5,0,0.7,0c0,0.1-0.1,0.1-0.2,0.1C24.8,57.4,24.7,57.4,24.5,57.3z"/>
		<path fill="#97B8CF" d="M33.3,49.8c-0.2,0-0.5,0-0.7,0c0-0.1,0.1-0.1,0.2-0.1C33,49.6,33.1,49.6,33.3,49.8z"/>
		<path fill="#97B8CF" d="M31.7,50.6L31.7,50.6L31.7,50.6z"/>
		<path fill="#EDF1F4" d="M32.6,50.1L32.6,50.1L32.6,50.1L32.6,50.1z"/>
		<path fill="#E5252B" d="M48.4,55.6L48.4,55.6c-0.3,0.1-0.5,0.1-0.8,0l0,0c0-0.1,0-0.2,0-0.3c0-0.6,0-1.1,0-1.7c0-0.2,0-0.3,0-0.5
			c-0.1-0.4-0.3-0.7-0.8-0.8c-0.2,0-0.4,0-0.5,0c-0.3,0-0.4,0.2-0.6,0.4c-0.1,0.2-0.1,0.4-0.1,0.6c0,0.7,0,1.4,0,2.1
			c0,0.1,0,0.2,0,0.3l0,0c-0.3,0-0.5,0-0.7,0l0,0c0,0,0,0,0-0.1c0-0.7,0-1.4,0-2.1c0-0.3,0-0.6,0.1-0.9c0.2-0.5,0.5-0.9,1.1-1
			c0.3-0.1,0.7-0.1,1,0s0.6,0.2,0.8,0.5c0,0,0,0.1,0.1,0.1c0.2-0.3,0.5-0.5,0.8-0.6c0.2-0.1,0.5-0.1,0.7-0.1c0.7,0,1.2,0.4,1.4,1
			c0.1,0.4,0.2,0.8,0.2,1.2c0,0.6,0,1.2,0,1.8v0.1c0,0.1,0,0.1-0.1,0.1c-0.2,0-0.4,0-0.7,0c0-0.7,0-1.5,0-2.2c0-0.1,0-0.2,0-0.4
			c-0.1-0.5-0.3-0.7-0.8-0.8c-0.2,0-0.3,0-0.5,0c-0.3,0.1-0.5,0.2-0.6,0.5c0,0.1-0.1,0.3-0.1,0.4c0,0.7,0,1.3,0,2
			C48.4,55.3,48.4,55.4,48.4,55.6z"/>
		<path fill="#E5252B" d="M52.5,57.3L52.5,57.3c-0.2,0-0.4,0-0.6,0c-0.1,0-0.1,0-0.1-0.1c0-0.4,0-0.8,0-1.1c0-0.1,0-0.1,0-0.2
			c0-0.8,0-1.5,0-2.2c0-0.4,0-0.9,0.2-1.3c0.2-0.4,0.4-0.6,0.8-0.8c0.3-0.1,0.6-0.1,0.8-0.1c0.8,0,1.3,0.4,1.5,1.2
			c0.1,0.6,0.1,1.1,0,1.7c-0.2,0.9-0.7,1.3-1.6,1.3c-0.3,0-0.6,0-0.9,0c-0.2,0-0.2,0-0.2,0.2C52.5,56.3,52.5,56.8,52.5,57.3z
			 M52.5,53.9c0,0.3,0,0.5,0,0.8c0,0.1,0,0.1,0.1,0.1c0.3,0,0.7,0,1,0c0.5,0,0.8-0.2,0.9-0.7c0.1-0.4,0.1-0.9,0-1.3
			c-0.1-0.3-0.2-0.5-0.5-0.5c-0.3-0.1-0.6-0.1-0.9,0c-0.2,0.1-0.3,0.2-0.4,0.4c-0.1,0.1-0.1,0.3-0.1,0.4
			C52.5,53.4,52.5,53.7,52.5,53.9z"/>
		<path fill="#97B8CF" d="M44.9,55.5C44.9,55.6,44.9,55.6,44.9,55.5c-0.2-0.2-0.4-0.4-0.3-0.8c0-0.2,0-0.3,0-0.5
			c0-0.3-0.2-0.4-0.5-0.3c-0.1,0-0.2,0.1-0.3,0.1c-0.2,0.1-0.4,0-0.5,0c-0.3,0-0.5-0.1-0.8,0c-0.1,0-0.2,0.1-0.3,0.2
			c0,0.1,0.1,0.3,0.2,0.3c0.1,0,0.3,0.1,0.4,0c0.2,0,0.4-0.1,0.5-0.2c0.1-0.1,0.3-0.1,0.4,0c0.1,0.1,0.2,0.2,0.3,0.2
			c0.2,0.2,0.2,0.4,0.1,0.6c-0.1,0.2-0.3,0.4-0.6,0.5c-0.6,0.3-1.3,0.3-1.9,0c-0.4-0.2-0.7-0.5-0.9-0.9s-0.3-0.8-0.3-1.2
			c0-0.5,0.1-1,0.3-1.4s0.5-0.7,0.9-0.9s0.9-0.2,1.3-0.1c0.5,0.1,0.9,0.4,1.2,0.9c0,0.1,0.1,0.1,0.1,0.2c0.1,0.2,0.3,0.2,0.4,0
			c0.1-0.2,0.2-0.4,0.4-0.6c0.2-0.3,0.5-0.4,0.9-0.5s0.9-0.1,1.3,0.1c0.1,0,0.3,0.1,0.4,0.1c0.2,0.1,0.5,0,0.7-0.1
			c0.3-0.1,0.6-0.2,1-0.2c0.5,0,1,0.1,1.3,0.5c0.2,0.1,0.3,0.3,0.4,0.5c0,0.1,0.1,0.2,0.2,0.3c0.1,0.1,0.1,0.1,0.2,0
			c0.1-0.1,0.2-0.3,0.3-0.4c0.3-0.5,0.7-0.8,1.3-0.9c0.5-0.1,0.9,0,1.3,0.2c0.1,0.1,0.3,0.2,0.4,0.3c0.1,0.1,0.2,0.2,0.3,0.2
			c0.2,0.1,0.3,0,0.3-0.1s0-0.2,0-0.4c0-0.3,0-0.6,0-0.9c0-0.2,0-0.4,0.1-0.6c0.1-0.4,0.6-0.5,0.9-0.2l0,0c-0.2,0-0.4,0-0.7,0
			c-0.1,0-0.1,0-0.1,0.1s0,0.1,0,0.2c-0.1,0.2-0.1,0.4-0.1,0.5c0,0.4,0,0.8,0,1.2c0,0.2,0,0.4-0.1,0.6c0,0.1-0.1,0.1-0.1,0.1
			c-0.1,0-0.1,0-0.2-0.1c-0.1-0.1-0.2-0.3-0.3-0.4c-0.2-0.3-0.4-0.5-0.7-0.6c-0.4-0.1-0.7-0.2-1.1-0.1c-0.7,0.1-1.1,0.5-1.4,1
			c-0.1,0.2-0.1,0.3-0.2,0.5c-0.1,0.1-0.2,0.1-0.3,0c0,0,0,0,0-0.1c-0.1-0.1-0.1-0.3-0.2-0.4c-0.1-0.3-0.4-0.6-0.7-0.8
			c0.1,0.2-0.2,0.2-0.5,0.1c-0.4,0-0.7,0-1.1,0.2c-0.3,0.1-0.6,0.2-1,0s-0.8-0.2-1.2-0.2c-0.3,0-0.6,0.2-0.9,0.4
			c-0.1,0.1-0.3,0.3-0.4,0.4c-0.1,0.3-0.2,0.6-0.4,0.9c-0.1,0.1-0.1,0.3,0,0.4c0,0.1,0.1,0.2,0.1,0.3c0.1,0.3,0.1,0.6,0.1,1
			c0,0.2,0,0.3,0.1,0.5C44.9,55.3,44.9,55.4,44.9,55.5z M43.9,55.3L43.9,55.3C43.9,55.3,44,55.3,43.9,55.3L43.9,55.3
			C44,55.2,44,55.2,43.9,55.3L43.9,55.3C44,55.2,44,55.2,43.9,55.3L43.9,55.3L43.9,55.3L43.9,55.3c0.1-0.1,0.2-0.1,0.2-0.2
			s0.1-0.1,0-0.2c-0.1-0.1-0.2-0.2-0.3-0.3s-0.1-0.1-0.2,0c-0.2,0.1-0.4,0.1-0.7,0.2c-0.3,0-0.6,0-0.8-0.2s-0.2-0.5,0.2-0.6
			c0.1,0,0.2,0,0.3,0c0.6,0,1.2,0,1.7-0.1l0,0c0-0.2,0.1-0.3,0.2-0.4c0.1-0.1,0.1-0.2,0-0.3c0-0.1-0.1-0.1-0.1-0.2
			c-0.1-0.3-0.2-0.6-0.4-0.9c-0.2-0.2-0.4-0.4-0.7-0.5s-0.6-0.2-0.9-0.1c-0.3,0-0.6,0.1-0.9,0.3c-0.4,0.3-0.6,0.7-0.7,1.1
			c-0.2,0.6-0.1,1.2,0.1,1.8c0.1,0.4,0.4,0.7,0.8,0.9c0.4,0.2,0.9,0.2,1.3,0.2c0.2,0,0.4-0.1,0.6-0.2C43.7,55.5,43.8,55.4,43.9,55.3
			L43.9,55.3L43.9,55.3z"/>
		<path fill="#EDF1F4" d="M44.9,55.5c0-0.1,0-0.2,0-0.3c-0.1-0.2-0.1-0.3-0.1-0.5c0-0.3,0-0.6-0.1-1c0-0.1,0-0.2-0.1-0.3
			c-0.1-0.2,0-0.3,0-0.4c0.2-0.3,0.3-0.6,0.4-0.9c0.1-0.2,0.2-0.3,0.4-0.4c0.3-0.2,0.6-0.3,0.9-0.4c0.4,0,0.8,0,1.2,0.2
			c0.3,0.1,0.7,0.1,1,0s0.7-0.2,1.1-0.2c0.3,0,0.6,0.1,0.8,0.2c0.3,0.2,0.5,0.5,0.7,0.8c0.1,0.1,0.1,0.3,0.2,0.4c0,0,0,0,0,0.1
			c0.1,0.1,0.2,0.1,0.3,0s0.2-0.3,0.2-0.5c0.3-0.6,0.7-1,1.4-1c0.4,0,0.7,0,1.1,0.1c0.3,0.1,0.5,0.3,0.7,0.6
			c0.1,0.1,0.2,0.3,0.3,0.4c0,0.1,0.1,0.1,0.2,0.1c0.1,0,0.1-0.1,0.1-0.1c0.1-0.2,0.1-0.4,0.1-0.6c0-0.4,0-0.8,0-1.2
			c0-0.2,0-0.4,0.1-0.5c0,0.1,0,0.2,0,0.3c0,1.2,0,2.3,0,3.5c0,0.2,0,0.3,0,0.5c0.1,0.4,0.3,0.8,0.7,1c0.3,0.2,0.7,0.2,1,0.2
			c0.1,0,0.1,0,0.1-0.1c0,0,0,0,0,0.1s-0.1,0.1-0.1,0.1c-0.1,0-0.2,0-0.3,0s-0.2,0-0.2,0c-0.5-0.1-0.9-0.3-1.2-0.7
			c-0.1-0.1-0.1-0.2-0.2-0.4c-0.1-0.2-0.3-0.3-0.4,0C55.1,54.7,55,54.9,55,55c-0.3,0.4-0.7,0.7-1.2,0.8c-0.2,0-0.5,0-0.7,0.1
			c-0.4,0.1-0.6,0.4-0.6,0.7c0,0.2,0,0.4-0.1,0.5c0,0.1,0,0.2,0,0.3l0,0c0-0.5,0-1,0-1.5c0-0.2,0-0.2,0.2-0.2c0.3,0,0.6,0,0.9,0
			c0.9,0,1.4-0.4,1.6-1.3c0.1-0.6,0.1-1.1,0-1.7c-0.2-0.7-0.7-1.2-1.5-1.2c-0.3,0-0.6,0-0.8,0.1c-0.4,0.1-0.7,0.4-0.8,0.8
			c-0.2,0.4-0.2,0.9-0.2,1.3c0,0.8,0,1.5,0,2.2c0,0.1,0,0.1,0,0.2c0,0.3,0,0.5,0,0.8c-0.1-0.3,0-0.6-0.1-0.9c0-0.2-0.1-0.4-0.1-0.7
			c0-0.1-0.1-0.1-0.2-0.1c-0.1,0-0.1,0.1-0.2,0.2c0-0.6,0-1.2,0-1.8c0-0.4,0-0.8-0.2-1.2c-0.2-0.6-0.7-1-1.4-1c-0.2,0-0.5,0-0.7,0.1
			c-0.3,0.1-0.6,0.3-0.8,0.6c0,0-0.1,0-0.1-0.1c-0.2-0.3-0.5-0.4-0.8-0.5s-0.7-0.1-1,0c-0.6,0.1-0.9,0.5-1.1,1
			C45,52.8,45,53.1,45,53.4C44.9,54.1,44.9,54.8,44.9,55.5z"/>
		<path fill="#E5252B" d="M62.7,51.4L62.7,51.4c0,1.4,0,2.7,0,4c0,0.1,0,0.1,0,0.2c-0.3,0-0.5,0-0.8,0l0,0c0-0.1,0-0.1,0-0.2
			c0-0.1,0-0.1,0-0.2c0-0.8,0-1.7,0-2.5c0-0.3,0-0.6,0-0.9c0-0.1,0-0.2,0-0.3l0,0C62.2,51.4,62.4,51.4,62.7,51.4z"/>
		<path fill="#97B8CF" d="M61.9,51.4c0,0.1,0,0.2,0,0.3c-0.1,0.1-0.1,0.2-0.1,0.3s0,0.3-0.1,0.4c-0.1,0.1-0.1,0.1-0.2,0
			c-0.1-0.1-0.2-0.2-0.2-0.3c-0.2-0.2-0.3-0.5-0.6-0.6c-0.5-0.3-1-0.4-1.6-0.2c-0.5,0.1-0.8,0.4-1,0.8c-0.3,0.5-0.3,1.1-0.2,1.7
			c0,0.2,0,0.5,0,0.7c0,0.1-0.1,0.2-0.2,0.1c-0.1,0-0.1,0-0.2-0.1c-0.5-0.2-0.8-0.5-0.8-1c0-1,0-2,0-3c0-0.2,0-0.4-0.1-0.6
			c0-0.1,0-0.2,0-0.2l0,0c0.1,0.2,0.2,0.4,0.2,0.7c0.1,1,0,2,0,3c0,0.1,0,0.2,0,0.4c0,0.3,0.2,0.6,0.5,0.6c0.2,0.1,0.4,0,0.4-0.2
			s0-0.3,0-0.5c0-0.3,0-0.7,0-1s0.1-0.5,0.3-0.7c0.2-0.4,0.5-0.6,0.8-0.7c0.5-0.2,1-0.2,1.5-0.1c0.3,0.1,0.5,0.2,0.7,0.4
			c0.1,0.1,0.2,0.2,0.3,0.3c0.2,0.1,0.3,0.1,0.3-0.1C61.7,51.8,61.8,51.7,61.9,51.4C61.9,51.5,61.9,51.5,61.9,51.4z"/>
		<path fill="#97B8CF" d="M48.4,55.6c0-0.1,0-0.2,0-0.4c0-0.1,0.1-0.2,0.1-0.3c0-0.5,0-1,0-1.4c0-0.2,0-0.3,0.1-0.5
			c0.1-0.3,0.2-0.5,0.5-0.6c0.5-0.2,0.9,0,1.1,0.5c0.1,0.2,0.1,0.5,0.1,0.7c0,0.4,0,0.8,0,1.2c0,0.1,0,0.2,0,0.3s0,0.3,0,0.4
			c-0.1,0-0.1-0.1-0.1-0.1c0-0.2,0-0.5,0-0.7c0-0.4,0-0.8,0-1.2c0-0.2,0-0.4-0.2-0.6c-0.1-0.2-0.4-0.3-0.6-0.3
			c-0.3,0-0.5,0.2-0.6,0.4s-0.1,0.4-0.1,0.7c0,0.4,0,0.8,0,1.2c0,0.2,0,0.4-0.1,0.6C48.5,55.5,48.5,55.5,48.4,55.6z"/>
		<path fill="#97B8CF" d="M52.5,57.2c0-0.1,0-0.2,0-0.3c0.1-0.2,0.1-0.3,0.1-0.5c0-0.3,0.2-0.6,0.6-0.7c0.2,0,0.5,0,0.7-0.1
			c0.5-0.1,0.9-0.3,1.2-0.8c0.1-0.1,0.2-0.3,0.2-0.4c0.2-0.2,0.3-0.2,0.4,0c0.1,0.1,0.1,0.2,0.2,0.4c0.3,0.4,0.7,0.7,1.2,0.7
			c0.1,0,0.2,0,0.2,0c0.1,0,0.2,0,0.3,0c0,0.1-0.1,0.1-0.2,0.1c-0.4,0.1-0.8,0-1.1-0.2c-0.2-0.1-0.4-0.4-0.6-0.6l-0.1-0.1
			c-0.1-0.1-0.2-0.1-0.3,0s-0.2,0.2-0.2,0.3c-0.2,0.3-0.5,0.5-0.9,0.6c-0.2,0.1-0.5,0.1-0.7,0.1c-0.4,0-0.5,0.1-0.6,0.4
			c-0.1,0.1,0,0.3-0.1,0.5c0,0.2-0.1,0.3-0.1,0.4C52.6,57.2,52.6,57.2,52.5,57.2z"/>
		<path fill="#97B8CF" d="M47.6,55.2c0,0.1,0,0.2,0,0.3c-0.2-0.1-0.2-0.3-0.2-0.5c-0.1-0.5,0-1,0-1.5c0-0.2,0-0.3-0.1-0.5
			c-0.1-0.3-0.3-0.5-0.6-0.5S46.1,52.7,46,53c-0.1,0.2-0.1,0.4-0.1,0.6c0,0.4,0,0.8,0,1.2c0,0.2,0,0.5-0.1,0.7
			c0,0.1-0.1,0.1-0.1,0.1c0-0.1,0-0.2,0-0.3c0.1-0.1,0.1-0.3,0.1-0.4c0-0.4,0-0.9,0-1.3c0-0.2,0-0.5,0.1-0.7
			c0.1-0.3,0.3-0.5,0.6-0.5c0.4,0,0.7,0.1,0.9,0.4c0.1,0.2,0.2,0.5,0.2,0.7c0,0.4,0,0.8,0,1.3C47.5,54.9,47.5,55.1,47.6,55.2z"/>
		<path fill="#97B8CF" d="M61.9,55.4c0,0.1,0,0.1,0,0.2c-0.1-0.1-0.2-0.2-0.2-0.4c-0.1-0.3-0.2-0.3-0.5-0.1
			c-0.1,0.1-0.2,0.2-0.3,0.3c-0.3,0.2-0.6,0.4-1,0.4c-0.5,0-1-0.1-1.5-0.4c-0.1,0-0.1,0-0.2,0s-0.2,0-0.3,0.1c0,0-0.1,0.1-0.2,0.1
			c0,0,0,0,0-0.1v-0.1c0-0.1,0.1-0.2,0.1-0.3s0.1-0.1,0.2,0c0.1,0.1,0.2,0.2,0.4,0.2c0.1,0.1,0.2,0.2,0.3,0.2
			c0.4,0.2,0.9,0.3,1.3,0.2c0.4-0.1,0.8-0.3,1-0.6c0.1-0.1,0.2-0.3,0.3-0.4c0.1-0.1,0.1-0.1,0.2-0.1c0.1,0,0.1,0.1,0.2,0.2l0,0
			C61.8,55,61.8,55.2,61.9,55.4z"/>
		<path fill="#EDF1F4" d="M50.4,55.5c0-0.1,0-0.3,0-0.4c0-0.1,0-0.2,0-0.3c0-0.4,0-0.8,0-1.2c0-0.2,0-0.5-0.1-0.7
			c-0.2-0.5-0.7-0.7-1.1-0.5c-0.3,0.1-0.4,0.3-0.5,0.6c-0.1,0.2-0.1,0.3-0.1,0.5c0,0.5,0,1,0,1.4c0,0.1,0,0.2-0.1,0.3
			c0-0.7,0-1.3,0-2c0-0.1,0-0.3,0.1-0.4c0.1-0.3,0.3-0.5,0.6-0.5c0.2,0,0.3,0,0.5,0c0.5,0.1,0.7,0.3,0.8,0.8c0,0.1,0,0.2,0,0.4
			C50.4,54.1,50.4,54.9,50.4,55.5C50.4,55.6,50.4,55.6,50.4,55.5C50.4,55.6,50.4,55.5,50.4,55.5z"/>
		<path fill="#EDF1F4" d="M62.7,55.4c0-1.3,0-2.6,0-3.9c0.1,0.1,0.2,0.3,0.2,0.5c0,1,0,1.9,0,2.9C62.8,55.1,62.8,55.3,62.7,55.4z"/>
		<path fill="#E5252B" d="M62.7,49.8L62.7,49.8c0,0.3,0,0.5,0,0.8l0,0c-0.3,0-0.5,0-0.7,0l0,0c0-0.3,0-0.5,0-0.8l0,0
			C62.2,49.7,62.4,49.8,62.7,49.8z"/>
		<path fill="#97B8CF" d="M50.4,55.6L50.4,55.6c0.2,0,0.5,0,0.7,0c0.1,0,0.1,0,0.1-0.1v-0.1c0.1-0.1,0.1-0.1,0.2-0.2
			c0.1,0,0.1,0,0.2,0.1c0.1,0.2,0.1,0.4,0.1,0.7s0,0.6,0.1,0.9c0-0.3,0-0.5,0-0.8c0,0.4,0,0.8,0,1.1c0,0.1,0,0.1,0.1,0.1
			c0.2,0,0.4,0,0.6,0c-0.2,0.1-0.3,0.1-0.5,0.1c-0.1,0-0.1,0-0.2-0.1c-0.1,0-0.1-0.1-0.1-0.1c0-0.1-0.1-0.3-0.1-0.4
			c0-0.2,0-0.4-0.1-0.6c0-0.1,0-0.2-0.1-0.4c-0.1-0.1-0.1-0.1-0.3-0.1s-0.3,0.1-0.5,0C50.6,55.7,50.5,55.7,50.4,55.6z"/>
		<path fill="#97B8CF" d="M61.9,49.8c0,0.3,0,0.5,0,0.8C61.7,50.4,61.7,49.9,61.9,49.8z"/>
		<path fill="#97B8CF" d="M62.7,50.5c0-0.3,0-0.5,0-0.7c0.1,0,0.1,0,0.1,0.1c0,0.2,0.1,0.4,0,0.5C62.8,50.5,62.7,50.5,62.7,50.5z"/>
		<path fill="#97B8CF" d="M61.9,50.6c0.3,0,0.5,0,0.7,0c-0.2,0.2-0.4,0.2-0.6,0.1C62,50.6,61.9,50.6,61.9,50.6z"/>
		<path fill="#97B8CF" d="M62.7,49.8c-0.3,0-0.5,0-0.8,0C62.1,49.5,62.5,49.6,62.7,49.8z"/>
		<path fill="#97B8CF" d="M62.7,51.4c-0.3,0-0.5,0-0.8,0C62.2,51.2,62.4,51.3,62.7,51.4L62.7,51.4z"/>
		<path fill="#97B8CF" d="M44.9,55.6c0.3,0,0.5,0,0.7,0c-0.2,0.2-0.4,0.1-0.6,0.1C45,55.7,44.9,55.7,44.9,55.6z"/>
		<path fill="#97B8CF" d="M61.9,55.6c0.3,0,0.5,0,0.8,0C62.5,55.8,62.1,55.8,61.9,55.6z"/>
		<path fill="#97B8CF" d="M47.6,55.6c0.3,0,0.5,0,0.8,0C48.1,55.7,47.9,55.7,47.6,55.6z"/>
		<path fill="#97B8CF" d="M55,35.4c0,0.3,0,0.6-0.1,0.8c-0.1,0.4-0.4,0.8-0.7,1s-0.4,0.5-0.4,0.8c0,0.1,0,0.2,0,0.3
			c0,0.3,0.1,0.5,0.3,0.6c0,0,0.1,0.1,0.2,0.1c0.3,0.2,0.4,0.4,0.4,0.7c0,0.5-0.2,0.9-0.4,1.3c-0.2,0.2-0.3,0.5-0.5,0.7
			c-0.5,0.5-1,0.9-1.6,1.2c-0.3,0.1-0.5,0.3-0.8,0.6s-0.6,0.6-0.9,0.9c-0.5,0.4-1,0.8-1.5,1.1s-0.9,0.5-1.4,0.7
			c-0.6,0.2-1.2,0.4-1.8,0.5c-0.4,0.1-0.9,0.1-1.4,0.2c-0.3,0-0.5,0-0.8,0c-0.5,0-1-0.1-1.4-0.1c-0.5-0.1-0.9-0.2-1.4-0.3
			c-0.4-0.1-0.7-0.3-1.1-0.4c-0.4-0.2-0.8-0.4-1.2-0.6c-0.4-0.3-0.8-0.5-1.2-0.8c-0.3-0.3-0.7-0.6-1-0.9c-0.5-0.6-1-1.2-1.4-1.9
			c-0.3-0.5-0.5-1-0.7-1.6s-0.4-1.2-0.5-1.8c-0.1-0.4-0.1-0.8-0.1-1.2c0-0.3,0-0.5,0-0.8c0-0.4,0.1-0.9,0.1-1.3
			c0.1-0.4,0.1-0.8,0.3-1.3c0.1-0.3,0.2-0.6,0.3-0.9c0.2-0.4,0.3-0.8,0.5-1.1c0.3-0.5,0.6-0.9,0.9-1.4c0.3-0.3,0.5-0.7,0.9-1
			c0.3-0.3,0.5-0.5,0.9-0.8c0.2-0.1,0.4-0.3,0.6-0.5c0.3-0.2,0.5-0.3,0.8-0.5c0.4-0.3,0.9-0.5,1.4-0.7c0.2-0.1,0.4-0.1,0.6-0.2
			c0.3-0.1,0.5-0.1,0.8-0.2c0.4-0.1,0.8-0.2,1.3-0.2c0.3,0,0.7-0.1,1-0.1c0.5,0,1.1,0,1.6,0.1c0.6,0.1,1.2,0.2,1.8,0.4
			c0.8,0.3,1.5,0.6,2.2,1.1c0.8,0.5,1.5,1.2,2.2,1.9c0.3,0.3,0.7,0.6,1.1,0.8c0.3,0.2,0.5,0.3,0.7,0.5c0.6,0.5,1.1,1.2,1.4,1.9
			c0.2,0.6,0.4,1.1,0.5,1.8C55,35.2,55,35.3,55,35.4z M54.4,36.8L54.4,36.8c0.1,0,0.1-0.1,0.1-0.1s0.1,0,0.1-0.1
			c0.1-0.2,0.1-0.3,0.2-0.5c0.1-0.4,0.1-0.8,0-1.3c-0.1-0.4-0.1-0.8-0.3-1.1c-0.1-0.4-0.3-0.7-0.5-1c-0.1-0.1-0.2-0.3-0.3-0.4
			c-0.2-0.3-0.5-0.6-0.7-0.8c-0.3-0.2-0.6-0.4-0.9-0.6c-0.4-0.2-0.7-0.5-0.9-0.8c-0.4-0.5-0.9-0.9-1.4-1.3s-1.1-0.8-1.7-1
			c-0.5-0.2-1-0.4-1.5-0.6c-0.9-0.3-1.8-0.4-2.7-0.5c-0.5,0-1,0-1.5,0c-0.6,0.1-1.2,0.2-1.8,0.4c-0.9,0.2-1.7,0.6-2.5,1.1
			c-0.5,0.3-1,0.7-1.4,1.1c-0.5,0.4-0.9,0.9-1.3,1.4c-0.3,0.4-0.6,0.9-0.8,1.3c-0.3,0.5-0.5,1-0.7,1.5c-0.3,1-0.5,2.1-0.5,3.2
			c0,0.4,0,0.9,0.1,1.3c0.1,0.5,0.2,1,0.3,1.6c0.1,0.5,0.3,1,0.5,1.4s0.4,0.7,0.6,1.1c0.3,0.5,0.6,0.9,1,1.3
			c0.4,0.4,0.7,0.8,1.2,1.1c0.4,0.3,0.7,0.6,1.1,0.8c0.4,0.3,0.9,0.5,1.3,0.7c0.4,0.2,0.8,0.3,1.2,0.4c0.4,0.1,0.8,0.2,1.3,0.3
			c0.4,0.1,0.8,0.1,1.2,0.1c0.3,0,0.6,0,1,0c0.3,0,0.7-0.1,1-0.1c0.4-0.1,0.7-0.1,1.1-0.2c0.4-0.1,0.9-0.3,1.3-0.5
			c0.5-0.2,0.9-0.4,1.3-0.7c0.6-0.4,1.1-0.8,1.6-1.3c0.2-0.2,0.4-0.5,0.7-0.7c0.1-0.1,0.3-0.2,0.4-0.3c0.3-0.2,0.6-0.3,0.8-0.4
			c0.4-0.3,0.8-0.6,1.1-0.9c0.3-0.4,0.6-0.8,0.8-1.2c0.1-0.2,0.1-0.4,0-0.6l0,0v-0.1c-0.1-0.2-0.2-0.3-0.4-0.4
			c0-0.1-0.1-0.1-0.1-0.1c-0.2-0.1-0.3-0.3-0.3-0.6c0-0.1,0-0.3,0-0.4c0-0.3,0.1-0.7,0.4-0.9c0.1-0.1,0.1-0.1,0.2-0.2l0.1-0.1l0,0
			C54.3,36.9,54.3,36.9,54.4,36.8C54.3,36.9,54.4,36.8,54.4,36.8L54.4,36.8L54.4,36.8z"/>
		<path fill="#EDF1F4" d="M25.9,54.8c-0.2,0-0.4,0-0.6,0c-0.1,0-0.1,0-0.1-0.1c0-0.5,0-1.1,0-1.6c0-0.1,0-0.2,0.1-0.3
			c0.1-0.3,0.3-0.4,0.6-0.5c0.2,0,0.4,0,0.6,0c0.3,0.1,0.5,0.2,0.6,0.5c0.2,0.5,0.2,1,0,1.5c-0.1,0.3-0.3,0.5-0.7,0.5
			C26.3,54.8,26.1,54.8,25.9,54.8z M27.1,53.5c0-0.1,0-0.2,0-0.3s0-0.1-0.1-0.2c-0.1-0.4-0.5-0.6-0.8-0.6c-0.4,0-0.7,0.2-0.8,0.6
			c-0.1,0.4-0.2,0.8-0.1,1.2c0,0.3,0.2,0.4,0.5,0.5c0.1,0,0.2,0,0.3,0c0.4,0,0.8-0.3,0.9-0.7C27.1,53.8,27.1,53.7,27.1,53.5z"/>
		<path fill="#EDF1F4" d="M37.8,55.3c0,0,0,0.1-0.1,0.1c-0.3,0.2-0.5,0.3-0.8,0.3c-0.4,0-0.7,0-1.1-0.1c-0.2-0.1-0.4-0.2-0.5-0.3
			c-0.1-0.1-0.3-0.2-0.4-0.3c-0.1-0.1-0.1-0.2-0.1-0.2c0-0.5-0.1-1-0.1-1.5c0.1-0.6,0.3-1.1,0.7-1.5c0.2-0.2,0.5-0.3,0.8-0.4
			c0.4-0.1,0.7,0,1,0.1s0.6,0.4,0.8,0.7c0.2,0.3,0.3,0.7,0.3,1.1c0,0.1,0,0.2-0.1,0.2c0-0.4,0-0.8-0.2-1.1c-0.3-0.6-0.8-0.9-1.4-0.9
			c-0.3,0-0.6,0-0.8,0.1c-0.5,0.2-0.8,0.6-0.9,1.1c-0.2,0.6-0.2,1.2,0,1.8c0.2,0.7,0.7,1,1.4,1.1c0.4,0.1,0.9,0,1.3-0.2
			C37.6,55.4,37.7,55.4,37.8,55.3z"/>
		<path fill="#EDF1F4" d="M36.5,53.2c-0.3,0-0.5,0-0.8,0c-0.1,0-0.1,0-0.1-0.1c0-0.4,0.1-0.7,0.5-0.9c0.3-0.2,0.6-0.2,1,0
			c0.3,0.2,0.4,0.4,0.4,0.7V53c0,0.1,0,0.1-0.1,0.1C37,53.2,36.8,53.2,36.5,53.2L36.5,53.2z M36.5,53.1c0.1,0,0.1,0,0.2,0
			c0.3-0.1,0.5-0.3,0.3-0.6c-0.1-0.2-0.3-0.3-0.5-0.3s-0.4,0.1-0.5,0.3c-0.1,0.1,0,0.3,0.1,0.4C36.2,53.1,36.3,53.1,36.5,53.1z"/>
		<path fill="#EDF1F4" d="M37.8,53.8c0,0.1-0.1,0.1-0.2,0.1c-0.3,0-0.6,0-0.9,0c-0.1,0-0.3,0-0.4,0c-0.2,0-0.3,0.1-0.3,0.3
			s0,0.3,0.1,0.4c0.1,0.1,0.3,0.2,0.5,0.2s0.4,0,0.5-0.1c0.1,0,0.2-0.1,0.3,0c-0.3,0.2-0.6,0.3-0.9,0.3c-0.7-0.1-0.9-0.5-0.9-1
			c0-0.1,0-0.1,0.1-0.1C36.4,53.8,37.1,53.8,37.8,53.8z"/>
		<path fill="#EDF1F4" d="M37.9,55.3C37.9,55.3,37.8,55.3,37.9,55.3C37.8,55.3,37.9,55.3,37.9,55.3z"/>
		<path fill="#1E3C73" d="M32,53.5c0,0.4,0,0.7-0.2,1.1c-0.2,0.6-0.6,0.9-1.2,1c-0.3,0.1-0.6,0-1,0c-0.6-0.1-1-0.6-1.1-1.2
			c-0.1-0.6-0.1-1.2,0-1.8c0.2-0.7,0.7-1.1,1.5-1.1c0.3,0,0.5,0,0.7,0.1c0.5,0.2,0.8,0.5,1,1C32,52.8,32,53.2,32,53.5z M29.3,53.8
			L29.3,53.8C29.3,53.9,29.3,53.9,29.3,53.8c0,0.6,0.3,0.9,0.9,1c0.1,0,0.2,0,0.4,0c0.3-0.1,0.5-0.2,0.6-0.5c0.1-0.5,0.1-0.9,0-1.4
			c-0.1-0.2-0.2-0.4-0.4-0.5c-0.3-0.1-0.6-0.1-0.9,0c-0.4,0.1-0.5,0.5-0.5,0.8v0.1C29.2,53.4,29.2,53.6,29.3,53.8
			C29.2,53.8,29.3,53.8,29.3,53.8L29.3,53.8z"/>
		<path fill="#EDF1F4" d="M34.2,54.8c-0.1,0-0.3,0-0.4-0.1c-0.3-0.1-0.4-0.3-0.4-0.6l0,0c0-1.3,0-2.6,0-3.9c0.1,0.1,0.1,0.2,0.1,0.3
			c0,0.3,0,0.6,0,0.9c0,0.5,0,1,0,1.5c0,0.4,0,0.7,0,1.1c0,0.3,0.2,0.6,0.4,0.7C34,54.6,34.1,54.7,34.2,54.8
			C34.2,54.7,34.2,54.8,34.2,54.8z"/>
		<path fill="#EDF1F4" d="M29.3,51c0.3-0.2,0.6-0.3,0.9-0.5h0.1c0.3,0.2,0.6,0.3,0.9,0.5c-0.2,0.1-0.3,0-0.5-0.1
			c-0.1-0.1-0.3-0.1-0.4-0.2c-0.2,0-0.3,0-0.5,0.1c-0.1,0.1-0.2,0.1-0.3,0.2C29.5,51,29.4,51,29.3,51z"/>
		<path fill="#EDF1F4" d="M47.6,55.2c-0.1-0.1-0.1-0.3-0.1-0.4c0-0.4,0-0.8,0-1.3c0-0.2,0-0.5-0.2-0.7c-0.1-0.3-0.4-0.4-0.8-0.4
			c-0.3,0-0.5,0.2-0.6,0.5c-0.1,0.2-0.1,0.4-0.1,0.7c0,0.4,0,0.9,0,1.3c0,0.1,0,0.3-0.1,0.4c0-0.7,0-1.4,0-2.1c0-0.2,0-0.4,0.1-0.6
			c0.1-0.2,0.3-0.4,0.6-0.4c0.2,0,0.4,0,0.5,0c0.5,0.1,0.7,0.4,0.8,0.8c0,0.2,0,0.3,0,0.5C47.6,54.1,47.6,54.7,47.6,55.2z"/>
		<path fill="#EDF1F4" d="M52.5,53.9c0-0.2,0-0.5,0-0.8c0-0.1,0-0.3,0.1-0.4c0.1-0.2,0.2-0.3,0.4-0.4c0.3-0.1,0.6-0.1,0.9,0
			c0.3,0.1,0.4,0.3,0.5,0.5c0.1,0.4,0.1,0.9,0,1.3c-0.1,0.4-0.4,0.6-0.9,0.7c-0.3,0-0.7,0-1,0c-0.1,0-0.1,0-0.1-0.1
			C52.5,54.4,52.5,54.2,52.5,53.9z M52.6,53.7c0,0.1,0,0.2,0,0.3c0,0.3,0.2,0.5,0.5,0.6c0.1,0,0.2,0,0.3,0c0.5,0,0.8-0.3,1-0.8
			c0-0.2,0-0.4,0-0.6c0-0.2-0.1-0.4-0.2-0.6c-0.2-0.3-0.5-0.4-0.8-0.3c-0.3,0.1-0.5,0.2-0.6,0.5C52.6,53.2,52.6,53.5,52.6,53.7z"/>
		<path fill="#E5252B" d="M44.3,53.8L44.3,53.8c-0.1,0-0.1,0-0.2,0c-0.8,0-1.5,0-2.3,0c-0.2,0-0.2,0-0.2,0.2c0,0.4,0.2,0.7,0.6,0.8
			c0.5,0.2,0.9,0.1,1.3-0.2c0.1-0.1,0.1-0.1,0.2,0c0.1,0.1,0.2,0.2,0.3,0.3s0.1,0.1,0,0.2c0,0-0.1,0-0.1,0.1l0,0l0,0l0,0l0,0l0,0
			c0,0,0,0-0.1,0l0,0l0,0l0,0l0,0l0,0c-0.1,0.1-0.2,0.1-0.3,0.2c-0.4,0.2-0.9,0.2-1.3,0.1c-0.7-0.1-1.1-0.4-1.3-1.1
			c-0.2-0.6-0.2-1.2-0.1-1.8c0.1-0.5,0.3-0.8,0.7-1.1c0.3-0.2,0.7-0.3,1.1-0.3c0.4,0,0.8,0.1,1,0.4c0.3,0.3,0.4,0.6,0.5,1
			C44.3,53.1,44.3,53.4,44.3,53.8z M42.5,53.2c0.3,0,0.6,0,0.8,0c0.1,0,0.1,0,0.1-0.1s0-0.3-0.1-0.4c-0.2-0.6-0.8-0.7-1.3-0.5
			c-0.3,0.2-0.6,0.6-0.5,0.9c0,0.1,0.1,0.1,0.1,0.1C42,53.2,42.3,53.2,42.5,53.2z"/>
		<path fill="#E5252B" d="M57.7,55.4C57.7,55.4,57.7,55.5,57.7,55.4c0,0.2,0,0.2-0.1,0.2c-0.4,0-0.7-0.1-1-0.2
			c-0.4-0.2-0.6-0.5-0.7-1c0-0.2,0-0.3,0-0.5c0-1.2,0-2.3,0-3.5c0-0.1,0-0.2,0-0.3s0-0.1,0-0.2c0-0.1,0-0.1,0.1-0.1
			c0.2,0,0.4,0,0.7,0c0,0.1,0,0.2,0,0.2c0,0.1,0,0.1,0,0.2c0,1,0,2.1,0,3.1c0,0.3,0,0.6,0,0.8c0,0.3,0.1,0.4,0.4,0.5
			c0.2,0.1,0.4,0.1,0.6,0.1c0.1,0,0.1,0,0.1,0.1C57.7,55.1,57.7,55.2,57.7,55.4z"/>
		<path fill="#EDF1F4" d="M44.3,53.8c0-0.3,0-0.7-0.1-1c-0.1-0.4-0.2-0.7-0.5-1s-0.6-0.4-1-0.4s-0.8,0-1.1,0.3
			c-0.4,0.3-0.6,0.6-0.7,1.1c-0.1,0.6-0.1,1.2,0.1,1.8c0.2,0.6,0.7,1,1.3,1.1c0.4,0.1,0.9,0,1.3-0.1c0.1-0.1,0.2-0.1,0.3-0.2
			c0,0.2-0.2,0.2-0.3,0.3c-0.2,0.1-0.4,0.1-0.6,0.2c-0.5,0-0.9,0-1.3-0.2c-0.4-0.2-0.7-0.5-0.8-0.9c-0.2-0.6-0.3-1.2-0.1-1.8
			c0.1-0.4,0.3-0.8,0.7-1.1c0.3-0.2,0.6-0.3,0.9-0.3c0.3,0,0.6,0,0.9,0.1c0.3,0.1,0.5,0.3,0.7,0.5c0.2,0.3,0.3,0.6,0.4,0.9
			c0,0.1,0.1,0.1,0.1,0.2c0,0.1,0,0.2,0,0.3C44.4,53.5,44.3,53.6,44.3,53.8z"/>
		<path fill="#EDF1F4" d="M43.6,54.6c-0.4,0.4-0.9,0.4-1.3,0.2c-0.4-0.1-0.5-0.5-0.6-0.8c0-0.3,0-0.2,0.2-0.2c0.8,0,1.5,0,2.3,0h0.1
			c-0.6,0.1-1.2,0.1-1.7,0.1c-0.1,0-0.2,0-0.3,0c-0.3,0.1-0.4,0.4-0.2,0.6c0.2,0.2,0.5,0.3,0.8,0.2C43.1,54.7,43.3,54.7,43.6,54.6z"
			/>
		<path fill="#EDF1F4" d="M44.1,55.2C44.1,55.1,44.1,55.1,44.1,55.2C44.1,55.1,44.1,55.2,44.1,55.2z"/>
		<path fill="#EDF1F4" d="M44,55.2L44,55.2L44,55.2z"/>
		<path fill="#EDF1F4" d="M44,55.2C44,55.2,44.1,55.2,44,55.2C44.1,55.2,44.1,55.2,44,55.2z"/>
		<path fill="#EDF1F4" d="M44,55.2L44,55.2L44,55.2z"/>
		<path fill="#EDF1F4" d="M43.9,55.3C43.9,55.3,44,55.3,43.9,55.3L43.9,55.3z"/>
		<path fill="#EDF1F4" d="M43.9,55.3L43.9,55.3L43.9,55.3z"/>
		<path fill="#EDF1F4" d="M57.7,55.4c0-0.2,0-0.3,0-0.5c0-0.1,0-0.1-0.1-0.1c-0.2,0-0.4,0-0.6-0.1c-0.3-0.1-0.4-0.3-0.4-0.5
			c0-0.3,0-0.6,0-0.8c0-1,0-2.1,0-3.1c0-0.1,0-0.1,0-0.2c0.1,0.2,0.1,0.4,0.1,0.6c0,1,0,2,0,3c0,0.5,0.3,0.9,0.8,1
			c0.1,0,0.1,0.1,0.2,0.1c0.1,0,0.2,0,0.2-0.1c0-0.2,0-0.5,0-0.7c0-0.6,0-1.1,0.2-1.7c0.2-0.4,0.6-0.7,1-0.8
			c0.6-0.1,1.1-0.1,1.6,0.2c0.2,0.1,0.4,0.4,0.6,0.6c0.1,0.1,0.1,0.2,0.2,0.3s0.1,0.1,0.2,0c0.1-0.1,0.1-0.3,0.1-0.4
			c0-0.1,0-0.2,0.1-0.3c0,0.3,0,0.6,0,0.9c0,0.8,0,1.7,0,2.5c0,0.1,0,0.1,0,0.2c-0.1-0.2-0.1-0.4-0.2-0.6l0,0c0-0.1-0.1-0.2-0.2-0.2
			c-0.1,0-0.2,0.1-0.2,0.1c-0.1,0.1-0.2,0.3-0.3,0.4c-0.3,0.3-0.6,0.5-1,0.6c-0.5,0.1-0.9,0-1.3-0.2c-0.1-0.1-0.2-0.2-0.3-0.2
			c-0.1-0.1-0.2-0.2-0.4-0.2c-0.1,0-0.2,0-0.2,0C57.7,55.2,57.7,55.3,57.7,55.4z M57.9,53.4c0,0.5,0,0.8,0.1,1.2
			c0.2,0.5,0.5,0.9,1.1,1c0.3,0.1,0.5,0.1,0.8,0c0.6-0.1,1.1-0.4,1.3-1c0.2-0.7,0.2-1.4,0-2.1c-0.1-0.5-0.4-0.8-0.9-1
			c-0.3-0.1-0.6-0.1-0.8-0.1c-0.6,0-1.1,0.3-1.4,0.9C57.9,52.7,57.9,53.1,57.9,53.4z"/>
		<path fill="#EDF1F4" d="M54.3,36.9c0,0.1,0,0.1-0.1,0.1c-0.1,0.1-0.1,0.1-0.2,0.2c-0.3,0.2-0.4,0.6-0.4,0.9c0,0.1,0,0.3,0,0.4
			c0,0.2,0.1,0.4,0.3,0.6l0.1,0.1c-0.2-0.1-0.5-0.1-0.7,0c0.1-0.6,0.3-1.3,0.3-1.9c-0.3,0.1-0.7,0.1-1,0.1c-0.6,0-1.1,0-1.7,0
			c-1.6,0-3.3,0-4.9,0c-0.3,0-0.4,0.1-0.4,0.4c0,0.4,0.1,0.7,0.2,1.1c0.2,0.8,0.6,1.5,1.3,2c0.8,0.6,1.7,0.7,2.6,0.6
			c0.7-0.1,1.3-0.4,1.9-0.8c0.5-0.4,0.9-0.8,1.4-1.2c0.1-0.1,0.3-0.2,0.4-0.3c-0.4,1.4-1,2.7-1.9,3.8c0,0,0,0,0.1,0
			c0.6-0.2,1.1-0.6,1.6-1c0.7-0.6,1.2-1.3,1.3-2.2c0.1,0.2,0,0.4,0,0.6c-0.2,0.5-0.4,0.9-0.8,1.2c-0.3,0.4-0.7,0.7-1.1,0.9
			c-0.3,0.2-0.5,0.3-0.8,0.4c-0.2,0.1-0.3,0.2-0.4,0.3c-0.2,0.2-0.4,0.5-0.7,0.7c-0.5,0.5-1,0.9-1.6,1.3c-0.4,0.3-0.9,0.5-1.3,0.7
			c-0.4,0.2-0.9,0.3-1.3,0.5c-0.4,0.1-0.7,0.2-1.1,0.2c-0.3,0.1-0.7,0.1-1,0.1s-0.6,0-1,0s-0.8-0.1-1.2-0.1
			c-0.4-0.1-0.8-0.1-1.3-0.3c-0.4-0.1-0.8-0.3-1.2-0.4c-0.5-0.2-0.9-0.4-1.3-0.7c-0.4-0.2-0.8-0.5-1.1-0.8c-0.4-0.3-0.8-0.7-1.2-1.1
			c-0.4-0.4-0.7-0.9-1-1.3c-0.2-0.3-0.4-0.7-0.6-1.1c-0.2-0.5-0.4-0.9-0.5-1.4c-0.1-0.5-0.3-1-0.3-1.6c-0.1-0.4-0.1-0.9-0.1-1.3
			c0-1.1,0.2-2.1,0.5-3.2c0.2-0.5,0.4-1,0.7-1.5c0.3-0.5,0.5-0.9,0.8-1.3c0.4-0.5,0.8-1,1.3-1.4c0.4-0.4,0.9-0.8,1.4-1.1
			c0.8-0.5,1.6-0.8,2.5-1.1c0.6-0.2,1.2-0.3,1.8-0.4c0.5-0.1,1-0.1,1.5,0c0.9,0,1.8,0.2,2.7,0.5c0.5,0.2,1,0.4,1.5,0.6
			c0.6,0.3,1.1,0.6,1.7,1c0.5,0.4,0.9,0.8,1.4,1.3c0.3,0.3,0.6,0.6,0.9,0.8c0.3,0.2,0.6,0.4,0.9,0.6c0.3,0.2,0.5,0.5,0.7,0.8
			c0.1,0.1,0.2,0.3,0.3,0.4c0.2,0.3,0.4,0.7,0.5,1c0.1,0.4,0.2,0.7,0.3,1.1c0.1,0.4,0.1,0.8,0,1.3c0,0.2-0.1,0.3-0.2,0.5
			c0,0,0,0.1-0.1,0.1l0,0c0.1-0.2,0.2-0.5,0.2-0.8c0-0.4,0-0.8-0.1-1.2c-0.1-0.7-0.4-1.4-0.8-2.1c-0.4-0.6-1-1.1-1.6-1.6
			c-0.2-0.1-0.5-0.3-0.7-0.4c1.5,2,2.1,4.1,2,6.5C53.8,37.1,54,37,54.3,36.9L54.3,36.9z M51.5,33.9L51.5,33.9c0-0.1,0-0.1,0-0.2
			c-0.5-1-1.2-1.5-2.3-1.7c-0.7-0.1-1.4,0-2.1,0.4c-0.3,0.2-0.6,0.4-0.7,0.7l0,0c0,0-0.1,0-0.1,0.1l-0.1,0.1
			c-0.4,0.6-0.6,1.4-0.7,2.1c0,0.1,0.1,0.3,0.3,0.3c0.1,0,0.2,0,0.2,0c1.8,0,3.6,0,5.4,0c0.1,0,0.1,0,0.2,0c0.2,0,0.3-0.2,0.3-0.3
			c0-0.5-0.1-0.9-0.3-1.4C51.6,34,51.6,34,51.5,33.9L51.5,33.9L51.5,33.9z M48.5,30.1L48.5,30.1C48.6,30.1,48.6,30.1,48.5,30.1
			c0.1,0,0.2,0,0.3,0h0.1c0.2,0,0.5,0,0.7,0s0.4,0,0.5,0.1c0,0,0,0,0.1,0c0.4,0.1,0.8,0.2,1.2,0.4l0,0c-0.4-0.5-0.9-1-1.4-1.5
			c-0.9-0.8-1.9-1.3-3-1.8c-1.1-0.4-2.2-0.6-3.3-0.6c-0.7,0-1.3,0.1-1.9,0.2c-1.2,0.2-2.3,0.6-3.3,1.3c-0.9,0.5-1.7,1.2-2.4,2
			c-0.3,0.3-0.5,0.6-0.7,1c-0.5,0.7-0.9,1.5-1.2,2.3c-0.1,0.4-0.3,0.9-0.4,1.3c0,0.1-0.1,0.1,0,0.2l0,0l0,0c0,0,0,0,0,0.1
			c-0.1,0.5-0.1,1-0.1,1.6c0,0.5,0,0.9,0.1,1.4c0.1,0.6,0.2,1.2,0.4,1.7c0.1,0.3,0.2,0.7,0.4,1l0,0l0,0v0.1c0.6,1.3,1.5,2.5,2.6,3.5
			c1.1,0.9,2.3,1.6,3.7,2c0.6,0.2,1.3,0.3,2,0.4c0.7,0.1,1.5,0,2.2-0.1s1.3-0.3,2-0.5c1.4-0.5,2.6-1.3,3.6-2.3
			c0.3-0.3,0.5-0.5,0.8-0.8c-0.3,0.1-0.6,0.2-0.9,0.2c-1,0.1-2,0.1-2.9,0c-1-0.2-1.9-0.5-2.8-1.2c-0.4-0.3-0.8-0.7-1.1-1.2l0,0
			c-0.7-1.1-1-2.3-1.1-3.5c0-0.3,0-0.6,0-0.9c0-0.1,0-0.1,0-0.2c0-0.3,0-0.6,0.1-0.9c0.1-0.9,0.4-1.7,0.8-2.4l0.1-0.1c0,0,0,0,0-0.1
			l0.1-0.1c0.5-0.7,1.1-1.3,1.9-1.7c0.6-0.3,1.2-0.5,1.9-0.7h0.1c0.1,0,0.2,0,0.3,0l0,0c0,0,0,0,0.1,0l0,0c0.1,0,0.1,0,0.2,0l0,0
			c0.1,0,0.1,0,0.2,0c0.1,0,0.2,0,0.2,0C48.4,30.1,48.4,30.1,48.5,30.1L48.5,30.1z"/>
		<path fill="#E5252B" d="M53.3,39.2c0.2-0.1,0.5-0.1,0.7,0s0.3,0.2,0.4,0.4c0,0.1,0,0.1,0,0.1l0,0c-0.1,1-0.6,1.6-1.3,2.2
			c-0.5,0.4-1,0.8-1.6,1c0,0,0,0-0.1,0C52.3,41.8,52.9,40.6,53.3,39.2L53.3,39.2z"/>
		<path fill="#EDF1F4" d="M54.5,36.7L54.5,36.7L54.5,36.7L54.5,36.7L54.5,36.7z"/>
		<path fill="#EDF1F4" d="M54.4,39.7L54.4,39.7L54.4,39.7z"/>
		<path fill="#EDF1F4" d="M54.4,36.8L54.4,36.8L54.4,36.8L54.4,36.8L54.4,36.8z"/>
		<path fill="#EDF1F4" d="M54.4,36.8C54.3,36.8,54.3,36.9,54.4,36.8L54.4,36.8C54.3,36.8,54.3,36.8,54.4,36.8L54.4,36.8z"/>
		<path fill="#EDF1F4" d="M54.3,36.9L54.3,36.9L54.3,36.9L54.3,36.9L54.3,36.9z"/>
		<path fill="#EDF1F4" d="M54.4,36.7C54.4,36.7,54.4,36.8,54.4,36.7L54.4,36.7C54.4,36.8,54.4,36.7,54.4,36.7L54.4,36.7z"/>
		<path fill="#EDF1F4" d="M54.3,36.9L54.3,36.9L54.3,36.9L54.3,36.9L54.3,36.9z"/>
		<path fill="#EDF1F4" d="M54.4,36.8L54.4,36.8L54.4,36.8L54.4,36.8L54.4,36.8z"/>
		<path fill="#97B8CF" d="M27.1,53.5c0,0.2,0,0.3,0,0.5c-0.1,0.4-0.5,0.7-0.9,0.7c-0.1,0-0.2,0-0.3,0c-0.3,0-0.4-0.2-0.5-0.5
			c-0.1-0.4-0.1-0.8,0.1-1.2c0.1-0.4,0.5-0.6,0.8-0.6c0.4,0,0.7,0.3,0.8,0.6c0,0.1,0,0.1,0.1,0.2C27.1,53.3,27.1,53.4,27.1,53.5z
			 M27,53.5c0-0.3,0-0.6-0.2-0.8c-0.3-0.3-0.8-0.3-1.1,0.2c-0.2,0.4-0.2,0.8-0.1,1.2c0,0.2,0.2,0.3,0.3,0.3c0.1,0,0.2,0,0.3,0
			c0.4,0,0.7-0.2,0.8-0.6C26.9,53.8,27,53.6,27,53.5z"/>
		<path fill="#97B8CF" d="M36.5,53.1c-0.2,0-0.3,0-0.5-0.1c-0.1-0.1-0.1-0.3-0.1-0.4c0.1-0.2,0.3-0.3,0.5-0.3s0.4,0.1,0.5,0.3
			c0.2,0.3,0,0.5-0.3,0.6C36.6,53.1,36.6,53.1,36.5,53.1z M36.5,52.9c0.1,0,0.1,0,0.2,0c0.1,0,0.2-0.2,0.1-0.3
			c-0.1-0.1-0.2-0.2-0.3-0.2c-0.1,0-0.2,0-0.3,0.2c0,0.1,0,0.1,0,0.2C36.3,52.9,36.4,52.9,36.5,52.9z"/>
		<path fill="#EDF1F4" d="M29.2,53.7c0-0.2,0-0.3,0-0.5v-0.1c0-0.4,0.1-0.7,0.5-0.8c0.3-0.1,0.6-0.1,0.9,0c0.2,0.1,0.4,0.3,0.4,0.5
			c0.1,0.5,0.1,0.9,0,1.4c-0.1,0.3-0.3,0.5-0.6,0.5c-0.1,0-0.2,0-0.4,0c-0.6,0-0.9-0.3-0.9-0.9l0,0C29.3,53.9,29.3,53.8,29.2,53.7
			C29.3,53.8,29.3,53.8,29.2,53.7C29.3,53.8,29.3,53.8,29.2,53.7C29.3,53.8,29.3,53.8,29.2,53.7z M30.2,52.4c-0.2,0-0.4,0.1-0.5,0.2
			c-0.2,0.2-0.3,0.4-0.3,0.7c0,0.4,0,0.7,0.2,1s0.4,0.4,0.7,0.4c0.4,0,0.6-0.3,0.7-0.6s0.1-0.6,0-0.9C31,52.7,30.7,52.4,30.2,52.4z"
			/>
		<path fill="#97B8CF" d="M29.3,53.2L29.3,53.2C29.2,53.2,29.2,53.2,29.3,53.2z"/>
		<path fill="#97B8CF" d="M29.3,53.8C29.3,53.8,29.3,53.9,29.3,53.8C29.3,53.9,29.3,53.9,29.3,53.8C29.3,53.9,29.3,53.9,29.3,53.8
			L29.3,53.8z"/>
		<path fill="#97B8CF" d="M29.2,53.7C29.3,53.8,29.3,53.8,29.2,53.7C29.3,53.8,29.3,53.8,29.2,53.7C29.3,53.8,29.3,53.8,29.2,53.7z"
			/>
		<path fill="#97B8CF" d="M52.6,53.7c0-0.3,0-0.6,0.1-0.8c0.1-0.3,0.3-0.5,0.6-0.5c0.3-0.1,0.6,0,0.8,0.3c0.1,0.2,0.2,0.4,0.2,0.6
			c0,0.2,0,0.4,0,0.6c-0.1,0.5-0.5,0.8-1,0.8c-0.1,0-0.2,0-0.3,0c-0.3-0.1-0.5-0.3-0.5-0.6C52.6,54,52.6,53.8,52.6,53.7z M52.7,53.8
			c0,0.1,0,0.1,0,0.2c0,0.3,0.2,0.5,0.5,0.6c0.1,0,0.2,0,0.3,0c0.2,0,0.4-0.1,0.5-0.3c0.2-0.4,0.2-0.8,0.1-1.2
			c-0.1-0.3-0.4-0.4-0.7-0.4s-0.5,0.2-0.7,0.5C52.7,53.3,52.7,53.5,52.7,53.8z"/>
		<path fill="#EDF1F4" d="M42.5,53.2c-0.3,0-0.6,0-0.8,0c0,0-0.1,0-0.1-0.1c0-0.4,0.2-0.8,0.5-0.9c0.4-0.2,1-0.1,1.3,0.5
			c0,0.1,0.1,0.3,0.1,0.4c0,0.1,0,0.1-0.1,0.1C43.1,53.2,42.8,53.2,42.5,53.2z M42.5,53.1c0.1,0,0.2,0,0.2,0c0.1,0,0.3-0.1,0.3-0.2
			c0-0.2,0-0.3-0.2-0.4c-0.3-0.2-0.5-0.1-0.8,0.1c-0.2,0.1-0.2,0.4,0,0.5C42.3,53.1,42.4,53.1,42.5,53.1z"/>
		<path fill="#E5252B" d="M57.9,53.4c0-0.2,0-0.6,0.2-1c0.3-0.6,0.7-0.9,1.4-0.9c0.3,0,0.6,0,0.9,0.1c0.5,0.2,0.8,0.5,0.9,1
			c0.2,0.7,0.2,1.4,0,2.1c-0.2,0.6-0.7,0.9-1.3,1c-0.3,0-0.5,0-0.8,0c-0.6-0.1-0.9-0.5-1.1-1C57.9,54.2,57.9,53.9,57.9,53.4z
			 M60.6,53.5c0-0.2,0-0.4-0.1-0.7s-0.3-0.5-0.6-0.6c-0.2-0.1-0.4-0.1-0.6,0c-0.3,0.1-0.6,0.3-0.6,0.6c-0.1,0.4-0.1,0.9,0,1.3
			c0.1,0.3,0.2,0.5,0.5,0.6c0.2,0.1,0.4,0.1,0.7,0c0.4-0.1,0.6-0.3,0.7-0.6C60.6,54,60.6,53.7,60.6,53.5z"/>
		<path fill="#1D2A4D" d="M34.5,40.7C34.5,40.7,34.4,40.7,34.5,40.7L34.5,40.7c0.1,0.1,0.2,0.1,0.3,0.1h0.1c2.7,0,5.4,0,8.1,0
			c0.1,0,0.1,0,0.2,0c0.1,0,0.1-0.1,0.2,0c0.1,0,0.1,0.1,0.1,0.1v-0.1c0.3,0.4,0.7,0.8,1.1,1.2c0.8,0.6,1.7,1,2.8,1.2
			c1,0.2,2,0.2,2.9,0c0.3,0,0.6-0.1,0.9-0.2c-0.3,0.3-0.5,0.6-0.8,0.8c-1,1-2.2,1.8-3.6,2.3c-0.6,0.2-1.3,0.4-2,0.5
			s-1.5,0.1-2.2,0.1s-1.3-0.2-2-0.4c-1.4-0.4-2.6-1-3.7-2c-1.1-1-2-2.1-2.6-3.5C34.5,40.9,34.5,40.8,34.5,40.7
			C34.5,40.8,34.5,40.7,34.5,40.7z"/>
		<path fill="#3598C5" d="M35.3,31.1c0.2-0.3,0.5-0.7,0.7-1c0.7-0.8,1.5-1.4,2.4-2c1-0.6,2.2-1,3.3-1.3c0.6-0.1,1.3-0.2,1.9-0.2
			c1.1,0,2.2,0.2,3.3,0.6s2.1,1,3,1.8c0.5,0.4,1,0.9,1.4,1.5l0,0c-0.4-0.2-0.8-0.3-1.2-0.4c0,0,0,0-0.1,0c-0.3-0.3-0.6-0.5-0.9-0.8
			c-0.5-0.4-1-0.7-1.5-1c-0.7-0.4-1.5-0.6-2.2-0.8c-0.4-0.1-0.9-0.2-1.3-0.2c-0.5,0-0.9,0-1.4,0c-0.4,0-0.8,0.1-1.3,0.2
			c-0.9,0.2-1.7,0.5-2.5,1c-0.1,0-0.2,0.1-0.2,0.1s0,0.1-0.1,0.1c0,0-0.1,0-0.1,0.1l0,0c0.3,0.1,0.5,0.1,0.8,0.1
			c0.4,0,0.8,0,1.2,0.1c0.4,0,0.7,0.1,1.1,0.1c0.1,0,0.3,0,0.4,0c0.4,0.1,0.7,0.1,1.1,0.1c0.3,0,0.5,0,0.8,0.1
			c0.5,0.1,0.9,0.1,1.4,0.1c0.4,0,0.8,0.2,1.2,0.1c0,0,0,0,0.1,0c0.3,0.1,0.6,0.1,0.8,0.1s0.3,0.1,0.5,0.1l0,0
			c0,0.1,0.1,0.1,0.2,0.1c0.1,0,0.2,0,0.3,0.1l0,0h-0.1c0,0,0,0-0.1,0s-0.2,0-0.2,0c-0.1,0-0.1,0-0.2,0l0,0c-0.1,0-0.1,0-0.2,0l0,0
			c0,0,0,0-0.1,0l0,0c-0.1,0-0.2,0-0.3,0h-0.1c-0.7,0.1-1.3,0.4-1.9,0.7c-0.8,0.4-1.4,1-1.9,1.7c0,0,0,0.1-0.1,0.1
			c-0.1-0.1-0.1,0-0.1,0.1c0,0.1-0.1,0.2-0.2,0.1c-0.1,0-0.2,0-0.4,0c-0.1,0-0.2,0-0.2,0c-0.1-0.1-0.2-0.1-0.3,0
			c-0.2,0.1-0.4-0.1-0.6,0l0,0c-0.1-0.1-0.2-0.1-0.2,0c-0.2,0.1-0.3,0-0.5,0c-0.1,0-0.3,0-0.4,0c-0.1,0-0.1,0-0.2,0
			c-0.1,0-0.1,0-0.2,0c-0.2,0-0.3,0.1-0.4-0.1h-0.1c-0.2,0-0.3,0-0.5,0c0,0,0,0-0.1,0c-0.1-0.1-0.1-0.1-0.2-0.1
			c-0.3,0-0.6-0.1-0.9,0h-0.1c-0.1-0.1-0.2-0.1-0.3,0h-0.1c-0.1-0.1-0.3,0-0.4-0.1h-0.1c-0.1,0-0.3,0-0.4,0c-0.1,0-0.2,0-0.3,0
			c-0.1,0-0.1,0-0.2,0c-0.1,0-0.2-0.1-0.3-0.1c-0.1,0-0.1,0-0.1-0.1c0-0.1,0-0.1,0-0.2c0.1-0.2,0.3-0.4,0.4-0.7c0,0,0.1-0.1,0-0.1
			c0,0-0.1-0.1-0.1,0C35.6,31.1,35.4,31.1,35.3,31.1C35.5,31,35.4,31,35.3,31.1C35.4,31.1,35.4,31.1,35.3,31.1z M38.4,29
			C38.5,29,38.5,29,38.4,29C38.5,29,38.5,29,38.4,29z"/>
		<path fill="#026298" d="M35.3,31.1C35.4,31.1,35.4,31.1,35.3,31.1c0.1-0.1,0.1,0,0.2,0c0.1,0.1,0.3,0.1,0.4,0.1c0.1,0,0.1,0,0.1,0
			v0.1c-0.1,0.2-0.3,0.4-0.4,0.7c0,0.1,0,0.1,0,0.2c0,0.1,0.1,0.1,0.1,0.1c0.1,0,0.2,0.1,0.3,0.1s0.1,0.1,0.2,0c0.1,0,0.2,0,0.3,0
			s0.3,0,0.4,0H37c0.1,0,0.2,0,0.4,0h0.1c0.1-0.1,0.2,0,0.3,0h0.1c0.3,0,0.6,0,0.9,0c0.1,0,0.1,0,0.2,0.1c0,0,0,0,0.1,0
			c0.2-0.1,0.3,0,0.5,0h0.1c0.1,0.1,0.3,0.1,0.4,0.1s0.1,0,0.2,0c0.1,0,0.1,0,0.2,0c0.1,0,0.3,0,0.4,0c0.2,0,0.3,0.1,0.5,0
			c0.1,0,0.2-0.1,0.2,0l0,0c0.2,0,0.4,0.1,0.6,0c0.1,0,0.2,0,0.3,0c0.1,0.1,0.2,0,0.2,0c0.1,0,0.2,0,0.4,0c0.1,0,0.2,0,0.2-0.1
			c0-0.1,0-0.1,0.1-0.1c0,0,0,0,0,0.1c-0.1,0-0.1,0-0.1,0.1c-0.4,0.8-0.7,1.6-0.8,2.4c0,0.3-0.1,0.6-0.1,0.9c0,0.1,0,0.1,0,0.2
			c-0.1,0-0.1,0-0.2,0C41.8,36,41.5,36,41.1,36c-0.6,0-1.1,0-1.7,0.1c-0.6,0.1-1.2,0.3-1.8,0.6c-0.4,0.2-0.7,0.4-1.1,0.7
			c-0.1,0.1-0.2,0.1-0.3,0.1c-0.5-0.1-1-0.1-1.4-0.1c-0.1,0-0.1,0-0.2,0c-0.2,0-0.3-0.1-0.3-0.3c0-0.7,0-1.4,0.1-2.1
			c0-0.1,0-0.2,0-0.3c0,0,0-0.1-0.1-0.1c-0.1,0.1-0.2,0-0.4,0c-0.1,0-0.2,0-0.2-0.1c0.1-0.5,0.2-0.9,0.4-1.3
			C34.4,32.6,34.8,31.8,35.3,31.1z M35.4,32.5C35.3,32.5,35.3,32.5,35.4,32.5C35.3,32.5,35.3,32.5,35.4,32.5L35.4,32.5L35.4,32.5z
			 M35.5,32.2L35.5,32.2c0,0.1,0,0.1,0,0.1C35.6,32.3,35.6,32.2,35.5,32.2C35.6,32.2,35.6,32.2,35.5,32.2z M35.6,32.3
			C35.6,32.4,35.6,32.4,35.6,32.3C35.6,32.4,35.6,32.4,35.6,32.3L35.6,32.3L35.6,32.3z M35.5,32.3L35.5,32.3
			C35.4,32.3,35.4,32.3,35.5,32.3C35.4,32.4,35.4,32.4,35.5,32.3C35.5,32.4,35.5,32.4,35.5,32.3z M43.1,33.2L43.1,33.2
			C43.1,33.2,43.1,33.1,43.1,33.2C43.1,33.1,43.1,33.1,43.1,33.2C43.1,33.1,43.1,33.1,43.1,33.2z"/>
		<path fill="#1E3C73" d="M33.8,34.7c0,0.1,0.1,0.2,0.2,0.1c0.1,0,0.2,0.1,0.4,0c0,0,0.1,0,0.1,0.1c0,0.1,0,0.2,0,0.3
			c-0.1,0.7-0.1,1.4-0.1,2.1c0,0.2,0.1,0.3,0.3,0.3c0.1,0,0.1,0,0.2,0c0.5,0,1,0,1.4,0.1c0.1,0,0.2,0,0.3-0.1
			c0.3-0.3,0.7-0.5,1.1-0.7c0.6-0.3,1.1-0.5,1.8-0.6c0.6-0.1,1.1-0.1,1.7-0.1c0.4,0,0.7,0,1.1,0.1c0.1,0,0.1,0,0.2,0
			c0,0.3,0,0.6,0,0.9c0.1,1.3,0.4,2.5,1.1,3.5l0,0v0.1c0-0.1-0.1-0.1-0.1-0.1c-0.1,0-0.1,0-0.2,0c-0.1,0-0.1,0-0.2,0
			c-2.7,0-5.4,0-8.1,0h-0.1c-0.1,0-0.2,0.1-0.2-0.1l0,0c-0.2-0.3-0.3-0.6-0.4-1c-0.2-0.6-0.3-1.1-0.4-1.7c-0.1-0.5-0.1-0.9-0.1-1.4
			s0-1.1,0.1-1.6C33.9,34.9,33.9,34.9,33.8,34.7L33.8,34.7L33.8,34.7L33.8,34.7C33.7,34.9,33.8,34.8,33.8,34.7z"/>
		<path fill="#1E3C73" d="M53.3,39.2c-0.2,0.1-0.3,0.2-0.4,0.3c-0.4,0.4-0.9,0.8-1.4,1.2c-0.6,0.4-1.2,0.7-1.9,0.8
			c-1,0.1-1.8,0-2.6-0.6c-0.7-0.5-1.1-1.2-1.3-2c-0.1-0.4-0.2-0.7-0.2-1.1c0-0.3,0.1-0.4,0.4-0.4c1.6,0,3.3,0,4.9,0
			c0.6,0,1.1,0,1.7,0c0.3,0,0.7-0.1,1-0.1C53.5,37.9,53.4,38.5,53.3,39.2L53.3,39.2z"/>
		<path fill="#97B8CF" d="M48.6,30.1C48.5,30,48.4,30,48.3,30s-0.1,0-0.2-0.1l0,0c-0.2,0-0.3-0.1-0.5-0.1c-0.3,0-0.6,0-0.8-0.1
			c0,0,0,0-0.1,0c-0.4,0.1-0.8-0.1-1.2-0.1c-0.5,0-0.9-0.1-1.4-0.1c-0.3,0-0.5-0.1-0.8-0.1c-0.4,0-0.7,0-1.1-0.1c-0.1,0-0.3,0-0.4,0
			c-0.4,0-0.7-0.1-1.1-0.1c-0.4,0-0.8,0-1.2-0.1c-0.3,0-0.5-0.1-0.8-0.1l0,0l0.1-0.1c0.1,0,0.1,0,0.1-0.1s0.1-0.1,0.2-0.1
			c0.8-0.5,1.6-0.8,2.5-1c0.4-0.1,0.8-0.2,1.3-0.2s0.9,0,1.4,0c0.4,0,0.9,0.1,1.3,0.2c0.8,0.2,1.5,0.4,2.2,0.8
			c0.5,0.3,1.1,0.6,1.5,1c0.3,0.2,0.6,0.5,0.9,0.8c-0.2,0-0.4,0-0.5-0.1c-0.2,0-0.5,0-0.7,0h-0.1c0-0.1,0-0.1-0.1-0.1
			C48.7,30,48.6,30,48.6,30.1L48.6,30.1z"/>
		<path fill="#026298" d="M51.6,34.1c0.2,0.4,0.2,0.9,0.3,1.4c0,0.2-0.1,0.3-0.3,0.3c-0.1,0-0.1,0-0.2,0c-1.8,0-3.6,0-5.4,0
			c-0.1,0-0.2,0-0.2,0c-0.2,0-0.3-0.2-0.3-0.3c0.1-0.8,0.3-1.5,0.7-2.1l0.1-0.1c0,0.1,0.1,0.1,0.2,0.1c0.2,0,0.3,0,0.5,0.1
			c0.1,0,0.1,0,0.2,0c0.3-0.1,0.6,0,0.9,0.1c0.3,0,0.7,0.1,1,0.1c0.2,0,0.5,0.1,0.7,0.1c0.4,0,0.8,0.1,1.2,0.1c0.1,0,0.1,0,0.2,0
			c0.1,0,0.1,0,0.2,0.1c0.1,0.1,0.1,0.1,0.1,0.2C51.5,34.2,51.5,34.2,51.6,34.1z M51.2,33.9L51.2,33.9L51.2,33.9L51.2,33.9
			L51.2,33.9z"/>
		<path fill="#E5252B" d="M54.4,36.8L54.4,36.8L54.4,36.8C54.3,36.8,54.3,36.8,54.4,36.8C54.3,36.9,54.3,36.9,54.4,36.8L54.4,36.8
			c-0.3,0.2-0.5,0.3-0.8,0.4c0.1-2.4-0.6-4.6-2-6.5c0.3,0.1,0.5,0.3,0.7,0.4c0.6,0.4,1.2,0.9,1.6,1.6c0.4,0.6,0.7,1.3,0.8,2.1
			c0.1,0.4,0.1,0.8,0.1,1.2c0,0.3-0.1,0.5-0.2,0.8C54.5,36.7,54.4,36.7,54.4,36.8C54.4,36.7,54.4,36.8,54.4,36.8z"/>
		<path fill="#3598C5" d="M51.6,34.1C51.6,34.2,51.5,34.2,51.6,34.1c-0.1-0.1-0.1-0.1-0.2-0.2c-0.1-0.1-0.1-0.1-0.2-0.1
			c-0.1,0-0.1,0-0.2,0c-0.4,0-0.8-0.1-1.2-0.1c-0.2,0-0.5-0.1-0.7-0.1c-0.3,0-0.7,0-1-0.1c-0.3,0-0.6-0.1-0.9-0.1c0,0-0.1,0-0.2,0
			c-0.2,0-0.3-0.1-0.5-0.1c-0.1,0-0.2,0-0.2-0.1c0,0,0-0.1,0.1-0.1l0,0c0.2-0.3,0.5-0.5,0.7-0.7c0.6-0.4,1.3-0.5,2.1-0.4
			c1.1,0.1,1.8,0.7,2.3,1.7v0.1l0,0l0,0l0,0c0,0,0,0,0,0.1C51.6,34,51.6,34,51.6,34.1z"/>
		<path fill="#3598C5" d="M48.6,30.1c0-0.1,0.1-0.1,0.2-0.1c0.1,0,0.1,0.1,0.1,0.1C48.8,30.1,48.7,30.1,48.6,30.1z"/>
		<path fill="#97B8CF" d="M48.2,30.1c0.1,0,0.2,0,0.2,0C48.3,30.1,48.2,30.1,48.2,30.1z"/>
		<path fill="#3598C5" d="M43.4,32.9C43.4,32.9,43.4,32.8,43.4,32.9L43.4,32.9z"/>
		<path fill="#97B8CF" d="M47.3,30.2L47.3,30.2L47.3,30.2z"/>
		<path fill="#97B8CF" d="M48.5,30.1L48.5,30.1L48.5,30.1z"/>
		<path fill="#026298" d="M33.8,35L33.8,35C33.7,35,33.7,35,33.8,35z"/>
		<path fill="#026298" d="M51.5,34C51.5,34,51.5,33.9,51.5,34C51.5,33.9,51.5,33.9,51.5,34z"/>
		<path fill="#026298" d="M46.4,33.1C46.4,33.1,46.4,33.2,46.4,33.1C46.4,33.2,46.4,33.1,46.4,33.1z"/>
		<path fill="#97B8CF" d="M47.7,30.2C47.8,30.2,47.8,30.2,47.7,30.2C47.8,30.2,47.8,30.2,47.7,30.2z"/>
		<path fill="#97B8CF" d="M47.7,30.2L47.7,30.2L47.7,30.2z"/>
		<path fill="#97B8CF" d="M47.9,30.1C48,30.1,48,30.1,47.9,30.1C48,30.1,48,30.1,47.9,30.1z"/>
		<path fill="#1E3C73" d="M34.5,40.7C34.5,40.7,34.5,40.8,34.5,40.7C34.5,40.8,34.5,40.8,34.5,40.7z"/>
		<path fill="#026298" d="M51.5,33.9L51.5,33.9L51.5,33.9L51.5,33.9z"/>
		<path fill="#026298" d="M33.8,34.9L33.8,34.9L33.8,34.9L33.8,34.9z"/>
		<path fill="#3598C5" d="M27,53.5c0,0.1,0,0.2,0,0.4c-0.1,0.3-0.4,0.6-0.8,0.6c-0.1,0-0.2,0-0.3,0c-0.2-0.1-0.3-0.2-0.3-0.3
			c-0.1-0.4-0.1-0.8,0.1-1.2c0.2-0.5,0.8-0.5,1.1-0.2C26.9,53,27,53.2,27,53.5z M25.6,53.7c0,0.1,0,0.2,0,0.3c0,0.2,0.1,0.3,0.3,0.4
			c0.3,0.1,0.7-0.1,0.9-0.4c0.1-0.3,0.1-0.6,0-0.9c-0.1-0.2-0.2-0.5-0.6-0.4c-0.2,0-0.4,0.2-0.5,0.4C25.6,53.3,25.6,53.5,25.6,53.7z
			"/>
		<path fill="#3598C5" d="M36.5,52.9c-0.1,0-0.2,0-0.3-0.1s-0.1-0.1,0-0.2c0.1-0.1,0.2-0.2,0.3-0.2c0.1,0,0.2,0.1,0.3,0.2
			c0.1,0.1,0,0.2-0.1,0.3C36.6,52.9,36.5,52.9,36.5,52.9z"/>
		<path fill="#97B8CF" d="M30.2,52.4c0.4,0,0.8,0.3,0.9,0.7c0.1,0.3,0.1,0.6,0,0.9c-0.1,0.4-0.4,0.6-0.7,0.6c-0.3,0-0.6-0.1-0.7-0.4
			c-0.2-0.3-0.2-0.6-0.2-1c0-0.3,0.1-0.5,0.3-0.7C29.9,52.5,30,52.4,30.2,52.4z M29.5,53.5c0,0.1,0,0.3,0,0.4c0,0.2,0.2,0.4,0.4,0.6
			c0.4,0.2,0.8,0,1-0.3c0.1-0.3,0.1-0.5,0.1-0.8c0-0.2-0.1-0.4-0.3-0.6c-0.4-0.3-0.9-0.2-1.1,0.2C29.5,53.1,29.5,53.3,29.5,53.5z"/>
		<path fill="#3598C5" d="M52.7,53.8c0-0.3,0-0.5,0.1-0.8s0.3-0.5,0.7-0.5c0.3,0,0.5,0.1,0.7,0.4c0.2,0.4,0.2,0.8-0.1,1.2
			c-0.1,0.2-0.3,0.3-0.5,0.3c-0.1,0-0.2,0.1-0.3,0c-0.3-0.1-0.5-0.3-0.5-0.6C52.7,53.9,52.7,53.8,52.7,53.8z M52.9,53.8L52.9,53.8
			c0,0.3,0.1,0.4,0.2,0.5c0.2,0.1,0.4,0,0.6-0.1c0.1-0.1,0.2-0.1,0.2-0.2c0.1-0.3,0.1-0.6,0-0.9c-0.1-0.2-0.2-0.3-0.4-0.3
			c-0.3-0.1-0.6,0.1-0.7,0.4C52.9,53.4,52.9,53.6,52.9,53.8z"/>
		<path fill="#97B8CF" d="M42.5,53.1c-0.2,0-0.3,0-0.4-0.1c-0.2-0.1-0.2-0.4,0-0.5c0.2-0.2,0.5-0.2,0.8-0.1c0.2,0.1,0.2,0.2,0.2,0.4
			c0,0.1-0.1,0.2-0.3,0.2C42.7,53.1,42.6,53.1,42.5,53.1z M42.5,52.9c0.1,0,0.2-0.1,0.2-0.1s-0.1-0.2-0.2-0.2
			c-0.1,0-0.2,0.1-0.2,0.2C42.3,52.8,42.4,52.9,42.5,52.9z"/>
		<path fill="#EDF1F4" d="M60.6,53.5c0,0.2,0,0.4-0.1,0.6c-0.1,0.4-0.3,0.6-0.7,0.6c-0.2,0-0.4,0-0.7,0c-0.3-0.1-0.5-0.3-0.5-0.6
			c-0.1-0.4-0.1-0.9,0-1.3c0.1-0.3,0.3-0.5,0.6-0.6c0.2,0,0.4,0,0.6,0c0.3,0.1,0.5,0.3,0.6,0.6C60.6,53.1,60.6,53.3,60.6,53.5z
			 M60.5,53.5c0-0.1,0-0.1,0-0.2c0-0.3-0.1-0.5-0.3-0.7c-0.4-0.4-1.1-0.3-1.3,0.3c-0.1,0.4-0.1,0.7,0,1.1c0.1,0.2,0.2,0.4,0.4,0.5
			c0.5,0.3,1.1,0.1,1.2-0.4C60.5,53.9,60.5,53.7,60.5,53.5z"/>
		<path fill="#97B8CF" d="M38.4,29C38.5,29,38.5,29,38.4,29C38.5,29,38.5,29,38.4,29z"/>
		<path fill="#3598C5" d="M35.5,32.2C35.6,32.2,35.6,32.2,35.5,32.2c0,0.1,0,0.1,0,0.1V32.2L35.5,32.2z"/>
		<path fill="#3598C5" d="M35.6,32.3L35.6,32.3L35.6,32.3C35.6,32.4,35.6,32.4,35.6,32.3C35.6,32.4,35.6,32.4,35.6,32.3z"/>
		<path fill="#3598C5" d="M35.5,32.3C35.5,32.4,35.5,32.4,35.5,32.3C35.4,32.4,35.4,32.4,35.5,32.3C35.4,32.3,35.4,32.3,35.5,32.3
			L35.5,32.3z"/>
		<path fill="#3598C5" d="M43.1,33.2C43.1,33.1,43.1,33.1,43.1,33.2C43.1,33.1,43.1,33.1,43.1,33.2C43.1,33.1,43.1,33.2,43.1,33.2
			L43.1,33.2z"/>
		<path fill="#3598C5" d="M35.4,32.5C35.3,32.5,35.3,32.5,35.4,32.5C35.3,32.5,35.3,32.5,35.4,32.5L35.4,32.5z"/>
		<path fill="#3598C5" d="M35.4,32.5L35.4,32.5L35.4,32.5L35.4,32.5z"/>
		<path fill="#3598C5" d="M51.2,33.9L51.2,33.9L51.2,33.9L51.2,33.9L51.2,33.9z"/>
		<path fill="#026298" d="M25.6,53.7c0-0.2,0-0.4,0.1-0.5c0.1-0.3,0.3-0.4,0.5-0.4c0.3,0,0.5,0.2,0.6,0.4c0.1,0.3,0.1,0.6,0,0.9
			c-0.1,0.3-0.6,0.5-0.9,0.4c-0.1-0.1-0.3-0.2-0.3-0.4C25.6,53.9,25.6,53.8,25.6,53.7z M26.6,53.5c0-0.1,0-0.2,0-0.3
			s-0.2-0.3-0.3-0.3c-0.2,0-0.3,0.1-0.4,0.3c0,0.2,0,0.4,0,0.6c0,0.1,0,0.2,0.1,0.3s0.2,0,0.3,0c0.2,0,0.3-0.2,0.3-0.3
			S26.6,53.6,26.6,53.5z"/>
		<path fill="#3598C5" d="M29.5,53.5c0-0.2,0-0.4,0.1-0.6c0.2-0.4,0.7-0.6,1.1-0.2c0.2,0.1,0.2,0.4,0.3,0.6c0,0.3,0,0.6-0.1,0.8
			c-0.2,0.4-0.6,0.6-1,0.3c-0.2-0.1-0.3-0.3-0.4-0.6C29.5,53.8,29.5,53.6,29.5,53.5z M30.8,53.5c0-0.1,0-0.2,0-0.4s-0.2-0.4-0.4-0.4
			c-0.3,0-0.5,0.1-0.6,0.3c-0.1,0.3-0.1,0.6,0,1c0.1,0.2,0.3,0.3,0.5,0.3s0.4-0.2,0.4-0.4C30.8,53.8,30.8,53.6,30.8,53.5z"/>
		<path fill="#026298" d="M52.9,53.8c0-0.2,0-0.4,0.1-0.6c0.1-0.3,0.3-0.5,0.7-0.4c0.2,0,0.3,0.2,0.4,0.3c0.1,0.3,0.1,0.6,0,0.9
			c0,0.1-0.1,0.2-0.2,0.2c-0.2,0.1-0.4,0.2-0.6,0.1c-0.1-0.1-0.2-0.2-0.2-0.4C52.9,53.9,52.9,53.8,52.9,53.8z M53.9,53.5
			c0-0.1,0-0.2,0-0.4c0-0.1-0.1-0.2-0.3-0.2s-0.3,0-0.3,0.2c-0.1,0.3-0.1,0.5-0.1,0.8c0,0.1,0,0.2,0.2,0.2c0.1,0,0.4-0.1,0.4-0.2
			C53.9,53.8,53.8,53.7,53.9,53.5z"/>
		<path fill="#3598C5" d="M42.5,52.9c-0.1,0-0.2-0.1-0.2-0.2c0-0.1,0.1-0.2,0.2-0.2c0.1,0,0.2,0.1,0.2,0.2
			C42.8,52.8,42.6,52.9,42.5,52.9z"/>
		<path fill="#97B8CF" d="M60.5,53.5c0,0.2,0,0.4-0.1,0.6c-0.2,0.4-0.8,0.7-1.2,0.4c-0.2-0.1-0.3-0.3-0.4-0.5
			c-0.1-0.4-0.1-0.7,0-1.1c0.2-0.6,1-0.7,1.3-0.3c0.2,0.2,0.3,0.4,0.3,0.7C60.5,53.4,60.5,53.4,60.5,53.5z M60.4,53.5
			c0-0.3,0-0.5-0.2-0.7s-0.4-0.3-0.6-0.3c-0.3,0-0.5,0.2-0.6,0.5c-0.1,0.2-0.1,0.4-0.1,0.6c0,0.2,0.1,0.4,0.3,0.6
			c0.4,0.4,0.9,0.2,1.1-0.2C60.4,53.9,60.4,53.7,60.4,53.5z"/>
		<path fill="#1E3C73" d="M26.6,53.5c0,0.1,0,0.2,0,0.3c0,0.2-0.1,0.3-0.3,0.3c-0.1,0-0.2,0.1-0.3,0c-0.1-0.1-0.2-0.2-0.1-0.3
			c0-0.2,0-0.4,0-0.6c0-0.2,0.2-0.3,0.4-0.3c0.2,0,0.3,0.1,0.3,0.3C26.6,53.3,26.6,53.4,26.6,53.5z"/>
		<path fill="#026298" d="M30.8,53.5c0,0.1,0,0.3,0,0.4c0,0.2-0.2,0.4-0.4,0.4c-0.2,0-0.5-0.1-0.5-0.3c-0.1-0.3-0.1-0.6,0-1
			c0.1-0.3,0.3-0.4,0.6-0.3c0.2,0,0.4,0.2,0.4,0.4C30.8,53.3,30.8,53.4,30.8,53.5z M29.9,53.5c0,0.1,0,0.2,0,0.3v0.1
			c0.1,0.2,0.2,0.2,0.3,0.2c0.2,0,0.3-0.1,0.3-0.3s0-0.4,0-0.6c0-0.2-0.1-0.3-0.3-0.3c-0.2,0-0.3,0.1-0.3,0.2
			C29.9,53.3,29.9,53.4,29.9,53.5z"/>
		<path fill="#1E3C73" d="M53.9,53.5c0,0.1,0,0.3-0.1,0.4c-0.1,0.1-0.3,0.2-0.4,0.2c-0.1,0-0.1-0.1-0.2-0.2c0-0.3,0-0.5,0.1-0.8
			c0-0.1,0.2-0.2,0.3-0.2s0.2,0.1,0.3,0.2C53.8,53.3,53.9,53.4,53.9,53.5z"/>
		<path fill="#3598C5" d="M60.4,53.5c0,0.2,0,0.3-0.1,0.5c-0.2,0.4-0.8,0.6-1.1,0.2C59,54,59,53.8,58.9,53.6c0-0.2,0-0.4,0.1-0.6
			c0.1-0.3,0.3-0.5,0.6-0.5s0.5,0.1,0.6,0.3C60.4,53,60.4,53.3,60.4,53.5z M59.6,52.7c-0.3,0-0.5,0.2-0.6,0.4s-0.1,0.5,0,0.7
			c0,0.3,0.3,0.5,0.5,0.5c0.3,0,0.5-0.1,0.6-0.4c0.1-0.3,0.1-0.6,0-0.9C60.1,52.8,59.9,52.7,59.6,52.7z"/>
		<path fill="#1E3C73" d="M29.9,53.5c0-0.1,0-0.2,0-0.4c0-0.1,0.2-0.2,0.3-0.2c0.2,0,0.3,0.1,0.3,0.3s0,0.4,0,0.6
			c0,0.2-0.1,0.3-0.3,0.3c-0.1,0-0.2-0.1-0.3-0.2v-0.1C29.9,53.7,29.9,53.6,29.9,53.5z"/>
		<path fill="#026298" d="M59.6,52.7c0.2,0,0.4,0.1,0.5,0.4c0.1,0.3,0.1,0.6,0,0.9c-0.1,0.3-0.3,0.4-0.6,0.4S59,54.2,59,53.9
			c0-0.2,0-0.5,0-0.7C59.2,52.8,59.4,52.7,59.6,52.7z M60.1,53.6c0-0.1,0-0.3,0-0.4c0-0.2-0.1-0.3-0.3-0.4c-0.2,0-0.3,0-0.4,0.2
			c0,0.1-0.1,0.1-0.1,0.2c-0.1,0.2,0,0.4,0,0.6c0,0.1,0.1,0.2,0.1,0.3c0.2,0.2,0.5,0.1,0.6-0.2C60.1,53.8,60.1,53.7,60.1,53.6z"/>
		<path fill="#1E3C73" d="M60.1,53.6c0,0.1,0,0.2-0.1,0.3c-0.1,0.3-0.4,0.3-0.6,0.2c-0.1-0.1-0.1-0.2-0.1-0.3c0-0.2,0-0.4,0-0.6
			c0-0.1,0-0.1,0.1-0.2c0.1-0.1,0.2-0.2,0.4-0.2s0.3,0.2,0.3,0.4C60.1,53.3,60.1,53.4,60.1,53.6z"/>
	</g>
</g>
</svg>
