<?xml version="1.0" encoding="utf-8"?>
<!-- Generator: Adobe Illustrator 23.0.3, SVG Export Plug-In . SVG Version: 6.00 Build 0)  -->
<svg version="1.2" baseProfile="tiny" id="Calque_1"
	 xmlns="http://www.w3.org/2000/svg" xmlns:xlink="http://www.w3.org/1999/xlink" x="0px" y="0px" viewBox="0 0 88.1 84.1"
	 xml:space="preserve">
<circle fill="#0F5297" cx="44" cy="42.1" r="34"/>
<g>
	<g>
		<path fill="#0F5297" d="M69.3,32.8c0,1.3,0,2.6,0,3.9c-0.6,0.3-0.3,0.8-0.4,1.2c-0.9,5-3.3,9.3-7.5,13.1c0-6.6,0-12.9,0-19.1
			c1.9-0.3,3.6,0.1,5.3-0.3c0.4-1,0.4-1,0-2c-4.6,0-9.2,0-13.6,0c-0.7,0.8-0.6,1.4,0,2c1.7,0.4,3.5-0.1,5.2,0.3
			c0.4,0.7,0.3,1.5,0.3,2.1c0,5.2,0,10.3,0,15.5c0,1.1-0.1,2.2,1,3.1c-2.1,1.7-4.3,2.8-6.6,4c-10.7,0-21.5,0-32.2,0
			c-0.3-1.5-0.7-2.9-1.3-4.3c0-1.7,0-3.4,0-5c0.1-0.2,0.3-0.4,0.3-0.7c0.9-6.8,3.8-12.9,8.9-18c13,0,26,0,38.9,0
			C68.5,29.9,68.7,31.4,69.3,32.8z M20.9,52.1c1.6,0.2,2-0.9,2.4-1.8c1.9-3.6,3.8-7.2,5.6-10.8c0.9-1.8,1.9-3.6,2.9-5.6
			c0.6,0.9,0.3,1.6,0.4,2.3c0,4.5-0.1,9,0.3,13.5c0.1,1,0.1,2.1,1.4,2.5c1.1-0.3,1.1-1.1,1.1-1.9c0-6.3,0-12.7-0.1-19
			c0-1.3-0.6-2.2-2-2.4c-1.2,0.2-1.7,0.9-2.1,1.8c-3.3,6.3-6.6,12.6-10,18.9C20.4,50.5,20.1,51.3,20.9,52.1z M51.9,51
			c-2.9-2.9-5.8-5.8-8.8-8.9c1.1-0.1,1.7-0.1,2.4-0.1c3.6-0.4,5.8-2.6,6-5.9c0.2-3.6-1.7-5.8-5.4-6.5c-1.8-0.3-3.6-0.3-5.4-0.1
			c-0.8,0.1-1.7,0.2-1.7,1.3c0.1,0.1,0.3,0.4,0.4,0.4c1.8,0.2,3.6,0.3,5.4,0.5c3,0.2,4.4,1.8,4.1,4.5c-0.2,2.4-1.8,3.5-4.8,3.5
			c-1.6,0-3.2-0.4-4.7,0.1c-0.1,0.7-0.1,1.3,0.1,2.1c3.2,3.2,6.4,6.5,9.7,9.7C50,52.4,50.9,52.6,51.9,51z"/>
		<path fill="#F0F4F8" d="M53,56.5c2.2-1.1,4.5-2.3,6.6-4c-1.1-0.9-1-2-1-3.1c0-5.2,0-10.3,0-15.5c0-0.7,0.2-1.4-0.3-2.1
			c-1.7-0.3-3.6,0.1-5.2-0.3c-0.7-0.6-0.7-1.2,0-2c4.5,0,9.1,0,13.6,0c0.4,1,0.4,1,0,2c-1.7,0.4-3.4,0-5.3,0.3c0,6.3,0,12.5,0,19.1
			c4.2-3.8,6.7-8,7.5-13.1c0.1-0.4-0.2-0.9,0.4-1.2c0,6.6,0,13.2,0,19.8C63.9,56.5,58.5,56.5,53,56.5z"/>
		<path fill="#F0F4F8" d="M28.7,28.5c-5.1,5.1-7.9,11.1-8.9,18c0,0.2-0.2,0.4-0.3,0.7c0-6.2,0-12.4,0-18.6
			C22.6,28.5,25.7,28.5,28.7,28.5z"/>
		<path fill="#F0F4F8" d="M69.3,32.8c-0.7-1.4-0.8-2.9-1.7-4.3c0.5,0,1.1,0,1.7,0C69.3,30,69.3,31.4,69.3,32.8z"/>
		<path fill="#F0F4F8" d="M19.5,52.2c0.6,1.4,1,2.8,1.3,4.3c-0.3,0-0.7,0-1.3,0C19.5,55,19.5,53.6,19.5,52.2z"/>
		<path fill="#F0F4F8" d="M20.9,52.1c-0.8-0.9-0.5-1.6-0.1-2.4c3.3-6.3,6.7-12.6,10-18.9c0.4-0.9,1-1.6,2.1-1.8c1.5,0.2,2,1.1,2,2.4
			c0,6.3,0,12.7,0.1,19c0,0.8-0.1,1.6-1.1,1.9c-1.3-0.4-1.3-1.5-1.4-2.5c-0.3-4.5-0.2-9-0.3-13.5c0-0.7,0.2-1.4-0.4-2.3
			c-1,2-2,3.8-2.9,5.6c-1.9,3.6-3.7,7.2-5.6,10.8C22.8,51.2,22.4,52.3,20.9,52.1z"/>
		<path fill="#F0F4F8" d="M51.9,51c-1,1.7-2,1.5-2.9,0.6c-3.3-3.3-6.5-6.6-9.7-9.7c-0.2-0.8-0.2-1.4-0.1-2.1
			c1.6-0.5,3.2-0.1,4.7-0.1c3,0.1,4.6-1.1,4.8-3.5c0.3-2.7-1.1-4.2-4.1-4.5c-1.8-0.1-3.6-0.3-5.4-0.5c-0.1,0-0.3-0.3-0.4-0.4
			c0-1.1,1-1.2,1.7-1.3c1.8-0.2,3.6-0.3,5.4,0.1c3.7,0.7,5.5,3,5.4,6.5c-0.2,3.3-2.4,5.5-6,5.9c-0.6,0.1-1.2,0.1-2.4,0.1
			C46.2,45.2,49,48,51.9,51z"/>
	</g>
</g>
<path fill="#0F5297" stroke="#0F5297" stroke-miterlimit="10" d="M19.5,47.2c0.4-0.7,0.4-0.7,0.4-0.7l0.6-3.5l1.1-3.6l0.4-0.9l1-2.1
	l2.7-4.4l0.7-0.8l2.3-2.6h-9.2C19.5,28.6,19.5,47.2,19.5,47.2z"/>
<polyline fill="#0F5297" stroke="#0F5297" stroke-miterlimit="10" points="19.5,56.5 20.8,56.5 19.5,52.2 19.3,51.7 "/>
<polygon fill="#0F5297" stroke="#0F5297" stroke-miterlimit="10" points="67.7,28.5 69.3,32.9 69.4,28.5 "/>
<path fill="#0F5297" stroke="#0F5297" stroke-miterlimit="10" d="M53,56.5c2.8,0.4,16.4,0,16.4,0v-20L53,56.7"/>
</svg>
