<?xml version="1.0" encoding="utf-8"?>
<!-- Generator: Adobe Illustrator 23.0.3, SVG Export Plug-In . SVG Version: 6.00 Build 0)  -->
<svg version="1.2" baseProfile="tiny" id="Calque_1"
	 xmlns="http://www.w3.org/2000/svg" xmlns:xlink="http://www.w3.org/1999/xlink" x="0px" y="0px" viewBox="0 0 175.8 84.1"
	 xml:space="preserve">
<g>
	<g>
		<path fill="#1F3563" d="M59.8,46.9c1.4,0,2.9,0,4.3,0c0.8,2.5,1.7,3.3,4.2,3.3c4.5,0.1,8.9,0.1,13.4,0c2.7-0.1,3.9-1.3,3.9-3.6
			c0-1.6-0.7-2.9-2.4-3.3c-2.1-0.4-4.3-0.6-6.4-0.7c-3.5-0.1-7.1,0.1-10.6-0.2c-5.8-0.6-7.5-4.7-6.4-9.6c0.5-2.3,2.1-3.7,4.3-4.3
			c0.8-0.2,1.6-0.4,2.4-0.4c5.7,0,11.3-0.1,17,0.1c4,0.2,6.3,2.7,6.7,6.4c0,0.2,0,0.4-0.1,0.7c-1.5,0-3,0-4.5,0
			c-1-2.6-1.9-3.3-4.8-3.4c-4.3,0-8.6-0.1-12.8,0c-2.6,0.1-4.1,1.9-3.4,4.1c0.4,1.4,1.5,2.1,2.8,2.2c2.7,0.3,5.5,0.5,8.2,0.4
			c3.2-0.1,6.3-0.3,9.4,0.7c5.2,1.5,7.3,8.6,3.7,12.7c-0.7,0.7-1.7,1.3-2.6,1.6c-1.2,0.4-2.4,0.6-3.7,0.6c-4.9,0.1-9.8,0.1-14.8,0
			c-1.2,0-2.4-0.2-3.5-0.6C61.1,52.8,59.5,50.1,59.8,46.9z"/>
		<path fill="#1F3563" d="M123.4,46.5c1.4,0,2.7,0,4,0c0.7,2.9-0.9,6.1-3.8,6.8c-2.2,0.6-4.6,0.8-6.9,0.9c-4.3,0.1-8.6,0-13-0.2
			c-4.9-0.3-7.1-2.5-7.5-7.3C96,42.8,96,38.9,96.4,35c0.4-4.2,2.2-6.2,6.4-6.7c6.4-0.8,12.8-1.1,19.2,0.4c3.8,0.8,5.8,3.4,5.5,6.8
			c-1.4,0-2.7,0-4.1,0c-0.2-2.4-1.7-3.4-3.8-3.4c-4.9-0.1-9.8-0.2-14.7,0.1c-3.5,0.2-5.2,2.9-4.5,6.6c5.8,0,11.7,0,17.6,0
			c0,1.3,0,2.5,0,3.9c-5.9,0-11.8,0-18,0c0.3,1.7,0.4,3.2,0.8,4.7c0.3,1.4,1.4,2.3,2.8,2.5c1.5,0.2,3.1,0.4,4.7,0.4
			c3.8,0,7.5,0,11.3-0.2C122,50,122.9,49.1,123.4,46.5z"/>
		<path fill="#1F3461" d="M148.6,54.4c-2.7-0.1-5.4-0.2-8.1-0.4c-4.5-0.5-6.5-2.5-7.1-7c-0.5-4.3-0.6-8.7,0.2-13
			c0.5-3,2.4-4.9,5.4-5.6c1-0.2,2-0.5,3-0.5c4.8,0,9.7-0.1,14.5,0.3c4.6,0.4,6.8,2.5,7.1,7.1c0.3,4.1,0.3,8.2-0.1,12.3
			c-0.4,4-2.7,6-6.8,6.3C154,54.2,151.3,54.3,148.6,54.4z M148.3,50c2.6-0.1,4.9-0.1,7.2-0.4c2.2-0.2,3.4-1.3,3.5-3.4
			c0.2-3.5,0.2-6.9,0-10.4c-0.1-2-1.4-3.3-3.4-3.3c-4.7-0.1-9.4-0.1-14.2,0c-1.7,0-2.9,1.1-3.3,2.8c-0.8,3.8-0.8,7.6,0,11.4
			c0.3,1.6,1.4,2.6,3,2.7C143.6,49.8,146.2,49.9,148.3,50z"/>
		<path fill="#1F3563" d="M9.6,28c1.6,0,3.1-0.1,4.6,0c0.4,0,0.8,0.6,1,1c3.4,6.7,6.8,13.4,10.2,20.1c0.2,0.4,0.5,0.9,0.8,1.6
			c0.4-0.7,0.7-1.3,1-1.8c3.3-6.6,6.7-13.1,10-19.7c0.4-0.8,0.9-1.3,1.9-1.2c1.2,0.1,2.4,0,3.9,0c-0.4,0.7-0.6,1.3-0.8,1.8
			c-4,7.8-8,15.7-11.9,23.5c-0.4,0.8-0.8,1.1-1.7,1.1c-1.6-0.1-3.2,0-4.8-0.1c-0.5,0-1.2-0.4-1.4-0.8C18.2,45.2,14,37,9.9,28.7
			C9.8,28.5,9.7,28.3,9.6,28z"/>
		<path fill="#20325E" d="M49.2,28c1.5,0,2.9,0,4.3,0c0,8.7,0,17.4,0,26.2c-1.4,0-2.8,0-4.3,0C49.2,45.5,49.2,36.8,49.2,28z"/>
	</g>
</g>
</svg>
