<?xml version="1.0" encoding="utf-8"?>
<!-- Generator: Adobe Illustrator 23.0.3, SVG Export Plug-In . SVG Version: 6.00 Build 0)  -->
<svg version="1.2" baseProfile="tiny" id="Calque_1"
	 xmlns="http://www.w3.org/2000/svg" xmlns:xlink="http://www.w3.org/1999/xlink" x="0px" y="0px" viewBox="0 0 88.1 84.1"
	 xml:space="preserve">
<g>
	<g>
		<path fill="#E53F2D" d="M44.3,36.8c0.8-0.8,1.5-1.7,2.4-2.5c3.4-3.3,7.1-5.9,11-8.3c5.3-3.3,10.5-6.5,15.8-9.7
			c0.2-0.1,0.5-0.3,0.9-0.5c-0.5,2.3-1.2,4.2-2.4,5.9c-3.1,4.5-7,8-11.4,10.7c-2.7,1.7-5.4,3.3-8.1,5.1c-2.5,1.7-4.8,3.8-6.4,6.6
			c-0.7,1.1-1,2.5-1.5,3.8c-0.1,0.2-0.1,0.3-0.3,0.5c-0.1-0.4-0.2-0.7-0.3-1.1c-0.7-2.6-2.2-4.6-4-6.3c-3.6-3.3-7.7-5-12.3-5.4
			c-1.7-0.1-3.3,0-5.1,0c-0.1-0.5,0.2-0.9,0.4-1.2c1.2-1.4,2.6-2.3,4.2-2.7c5.3-1.4,10.4-0.8,14.9,2.9c0.4,0.3,0.7,0.7,1,1
			C43.6,36.1,43.9,36.4,44.3,36.8z"/>
		<path fill="#066361" d="M10.1,50.4c1-1,1.9-2.1,2.9-3c3.4-3.1,7.2-5.2,11.5-5.8c5-0.8,9.7,0.3,13.8,3.9c2.7,2.4,4.3,5.6,4.4,9.6
			c0.1,2.5-0.6,4.8-1.7,6.9c-1.5,2.9-3.5,5.1-5.8,7.1c0,0-0.1,0-0.1,0c0.2-1.1,0.5-2.1,0.7-3.1c0.8-5.4-1-9.7-5-12.6
			c-2.9-2-6.1-3-9.4-3.4c-3.6-0.4-7.2-0.2-10.8,0.5c-0.1,0-0.3,0-0.4,0C10.1,50.5,10.1,50.5,10.1,50.4z"/>
		<path fill="#066361" d="M53.4,60.7c-0.3-0.6-0.6-1.3-0.9-1.9c-1.1-2.3-2.5-4.3-4.4-5.8c-1.1-0.9-1.1-2-0.8-3.3
			c0.3-1.3,0.9-2.4,1.7-3.3c2-2.6,4.5-4.4,7.1-6.1c3-2,6.1-3.8,9.2-5.7c3.2-2,6.2-4.4,8.8-7.3c0.1-0.1,0.3-0.3,0.4-0.4
			c0.1,0,0.1,0,0.2,0.1c-0.1,1-0.1,2-0.4,3c-0.8,3.6-2.6,6.6-4.6,9.4c-2.1,3-4.9,5-7.5,7.3c-2.1,1.8-4.2,3.5-6.2,5.4
			c-1.3,1.2-2.4,2.7-2.7,4.8c-0.1,1.2,0,2.4,0.1,3.5c0,0.1,0,0.2,0,0.3C53.4,60.7,53.4,60.7,53.4,60.7z"/>
		<path fill="#56AED9" d="M44.2,33.2c-0.5-4-2.7-6.5-6.3-6.8c-1.4-0.1-2.8,0.1-4.2,0.2c-0.3,0-0.7,0-1,0c-0.2,0-0.4-0.2-0.5-0.3
			c0.1-0.2,0.2-0.5,0.3-0.6c2-2,4.2-3.4,6.8-3.9c2.2-0.4,4.2,0,6,1.5c1.6,1.4,2.4,3.3,2.2,5.7c-0.1,1-0.6,1.6-1.2,2.2
			C45.5,31.8,44.9,32.5,44.2,33.2z"/>
	</g>
</g>
</svg>
