<?xml version="1.0" encoding="utf-8"?>
<!-- Generator: Adobe Illustrator 23.0.3, SVG Export Plug-In . SVG Version: 6.00 Build 0)  -->
<svg version="1.2" baseProfile="tiny" id="Calque_1"
	 xmlns="http://www.w3.org/2000/svg" xmlns:xlink="http://www.w3.org/1999/xlink" x="0px" y="0px" viewBox="0 0 88.1 84.1"
	 xml:space="preserve">
<g>
	<path fill="#FAB739" d="M9.6,47.5c0-0.2,0-0.3-0.1-0.5c-0.1-0.6-0.2-1.2-0.2-1.7c0-1.7,0-3.3,0-5c0.1-0.3,0.1-0.6,0.2-0.9
		c0-0.1,0-0.1,0-0.2c0-0.2,0.1-0.3,0.1-0.5c0-0.3,0-0.6,0-0.9c0-0.2,0-0.3,0-0.5c0.1-0.4,0.1-0.7,0.2-1.1c0-0.2,0.1-0.4,0.1-0.6
		c0-0.1,0-0.2,0.1-0.3c0-0.1,0-0.2,0-0.3c0.2-0.6,0.3-1.2,0.5-1.9c0.1-0.2,0.1-0.3,0.2-0.5c0-0.1,0-0.2,0-0.3h0.1
		c0.1-0.1,0.1-0.3,0.2-0.5c0.1-0.4,0.3-0.8,0.4-1.3l0,0c0.1-0.2,0.2-0.4,0.3-0.6v-0.1h0.1v-0.1c0-0.1,0-0.2,0-0.3
		c0-0.1,0.1-0.2,0.1-0.3L12,29h0.1c0.1-0.3,0.3-0.7,0.4-1c0-0.1,0.1-0.3,0.1-0.4h0.1h0.1c0.1-0.3,0.2-0.6,0.4-1c0-0.1,0-0.2,0-0.3
		h0.1c0.1,0,0.2-0.1,0.3-0.1c1.2-1.7,2.4-3.4,3.5-5.2c0.1-0.2,0.2-0.4,0.2-0.6l0,0c0.5-0.6,1-1.1,1.5-1.7l0,0l0,0
		c0.2-0.2,0.3-0.3,0.5-0.5l0,0l0,0c0.2-0.2,0.3-0.3,0.5-0.5l0,0l0,0c0.6-0.5,1.1-1,1.7-1.5l0,0c0.5-0.3,0.9-0.6,1.4-0.9
		c0.8-0.6,1.7-1.3,2.5-1.9l0,0c0.2-0.1,0.3-0.2,0.5-0.3l0,0c0.6-0.3,1.1-0.7,1.7-1V12c0.1,0,0.1,0,0.2,0c0.4-0.2,0.7-0.3,1-0.5
		c0-0.1,0.1-0.1,0.1-0.2c0.1-0.1,0.3-0.1,0.4-0.2c0.1,0,0.2,0,0.3,0c0.2-0.1,0.3-0.1,0.5-0.2c0.1-0.1,0.2-0.2,0.3-0.3h0.1
		c0,0,0.1,0,0.2,0s0.1,0,0.2,0H31c0.2-0.1,0.3-0.2,0.5-0.2h0.1c0.3-0.1,0.5-0.2,0.8-0.3V10c0.1,0,0.2-0.1,0.3-0.1c0.1,0,0.1,0,0.2,0
		c0.2-0.1,0.4-0.1,0.6-0.2c0.1,0,0.1-0.1,0.2-0.1c0.1,0,0.1,0,0.2,0c0.2-0.1,0.3-0.1,0.5-0.2c0.1,0,0.1,0,0.2,0
		c0.4-0.1,0.8-0.2,1.3-0.3V9c0.1,0,0.3,0,0.4,0s0.3,0,0.4-0.1l0,0c0.6,0,1.3,0.2,1.7-0.4c0.3,0,0.5,0,0.8-0.1
		c0.8-0.1,1.6-0.2,2.3-0.3c1.6,0,3.1,0,4.7,0c0.7,0.1,1.4,0.2,2,0.2c0.1,0,0.2,0,0.3,0c1,0.2,2.1,0.4,3.1,0.6c0.1,0,0.2,0,0.3,0.1
		c0.9,0.3,1.8,0.5,2.6,0.8c1.7,0.7,3.4,1.4,5.1,2.1h0.1c1,0.6,2.1,1.2,3.1,1.9l0,0l0,0c0.3,0.2,0.7,0.5,1,0.7l0.1,0.1
		c0.4,0.3,0.7,0.6,1.1,0.9c0,0.4,0.2,0.6,0.7,0.6c0,0,0.1,0,0.1,0.1c0.5,0.9,1.2,1.5,2.1,2l0,0c0.2,0.2,0.3,0.3,0.5,0.5l0,0
		c0.1,0.2,0.2,0.5,0.3,0.6c0.4,0.6,0.9,1.1,1.4,1.7c0.4,0.5,0.9,0.9,1.3,1.3v0.1c0,0.1,0,0.3,0.1,0.4c1.2,2.1,2.4,4.2,3.5,6.2
		c0.2,0.3,0.4,0.7,0.6,1c0.1,0.1,0.2,0.2,0.2,0.2c0,0.1,0,0.2,0.1,0.2c0,0.1,0.1,0.2,0.1,0.3c0,0.1,0,0.2,0.1,0.3
		c0.2,0.6,0.4,1.2,0.6,1.9c0,0.1,0,0.2,0.1,0.3c0.1,0.3,0.2,0.5,0.2,0.8c0,0.1,0,0.2,0,0.3c0,0.2,0.1,0.3,0.1,0.5
		c0,0.1,0,0.2,0.1,0.3c0,0.1,0,0.2,0.1,0.3c0,0.2,0.1,0.4,0.1,0.6c0.1,0.3,0.1,0.6,0.2,1c0,0.3,0,0.5,0.1,0.8c0.1,0.7,0.2,1.4,0.3,2
		c0,0.2,0,0.3,0,0.5c0,0.1,0,0.1,0,0.2c0,1.4,0,2.8,0,4.2c0,0.1,0,0.1,0,0.2c0,0.2,0,0.3,0,0.5c0,0.1,0,0.1,0,0.2c0,0.2,0,0.4,0,0.6
		c-0.1,0.4-0.1,0.9-0.2,1.3c0,0.2,0,0.4-0.1,0.6c-0.2,0.9-0.4,1.8-0.6,2.7c0,0.2,0,0.3-0.1,0.5c-0.2,0.6-0.4,1.3-0.6,1.9l0,0
		c0,0.1-0.1,0.2-0.1,0.4c0,0.1,0,0.2-0.1,0.3c-0.3,0.8-0.7,1.7-1,2.5v0.1c-0.1,0.1-0.1,0.3-0.2,0.4c-0.2,0.4-0.5,0.9-0.7,1.3
		c0,0.1,0,0.2-0.1,0.2c-0.1,0.1-0.2,0.2-0.3,0.4v0.1c-0.1,0.2-0.2,0.4-0.3,0.7c0,0.1-0.1,0.2-0.1,0.3c-0.2,0.3-0.3,0.5-0.5,0.8
		c0,0,0,0.1-0.1,0.1c-0.3,0.4-0.6,0.9-0.9,1.3c0,0,0,0.1-0.1,0.1c-0.2,0.3-0.4,0.5-0.6,0.8l0,0c-0.2,0.2-0.3,0.4-0.5,0.6l-0.1,0.1
		c-0.1,0.1-0.2,0.3-0.4,0.4l0,0c0,0.1-0.1,0.1-0.1,0.2s-0.1,0.1-0.1,0.2c-0.2,0.2-0.3,0.4-0.5,0.6c-0.1,0.1-0.2,0.3-0.4,0.4
		c0,0-0.1,0-0.1,0.1c-0.1,0.1-0.2,0.2-0.3,0.3c-0.1,0.1-0.1,0.3-0.2,0.4h-0.1c-0.1,0.1-0.2,0.2-0.3,0.3c-0.1,0-0.1,0.1-0.2,0.1
		c-0.1,0.1-0.2,0.2-0.3,0.3c-0.2,0.3-0.4,0.5-0.6,0.8c-0.1,0.1-0.2,0.1-0.3,0.2s-0.3,0.2-0.4,0.4c0,0.1,0,0.1,0,0.2
		c-0.1,0.1-0.2,0.1-0.3,0.2c-0.3,0.2-0.6,0.5-0.8,0.7c-0.2,0.1-0.4,0.2-0.6,0.4c-0.3,0.2-0.6,0.4-0.9,0.7l0,0
		c-0.8,0.5-1.6,1.1-2.4,1.6l-0.1,0.1c-0.2,0.1-0.4,0.3-0.7,0.4c-0.1,0.1-0.3,0.2-0.4,0.2c-0.1,0-0.1,0.1-0.2,0.1h-0.1
		c-0.3,0.2-0.6,0.3-0.9,0.5c-0.1,0-0.1,0.1-0.2,0.1c-0.2,0.1-0.4,0.2-0.6,0.2v0.1c-0.2,0.1-0.4,0.2-0.5,0.3c-0.2,0-0.4,0.1-0.5,0.1
		s-0.1,0.1-0.2,0.1c-0.1,0-0.2,0.1-0.3,0.1l-0.1-0.1v0.1l0,0c-0.3,0.1-0.5,0.2-0.8,0.3l0,0c-0.1,0-0.2,0.1-0.2,0.1V75
		c-0.3,0-0.4,0-0.6,0.1s-0.4,0.1-0.6,0.2c-0.1,0-0.2,0.1-0.3,0.1s-0.2,0.1-0.4,0.1c-0.1,0-0.3,0.1-0.4,0.1c-1.3,0.3-2.6,0.6-3.9,0.9
		c-0.2,0-0.4,0.1-0.6,0.1c-0.6,0.1-1.2,0.2-1.7,0.3c-0.2,0-0.3,0-0.5,0c-1.9,0-3.8,0-5.6,0c-0.2,0-0.3,0-0.5,0
		c-0.1,0-0.3-0.1-0.4-0.1c-2.6-0.2-5.2-0.9-7.7-1.7c-1.1-0.4-2.1-0.8-3.2-1.1l0,0c-0.8-0.4-1.7-0.9-2.5-1.3c-0.1,0-0.2-0.1-0.2-0.1
		c-0.1-0.1-0.3-0.2-0.4-0.3H26c-0.3-0.2-0.6-0.5-0.9-0.7c-0.1-0.1-0.2-0.1-0.3-0.2l0,0c-0.3-0.2-0.5-0.3-0.8-0.5
		c-0.1,0-0.1-0.1-0.2-0.1c-0.1-0.1-0.1-0.1-0.2-0.2l0,0c-0.1-0.1-0.2-0.1-0.3-0.2l0,0c-0.3-0.2-0.5-0.4-0.8-0.6l0,0
		c-0.1,0-0.1-0.1-0.2-0.1l0,0c-0.1-0.6-0.5-0.7-1-0.7c-0.2-0.2-0.4-0.3-0.6-0.5c-0.1-0.1-0.2-0.2-0.3-0.3l0,0l-0.1-0.1l0,0
		c-0.1-0.1-0.1-0.1-0.2-0.2c0,0-0.1,0-0.1-0.1c0-0.5-0.3-0.8-0.8-0.7c-0.1-0.1-0.1-0.2-0.2-0.3c-0.1-0.1-0.2-0.2-0.3-0.2l0,0
		c-0.2-0.2-0.4-0.5-0.7-0.7l0,0l0,0c-0.1-0.1-0.2-0.2-0.3-0.3h-0.1v-0.1c-0.1-0.1-0.2-0.2-0.3-0.3s-0.1-0.1-0.2-0.2
		c-0.1-0.1-0.1-0.2-0.2-0.3l0,0c-0.1-0.1-0.2-0.2-0.3-0.3l0,0c0-0.1-0.1-0.1-0.1-0.2v-0.1c-0.1-0.1-0.1-0.2-0.2-0.3
		c-0.1-0.1-0.2-0.3-0.3-0.4c0.1-0.4,0.1-0.5,0-0.6l0,0c-0.1-0.1-0.1-0.1-0.2-0.2c-0.1-0.1-0.2-0.3-0.3-0.4c-0.1-0.1-0.1-0.2-0.2-0.3
		s-0.2-0.1-0.3-0.2c0,0,0-0.1-0.1-0.1c-0.2-0.3-0.5-0.7-0.7-1v-0.1c0-0.1-0.1-0.1-0.1-0.2l0,0c-0.2-0.4-0.5-0.9-0.7-1.3
		c0-0.1-0.1-0.2-0.1-0.2c-0.8-2-1.7-3.9-2.5-5.9c0-0.1,0-0.2-0.1-0.3c-0.2-0.6-0.4-1.3-0.5-1.9c0-0.1,0-0.2-0.1-0.3
		C9.9,49.4,9.8,48.5,9.6,47.5z M68.6,62.8c0.1-0.1,0.2-0.3,0.4-0.4c0.1-0.2,0.2-0.4,0.3-0.5c5.3-7.1,7.4-15.1,6.2-23.8
		C74.3,29.8,70.4,23,64,17.7c-7.3-6-15.8-8.2-25.1-6.9c-8.7,1.3-15.7,5.5-20.9,12.4c-5.4,7.2-7.5,15.4-6.1,24.2
		c1.8,11.3,8.2,19.5,18.5,24.4c5.6,2.6,11.5,3.4,17.6,2.5c5.2-0.7,9.9-2.7,14.2-5.7C64.7,67,66.7,65,68.6,62.8z"/>
	<path fill="#EDC66A" d="M39.1,8.4V8.3c0.5-0.1,0.9-0.1,1.4-0.2c0.3,0,0.6,0,0.9,0C40.7,8.2,39.9,8.3,39.1,8.4z"/>
	<path fill="#FCF0C3" d="M48.2,8.4c-0.7-0.1-1.4-0.2-2-0.2c0.7,0,1.3,0,2,0C48.1,8.2,48.1,8.3,48.2,8.4z"/>
	<path fill="#FCF0C3" d="M9.3,45.3c0.1,0.6,0.2,1.2,0.2,1.7c-0.1,0-0.2,0-0.2,0C9.3,46.4,9.3,45.9,9.3,45.3z"/>
	<path fill="#FCF0C3" d="M9.3,37.8c0.1,0,0.2,0,0.3,0c0,0.3,0,0.6,0,0.9c0,0.2-0.1,0.3-0.1,0.5c0,0,0,0.1,0,0.2c-0.1,0-0.1,0-0.2,0
		C9.3,38.9,9.3,38.3,9.3,37.8z"/>
	<path fill="#FCF0C3" d="M40.5,8.1c-0.5,0.1-0.9,0.1-1.4,0.2c0-0.1,0-0.1,0-0.2C39.6,8.1,40,8.1,40.5,8.1z"/>
	<path fill="#EDC66A" d="M9.3,39.4c0.1,0,0.1,0,0.2,0c-0.1,0.3-0.1,0.6-0.2,0.9C9.3,40,9.3,39.7,9.3,39.4z"/>
	<path fill="#FCF0C3" d="M29.2,73.9c1.1,0.4,2.1,0.8,3.2,1.1c2.5,0.9,5,1.5,7.7,1.7c0.1,0,0.3,0.1,0.4,0.1c-0.9-0.1-1.8-0.1-2.7-0.2
		c-2.8-0.4-5.5-1.2-8.1-2.5C29.5,74.1,29.3,74,29.2,73.9z"/>
	<path fill="#EDC66A" d="M75.7,30c-0.2-0.3-0.4-0.7-0.6-1c-1.2-2.1-2.4-4.2-3.5-6.2c-0.1-0.1-0.1-0.2-0.1-0.4c0.5,0.7,1.1,1.3,1.5,2
		c0.9,1.8,1.8,3.6,2.7,5.3C75.7,29.8,75.7,29.9,75.7,30z"/>
	<path fill="#FCF0C3" d="M59.6,12c-1.7-0.7-3.4-1.4-5.1-2.1c-0.9-0.3-1.8-0.6-2.6-0.8c0.4,0,0.7,0,1.1,0c1.4,0.2,2.7,0.9,4,1.4
		C57.9,10.9,58.7,11.5,59.6,12z"/>
	<path fill="#FCF0C3" d="M10.8,52.9c0.8,2,1.7,3.9,2.5,5.9c-0.4-0.6-0.8-1.1-1-1.7c-0.5-1.2-1-2.4-1.5-3.6
		C10.7,53.4,10.8,53.1,10.8,52.9z"/>
	<path fill="#EDC66A" d="M71.4,22.3c-0.4-0.4-0.9-0.9-1.3-1.3c-0.5-0.5-0.9-1.1-1.4-1.7c-0.1-0.2-0.2-0.4-0.3-0.6
		C69.4,19.9,70.4,21.1,71.4,22.3z"/>
	<path fill="#FCF0C3" d="M62.9,13.9c-1-0.6-2.1-1.2-3.1-1.9C60.9,12.5,62.1,12.9,62.9,13.9z"/>
	<path fill="#FCF0C3" d="M51.6,9c-1-0.2-2.1-0.4-3.1-0.6C49.5,8.4,50.6,8.4,51.6,9z"/>
	<path fill="#FCF0C3" d="M49.4,76.5c1.3-0.3,2.6-0.6,3.9-0.9"/>
	<path fill="#EDC66A" d="M67.9,18.2c-0.9-0.5-1.6-1.1-2.1-2C66.5,16.9,67.2,17.5,67.9,18.2z"/>
	<path fill="#EDC66A" d="M61.5,72c0.8-0.5,1.6-1.1,2.4-1.6C63.1,70.9,62.3,71.4,61.5,72z"/>
	<path fill="#FCF0C3" d="M9.6,47.5c0.2,1,0.4,2,0.6,3C10,50.2,9.8,50,9.8,49.8C9.7,49,9.6,48.2,9.6,47.5z"/>
	<path fill="#FCF0C3" d="M26.7,72.5c0.8,0.4,1.7,0.9,2.5,1.3C28.2,73.7,27.3,73.4,26.7,72.5z"/>
	<path fill="#FCF0C3" d="M77.1,50.6c0.2-0.9,0.4-1.8,0.6-2.7C78,48.9,77.6,49.8,77.1,50.6z"/>
	<path fill="#FCF0C3" d="M76.7,33c-0.2-0.6-0.4-1.2-0.6-1.9c0.3,0.5,0.6,1,0.9,1.5C77,32.7,76.8,32.9,76.7,33z"/>
	<path fill="#EDC66A" d="M75.2,56c0.3-0.8,0.7-1.7,1-2.5c0,0.2-0.1,0.4-0.1,0.6c-0.1,0.3-0.2,0.6-0.3,0.9c-0.1,0.3-0.2,0.5-0.3,0.8
		C75.4,55.9,75.3,56,75.2,56z"/>
	<path fill="#FCF0C3" d="M10.2,50.7c0.2,0.6,0.4,1.3,0.5,1.9C10.3,52,10,51.5,10.2,50.7z"/>
	<path fill="#FCF0C3" d="M65.1,15.6c-0.4-0.3-0.8-0.6-1.1-0.9c0.6,0,1.1,0.3,1.3,0.9C65.2,15.6,65.1,15.6,65.1,15.6z"/>
	<path fill="#FCF0C3" d="M76.5,52.9c0.2-0.6,0.4-1.3,0.6-1.9C77.3,51.8,76.8,52.3,76.5,52.9z"/>
	<path fill="#FCF0C3" d="M78,39.8c-0.1-0.7-0.2-1.4-0.3-2C77.8,38.5,77.9,39.2,78,39.8z"/>
	<path fill="#FCF0C3" d="M73.9,58.7L73.9,58.7c0.1-0.2,0.2-0.3,0.3-0.5c0-0.1,0-0.2,0.1-0.2s0.2,0,0.3-0.1c0.4,0.7-0.1,0.9-0.6,1.1
		C73.9,58.9,73.9,58.8,73.9,58.7z"/>
	<path fill="#FCF0C3" d="M47,76.9c0.6-0.1,1.2-0.2,1.7-0.3C48.2,76.7,47.6,76.8,47,76.9z"/>
	<path fill="#FCF0C3" d="M25.1,71.4c0.3,0.2,0.6,0.5,0.9,0.7c-0.5-0.3-1-0.6-1.5-0.9c0.1,0,0.2,0,0.3,0l0,0
		C24.9,71.3,25,71.4,25.1,71.4z"/>
	<path fill="#FCF0C3" d="M16,62.8L16,62.8c0,0.1,0.1,0.2,0.2,0.3c0.1,0.1,0.2,0.3,0.3,0.4c0,0.1,0,0.2,0.1,0.3"/>
	<path fill="#EDC66A" d="M72.1,61.8c0.3-0.4,0.6-0.9,0.9-1.3C72.7,60.9,72.4,61.4,72.1,61.8z"/>
	<path fill="#FCF0C3" d="M58.8,73.6L58.8,73.6c0.1-0.1,0.1-0.2,0.2-0.2c0.3-0.1,0.6-0.2,0.9-0.4"/>
	<path fill="#FCF0C3" d="M13.4,59c0.2,0.4,0.5,0.9,0.7,1.3C13.9,59.9,13.6,59.5,13.4,59z"/>
	<path fill="#EDC66A" d="M74.6,57.9c-0.1,0-0.2,0-0.3,0.1c0.2-0.4,0.5-0.9,0.7-1.3l0,0c0,0.1,0,0.1,0,0.2c-0.1,0.1-0.1,0.3-0.2,0.4
		c0,0.1-0.1,0.1-0.1,0.2C74.7,57.6,74.6,57.7,74.6,57.9z"/>
	<path fill="#EDC66A" d="M21.5,68.8c0.5,0,0.9,0.2,1,0.7c-0.2-0.1-0.3-0.1-0.5-0.2h-0.1c-0.1-0.1-0.2-0.2-0.3-0.3
		C21.5,69,21.5,68.9,21.5,68.8z"/>
	<path fill="#FCF0C3" d="M66.4,68.4c0-0.1,0-0.1,0-0.2c0.1-0.1,0.3-0.2,0.4-0.4c0.1-0.1,0.2-0.1,0.3-0.2"/>
	<path fill="#FCF0C3" d="M63.8,14.6c-0.3-0.2-0.7-0.5-1-0.7C63.2,14.2,63.5,14.4,63.8,14.6z"/>
	<path fill="#FCF0C3" d="M14.3,60.6c0.2,0.3,0.5,0.7,0.7,1C14.8,61.3,14.5,61,14.3,60.6z"/>
	<path fill="#FCF0C3" d="M68.8,66.1c0.1-0.1,0.1-0.3,0.2-0.4c0.1-0.1,0.2-0.2,0.3-0.3c0,0,0.1,0,0.1-0.1c0.1,0,0.1,0,0.2,0
		C69.6,65.9,69.3,66.1,68.8,66.1z"/>
	<path fill="#FCF0C3" d="M65.3,69.3c0.3-0.2,0.6-0.5,0.8-0.7C65.9,68.9,65.6,69.1,65.3,69.3z"/>
	<path fill="#EDC66A" d="M71.5,62.7c0.2-0.3,0.4-0.5,0.6-0.8C71.9,62.2,71.7,62.5,71.5,62.7z"/>
	<path fill="#EDC66A" d="M63.9,70.3c0.3-0.2,0.6-0.4,0.9-0.7C64.5,69.9,64.2,70.1,63.9,70.3z"/>
	<path fill="#FCF0C3" d="M77.7,47.3c0.1-0.4,0.1-0.9,0.2-1.3C77.9,46.5,77.8,46.9,77.7,47.3z"/>
	<path fill="#EDC66A" d="M19.3,66.9c0.5-0.1,0.8,0.2,0.8,0.7c-0.1,0-0.1,0-0.2,0C19.8,67.4,19.6,67.2,19.3,66.9z"/>
	<path fill="#EDC66A" d="M18.2,65.7c0.2,0.2,0.4,0.5,0.7,0.7c-0.1-0.1-0.2-0.1-0.3-0.2C18.5,66.1,18.4,65.9,18.2,65.7z"/>
	<path fill="#EDC66A" d="M22.6,69.7c0.3,0.2,0.5,0.4,0.8,0.6c-0.1,0-0.2,0-0.3,0s-0.1-0.1-0.2-0.1c-0.1-0.1-0.2-0.2-0.3-0.3
		C22.6,69.8,22.6,69.7,22.6,69.7z"/>
	<path fill="#FCF0C3" d="M23.9,70.6c0.1,0,0.1,0.1,0.2,0.1c0.1,0.1,0.1,0.2,0.2,0.3c-0.3-0.2-0.5-0.4-0.8-0.6c0.1,0,0.2,0,0.3,0l0,0
		C23.8,70.5,23.8,70.6,23.9,70.6z"/>
	<path fill="#FCF0C3" d="M77.7,37c-0.1-0.3-0.1-0.6-0.2-1C77.5,36.4,77.6,36.7,77.7,37z"/>
	<path fill="#EDC66A" d="M59.9,72.9c-0.3,0.1-0.6,0.2-0.9,0.4C59.3,73.1,59.6,73,59.9,72.9C60,72.9,60,72.9,59.9,72.9z"/>
	<path fill="#EDC66A" d="M65.1,15.6c0.1,0,0.1,0,0.2,0c0.2,0.2,0.3,0.4,0.5,0.6C65.3,16.3,65.1,16.1,65.1,15.6z"/>
	<path fill="#FCF0C3" d="M75.2,56c0.1-0.1,0.2-0.1,0.3-0.2c-0.1,0.2-0.2,0.4-0.3,0.6C75.2,56.3,75.2,56.2,75.2,56
		C75.2,56.1,75.2,56.1,75.2,56z"/>
	<path fill="#FCF0C3" d="M77,34.1c-0.1-0.3-0.2-0.5-0.2-0.8C76.9,33.6,77,33.8,77,34.1z"/>
	<path fill="#FCF0C3" d="M75.8,55.1c0.1-0.3,0.2-0.6,0.3-0.9C76,54.5,75.9,54.8,75.8,55.1z"/>
	<path fill="#EDC66A" d="M73,60.4c0.2-0.3,0.3-0.5,0.5-0.8C73.3,59.9,73.2,60.1,73,60.4z"/>
	<path fill="#EDC66A" d="M60.7,72.4c0.2-0.1,0.4-0.3,0.7-0.4C61.2,72.2,60.9,72.3,60.7,72.4z"/>
	<path fill="#FCF0C3" d="M22.6,69.7c0,0.1,0,0.1,0,0.2c-0.2-0.2-0.4-0.3-0.6-0.5c0.2,0.1,0.3,0.1,0.5,0.2l0,0
		C22.5,69.6,22.6,69.6,22.6,69.7L22.6,69.7z"/>
	<path fill="#EDC66A" d="M24.2,71.1c-0.1-0.1-0.1-0.2-0.2-0.3c0.3,0.2,0.5,0.3,0.8,0.5c-0.1,0-0.2,0-0.3,0
		C24.4,71.2,24.3,71.1,24.2,71.1z"/>
	<path fill="#FCF0C3" d="M54.4,75.3c0.2-0.1,0.4-0.1,0.6-0.2C54.8,75.2,54.6,75.2,54.4,75.3z"/>
	<path fill="#EDC66A" d="M71,63.4c0.2-0.2,0.3-0.4,0.5-0.6C71.3,62.9,71.2,63.1,71,63.4z"/>
	<path fill="#EDC66A" d="M68.4,18.7c-0.2-0.2-0.3-0.3-0.5-0.5C68.1,18.4,68.2,18.5,68.4,18.7z"/>
	<path fill="#EDC66A" d="M55.8,74.7c0.3-0.1,0.5-0.2,0.8-0.3v0.1c-0.1,0-0.1,0.1-0.2,0.1C56.2,74.7,56,74.7,55.8,74.7z"/>
	<path fill="#FCF0C3" d="M77.2,34.9c0-0.2-0.1-0.3-0.1-0.5C77.1,34.5,77.2,34.7,77.2,34.9z"/>
	<path fill="#EDC66A" d="M73.9,58.7c0,0.1,0,0.2,0,0.3c-0.1,0.1-0.2,0.2-0.3,0.3C73.7,59.1,73.8,58.9,73.9,58.7z"/>
	<path fill="#FCF0C3" d="M75.7,30c0-0.1,0-0.2,0-0.3c0.1,0.2,0.1,0.4,0.2,0.6C75.8,30.2,75.7,30.1,75.7,30z"/>
	<path fill="#FCF0C3" d="M57.8,74c0.2-0.1,0.4-0.2,0.5-0.3C58.1,73.8,57.9,73.9,57.8,74z"/>
	<path fill="#EDC66A" d="M70.5,63.9c0.1-0.1,0.2-0.3,0.4-0.4C70.8,63.6,70.6,63.8,70.5,63.9z"/>
	<path fill="#EDC66A" d="M69.6,65.3c-0.1,0-0.1,0-0.2,0c0.1-0.1,0.2-0.3,0.4-0.4C69.7,65,69.6,65.2,69.6,65.3z"/>
	<path fill="#FCF0C3" d="M15.1,61.7c0.1,0.1,0.2,0.1,0.3,0.2c0,0.1,0,0.2,0,0.3C15.2,62.1,15.1,61.9,15.1,61.7z"/>
	<path fill="#FCF0C3" d="M18.6,66.3c0.1,0.1,0.2,0.1,0.3,0.2l0,0c0,0.1,0,0.1,0,0.2C18.8,66.5,18.7,66.4,18.6,66.3z"/>
	<path fill="#EDC66A" d="M20.6,68c0.1,0.1,0.2,0.2,0.3,0.3C20.8,68.2,20.7,68.1,20.6,68z"/>
	<path fill="#FCF0C3" d="M21.6,69c0.1,0.1,0.2,0.2,0.3,0.3C21.8,69.2,21.7,69.1,21.6,69z"/>
	<path fill="#EDC66A" d="M18,65.3c0.1,0.1,0.2,0.2,0.3,0.3C18.2,65.5,18.1,65.5,18,65.3C17.9,65.4,18,65.4,18,65.3z"/>
	<path fill="#FCF0C3" d="M77.4,35.5c0-0.1,0-0.2-0.1-0.3C77.3,35.3,77.3,35.4,77.4,35.5z"/>
	<path fill="#FCF0C3" d="M26.1,72.2c0.1,0.1,0.3,0.2,0.4,0.3C26.3,72.3,26.2,72.3,26.1,72.2z"/>
	<path fill="#EDC66A" d="M58.8,73.4L58.8,73.4c-0.2,0.1-0.4,0.2-0.6,0.2C58.5,73.6,58.7,73.5,58.8,73.4z"/>
	<path fill="#EDC66A" d="M17.5,64.9c0.1,0.1,0.2,0.2,0.3,0.3C17.7,65.1,17.6,65,17.5,64.9z"/>
	<path fill="#EDC66A" d="M16.9,64.1c0.1,0.1,0.2,0.2,0.3,0.3C17.1,64.3,17,64.2,16.9,64.1z"/>
	<path fill="#EDC66A" d="M67.9,66.9c0.1-0.1,0.2-0.2,0.3-0.3C68.1,66.7,68,66.8,67.9,66.9z"/>
	<path fill="#EDC66A" d="M75.2,56.2c0,0.1,0,0.2,0,0.3v0.1h-0.1l0,0C75,56.5,75.1,56.3,75.2,56.2z"/>
	<path fill="#EDC66A" d="M68.3,66.4c0.1-0.1,0.2-0.2,0.3-0.3C68.6,66.2,68.5,66.3,68.3,66.4z"/>
	<path fill="#EDC66A" d="M23.7,70.5c-0.1,0-0.2,0-0.3,0v-0.1C23.5,70.4,23.6,70.4,23.7,70.5z"/>
	<path fill="#EDC66A" d="M76.3,53.3c0-0.1,0.1-0.2,0.1-0.4C76.4,53,76.3,53.1,76.3,53.3z"/>
	<path fill="#EDC66A" d="M15.3,62.2c0-0.1,0-0.2,0-0.3c0.1,0.1,0.1,0.2,0.2,0.3C15.4,62.3,15.4,62.3,15.3,62.2z"/>
	<path fill="#EDC66A" d="M16.6,63.9c0-0.1,0-0.2-0.1-0.3c0.1,0.1,0.1,0.2,0.2,0.3C16.7,63.8,16.6,63.8,16.6,63.9z"/>
	<path fill="#EDC66A" d="M17.2,64.4c0.1,0.1,0.1,0.2,0.2,0.3C17.3,64.6,17.2,64.5,17.2,64.4z"/>
	<path fill="#FCF0C3" d="M56.4,74.6c0.1,0,0.1-0.1,0.2-0.1C56.5,74.6,56.4,74.6,56.4,74.6z"/>
	<path fill="#EDC66A" d="M55.6,74.8c0.1,0,0.2-0.1,0.2-0.1v0.1C55.7,74.8,55.6,74.8,55.6,74.8z"/>
	<path fill="#FCF0C3" d="M53.7,75.6c0.1,0,0.2-0.1,0.4-0.1C53.9,75.5,53.8,75.5,53.7,75.6z"/>
	<path fill="#EDC66A" d="M18.9,66.6c0-0.1,0-0.1,0-0.2c0.1,0.1,0.2,0.2,0.3,0.2C19.1,66.6,19,66.6,18.9,66.6z"/>
	<path fill="#FCF0C3" d="M20,67.7c0.1,0,0.1,0,0.2,0c0,0,0.1,0,0.1,0.1v0.1C20.2,67.8,20.1,67.7,20,67.7z"/>
	<path fill="#FCF0C3" d="M76.1,30.9c0-0.1-0.1-0.2-0.1-0.3C76,30.6,76,30.8,76.1,30.9z"/>
	<path fill="#FCF0C3" d="M18,65.3c0,0.1,0,0.1,0,0.2c0-0.1-0.1-0.1-0.1-0.2C17.9,65.3,17.9,65.3,18,65.3z"/>
	<path fill="#EDC66A" d="M15.8,62.7c0.1,0.1,0.1,0.1,0.2,0.2"/>
	<path fill="#FCF0C3" d="M22.9,70.2c0.1,0,0.1,0.1,0.2,0.1C23.1,70.2,23,70.2,22.9,70.2z"/>
	<path fill="#FCF0C3" d="M75,56.6L75,56.6c0.1,0.1,0,0.1,0,0.2C75,56.7,75,56.7,75,56.6z"/>
	<path fill="#FCF0C3" d="M78,45.4c0-0.1,0-0.1,0-0.2C78,45.3,78,45.4,78,45.4L78,45.4z"/>
	<path fill="#EDC66A" d="M70.2,64.3c0-0.1,0.1-0.1,0.1-0.2C70.3,64.2,70.3,64.2,70.2,64.3z"/>
	<path fill="#EDC66A" d="M60.1,72.8c0.1,0,0.1-0.1,0.2-0.1C60.2,72.7,60.2,72.7,60.1,72.8z"/>
	<path fill="#FCF0C3" d="M78,44.8c0-0.1,0-0.1,0-0.2C78,44.7,78,44.7,78,44.8L78,44.8z"/>
	<path fill="#EDC66A" d="M57,74.2c0.1,0,0.1-0.1,0.2-0.1C57.2,74.2,57.1,74.2,57,74.2z"/>
	<path fill="#FCF0C3" d="M78,40.5c0-0.1,0-0.1,0-0.2C78,40.3,78,40.4,78,40.5C78.1,40.4,78,40.5,78,40.5z"/>
	<path fill="#FCF0C3" d="M14.1,60.3c0,0.1,0.1,0.1,0.1,0.2C14.2,60.5,14.2,60.4,14.1,60.3z"/>
	<path fill="#FCF0C3" d="M55.6,74.8c0.1,0,0.1,0,0.2,0C55.7,74.8,55.6,74.9,55.6,74.8C55.5,74.9,55.5,74.9,55.6,74.8z"/>
	<path fill="#EDC66A" d="M70.4,64.1c0-0.1,0.1-0.1,0.1-0.2C70.5,64,70.4,64.1,70.4,64.1z"/>
	<path fill="#EDC66A" d="M20.2,67.8L20.2,67.8c0.1,0,0.1,0,0.2,0.1C20.4,67.9,20.3,67.8,20.2,67.8z"/>
	<path fill="#EDC66A" d="M16.7,63.9c0,0.1,0.1,0.1,0.1,0.2C16.8,64.1,16.8,64,16.7,63.9z"/>
	<path fill="#EDC66A" d="M20.4,67.9l0.1,0.1C20.5,68,20.5,67.9,20.4,67.9z"/>
	<path fill="#FCF0C3" d="M74.7,57.4c0-0.1,0.1-0.1,0.1-0.2C74.8,57.3,74.8,57.4,74.7,57.4z"/>
	<path fill="#EDC66A" d="M56.6,74.4L56.6,74.4L56.6,74.4L56.6,74.4L56.6,74.4z"/>
	<path fill="#C8161A" d="M68.6,62.8c-1.9,2.2-3.9,4.2-6.3,5.9c-4.3,3-9,5-14.2,5.7C42,75.2,36,74.5,30.5,71.9
		c-10.4-5-16.7-13.1-18.6-24.5c-1.4-8.8,0.7-17,6.1-24.2c5.2-6.9,12.2-11.1,20.8-12.4c9.3-1.4,17.8,0.9,25.1,6.9
		c6.5,5.3,10.4,12.1,11.5,20.4c1.2,8.8-0.9,16.7-6.2,23.8c-0.1,0.2-0.2,0.3-0.3,0.5C68.8,62.5,68.7,62.7,68.6,62.8z M56.4,18.1
		L56.4,18.1c0,0-0.1,0.1-0.2,0.2l0,0c-0.1,0.1-0.1,0.1-0.2,0.2l0,0c-0.1,0.1-0.1,0.1-0.2,0.2c-0.1,0-0.1,0.1-0.2,0.1
		c-0.3,0.3-0.6,0.5-0.9,0.8l0,0c-0.5,0.2-0.7-0.3-1-0.5h-0.1c-0.2,0-0.4,0-0.6,0.1c0.3-1.1,0.7-2.1,1-3.1c0.3-0.9-0.1-1.6-0.9-1.7
		l0,0c-0.1-0.2-0.4-0.4-0.7-0.5c-0.7-0.2-1.5-0.2-2.2-0.4c-1.4-0.5-2.6,0.1-3.8,0.4c-0.1,0-0.2,0.3-0.3,0.4l0,0
		c-0.1,0.1-0.2,0.2-0.4,0.2l0,0c-0.1,0.1-0.2,0.1-0.3,0.2l0,0l0,0c-0.3,0.2-0.7,0.3-0.8,0.6c-0.2,0.5-0.5,0.6-1,0.6l0,0l0,0
		c-0.1-0.7-0.5-0.6-0.9-0.4c-0.1,0-0.2,0-0.3,0c-0.2-0.1-0.4-0.2-0.6-0.2c-0.6,0-1.3,0.1-1.9,0.2c0-0.1-0.1-0.2-0.1-0.3
		c0.2,0,0.4-0.2,0.7-0.3c0.8-0.2,1.6-0.2,2.3-0.4c0.5-0.1,0.9-0.5,1.2-0.8c0.1-0.1-0.1-0.5-0.3-0.7c-0.4-0.4-0.8-0.5-1.3-0.3
		c-0.2,0.1-0.5,0.1-0.7,0.2c-1.2,0.3-2.3,0.6-3.5,0.8l0,0c-0.2,0.2-0.5,0.3-0.8,0.4l0,0l0,0c-0.9,0-1.3,0.5-1.7,1.2
		c-0.6,1,0,2.4,1.1,2.6c0.8,0.1,1.7,0.1,2.5,0.1c0.3,0,0.6,0,0.9,0c0,0.1,0,0.2,0.1,0.3c-0.5,0.1-0.9,0.3-1.4,0.4
		c-0.7,0.1-1.5,0.2-2.2,0.4c-0.2,0-0.3,0.3-0.4,0.5c-0.2,0-0.3,0.1-0.5,0.1l0,0c-0.1-0.4,0.2-1-0.5-1.2l0,0c-0.5-0.6-0.8-0.6-1.1,0
		l0,0c-0.1,0.1-0.2,0.2-0.3,0.3l0,0c-0.2,0.4-0.4,0.8-0.6,1.2l0,0c-0.2,0-0.4,0-0.6,0.1c0.5-0.9,0.5-0.9,0.1-1.5l0,0
		c-0.1-0.1-0.1-0.2-0.2-0.3c0,0-0.1,0-0.1-0.1c-0.4-0.6-0.8-0.1-1.3-0.1c0-0.2,0-0.4,0.1-0.6l0,0c0.8,0,1.6,0.1,2.4,0.1
		c0.1,0,0.2-0.2,0.3-0.3l0,0c0.5-0.1,0.6-0.3,0.4-0.8c0-0.1,0-0.2,0-0.3s-0.1-0.2-0.1-0.3l0,0c-0.1-0.1-0.2-0.2-0.3-0.3l0,0
		c-0.5-0.7-2.3-0.6-3.1,0.2l0,0c-0.1,0.1-0.2,0.1-0.3,0.2l0,0c0,0-0.1,0-0.2,0.1l0,0c-0.7,0-1.1,0.2-1.3,0.9l0,0
		c-0.5,0-0.7,0.2-0.6,0.6l0,0c0,0.1-0.1,0.1-0.1,0.2l0,0l0,0c-0.1,0.1-0.1,0.2-0.2,0.3l0,0c0,0.1-0.1,0.1-0.1,0.2l0,0l0,0
		c-0.1,0.1-0.1,0.2-0.2,0.4l0,0l0,0c0,0.1-0.1,0.2-0.1,0.2c-0.1,0.2-0.1,0.4-0.2,0.5c-0.2,0.4-0.4,0.7-0.6,1.1l0,0
		c-0.1-0.1-0.1-0.3-0.2-0.4c-0.5-0.6-1.2-0.6-1.9-0.5c-0.9,0.1-1.5,0.9-1.4,2.2l0,0c-0.5,0.3-0.7,0.8-0.6,1.4l0,0
		c0,0.1-0.1,0.1-0.1,0.2l0,0l0,0c-0.8-0.2-0.9,0.6-1.4,0.9c0,0.1-0.1,0.2-0.1,0.3c1,1.2,2,2.4,3.1,3.6c0.6,0.6,1.6,0.5,2.1-0.2
		s0.5-1.6-0.1-2.4c-0.4-0.4-0.7-0.9-1.1-1.3C25.1,24.1,25,24.1,25,24l0,0c0-0.1-0.1-0.1-0.1-0.2l0,0c-0.1-0.1-0.2-0.2-0.2-0.2l0,0
		c0.1-0.5,0.3-0.6,0.8-0.5c0.2,0,0.4-0.1,0.7-0.2l0,0c0.4,0.1,0.7,0.1,0.7-0.4l0,0c0.6-0.2,0.7-0.5,0.4-1.1c0-0.1,0-0.2,0-0.3
		c0.1,0.2,0.3,0.4,0.4,0.6c0.5,1.3,1.9,1.8,2.8,1.5c0.2,0,0.3,0,0.5,0s0.6,0.2,0.7,0.1c0.5-0.3,1.3,0,1.6-0.8l0,0
		c0.5-0.1,1.1,0.1,1.1-0.8l0,0c1.1,0.1,1.1-1,1.6-1.5c0.3,0.1,0.5,0.2,0.8,0.3l0,0c0.4,0,0.8,0,1.2,0l0,0l0,0
		c0.8-0.1,1.6-0.2,2.4-0.3c1.7-0.1,3.2-0.6,4.2-2.1h0.1c0.6,1,0.6,1,1.2,1l0,0c0.1,0.1,0.2,0.1,0.3,0.2l0,0l0,0
		c0.2,0.2,0.3,0.5,0.5,0.6c0.9,0.2,1.8,0.4,2.7,0.6c0.4,0.1,0.9,0.2,1.3,0.4c0.6,0.3,1.5,0.3,1.8-0.1c0.1-0.1,0.3-0.1,0.4-0.2
		c0.3,0.2,0.7,0.4,1,0.5c0.8,0.2,1.5,0.6,1.7,1.4c0.2,0.7,0.6,0.8,1.2,0.5c0.4-0.1,0.8-0.2,1.3-0.3c0.3-0.1,0.6-0.1,0.7-0.1
		c-0.5,0.5-1,1.1-1.6,1.8c1.3,0.3,2.2,0.9,2.6,2l0,0c0.5,0.4,0.9,0.3,1.2-0.2l0,0c0.5-0.1,1.1-0.2,1.6-0.3c0,0.2,0,0.4,0,0.6l0,0
		c-0.1,0.2-0.2,0.4-0.3,0.5l0,0l0,0c-0.5,0.6-0.5,1.1,0,1.4l0,0c0.1,0.1,0.1,0.2,0.2,0.3l0.1,0.1c0.1,0.1,0.1,0.1,0.2,0.2l0,0
		c0.1,0.1,0.1,0.1,0.2,0.2l0,0c0.1,0,0.1,0.1,0.2,0.1l0,0l0,0c0.1,0.1,0.2,0.1,0.3,0.2l0,0l0,0c0.6,0.7,1.7,0.6,2.3-0.2
		c0-0.1-0.1-0.2-0.1-0.3c-0.1-0.3-0.1-0.5-0.2-0.8l0,0c0.1-0.1,0.1-0.2,0.2-0.2l0,0c0.1-0.1,0.2-0.2,0.3-0.2l0,0l0,0
		c0.1-0.1,0.3-0.2,0.4-0.4h0.1c0.1-0.1,0.1-0.1,0.2-0.2l0,0c0.1-0.1,0.2-0.2,0.3-0.3l0,0c0.6,0,0.7-0.3,0.6-0.8l0,0
		c0.5-0.6,0.5-1.5-0.2-1.8l0,0l0,0c-0.1-0.1-0.2-0.2-0.3-0.3c-0.1,0-0.1-0.1-0.2-0.1c-0.3-0.7-0.9-0.9-1.7-0.5c-0.1,0-0.2,0-0.3,0.1
		c-0.3,0-0.7,0.1-1,0.1c-0.2,0-0.4-0.1-0.6-0.2l0,0l0.1-0.1l0,0c0.7-0.4,0.8-1.5,0.2-2l0,0l0,0c-0.1-0.1-0.1-0.2-0.2-0.3l0,0
		c0-0.1,0-0.1,0-0.2c-0.1,0-0.2-0.1-0.3-0.1l0,0l0,0c-0.1-0.1-0.2-0.1-0.3-0.2l0,0C62.5,20.3,62.3,20,62,20c-0.7,0-1.4,0.1-2.1,0.1
		l0,0c0.9-1.4,0.6-2.6-0.9-3.2c-0.9-0.3-2.2,0.3-2.5,1.2l0,0h0.1C56.5,18,56.5,18.1,56.4,18.1z M27.6,58.5c0.1,0,0.1-0.1,0.2-0.1
		l0,0c0.6,0.2,1.1,0.5,1.7,0.7c0,0,0,0,0,0.1s-0.1,0.1-0.1,0.2c-0.1,0.1-0.1,0.1-0.2,0.2l-0.1,0.1c-0.5,0-0.6,0.2-0.5,0.6l0,0
		c-0.7,0-0.5,0.5-0.3,0.7c0.4,0.3,0.9,0.5,1.4,0.8c0.1,0,0.1,0,0.1,0.1c0.1,0.1,0.3,0.2,0.3,0.2c0.4-0.3,0.5,0,0.7,0.2
		c0.3,0.2,0.6,0.5,0.9,0.7s0.5,0.4,0.8,0.6v0.1c0.1,0.1,0.2,0.1,0.4,0.2c0.1,0,0.2,0,0.3,0c0.1,0.1,0.2,0.1,0.3,0.2
		c0,0,0,0.1,0.1,0.1c0.2,0.2,0.3,0.3,0.5,0.5c0.1-0.1,0.2-0.2,0.2-0.3l0,0c0.1,0.1,0.3,0.1,0.3,0.2c0,1,0.7,0.8,1.3,0.7l0,0
		c0.1,0,0.2,0.1,0.4,0.1h0.1c0.2,0.1,0.3,0.1,0.5,0.2c0.1,0.1,0.1,0.1,0.2,0.2c0.3,0,0.6,0.1,1,0.1c0.3,0,0.6,0,0.9,0
		c0.2,0.1,0.5,0.2,0.7,0.4l0,0c0,0.3,0.1,0.6,0.1,0.8l0,0c0.4,0.4,0.8,0.4,1.1-0.1l0,0l0,0c0.9,0,0.4-0.6,0.4-0.9l0,0
		c0.2,0,0.3,0.1,0.5,0.1c0.1,0.1,0.1,0.2,0.2,0.3c0.3,0.1,0.6,0.4,0.9,0.4c0.6,0.1,1.2,0.1,1.8,0c0.3,0,0.8,0.3,0.8-0.3l0,0l0,0
		c0.1-0.1,0.2-0.2,0.3-0.4v-0.1c0.4-0.4,0.3-0.7-0.2-0.9l0,0c0-0.2,0-0.3,0.1-0.5c0.2-0.3,0.4-0.8-0.1-0.9c-0.5-0.1-1.1-0.5-1.5,0.3
		l0,0c0,0.1-0.1,0.1-0.1,0.2l0,0c-0.2,0-0.3-0.1-0.5-0.1c-0.1-0.1-0.2-0.2-0.3-0.3c-0.3-0.1-0.6-0.3-0.9-0.4c-0.4-0.1-0.9,0-1.4,0
		c-0.4,0-0.8,0.1-1.1,0.2l0,0c0,0,0,0,0,0.1c-0.2,0-0.4,0.1-0.6,0.1l0,0c0.1-0.5,0-0.8-0.7-0.8c-0.5,0-1.1-0.4-1.6-0.7
		c-0.7-0.4-1.3-0.1-2,0c0-0.1-0.1-0.3-0.1-0.4c0.2-0.2,0.3-0.5,0.5-0.7c-0.1,0-0.1-0.1-0.2-0.1c-0.1,0.2-0.3,0.5-0.4,0.7
		c-0.1,0-0.3-0.1-0.4-0.1c0-0.1-0.1-0.1-0.1-0.2l0,0c0-0.1,0.1-0.2,0.1-0.3v-0.1c0-0.1,0-0.1,0.1-0.2c0-0.1,0-0.2-0.1-0.3
		s-0.2-0.3-0.2-0.3c-0.2,0.1-0.4,0.2-0.5,0.3c0,0.1-0.1,0.1-0.1,0.2c-0.3,0-0.6-0.1-0.9-0.1l0,0l0,0c-0.2-0.1-0.3-0.3-0.5-0.4
		c-0.2-0.2-0.3-0.4-0.5-0.6l0,0c0.6,0,0.4-0.5,0.3-0.6c-0.2-0.2-0.6-0.3-0.9-0.5l0,0c-0.1-0.1-0.1-0.1-0.2-0.2l0,0
		c-0.1-0.1-0.3-0.2-0.4-0.3c-0.1,0-0.1,0-0.2,0C30.1,58.1,30.1,58,30,58c0-0.1,0-0.1,0-0.2c0-0.5-0.3-0.8-0.8-0.8v-0.1
		c0.1-0.5-0.2-0.6-0.6-0.5c-0.3,0.1-0.5,0.2-0.8,0.2l0,0c-0.1-0.1-0.1-0.1-0.2-0.2l0,0c-0.3-0.3-0.6-0.4-0.8,0.1l0,0
		c-0.1,0.1-0.2,0.1-0.3,0.2l0,0c-0.1,0.1-0.1,0.1-0.2,0.2l0,0c-0.7,0.1-1.1,0.6-1,1.3c0.1,0.5,0.9,1.4,1.4,1.3
		c0.1,0,0.2-0.3,0.3-0.5l0.1-0.1C27.5,58.6,27.6,58.5,27.6,58.5L27.6,58.5z M68.9,56.5L68.9,56.5c0,0-0.1-0.1-0.2-0.2l0,0l0,0
		c0.1-0.5-0.1-0.7-0.6-0.6l0,0l0,0c0.1-0.4-0.1-0.5-0.5-0.5l0,0c0-0.5,0.2-0.6,0.6-0.5c0.1,0.1,0.1,0.2,0.2,0.3
		c0.2,0.1,0.4,0.3,0.5,0.2c0.4-0.1,1-1.1,0.8-1.6c-0.2-0.4-0.7-0.6-1.1-0.9c-0.2-0.1-0.5,0-0.6-0.2c-0.4-0.4-0.7-0.2-1,0.2
		c-0.7,0.3-0.4,1-0.4,1.5h-0.1c0,0.1-0.1,0.1-0.1,0.2v-0.1v0.1c-0.7,0.1-0.3,0.7-0.5,1c0,0.1-0.1,0.1-0.1,0.2
		c-0.2,0.1-0.4,0.2-0.5,0.3c-0.4,0.7-0.8,1.4-1.3,2.1c-0.2,0.3-0.6,0.4-0.8,0.6c-0.1,0.2-0.1,0.4-0.1,0.7c0,0.1,0,0.2,0,0.3
		c-0.1,0.5,0,0.6,0.7,0.6l0,0c-0.1,0.4,0,0.5,0.4,0.4c0.1,0,0.1,0.1,0.2,0.1c0.1,0.1,0.1,0.1,0.2,0.2c0.4,0.3,0.9,0.5,1.3,0.8
		c0.4-0.2,0.5-0.4,0.2-0.8l0,0c0-0.3,0-0.5,0-0.8l0,0c0-0.1,0-0.2,0-0.3s0-0.1-0.1-0.2c0.1-0.1,0.2-0.2,0.3-0.3
		c0.2-0.1,0.3-0.2,0.5-0.3l0.1-0.1c0-0.1,0.1-0.1,0.1-0.2l0,0c0.4-0.1,0.9-0.3,0.5-0.9v-0.1c-0.2-0.1-0.3-0.2-0.5-0.3l0,0
		c0-0.4,0.1-0.6,0.5-0.4c0.2,0.1,0.5,0.1,0.8,0.2l0,0l0,0c0.2,0.1,0.4,0.4,0.6,0.3c0.2-0.1,0.4-0.3,0.6-0.5
		c-0.2-0.1-0.3-0.2-0.5-0.4l0,0l0,0C69,56.6,69,56.6,68.9,56.5z M63.8,54.6L63.8,54.6c0,0-0.1-0.1-0.2-0.2l0,0
		c0.1-0.2,0.3-0.4,0.4-0.6l0,0c0,0.6,0.3,0.4,0.5,0.3c0.1,0,0.2,0,0.3-0.1c0.1-0.1,0.1-0.2,0.2-0.3l0,0c0-0.1,0-0.3,0-0.4l0,0
		c0.1-0.2,0.2-0.5,0.4-0.7l0,0l0,0c0.1-0.1,0.1-0.1,0.2-0.2l0,0c0.1-0.1,0.1-0.2,0.2-0.3l0,0c0.3-0.3,0.3-0.5,0-0.8l0,0
		c-0.1-0.1-0.1-0.2-0.2-0.3c-0.1,0-0.2-0.1-0.2-0.1c-0.1-0.1-0.1-0.2-0.2-0.4c0.2,0,0.4,0,0.6,0c0.2-0.1,0.3-0.1,0.5-0.2l0,0
		c0.1,0,0.1-0.1,0.2-0.1l0,0c0.2,0,0.3,0,0.5-0.1c0-0.3,0-0.5,0-1c0.3,0.5,0.7,0.7,0.7,1.1c0.3,1.2,1.2,1.7,2.5,1.2l0,0h0.1
		c0.1-0.1,0.1-0.1,0.2-0.2l0,0c0.6-0.3,0.7-0.9,0.4-1.4c0,0,0-0.1-0.1-0.1c0.1-0.3,0.2-0.6,0.3-1l0,0c0.5-0.4,0.5-0.8,0-1.2
		c-0.1,0-0.3,0-0.4-0.1c-0.1-0.1-0.2-0.1-0.3-0.2c-0.1,0-0.2-0.1-0.3-0.1c-0.2,0-0.3,0-0.5-0.1c-0.1,0-0.2,0-0.3,0
		c-0.3-0.1-0.7-0.2-0.6,0.4v0.1c-0.1,0.2-0.3,0.5-0.2,0.7c0.2,0.5-0.1,0.6-0.4,0.7l0,0c-0.1-0.1-0.2-0.2-0.3-0.3
		c-0.1,0.1-0.1,0.2-0.2,0.2l0,0c-0.3,0.1-0.6,0.1-0.9,0.2l0,0c0.1-0.2,0.1-0.4,0.2-0.6l0,0c0.1-0.1,0.1-0.1,0.2-0.2l0,0
		c0.1-0.1,0.1-0.1,0.2-0.2l0,0c0-0.1,0.1-0.1,0.1-0.2v-0.1c0.1-0.1,0.4-0.2,0.4-0.2c-0.1-0.3-0.3-0.5-0.4-0.8l0,0c0,0,0.1-0.1,0-0.1
		c-0.4-0.9-1.3-0.2-1.9-0.6c-0.1,0-0.3,0.2-0.5,0.3l0,0c-0.5,0.2-0.7,0.5-0.3,0.9l0,0c0.1,0.1,0.1,0.2,0.2,0.3l0,0l0.1,0.1l0,0
		c0,0.1-0.1,0.3-0.1,0.4h-0.1c-0.6-0.1-0.8,0.1-0.8,0.7c0,0.4,0,0.9,0,1.3l0,0c-0.2,0.1-0.3,0.2-0.5,0.3l0,0
		c-0.1,0.1-0.1,0.2-0.2,0.3l0,0c-0.1,0.2-0.3,0.3-0.2,0.5c0.1,0.5-0.2,0.4-0.4,0.5c0-0.1-0.1-0.1-0.1-0.2c0,0-0.1,0-0.1-0.1
		c-0.1,0-0.3,0-0.4,0c-0.1,0.2-0.1,0.3-0.2,0.5c0.1,0.1,0.1,0.2,0.2,0.3c0.1,0.2,0.1,0.4,0.2,0.6c0,0.1,0,0.1,0.1,0.2l0,0
		c-0.1,0.2-0.3,0.5-0.4,0.7c0,0,0,0-0.1,0c-0.1,0.2-0.3,0.4-0.4,0.6l0,0C61.1,55,61,55,60.9,55.1l0,0l0,0c-0.1,0.2-0.2,0.3-0.3,0.5
		l0,0c-0.1,0.1-0.1,0.2-0.2,0.2l0,0c-0.1,0.1-0.1,0.2-0.2,0.2l0,0l0,0c-0.4,0.2-0.7,0.4-1.2,0.7c0,0.1-0.3,0.4-0.3,0.7
		c0,0.4,0.1,0.7,0.2,1.2c-0.2-0.1-0.5-0.2-0.7-0.3v-0.1c0-0.1,0-0.2,0-0.3s0-0.2,0-0.3s0.1-0.3,0.1-0.3c-0.3-0.2-1,0-1.2,0.5
		c0.1,0.2,0,0.2-0.1,0.3V58v0.1c-0.7,0.2-0.6,0.8-0.5,1.2c0.2,0.8,0.7,1.1,1.4,0.9c0.1,0.3,0.2,0.6,0.3,0.8l0,0
		c0,0.2,0.1,0.4,0.2,0.6c0.4-0.5,1.4,0,1.3-1v-0.1c0.1-0.2,0.1-0.3,0.2-0.5c0-0.1,0-0.2,0-0.3c0.4-0.2,0.8-0.4,1.2-0.6
		c0.1-0.1,0.2-0.2,0.3-0.3c0.4-0.4,0.7-0.8,1.1-1.3l0,0c0.1-0.1,0.1-0.1,0.2-0.2l0,0c0.1-0.1,0.2-0.2,0.3-0.3
		c-0.2-0.1-0.4-0.2-0.6-0.3l0,0c-0.2-0.4-0.4-0.8-0.6-1.2v-0.1c0.3,0,0.6,0,0.9,0l0,0c0.2,0.4,0.5,0.6,0.9,0.3c0.1,0,0.2,0,0.3,0
		c0.5,0.2,0.3-0.2,0.3-0.4l0,0c0.3-0.3,0.3-0.5-0.2-0.6l0,0C63.9,54.7,63.9,54.7,63.8,54.6z M62.3,61.2c0-0.1-0.1-0.1-0.1-0.2
		c-0.5-0.4-0.6,0.2-0.9,0.3c-0.4,0.2-0.9,0.4-1.3,0.6c0-0.1-0.1-0.1-0.1-0.2c-0.1-0.1-0.1-0.1-0.2-0.2h-0.1
		c-0.2,0.1-0.4,0.2-0.4,0.3c-0.2,0.5-0.3,1-0.3,1.6c0,0.3,0.3,0.6,0.5,0.9l0,0c0.1,0.1,0.1,0.2,0.2,0.3l0,0l0,0
		c-0.2,0.6,0.3,0.7,0.7,0.8c0.6,0.1,1.2,0,1.4-0.8c0.4-0.3,0.7-0.6,1.1-0.9c0.3-0.4,0.6-0.8,0.9-1.2c-0.1-0.1-0.1-0.2-0.2-0.3l0,0
		l-0.1-0.1l0,0L63.3,62l0,0l-0.1-0.1l0,0c-0.1-0.1-0.1-0.1-0.2-0.2c0,0-0.1,0-0.1-0.1c-0.1-0.1-0.2-0.2-0.2-0.2l0,0
		C62.5,61.3,62.4,61.3,62.3,61.2L62.3,61.2z M38.8,67.8L38.8,67.8c-0.1,0-0.2,0-0.3,0c-0.2,0-0.4,0-0.6,0c0,0-0.1,0-0.1-0.1v0.1
		c-0.2,0.4-0.4,0.8-0.7,1.4c0-0.3-0.1-0.5-0.1-0.8c0-0.6-0.1-1.3-0.1-1.9l-0.1-0.1c-0.1-0.3-0.3-0.5-0.6-0.2h-0.1
		c-0.8-0.1-0.5,0.6-0.6,0.9l0,0c-0.6,0-0.5,0.4-0.5,0.8c-0.2,0.4-0.5,0.9-0.7,1.3c0.3,0.4,1.8,0.9,2.3,0.8c0.1,0,0.2-0.1,0.2-0.1
		c0.4,0.3,0.8,0.6,1.3,0.9c0.1,0,0.4-0.3,0.6-0.4l0,0c0.2,0,0.5,0,0.7,0.1l0,0c0.2,0.2,0.5,0.5,0.7,0.5c0.3,0,0.8,0.3,0.8-0.3
		c0,0,0-0.1,0.1-0.1c0.3,0,0.5,0.1,0.8,0.1l0,0c0.2,0.6,1,0.7,1.6,0.2c0.2-0.1,0.5-0.2,0.7-0.2l0,0c0.2,0.2,0.4,0.4,0.6,0.5
		c0.2,0,0.5-0.2,0.7-0.3l0,0l0,0c0.1-0.1,0.1-0.1,0.2-0.2l0,0c0.2,0,0.4,0,0.6,0l0.1,0.1c0.2,0,0.4,0,0.6,0l0,0
		c0.3,0,0.6,0.1,0.8,0.1c0.1,0,0.3-0.1,0.4-0.2h0.1h0.1c0.9,0.4,1.7-0.4,2.5-0.3c0.1,0,0.2-0.2,0.3-0.3V70c0.7,0.1,1.4,0.3,1.5-0.7
		c0.5,0.1,1,0.7,1.4-0.1l0.1-0.1c0.1-0.1,0.1-0.1,0.2-0.2l0,0c0.2-0.2,0.4-0.3,0.7-0.5c0.1,0,0.3,0.1,0.4,0.1c0.6,0.5,0.7,0,0.9-0.4
		c0.1,0,0.2-0.1,0.3-0.1c0.1-0.1,0.2-0.3,0.2-0.4c0-0.1-0.1-0.1-0.1-0.2c0.1,0,0.3-0.1,0.4-0.1v0.1v-0.1c0.2,0,0.4,0,0.6,0
		c0.4-0.2,0.9-0.4,0.9-1c-0.1-0.9-0.9-0.7-1.3-0.8c0.1-0.3,0.3-0.6,0.4-0.9c-0.6-0.6-1.2-0.3-1.7,0.6c-0.4,0.2-0.7,0.3-1,0.5l0,0
		c-0.3,0.3-1-0.2-1,0.6l0,0c-0.4,0-0.9,0.1-1.3,0.2c-0.2,0-0.3,0.3-0.4,0.5l0,0c-0.3-0.1-0.6-0.3-0.8-0.4c-0.1-0.1-0.2-0.2-0.3-0.3
		c-0.1,0-0.3,0-0.4,0l0,0c-0.1,0.1-0.2,0.2-0.4,0.2c-0.2,0.1-0.3,0.1-0.5,0.2c0,0-0.1,0-0.1-0.1c-0.5-0.4-0.7-0.2-0.8,0.3
		c0,0.5-0.2,0.6-0.7,0.7c-0.4,0.1-1.1-0.2-1.2,0.6l0,0c-0.1-0.2-0.2-0.4-0.2-0.6c0-0.4-0.2-0.7-0.6-0.6c-0.4,0.1-0.7,0.4-1.1,0.5
		c0.1,0.1,0.3,0.1,0.4,0.2c0,0,0.1,0.1,0,0.1c-0.1,0.1-0.2,0.2-0.4,0.2c-0.3,0.1-0.5,0.1-0.8,0.1c-0.3,0.2-0.5,0.4-0.8,0.6
		c-0.1,0-0.3,0-0.4,0c-0.4-0.7-0.9-0.7-1.5-0.5c-0.3-0.1-0.6-0.1-0.8-0.2h-0.1c-0.3-0.4-0.7-0.4-1.1-0.1l0,0c-0.2,0-0.5,0-0.7,0
		L38.8,67.8C39,67.9,38.9,67.9,38.8,67.8z M23.4,47.5c-0.1-0.1-0.2-0.1-0.3-0.2l0,0l0,0c-0.1-0.1-0.1-0.2-0.2-0.4l0,0
		c0.4,0.1,0.5-0.2,0.4-0.5c0-0.1,0-0.2,0-0.3c0.4,0.2,0.7,0.5,1,0.7l0.1-0.1c-0.1-0.3-0.2-0.6-0.3-0.9c-0.2,0-0.3-0.1-0.5-0.1
		c-0.1,0-0.1,0-0.2,0c-0.2-0.1-0.3-0.2-0.5-0.2l0,0c0.1-0.2,0.2-0.3,0.4-0.5c0.1-0.2,0.2-0.3,0.3-0.5c0-0.1,0.1-0.1,0.1-0.2
		c0.8-0.3,0-1,0.3-1.5c0,0-0.3-0.4-0.5-0.6l-0.1-0.1c-1,0.1-1.9,0.3-2.9,0.4h-0.1c-0.5-0.1-0.6,0.3-0.4,0.6c0.3,0.4,0.2,0.8,0.1,1.2
		c-0.2,0.6,0.1,0.9,0.7,0.8c0,0.1,0.1,0.1,0.1,0.2l0,0c-0.1,0.1-0.2,0.3-0.4,0.4l0,0c-0.2,0.5-0.5,1,0.3,1.2l0,0
		c-0.1,0.4-0.1,0.9-0.1,1.3c0,0.1,0.2,0.3,0.3,0.4c0,0,0,0,0,0.1c0.1,0.2,0.1,0.5,0.2,0.7c0.1,0.3,0.3,0.5,0.4,0.7l0,0
		c-0.1,0.1-0.4,0.3-0.4,0.3c0.2,0.4,0.5,0.8,0.7,1.2c0.1,0.2,0.3,0.4,0.4,0.6c0.2,0.5,0.4,1,0.6,1.5c0.3-0.1,0.5-0.1,0.7-0.2
		c0,0.2,0,0.3,0,0.5c-0.1,0.3-0.1,0.6-0.2,0.9c0.1,0.3,0.1,0.6,0.2,0.8c0.4,0.6,0.8,0.6,1.2,0l0,0c0.2-0.1,0.3-0.2,0.5-0.3l0,0
		c0.1,0,0.1-0.1,0.2-0.1c0,0,0.1-0.1,0.1,0c0.8-0.1,1.1-0.3,0.8-0.9l0,0c-0.1-0.1-0.1-0.2-0.2-0.3l0,0l0,0c0-0.1-0.1-0.1-0.1-0.2
		c-0.1-0.1-0.2-0.1-0.3-0.2c0-0.5-0.2-0.8-0.7-0.6c0-0.1,0-0.2,0-0.4c0-0.1,0.1-0.2,0.1-0.3c0.4-0.4,0.2-0.7-0.3-0.9l0,0
		c-0.1-0.1-0.2-0.2-0.3-0.3c-0.1,0-0.1,0-0.1-0.1c-0.1-0.2-0.2-0.3-0.3-0.5c0.2-0.9,0-1.2-1-1.5c-0.2-0.1-0.5-0.2-0.7-0.2
		c0.1-0.2,0.1-0.5,0.2-0.7c0.1,0,0.2,0,0.3,0c0,0.1,0,0.3,0,0.4c0.2,0,0.4,0,0.6,0c0-0.3,0-0.7,0-1C23.5,47.7,23.4,47.6,23.4,47.5
		L23.4,47.5L23.4,47.5z M56.2,60.8c-0.1-0.1-0.2-0.1-0.3-0.2c-0.4-0.4-0.8-0.5-1.1,0c-0.1,0.1-0.1,0.1-0.2,0.2c-0.3,0-0.7,0-1,0l0,0
		c-0.1-0.1-0.2-0.2-0.3-0.4c-0.1,0.2-0.3,0.4-0.4,0.6c0,0.1,0,0.2,0,0.3c-0.1,0.1-0.1,0.2-0.2,0.2c-0.8,0.3-0.6,1-0.5,1.6
		s0.3,1.2,1.1,1.3l0,0l0,0c0.5,0.3,0.9,0.3,1.1-0.3l0,0c0.2-0.1,0.3-0.2,0.5-0.3c0-0.1,0-0.1,0-0.2c0.2-0.1,0.5-0.1,0.7-0.2
		c0.3-0.1,0.6-0.3,0.9-0.4c0.1-0.1,0.1-0.1,0.2-0.2c0.3-0.2,0.7-0.4,0.1-0.8c-0.2-0.3-0.3-0.6-0.5-0.9C56.3,61,56.3,60.9,56.2,60.8z
		 M66.8,35.3c0,0.1,0.1,0.1,0.1,0.2c0.1,0,0.1,0.1,0.2,0.1c0.2,0.9,0.6-0.2,0.9,0.1c0,0.5-0.1,0.9-0.1,1.4c0.2,0,0.3,0,0.4,0
		c0.1,0.1,0.1,0.2,0.2,0.3c-0.2,0.1-0.5,0.2-0.7,0.3c-0.3,0.1-0.3,0.1-0.1,0.5c0.1,0.1,0.1,0.2,0.2,0.3c0,0,0,0.1,0.1,0.1l0,0l0,0
		c0.3,0.5,0.7,1.1,1,1.6l0,0c0.1,0.2,0.2,0.4,0.3,0.6c0,0,0,0.1-0.1,0.1c-0.1,0.2-0.4,0.5-0.3,0.7c0,0.3,0.3,0.5,0.5,0.7l0,0
		c-0.1,0.1-0.3,0.3-0.4,0.3c-0.6-0.1-0.8,0.1-0.9,0.6c-0.1,0.6,0.3,0.8,0.8,0.7H69c-0.1,0.2-0.3,0.4-0.4,0.6c-0.2,0.3-0.3,0.7-0.5,1
		c0.3,0.1,0.6,0.4,0.9,0.4c0.9,0.1,1.8,0,2.9,0c0-0.9,0-1.8,0-2.8V43c-0.2-0.1-0.4-0.2-0.4-0.2c0.2-0.6,0.6-1.1,0.6-1.6
		c0-0.4-0.3-0.9-0.4-1.3c0-0.1,0-0.2,0-0.3c0.1-0.1,0.2-0.2,0.4-0.3c-0.2,0-0.4-0.1-0.6-0.1c-0.1-0.1-0.2-0.3-0.2-0.3
		c-0.2,0-0.3,0.2-0.5,0.2c-0.2,0-0.4-0.1-0.6-0.2c0.2-0.1,0.3-0.3,0.5-0.3c0.2-0.1,0.5-0.1,0.7-0.2c0.3-0.2,0.5-0.5,0-0.7
		c0-0.1-0.1-0.1-0.1-0.2c0-0.8,0.2-1.6-0.4-2.3c-0.3-0.5,0.1-1.3-0.7-1.6v-0.1c0.1-0.1,0.2-0.1,0.3-0.2c-0.2-0.1-0.3-0.3-0.5-0.4
		c-0.2-0.1-0.4-0.1-0.4-0.1c0-0.4-0.1-0.8-0.1-1.2c-1.3,1.1-1.3,1.1-2.5,1.1c-0.4,0.3-0.1,0.4,0.1,0.5l0,0l0,0c0,0.6,0,1.2,0,1.8
		l0,0c0,0.1-0.1,0.1-0.1,0.2l0,0l0,0C66.9,35.2,66.8,35.2,66.8,35.3C66.7,35.1,66.7,35.2,66.8,35.3L66.8,35.3z M50.9,63
		c0-0.1-0.1-0.1-0.1-0.2l0,0c-0.2-0.3-0.4-0.6-0.7-0.8l0,0c-0.1-0.1-0.2-0.2-0.3-0.3c-0.1,0.2-0.3,0.5-0.4,0.7v0.1
		c-0.2,0.4-0.4,0.7-0.9,0.6c-0.2,0-0.4,0.2-0.7,0.4l0,0c-0.1,0.1-0.2,0.2-0.3,0.3l0,0c-0.5,0.8-0.4,1.6,0.3,2l0,0
		c0,0.4,0.2,0.6,0.6,0.3c0.1,0,0.2,0,0.3,0S48.9,66,49,66c0,0,0-0.1,0.1,0c0.1-0.1,0.1-0.1,0.2-0.2l0,0c0.4-0.1,0.8-0.2,1.1-0.3h0.1
		c0.1,0.1,0.2,0.2,0.3,0.2c0.1-0.1,0.1-0.2,0.2-0.3c0.1-0.1,0.2-0.1,0.3-0.2c0.1-0.1,0.2-0.1,0.3-0.2c-0.1-0.1-0.2-0.3-0.3-0.4
		c-0.1,0-0.2-0.1-0.3-0.1c-0.1-0.4-0.1-0.8-0.2-1.1l0,0l0,0c0.1,0,0.2-0.1,0.2-0.1C51,63.2,51,63.1,50.9,63L50.9,63z M27.5,63.9
		c-0.1,0.1-0.2,0.2-0.3,0.3c-0.8,0.4-0.3,1.1-0.3,1.6c0.8,0.4,1.5,0.7,2.2,1.1l0,0c0.2,0.1,0.4,0.2,0.6,0.3l0.1,0.1
		c0.1,0.1,0.2,0.1,0.3,0.2l0,0c0.2,0.1,0.4,0.2,0.6,0.4c0.4,0.2,0.8,0.4,1.2,0.6c0.2,0.2,0.5,0.4,0.8,0.7c0.1-0.9,0.2-1.5,0.3-2.2
		c0.2-0.1,0.4-0.2,0.6-0.4c0.3-0.2,0.5-0.4,0-0.6s-1-0.3-1.5-0.5c-0.6-0.6-1.2-1.2-2.1-1.2l0,0l0,0c0-0.8-0.5-1-1.2-1
		c-0.5-0.6-0.8-0.6-1.1,0.1C27.6,63.6,27.6,63.7,27.5,63.9C27.6,63.9,27.5,63.9,27.5,63.9z M57.7,37.5c0.1,0,0.2,0,0.2,0
		c2.4,0,4.3-2,4.3-4.3c0-2.4-2-4.4-4.4-4.4c-0.5,0-0.9,0-1.2-0.4c-3.3-3.3-7.2-5.1-11.8-5.5c-0.5,0-1.1-0.3-1.5-0.6
		c-2.2-1.7-5.3-1-6.6,1.5c-0.2,0.3-0.4,0.6-0.7,0.7c-4.7,2.3-7.9,5.9-9.6,10.8c-0.1,0.4-0.4,0.7-0.7,1c-1.7,1.3-2.2,3.9-1,5.7
		c1.2,1.9,3.5,2.6,5.7,1.6c1.9-0.9,4,0.2,4.4,2.2c0.2,0.8,0.6,1.4,1.3,1.8c0.9,0.5,1.2,1.3,1,2.3c-0.2,0.9-0.7,1.7-1.5,2.2
		c-1.6,1-2.3,2.5-2,4.4c0.5,3.3,4,4.7,6.8,2.9c0.3-0.2,0.7-0.2,1-0.3c1.1,0,2.3,0.1,3.4,0c2.9-0.1,5.6-0.9,8.1-2.5
		c1-0.6,1.9-1,3.1-0.9c2.3,0.2,4.2-1.7,4.4-3.9c0.2-2.3-1.5-4.3-3.7-4.7c-0.6-0.1-1.2-0.4-1.7-0.7c-1.2-0.8-1.4-1.8-0.6-3.1
		c0.5-0.7,0.6-1.5,0.4-2.3C54.2,39.2,55.6,37.5,57.7,37.5z M14.9,42.6c0,0.3,0,0.6,0,0.9c0,0.3,0.1,0.6,0.1,0.9
		c0.2,4.1,1.3,7.9,3.2,11.6c1.3,2.4,2.8,4.6,4.7,6.5c0.5,0.5,1.1,0.5,1.5,0.1s0.4-1.1,0-1.6c-0.3-0.3-0.5-0.6-0.8-0.9
		c-6.7-8-8.4-17-5-26.8c0.4-1.3,1.1-2.5,1.7-3.7c0.4-0.8,0.1-1.6-0.7-1.7c-0.6-0.1-0.9,0.3-1.2,0.8C16.1,33,15,37.6,14.9,42.6z
		 M60.1,61.4C60.1,61.4,60.2,61.4,60.1,61.4c0.1-0.1,0.1-0.2,0-0.2H60C60.1,61.3,60.1,61.4,60.1,61.4z"/>
	<path fill="#EDC66A" d="M13.3,26.3c0.8-1.3,1.5-2.6,2.3-3.8c0.5-0.8,1.2-1.4,1.8-2.1c-0.1,0.2-0.1,0.5-0.2,0.6
		c-1.2,1.7-2.4,3.4-3.5,5.2C13.5,26.3,13.4,26.3,13.3,26.3z"/>
	<path fill="#EDC66A" d="M21.5,16.2c0.6-0.5,1.1-1.1,1.7-1.5c0.7-0.5,1.4-0.9,2.2-1.3c-0.8,0.6-1.7,1.3-2.5,1.9
		C22.5,15.6,22,15.9,21.5,16.2z"/>
	<path fill="#FCF0C3" d="M11,31.3c-0.2-0.6,0.2-1.7,0.8-2c0,0.1,0,0.2,0,0.3c0,0.1,0,0.1,0,0.2v0.1c-0.1,0.2-0.2,0.4-0.3,0.6l0,0
		C11.3,30.8,11.2,31,11,31.3z"/>
	<path fill="#FCF0C3" d="M10,35c-0.1-1,0.1-1.8,0.7-2.6c0,0.1,0,0.2,0,0.3c-0.1,0.2-0.1,0.3-0.2,0.5C10.4,33.8,10.2,34.4,10,35z"/>
	<path fill="#EDC66A" d="M17.3,20.4c0.5-0.6,1-1.1,1.5-1.7C18.4,19.2,17.8,19.8,17.3,20.4z"/>
	<path fill="#EDC66A" d="M19.8,17.7c0.6-0.5,1.1-1,1.7-1.5C21,16.7,20.4,17.2,19.8,17.7z"/>
	<path fill="#EDC66A" d="M25.9,13.1c0.6-0.3,1.1-0.7,1.7-1C27,12.4,26.4,12.8,25.9,13.1z"/>
	<path fill="#EDC66A" d="M37.9,8.5c0.2,0,0.3,0,0.5,0c-0.5,0.6-1.1,0.4-1.7,0.4c0.3-0.1,0.6-0.2,0.9-0.3C37.7,8.6,37.8,8.5,37.9,8.5
		z"/>
	<path fill="#FCF0C3" d="M30.6,10.6c0.2-0.5,0.5-0.8,1.1-0.5v0.1h-0.1c-0.2,0.1-0.3,0.2-0.5,0.2H31c-0.1,0-0.1,0-0.2,0
		C30.7,10.7,30.6,10.6,30.6,10.6z"/>
	<path fill="#FCF0C3" d="M9.6,37.4c-0.2-0.4-0.3-0.8,0.2-1.1C9.7,36.6,9.7,37,9.6,37.4z"/>
	<path fill="#EDC66A" d="M34.5,9.3c0.3-0.1,0.6-0.1,0.9-0.2c0.1,0,0.2,0,0.4,0c-0.4,0.1-0.8,0.2-1.3,0.3C34.5,9.3,34.5,9.3,34.5,9.3
		z"/>
	<path fill="#EDC66A" d="M11,31.3c0.1-0.3,0.3-0.5,0.4-0.8c-0.1,0.4-0.3,0.8-0.4,1.3l0,0c0-0.1,0-0.1,0-0.2C11,31.5,11,31.4,11,31.3
		z"/>
	<path fill="#EDC66A" d="M27.8,11.9c0.1-0.1,0.3-0.1,0.4-0.2c0.2-0.1,0.4-0.1,0.6-0.2c-0.4,0.2-0.7,0.3-1.1,0.5
		C27.8,12,27.8,11.9,27.8,11.9z"/>
	<path fill="#EDC66A" d="M12.7,27.3c0.1-0.2,0.2-0.4,0.3-0.6h0.1c-0.1,0.3-0.2,0.6-0.4,0.9C12.7,27.5,12.7,27.4,12.7,27.3z"/>
	<path fill="#EDC66A" d="M12.1,28.7c0.1-0.2,0.3-0.5,0.4-0.7c-0.1,0.3-0.3,0.7-0.4,1C12.1,28.9,12.1,28.8,12.1,28.7z"/>
	<path fill="#EDC66A" d="M31.7,10.3L31.7,10.3c0.1-0.2,0.3-0.2,0.4-0.3c0.1,0,0.2,0,0.3,0C32.2,10.1,31.9,10.2,31.7,10.3z"/>
	<path fill="#FCF0C3" d="M28.8,11.5c-0.2,0.1-0.4,0.1-0.6,0.2c0-0.5,0.4-0.5,0.7-0.4C28.9,11.4,28.9,11.5,28.8,11.5z"/>
	<path fill="#FCF0C3" d="M34.5,9.3v0.1c-0.1,0-0.1,0-0.2,0c-0.2,0.1-0.3,0.1-0.5,0.2c-0.1,0-0.1,0-0.2,0C33.9,9.4,34.2,9.3,34.5,9.3
		z"/>
	<path fill="#EDC66A" d="M11.4,30.5c0.1-0.2,0.2-0.4,0.3-0.6C11.6,30.1,11.5,30.3,11.4,30.5z"/>
	<path fill="#EDC66A" d="M18.9,18.7c0.2-0.2,0.3-0.3,0.5-0.5C19.2,18.4,19,18.5,18.9,18.7z"/>
	<path fill="#EDC66A" d="M19.3,18.2c0.2-0.2,0.3-0.3,0.5-0.5C19.7,17.9,19.5,18.1,19.3,18.2z"/>
	<path fill="#EDC66A" d="M29.7,11h0.1c0.1,0,0.2,0,0.3,0c-0.2,0.1-0.3,0.1-0.5,0.2C29.6,11.1,29.7,11,29.7,11z"/>
	<path fill="#FCF0C3" d="M30.1,10.9c-0.1,0-0.2,0-0.3,0c0.2-0.1,0.4-0.2,0.7-0.3C30.3,10.7,30.2,10.8,30.1,10.9z"/>
	<path fill="#F08051" d="M68.6,62.8c0.1-0.1,0.2-0.3,0.4-0.4C68.8,62.5,68.7,62.7,68.6,62.8z"/>
	<path fill="#EDC66A" d="M25.4,13.4c0.2-0.1,0.3-0.2,0.5-0.3C25.7,13.2,25.6,13.3,25.4,13.4z"/>
	<path fill="#EDC66A" d="M66.9,67.8c-0.1,0.1-0.3,0.2-0.4,0.4C66.6,68,66.8,67.9,66.9,67.8z"/>
	<path fill="#EDC66A" d="M31,10.6c0.2-0.1,0.3-0.2,0.5-0.2C31.3,10.4,31.2,10.5,31,10.6z"/>
	<path fill="#EDC66A" d="M33.8,9.6c0.2-0.1,0.3-0.1,0.5-0.2C34.1,9.5,34,9.5,33.8,9.6z"/>
	<path fill="#FCF0C3" d="M35.7,9.1c-0.1,0-0.2,0-0.4,0c0.1,0,0.2,0,0.3-0.1C35.7,9,35.7,9,35.7,9.1z"/>
	<path fill="#EDC66A" d="M74.2,58.2c-0.1,0.1-0.2,0.2-0.3,0.4C74.1,58.4,74.1,58.3,74.2,58.2z"/>
	<path fill="#EDC66A" d="M10.8,32.4c0-0.2,0-0.4,0.1-0.6H11l0,0C10.9,32,10.9,32.2,10.8,32.4z"/>
	<path fill="#EDC66A" d="M69.3,65.4c-0.1,0.1-0.2,0.2-0.3,0.3C69.1,65.6,69.2,65.5,69.3,65.4z"/>
	<path fill="#FCF0C3" d="M9.9,35.6c0-0.1,0-0.2,0.1-0.3C9.9,35.4,9.9,35.5,9.9,35.6z"/>
	<path fill="#FCF0C3" d="M12.1,28.7c0,0.1,0,0.2,0,0.3H12h-0.1C12,28.9,12,28.8,12.1,28.7z"/>
	<path fill="#FCF0C3" d="M12.7,27.3c0,0.1,0,0.2,0,0.3h-0.1h-0.1C12.6,27.5,12.7,27.4,12.7,27.3z"/>
	<path fill="#FCF0C3" d="M27.8,11.9V12c-0.1,0-0.1,0-0.2,0c0-0.1,0-0.2,0-0.2C27.6,11.8,27.7,11.9,27.8,11.9z"/>
	<path fill="#FCF0C3" d="M13.2,26.6L13.2,26.6c0-0.1,0-0.2,0.1-0.3C13.2,26.4,13.2,26.5,13.2,26.6z"/>
	<path fill="#EDC66A" d="M32.9,9.7c0.2,0,0.4,0,0.6-0.1c-0.2,0.1-0.4,0.1-0.6,0.2C32.9,9.8,32.9,9.8,32.9,9.7z"/>
	<path fill="#EDC66A" d="M10.5,33.2c0.1-0.2,0.1-0.3,0.2-0.5C10.6,32.8,10.6,33,10.5,33.2z"/>
	<path fill="#FCF0C3" d="M32.5,10c-0.1,0-0.2,0-0.3,0c0.1,0,0.2-0.1,0.3-0.1V10z"/>
	<path fill="#EDC66A" d="M36.2,8.9c0.1,0,0.3,0,0.4-0.1C36.5,8.9,36.3,8.9,36.2,8.9z"/>
	<path fill="#EDC66A" d="M9.4,39.2c0-0.2,0.1-0.3,0.1-0.5C9.5,38.9,9.5,39.1,9.4,39.2z"/>
	<path fill="#EDC66A" d="M25.1,71.4c-0.1-0.1-0.2-0.1-0.3-0.2C24.9,71.3,25,71.4,25.1,71.4z"/>
	<path fill="#EDC66A" d="M16.2,63.1C16.1,63,16,62.9,16,62.8C16,62.9,16.1,63,16.2,63.1z"/>
	<path fill="#FCF0C3" d="M29.7,11c0,0.1,0,0.1,0,0.2c-0.1,0-0.2,0-0.3,0C29.4,11.1,29.6,11,29.7,11z"/>
	<path fill="#EDC66A" d="M30.7,10.7c0.1,0,0.1,0,0.2,0C30.8,10.6,30.8,10.6,30.7,10.7z"/>
	<path fill="#FCF0C3" d="M32.9,9.7L32.9,9.7c-0.1,0.1-0.1,0.1-0.2,0.1C32.8,9.8,32.9,9.8,32.9,9.7z"/>
	<path fill="#EDC66A" d="M22.6,69.7c-0.1,0-0.1-0.1-0.2-0.1C22.5,69.6,22.6,69.6,22.6,69.7z"/>
	<path fill="#EDC66A" d="M11.8,29.7c0-0.1,0-0.1,0-0.2C11.8,29.6,11.8,29.7,11.8,29.7L11.8,29.7z"/>
	<path fill="#EDC66A" d="M23.9,70.6c-0.1-0.1-0.1-0.1-0.2-0.2C23.8,70.5,23.8,70.6,23.9,70.6z"/>
	<path fill="#FCF0C3" d="M37.9,8.5c-0.1,0-0.2,0.1-0.3,0.1C37.7,8.6,37.8,8.5,37.9,8.5z"/>
	<path fill="#FCF0C3" d="M11,31.8h-0.1c0-0.1,0.1-0.1,0.1-0.2C11,31.7,11,31.7,11,31.8z"/>
	<path fill="#FAB739" d="M57.7,37.5c-2.2,0-3.6,1.7-3,3.8c0.2,0.8,0.1,1.6-0.4,2.3c-0.8,1.2-0.6,2.3,0.6,3.1
		c0.5,0.3,1.1,0.6,1.7,0.7c2.3,0.4,3.9,2.4,3.7,4.7s-2.1,4.1-4.4,3.9c-1.2-0.1-2.1,0.3-3.1,0.9c-2.5,1.5-5.2,2.4-8.1,2.5
		c-1.1,0-2.3-0.1-3.4,0c-0.3,0-0.7,0.1-1,0.3c-2.8,1.8-6.3,0.3-6.8-2.9c-0.3-1.8,0.4-3.3,2-4.4c0.8-0.5,1.3-1.3,1.5-2.2
		c0.2-1-0.1-1.8-1-2.3c-0.7-0.4-1.2-1-1.3-1.8c-0.4-2-2.5-3-4.4-2.2c-2.1,1-4.4,0.3-5.7-1.6c-1.2-1.8-0.7-4.4,1-5.7
		c0.3-0.2,0.6-0.6,0.7-1c1.7-4.9,5-8.5,9.6-10.8c0.3-0.1,0.6-0.4,0.7-0.7c1.3-2.5,4.4-3.1,6.6-1.5c0.4,0.3,1,0.5,1.5,0.6
		c4.6,0.4,8.6,2.2,11.8,5.5c0.4,0.4,0.7,0.4,1.2,0.4c2.3,0,4.4,2,4.4,4.4s-1.9,4.3-4.3,4.3C57.9,37.5,57.8,37.5,57.7,37.5z
		 M43.7,47.6L43.7,47.6c0-0.1,0.1-0.1,0.1-0.2l0,0c0.1-0.1,0.1-0.2,0.2-0.3c1.4-1.3,3.5-0.9,4.4,0.8c0.3,0.5,0.6,1,1.1,1.3
		c0.8,0.6,2.8,0.2,3.2-0.4c0.8-1.3,0-3.6-1.4-4.2c-0.6-0.2-1.2-0.6-1.5-1.2c-1.2-1.9,0-3.9,2.3-4.2c1.1-0.2,1.9-0.9,2-2
		c0-0.6,0.1-1.5-0.2-1.8c-1.2-1.1-3-1.7-4.2,0.2c-0.7,1-2,1.4-3.2,0.9c-1.1-0.4-1.9-1.6-1.7-2.8c0.2-1.1-0.3-1.9-0.9-2.6
		c-0.6-0.6-1.3-1.1-2.2-0.9c-1,0.2-1.9,2.1-1.7,3.1c0.1,0.5,0.4,0.9,0.6,1.4c0.5,1.1,0.3,2.4-0.5,3.2c-0.8,0.8-2.1,1-3.1,0.4
		c-1.1-0.7-2.1-0.4-2.9,0.3c-1,0.7-1.4,1.6-0.8,2.8c0.8,1.4,2,1.9,3.3,1.3c1.2-0.6,2.6-0.1,3.3,1c0.7,1,0.6,2.6-0.3,3.4
		c-1.1,0.9-1.1,2-0.7,3.2c0.4,1.4,1.1,1.7,2.5,1.4c1.3-0.3,2-1.3,2.1-2.6c0-0.5,0.2-0.9,0.4-1.4C43.6,47.7,43.7,47.6,43.7,47.6z
		 M36.2,26.8c-3.5,1.9-6.1,4.7-7.5,8.4c0.8,0.4,1.7,0.6,2.3,1.1c0.8,0.7,1.7,0.8,2.6,0.7c0.9-0.1,1.5-0.6,1.7-1.5
		c0.2-1.2,0.9-1.9,2.1-2.2c0.3-0.1,0.6-0.4,0.8-0.6c0.6-1.4,0.2-2.6-0.6-3.8C37,28.3,36.7,27.6,36.2,26.8z M55,29.7
		c-2.7-2.6-6-4.2-9.8-4.6c-0.2,1-0.5,2-0.6,3c-0.2,1.8,0.3,3.5,2.8,3.2c0.9-0.1,1.6,0.4,2.2,1c1,1.1,3.5,0.7,4.2-0.5
		C54.1,31.1,54.5,30.5,55,29.7z M52.6,54.6c-0.4-0.7-0.7-1.4-1-2c-0.5-1-1.3-1.6-2.3-1.8c-0.4-0.1-1,0-1.3,0.2
		c-0.8,0.7-1.7,0.9-2.7,0.7c-0.8-0.2-1.5,0.1-1.9,0.7c-0.4,0.5-0.7,1.1-0.9,1.7c-0.2,1-0.2,2-0.3,3.1C46,57.6,49.5,56.7,52.6,54.6z"
		/>
	<path fill="#FAB739" d="M14.9,42.6c0.1-5,1.2-9.6,3.6-13.9c0.3-0.5,0.6-0.8,1.2-0.8c0.8,0.1,1.1,0.9,0.7,1.7
		c-0.6,1.2-1.3,2.4-1.7,3.7c-3.3,9.9-1.7,18.8,5,26.8c0.3,0.3,0.5,0.6,0.8,0.9c0.5,0.5,0.5,1.2,0,1.6c-0.4,0.4-1,0.4-1.5-0.1
		c-1.9-1.9-3.5-4.1-4.7-6.5c-1.9-3.6-3-7.5-3.2-11.6c0-0.3-0.1-0.6-0.1-0.9C14.9,43.2,14.9,42.9,14.9,42.6z"/>
	<path fill="#B12435" d="M52.8,20.5c0.3-0.3,0.6-0.7,1-1c0-0.1,0.1-0.3,0.1-0.4c0.3,0.2,0.5,0.6,1,0.5c-0.4,0.4-0.8,0.8-1.2,1.3
		C55,21,55.8,21.7,56,23c1.3-0.4,2.6-0.8,3.8-1.1c0.1,0,0.2,0,0.3,0c-0.8,0.8-1.7,1.5-2.6,2.3c1.7,0.4,2.2,0.9,2.2,2.2
		c-0.5-1.1-1.3-1.8-2.6-2c0.6-0.7,1.1-1.3,1.6-1.8c-0.2,0-0.5,0.1-0.7,0.1c-0.4,0.1-0.9,0.2-1.3,0.3c-0.6,0.2-1,0.2-1.2-0.5
		c-0.2-0.8-0.9-1.2-1.7-1.4C53.4,20.9,53.1,20.7,52.8,20.5z"/>
	<path fill="#B12435" d="M45.8,67.8c-0.1-0.1-0.3-0.1-0.4-0.2c0.4-0.2,0.7-0.5,1.1-0.5c0.4-0.1,0.6,0.2,0.6,0.6
		c0,0.2,0.1,0.4,0.2,0.6c0.1,0.2,0.2,0.4,0.3,0.6c0,0.1,0,0.1,0,0.2c-0.4,0.9-0.2,1.5,0.6,1.7C48,70.9,47.8,71,47.7,71
		c-0.3,0-0.6-0.1-0.8-0.1c0-0.7-0.1-1.4-0.1-2s-0.3-0.7-0.8-0.5c0.1,0.8,0.1,1.6,0.2,2.4c-0.2,0-0.4,0-0.6,0c0-0.2,0-0.4,0-0.6
		c-0.3,0-0.5,0-0.8,0.1c0-0.3,0-0.7,0-0.9c0.4-0.1,0.6-0.1,0.9-0.2c-0.1-0.2-0.2-0.5-0.4-0.6c-0.1-0.1-0.3-0.1-0.5-0.1
		c0.3,0,0.5-0.1,0.8-0.1c0.1,0,0.3-0.2,0.4-0.2c0.3,0.2,0.6,0.4,0.8-0.1c0.1-0.1,0-0.4-0.1-0.4C46.1,67.2,45.9,67.4,45.8,67.8z"/>
	<path fill="#B12435" d="M42.4,15.6c-0.8,0.1-1.5,0.2-2.3,0.2c-0.3,0-0.6-0.2-0.9-0.3c0.2-0.3,0.4-0.7,0.6-0.7
		c0.8-0.2,1.7-0.3,2.5-0.5c0.4-0.1,0.8-0.2,1.1-0.3c0.2-0.1,0.3-0.4,0.3-0.6c0-0.1-0.4-0.3-0.5-0.3c-1,0.1-2.1,0.3-3.1,0.4
		c-0.6,0.1-1.2,0.2-1.8,0.3c1.2-0.3,2.3-0.6,3.5-0.8c0.2-0.1,0.5-0.1,0.7-0.2c0.5-0.3,1-0.1,1.3,0.3c0.2,0.2,0.4,0.6,0.3,0.7
		c-0.3,0.3-0.7,0.6-1.2,0.8c-0.8,0.2-1.6,0.3-2.3,0.4c-0.4,0-0.6,0.2-0.9,0.3c0,0.1,0.1,0.2,0.1,0.3c0.6-0.1,1.3-0.2,1.9-0.2
		C42,15.4,42.2,15.5,42.4,15.6z"/>
	<path fill="#B12435" d="M36.4,65.2c0.2-0.5,0.4-1,0.6-1.5c0.3-0.8-0.3-1.5-1.1-1.3c-0.2,0-0.3,0.3-0.4,0.5c0.4,0.1,0.6,0.2,0.8,0.3
		v0.1c-0.1,0-0.2,0-0.3,0c-0.7-0.2-1,0.2-1.1,0.8c-0.1,0.5,0.2,0.8,0.7,0.9c0.1,0,0.3,0.1,0.4,0.2c-0.6,0.1-1.3,0.3-1.3-0.7
		c0-0.1-0.2-0.1-0.3-0.2c0.3-0.7,0.6-1.3,0.9-2c0.7-0.1,1.3-0.4,2,0c0.5,0.3,1.1,0.7,1.6,0.7c0.7,0,0.7,0.2,0.7,0.8
		c-0.5-0.3-1.1-0.6-1.7-0.9c-0.3,1-0.5,1.8-0.7,2.6C36.8,65.3,36.6,65.2,36.4,65.2z"/>
	<path fill="#B12435" d="M37.5,14.1c-0.4,0.3-0.9,0.6-1.2,1c-0.9,1.1-0.5,2.4,0.9,2.6c0.7,0.1,1.5,0,2.3,0c0.5,0,1.2-0.4,1.3,0.3
		c0.1,0.7-0.7,0.7-1.2,0.8c-1.1,0.2-2.1,0.5-3.2,0.7c0.1-0.2,0.3-0.5,0.4-0.5c0.7-0.2,1.5-0.2,2.2-0.4c0.5-0.1,0.9-0.3,1.4-0.4
		c0-0.1,0-0.2-0.1-0.3c-0.3,0-0.6,0-0.9,0c-0.8,0-1.7,0.1-2.5-0.1c-1.1-0.2-1.6-1.6-1.1-2.6C36.1,14.6,36.6,14.1,37.5,14.1z"/>
	<path fill="#B12435" d="M37.8,20.4c1.1-0.2,2.1-0.4,3.2-0.6c1-0.2,1.9-0.5,2.6-1.2c0.9-0.9,0.9-1.7,0-2.6c0.5,0,0.8-0.1,1-0.6
		c0.1-0.3,0.5-0.4,0.8-0.6c-1.3,1.4-1.2,2.8,0.3,4.3c-0.6,0-0.6,0-1.2-1h-0.1c-1,1.5-2.5,2-4.2,2.1C39.4,20.1,38.6,20.3,37.8,20.4z"
		/>
	<path fill="#B12435" d="M52.4,67c-0.4,0.7-0.1,1.3,0.3,1.9c0.4,0.5,0.8,0.4,1.3,0.3c-0.4,0.8-0.9,0.2-1.4,0.1
		c-0.1,1.1-0.8,0.8-1.5,0.7c-0.1-0.2-0.1-0.4-0.2-0.6c-0.1-0.1-0.2-0.2-0.4-0.3c-0.1-0.3-0.4-0.7,0.1-1c0.1,0-0.1-0.5-0.1-0.5
		C50,67.5,50,67.1,50,66.7c0.2-0.1,0.3-0.1,0.5-0.2c0.1-0.1,0.2-0.2,0.4-0.2c-0.4,0.5,0.2,0.7,0.2,1c0.2,0.8,0.3,1.7,0.5,2.6
		c0.4-0.1,0.6-0.2,0.8-0.3c-0.2-0.8-0.4-1.5-0.7-2.1c-0.2-0.3-0.3-0.6-0.1-0.9C51.8,66.7,52.1,66.8,52.4,67z"/>
	<path fill="#B12435" d="M67.7,34.4c0.6-1.1,0.9-1.2,2.3-1c0.8,0.3,0.4,1.1,0.7,1.6c0,0-0.1,0-0.1,0.1c-0.4,0.1-0.9,0.1-1.3,0.2
		c-1.2,0.3-1.3,0.5-0.9,1.7c0,0-0.1,0-0.1,0.1c-0.1,0-0.3,0-0.4,0c0.1-0.5,0.1-1,0.1-1.4c-0.3-0.3-0.7,0.8-0.9-0.1
		c0.2-0.2,0.5-0.3,0.7-0.5c0.9,0.1,1.7-0.4,2.6-0.6c-0.1-0.3-0.2-0.5-0.3-0.7C69.3,34,68.5,34.2,67.7,34.4z"/>
	<path fill="#B12435" d="M69.4,42.3c0.6,0,1.2,0.2,1.7,0c0.3-0.1,0.6-0.6,0.6-1c0.1-0.5-0.3-0.8-0.8-0.8s-1.1,0.2-1.6,0.3
		c-0.1-0.2-0.2-0.4-0.3-0.6c0.5,0,1,0,1.5-0.1c0.2,0,0.4-0.1,0.6-0.1c0.2-0.1,0.4-0.1,0.6-0.2c0.2,0.4,0.5,0.9,0.4,1.3
		c0,0.5-0.4,1-0.6,1.6c0,0,0.2,0.1,0.4,0.2c-1.1-0.1-2.2-0.1-3.3-0.2c-0.3,0.5-0.1,0.8,0.4,1.1c-0.7,0.2-1,0-1-0.6
		c0.1-0.5,0.3-0.8,0.9-0.6C69,42.6,69.2,42.4,69.4,42.3z"/>
	<path fill="#B12435" d="M65.4,58.2c0,0.1,0,0.3,0.1,0.4c-0.1,0.1-0.2,0.2-0.2,0.2c-0.9-0.5-0.9-0.5-2.1,0.6c0-0.2,0-0.5,0.1-0.7
		c0.2-0.2,0.6-0.4,0.8-0.6c0.5-0.7,0.8-1.4,1.3-2.1c0.1-0.2,0.3-0.2,0.5-0.3c-0.1,0.2-0.1,0.3-0.2,0.5c0.8,0.2,1.5,0.3,2.2,0.5
		c0.2,0.1,0.4,0.3,0.7,0.4c-0.3,0-0.5-0.1-0.8-0.2c-0.4-0.2-0.5,0-0.5,0.4c-0.3-0.2-0.6-0.4-0.9-0.6c-0.7-0.5-1.5,0-1.5,0.8
		c0,0.2,0.3,0.3,0.5,0.5C65.2,58.2,65.3,58.2,65.4,58.2z"/>
	<path fill="#B12435" d="M59,20.2c0.1-0.1,0.3-0.3,0.4-0.4c0.8-0.7,1-1.5,0.5-2.2c-0.5-0.7-1.7-0.8-2.5-0.3
		c-0.3,0.2-0.6,0.4-0.9,0.6c0.2-0.9,1.6-1.5,2.5-1.2c1.4,0.5,1.8,1.8,0.9,3.2c0,0,0,0,0,0.1c0,0,0,0,0-0.1c0.7-0.1,1.4-0.2,2.1-0.1
		c0.3,0,0.5,0.3,0.8,0.5c-1.3-0.7-2.5,0-3.7,0.3C59.1,20.5,59.1,20.3,59,20.2z"/>
	<path fill="#B12435" d="M61.5,58.8c0-0.3,0.1-0.5,0.1-0.9c-0.2,0-0.4,0-0.6,0l-0.1-0.1c0-0.2,0-0.6-0.1-0.6
		c-0.4-0.2-0.8-0.3-1.2-0.3c-0.2,0-0.5,0.5-0.5,0.7c-0.1,0.9,1,1.6,2,1.5c-0.4,0.2-0.8,0.4-1.2,0.6c-0.5-0.9-0.7-1-1.9-0.8
		c0-0.1,0.1-0.3,0.1-0.4c0,0,0.1,0,0.1-0.1c0.2,0.1,0.4,0.2,0.7,0.3c-0.1-0.5-0.2-0.8-0.2-1.2c0-0.3,0.2-0.6,0.3-0.7
		c0.5-0.3,0.8-0.5,1.2-0.7c0.6,0.5,1.1,1,1.7,1.4c0.1,0.1,0.4,0,0.6,0C62.2,58,61.9,58.4,61.5,58.8z"/>
	<path fill="#B12435" d="M49.8,66.7c-0.7,0.5-0.8,1.2-0.3,1.8c0.1,0.2,0.2,0.5,0.3,0.8c0.3,1,0.3,1,1.3,0.7
		c-0.1,0.1-0.2,0.3-0.3,0.3c-0.9-0.1-1.6,0.7-2.5,0.3c0.3-0.1,0.7-0.2,1-0.3c-0.1-2.2-0.3-2.9-2-2.1c0.1-0.8,0.8-0.5,1.2-0.6
		c0.5-0.1,0.6-0.2,0.7-0.7C49.1,66.5,49.4,66.3,49.8,66.7z"/>
	<path fill="#B12435" d="M32.9,60.6c-1.2-0.5-2,0.1-2.1,1.7c-0.2-0.2-0.3-0.5-0.7-0.2c0,0-0.2-0.1-0.3-0.2c0.2-0.1,0.4-0.3,0.6-0.3
		C30.3,61,29.2,61,30,60.2c0.2,0.1,0.4,0.2,0.7,0.5c0-0.3,0.1-0.6,0.1-0.8s-0.1-0.4-0.1-0.5c0.2,0.1,0.4,0.1,0.5,0.2
		c0.1,0.1,0.3,0.2,0.4,0.4c-0.1,0.1-0.2,0.2-0.3,0.3c0.1,0,0.3,0.1,0.3,0.1c0.1-0.2,0.2-0.4,0.3-0.5l0.1-0.1
		c0.2,0.2,0.3,0.4,0.5,0.6C32.5,60.3,32.7,60.4,32.9,60.6z"/>
	<path fill="#B12435" d="M30.1,64.3c-0.4,0.6-0.8,1.1-1.1,1.7c-0.1,0.2,0,0.6,0.1,0.8c-0.7-0.4-1.5-0.7-2.2-1.1
		c0-0.5-0.5-1.1,0.3-1.5c0,0,0,0,0.1,0.1c-0.5,1-0.4,1.1,1.1,1.9c0.3-0.3,0.5-0.7,0.8-1c0.6-0.9,0.6-1.1-0.2-1.8c0,0,0-0.1,0.1-0.1
		C29.5,63.3,30,63.5,30.1,64.3z"/>
	<path fill="#B12435" d="M22.9,45.5c-0.6,0-1.2,0-1.8-0.1L21,45.3c-0.1,0-0.2,0-0.3,0l0,0c-0.6,0-0.9-0.3-0.7-0.8
		c0.1-0.4,0.2-0.8-0.1-1.2c-0.2-0.3-0.1-0.7,0.4-0.6c-0.2,0.6-0.1,0.9,0.6,0.9c0,0.1,0,0.2,0,0.3c-0.6,0.1-0.8,0.5-0.5,1.1
		c0.2-0.1,0.5-0.1,0.7-0.2c0.4-0.2,0.6-0.2,1.1,0c0.4,0.1,0.9-0.1,1.4-0.2c-0.1,0.2-0.2,0.3-0.3,0.5C23.2,45.1,23.1,45.3,22.9,45.5z
		"/>
	<path fill="#B12435" d="M71.6,43.7c0.1-0.2,0.1-0.4,0.2-0.6c0,1,0,1.9,0,2.8c-1,0-1.9,0-2.9,0c-0.3,0-0.6-0.3-0.9-0.4
		c0.2-0.3,0.3-0.7,0.5-1c0.1-0.2,0.3-0.4,0.4-0.6c0.1,0,0.2,0.1,0.3,0.1s0.1,0,0.2,0.1h0.1c0,0.1-0.1,0.2-0.1,0.3
		c-0.5,0.3-1.4,0.1-1.2,1.2c0.9,0.1,1.8,0.1,2.8,0.2c0.6,0,0.8-0.2,0.6-0.8c-0.3,0-0.6,0-1.1-0.1c0.5-0.2,0.8-0.3,1.2-0.5
		c-0.2-0.1-0.3-0.2-0.4-0.3C71.4,43.9,71.5,43.8,71.6,43.7z"/>
	<path fill="#B12435" d="M30.5,65c-0.2-0.2-0.3-0.5-0.5-0.7c0.9-0.1,1.5,0.5,2.1,1.2v0.1c-0.1,0.1-0.2,0.2-0.2,0.3
		c0.2,0.9-0.3,1.4-1,1.8c-0.1,0-0.1,0.2-0.2,0.3l-0.1,0.1c-0.2-0.1-0.4-0.2-0.6-0.4c0.3-0.3,0.5-0.6,0.8-0.9
		c0.3-0.4,0.5-0.8,0.9-1.5c-0.4,0-0.7,0-1,0C30.7,65.1,30.6,65.1,30.5,65z"/>
	<path fill="#B12435" d="M44.2,64.2c0.1,0.4,0.3,0.8,0.4,1.2c0,0.1-0.1,0.2-0.1,0.3c-0.4,0.5-0.2,0.8,0.4,0.8c0.3,0,0.5,0,0.7-0.1
		c-0.1,0.6-0.5,0.3-0.8,0.3c-0.6,0-1.2,0.1-1.8,0c-0.3,0-0.6-0.3-0.9-0.4c0,0,0,0,0.1-0.1c0.3,0.1,0.7,0.2,1,0.2
		c0.4,0,0.7-0.2,0.4-0.7c0.1-0.1,0.2-0.2,0.3-0.3c-0.1-0.4-0.1-0.8-0.2-1.2h0.1C43.8,64.1,44,64.1,44.2,64.2z"/>
	<path fill="#B12435" d="M37.8,67.9c-0.5,0.7-0.1,1.3,0.6,1.8c-0.5,0-0.9,0-1.4,0c0.5,0.8,1,0.8,1.6,0.7c-0.2,0.2-0.5,0.5-0.6,0.4
		c-0.5-0.2-0.9-0.6-1.3-0.9c0.1-1.1,0.1-2.3,0.2-3.4c0,0.6,0.1,1.3,0.1,1.9c0,0.2,0,0.5,0.1,0.8C37.4,68.7,37.6,68.3,37.8,67.9z"/>
	<path fill="#B12435" d="M71.4,39.1c-0.5,0.1-0.9,0.2-1.4,0.2c-0.1,0-0.3-0.1-0.5-0.2c-0.2-0.1-0.4-0.3-0.6-0.5
		c-0.1,0.1-0.1,0.1-0.2,0.2c0,0.4,0.1,0.9,0.1,1.3c-0.3-0.5-0.7-1.1-1-1.6c1-0.2,2.1-0.3,3.1-0.5c0.1,0,0.1-0.4,0.2-0.6
		c0.5,0.2,0.3,0.5,0,0.7c-0.2,0.1-0.5,0.1-0.7,0.2c-0.2,0.1-0.3,0.2-0.5,0.3c0.2,0.1,0.4,0.2,0.6,0.2s0.3-0.2,0.5-0.2
		C71.2,38.8,71.3,39,71.4,39.1z"/>
	<path fill="#B12435" d="M31.7,62.9c0.2-0.2,0.4-0.3,0.6-0.5c-0.2-0.1-0.4-0.2-0.7-0.4c0.2-0.3,0.4-0.6,0.5-0.9
		c0.3,0.2,0.6,0.4,0.8,0.5c0.1-0.1,0.1-0.1,0.2-0.2c-0.1-0.3-0.1-0.6-0.2-0.9c0.3,0,0.6,0.1,0.9,0.1c-0.4,0.9-0.9,1.9-1.3,2.8
		C32.2,63.3,31.9,63.1,31.7,62.9z"/>
	<path fill="#B12435" d="M53.2,14.4c-1-0.2-2-0.4-3-0.6c-1.5-0.3-2.9-0.1-4.2,0.5c0.1-0.1,0.2-0.4,0.3-0.4c1.3-0.3,2.5-0.9,3.8-0.4
		c0.7,0.3,1.5,0.2,2.2,0.4C52.7,14,53,14.2,53.2,14.4z"/>
	<path fill="#B12435" d="M46,19.3c2,1,4.2,1,6.3,1.4c-0.4,0.4-1.3,0.4-1.8,0.1c-0.4-0.2-0.8-0.3-1.3-0.4c-0.9-0.2-1.8-0.4-2.7-0.6
		C46.3,19.8,46.1,19.5,46,19.3z"/>
	<path fill="#B12435" d="M27.8,58.3c0.6-0.5,1.1-1,1.7-1.6c0.5,0,0.8,0.2,0.8,0.8c-0.2-0.2-0.4-0.3-0.7-0.5
		c-0.3,0.4-0.6,0.8-0.9,1.2c0.4,0.5,0.4,0.5,0.8,0.2c0.3-0.2,0.5-0.5,0.8-0.7c0.1,0.1,0.1,0.2,0.2,0.2c-0.3,0.4-0.6,0.8-1,1.2V59
		C28.9,58.8,28.3,58.6,27.8,58.3z"/>
	<path fill="#B12435" d="M71.1,37.3c-1,0.2-2.1,0.4-3.1,0.6c-0.1,0-0.2,0.2-0.4,0.3c-0.2-0.4-0.2-0.3,0.1-0.5
		c0.2-0.1,0.5-0.2,0.7-0.3l0.1-0.1c0.2-0.1,0.4-0.2,0.6-0.3c0.1,0,0.1,0,0.1-0.1c0.5,0,1,0.1,1.3,0c0.2-0.1,0.1-0.7,0.1-1.1
		c0-0.2-0.1-0.4-0.1-0.6c0,0,0,0,0.1-0.1C71.3,35.7,71.1,36.5,71.1,37.3z"/>
	<path fill="#B12435" d="M49.4,62.5c0,0.2,0,0.4,0.1,0.6c0,0.1,0,0.3,0,0.4c0.3,0.7,0.7,1.3,1,1.9c-0.4,0.1-0.8,0.2-1.1,0.3
		c0-0.2,0-0.4,0-0.6c0-0.1,0-0.3,0-0.4c0-1.2-0.4-1.6-1.5-1.3c0.2-0.1,0.5-0.4,0.7-0.4C49,63.2,49.2,62.9,49.4,62.5z"/>
	<path fill="#B12435" d="M57.3,66.6c0,0.2-0.1,0.5-0.1,0.7c-0.1,0-0.3,0.1-0.4,0.1c-0.2-0.4-0.4-0.7-0.6-1.1
		c-0.2-0.6-0.6-0.8-1.2-0.6c0.3-0.1,0.6-0.3,1-0.5c0.4-0.9,1-1.1,1.7-0.6c-0.6-0.1-1.2,0-1.3,0.7c-0.2,0.7,0.2,1,1.2,1
		C57.5,66.4,57.4,66.5,57.3,66.6z"/>
	<path fill="#B12435" d="M33.4,20c-0.8,1-1.5,1.2-2.4,0.8c0.6-0.7,2.2-0.7,1.8-2.2c0.4,0.6,0.4,0.6-0.1,1.5C33,20,33.2,20,33.4,20z"
		/>
	<path fill="#B12435" d="M41.4,65.9c0.1-0.7,0.2-1.4,0.2-2.2c-0.6-0.1-1.1-0.1-1.7-0.2c0.4-0.1,0.8-0.1,1.1-0.2c0.5,0,0.9-0.1,1.4,0
		c0.3,0,0.6,0.2,0.9,0.4c0,0,0,0-0.1,0.1c-1-0.1-1.3,0.1-1.4,1.2c0,0.3,0,0.6,0,1l0,0C41.7,66,41.5,65.9,41.4,65.9z"/>
	<path fill="#B12435" d="M61.4,61.3c0.1,0.1,0.1,0.2,0.2,0.3c-0.1,0-0.2,0-0.4,0c-0.2,0.1-0.4,0.3-0.7,0.5c0.9,0.5,1.1,1.7,2.3,1.6
		c-0.4,0.3-0.7,0.6-1.1,0.9c0-0.2,0.1-0.5-0.1-0.7c-0.5-0.7-1-1.4-1.5-2C60.5,61.7,60.9,61.5,61.4,61.3z"/>
	<path fill="#B12435" d="M67.1,52.9c0.3-0.4,0.5-0.6,1-0.2c0.1,0.1,0.4,0,0.6,0.2c0.4,0.3,0.9,0.5,1.1,0.9c0.3,0.5-0.3,1.5-0.8,1.6
		c-0.2,0-0.3-0.2-0.5-0.2l0.1-0.1c0.3-0.2,0.7-0.3,0.8-0.6c0.1-0.2,0-0.8-0.1-0.9c-0.3-0.1-0.8-0.1-1.2-0.1c-0.1,0-0.2,0-0.2,0
		C67.9,52.8,67.6,52.6,67.1,52.9L67.1,52.9z"/>
	<path fill="#B12435" d="M66.5,50.4c0-0.4,0.1-0.8,0.1-1.2c0.3-0.1,0.6-0.1,0.9-0.2c0.1,0.4,0.3,0.7,0.4,1.1c0.1,0,0.1,0,0.2-0.1
		c-0.2,0.9,0,1.2,1,1.4c0.4,0.1,0.8,0.1,1.1,0.2c-1.3,0.5-2.2,0-2.5-1.2c-0.1-0.3-0.4-0.6-0.7-1.1c0,0.5,0,0.7,0,1
		C66.8,50.4,66.7,50.4,66.5,50.4z"/>
	<path fill="#B12435" d="M53.7,19.4c-0.3,0-0.5,0.1-0.8,0.1c0-0.2-0.1-0.5,0-0.7c0.2-0.7,0.4-1.5,0.7-2.2c0.4-0.9,0.4-1.6-0.4-2.2
		c0.8,0.1,1.2,0.8,0.9,1.6c-0.3,1-0.6,2-1,3.1c0.3,0,0.4,0,0.6-0.1C53.7,19.1,53.7,19.3,53.7,19.4z"/>
	<path fill="#B12435" d="M21.6,50.3c0.1,0.4,0.2,0.8,0.4,1.1c0.3,0.3,0.5,0.2,0.6-0.2c0.1,0,0.2,0,0.3,0c0.6,0.5,0.8-0.2,1.2-0.4
		c0.1,0.2,0.2,0.3,0.3,0.5c-0.1,0.2-0.3,0.3-0.4,0.5c-0.1,0-0.1,0-0.2,0c-0.2-0.1-0.4-0.1-0.5-0.2c-0.1,0-0.2,0.1-0.2,0.1
		c-0.2,0.2-0.5,0.4-0.7,0.6c-0.1-0.2-0.3-0.4-0.4-0.6c-0.2-0.4-0.5-0.8-0.7-1.2C21.3,50.6,21.5,50.4,21.6,50.3z"/>
	<path fill="#B12435" d="M27.1,21c0-0.2,0-0.3-0.1-0.5c0.2-0.4,0.4-0.7,0.6-1.1c0,0.1,0,0.3,0,0.4c-0.2,2,0.5,2.9,2.7,3.2
		c-0.9,0.3-2.3-0.2-2.8-1.5C27.4,21.4,27.2,21.2,27.1,21z"/>
	<path fill="#B12435" d="M68.7,47.8c-0.1,0.5-0.1,1.1,0.5,1.3c0.7,0.3,1.4,0.4,2-0.1c-0.1,0.3-0.2,0.6-0.3,1
		c-0.9-0.3-1.9-0.6-2.8-0.9c0.3-0.1,0.6-0.2,0.4-0.7C68.3,48.3,68.6,48,68.7,47.8z"/>
	<path fill="#B12435" d="M23,47.3c-0.3,0.3-0.6,0.5-1,0.7c-0.1,0-0.2,0-0.3,0c-0.2-0.1-0.4-0.2-0.7-0.5c0,0.5-0.1,0.9-0.1,1.2
		c-0.1-0.1-0.3-0.3-0.3-0.4c0-0.4,0.1-0.9,0.1-1.3c0.2,0,0.4-0.1,0.6-0.1c0.1,0,0.2,0,0.3,0c0.4,0,0.7,0,1.1,0
		C22.8,47.1,22.9,47.2,23,47.3z"/>
	<path fill="#B12435" d="M39.6,70c-0.1,0.2-0.1,0.4-0.2,0.5c-0.2,0-0.5,0-0.7-0.1c0.5-0.5,0.6-1,0-1.5c0-0.1,0-0.2,0-0.3
		c0.2-0.2,0.4-0.3,0.6-0.5c0.2,0,0.5,0,0.7,0c-0.4,0.4-0.5,0.9-0.2,1.3C39.7,69.7,39.6,69.8,39.6,70z"/>
	<path fill="#B12435" d="M36.4,19.5c0,0.3,0.1,0.6,0.1,0.9c-0.3-0.1-0.5-0.2-0.8-0.3c-0.5,0.5-0.5,1.6-1.6,1.5
		c0.4-0.5,0.8-0.9,1.1-1.4c0.4-0.6,0.5-1.2,0.1-1.8c0.7,0.2,0.4,0.8,0.5,1.2c0,0.1-0.1,0.1-0.1,0.2c0,0,0,0,0.1,0
		c0-0.1,0-0.1,0.1-0.2C36,19.6,36.2,19.6,36.4,19.5z"/>
	<path fill="#B12435" d="M54.3,68.9c0-0.3,0.1-0.6,0-0.9c-0.1-1.2-0.9-1.6-2-1c0.1-0.2,0.2-0.5,0.4-0.5c0.4-0.1,0.8-0.1,1.3-0.2
		c0.3,0.7,0.6,1.4,0.9,2.1C54.8,68.6,54.5,68.7,54.3,68.9z"/>
	<path fill="#B12435" d="M57,58.1c-0.2,0.5-0.4,1.1,0,1.4c0.3,0.2,0.9,0.2,1.3,0.3c0.2,0,0.5,0,0.8,0C59,60.4,58,60.2,58.3,61
		c-0.1-0.3-0.2-0.5-0.3-0.8c-0.6,0.2-1.2-0.1-1.4-0.9C56.5,58.8,56.4,58.3,57,58.1z"/>
	<path fill="#B12435" d="M65.4,51.1c-0.2,0.3-0.3,0.6-0.5,0.9c0-0.3,0-0.6-0.1-1c-0.1,0-0.3,0.1-0.4,0.1c-0.2-0.1-0.4-0.3-0.6-0.4
		c0-0.4,0-0.9,0-1.3c0-0.5,0.3-0.8,0.8-0.7c-0.2,0.3-0.7,0.7-0.6,1c0.1,0.4,0.5,0.6,0.8,1c0.1,0.1,0.2,0.1,0.3,0.2
		C65.3,50.8,65.4,51,65.4,51.1z"/>
	<path fill="#B12435" d="M40.8,69c0.3-0.2,0.6-0.4,0.3-0.7c0.3,0.1,0.6,0.1,0.8,0.2c-0.5,0.7-0.5,1.5-0.2,2.3
		c-0.3,0-0.5-0.1-0.8-0.1c0.2-0.5,0.2-1-0.2-1.4C40.8,69.2,40.8,69.1,40.8,69z"/>
	<path fill="#B12435" d="M65,53.4c-0.7-0.4-1.5-0.7-2.2-1.1c-0.1,0-0.2,0-0.2,0v-0.1c0.3,0,0.6,0,0.4-0.5c0-0.1,0.1-0.3,0.2-0.5
		c0.1,1.1,0.8,1.7,2.2,1.5C65.3,53,65.2,53.2,65,53.4z"/>
	<path fill="#B12435" d="M23.7,44.3c0-0.6,0-1.1,0-1.7c-1.1,0-2.2,0-3.2,0c1-0.1,1.9-0.3,2.9-0.4c0,0,0.1,0,0.1,0.1
		c0.2,0.2,0.5,0.5,0.5,0.6C23.6,43.3,24.5,44,23.7,44.3z"/>
	<path fill="#B12435" d="M52.9,61.3c0.1,0.1,0.1,0.2,0.2,0.3v0.1c-0.7,0.4-0.8,0.8-0.4,1.7c0.2,0.3,0.4,0.6,0.7,0.9
		c-0.8-0.1-1-0.7-1.1-1.3c-0.1-0.5-0.3-1.3,0.5-1.6C52.8,61.5,52.8,61.4,52.9,61.3z"/>
	<path fill="#B12435" d="M26.6,56.7c-0.2,0.2-0.5,0.4-0.6,0.7s-0.1,0.7,0.1,0.9c0.3,0.3,0.5,1,1.2,0.5c-0.1,0.2-0.2,0.4-0.3,0.5
		c-0.4,0.1-1.3-0.7-1.4-1.3C25.5,57.2,25.8,56.8,26.6,56.7z"/>
	<path fill="#B12435" d="M64.9,48.2c0.4,0,0.7-0.1,1.1-0.1c0.1,0.1,0.2,0.1,0.3,0.2c0.2,0.2,0.3,0.3,0.5,0.5
		c-0.1,0.2-0.1,0.4-0.2,0.6c-0.1,0-0.2-0.1-0.3-0.1c-0.1,0-0.3,0-0.4-0.1c-0.4-0.1-0.7-0.3-1.1-0.4C64.8,48.4,64.8,48.3,64.9,48.2z"
		/>
	<path fill="#B12435" d="M67.7,55.3c-0.4-0.3-0.7-0.6-1.1-0.9c0.1-0.5-0.2-1.1,0.4-1.5h0.1c-0.5,1.2-0.3,1.6,0.9,1.5
		c0.1,0,0.3,0,0.4,0c0,0.1,0,0.2,0,0.2s0,0-0.1,0.1C67.9,54.7,67.7,54.8,67.7,55.3z"/>
	<path fill="#B12435" d="M55.4,68.5c0.3-0.1,0.5-0.3,0.3-0.7s-0.4-0.8-0.6-1.3c0.1,0,0.1-0.1,0.2-0.1c0.4,0.6,0.7,1.1,1.1,1.7
		C56.2,68.5,56,69,55.4,68.5z"/>
	<path fill="#B12435" d="M34.2,69.3c0.4,0.1,0.8,0.5,1.1-0.2c0,0,0.4,0.1,0.6,0.2c0.2,0.2,0.4,0.5,0.6,0.7
		C36,70.2,34.5,69.7,34.2,69.3z"/>
	<path fill="#B12435" d="M33.1,66.9c-0.1,0.7-0.2,1.3-0.3,2.2c-0.3-0.3-0.6-0.5-0.8-0.7c0,0,0,0,0.1-0.1c0.2,0,0.4,0.1,0.5,0.1
		C32.8,68,32.2,67.2,33.1,66.9C33,66.9,33.1,66.9,33.1,66.9z"/>
	<path fill="#B12435" d="M64.9,23.5c-0.9,0.3-1.7,0.6-2.6,0.9l-0.1-0.1c0.4-0.3,0.7-0.6,1.1-0.9c0.2,0.1,0.4,0.2,0.6,0.2
		C64.2,23.5,64.6,23.5,64.9,23.5z"/>
	<path fill="#B12435" d="M60.8,26.1c0.4-0.1,0.7-0.3,1.1-0.4c0.7-0.2,1.3-0.4,2-0.5c-0.3,0.2-0.6,0.4-0.8,0.7c0,0-0.1,0-0.1-0.1
		c-0.2,0-0.4,0-0.6,0l0,0C61.9,25.9,61.4,26,60.8,26.1z"/>
	<path fill="#B12435" d="M39,65.6c0.1-0.7,0.3-1.3,0.4-2c0.2,0,0.4-0.1,0.6-0.1c-0.5,0.8-0.7,1.6-0.3,2.4
		C39.4,65.9,39.2,65.8,39,65.6z"/>
	<path fill="#B12435" d="M21,48.9c0.4,0.6,0.9,0.6,1.5,0.2c0.2,0.1,0.5,0.2,0.7,0.2c-0.5,0.3-1,0.6-1.6,0.9
		c-0.1-0.2-0.3-0.5-0.4-0.7C21.1,49.4,21.1,49.1,21,48.9z"/>
	<path fill="#B12435" d="M59.7,61.6c-0.3,0.4-0.6,0.8,0,1.2c-0.8,0.4-0.6,1-0.4,1.6c-0.2-0.3-0.5-0.6-0.5-0.9c0-0.5,0.2-1,0.3-1.6
		C59.3,61.8,59.5,61.7,59.7,61.6z"/>
	<path fill="#B12435" d="M24.6,23.6c-0.1-0.2-0.3-0.3-0.4-0.5c-0.1-0.1,0-0.4,0.1-0.5s0.3-0.1,0.4,0c0.5,0.1,0.9,0.2,1.4,0.3
		c-0.2,0.1-0.5,0.3-0.7,0.2C24.9,23,24.7,23.1,24.6,23.6z"/>
	<path fill="#B12435" d="M45.8,65.1c-0.3-0.1-0.6-0.3-0.9-0.5c0.3-0.1,0.6-0.2,1.1-0.4c-0.7-0.6-1.2-0.4-1.7-0.2
		c0.4-0.7,1-0.4,1.5-0.3c0.5,0.1,0.3,0.5,0.1,0.9C45.8,64.7,45.8,64.9,45.8,65.1z"/>
	<path fill="#B12435" d="M67.2,47.1c-0.5-0.4-0.9-0.4-1.4,0c-0.1,0-0.2,0-0.2,0c-0.2-0.3-0.3-0.6-0.7-0.3c0.2-0.1,0.5-0.4,0.5-0.3
		c0.6,0.4,1.5-0.3,1.9,0.6C67.2,47,67.2,47,67.2,47.1z"/>
	<path fill="#B12435" d="M37.1,65.5c0.5,0.1,0.7,0,0.8-0.5c0.1-0.4,0.2-0.8,0.4-1.2c0.1,0,0.2,0.1,0.3,0.1c-0.2,0.6-0.3,1.2-0.5,1.8
		C37.7,65.6,37.4,65.5,37.1,65.5z"/>
	<path fill="#B12435" d="M34.1,15.6c-1-0.4-2.1-0.1-3.1,0.2C31.8,15,33.6,14.9,34.1,15.6z"/>
	<path fill="#B12435" d="M31.4,17.5c0.5-0.1,1-0.2,1.5-0.2c0.4,0,0.8,0,1.2,0c-0.1,0.1-0.2,0.3-0.3,0.3C33,17.6,32.2,17.6,31.4,17.5
		z"/>
	<path fill="#B12435" d="M67.7,34.4c0,0.2,0,0.3,0,0.4c-0.3,0-0.5-0.1-0.8-0.1c0-0.6,0-1.2,0-1.8c0.2,0.1,0.4,0.2,0.3,0.2
		C67.5,33.6,67.6,34,67.7,34.4z"/>
	<path fill="#B12435" d="M24.9,19.7c-0.5,0.7-1,1.4-1.4,2.2C23.4,20.6,24,19.7,24.9,19.7z"/>
	<path fill="#B12435" d="M32.6,18.2c-0.8-0.3-1.3,0.4-1.9,0.6c-0.1-0.1-0.2-0.2-0.3-0.3c0.1-0.2,0.2-0.3,0.4-0.5l0.1,0.1
		c0.2,0,0.3,0,0.5,0l0,0C31.8,18.1,32.2,17.6,32.6,18.2z"/>
	<path fill="#B12435" d="M28.6,60.2c0,0.2,0,0.5,0.1,0.6c0.3,0.3,0.6,0.6,1,0.9c-0.5-0.3-1-0.4-1.4-0.8
		C28.1,60.7,27.9,60.2,28.6,60.2z"/>
	<path fill="#B12435" d="M59.6,64.7c0.9,0.8,0.9,0.8,2.1,0c-0.2,0.8-0.7,0.9-1.4,0.8C59.8,65.4,59.4,65.2,59.6,64.7z"/>
	<path fill="#B12435" d="M43.9,70.3c0.1,0.1,0.1,0.3,0.2,0.4c-0.2,0.1-0.5,0.1-0.7,0.2c-0.6,0.4-1.5,0.3-1.6-0.2
		c0.9,0.5,1.2,0.4,1.7-0.4C43.6,70.3,43.8,70.3,43.9,70.3z"/>
	<path fill="#B12435" d="M63.4,29.6c0.7-0.1,1.4-0.1,2.1-0.2c0.1,0,0.1,0,0.2,0C65.1,30.2,64,30.2,63.4,29.6z"/>
	<path fill="#9F4053" d="M26.2,54.1c-0.6,0.3-1.1,0.6-1.7,0.9c0-0.1-0.1-0.2-0.1-0.2c0.5-0.3,1-0.6,1.5-1
		C26,53.9,26.1,53.9,26.2,54.1C26.2,54,26.2,54.1,26.2,54.1z"/>
	<path fill="#B12435" d="M54.1,61.8c-0.2-0.3-0.3-0.7-0.5-1c0.3,0,0.7,0,1,0c0,0,0,0,0.1,0.1c-0.1,0.1-0.1,0.3-0.2,0.4
		C54.4,61.5,54.2,61.6,54.1,61.8z"/>
	<path fill="#B12435" d="M30.7,23.1c0.8-0.2,1.5-0.5,2.3-0.7c-0.2,0.8-1.1,0.5-1.6,0.8C31.3,23.3,31,23.1,30.7,23.1z"/>
	<path fill="#B12435" d="M23.7,53.7c0.5-0.3,0.9-0.6,1.4-0.8c0,0.1,0,0.2,0,0.4c-0.5,0.3-0.9,0.6-1.4,0.9
		C23.7,54,23.7,53.9,23.7,53.7z"/>
	<path fill="#B12435" d="M32.2,65.4c0.5,0.2,1,0.3,1.5,0.5c0.5,0.2,0.3,0.4,0,0.6l-0.1-0.1c-0.3-0.2-0.6-0.3-0.8-0.5V66
		C32.5,65.9,32.3,65.7,32.2,65.4L32.2,65.4z"/>
	<path fill="#9F4053" d="M33.2,63.7c0.3-0.5,0.5-1.1,0.8-1.6c0.1,0,0.2,0.1,0.3,0.1c-0.3,0.6-0.5,1.1-0.8,1.7
		C33.4,63.9,33.3,63.8,33.2,63.7z"/>
	<path fill="#B12435" d="M66.9,23.9c-0.6-0.2-1.1-0.3-1.7-0.5C66.1,23,66.6,23.2,66.9,23.9z"/>
	<path fill="#B12435" d="M22.7,23.4c-0.3,0.6-0.8,0.9-1.4,0.9C21.7,24,21.9,23.2,22.7,23.4z"/>
	<path fill="#B12435" d="M23.6,55.1c0.3,0.3,0.5,0.6,0.8,1c0.1,0,0.3-0.1,0.6-0.2c-0.4,0.6-0.8,0.6-1.2,0
		C23.7,55.6,23.6,55.3,23.6,55.1z"/>
	<path fill="#B12435" d="M63,53.4c0.3,0.2,0.7,0.4,1,0.5c-0.1,0.2-0.3,0.4-0.4,0.6c-0.3-0.3-0.5-0.6-0.8-0.9
		C62.9,53.5,63,53.4,63,53.4z"/>
	<path fill="#B12435" d="M31.9,68.5c-0.4-0.2-0.8-0.4-1.2-0.6l0.1-0.1c0.4,0,0.8,0.1,1.2,0.1C31.9,68,32,68.2,31.9,68.5
		C32,68.4,32,68.5,31.9,68.5z"/>
	<path fill="#B12435" d="M68.4,57.2c0.7,0.4,0.6-0.1,0.7-0.5c0.2,0.1,0.3,0.2,0.5,0.4c-0.2,0.2-0.4,0.4-0.6,0.5
		C68.8,57.6,68.6,57.3,68.4,57.2z"/>
	<path fill="#B12435" d="M27.6,63.9c0.1-0.2,0.1-0.3,0.2-0.5c0.3-0.7,0.6-0.7,1.1-0.1c0,0,0,0.1-0.1,0.1c-0.3,0-0.5,0.1-0.8,0.1
		C27.9,63.6,27.8,63.8,27.6,63.9z"/>
	<path fill="#B12435" d="M58.3,61c0.6,0.3,1-0.1,1.5-0.4c0.1,1-0.9,0.5-1.3,1C58.4,61.3,58.3,61.1,58.3,61z"/>
	<path fill="#B12435" d="M67.5,26.2c-0.1-0.6-0.1-1.2-0.2-1.8C68,24.7,68.1,25.6,67.5,26.2z"/>
	<path fill="#9F4053" d="M43.9,70.3c-0.1,0-0.3,0-0.4,0c0-0.5,0-0.9,0-1.4c0.1,0,0.3,0,0.4,0C43.9,69.4,43.9,69.8,43.9,70.3z"/>
	<path fill="#B12435" d="M39.4,70.5c0.5,0.1,1,0.1,1.5,0.2c-0.1,0.6-0.6,0.4-0.8,0.3C39.9,71,39.6,70.7,39.4,70.5z"/>
	<path fill="#B12435" d="M63.4,23.1c0.3-0.7,0.5-1.3,0.2-2C64.2,21.6,64.1,22.7,63.4,23.1z"/>
	<path fill="#B12435" d="M55,63.6L55,63.6c0-0.3,0.1-0.5,0.1-0.6c0.4,0,0.9,0,1.3,0c0,0,0,0,0.1,0.1c-0.3,0.1-0.6,0.3-0.9,0.4
		C55.5,63.5,55.2,63.6,55,63.6z"/>
	<path fill="#B12435" d="M47.5,63.8c0.1,0.7,0.2,1.3,0.3,2C47.2,65.4,47,64.6,47.5,63.8z"/>
	<path fill="#B12435" d="M62.4,56.8c-0.3-0.2-0.5-0.3-0.8-0.5c-0.4-0.3-0.3-0.5,0.1-0.7C62,56,62.2,56.4,62.4,56.8z"/>
	<path fill="#B12435" d="M29.5,56.7c-0.4-0.1-0.8-0.4-1.2,0c-0.1-0.1-0.2-0.2-0.3-0.3c0.3-0.1,0.5-0.2,0.8-0.2
		C29.3,56,29.5,56.1,29.5,56.7z"/>
	<path fill="#B12435" d="M31.9,59.5c0.3-0.7-0.5-0.7-0.7-1.1c0.3,0.2,0.7,0.3,0.9,0.5C32.3,59,32.5,59.5,31.9,59.5z"/>
	<path fill="#B12435" d="M66.4,54.5c-0.1,0.5-0.1,0.5,0.5,1.2c-0.4-0.1-0.7-0.1-1-0.2C66.1,55.2,65.7,54.6,66.4,54.5z"/>
	<path fill="#B12435" d="M30.4,16.1c-0.4,0.3-0.8,0.6-1.2,0.9C29.3,16.3,29.8,16.1,30.4,16.1z"/>
	<path fill="#B12435" d="M58.4,57.7c-0.4,0.1-0.8,0.1-1.2,0.2c0.2-0.4,0.9-0.7,1.2-0.5C58.5,57.5,58.4,57.6,58.4,57.7z"/>
	<path fill="#B12435" d="M70.5,51.5c0.1-0.5,0.2-0.9,0.4-1.4C71.2,50.5,71,51.2,70.5,51.5z"/>
	<path fill="#B12435" d="M62.1,27.1c0,0.5,0,0.9,0,1.4C61.6,28.2,61.6,27.7,62.1,27.1z"/>
	<path fill="#B12435" d="M69.2,40.8c0,0.5,0.1,1,0.1,1.4c-0.2-0.2-0.4-0.5-0.5-0.7C68.8,41.3,69.1,41,69.2,40.8z"/>
	<path fill="#B12435" d="M23.4,21.8c-0.2,0.5-0.4,0.9-0.6,1.4C22.7,22.6,22.9,22.2,23.4,21.8z"/>
	<path fill="#9F4053" d="M70.7,47.7c-0.1,0.3-0.2,0.6-0.2,0.9c-0.1,0-0.2,0-0.3-0.1c0.1-0.4,0.1-0.7,0.2-1.1
		C70.4,47.6,70.6,47.6,70.7,47.7z"/>
	<path fill="#9F4053" d="M27.6,63.9c0.2-0.1,0.3-0.3,0.5-0.4c0.2,0.3,0.4,0.5,0.6,0.8c-0.4-0.1-0.8-0.1-1.2-0.2V64
		C27.5,63.9,27.6,63.9,27.6,63.9z"/>
	<path fill="#B12435" d="M33,22.4c0.4-0.3,0.7-0.5,1.1-0.8C34.2,22.5,33.5,22.3,33,22.4z"/>
	<path fill="#B12435" d="M65.9,59.1c0.3,0,0.6,0,0.9,0c-0.2,0.1-0.3,0.2-0.5,0.3c-0.1,0.1-0.2,0.2-0.3,0.3c-0.1-0.2-0.3-0.4-0.4-0.6
		C65.6,59.1,65.8,59.1,65.9,59.1z"/>
	<path fill="#B12435" d="M34,18.7c-0.2,0.4-0.4,0.8-0.6,1.2C33.6,19.6,33.8,19.1,34,18.7z"/>
	<path fill="#B12435" d="M67.2,48.1c0-0.3,0-0.7,0-1c0.1,0.3,0.3,0.5,0.4,0.8C67.6,47.9,67.3,48,67.2,48.1z"/>
	<path fill="#B12435" d="M44.1,70.7c0.4,0,0.9,0.1,1.3,0.1c-0.2,0.1-0.5,0.3-0.7,0.3C44.5,71.2,44.3,70.9,44.1,70.7z"/>
	<path fill="#B12435" d="M55.7,18.7c-0.3,0.3-0.6,0.5-0.9,0.8C55.1,19.2,55.4,19,55.7,18.7z"/>
	<path fill="#B12435" d="M25.7,55.4c0.3-0.3,0.5-0.6,0.8-0.9C26.8,55,26.5,55.3,25.7,55.4z"/>
	<path fill="#B12435" d="M50.8,62.8c-0.7,0.1-0.6-0.5-0.7-0.8C50.3,62.3,50.6,62.5,50.8,62.8z"/>
	<path fill="#B12435" d="M39.7,66c0.2,0.1,0.4,0.1,0.6,0.2c-0.2,0.2-0.3,0.5-0.5,0.7C39.8,66.6,39.7,66.3,39.7,66z"/>
	<path fill="#B12435" d="M53.6,60.7c-0.2,0.1-0.5,0.2-0.7,0.2c0.1-0.2,0.3-0.4,0.4-0.6C53.4,60.5,53.5,60.6,53.6,60.7z"/>
	<path fill="#B12435" d="M54.8,60.7c0.4-0.5,0.8-0.4,1.1,0c0,0,0,0-0.1,0.1C55.5,60.7,55.2,60.7,54.8,60.7L54.8,60.7z"/>
	<path fill="#B12435" d="M51.1,64.6c-0.5-0.3-0.6-0.8-0.2-1.1C51,63.8,51,64.2,51.1,64.6z"/>
	<path fill="#B12435" d="M35.4,18.4c-0.4,0-0.7,0-1.1,0C34.6,17.8,34.8,17.8,35.4,18.4z"/>
	<path fill="#B12435" d="M67,58.7c0.2-0.3,0.4-0.6,0.5-0.9C67.9,58.5,67.4,58.6,67,58.7z"/>
	<path fill="#B12435" d="M62.6,55.5c0.3,0.1,0.6,0.2,0.9,0.3C63.1,56.2,62.8,56,62.6,55.5z"/>
	<path fill="#B12435" d="M65.5,29.3c-0.2-0.1-0.5-0.3-0.8-0.4c0.3-0.2,0.5-0.4,0.7-0.5c0.1,0.3,0.1,0.5,0.2,0.8
		C65.5,29.2,65.5,29.2,65.5,29.3z"/>
	<path fill="#B12435" d="M59.6,26.3c0.4-0.1,0.8-0.1,1.2-0.2C60.5,26.6,60.1,26.7,59.6,26.3z"/>
	<path fill="#B12435" d="M26.7,22.4c0.1-0.4,0.3-0.7,0.4-1.1C27.4,21.9,27.3,22.3,26.7,22.4z"/>
	<path fill="#B12435" d="M71.1,49c0-0.4,0-0.8,0-1.2C71.6,48.2,71.6,48.6,71.1,49z"/>
	<path fill="#9F4053" d="M61.8,52.7c0.2,0,0.4,0,0.6,0c0.1,0.2,0.1,0.3,0.2,0.5c-0.1,0-0.2,0-0.3,0c-0.1,0.1-0.1,0.1-0.2,0.2l0,0
		c-0.1,0-0.1,0-0.2-0.1C61.9,53.1,61.9,52.9,61.8,52.7z"/>
	<path fill="#B12435" d="M50.1,62c-0.2,0.1-0.5,0.3-0.7,0.4c0.1-0.2,0.3-0.5,0.4-0.7C49.9,61.8,50,61.9,50.1,62z"/>
	<path fill="#B12435" d="M53.4,64.4c0.4-0.1,0.7-0.2,1.1-0.3C54.3,64.7,53.9,64.7,53.4,64.4z"/>
	<path fill="#B12435" d="M36.1,66.3c-0.2,0.3-0.4,0.6-0.6,0.9C35.6,66.9,35.3,66.2,36.1,66.3z"/>
	<path fill="#B12435" d="M43.6,15.9c-0.3-0.1-0.6-0.2-0.9-0.4C43.1,15.4,43.5,15.3,43.6,15.9z"/>
	<path fill="#B12435" d="M34.6,60.5c-0.3,0-0.5,0-0.8,0c0.2-0.1,0.4-0.2,0.5-0.3C34.4,60.2,34.5,60.4,34.6,60.5z"/>
	<path fill="#B12435" d="M25.2,52.6c-0.1-0.3-0.2-0.6-0.3-0.9C25.4,51.9,25.6,52.2,25.2,52.6z"/>
	<path fill="#B12435" d="M20.5,45.9c0.1,0.4,0.2,0.8,0.3,1.2C20,46.9,20.3,46.4,20.5,45.9z"/>
	<path fill="#B12435" d="M63.1,59.7c0.2,0.2,0.4,0.4,0.7,0.6C63.1,60.3,63,60.2,63.1,59.7z"/>
	<path fill="#B12435" d="M55,65.7c-0.3,0.2-0.6,0.4-1,0.6C54,65.5,54.7,65.9,55,65.7z"/>
	<path fill="#B12435" d="M64.8,46.7c-0.1,0.3-0.2,0.6-0.3,0.9C64.1,47.2,64.3,46.9,64.8,46.7z"/>
	<path fill="#B12435" d="M39.8,66.9c0.4,0,0.7,0,1.1-0.1C40.6,67.3,40.2,67.4,39.8,66.9z"/>
	<path fill="#B12435" d="M56.9,62.1c0.6,0.4,0.1,0.6-0.1,0.8c0,0,0,0-0.1-0.1C56.7,62.6,56.8,62.3,56.9,62.1
		C56.8,62.1,56.8,62.1,56.9,62.1z"/>
	<path fill="#B12435" d="M63.1,25.9c-0.2,0.2-0.4,0.4-0.7,0.6c0-0.2,0-0.4,0-0.6l0,0C62.6,25.9,62.8,25.8,63.1,25.9L63.1,25.9z"/>
	<path fill="#B12435" d="M66.9,26.9c0.2-0.3,0.4-0.5,0.6-0.8C67.6,26.6,67.5,27,66.9,26.9z"/>
	<path fill="#B12435" d="M68.8,56.4c-0.2-0.2-0.4-0.4-0.6-0.6C68.7,55.6,68.9,55.8,68.8,56.4z"/>
	<path fill="#B12435" d="M56.4,61.1c0.2,0.3,0.3,0.6,0.5,0.9c0,0,0,0-0.1,0.1c-0.1,0-0.2,0-0.3,0c0-0.2,0-0.3,0-0.5
		C56.4,61.5,56.4,61.3,56.4,61.1L56.4,61.1z"/>
	<path fill="#B12435" d="M33.5,64.1c0.2,0.1,0.5,0.1,0.7,0.2c-0.1,0.1-0.2,0.2-0.2,0.3C33.9,64.4,33.7,64.2,33.5,64.1z"/>
	<path fill="#B12435" d="M40.9,66.8c0.1-0.3,0.3-0.6,0.4-0.9C41.4,66.3,41.8,66.9,40.9,66.8z"/>
	<path fill="#B12435" d="M61.6,55.2c0.3,0.1,0.7,0.2,1,0.3c-0.3,0-0.6,0-0.9,0C61.7,55.5,61.6,55.3,61.6,55.2
		C61.5,55.2,61.5,55.2,61.6,55.2z"/>
	<path fill="#B12435" d="M35,61.8C34.9,61.8,34.9,61.7,35,61.8c0.1-0.3,0.2-0.6,0.3-0.8c0.1,0,0.1,0.1,0.2,0.1
		C35.3,61.3,35.1,61.6,35,61.8z"/>
	<path fill="#B12435" d="M62.7,57.4c-0.1-0.2-0.2-0.4-0.3-0.6c0.2,0.1,0.4,0.2,0.6,0.3C62.9,57.2,62.8,57.3,62.7,57.4z"/>
	<path fill="#B12435" d="M47.8,65.8c0.2,0.1,0.4,0.2,0.6,0.3C48,66.4,47.9,66.2,47.8,65.8z"/>
	<path fill="#B12435" d="M34.1,17.3c0.1-0.3,0.2-0.5,0.4-0.8C34.7,16.9,34.6,17.2,34.1,17.3z"/>
	<path fill="#B12435" d="M29.2,17c-0.2,0.2-0.4,0.4-0.6,0.6C28.5,17.2,28.7,17,29.2,17z"/>
	<path fill="#B12435" d="M30.8,18c0.2-0.1,0.4-0.3,0.6-0.4c0,0.2,0,0.4-0.1,0.6l0,0c-0.2,0-0.3,0-0.5,0C30.8,18,30.8,18,30.8,18z"/>
	<path fill="#B12435" d="M45.9,66c-0.1-0.3-0.1-0.6-0.2-0.9C46.3,65.3,46.3,65.6,45.9,66z"/>
	<path fill="#B12435" d="M62,53.6c0.1,0.2,0.2,0.5,0.3,0.7c-0.1,0-0.3,0-0.4,0c-0.1,0-0.2,0-0.3,0C61.8,54.1,61.9,53.8,62,53.6z"/>
	<path fill="#B12435" d="M35.4,67.2c-0.2,0.3-0.3,0.5-0.5,0.8C34.9,67.6,34.8,67.2,35.4,67.2z"/>
	<path fill="#B12435" d="M66,61c-0.2-0.1-0.3-0.2-0.5-0.4c0.2-0.2,0.3-0.3,0.5-0.4C66,60.5,66,60.7,66,61z"/>
	<path fill="#B12435" d="M27.8,56.2c-0.3,0-0.5,0.1-0.8,0.1C27.2,55.8,27.5,55.9,27.8,56.2z"/>
	<path fill="#B12435" d="M70,33.3c-0.1-0.2-0.1-0.4-0.2-0.6c0.2,0.1,0.3,0.3,0.5,0.4C70.2,33.2,70.1,33.2,70,33.3z"/>
	<path fill="#B12435" d="M41,68.3c-0.4,0-0.7-0.1-1.1-0.1C40.3,67.9,40.7,67.8,41,68.3z"/>
	<path fill="#B12435" d="M29.1,59.6c-0.2,0.2-0.3,0.4-0.5,0.6C28.5,59.9,28.6,59.6,29.1,59.6z"/>
	<path fill="#B12435" d="M36.5,20.4c0.4,0,0.8,0,1.2,0C37.3,20.4,36.9,20.4,36.5,20.4z"/>
	<path fill="#B12435" d="M65.8,61.7c0.1-0.3,0.1-0.5,0.2-0.8C66.3,61.3,66.2,61.6,65.8,61.7z"/>
	<path fill="#B12435" d="M51.4,65.3c0-0.2,0-0.4,0-0.6c0.1,0.1,0.2,0.3,0.3,0.4C51.6,65.2,51.5,65.2,51.4,65.3z"/>
	<path fill="#B12435" d="M64.1,53.9c0.2,0.1,0.4,0.2,0.5,0.3C64.3,54.3,64,54.5,64.1,53.9z"/>
	<path fill="#B12435" d="M71.6,39.5c-0.1-0.1-0.1-0.3-0.2-0.4c0.2,0,0.4,0.1,0.6,0.1C71.8,39.4,71.7,39.5,71.6,39.5z"/>
	<path fill="#B12435" d="M26,22.9c0.2-0.1,0.4-0.3,0.7-0.4C26.7,23,26.4,22.9,26,22.9z"/>
	<path fill="#B12435" d="M38.2,13.8c-0.2,0.1-0.5,0.2-0.7,0.3C37.7,14,38,13.9,38.2,13.8z"/>
	<path fill="#B12435" d="M69.3,47.3c-0.2,0.1-0.4,0.3-0.6,0.4C68.6,47.1,69,47.2,69.3,47.3z"/>
	<path fill="#B12435" d="M63.8,55.8c0.1-0.1,0.2-0.3,0.3-0.4C64.1,55.6,64.3,56,63.8,55.8z"/>
	<path fill="#B12435" d="M68.1,55.7c-0.2-0.2-0.3-0.3-0.5-0.5C68.1,55.2,68.2,55.4,68.1,55.7z"/>
	<path fill="#B12435" d="M64.1,55.4c0-0.2-0.1-0.4-0.1-0.6C64.4,54.9,64.4,55.1,64.1,55.4z"/>
	<path fill="#B12435" d="M29,66.9c0.2,0.1,0.4,0.2,0.6,0.3C29.5,67.1,29.2,67,29,66.9z"/>
	<path fill="#B12435" d="M63.7,60.3c0.1,0.1,0.3,0.2,0.4,0.4C63.8,60.8,63.7,60.7,63.7,60.3z"/>
	<path fill="#B12435" d="M61.6,54.3c-0.1,0.2-0.3,0.4-0.4,0.6C61.3,54.7,61.4,54.5,61.6,54.3z"/>
	<path fill="#B12435" d="M36.8,66.5c-0.2-0.1-0.4-0.1-0.6-0.2C36.5,66,36.6,66.2,36.8,66.5z"/>
	<path fill="#B12435" d="M50.6,65.5c0.2,0,0.3,0,0.5-0.1c-0.1,0.1-0.1,0.2-0.2,0.3C50.8,65.7,50.7,65.6,50.6,65.5z"/>
	<path fill="#B12435" d="M65.8,52.3c0-0.3,0-0.5,0-0.8C66.2,51.8,66.2,52,65.8,52.3z"/>
	<path fill="#B12435" d="M22.8,47c0.1-0.2,0.3-0.4,0.4-0.5C23.3,46.8,23.2,47,22.8,47z"/>
	<path fill="#B12435" d="M66.8,32.4c0,0.2,0.1,0.4,0.1,0.5C66.7,32.8,66.4,32.7,66.8,32.4z"/>
	<path fill="#B12435" d="M24.9,55.8c0.2-0.1,0.3-0.2,0.5-0.3C25.3,55.6,25.1,55.7,24.9,55.8z"/>
	<path fill="#B12435" d="M33.7,66.6c-0.2,0.1-0.4,0.2-0.6,0.4l0,0c0.2-0.1,0.3-0.3,0.5-0.4C33.6,66.5,33.6,66.5,33.7,66.6z"/>
	<path fill="#B12435" d="M23.4,45.7c0,0.1-0.1,0.2-0.2,0.3c-0.1-0.2-0.2-0.4-0.3-0.5C23.1,45.5,23.2,45.6,23.4,45.7z"/>
	<path fill="#B12435" d="M61.8,52c-0.1,0.2-0.1,0.3-0.2,0.5C61.7,52.3,61.8,52.1,61.8,52z"/>
	<path fill="#B12435" d="M66,27.8c0.1-0.1,0.3-0.2,0.4-0.4C66.2,27.6,66.1,27.7,66,27.8z"/>
	<path fill="#B12435" d="M54.5,64.1c0.2-0.1,0.3-0.2,0.5-0.3C54.8,63.9,54.6,64,54.5,64.1z"/>
	<path fill="#B12435" d="M24,45.8c-0.2,0-0.3-0.1-0.5-0.1C23.7,45.7,23.9,45.7,24,45.8z"/>
	<path fill="#B12435" d="M67.5,57.8c-0.2-0.1-0.3-0.2-0.5-0.3C67.2,57.5,67.4,57.7,67.5,57.8z"/>
	<path fill="#B12435" d="M67.9,49.1c-0.2,0-0.3,0-0.5-0.1c0.1-0.1,0.1-0.2,0.2-0.2C67.7,48.9,67.8,49,67.9,49.1z"/>
	<path fill="#B12435" d="M65.8,50.8c0.2-0.1,0.3-0.1,0.5-0.2C66.2,50.6,66,50.7,65.8,50.8z"/>
	<path fill="#B12435" d="M62.5,26.5c-0.1,0.2-0.2,0.4-0.3,0.5C62.3,26.9,62.4,26.7,62.5,26.5z"/>
	<path fill="#9F4053" d="M70.1,47.4c-0.2,0-0.3,0-0.5-0.1C69.8,47.3,69.9,47.3,70.1,47.4z"/>
	<path fill="#B12435" d="M20.8,45.5c-0.1,0.1-0.2,0.3-0.4,0.4C20.6,45.8,20.7,45.7,20.8,45.5z"/>
	<path fill="#B12435" d="M48.7,66.1c0.1,0,0.2-0.1,0.3-0.1C49,66,48.8,66,48.7,66.1z"/>
	<path fill="#985066" d="M22.7,48.5c0.1-0.1,0.1-0.2,0.2-0.3c0,0.1,0.1,0.2,0.1,0.3C22.8,48.4,22.7,48.5,22.7,48.5z"/>
	<path fill="#B12435" d="M59.8,60.5c0.1-0.2,0.1-0.3,0.2-0.5C59.9,60.2,59.8,60.4,59.8,60.5z"/>
	<path fill="#B12435" d="M60.9,55.1c-0.1,0.2-0.2,0.3-0.3,0.5C60.8,55.5,60.8,55.3,60.9,55.1z"/>
	<path fill="#B12435" d="M57.2,67.3c0.2,0,0.4,0,0.6,0C57.6,67.3,57.4,67.3,57.2,67.3z"/>
	<path fill="#B12435" d="M27.5,63.9L27.5,63.9c-0.1,0.2-0.2,0.2-0.3,0.3c0,0,0,0-0.1-0.1C27.2,64.1,27.3,64,27.5,63.9z"/>
	<path fill="#B12435" d="M63.8,50.6c-0.2,0.1-0.3,0.2-0.5,0.3C63.5,50.8,63.7,50.7,63.8,50.6z"/>
	<path fill="#B12435" d="M31,58.2c-0.1-0.1-0.3-0.2-0.4-0.3C30.7,58,30.9,58.1,31,58.2z"/>
	<path fill="#B12435" d="M50.9,63.4c0-0.1,0-0.3,0-0.4c0.1,0.1,0.2,0.2,0.2,0.3C51.1,63.4,51,63.4,50.9,63.4z"/>
	<path fill="#B12435" d="M66.8,34.9c0,0.1,0,0.3,0,0.4c-0.1-0.1-0.2-0.2-0.2-0.3C66.7,35,66.7,34.9,66.8,34.9z"/>
	<path fill="#B12435" d="M46.3,70.9c0.2,0,0.4,0,0.6,0C46.7,70.9,46.5,70.9,46.3,70.9z"/>
	<path fill="#B12435" d="M23,48.8c0.2,0,0.4,0,0.6,0C23.4,48.9,23.2,48.8,23,48.8z"/>
	<path fill="#B12435" d="M65.6,28.1c0.1-0.1,0.2-0.2,0.3-0.2C65.8,27.9,65.7,28,65.6,28.1z"/>
	<path fill="#B12435" d="M46,14.3c-0.1,0.1-0.2,0.2-0.4,0.2C45.8,14.5,45.9,14.4,46,14.3z"/>
	<path fill="#B12435" d="M51.2,66.3c-0.1,0-0.3,0-0.4,0C51,66.3,51.1,66.3,51.2,66.3z"/>
	<path fill="#B12435" d="M45.6,66.4c0.1-0.1,0.2-0.2,0.3-0.4C45.8,66.1,45.7,66.3,45.6,66.4z"/>
	<path fill="#B12435" d="M47.8,63.5c-0.1,0.1-0.2,0.2-0.3,0.3C47.6,63.7,47.7,63.6,47.8,63.5z"/>
	<path fill="#B12435" d="M56.7,68c0.1-0.1,0.2-0.3,0.2-0.4C56.8,67.7,56.7,67.8,56.7,68z"/>
	<path fill="#D9626B" d="M65.5,29.3c0-0.1,0-0.1,0-0.2C65.5,29.2,65.6,29.3,65.5,29.3C65.6,29.4,65.6,29.4,65.5,29.3
		C65.5,29.4,65.5,29.3,65.5,29.3z"/>
	<path fill="#B12435" d="M34.3,18.4c-0.1,0.1-0.2,0.2-0.3,0.3C34.1,18.6,34.2,18.5,34.3,18.4z"/>
	<path fill="#B12435" d="M65,53.8c0-0.1,0-0.3,0-0.4C65,53.5,65,53.7,65,53.8z"/>
	<path fill="#B12435" d="M67.4,24.3c-0.1-0.1-0.2-0.2-0.3-0.3C67.2,24.1,67.3,24.2,67.4,24.3z"/>
	<path fill="#B12435" d="M24.9,51.7c-0.1-0.1-0.2-0.2-0.3-0.3C24.7,51.5,24.8,51.6,24.9,51.7z"/>
	<path fill="#B12435" d="M60.1,61.4L60.1,61.4L60.1,61.4c0.1-0.1,0.1,0,0.2,0C60.2,61.4,60.1,61.4,60.1,61.4z"/>
	<path fill="#D9626B" d="M53.7,19.4c0-0.1,0-0.2,0-0.3h0.1C53.8,19.2,53.7,19.4,53.7,19.4S53.7,19.4,53.7,19.4z"/>
	<path fill="#B12435" d="M63.4,20.7c-0.1-0.1-0.1-0.2-0.2-0.2C63.3,20.5,63.4,20.6,63.4,20.7C63.4,20.6,63.4,20.7,63.4,20.7z"/>
	<path fill="#B12435" d="M43.3,63.7c0.1,0.1,0.2,0.2,0.3,0.3h-0.1C43.5,64,43.4,63.9,43.3,63.7C43.3,63.8,43.3,63.8,43.3,63.7z"/>
	<path fill="#B12435" d="M66.6,27.2c0.1-0.1,0.2-0.2,0.3-0.3C66.8,27,66.7,27.1,66.6,27.2z"/>
	<path fill="#B12435" d="M27,20.6c-0.1-0.1-0.1-0.3-0.2-0.4C26.9,20.3,26.9,20.4,27,20.6z"/>
	<path fill="#B12435" d="M35.9,65.1c0.1,0,0.2,0.1,0.4,0.1C36.2,65.2,36.1,65.1,35.9,65.1z"/>
	<path fill="#B12435" d="M45.7,19.1c0.1,0.1,0.2,0.1,0.3,0.2C45.9,19.2,45.8,19.2,45.7,19.1z"/>
	<path fill="#B12435" d="M60.6,55.6c-0.1,0.1-0.1,0.2-0.2,0.2C60.5,55.8,60.6,55.7,60.6,55.6z"/>
	<path fill="#B12435" d="M58.4,58.3c0-0.1,0-0.2,0-0.3C58.4,58.1,58.4,58.2,58.4,58.3z"/>
	<path fill="#B12435" d="M61.2,54.9C61.1,55,61,55,60.9,55.1C61,55.1,61.1,55,61.2,54.9z"/>
	<path fill="#B12435" d="M68.5,55.1c-0.1-0.1-0.1-0.2-0.2-0.3c0,0,0,0,0.1-0.1C68.4,54.8,68.5,54.9,68.5,55.1
		C68.5,55,68.5,55.1,68.5,55.1z"/>
	<path fill="#B12435" d="M66,60.2c0-0.1,0-0.2,0-0.3C66,60,66,60.1,66,60.2z"/>
	<path fill="#B12435" d="M62.9,29.4c0.1,0.1,0.2,0.1,0.3,0.2C63.2,29.5,63.1,29.4,62.9,29.4z"/>
	<path fill="#B12435" d="M55.9,60.6c0.1,0.1,0.2,0.1,0.3,0.2l-0.1,0.1C56,60.8,56,60.8,55.9,60.6C55.9,60.7,55.9,60.7,55.9,60.6z"/>
	<path fill="#B12435" d="M64.9,54.1c0.1-0.1,0.1-0.2,0.2-0.3C65,53.9,64.9,54,64.9,54.1z"/>
	<path fill="#B12435" d="M56.2,60.8c0.1,0.1,0.1,0.2,0.2,0.3c0,0,0,0-0.1,0.1C56.3,61.1,56.2,61,56.2,60.8
		C56.2,60.9,56.2,60.9,56.2,60.8z"/>
	<path fill="#9F4053" d="M62.8,61.6c-0.1-0.1-0.2-0.2-0.2-0.2C62.6,61.4,62.7,61.5,62.8,61.6z"/>
	<path fill="#B12435" d="M27,56.3c-0.1,0.1-0.2,0.1-0.3,0.2C26.8,56.5,26.9,56.4,27,56.3z"/>
	<path fill="#B12435" d="M62.2,28.5c0.1,0.1,0.1,0.2,0.2,0.3C62.3,28.7,62.2,28.6,62.2,28.5z"/>
	<path fill="#B12435" d="M65.4,28.3c0.1-0.1,0.1-0.2,0.2-0.2C65.5,28.2,65.4,28.3,65.4,28.3z"/>
	<path fill="#B12435" d="M65.6,52.5c0.1-0.1,0.1-0.2,0.2-0.3C65.8,52.4,65.7,52.4,65.6,52.5z"/>
	<path fill="#9F4053" d="M63.6,62.6c-0.1-0.1-0.1-0.2-0.2-0.3C63.5,62.4,63.6,62.5,63.6,62.6z"/>
	<path fill="#B12435" d="M65.8,51.5c-0.1-0.1-0.1-0.2-0.2-0.3C65.7,51.3,65.8,51.4,65.8,51.5z"/>
	<path fill="#B12435" d="M63.4,50.9c-0.1,0.1-0.1,0.2-0.2,0.3C63.3,51.1,63.3,51,63.4,50.9z"/>
	<path fill="#B12435" d="M66.4,27.4c0.1-0.1,0.1-0.1,0.2-0.2C66.5,27.3,66.5,27.4,66.4,27.4z"/>
	<path fill="#B12435" d="M32.5,63.5c0.1,0.1,0.2,0.1,0.4,0.2C32.7,63.7,32.6,63.6,32.5,63.5z"/>
	<path fill="#B12435" d="M64.5,47.7c0.1,0.1,0.1,0.2,0.2,0.3C64.6,47.9,64.6,47.8,64.5,47.7z"/>
	<path fill="#B12435" d="M26.5,54.5c-0.1-0.1-0.1-0.2-0.2-0.3C26.4,54.3,26.4,54.4,26.5,54.5z"/>
	<path fill="#B12435" d="M59.3,64.4c0.1,0.1,0.1,0.2,0.2,0.3C59.5,64.6,59.4,64.5,59.3,64.4z"/>
	<path fill="#B12435" d="M23.5,47.8c-0.1-0.1-0.1-0.2-0.2-0.3C23.4,47.6,23.5,47.7,23.5,47.8z"/>
	<path fill="#B12435" d="M23.4,47.5c-0.1-0.1-0.2-0.1-0.3-0.2C23.1,47.4,23.2,47.5,23.4,47.5z"/>
	<path fill="#B12435" d="M42,66.3c-0.1-0.1-0.1-0.2-0.2-0.3l0,0C42,66,42,66.1,42,66.3C42.1,66.3,42.1,66.3,42,66.3z"/>
	<path fill="#B12435" d="M21.2,45.4c-0.1,0-0.2,0.1-0.3,0.1c0-0.1-0.1-0.1-0.1-0.2l0,0c0.1,0,0.2,0,0.3,0
		C21.1,45.3,21.1,45.3,21.2,45.4z"/>
	<path fill="#B12435" d="M29.8,67.3c0.1,0.1,0.2,0.1,0.3,0.2C30,67.4,29.9,67.4,29.8,67.3z"/>
	<path fill="#B12435" d="M68.5,37.4c-0.1-0.1-0.1-0.2-0.2-0.3c0,0,0.1,0,0.1-0.1C68.5,37.1,68.5,37.2,68.5,37.4
		C68.6,37.3,68.5,37.3,68.5,37.4z"/>
	<path fill="#B12435" d="M24.8,23.8c-0.1-0.1-0.2-0.2-0.2-0.2C24.7,23.7,24.7,23.8,24.8,23.8z"/>
	<path fill="#B12435" d="M38.8,67.8c-0.1,0-0.2,0-0.3,0C38.6,67.8,38.7,67.8,38.8,67.8z"/>
	<path fill="#B12435" d="M39.1,68c-0.1-0.1-0.2-0.1-0.3-0.2C38.9,67.9,39,67.9,39.1,68z"/>
	<path fill="#B12435" d="M45.7,14.5c-0.1,0.1-0.2,0.1-0.3,0.2C45.5,14.7,45.6,14.6,45.7,14.5z"/>
	<path fill="#B12435" d="M34.4,15.9c-0.1-0.1-0.2-0.2-0.3-0.3C34.2,15.7,34.3,15.8,34.4,15.9z"/>
	<path fill="#B12435" d="M31.1,15.8c-0.1,0.1-0.2,0.1-0.3,0.2C30.8,15.9,31,15.8,31.1,15.8z"/>
	<path fill="#B12435" d="M63.6,21.1c-0.1-0.1-0.1-0.2-0.2-0.3C63.5,20.9,63.6,21,63.6,21.1z"/>
	<path fill="#B12435" d="M30.7,15.9c-0.1,0.1-0.2,0.1-0.3,0.2C30.5,16,30.6,16,30.7,15.9z"/>
	<path fill="#B12435" d="M34.5,16.2c0-0.1-0.1-0.2-0.1-0.3C34.4,16,34.4,16.1,34.5,16.2z"/>
	<path fill="#B12435" d="M63.2,20.5c-0.1-0.1-0.2-0.1-0.3-0.2C63,20.3,63.1,20.4,63.2,20.5z"/>
	<path fill="#B12435" d="M28.5,17.8c-0.1,0.1-0.1,0.2-0.2,0.3C28.3,18,28.4,17.9,28.5,17.8z"/>
	<path fill="#B12435" d="M28.1,18.3c-0.1,0.1-0.1,0.2-0.2,0.4C28,18.5,28.1,18.4,28.1,18.3z"/>
	<path fill="#B12435" d="M32.9,18.6c-0.1-0.1-0.1-0.2-0.2-0.3C32.8,18.4,32.8,18.5,32.9,18.6z"/>
	<path fill="#B12435" d="M28,56.4c-0.1-0.1-0.1-0.1-0.2-0.2C27.9,56.3,27.9,56.3,28,56.4z"/>
	<path fill="#B12435" d="M64.7,48l0.1,0.1C64.8,48.1,64.7,48.1,64.7,48z"/>
	<path fill="#B12435" d="M67.1,48.4c0-0.1,0.1-0.1,0.1-0.2C67.1,48.2,67.1,48.3,67.1,48.4z"/>
	<path fill="#B12435" d="M66.9,48.5c0.1-0.1,0.1-0.1,0.2-0.2C67,48.4,67,48.5,66.9,48.5z"/>
	<path fill="#B12435" d="M66.7,48.7c0.1-0.1,0.1-0.1,0.2-0.2C66.9,48.6,66.8,48.6,66.7,48.7z"/>
	<path fill="#B12435" d="M54.2,69.1c0.1-0.1,0.1-0.1,0.2-0.2C54.3,68.9,54.2,69,54.2,69.1z"/>
	<path fill="#B12435" d="M66.3,50.6c0.1,0,0.1-0.1,0.2-0.1C66.4,50.5,66.4,50.5,66.3,50.6z"/>
	<path fill="#B12435" d="M56.7,62.9c-0.1,0.1-0.1,0.1-0.2,0.2c0,0,0,0-0.1-0.1C56.5,62.9,56.6,62.9,56.7,62.9
		C56.7,62.8,56.7,62.9,56.7,62.9z"/>
	<path fill="#B12435" d="M50.9,63c0-0.1-0.1-0.1-0.1-0.2C50.8,62.9,50.9,63,50.9,63z"/>
	<path fill="#B12435" d="M70.3,51.6c0.1-0.1,0.1-0.1,0.2-0.2C70.4,51.5,70.4,51.6,70.3,51.6z"/>
	<path fill="#9F4053" d="M63.4,62.3L63.4,62.3C63.3,62.2,63.4,62.2,63.4,62.3z"/>
	<path fill="#B12435" d="M62.4,52C62.4,52,62.3,52,62.4,52C62.3,52,62.4,52,62.4,52z"/>
	<path fill="#9F4053" d="M63.3,62.1L63.3,62.1C63.2,62,63.2,62.1,63.3,62.1z"/>
	<path fill="#B12435" d="M49.2,65.9c0.1-0.1,0.1-0.1,0.2-0.2C49.3,65.8,49.2,65.9,49.2,65.9z"/>
	<path fill="#9F4053" d="M63.1,62L63.1,62C63,61.9,63.1,61.9,63.1,62z"/>
	<path fill="#9F4053" d="M63,61.8c-0.1-0.1-0.1-0.1-0.2-0.2C62.9,61.7,62.9,61.8,63,61.8z"/>
	<path fill="#B12435" d="M59.9,61.8c-0.1-0.1-0.1-0.1-0.2-0.2C59.8,61.7,59.9,61.7,59.9,61.8z"/>
	<path fill="#B12435" d="M62.8,29.2c0.1,0,0.1,0.1,0.2,0.1C62.9,29.3,62.8,29.3,62.8,29.2z"/>
	<path fill="#B12435" d="M65.5,52.7c0.1-0.1,0.1-0.1,0.2-0.2C65.6,52.6,65.5,52.6,65.5,52.7z"/>
	<path fill="#B12435" d="M26.7,56.5c-0.1,0.1-0.1,0.1-0.2,0.2C26.6,56.6,26.7,56.6,26.7,56.5z"/>
	<path fill="#B12435" d="M45.4,70.9c0.1-0.1,0.1-0.1,0.2-0.2C45.5,70.8,45.5,70.8,45.4,70.9z"/>
	<path fill="#B12435" d="M62.6,29.1c0.1,0.1,0.1,0.1,0.2,0.2C62.7,29.2,62.7,29.1,62.6,29.1z"/>
	<path fill="#B12435" d="M62.5,28.9c0.1,0.1,0.1,0.1,0.2,0.2C62.6,29,62.5,29,62.5,28.9z"/>
	<path fill="#9F4053" d="M34.5,61.6c0-0.1-0.1-0.1-0.1-0.2C34.4,61.4,34.5,61.5,34.5,61.6z"/>
	<path fill="#B12435" d="M62,53.3c0.1,0,0.1,0,0.2,0.1c0,0.1-0.1,0.1-0.1,0.2C62,53.5,62,53.4,62,53.3z"/>
	<path fill="#9F4053" d="M62.5,61.3L62.5,61.3C62.4,61.3,62.5,61.3,62.5,61.3z"/>
	<path fill="#B12435" d="M34.4,61.3c0-0.1,0.1-0.2,0.1-0.3C34.5,61.1,34.5,61.2,34.4,61.3z"/>
	<path fill="#9F4053" d="M62.3,61.2c0-0.1-0.1-0.1-0.1-0.2C62.3,61.1,62.3,61.1,62.3,61.2z"/>
	<path fill="#B12435" d="M64.3,60.8c0.1,0.1,0.1,0.1,0.2,0.2C64.5,60.9,64.4,60.8,64.3,60.8z"/>
	<path fill="#B12435" d="M34.6,61c0-0.1,0-0.1,0.1-0.2C34.6,60.9,34.6,60.9,34.6,61z"/>
	<path fill="#B12435" d="M54.6,60.8c0.1-0.1,0.1-0.1,0.2-0.2c0,0,0,0,0.1,0.1C54.8,60.8,54.7,60.8,54.6,60.8
		C54.7,60.8,54.7,60.8,54.6,60.8z"/>
	<path fill="#B12435" d="M26.2,54.1L26.2,54.1c0,0,0.1,0,0.1,0.1C26.3,54.2,26.2,54.2,26.2,54.1z"/>
	<path fill="#B12435" d="M62.6,57.6c0.1-0.1,0.1-0.1,0.2-0.2C62.7,57.4,62.6,57.5,62.6,57.6z"/>
	<path fill="#B12435" d="M66.5,54.3c0,0.1-0.1,0.1-0.1,0.2C66.4,54.4,66.5,54.4,66.5,54.3z"/>
	<path fill="#B12435" d="M63.8,54.6c-0.1-0.1-0.1-0.1-0.2-0.2C63.7,54.5,63.8,54.6,63.8,54.6z"/>
	<path fill="#B12435" d="M64,54.8c-0.1-0.1-0.1-0.1-0.2-0.2C63.9,54.7,63.9,54.7,64,54.8z"/>
	<path fill="#B12435" d="M68.9,56.5c-0.1-0.1-0.1-0.1-0.2-0.2C68.8,56.4,68.9,56.5,68.9,56.5z"/>
	<path fill="#B12435" d="M29.3,59.3c-0.1,0.1-0.1,0.1-0.2,0.2C29.2,59.4,29.3,59.3,29.3,59.3z"/>
	<path fill="#B12435" d="M67.8,38.4C67.9,38.4,67.9,38.5,67.8,38.4C67.9,38.5,67.9,38.5,67.8,38.4z"/>
	<path fill="#B12435" d="M44.3,64c0,0.1-0.1,0.1-0.1,0.2C44.2,64.1,44.2,64,44.3,64z"/>
	<path fill="#B12435" d="M66.9,59c0-0.1,0.1-0.1,0.1-0.2C67,58.8,66.9,58.9,66.9,59z"/>
	<path fill="#B12435" d="M37.9,67.8c0,0.1-0.1,0.1-0.1,0.1C37.8,67.8,37.8,67.8,37.9,67.8C37.8,67.8,37.8,67.8,37.9,67.8z"/>
	<path fill="#B12435" d="M25.1,24.2C25,24.1,25,24.1,24.9,24C25,24.1,25.1,24.1,25.1,24.2z"/>
	<path fill="#B12435" d="M25,24c0-0.1-0.1-0.1-0.1-0.2C24.9,23.9,24.9,24,25,24z"/>
	<path fill="#B12435" d="M27.4,58.6c0.1-0.1,0.1-0.1,0.2-0.2C27.5,58.5,27.5,58.6,27.4,58.6z"/>
	<path fill="#B12435" d="M63.3,23.3l0.1-0.1C63.4,23.2,63.3,23.2,63.3,23.3z"/>
	<path fill="#B12435" d="M25.4,55.5c0.1,0,0.1-0.1,0.2-0.1C25.5,55.5,25.5,55.5,25.4,55.5z"/>
	<path fill="#B12435" d="M22.8,23.2c0,0.1-0.1,0.1-0.1,0.2C22.7,23.3,22.8,23.3,22.8,23.2z"/>
	<path fill="#B12435" d="M27.6,58.5c0.1,0,0.1-0.1,0.2-0.1C27.7,58.4,27.7,58.4,27.6,58.5z"/>
	<path fill="#B12435" d="M31.2,58.4c-0.1-0.1-0.1-0.1-0.2-0.2C31.1,58.3,31.1,58.3,31.2,58.4z"/>
	<path fill="#B12435" d="M66.8,35.3c0,0.1,0.1,0.1,0.1,0.2C66.9,35.4,66.8,35.4,66.8,35.3z"/>
	<path fill="#B12435" d="M69.1,56.7c-0.1-0.1-0.1-0.1-0.2-0.2C69,56.6,69,56.6,69.1,56.7z"/>
	<path fill="#B12435" d="M57.2,57.9C57.1,58,57.1,58,57,58.1C57.1,58,57.1,58,57.2,57.9z"/>
	<path fill="#B12435" d="M60.4,55.9c-0.1,0.1-0.1,0.2-0.2,0.2C60.3,56,60.4,55.9,60.4,55.9z"/>
	<path fill="#9F4053" d="M63.4,20.7l0.1-0.1C63.5,20.7,63.5,20.7,63.4,20.7C63.4,20.8,63.4,20.8,63.4,20.7z"/>
	<path fill="#B12435" d="M27.9,18.7c0,0.1-0.1,0.2-0.1,0.2C27.9,18.9,27.9,18.8,27.9,18.7z"/>
	<path fill="#B12435" d="M56.1,18.4c-0.1,0.1-0.1,0.1-0.2,0.2C56,18.5,56,18.5,56.1,18.4z"/>
	<path fill="#B12435" d="M56.2,18.3c-0.1,0.1-0.1,0.1-0.2,0.2C56.1,18.4,56.2,18.3,56.2,18.3z"/>
	<path fill="#B12435" d="M67,34.7c0,0.1-0.1,0.1-0.1,0.2C66.9,34.9,66.9,34.8,67,34.7z"/>
	<path fill="#B12435" d="M56.4,18.1c-0.1,0.1-0.1,0.1-0.2,0.2C56.3,18.2,56.3,18.2,56.4,18.1z"/>
	<path fill="#B12435" d="M28.3,18.1c0,0.1-0.1,0.1-0.1,0.2C28.2,18.2,28.2,18.2,28.3,18.1z"/>
	<path fill="#B12435" d="M56.6,18c-0.1,0-0.1,0.1-0.2,0.1C56.5,18.1,56.5,18,56.6,18z"/>
	<path fill="#B12435" d="M28.6,17.6c0,0.1-0.1,0.1-0.1,0.2C28.5,17.8,28.5,17.7,28.6,17.6z"/>
	<path fill="#C8161A" d="M43.6,47.8c-0.1,0.5-0.4,0.9-0.4,1.4c0,1.4-0.7,2.3-2.1,2.6c-1.4,0.3-2,0-2.5-1.4c-0.4-1.2-0.4-2.3,0.7-3.2
		c0.9-0.8,1-2.3,0.3-3.4c-0.7-1.1-2.1-1.6-3.3-1C35,43.5,33.8,43,33,41.5c-0.6-1.2-0.2-2.1,0.8-2.8c0.9-0.7,1.8-1,2.9-0.3
		c1,0.6,2.3,0.3,3.1-0.4c0.8-0.8,1.1-2.1,0.5-3.2c-0.2-0.5-0.5-0.9-0.6-1.4c-0.2-1,0.7-2.8,1.7-3.1c0.9-0.2,1.6,0.3,2.2,0.9
		c0.7,0.7,1.1,1.5,0.9,2.6c-0.2,1.2,0.6,2.4,1.7,2.8c1.1,0.4,2.5,0.1,3.2-0.9c1.2-1.9,3.1-1.3,4.2-0.2c0.3,0.3,0.3,1.2,0.2,1.8
		c-0.1,1.1-0.8,1.9-2,2c-2.3,0.3-3.4,2.3-2.3,4.2c0.3,0.5,0.9,0.9,1.5,1.2c1.4,0.6,2.2,2.8,1.4,4.2c-0.4,0.6-2.4,0.9-3.2,0.4
		c-0.4-0.3-0.8-0.8-1.1-1.3c-0.9-1.7-3-2.1-4.4-0.8c-0.1,0.1-0.1,0.2-0.2,0.3l0,0l-0.1,0.1l0,0C43.7,47.6,43.6,47.7,43.6,47.8z"/>
	<path fill="#C8161A" d="M36.2,26.8c0.5,0.8,0.8,1.5,1.3,2.1c0.8,1.2,1.3,2.4,0.6,3.8c-0.1,0.3-0.5,0.5-0.8,0.6
		c-1.2,0.3-1.9,1.1-2.1,2.2C35,36.4,34.4,37,33.5,37c-0.9,0.1-1.8-0.1-2.6-0.7c-0.6-0.5-1.5-0.7-2.3-1.1
		C30.1,31.6,32.7,28.8,36.2,26.8z"/>
	<path fill="#C8161A" d="M55,29.7c-0.5,0.8-0.9,1.4-1.2,2.1c-0.7,1.3-3.2,1.6-4.2,0.5c-0.6-0.6-1.3-1.1-2.2-1
		c-2.5,0.3-3-1.4-2.8-3.2c0.1-1,0.4-2,0.6-3C49,25.5,52.2,27.1,55,29.7z"/>
	<path fill="#C8161A" d="M52.6,54.6c-3.2,2.1-6.6,3-10.5,2.7c0.1-1.1,0.1-2.1,0.3-3.1c0.1-0.6,0.5-1.2,0.9-1.7
		c0.5-0.6,1.1-0.8,1.9-0.7c1,0.2,1.9,0,2.7-0.7c0.3-0.3,0.9-0.3,1.3-0.2c1.1,0.2,1.8,0.8,2.3,1.8C51.9,53.2,52.2,53.9,52.6,54.6z"/>
	<path fill="#F0813B" d="M43.9,47.4c0.1-0.1,0.1-0.2,0.2-0.3C44,47.2,43.9,47.3,43.9,47.4z"/>
	<path fill="#F0813B" d="M43.7,47.6L43.7,47.6C43.8,47.5,43.8,47.5,43.7,47.6z"/>
	<path fill="#F0813B" d="M43.6,47.8c0-0.1,0.1-0.1,0.1-0.2C43.7,47.6,43.6,47.7,43.6,47.8z"/>
	<path fill="#E5E5E4" d="M62,24.6c0.3,0,0.5,0,0.8-0.1c0,0.1,0,0.2,0,0.2c-0.3,0-0.5,0-0.8,0C62,24.8,62,24.7,62,24.6z"/>
	<path fill="#9F4053" d="M59,20.2c0.1,0.1,0.1,0.3,0.2,0.4c-0.3,0.1-0.5,0.2-0.8,0.3c0-0.1-0.1-0.1-0.1-0.2
		C58.5,20.6,58.8,20.4,59,20.2z"/>
	<path fill="#BC989D" d="M60,21.8c-0.1,0-0.2,0-0.3,0c0.1,0,0.2-0.1,0.2-0.1C60,21.7,60,21.8,60,21.8z"/>
	<path fill="#C8161A" d="M49.5,15.4c0.9,0,1.1,0.2,0.8,1.1c-0.2,0.5-0.3,0.9-0.4,1.4c-0.1,0.6-0.4,0.7-1,0.5
		c-0.9-0.3-1.4-0.9-1.3-1.6C47.7,16.1,48.6,15.5,49.5,15.4z"/>
	<path fill="#9F4053" d="M30.4,18.4c0.1,0.1,0.2,0.2,0.3,0.3c-0.1,0.1-0.2,0.1-0.5,0.3C30.3,18.8,30.4,18.6,30.4,18.4z"/>
	<path fill="#9F4053" d="M71.6,43.7c-0.1,0.1-0.2,0.2-0.3,0.3c-0.2-0.1-0.4-0.1-0.5-0.2v-0.1C71,43.7,71.3,43.7,71.6,43.7z"/>
	<path fill="#9F4053" d="M69.5,44.4c0-0.1,0.1-0.2,0.1-0.3c0.1,0,0.2,0.1,0.4,0.2C69.7,44.4,69.6,44.4,69.5,44.4z"/>
	<path fill="#9F4053" d="M69.5,44.1c-0.1,0-0.1,0-0.2-0.1C69.3,44,69.4,44.1,69.5,44.1z"/>
	<path fill="#9F4053" d="M63,53.4c-0.1,0.1-0.1,0.2-0.2,0.3c-0.1-0.1-0.2-0.3-0.3-0.4C62.7,53.3,62.9,53.3,63,53.4z"/>
	<path fill="#9F4053" d="M61.9,54.3c0.1,0,0.3,0,0.4,0C62.2,54.3,62.1,54.3,61.9,54.3z"/>
	<path fill="#B12435" d="M62.1,53.4c0.1-0.1,0.1-0.1,0.2-0.2C62.3,53.3,62.2,53.3,62.1,53.4z"/>
	<path fill="#9F4053" d="M62.6,54.5L62.6,54.5L62.6,54.5C62.5,54.5,62.5,54.5,62.6,54.5C62.5,54.5,62.6,54.5,62.6,54.5z"/>
	<path fill="#B12435" d="M61.5,55.2C61.5,55.2,61.4,55.2,61.5,55.2L61.5,55.2L61.5,55.2z"/>
	<path fill="#9F4053" d="M23,43.6c-0.2,0.1-0.3,0.4-0.4,0.3c-0.2,0-0.3-0.2-0.6-0.5c0.5,0,0.7,0,0.9,0C23,43.5,23,43.6,23,43.6z"/>
	<path fill="#985066" d="M20.9,43.8c0-0.1,0-0.2,0-0.3c0.2,0,0.4,0,0.5-0.1c0,0.1,0,0.1,0,0.2C21.3,43.7,21.1,43.8,20.9,43.8z"/>
	<path fill="#985066" d="M36.1,67.9c-0.1,0.2-0.1,0.4-0.2,0.6c-0.1,0-0.1,0-0.2-0.1c0.1-0.2,0.1-0.4,0.2-0.6
		C36,67.8,36.1,67.8,36.1,67.9z"/>
	<path fill="#C8161A" d="M31.8,59.6c-0.1,0.2-0.2,0.4-0.3,0.5c0,0-0.2-0.1-0.3-0.1c0.1-0.1,0.2-0.2,0.3-0.3
		C31.6,59.7,31.7,59.7,31.8,59.6z"/>
	<path fill="#9F4053" d="M58.2,58.5c0,0.1-0.1,0.3-0.1,0.4c-0.2-0.1-0.3-0.1-0.5-0.2C57.8,58.7,58,58.6,58.2,58.5z"/>
	<path fill="#9F4053" d="M40.2,65.4c0.1-0.4,0.2-0.8,0.3-1.2c0.1,0,0.2,0,0.3,0.1c-0.1,0.4-0.1,0.8-0.2,1.2
		C40.4,65.5,40.3,65.4,40.2,65.4z"/>
	<path fill="#9F4053" d="M65,60.2c-0.3-0.3-0.6-0.5-0.9-0.8c0.1-0.1,0.1-0.1,0.2-0.2c0.3,0.3,0.6,0.5,0.9,0.8
		C65.1,60.1,65,60.1,65,60.2z"/>
	<path fill="#9F4053" d="M65.9,59.1c-0.1,0-0.3,0-0.4,0c-0.1-0.1-0.2-0.2-0.3-0.3c0.1-0.1,0.2-0.2,0.2-0.2
		C65.6,58.8,65.7,58.9,65.9,59.1z"/>
	<path fill="#9F4053" d="M27.7,57.3c-0.3,0.3-0.6,0.5-0.9,0.8c-0.1-0.1-0.1-0.1-0.2-0.2c0.3-0.3,0.6-0.6,0.8-0.9
		C27.6,57.1,27.6,57.2,27.7,57.3z"/>
	<path fill="#9F4053" d="M69.9,50.9c-0.4-0.1-0.8-0.3-1.2-0.4c0-0.1,0.1-0.2,0.1-0.3c0.4,0.1,0.8,0.3,1.2,0.4
		C70,50.7,69.9,50.8,69.9,50.9z"/>
	<path fill="#9F4053" d="M60.6,64.5c-0.3-0.3-0.5-0.6-0.8-0.9c0.1-0.1,0.2-0.1,0.2-0.2c0.3,0.3,0.5,0.6,0.8,0.9
		C60.8,64.4,60.7,64.5,60.6,64.5z"/>
	<path fill="#9F4053" d="M55.2,63c-0.1,0.2-0.2,0.4-0.2,0.5c-0.3-0.6-0.5-1.1-0.8-1.7c0.1-0.2,0.2-0.3,0.4-0.5
		C54.7,61.9,54.9,62.4,55.2,63z"/>
	<path fill="#9F4053" d="M53.4,62.4c0.2,0.4,0.4,0.7,0.5,1.1c-0.1,0-0.2,0.1-0.2,0.1c-0.2-0.4-0.4-0.7-0.6-1.1
		C53.2,62.4,53.3,62.4,53.4,62.4z"/>
	<path fill="#9F4053" d="M21.7,47c-0.1,0-0.2,0-0.3,0c0.2-0.3-0.7-0.7,0.1-0.9C21.6,46.4,21.6,46.7,21.7,47z"/>
	<path fill="#985066" d="M22.6,46.2c-0.1,0.1-0.2,0.2-0.3,0.2c-0.1,0-0.2-0.1-0.1-0.2c0-0.1,0.1-0.2,0.2-0.2
		C22.4,46,22.5,46.1,22.6,46.2z"/>
	<path fill="#9F4053" d="M61.2,61.6c0.1,0,0.2,0,0.4,0c0.4,0.4,0.8,0.8,1.2,1.2c-0.1,0.1-0.2,0.2-0.3,0.2
		C62,62.5,61.6,62.1,61.2,61.6z"/>
	<path fill="#9F4053" d="M30.5,65c0.1,0.1,0.1,0.1,0.2,0.2c-0.3,0.4-0.5,0.9-0.8,1.3c-0.1-0.1-0.2-0.1-0.3-0.2
		C30,65.9,30.3,65.4,30.5,65z"/>
	<path fill="#985066" d="M67,55.8L67,55.8L67,55.8C67,55.8,67,55.7,67,55.8C67,55.7,67,55.8,67,55.8z"/>
	<path fill="#9F4053" d="M47.8,69c-0.1,0-0.2,0-0.2,0.1c0-0.1,0-0.1,0-0.2h0.1C47.7,68.9,47.7,69,47.8,69z"/>
	<path fill="#9F4053" d="M23.1,52.7c0.1-0.1,0.3-0.2,0.4-0.3c0,0,0.1,0.1,0.2,0.2c-0.1,0.1-0.3,0.2-0.4,0.3
		C23.2,52.9,23.2,52.8,23.1,52.7z"/>
	<path fill="#985066" d="M23.9,51.8c0.1,0,0.1,0,0.2,0c0.1,0.2,0.2,0.4,0.4,0.5c-0.1,0-0.1,0.1-0.2,0.1C24.1,52.2,24,52,23.9,51.8z"
		/>
	<path fill="#9F4053" d="M23.1,51.8c0.1,0,0.2-0.1,0.2-0.1S23.2,51.8,23.1,51.8z"/>
	<path fill="#9F4053" d="M42.7,69.1c0,0.4,0,0.8,0,1.2c-0.1,0-0.1,0-0.2,0c0-0.4,0-0.8,0-1.2C42.5,69.1,42.6,69.1,42.7,69.1z"/>
	<path fill="#9F4053" d="M48.2,69.4c0.1,0.2,0.2,0.3,0.2,0.4c0,0.1-0.1,0.2-0.1,0.3c-0.1-0.1-0.2-0.1-0.2-0.2
		C48,69.7,48.1,69.6,48.2,69.4z"/>
	<path fill="#9F4053" d="M47.6,68.9c0.2-0.1,0.4-0.1,0.6-0.2c0,0.1,0,0.1,0.1,0.2c-0.2,0-0.3,0.1-0.5,0.1
		C47.7,69,47.7,68.9,47.6,68.9z"/>
	<path fill="#985066" d="M35.5,64.2c0.1-0.2,0.2-0.3,0.2-0.5c0.1,0.1,0.2,0.1,0.2,0.1c-0.1,0.2-0.1,0.3-0.2,0.5
		C35.7,64.3,35.6,64.3,35.5,64.2z"/>
	<path fill="#985066" d="M65.4,58.2c-0.1,0-0.1,0-0.2-0.1c0.1-0.2,0.2-0.5,0.3-0.7c0.1,0,0.2,0.1,0.2,0.1
		C65.6,57.7,65.5,58,65.4,58.2z"/>
	<path fill="#9F4053" d="M66.4,58.4c-0.1-0.1-0.3-0.2-0.4-0.3l0.1-0.2c0.2,0.1,0.3,0.1,0.5,0.2C66.6,58.2,66.5,58.3,66.4,58.4z"/>
	<path fill="#9F4053" d="M53.4,68.6c-0.2-0.4-0.3-0.8-0.5-1.2c0.1,0,0.2-0.1,0.3-0.1c0.2,0.4,0.3,0.8,0.5,1.2
		C53.6,68.5,53.5,68.6,53.4,68.6z"/>
	<path fill="#9F4053" d="M61.1,57.9c-0.1,0.6-0.1,0.6-0.6,0.4C60.7,58.1,60.9,57.9,61.1,57.9C61,57.8,61,57.9,61.1,57.9z"/>
	<path fill="#985066" d="M59.9,58.1c-0.1-0.2-0.1-0.3-0.1-0.4c0-0.1,0.1-0.1,0.1-0.2c0.1,0.1,0.2,0.1,0.3,0.2
		C60.2,57.7,60.1,57.8,59.9,58.1z"/>
	<path fill="#9F4053" d="M71,41.6c-0.4,0-0.8,0-1.2,0.1c0-0.1,0-0.2,0-0.3c0.4,0,0.8-0.1,1.2-0.1C71,41.4,71,41.5,71,41.6z"/>
	<path fill="#9F4053" d="M50.9,69.4c-0.1-0.1-0.2-0.2-0.4-0.3C50.7,69.2,50.8,69.3,50.9,69.4z"/>
	<path fill="#9F4053" d="M65.8,49c0.1,0,0.3,0,0.4,0.1c-0.1,0.2-0.1,0.4-0.2,0.5c-0.1,0.2-0.2,0.3-0.3,0.4c-0.1,0-0.2-0.1-0.2-0.1
		C65.6,49.6,65.7,49.3,65.8,49z"/>
	<path fill="#985066" d="M65.1,49.5c-0.1,0.1-0.3,0.2-0.3,0.2c-0.1-0.1-0.1-0.2-0.2-0.3c0.1,0,0.2-0.1,0.2-0.1
		C65,49.3,65,49.4,65.1,49.5z"/>
	<path fill="#9F4053" d="M22.9,51.2c-0.1,0-0.2,0-0.3,0c-0.1-0.2-0.2-0.5-0.3-0.7c0.1,0,0.2-0.1,0.3-0.1
		C22.7,50.7,22.8,50.9,22.9,51.2z"/>
	<path fill="#9F4053" d="M23.6,50.3c-0.1,0.1-0.2,0.1-0.3,0.2c0-0.1-0.1-0.1-0.1-0.2c0-0.1,0.1-0.2,0.2-0.2S23.5,50.2,23.6,50.3z"/>
	<path fill="#9F4053" d="M49.4,64.7c0,0.1,0,0.3,0,0.4c-0.2,0-0.3,0-0.5,0s-0.4,0-0.5,0c0-0.1,0-0.2,0-0.3
		C48.7,64.9,49,64.8,49.4,64.7z"/>
	<path fill="#9F4053" d="M48.6,64.2c-0.1,0.1-0.2,0.2-0.3,0.2s-0.2-0.1-0.2-0.2c0-0.1,0.1-0.2,0.2-0.2C48.5,64,48.5,64.1,48.6,64.2z
		"/>
	<path fill="#9F4053" d="M69.4,48.5c-0.1-0.2-0.2-0.3-0.2-0.3c0-0.1,0.1-0.1,0.2-0.1l0.1,0.1C69.6,48.3,69.5,48.4,69.4,48.5z"/>
	<path fill="#9F4053" d="M57.3,66.6c0.1-0.1,0.2-0.2,0.3-0.3c0.1,0.1,0.1,0.1,0.2,0.2C57.6,66.5,57.5,66.6,57.3,66.6z"/>
	<path fill="#9F4053" d="M66.2,48.2c-0.1-0.1-0.2-0.1-0.3-0.2c0.2-0.2,0.3-0.4,0.5-0.6c0.1,0,0.1,0.1,0.2,0.1
		C66.5,47.8,66.4,48,66.2,48.2z"/>
	<path fill="#985066" d="M65.5,47c0.1,0,0.2,0,0.2,0c-0.1,0.2-0.3,0.3-0.4,0.5c-0.1,0-0.1-0.1-0.2-0.1C65.3,47.3,65.4,47.1,65.5,47z
		"/>
	<path fill="#9F4053" d="M70.4,40.1c0.2,0,0.4-0.1,0.6-0.1C70.8,40,70.6,40.1,70.4,40.1z"/>
	<path fill="#9F4053" d="M44.4,65.6c0-0.1,0.1-0.2,0.1-0.3c0.2,0.1,0.4,0.2,0.6,0.3c0,0.1,0,0.1-0.1,0.2
		C44.9,65.7,44.7,65.7,44.4,65.6z"/>
	<path fill="#C8161A" d="M64.4,51c0.1,0,0.3-0.1,0.4-0.1c0,0.4,0,0.7,0.1,1c-0.3-0.1-0.6-0.3-0.9-0.4c0-0.1,0.1-0.1,0.1-0.2
		C64.2,51.2,64.3,51.1,64.4,51z"/>
	<path fill="#B12435" d="M64.1,51.4c0,0.1-0.1,0.1-0.1,0.2C64.1,51.5,64.1,51.4,64.1,51.4z"/>
	<path fill="#985066" d="M38.7,68.6c0,0.1,0,0.2,0,0.3c-0.1-0.1-0.3-0.2-0.4-0.3c0-0.1,0.1-0.1,0.1-0.2
		C38.5,68.5,38.6,68.6,38.7,68.6z"/>
	<path fill="#9F4053" d="M21.7,48.1c0.1,0,0.2,0,0.3,0c-0.1,0.2-0.1,0.4-0.2,0.6c-0.1,0-0.1,0-0.2,0C21.6,48.4,21.7,48.3,21.7,48.1z
		"/>
	<path fill="#9F4053" d="M39.6,70c0.1-0.1,0.1-0.3,0.2-0.4c0.2,0.2,0.5,0.3,0.7,0.5c0,0.1-0.1,0.1-0.1,0.2
		C40.1,70.1,39.8,70,39.6,70z"/>
	<path fill="#985066" d="M40.8,69c0,0.1,0,0.1,0,0.2c-0.1,0-0.2-0.1-0.3-0.1c-0.1-0.1-0.1-0.1-0.1-0.4C40.6,68.9,40.7,69,40.8,69z"
		/>
	<path fill="#C8161A" d="M59.9,20L59.9,20L59.9,20C59.9,19.9,59.9,20,59.9,20z"/>
	<path fill="#C8161A" d="M21.1,45.3c-0.1,0-0.2,0-0.3,0C20.9,45.3,21,45.3,21.1,45.3z"/>
	<path fill="#9F4053" d="M43.5,65.7c-0.3,0-0.6,0-0.8,0c0-0.1,0-0.2,0-0.3c0.4,0,0.8,0,1.2,0C43.7,65.5,43.6,65.6,43.5,65.7z"/>
	<path fill="#9F4053" d="M62.4,52.7c0-0.2,0.1-0.3,0.1-0.5c0.1,0,0.2,0,0.2,0C62.7,52.5,62.5,52.6,62.4,52.7z"/>
	<path fill="#9F4053" d="M68.1,53.4c-0.1,0.1-0.3,0.2-0.4,0.3c-0.1-0.1-0.2-0.2-0.3-0.3c0.2,0,0.3,0,0.5-0.1
		C67.9,53.4,68,53.4,68.1,53.4z"/>
	<path fill="#C8161A" d="M35.9,19.6c0,0.1,0,0.1-0.1,0.2c0,0,0,0-0.1,0C35.8,19.7,35.8,19.7,35.9,19.6
		C35.8,19.6,35.9,19.6,35.9,19.6z"/>
	<path fill="#9F4053" d="M68,54.4c0.2-0.2,0.4-0.3,0.6-0.5c0.1,0.1,0.1,0.1,0.2,0.2c-0.1,0.1-0.3,0.2-0.4,0.4
		C68.3,54.5,68.1,54.5,68,54.4z"/>
	<path fill="#C8161A" d="M63,25.8c-0.2,0-0.4,0-0.6,0C62.6,25.9,62.8,25.8,63,25.8z"/>
	<path fill="#C8161A" d="M30.9,18.1c0.2,0,0.3,0,0.5,0C31.2,18.1,31,18.1,30.9,18.1z"/>
	<path fill="#9F4053" d="M56.5,62.1c-0.3,0.1-0.5,0.3-0.8,0.4c0-0.1-0.1-0.2-0.1-0.2c0.3-0.2,0.6-0.4,0.9-0.6
		C56.5,61.8,56.5,61.9,56.5,62.1z"/>
	<path fill="#985066" d="M69.2,36.9c-0.1-0.2-0.2-0.4-0.3-0.6c0.1,0,0.2-0.1,0.2-0.1c0.1,0.2,0.1,0.4,0.2,0.6
		C69.3,36.9,69.2,36.9,69.2,36.9z"/>
	<path fill="#9F4053" d="M69.7,36.1c0.1,0,0.3-0.1,0.4-0.1c0,0.1,0,0.2,0,0.3c-0.1,0-0.3,0-0.4,0C69.7,36.2,69.7,36.1,69.7,36.1z"/>
	<path fill="#985066" d="M27.6,65.1c0.1-0.1,0.2-0.3,0.3-0.4c0.1,0,0.1,0.1,0.2,0.1c-0.1,0.1-0.2,0.3-0.3,0.4
		C27.8,65.2,27.7,65.1,27.6,65.1z"/>
	<path fill="#985066" d="M42.8,64.9c-0.1-0.2-0.2-0.3-0.1-0.3c0-0.1,0.2-0.2,0.2-0.2c0.1,0.1,0.2,0.2,0.1,0.2
		C43,64.7,42.9,64.8,42.8,64.9z"/>
	<path fill="#985066" d="M55.3,61.2c0.1,0.1,0.2,0.2,0.2,0.3s-0.1,0.2-0.2,0.2c-0.1,0-0.2-0.1-0.2-0.2
		C55.1,61.4,55.2,61.3,55.3,61.2z"/>
</g>
</svg>
