<?xml version="1.0" encoding="utf-8"?>
<!-- Generator: Adobe Illustrator 23.0.3, SVG Export Plug-In . SVG Version: 6.00 Build 0)  -->
<svg version="1.2" baseProfile="tiny" id="Calque_1"
	 xmlns="http://www.w3.org/2000/svg" xmlns:xlink="http://www.w3.org/1999/xlink" x="0px" y="0px" viewBox="0 0 88.1 84.1"
	 xml:space="preserve">
<g>
	<g>
		<path fill="#E62832" d="M77.3,8.8c0,22.4,0,44.8,0,67.3c-22.4,0-44.8,0-67.3,0c0-22.4,0-44.8,0-67.3C32.6,8.8,54.9,8.8,77.3,8.8z
			 M55.3,27c-0.1,0-0.3,0-0.5,0c-7.2,0-14.5,0-21.7,0c-2.1,0-2.1,0-2.1,2c0,1.4,0,2.8,0,4.2c0,0.4,0.1,0.9,0.2,1.4
			c2.8,0,5.4,0,8.2,0c0.1,1,0.1,1.7,0.1,2.5c0,7.1,0,14.1,0,21.2c0,0.7-0.1,1.4-0.1,2.1c0,0.6,0.3,1,0.9,1c2.2,0,4.3,0,6.5,0
			c0.6,0,0.9-0.4,1-1c0-0.3,0-0.7,0-1c0-7.7,0-15.4,0-23.1c0-0.5,0.1-1,0.1-1.6c2.8,0,5.4,0,7.9,0c0.2-0.3,0.3-0.4,0.3-0.5
			c0-2,0-4.1,0-6.1C56.3,27.3,55.9,27,55.3,27z"/>
		<path fill="#E51D24" d="M55.3,27c-0.1,0-0.3,0-0.5,0C55,27,55.1,27,55.3,27z"/>
	</g>
</g>
</svg>
