<?xml version="1.0" encoding="utf-8"?>
<!-- Generator: Adobe Illustrator 23.0.3, SVG Export Plug-In . SVG Version: 6.00 Build 0)  -->
<svg version="1.1" id="Calque_1" xmlns="http://www.w3.org/2000/svg" xmlns:xlink="http://www.w3.org/1999/xlink" x="0px" y="0px"
	 viewBox="0 0 42 42" style="enable-background:new 0 0 42 42;" xml:space="preserve">
<style type="text/css">
	.st0{fill:none;}
	.st1{display:none;}
	.st2{display:inline;}
	.st3{fill:#1F3563;}
	.st4{fill:#1F3461;}
	.st5{fill:#20325E;}
	.st6{fill:#0D4D7C;}
	.st7{fill:#B1182B;}
	.st8{fill:#074C7B;}
	.st9{fill:#0C4E7C;}
	.st10{fill:#11517E;}
	.st11{fill:#0E507E;}
	.st12{fill:#0B4C7B;}
	.st13{fill:#0E4F7D;}
	.st14{fill:#1B3967;}
	.st15{fill:#173C6B;}
</style>
<rect class="st0" width="42" height="42"/>
<g class="st1">
	<g class="st2">
		<path class="st3" d="M15.2,22.8c0.3,0,0.7,0,1,0c0.2,0.6,0.4,0.8,1,0.8c1,0,2.1,0,3.1,0c0.6,0,0.9-0.3,0.9-0.8
			c0-0.4-0.2-0.7-0.6-0.8c-0.5-0.1-1-0.1-1.5-0.2c-0.8,0-1.6,0-2.5,0c-1.3-0.1-1.7-1.1-1.5-2.2c0.1-0.5,0.5-0.9,1-1
			c0.2,0,0.4-0.1,0.6-0.1c1.3,0,2.6,0,3.9,0c0.9,0,1.5,0.6,1.5,1.5c0,0,0,0.1,0,0.2c-0.3,0-0.7,0-1,0c-0.2-0.6-0.4-0.8-1.1-0.8
			c-1,0-2,0-3,0c-0.6,0-0.9,0.4-0.8,0.9c0.1,0.3,0.3,0.5,0.6,0.5c0.6,0.1,1.3,0.1,1.9,0.1c0.7,0,1.5-0.1,2.2,0.2
			c1.2,0.3,1.7,2,0.9,2.9c-0.2,0.2-0.4,0.3-0.6,0.4c-0.3,0.1-0.6,0.1-0.9,0.1c-1.1,0-2.3,0-3.4,0c-0.3,0-0.6,0-0.8-0.1
			C15.5,24.1,15.1,23.5,15.2,22.8z"/>
		<path class="st3" d="M29.9,22.7c0.3,0,0.6,0,0.9,0c0.2,0.7-0.2,1.4-0.9,1.6c-0.5,0.1-1.1,0.2-1.6,0.2c-1,0-2,0-3,0
			c-1.1-0.1-1.6-0.6-1.7-1.7c0-0.9,0-1.8,0-2.7c0.1-1,0.5-1.4,1.5-1.5c1.5-0.2,3-0.3,4.4,0.1c0.9,0.2,1.3,0.8,1.3,1.6
			c-0.3,0-0.6,0-0.9,0c0-0.6-0.4-0.8-0.9-0.8c-1.1,0-2.3,0-3.4,0c-0.8,0-1.2,0.7-1,1.5c1.3,0,2.7,0,4.1,0c0,0.3,0,0.6,0,0.9
			c-1.4,0-2.7,0-4.2,0c0.1,0.4,0.1,0.7,0.2,1.1c0.1,0.3,0.3,0.5,0.6,0.6c0.3,0,0.7,0.1,1.1,0.1c0.9,0,1.7,0,2.6,0
			C29.6,23.5,29.8,23.3,29.9,22.7z"/>
		<path class="st4" d="M35.7,24.5c-0.6,0-1.2,0-1.9-0.1c-1-0.1-1.5-0.6-1.6-1.6c-0.1-1-0.1-2,0-3c0.1-0.7,0.6-1.1,1.2-1.3
			c0.2,0,0.5-0.1,0.7-0.1c1.1,0,2.2,0,3.4,0.1c1.1,0.1,1.6,0.6,1.6,1.6c0.1,0.9,0.1,1.9,0,2.8c-0.1,0.9-0.6,1.4-1.6,1.5
			C37,24.5,36.3,24.5,35.7,24.5z M35.6,23.5c0.6,0,1.1,0,1.7-0.1c0.5,0,0.8-0.3,0.8-0.8c0-0.8,0-1.6,0-2.4c0-0.5-0.3-0.8-0.8-0.8
			c-1.1,0-2.2,0-3.3,0c-0.4,0-0.7,0.3-0.8,0.6c-0.2,0.9-0.2,1.8,0,2.6c0.1,0.4,0.3,0.6,0.7,0.6C34.6,23.4,35.2,23.5,35.6,23.5z"/>
		<path class="st3" d="M3.6,18.4c0.4,0,0.7,0,1.1,0c0.1,0,0.2,0.1,0.2,0.2c0.8,1.5,1.6,3.1,2.4,4.6c0,0.1,0.1,0.2,0.2,0.4
			c0.1-0.2,0.2-0.3,0.2-0.4c0.8-1.5,1.5-3,2.3-4.6c0.1-0.2,0.2-0.3,0.4-0.3c0.3,0,0.6,0,0.9,0c-0.1,0.2-0.1,0.3-0.2,0.4
			c-0.9,1.8-1.9,3.6-2.8,5.4c-0.1,0.2-0.2,0.3-0.4,0.3c-0.4,0-0.7,0-1.1,0c-0.1,0-0.3-0.1-0.3-0.2c-1-1.9-1.9-3.8-2.9-5.7
			C3.6,18.5,3.6,18.5,3.6,18.4z"/>
		<path class="st5" d="M12.7,18.4c0.3,0,0.7,0,1,0c0,2,0,4,0,6.1c-0.3,0-0.6,0-1,0C12.7,22.4,12.7,20.4,12.7,18.4z"/>
	</g>
</g>
<g>
	<g>
		<path class="st6" d="M22.1,20.8c0,1.4-0.5,2.6-0.6,4c0,0,0.1,0,0.1,0c0.2-0.3,0.4-0.6,0.6-0.9c0.6-0.9,1.2-1.8,1.8-2.7
			c0.2-0.4,0.5-0.6,1-0.5c0.4,0,0.8,0,1.1,0c0.2,0.4,0,0.6,0,0.8c-0.5,1.2-1,2.5-1.6,3.7c-0.3,0.7-0.3,0.7-1.2,0.6
			c0.1-0.7,0.5-1.4,0.8-2.1c0.3-0.7,0.6-1.4,0.9-2.1c-0.4,0-0.5,0.3-0.6,0.5c-0.6,0.9-1.2,1.8-1.8,2.7c-0.1,0.2-0.3,0.5-0.5,0.7
			c-0.2,0.2-0.5,0.4-0.8,0.4c-0.5,0.1-1,0-0.8-0.8c0.2-1,0.4-2.1,0.6-3.1c0-0.1,0-0.2,0-0.3c-0.4,0-0.4,0.3-0.5,0.5
			c-0.4,1-0.8,2-1.2,2.9c-0.3,0.8-0.3,0.8-1.3,0.7c0.1-0.3,0.2-0.7,0.3-1c0.5-1.2,1-2.5,1.5-3.7c0.2-0.4,0.4-0.6,0.9-0.6
			C21.2,20.8,21.6,20.6,22.1,20.8z"/>
		<path class="st7" d="M33.4,19c-0.2,0.1-0.3,0.2-0.4,0.2c-0.1,0-0.3,0-0.5,0c-8.7,0-17.4,0-26,0c-0.2,0-0.4,0-0.6,0
			c-0.1,0-0.2-0.2-0.2-0.3c0-0.1,0.1-0.2,0.3-0.2c0.1,0,0.3,0,0.5,0c8.7,0,17.4,0,26.2,0C32.8,18.7,33.1,18.6,33.4,19z"/>
		<path class="st8" d="M13.5,25.9c-0.2,0-0.4,0-0.7,0c0-0.2,0-0.3,0-0.5c0.7-1.6,1.3-3.1,2-4.8c1.1,0,2.2,0,3.3,0
			c0.6,0,0.9,0.5,0.7,1.1c-0.2,0.7-0.5,1.4-1.3,1.8c-0.1,0-0.2,0.1-0.3,0.1c0.1,0.7,0.1,1.5-0.1,2.2c-0.3,0-0.6,0-0.9,0
			c0-0.2-0.1-0.4-0.1-0.6c0-0.3,0-0.6,0-0.9c0-0.4-0.1-0.5-0.5-0.5c-0.2,0-0.4,0-0.6,0c0.1-0.3,0.2-0.6,0.4-0.8c0.4,0,0.7,0,1.1,0
			c0.6,0,1.1-0.4,1.1-1c0.1-0.4,0-0.5-0.4-0.6c-0.5,0-0.9,0-1.4,0c-0.3,0-0.4,0.2-0.4,0.4c-0.4,0.9-0.8,1.8-1.1,2.8
			C14,25.1,13.9,25.6,13.5,25.9z"/>
		<path class="st9" d="M38.9,25.9c-0.4,0-0.7,0-1,0c0-0.5,0-0.9,0-1.4c-0.6,0-1.1,0-1.8,0c0.3-0.4,0.5-0.7,0.8-0.9
			c0.3-0.1,0.7,0,1.1,0c0.1-0.7,0.1-1.3,0.2-2c-0.4-0.1-0.4,0.2-0.6,0.4c-0.8,1.1-1.7,2.1-2.5,3.2c-0.4,0.6-0.8,0.9-1.6,0.7
			c0.5-0.6,0.9-1.2,1.4-1.8c0.7-1,1.5-1.9,2.2-2.8c0.4-0.4,1.5-0.7,2-0.4c0.1,0.1,0.2,0.3,0.2,0.4c-0.1,1.2-0.2,2.4-0.3,3.6
			C39,25.2,39,25.5,38.9,25.9z"/>
		<path class="st10" d="M8.1,25.9c-0.3-0.1-0.2-0.3-0.1-0.5c0.2-0.4,0.3-0.8,0.5-1.2c0.4-0.9,0.8-1.9,1.2-2.8c0.2-0.5,0.5-0.7,1-0.7
			c1.1,0,2.2,0,3.3,0c-0.1,0.3-0.2,0.5-0.3,0.8c-0.7,0-1.3,0-2,0c-1,0-0.9-0.1-1.3,0.8c0,0.1-0.1,0.3-0.2,0.5c0.9,0,1.8,0,2.7,0
			c-0.1,0.3-0.2,0.6-0.3,0.9c-0.9,0-1.8,0-2.8,0c-0.2,0.4-0.4,0.9-0.6,1.4c1,0,1.9,0,3,0c-0.1,0.2-0.2,0.4-0.3,0.5
			c-0.2,0-0.5,0.1-0.7,0.1c-0.9,0-1.8,0-2.6,0C8.4,25.7,8.2,25.8,8.1,25.9z"/>
		<path class="st10" d="M25.4,25.9c-0.3-0.2-0.1-0.4,0-0.6c0.5-1.1,0.9-2.2,1.4-3.3c0.1-0.3,0.2-0.5,0.3-0.8
			c0.1-0.3,0.3-0.4,0.6-0.4c1.2,0,2.3,0,3.6,0c-0.1,0.3-0.2,0.5-0.3,0.8c-0.7,0-1.4,0-2.1,0c-0.9,0-0.8-0.1-1.2,0.8
			c0,0.1-0.1,0.3-0.2,0.5c0.9,0,1.8,0,2.7,0c-0.1,0.3-0.2,0.6-0.4,0.9c-0.7,0-1.3,0-2,0c-0.9,0-0.7-0.1-1.1,0.7
			c-0.1,0.2-0.1,0.4-0.2,0.6c1,0,1.9,0,2.9,0c-0.1,0.3-0.2,0.5-0.3,0.7c-1.1,0-2.2,0-3.2,0C25.7,25.7,25.5,25.8,25.4,25.9z"/>
		<path class="st11" d="M2.7,25.7c0.1-0.2,0.1-0.4,0.2-0.6c0.9,0,1.7,0,2.6,0c0.5,0,0.9-0.4,1-0.9c0-0.3,0-0.5-0.4-0.5
			c-0.4,0-0.7,0-1.1,0c-0.2,0-0.4,0-0.7-0.1c-0.5-0.1-0.7-0.4-0.6-0.9c0.2-1.2,1.1-2,2.4-2c0.8,0,1.6,0,2.5,0
			c-0.1,0.3-0.2,0.5-0.3,0.8c-0.7,0-1.5,0-2.2,0c-0.6,0-1,0.3-1.1,0.8c-0.1,0.4,0,0.5,0.4,0.5c0.4,0,0.8,0,1.3,0
			c0.9,0,1.2,0.4,0.9,1.2c-0.3,0.9-0.8,1.6-1.9,1.8c-0.2,0-0.4-0.1-0.5-0.1C4.4,25.7,3.6,25.7,2.7,25.7z"/>
		<path class="st12" d="M34.1,19.1c0.1-0.2,0.2-0.3,0.2-0.5c-0.2-0.1-0.5-0.3-0.7-0.4c0.4,0,0.8-0.1,1.2-0.2c0.3,0,0.5-0.1,0.7-0.3
			c0.4-0.2,0.4-0.4,0.3-0.8c-0.2-0.5-0.6-0.8-1-1.1c-0.3-0.2-0.6-0.4-0.8-0.5c0.7-0.4,1.7-0.3,2.2,0.4c0,0,0.1,0.1,0.1,0.2
			c0.4,0.7,0.8,0.8,1.6,0.3c0.3-0.2,0.6-0.6,1.2-0.5c-0.2,0.2-0.4,0.4-0.5,0.5c-0.1,0.2-0.3,0.3-0.4,0.5c-0.2,0.4-0.2,0.5,0.1,0.8
			c1.1,1.1,1.2,1.3,0.9,3c-0.1-0.1-0.2-0.2-0.3-0.4c-0.3-0.4-0.6-0.8-0.9-1.2c-0.6-0.7-1.3-0.8-2.1-0.5c-0.5,0.2-0.9,0.4-1.4,0.6
			C34.4,19,34.3,19,34.1,19.1z"/>
		<path class="st13" d="M32.3,26c-0.3,0-0.6,0-0.9,0c0.1-0.3,0.1-0.5,0.2-0.7c0.5-1.2,1-2.4,1.5-3.6c-0.5,0-1,0-1.5-0.1
			c0.1-0.3,0.2-0.5,0.3-0.7c1.4,0,2.7,0,4.1,0c-0.1,0.3-0.2,0.5-0.3,0.8c-0.4,0-0.7,0-1.1,0c-0.4,0-0.6,0.1-0.7,0.5
			c-0.4,1.1-0.9,2.1-1.3,3.1C32.6,25.4,32.5,25.6,32.3,26z"/>
		<path class="st14" d="M8.1,25.9c0.1,0,0.3-0.1,0.4-0.1c0.9,0,1.8,0,2.6,0c0.2,0,0.5-0.1,0.7-0.1c0,0.2-0.1,0.3-0.3,0.3
			C10.4,25.9,9.2,25.9,8.1,25.9z"/>
		<path class="st14" d="M25.4,25.9c0.2,0,0.3-0.1,0.5-0.1c1.1,0,2.2,0,3.2,0c0,0-0.1,0.2-0.2,0.2C27.7,25.9,26.6,25.9,25.4,25.9z"/>
		<path class="st15" d="M2.7,25.7c0.9,0,1.7,0,2.6,0c0.2,0,0.4,0.1,0.5,0.1l0,0c0,0-0.1,0-0.2,0c-1,0-1.9,0-2.9,0
			C2.7,25.8,2.7,25.8,2.7,25.7L2.7,25.7z"/>
		<path class="st11" d="M2.7,25.7c0,0,0,0.1,0,0.2c0,0,0,0-0.1,0C2.7,25.8,2.7,25.8,2.7,25.7z"/>
		<path class="st11" d="M5.6,25.9c0,0,0.1,0,0.2,0C5.8,25.9,5.7,25.9,5.6,25.9z"/>
	</g>
</g>
</svg>
