<?xml version="1.0" encoding="utf-8"?>
<!-- Generator: Adobe Illustrator 23.0.3, SVG Export Plug-In . SVG Version: 6.00 Build 0)  -->
<svg version="1.2" baseProfile="tiny" id="Calque_1"
	 xmlns="http://www.w3.org/2000/svg" xmlns:xlink="http://www.w3.org/1999/xlink" x="0px" y="0px" viewBox="0 0 175.8 84.1"
	 xml:space="preserve">
<g>
	<g>
		<path fill="#0D4D7C" d="M91.3,40.7c-0.1,5.8-2.2,11.3-2.6,17.1c0.2,0.1,0.4,0.2,0.6,0.2c0.8-1.3,1.7-2.7,2.5-4
			c2.5-3.9,5-7.8,7.5-11.7c1-1.6,2.3-2.4,4.2-2.3c1.7,0.1,3.4,0,4.9,0c0.9,1.5,0.2,2.5-0.2,3.5c-2.2,5.3-4.4,10.6-6.7,15.9
			c-1.3,3.2-1.4,3.2-5.3,2.7c0.5-3.2,2.3-5.9,3.4-8.9c1.1-2.9,2.4-5.8,3.7-9c-1.7,0.2-2,1.3-2.5,2.1c-2.5,3.8-5,7.6-7.5,11.4
			c-0.6,0.9-1.1,2-2,2.8c-1,0.8-2.2,1.6-3.4,1.8c-2.3,0.3-4.1,0-3.4-3.4c0.9-4.4,1.7-8.9,2.5-13.4c0.1-0.3,0-0.7,0-1.2
			c-1.5,0.1-1.6,1.4-2,2.2c-1.8,4.2-3.5,8.4-5.2,12.5c-1.4,3.4-1.4,3.4-5.4,3.2c0.4-1.4,0.7-2.9,1.3-4.2c2.1-5.3,4.3-10.5,6.5-15.7
			c0.7-1.7,1.8-2.6,3.7-2.4C87.6,40.3,89.5,39.7,91.3,40.7z"/>
		<path fill="#B1182B" d="M139.6,32.8c-0.7,0.4-1.2,0.8-1.8,1c-0.6,0.2-1.3,0-2,0c-37,0-74.1,0-111.1,0c-0.8,0-1.7,0.1-2.5-0.1
			c-0.4-0.1-0.9-0.8-0.9-1.2c0-0.3,0.6-0.9,1.1-1c0.6-0.2,1.3-0.1,2-0.1c37.2,0,74.4,0,111.7,0C137.2,31.4,138.6,31,139.6,32.8z"/>
		<path fill="#074C7B" d="M54.7,62.4c-0.8,0-1.9,0-3.2,0c0.1-0.7,0-1.4,0.2-2c2.8-6.7,5.6-13.4,8.5-20.3c4.7,0,9.3-0.1,13.9,0
			c2.5,0.1,3.7,2.1,2.8,4.7c-1,3.1-2.3,6-5.6,7.5c-0.3,0.1-0.7,0.3-1.1,0.6c0.6,3.2,0.4,6.3-0.3,9.5c-1.4,0-2.6,0-4,0
			c-0.1-0.8-0.3-1.6-0.3-2.5c0-1.2,0.1-2.5,0-3.7c0-1.8-0.4-2.1-2.1-2.3c-0.7-0.1-1.5-0.1-2.5-0.2c0.5-1.3,1-2.4,1.5-3.5
			c1.6,0,3.1,0,4.6,0c2.5-0.1,4.5-1.8,4.9-4.3c0.3-1.5-0.1-2.3-1.6-2.4c-2-0.1-4-0.1-6,0c-1.1,0-1.5,0.9-1.9,1.8
			c-1.6,3.9-3.3,7.8-4.9,11.8C56.9,59,56.5,61,54.7,62.4z"/>
		<path fill="#0C4E7C" d="M163.3,62.4c-1.5,0-2.9,0-4.4,0c0-2,0-3.8,0-5.9c-2.4,0-4.7,0-7.8,0c1.4-1.6,2.1-3.2,3.4-3.8
			c1.2-0.6,3-0.1,4.8-0.1c0.3-2.9,0.5-5.7,0.7-8.6c-1.6-0.3-1.9,1-2.4,1.7c-3.5,4.6-7.1,9.1-10.5,13.8c-1.7,2.4-3.6,3.7-6.9,2.9
			c2-2.6,3.9-5.3,5.9-7.8c3.1-4.1,6.2-8.1,9.4-12.1c1.5-1.9,6.4-3.1,8.5-1.9c0.5,0.3,0.9,1.2,0.9,1.8c-0.3,5.1-0.7,10.2-1.1,15.3
			C163.7,59.1,163.5,60.7,163.3,62.4z"/>
		<path fill="#11517E" d="M31.6,62.1c-1.1-0.4-1-1.2-0.6-2c0.7-1.7,1.3-3.3,2-5c1.7-4,3.4-8,5-12c0.8-2.1,2-3.1,4.4-3
			c4.6,0.2,9.3,0.1,14.1,0.1c-0.5,1.2-0.9,2.1-1.4,3.4c-2.8,0-5.7,0-8.6,0c-4.3,0-4-0.4-5.5,3.6c-0.2,0.6-0.5,1.2-0.8,2.1
			c3.9,0,7.5,0,11.7,0c-0.5,1.4-1,2.5-1.4,3.7c-3.9,0-7.7,0-11.8,0c-0.8,1.9-1.6,3.7-2.6,5.9c4.3,0,8.3,0,12.7,0
			c-0.5,1-0.8,1.6-1.1,2.2c-1,0.2-2,0.5-3,0.5c-3.8,0.1-7.5,0-11.3,0C32.8,61.6,32.2,62,31.6,62.1z"/>
		<path fill="#11517E" d="M105.5,62.1c-1.2-0.8-0.6-1.8-0.2-2.7c2-4.7,3.9-9.4,5.9-14.1c0.5-1.1,0.9-2.3,1.4-3.4
			c0.5-1.1,1.4-1.8,2.7-1.8c5,0,10,0,15.2,0c-0.4,1.2-0.8,2.1-1.3,3.4c-3,0-6,0-9,0c-3.9,0-3.6-0.6-5.2,3.6
			c-0.2,0.6-0.4,1.2-0.7,2.1c3.9,0,7.6,0,11.6,0c-0.6,1.4-1,2.5-1.5,3.8c-2.9,0-5.7,0-8.5,0c-3.7,0-3.2-0.3-4.6,3.2
			c-0.3,0.8-0.5,1.6-0.9,2.6c4.2,0,8.1,0,12.5,0c-0.6,1.2-1,2-1.4,2.8c-4.6,0-9.2,0-13.8,0C106.9,61.6,106.2,61.9,105.5,62.1z"/>
		<path fill="#0E507E" d="M8.7,61.5c0.3-0.9,0.6-1.7,0.9-2.7c3.7,0,7.3,0,10.9,0c2.2,0,3.9-1.5,4.3-3.7c0.2-1.4-0.2-2-1.5-2.1
			c-1.5-0.1-3,0-4.5-0.1c-0.9,0-1.9-0.1-2.8-0.4c-2.1-0.6-2.8-1.7-2.4-3.8c0.9-5.3,4.9-8.7,10.2-8.7c3.4,0,6.8,0,10.5,0
			c-0.5,1.2-0.9,2.2-1.4,3.4c-3.1,0-6.2-0.1-9.3,0c-2.5,0.1-4.1,1.3-4.6,3.4c-0.4,1.6,0,2.2,1.5,2.3c1.8,0.1,3.6,0,5.4,0.1
			c3.7,0.1,5,1.9,3.9,5.3c-1.3,3.8-3.5,6.9-7.9,7.6c-0.8-0.2-1.5-0.6-2.3-0.6C16,61.5,12.4,61.5,8.7,61.5z"/>
		<path fill="#0B4C7B" d="M142.6,33.1c0.4-0.9,0.7-1.4,1-2c-1-0.5-2.1-1.1-3.2-1.6c1.9-0.2,3.6-0.4,5.3-0.7c1.1-0.2,2.2-0.6,3.2-1.2
			c1.6-1,1.8-1.8,1.1-3.6c-0.9-2-2.5-3.6-4.3-4.8c-1.1-0.8-2.4-1.5-3.6-2.2c3.2-1.8,7.4-1.1,9.6,1.5c0.2,0.2,0.4,0.4,0.5,0.7
			c1.7,3,3.4,3.6,7,1.1c1.4-1,2.7-2.4,5.3-2.1c-0.9,1-1.5,1.6-2.1,2.2c-0.6,0.7-1.3,1.4-1.8,2.2c-0.9,1.5-0.8,2.3,0.5,3.5
			c4.8,4.8,5,5.5,3.8,12.9c-0.5-0.6-0.9-1-1.3-1.5c-1.3-1.7-2.5-3.6-3.9-5.2c-2.4-2.8-5.5-3.5-8.9-2.2c-2,0.8-4,1.7-6,2.5
			C144.2,32.8,143.6,32.9,142.6,33.1z"/>
		<path fill="#0E4F7D" d="M135.1,62.5c-1.3,0-2.4,0-4,0c0.3-1.2,0.6-2.2,1-3.2c2.1-5.1,4.2-10.1,6.5-15.5c-2.2-0.1-4.2-0.2-6.4-0.4
			c0.5-1.1,0.9-2.1,1.3-3.1c5.9,0,11.7,0,17.7,0c-0.4,1.2-0.8,2.1-1.2,3.3c-1.5,0-3,0.1-4.5,0c-1.5-0.1-2.4,0.6-3,2
			c-1.8,4.5-3.7,8.9-5.6,13.3C136.3,60.1,135.7,61.2,135.1,62.5z"/>
		<path fill="#1B3967" d="M31.6,62.1c0.6-0.2,1.2-0.5,1.7-0.5c3.8,0,7.5,0,11.3,0c1,0,2-0.3,3-0.5c-0.1,0.7-0.3,1.3-1.2,1.3
			C41.5,62.3,36.6,62.2,31.6,62.1z"/>
		<path fill="#1B3967" d="M105.5,62.1c0.7-0.2,1.4-0.4,2.1-0.4c4.6,0,9.2,0,13.8,0c-0.2,0.2-0.5,0.7-0.7,0.7
			C115.6,62.3,110.6,62.2,105.5,62.1z"/>
		<path fill="#173C6B" d="M8.7,61.5c3.7,0,7.3,0,11,0.1c0.8,0,1.5,0.4,2.3,0.6v0c-0.2,0-0.5,0-0.7,0c-4.1,0-8.3,0-12.4-0.1
			C8.8,62,8.8,61.7,8.7,61.5L8.7,61.5z"/>
		<path fill="#0E507E" d="M8.8,61.5c0,0.2,0.1,0.4,0.1,0.7c-0.1,0-0.2-0.1-0.4-0.1C8.6,61.9,8.7,61.7,8.8,61.5z"/>
		<path fill="#0E507E" d="M21.2,62.2c0.2,0,0.5,0,0.7,0C21.7,62.2,21.5,62.2,21.2,62.2z"/>
	</g>
</g>
</svg>
