<?xml version="1.0" encoding="utf-8"?>
<!-- Generator: Adobe Illustrator 23.0.3, SVG Export Plug-In . SVG Version: 6.00 Build 0)  -->
<svg version="1.1" id="Calque_1" xmlns="http://www.w3.org/2000/svg" xmlns:xlink="http://www.w3.org/1999/xlink" x="0px" y="0px"
	 viewBox="0 0 42 42" style="enable-background:new 0 0 42 42;" xml:space="preserve">
<style type="text/css">
	.st0{fill:none;}
	.st1{display:none;}
	.st2{display:inline;}
	.st3{fill:#1F3563;}
	.st4{fill:#1F3461;}
	.st5{fill:#20325E;}
	.st6{fill:#FDFDFD;}
	.st7{fill:#030304;}
	.st8{fill:#020203;}
	.st9{fill:none;stroke:#051821;stroke-width:1.7192;stroke-miterlimit:10;}
	.st10{fill:#1E3C73;}
	.st11{fill:#026298;}
	.st12{fill:#3598C5;}
	.st13{fill:#EDF1F4;}
	.st14{fill:#97B8CF;}
	.st15{fill:#E5252B;}
	.st16{fill:#1D2A4D;}
</style>
<rect class="st0" width="42" height="42"/>
<g class="st1">
	<g class="st2">
		<path class="st3" d="M15.2,22.8c0.3,0,0.7,0,1,0c0.2,0.6,0.4,0.8,1,0.8c1,0,2.1,0,3.1,0c0.6,0,0.9-0.3,0.9-0.8
			c0-0.4-0.2-0.7-0.6-0.8c-0.5-0.1-1-0.1-1.5-0.2c-0.8,0-1.6,0-2.5,0c-1.3-0.1-1.7-1.1-1.5-2.2c0.1-0.5,0.5-0.9,1-1
			c0.2,0,0.4-0.1,0.6-0.1c1.3,0,2.6,0,3.9,0c0.9,0,1.5,0.6,1.5,1.5c0,0,0,0.1,0,0.2c-0.3,0-0.7,0-1,0c-0.2-0.6-0.4-0.8-1.1-0.8
			c-1,0-2,0-3,0c-0.6,0-0.9,0.4-0.8,0.9c0.1,0.3,0.3,0.5,0.6,0.5c0.6,0.1,1.3,0.1,1.9,0.1c0.7,0,1.5-0.1,2.2,0.2
			c1.2,0.3,1.7,2,0.9,2.9c-0.2,0.2-0.4,0.3-0.6,0.4c-0.3,0.1-0.6,0.1-0.9,0.1c-1.1,0-2.3,0-3.4,0c-0.3,0-0.6,0-0.8-0.1
			C15.5,24.1,15.1,23.5,15.2,22.8z"/>
		<path class="st3" d="M29.9,22.7c0.3,0,0.6,0,0.9,0c0.2,0.7-0.2,1.4-0.9,1.6c-0.5,0.1-1.1,0.2-1.6,0.2c-1,0-2,0-3,0
			c-1.1-0.1-1.6-0.6-1.7-1.7c0-0.9,0-1.8,0-2.7c0.1-1,0.5-1.4,1.5-1.5c1.5-0.2,3-0.3,4.4,0.1c0.9,0.2,1.3,0.8,1.3,1.6
			c-0.3,0-0.6,0-0.9,0c0-0.6-0.4-0.8-0.9-0.8c-1.1,0-2.3,0-3.4,0c-0.8,0-1.2,0.7-1,1.5c1.3,0,2.7,0,4.1,0c0,0.3,0,0.6,0,0.9
			c-1.4,0-2.7,0-4.2,0c0.1,0.4,0.1,0.7,0.2,1.1c0.1,0.3,0.3,0.5,0.6,0.6c0.3,0,0.7,0.1,1.1,0.1c0.9,0,1.7,0,2.6,0
			C29.6,23.5,29.8,23.3,29.9,22.7z"/>
		<path class="st4" d="M35.7,24.5c-0.6,0-1.2,0-1.9-0.1c-1-0.1-1.5-0.6-1.6-1.6c-0.1-1-0.1-2,0-3c0.1-0.7,0.6-1.1,1.2-1.3
			c0.2,0,0.5-0.1,0.7-0.1c1.1,0,2.2,0,3.4,0.1c1.1,0.1,1.6,0.6,1.6,1.6c0.1,0.9,0.1,1.9,0,2.8c-0.1,0.9-0.6,1.4-1.6,1.5
			C37,24.5,36.3,24.5,35.7,24.5z M35.6,23.5c0.6,0,1.1,0,1.7-0.1c0.5,0,0.8-0.3,0.8-0.8c0-0.8,0-1.6,0-2.4c0-0.5-0.3-0.8-0.8-0.8
			c-1.1,0-2.2,0-3.3,0c-0.4,0-0.7,0.3-0.8,0.6c-0.2,0.9-0.2,1.8,0,2.6c0.1,0.4,0.3,0.6,0.7,0.6C34.6,23.4,35.2,23.5,35.6,23.5z"/>
		<path class="st3" d="M3.6,18.4c0.4,0,0.7,0,1.1,0c0.1,0,0.2,0.1,0.2,0.2c0.8,1.5,1.6,3.1,2.4,4.6c0,0.1,0.1,0.2,0.2,0.4
			c0.1-0.2,0.2-0.3,0.2-0.4c0.8-1.5,1.5-3,2.3-4.6c0.1-0.2,0.2-0.3,0.4-0.3c0.3,0,0.6,0,0.9,0c-0.1,0.2-0.1,0.3-0.2,0.4
			c-0.9,1.8-1.9,3.6-2.8,5.4c-0.1,0.2-0.2,0.3-0.4,0.3c-0.4,0-0.7,0-1.1,0c-0.1,0-0.3-0.1-0.3-0.2c-1-1.9-1.9-3.8-2.9-5.7
			C3.6,18.5,3.6,18.5,3.6,18.4z"/>
		<path class="st5" d="M12.7,18.4c0.3,0,0.7,0,1,0c0,2,0,4,0,6.1c-0.3,0-0.6,0-1,0C12.7,22.4,12.7,20.4,12.7,18.4z"/>
	</g>
</g>
<g class="st1">
	<g class="st2">
		<path class="st6" d="M8.6,31.7c-0.3,0-0.7,0-1,0c-0.1,0-0.1,0-0.1-0.1c0-0.1,0-0.2,0-0.3c0-7.6,0-15.2,0-22.8c0-0.1,0-0.2,0-0.3
			c0-0.1,0-0.1,0.1-0.1c0.1,0,0.2,0,0.3,0c8.8,0,17.7,0,26.4,0c0.1,0,0.2,0,0.3,0s0.1,0,0.1,0.1c0,0.1,0,0.3,0,0.4
			c0,6.4,0,12.7,0,19.1c-0.3,0-0.7,0-1,0c-0.3,0-0.5,0.2-0.8,0.4c-0.2,0.2-0.2,0.3-0.2,0.5c-0.1,0.5,0.2,0.9-0.2,1.3V30
			c-0.1,0.3-0.1,0.6,0,0.9c0.1,0.3,0.2,0.6,0.5,0.7c0.1,0.2,0.3,0,0.4,0.2c-0.5,0-1,0-1.5,0c-0.1-0.2,0.3-0.1,0.2-0.3
			c-0.1-0.1,0-0.2,0-0.3c0-0.2-0.1-0.2-0.2-0.2c-0.1,0-0.1-0.1-0.1-0.1c0-0.2,0-0.5,0-0.7c0.1-0.5-0.1-0.9-0.1-1.4
			c0-0.2-0.1-0.3-0.2-0.5c-0.2-0.2-0.4-0.5-0.7-0.6c-0.3-0.1-0.7-0.1-1.1,0.1c-0.3,0.2-0.5,0.1-0.7-0.1l-0.1-0.1
			c-0.1-0.1-0.3,0.1-0.5,0.2c-0.1,0.1,0,0.2,0.1,0.3c0.1,0.1,0.2,0.2,0.2,0.2c0.1,0.1,0.1,0.2,0.1,0.3c-0.1,0.2-0.2,0.3-0.2,0.6
			c0,0.7,0,1.5,0,2.3c0,0.1,0,0.2,0.1,0.2c0.2,0,0.5,0,0.7,0c0,0,0.1-0.1,0.1-0.2c0-0.7,0-1.4,0-2c0-0.3,0.1-0.6,0.3-0.9
			c0.3-0.2,0.7-0.2,0.9,0.1c0.1,0.2,0.2,0.3,0.2,0.5c0,0.6,0,1.1,0,1.7c0,0.5,0.1,0.7,0.5,0.9c-1.5,0-3.1,0-4.6,0
			c0.2-0.2,0.5-0.2,0.6-0.3c0.1-0.1,0.3,0,0.5,0c0.1,0,0.2,0,0.2-0.1c0-0.5,0-0.9,0-1.4c0-0.1-0.1-0.1-0.1-0.1c-0.4,0-0.7,0-1.1,0
			c-0.1,0-0.1,0.1-0.1,0.1c0,0.1,0,0.2,0,0.3s0.1,0.2,0.2,0.1c0.1,0,0.2,0,0.2,0c0.2,0,0.2,0.1,0.2,0.2c0,0.2-0.3,0.5-0.5,0.6
			c-0.3,0.1-0.6-0.1-0.8-0.3c-0.3-0.4-0.2-0.9-0.2-1.4c0-0.3,0.1-0.7,0.4-0.9c0.1-0.1,0.6-0.1,0.7,0c0.1,0.1,0.3,0.2,0.3,0.5
			c0,0.1,0.1,0.1,0.1,0.1c0.3,0.1,0.5,0,0.5-0.3c0-0.1,0-0.2,0-0.2c0-0.2,0.1-0.3,0-0.5c-0.1-0.1-0.3,0-0.4-0.1
			c-0.3-0.2-0.6-0.2-0.9-0.2c-0.1,0-0.2,0-0.3,0c-0.2,0-0.5,0.1-0.6,0.2c-0.5,0.4-0.6,1-0.7,1.5c-0.1,0.4,0.1,0.9,0.1,1.3
			c0.1,0.4,0.3,0.9,0.9,0.9c0.1,0,0.1,0.1,0.2,0.1c-0.5,0-1,0-1.5,0c0.1-0.1,0.2-0.1,0.2-0.1c0.1-0.2,0.1-0.3,0.1-0.6
			c0-0.2-0.2-0.1-0.2-0.1c-0.1-0.1-0.2-0.1-0.2-0.2c-0.2-0.9-0.6-1.7-0.8-2.6c-0.1-0.4-0.2-0.5-0.6-0.5c-0.2,0-0.3,0-0.5,0
			c-0.2,0-0.2,0.1-0.3,0.2c-0.1,0.1-0.1,0.2-0.1,0.3c-0.1,0.6-0.4,1.2-0.5,1.8c-0.1,0.5-0.3,0.9-0.5,1.4c-0.1,0.1-0.1,0.2,0.1,0.2
			c0.1,0,0.2,0,0.3,0c0.4,0,0.4,0,0.5-0.4c0.1-0.2,0.1-0.4,0.2-0.6c0-0.1,0.1-0.1,0.1-0.1c0.3-0.1,0.7,0.1,1-0.1
			c0,0,0.1,0.1,0.1,0.1c0.1,0.5,0.2,0.9,0.6,1.2c-1.3,0-2.6,0-3.8,0c0.2-0.2,0.2-0.2,0.2-0.5c0-0.1,0-0.1,0-0.1
			c0-0.2-0.1-0.2-0.2-0.2c-0.3,0-0.3-0.1-0.3-0.3c0-0.5,0-0.9,0-1.4c0-0.3,0-0.6,0-0.9c0.3,0,0.6-0.1,0.9-0.1h0.1
			c0.2,0,0.2-0.1,0.2-0.2c0-0.1,0-0.2,0-0.3c0-0.1-0.1-0.2-0.2-0.2c-0.9,0-1.8,0-2.7,0c-0.1,0-0.2,0-0.2,0.2c0,0.1,0,0.2,0,0.3
			c0,0.1,0,0.2,0.2,0.2c0.2,0,0.5,0,0.7,0c0.2,0,0.2,0.1,0.2,0.2c0,0.8,0,1.6,0,2.4c0,0.4,0.1,0.5,0.3,0.7c-0.9,0-1.7,0-2.6,0
			c0.1-0.2,0.3-0.2,0.6-0.3c0.3-0.1,0.3-0.1,0.3-0.4c0-0.1,0-0.2,0-0.2c0-0.5,0-0.4-0.5-0.4c-0.2,0-0.2,0.1-0.2,0.2
			c-0.1,0.3-0.5,0.6-0.7,0.5c-0.2-0.1-0.4-0.1-0.5-0.2c-0.1-0.2-0.2-0.3-0.2-0.5c0-0.3,0.1-0.4,0.4-0.4c0.2,0,0.5,0,0.7,0
			c0.4,0,0.3,0.1,0.3-0.3c0-0.3,0-0.3-0.3-0.3c-0.1,0-0.2,0-0.3,0c-0.5,0-0.6-0.2-0.6-0.6c0-0.2,0.1-0.3,0.3-0.2
			c0.3,0.1,0.7-0.1,1,0.1c0,0,0.1-0.1,0.1-0.1c0.1-0.1,0.1-0.2,0.1-0.2c0.1-0.2,0.1-0.2-0.2-0.3c-0.1-0.1-0.2-0.1-0.3-0.1
			c-0.2,0-0.5,0-0.7,0c-0.3,0-0.5,0.1-0.7,0.2s-0.3,0.2-0.3,0.4c-0.1,0.2-0.3,0.5-0.1,0.7c0.2,0.3,0.1,0.6-0.1,0.8
			c-0.3,0.6-0.2,0.7,0,1.3c0.2,0.3,0.4,0.5,0.8,0.5c0.1,0,0.2-0.1,0.3,0.1c-0.6,0-1.2,0-1.8,0c0.2-0.2,0.2-0.2,0.2-0.5
			c0-0.1,0-0.1,0-0.2c0-0.1-0.1-0.2-0.2-0.2s-0.3,0.1-0.4-0.1c-0.2-0.2-0.3-0.5-0.5-0.7c-0.1-0.1-0.1-0.2,0.1-0.3
			c0.3-0.1,0.5-0.5,0.5-0.8c0-0.1,0-0.2,0-0.3c0.1-0.7-0.5-0.9-0.9-1c-0.5-0.1-0.9,0-1.4,0c-0.3,0-0.3,0.1-0.3,0.3
			c0,1.1,0,2.2,0,3.4c0,0.2,0.1,0.2,0.2,0.2c0.1,0,0.3,0,0.4,0c0.2,0,0.2-0.1,0.2-0.2c0-0.4,0-0.8,0-1.3c0-0.1,0.1-0.2,0.2-0.2
			c0.2,0,0.3,0,0.4,0.2c0.1,0.1,0.2,0.3,0.2,0.4c0.4,0.9,0.4,0.9,0.8,1.1c-1.3,0-2.6,0-3.8,0c0.1-0.1,0.1-0.1,0.2-0.1
			c0.3,0,0.5-0.2,0.6-0.3c0.1-0.2,0.3-0.5,0.3-0.7c-0.1-0.3-0.1-0.8-0.6-1c-0.1-0.1-0.1-0.1-0.1-0.2c0.1-0.1,0.1-0.1,0.2-0.2
			c0.2-0.3,0.3-0.6,0.1-0.9c-0.2-0.3-0.4-0.6-0.7-0.6c-0.6-0.1-1.1,0-1.7,0c-0.1,0-0.1,0.1-0.1,0.1c0,1.1,0,2.1,0,3.2
			c0,0.1,0.1,0.2,0.1,0.2c0.2,0,0.3,0.2,0.5,0.3C8.2,31.6,8.5,31.5,8.6,31.7z M30,13.7c0-0.2,0-0.3,0-0.4c0-0.2-0.1-0.1-0.2-0.1
			c-0.1,0.1-0.2,0.1-0.3,0.2c-0.7,0.6-1.5,1-2.3,1.3c-0.6,0.2-1.1,0.5-1.8,0.5c-0.2,0.2-0.6,0-0.8,0.1c-0.3,0.2-0.6,0.1-0.9,0.1
			c-0.7,0-1.4,0.1-2.1-0.1c-0.2-0.1-0.5,0-0.8-0.1c-0.2-0.1-0.5-0.1-0.8-0.1c-0.5-0.1-1-0.2-1.5-0.3c-0.7-0.2-1.4-0.4-2.1-0.7
			c-0.7-0.3-1.5-0.7-2.1-1.2c-0.1,0-0.1,0-0.2,0c0,0.1,0,0.2,0,0.2c0.2,0.2,0.4,0.4,0.5,0.6c0.2,0.3,0.5,0.5,0.6,0.8
			c0.2,0.3,0.5,0.5,0.7,0.8c0.1,0.1,0.3,0.2,0.4,0.4c0.4,0.7,1,1.1,1.6,1.7c0.5,0.4,0.9,0.8,1.3,1.1c0.4,0.3,0.8,0.7,1.3,1
			c0.5,0.3,1,0.7,1.6,1c0.5,0.3,1,0.6,1.5,0.9c0.7,0.3,1.4,0.7,2.1,1c0.5,0.2,1,0.5,1.6,0.6c0.5,0.2,0.9,0.3,1.4,0.5
			c0.5,0.2,1,0.2,1.4,0.5c0,0,0.1-0.1,0.2-0.1c0.1-0.3-0.1-0.7-0.2-1c-0.1-0.5-0.3-0.9-0.6-1.2c-0.3-0.4-0.5-0.9-1-1
			c-0.1,0-0.1-0.1-0.1-0.2c0.1,0,0.1-0.1,0.2-0.1c0.3,0,0.7,0.1,1,0c0.4-0.1,0.8-0.3,1.2-0.5c0.7-0.4,1.4-0.9,1.9-1.5
			c0.2-0.2,0.2-0.2-0.1-0.5c-0.5-0.3-1-0.5-1.5-0.6c-0.6-0.2-1.3-0.5-2.1-0.3c-0.1,0-0.2,0-0.3,0c-0.1,0-0.1-0.1-0.2-0.1
			c0.1-0.1,0.1-0.1,0.1-0.1c0.1-0.1,0.2-0.2,0.3-0.3c0.3-0.5,0.6-1,0.7-1.5C29.8,14.4,30,14,30,13.7z M14,10.8c0,0.1,0,0.3,0,0.4
			c0,0.1,0.1,0.1,0.1,0.1c0.3,0.1,0.7-0.1,1-0.2c0.6-0.2,0.9-0.7,1.3-1.1c0.3-0.4,0.4-0.9,0.3-1.4c-0.1-0.3-0.3-0.6-0.5-0.5
			c-0.2,0.1-0.5,0.1-0.6,0.2c-0.2,0.1-0.4,0.2-0.6,0.3C14.4,9.3,14,10,14,10.8z M12.8,12.9c0-0.2,0-0.3-0.1-0.4
			c-0.1-0.1-0.3-0.2-0.4-0.1c-0.3,0.1-0.7,0.1-1,0.3c-0.6,0.3-1.3,1-1.6,1.7c-0.1,0.2-0.1,0.5-0.1,0.7c0,0.1,0.1,0.1,0.1,0.1
			c0.3-0.1,0.6,0.2,1,0.1c0.4-0.1,0.8-0.3,1.1-0.5C12.3,14.2,12.6,13.6,12.8,12.9z M12,11.2c0.1,0,0.3,0,0.4,0
			c0.1,0,0.1-0.1,0.1-0.1c0.1-0.5,0-0.9-0.3-1.3c-0.3-0.5-0.7-0.9-1.2-1.2c-0.4-0.2-0.8-0.4-1.3-0.4c-0.1,0-0.2,0.1-0.2,0.1
			c-0.1,0.5,0,1,0.3,1.5c0.2,0.3,0.5,0.6,0.8,0.9C11.1,11,11.5,11.3,12,11.2z M9.4,24.6c0,0.4,0,0.7,0,1.1c0,0.2,0.1,0.2,0.2,0.2
			c0.1,0,0.2-0.1,0.2-0.2c0-0.2,0-0.5,0-0.7c0-0.1,0.1-0.1,0.1-0.1c0.2-0.1,0.3,0,0.5,0.2c0.1,0.1,0.2,0.3,0.2,0.4
			c0.1,0.2,0.2,0.3,0.3,0.5c0.1,0.1,0.3,0.1,0.4,0.1c0.1,0,0.1-0.2,0.2-0.3c0-0.1-0.1-0.2-0.1-0.2c-0.4,0-0.5-0.3-0.6-0.6
			c-0.1-0.1-0.1-0.2,0-0.2c0.3-0.2,0.4-0.5,0.3-0.9c0-0.2-0.3-0.5-0.5-0.5c-0.4,0-0.8,0-1.1,0c0,0.3-0.1,0.7-0.1,1
			C9.4,24.3,9.4,24.5,9.4,24.6z M20.4,25c0-0.1,0-0.1,0-0.1c0-0.3-0.3-0.9-0.5-0.9c-0.4-0.1-0.7,0-1,0.3c-0.2,0.2-0.3,0.6-0.3,1
			c0.1,0.7,0.7,1,1.3,0.6C20.3,25.7,20.4,25.4,20.4,25z M21.4,25.1c0,0.2,0,0.4,0,0.6c0,0.2,0.1,0.2,0.2,0.2c0.1,0,0.3,0.1,0.2-0.2
			c0-0.3,0-0.7,0-1c0-0.1,0.2-0.3,0.3-0.4c0.2-0.1,0.2,0.1,0.3,0.2c0.1,0.1,0.1,0.2,0.1,0.3c0,0.3,0,0.6,0,0.9c0,0.1,0,0.2,0.2,0.2
			c0.3,0,0.3,0,0.3-0.3s0-0.5,0-0.8c0-0.3-0.2-0.5-0.4-0.7c-0.2-0.2-0.4-0.2-0.6-0.1c-0.2,0.1-0.5,0.1-0.7,0c-0.1,0-0.1,0-0.1,0.1
			s0,0.1,0.1,0.2c0.1,0.1,0.2,0.2,0.2,0.3C21.3,24.7,21.4,24.9,21.4,25.1z M15.7,23.9c-0.1,0-0.3,0-0.4,0c-0.2,0.1-0.3,0.1-0.4,0.3
			c-0.1,0.3-0.2,0.5,0.1,0.7c0.1,0.1,0.1,0.1,0.1,0.1c-0.1,0.3,0.1,0.6,0.3,0.7c0.2,0.1,0.1,0.3-0.1,0.4c-0.1,0-0.1,0-0.2,0
			c-0.2,0-0.1,0.1-0.1,0.2c0,0.1,0.1,0.1,0.1,0.1c0.1,0,0.2,0,0.3,0c0.2-0.1,0.4-0.2,0.5-0.4c0.1-0.2,0.1-0.3-0.2-0.5
			c-0.1-0.1-0.2-0.2-0.2-0.2c-0.1-0.2-0.1-0.3,0.1-0.3c0.3-0.1,0.6-0.5,0.5-0.7C16,24.3,16,24.2,16,24c0-0.1-0.1-0.1-0.1-0.1
			C15.9,23.9,15.8,23.9,15.7,23.9z M13.3,25c0.2,0,0.3,0,0.5,0c0.1,0,0.1,0,0.1-0.1c0-0.2,0.1-0.4,0-0.6c-0.1-0.3-0.6-0.5-1-0.3
			c-0.5,0.2-0.6,0.5-0.6,1c0,0.6,0.4,1,1.1,1c0.2,0,0.5-0.2,0.5-0.4c0-0.1-0.1-0.2-0.1-0.2c-0.2,0.2-0.5,0.1-0.7,0.1
			c-0.2,0-0.3-0.1-0.3-0.4c0-0.2,0.2-0.1,0.3-0.1C13.1,24.9,13.2,25,13.3,25z M17.6,25c0-0.3,0-0.5,0-0.8c0-0.2-0.1-0.2-0.2-0.2
			s-0.2,0.1-0.2,0.2c0,0.5,0,1,0,1.4c0,0.2,0.1,0.2,0.2,0.2s0.2-0.1,0.2-0.2C17.6,25.5,17.6,25.3,17.6,25z M13.4,23.1
			c-0.1,0-0.2,0-0.2,0.1c-0.1,0.1-0.2,0.5-0.2,0.6l0.1,0.1c0.2,0,0.2-0.2,0.3-0.3c0.1-0.1,0.1-0.1,0.1-0.2
			C13.5,23.3,13.5,23.2,13.4,23.1z M17.6,23.4c-0.1,0-0.2-0.1-0.3-0.1l-0.1,0.1c0.1,0.2,0.2,0.1,0.3,0.1
			C17.5,23.6,17.5,23.5,17.6,23.4z"/>
		<path class="st7" d="M8.6,31.7c-0.1-0.2-0.3-0.2-0.5-0.3c-0.1-0.1-0.2-0.3-0.5-0.3c0,0-0.1-0.1-0.1-0.2c0-1.1,0-2.1,0-3.2
			c0-0.1,0.1-0.1,0.1-0.1c0.6,0,1.1-0.1,1.7,0c0.3,0,0.6,0.2,0.7,0.6s0.1,0.6-0.1,0.9c-0.1,0.1-0.1,0.1-0.2,0.2
			c-0.1,0.1-0.1,0.2,0.1,0.2c0.5,0.2,0.5,0.6,0.6,1c0,0.2-0.1,0.5-0.3,0.7c-0.1,0.2-0.3,0.3-0.6,0.3c-0.1,0-0.1,0.1-0.2,0.1
			C9.2,31.7,8.9,31.7,8.6,31.7z M8.4,30.3c0,0.1,0,0.2,0,0.3c0,0.2,0.3,0.5,0.5,0.5c0.3,0.1,0.6-0.1,0.7-0.3c0.1-0.2,0-0.6-0.2-0.7
			c-0.1-0.2-0.3-0.3-0.5-0.2c-0.1,0-0.3,0-0.4,0c-0.1,0-0.2,0.1-0.2,0.2C8.4,30.1,8.4,30.2,8.4,30.3z M8.4,28.7c0,0.5,0,0.5,0.5,0.5
			c0.1,0,0.2,0,0.2-0.1c0.1-0.1,0.3,0,0.2-0.2c-0.1-0.2,0.2-0.3,0.1-0.5c-0.1-0.2-0.2-0.3-0.5-0.3c-0.1,0-0.3,0-0.4,0
			c-0.2,0-0.2,0.1-0.2,0.2C8.4,28.5,8.4,28.6,8.4,28.7z"/>
		<path class="st7" d="M13.3,31.7c-0.4-0.3-0.4-0.3-0.8-1.1c-0.1-0.1-0.2-0.3-0.2-0.4C12.1,30,12,30,11.9,30c-0.1,0-0.2,0-0.2,0.2
			c0,0.4,0,0.8,0,1.3c0,0.1,0,0.2-0.2,0.2c-0.1,0-0.3,0-0.4,0c-0.2,0-0.2-0.1-0.2-0.2c0-1.1,0-2.2,0-3.4c0-0.3,0.1-0.3,0.3-0.3
			c0.5,0,0.9-0.1,1.4,0s1,0.3,0.9,1c0,0.1,0,0.2,0,0.3c0.1,0.3-0.1,0.7-0.5,0.8c-0.2,0.1-0.2,0.2-0.1,0.3c0.1,0.3,0.3,0.5,0.5,0.7
			c0.1,0.2,0.3,0.1,0.4,0.1c0.1,0,0.2,0.1,0.2,0.2c0,0.1,0,0.1,0,0.2c0,0.3,0,0.3-0.2,0.5C13.7,31.7,13.5,31.7,13.3,31.7z
			 M11.7,28.8c0,0.2,0,0.3,0,0.5c0,0.1,0.1,0.1,0.2,0.2c0.2,0.1,0.3,0.2,0.6,0.1c0.4-0.2,0.5-0.3,0.4-0.7c0-0.2-0.2-0.5-0.5-0.5
			C11.7,28.1,11.7,28.1,11.7,28.8z"/>
		<path class="st7" d="M31.2,31.7c-0.3-0.2-0.5-0.5-0.5-0.9c0-0.6,0-1.1,0-1.7c0-0.2-0.1-0.4-0.2-0.5c-0.2-0.3-0.6-0.3-0.9-0.1
			c-0.3,0.2-0.3,0.5-0.3,0.9c0,0.7,0,1.4,0,2c0,0.1,0,0.2-0.1,0.2c-0.2,0-0.5,0-0.7,0c0,0-0.1-0.1-0.1-0.2c0-0.7,0-1.5,0-2.3
			c0-0.2,0.1-0.4,0.2-0.6c0.1-0.1,0.1-0.2-0.1-0.3c-0.1-0.1-0.2-0.2-0.2-0.2c-0.1-0.1-0.2-0.1-0.1-0.3c0.1-0.2,0.4-0.3,0.5-0.2
			c0.1,0,0.1,0.1,0.1,0.1c0.2,0.2,0.5,0.2,0.7,0.1c0.3-0.2,0.7-0.1,1.1-0.1c0.3,0.1,0.5,0.3,0.7,0.6c0.1,0.1,0.1,0.3,0.2,0.5
			c0.1,0.5,0.2,0.9,0.1,1.4c0,0.2,0,0.5,0,0.7c0,0.1,0.1,0.1,0.1,0.1c0.2,0,0.2,0.1,0.2,0.2c0,0.1,0,0.2,0,0.3
			c0.1,0.2-0.3,0.1-0.2,0.3C31.6,31.7,31.3,31.7,31.2,31.7z"/>
		<path class="st7" d="M25.8,31.7c-0.1-0.1-0.1-0.1-0.2-0.1c-0.5-0.1-0.7-0.5-0.9-0.9c-0.1-0.4-0.2-0.8-0.1-1.3
			c0.1-0.6,0.2-1.1,0.7-1.5c0.2-0.2,0.4-0.3,0.6-0.2c0.1,0,0.2,0,0.3,0c0.3,0,0.6-0.1,0.9,0.2c0.1,0.1,0.3,0,0.4,0.1s0,0.3,0,0.5
			c0,0.1,0,0.2,0,0.2c0,0.3-0.1,0.5-0.5,0.3C27,29,27,28.9,27,28.9c0.1-0.3-0.2-0.3-0.3-0.5c-0.1-0.1-0.6-0.1-0.7,0
			c-0.3,0.2-0.4,0.5-0.4,0.9c0,0.5-0.1,0.9,0.2,1.4c0.2,0.3,0.5,0.5,0.8,0.3c0.2-0.1,0.4-0.4,0.5-0.6c0-0.1,0-0.2-0.2-0.2
			c-0.1,0-0.2,0-0.2,0c-0.1,0-0.2,0-0.2-0.1s0-0.2,0-0.3c0-0.1,0.1-0.1,0.1-0.1c0.4,0,0.7,0,1.1,0c0.1,0,0.1,0.1,0.1,0.1
			c0,0.5,0,0.9,0,1.4c0,0.1-0.1,0.1-0.2,0.1c-0.2,0-0.3-0.1-0.5,0c-0.2,0.2-0.5,0.1-0.6,0.3C26.3,31.7,26.1,31.7,25.8,31.7z"/>
		<path class="st7" d="M23.7,31.7c-0.3-0.3-0.5-0.8-0.6-1.2c0-0.1-0.1-0.1-0.1-0.1c-0.3,0.2-0.6,0.1-1,0.1c-0.1,0-0.1,0.1-0.1,0.1
			c-0.1,0.2-0.1,0.4-0.2,0.6c-0.1,0.4-0.1,0.4-0.5,0.4c-0.1,0-0.2,0-0.3,0c-0.1,0-0.1-0.1-0.1-0.2c0.2-0.5,0.3-0.9,0.5-1.4
			c0.2-0.6,0.5-1.1,0.5-1.8c0-0.1,0.1-0.2,0.1-0.3c0.1-0.1,0.1-0.2,0.3-0.2c0.2,0,0.3,0,0.5,0c0.4,0,0.5,0.1,0.6,0.5
			c0.2,0.9,0.6,1.7,0.8,2.6c0,0.1,0.1,0.2,0.2,0.2c0.1,0.1,0.2-0.1,0.2,0.1s0,0.3-0.1,0.6c0,0.1-0.1,0.1-0.2,0.1
			C24,31.7,23.8,31.7,23.7,31.7z M22.5,29.8c0.1,0,0.1,0,0.2,0c0.2,0,0.3-0.1,0.2-0.2c-0.1-0.2-0.1-0.5-0.2-0.7
			c-0.1-0.1-0.1-0.2-0.2-0.3c-0.1,0.1-0.1,0.2-0.2,0.4c-0.1,0.2-0.1,0.5-0.2,0.6c-0.1,0.2,0,0.3,0.2,0.3
			C22.3,29.8,22.4,29.8,22.5,29.8z"/>
		<path class="st7" d="M15.6,31.7c0-0.2-0.2-0.1-0.3-0.1c-0.4,0-0.6-0.2-0.8-0.5c-0.2-0.6-0.2-0.7,0-1.3c0.1-0.2,0.2-0.5,0.1-0.8
			c-0.1-0.2,0.1-0.5,0.1-0.7c0.1-0.2,0.2-0.3,0.3-0.4c0.2-0.1,0.5-0.2,0.7-0.2c0.2,0,0.5,0,0.7,0c0.1,0,0.2,0.1,0.3,0.1
			c0.2,0.1,0.2,0.1,0.2,0.3c0,0.1-0.1,0.2-0.1,0.2c0,0.1-0.1,0.1-0.1,0.1c-0.3-0.2-0.7-0.1-1-0.1c-0.2,0-0.3,0.1-0.3,0.2
			c-0.1,0.5,0.1,0.6,0.6,0.6c0.1,0,0.2,0,0.3,0c0.3,0,0.3,0,0.3,0.3c0,0.4,0.1,0.3-0.3,0.3c-0.2,0-0.5,0-0.7,0
			c-0.3,0-0.3,0.1-0.4,0.4c0,0.2,0.1,0.3,0.2,0.5c0.1,0.2,0.3,0.2,0.5,0.2c0.3,0.1,0.7-0.2,0.7-0.5c0.1-0.2,0.1-0.2,0.2-0.2
			c0.5,0,0.5,0,0.5,0.4c0,0.1,0,0.2,0,0.2c0,0.3,0,0.2-0.3,0.4c-0.2,0.1-0.5,0.1-0.6,0.3C16.3,31.7,16,31.7,15.6,31.7z"/>
		<path class="st7" d="M33.3,31.7c-0.1-0.2-0.3,0-0.4-0.2c-0.3-0.1-0.5-0.3-0.5-0.7c-0.1-0.3-0.1-0.6,0-0.9v-0.1
			c0.3-0.4,0.2-0.9,0.2-1.3c0-0.2,0-0.4,0.2-0.5c0.2-0.2,0.4-0.5,0.8-0.4c0.3,0,0.7,0,1,0c0,0.2,0,0.5,0,0.7c-0.1,0-0.2,0.1-0.2,0
			c-0.3-0.2-0.5-0.1-0.8,0c-0.2,0.1-0.2,0.3-0.3,0.5s0.1,0.3,0.2,0.4c0.1,0.1,0.1,0.1,0.2,0.1c0.3,0,0.6,0,0.9,0c0,0.2,0,0.5,0,0.7
			c-0.4,0-0.8,0-1.2,0c-0.2,0-0.2,0.1-0.3,0.3c-0.1,0.4,0.2,0.9,0.8,0.9c0.2,0,0.5-0.1,0.7-0.1c0,0.2,0,0.5,0,0.7
			c-0.1,0-0.3,0-0.4,0c-0.1,0-0.1,0.1-0.1,0.1C33.9,31.7,33.6,31.7,33.3,31.7z"/>
		<path class="st7" d="M19.1,31.7c-0.3-0.2-0.3-0.3-0.3-0.7c0-0.8,0-1.6,0-2.4c0-0.2-0.1-0.2-0.2-0.2c-0.2,0-0.5,0-0.7,0
			c-0.2,0-0.2-0.1-0.2-0.2c0-0.1,0-0.2,0-0.3c0-0.1,0.1-0.2,0.2-0.2c0.9,0,1.8,0,2.7,0c0.1,0,0.2,0,0.2,0.2c0,0.1,0,0.2,0,0.3
			c0,0.1,0,0.2-0.2,0.2h-0.1c-0.3,0-0.6,0.1-0.9,0.1c0,0.3,0,0.6,0,0.9c0,0.5,0,0.9,0,1.4c0,0.2,0.1,0.3,0.2,0.2
			c0.2-0.1,0.2,0.1,0.2,0.2c0,0.1,0,0.1,0,0.1c0,0.3,0,0.3-0.2,0.5C19.6,31.7,19.4,31.7,19.1,31.7z"/>
		<path class="st6" d="M34.7,30.9c-0.2,0.1-0.5,0.1-0.7,0.1c-0.6,0.1-0.9-0.5-0.8-0.9c0-0.2,0.1-0.3,0.3-0.3c0.4,0,0.8,0,1.2,0
			C34.7,30.2,34.7,30.6,34.7,30.9z"/>
		<path class="st6" d="M34.7,29.2c-0.3,0-0.6,0-0.9,0c-0.1,0-0.2,0-0.2-0.1c-0.1-0.1-0.3-0.2-0.2-0.4c0.1-0.2,0.1-0.4,0.3-0.5
			c0.3-0.1,0.5-0.2,0.8,0c0.1,0.1,0.2,0,0.2,0C34.7,28.6,34.7,28.9,34.7,29.2z"/>
		<path class="st6" d="M34.1,31.7c0.1-0.1,0.1-0.1,0.1-0.1c0.1,0,0.3,0,0.4,0c0,0.1-0.1,0.1-0.1,0.1C34.4,31.7,34.3,31.7,34.1,31.7z
			"/>
		<path class="st7" d="M30,13.7c0.1,0.4-0.2,0.7-0.3,1.1c-0.2,0.6-0.5,1-0.7,1.5c-0.1,0.1-0.2,0.2-0.3,0.3c-0.1,0.1-0.1,0.1-0.1,0.1
			c0.1,0.1,0.1,0.1,0.2,0.1c0.1,0,0.2,0,0.3,0c0.7-0.1,1.4,0.1,2.1,0.3c0.5,0.2,1,0.3,1.5,0.6c0.3,0.2,0.3,0.2,0.1,0.5
			c-0.6,0.6-1.2,1.1-1.9,1.5c-0.4,0.2-0.8,0.4-1.2,0.5c-0.3,0.1-0.7,0-1,0c-0.1,0-0.1,0-0.2,0.1c0.1,0.1,0.1,0.1,0.1,0.2
			c0.5,0.2,0.7,0.7,1,1c0.3,0.3,0.5,0.7,0.6,1.2c0.1,0.3,0.2,0.7,0.2,1c0,0.1-0.1,0.1-0.2,0.1c-0.5-0.2-1-0.3-1.4-0.5
			c-0.5-0.2-0.9-0.3-1.4-0.5c-0.5-0.2-1.1-0.4-1.6-0.6c-0.7-0.3-1.4-0.6-2.1-1c-0.5-0.3-1-0.6-1.5-0.9c-0.5-0.3-1.1-0.7-1.6-1
			c-0.4-0.3-0.8-0.7-1.3-1c-0.5-0.3-0.9-0.7-1.3-1.1c-0.6-0.5-1.2-1-1.6-1.7c-0.1-0.2-0.3-0.3-0.4-0.4c-0.2-0.3-0.5-0.5-0.7-0.8
			c-0.2-0.3-0.5-0.5-0.6-0.8c-0.1-0.2-0.3-0.4-0.5-0.6c-0.1-0.1,0-0.1,0-0.2c0.1,0,0.1,0,0.2,0c0.6,0.5,1.4,0.9,2.1,1.2
			c0.6,0.3,1.3,0.6,2.1,0.7c0.5,0.1,1,0.2,1.5,0.3c0.3,0.1,0.6,0,0.8,0.1c0.3,0.1,0.6,0.1,0.8,0.1c0.7,0.2,1.4,0.1,2.1,0.1
			c0.3,0,0.6,0.1,0.9-0.1c0.2-0.1,0.5,0.1,0.8-0.1c0.6,0,1.2-0.2,1.8-0.5c0.8-0.3,1.7-0.7,2.3-1.3c0.1-0.1,0.2-0.1,0.3-0.2
			c0.1-0.1,0.1-0.2,0.2,0.1C30,13.4,30,13.5,30,13.7z"/>
		<path class="st7" d="M14,10.8c0.1-0.9,0.5-1.5,1.1-2.1c0.2-0.1,0.4-0.2,0.6-0.3c0.2-0.2,0.5-0.1,0.6-0.2c0.2-0.1,0.5,0.1,0.5,0.5
			c0.1,0.5-0.1,1-0.3,1.4c-0.3,0.4-0.7,0.9-1.3,1.1c-0.3,0.1-0.7,0.2-1,0.2c-0.1,0-0.1-0.1-0.1-0.1C14,11.1,14,10.9,14,10.8z"/>
		<path class="st7" d="M12.8,12.9c-0.1,0.7-0.5,1.3-1,1.7c-0.3,0.2-0.7,0.4-1.1,0.5c-0.3,0.1-0.6-0.1-1-0.1c0,0-0.1-0.1-0.1-0.1
			c0-0.2,0-0.5,0.1-0.7c0.3-0.6,1-1.3,1.6-1.7c0.3-0.2,0.7-0.1,1-0.3c0.1-0.1,0.3,0,0.4,0.1C12.7,12.6,12.7,12.8,12.8,12.9z"/>
		<path class="st7" d="M12,11.2c-0.5,0.1-1-0.2-1.3-0.6c-0.3-0.3-0.6-0.6-0.8-0.9c-0.3-0.5-0.3-1-0.3-1.5c0-0.1,0.1-0.1,0.2-0.1
			c0.5,0,0.9,0.2,1.3,0.4c0.5,0.3,0.9,0.7,1.2,1.2c0.3,0.4,0.3,0.9,0.3,1.3c0,0.1-0.1,0.1-0.1,0.1C12.3,11.2,12.1,11.2,12,11.2z"/>
		<path class="st7" d="M9.4,24.6c0-0.1,0-0.2,0-0.3c0-0.3,0-0.7,0.1-1c0.4,0,0.8,0,1.1,0c0.2,0,0.5,0.3,0.5,0.5
			c0.1,0.3-0.1,0.6-0.3,0.9c-0.1,0.1-0.1,0.2,0,0.2c0.1,0.3,0.2,0.6,0.6,0.6c0.1,0,0.1,0.1,0.1,0.2c-0.1,0.1-0.1,0.2-0.2,0.3
			S11,26.1,10.9,26c-0.2-0.1-0.2-0.3-0.3-0.5c-0.1-0.1-0.2-0.3-0.2-0.4c-0.1-0.2-0.3-0.2-0.5-0.2c-0.1,0-0.1,0.1-0.1,0.1
			c0,0.2,0,0.5,0,0.7c0,0.1-0.1,0.2-0.2,0.2c-0.2,0-0.2-0.1-0.2-0.2C9.4,25.3,9.4,24.9,9.4,24.6z M9.8,24c0,0.1,0,0.2,0,0.3
			c0.1,0.1,0.1,0.2,0.2,0.2c0.1,0,0.1,0,0.2,0c0.4,0,0.6,0,0.5-0.5c0-0.2-0.1-0.3-0.2-0.4C10,23.4,9.8,23.5,9.8,24z"/>
		<path class="st7" d="M20.4,25c0.1,0.4-0.1,0.7-0.5,0.9c-0.6,0.3-1.2,0-1.3-0.6c-0.1-0.4,0-0.7,0.3-1c0.2-0.2,0.6-0.3,1-0.3
			C20.2,24.1,20.4,24.6,20.4,25C20.4,24.9,20.4,24.9,20.4,25z M19.9,25c0-0.1,0-0.2,0-0.3c0-0.1-0.2-0.3-0.3-0.3
			c-0.2-0.1-0.3,0-0.5,0.2c-0.2,0.3-0.2,0.6,0,0.9c0.2,0.3,0.4,0.3,0.7,0.1C20,25.3,19.9,25.1,19.9,25z"/>
		<path class="st7" d="M21.4,25.1c0.1-0.2-0.1-0.5,0.1-0.7c0,0-0.1-0.2-0.2-0.3c0-0.1-0.1-0.1-0.1-0.2l0.1-0.1
			c0.2,0.1,0.5,0.1,0.7,0c0.2-0.1,0.4-0.1,0.6,0.1c0.2,0.2,0.4,0.4,0.4,0.7c0,0.3,0,0.5,0,0.8c0,0.3,0,0.3-0.3,0.3
			c-0.2,0-0.2-0.1-0.2-0.2c0-0.3,0-0.6,0-0.9c0-0.1,0-0.2-0.1-0.3c-0.1-0.1-0.2-0.2-0.3-0.2c-0.1,0.1-0.3,0.3-0.3,0.4
			c0,0.3,0,0.7,0,1c0,0.2-0.1,0.2-0.2,0.2c-0.1,0-0.2,0-0.2-0.2C21.4,25.5,21.4,25.4,21.4,25.1z"/>
		<path class="st7" d="M15.7,23.9c0.1,0,0.2,0,0.3,0c0.1,0,0.1,0.1,0.1,0.1c0,0.2,0.1,0.3,0.1,0.5c0.1,0.2-0.2,0.6-0.5,0.7
			c-0.2,0.1-0.2,0.2-0.1,0.3c0.1,0.1,0.2,0.2,0.2,0.2c0.2,0.1,0.2,0.3,0.2,0.5c-0.1,0.2-0.2,0.3-0.5,0.4c-0.1,0-0.2,0-0.3,0
			c-0.1,0-0.1-0.1-0.1-0.1c0-0.1-0.1-0.2,0.1-0.2c0.1,0,0.1,0,0.2,0c0.2-0.1,0.2-0.2,0.1-0.4c-0.2-0.2-0.5-0.5-0.4-0.8
			c0-0.1-0.1-0.1-0.1-0.1c-0.2-0.2-0.2-0.5-0.1-0.7c0.1-0.2,0.2-0.3,0.4-0.3C15.5,23.9,15.6,23.9,15.7,23.9z M15.2,24.5
			c0,0.3,0.1,0.5,0.3,0.5c0.2,0,0.5-0.2,0.4-0.4c0-0.1-0.2-0.4-0.3-0.3c-0.1,0-0.2,0.1-0.3,0.1C15.2,24.3,15.2,24.5,15.2,24.5z"/>
		<path class="st7" d="M13.3,25c-0.1,0-0.2,0-0.3,0c-0.1,0-0.3-0.1-0.3,0.1c0,0.3,0.1,0.4,0.3,0.4s0.5,0.1,0.7-0.1
			c0.1-0.1,0.2,0.1,0.1,0.2c0,0.2-0.2,0.3-0.5,0.4c-0.6,0.1-1-0.3-1.1-1c0-0.5,0.1-0.8,0.6-1c0.4-0.2,0.9-0.1,1,0.3
			c0.1,0.2,0,0.4,0,0.6c0,0-0.1,0.1-0.1,0.1C13.6,25,13.5,25,13.3,25z M13.2,24.7c0.1,0,0.1,0,0.2,0c0.1,0,0.2,0,0.2-0.1
			s0-0.2-0.1-0.3c-0.1-0.1-0.1-0.2-0.2-0.2c-0.1-0.1-0.2-0.1-0.3,0.1c-0.1,0.1-0.3,0.2-0.2,0.4c0,0.1,0.2,0.1,0.3,0.1
			C13.1,24.7,13.1,24.7,13.2,24.7z"/>
		<path class="st7" d="M17.6,25c0,0.2,0,0.5,0,0.7c0,0.1,0,0.2-0.2,0.2c-0.1,0-0.2,0-0.2-0.2c0-0.5,0-1,0-1.4c0-0.1,0-0.2,0.2-0.2
			c0.1,0,0.2,0,0.2,0.2C17.5,24.5,17.6,24.7,17.6,25z"/>
		<path class="st7" d="M13.4,23.1c0.1,0.1,0.1,0.1,0.1,0.2c0,0.1,0,0.1-0.1,0.2c-0.1,0.1-0.1,0.3-0.3,0.3c-0.1,0-0.1-0.1-0.1-0.1
			c-0.1-0.1,0.1-0.5,0.2-0.6C13.2,23.1,13.3,23.1,13.4,23.1z"/>
		<path class="st7" d="M17.6,23.4c-0.1,0.1-0.1,0.2-0.1,0.2c-0.1,0-0.2,0.1-0.3-0.1c0-0.1,0.1-0.1,0.1-0.1
			C17.4,23.4,17.5,23.4,17.6,23.4z"/>
		<path class="st6" d="M8.4,30.3c0-0.1,0-0.2,0-0.3c0-0.1,0.1-0.2,0.2-0.2c0.1,0,0.3,0,0.4,0c0.2-0.1,0.4,0.1,0.5,0.2
			c0.1,0.2,0.2,0.6,0.2,0.7c-0.1,0.2-0.5,0.4-0.7,0.3c-0.2-0.1-0.5-0.3-0.5-0.5C8.4,30.5,8.4,30.4,8.4,30.3z"/>
		<path class="st6" d="M8.4,28.7c0-0.1,0-0.2,0-0.3c0-0.2,0-0.2,0.2-0.2c0.1,0,0.3,0,0.4,0c0.2,0,0.3,0.1,0.5,0.3
			c0.2,0.2-0.1,0.3-0.1,0.5c0.1,0.2-0.2,0.1-0.2,0.2S9,29.2,8.9,29.2C8.4,29.3,8.4,29.3,8.4,28.7z"/>
		<path class="st6" d="M11.7,28.8c0-0.6,0-0.6,0.6-0.6c0.2,0.1,0.5,0.3,0.5,0.5c0.1,0.5-0.1,0.6-0.4,0.7c-0.2,0.1-0.3,0.1-0.6-0.1
			c-0.1-0.1-0.2-0.1-0.2-0.2S11.7,29,11.7,28.8z"/>
		<path class="st6" d="M22.5,29.8c-0.1,0-0.1,0-0.2,0c-0.2,0-0.3-0.1-0.2-0.3c0.1-0.2,0.2-0.4,0.2-0.6c0-0.1,0.1-0.3,0.2-0.4
			c0.1,0.1,0.2,0.2,0.2,0.3c0.1,0.2,0.2,0.5,0.2,0.7c0.1,0.2,0,0.2-0.2,0.2C22.6,29.8,22.5,29.8,22.5,29.8z"/>
		<path class="st6" d="M9.8,24c0-0.5,0.2-0.6,0.7-0.4c0.2,0.1,0.2,0.2,0.2,0.4c0,0.5-0.1,0.6-0.5,0.5c-0.1,0-0.1,0-0.2,0
			c-0.1-0.1-0.2-0.1-0.2-0.2C9.8,24.2,9.8,24.1,9.8,24z"/>
		<path class="st6" d="M19.9,25c0,0.2,0.1,0.3-0.1,0.5c-0.3,0.2-0.5,0.2-0.7-0.1c-0.2-0.3-0.1-0.6,0-0.9c0.1-0.2,0.2-0.3,0.5-0.2
			c0.1,0,0.3,0.2,0.3,0.3C19.9,24.7,19.9,24.9,19.9,25z"/>
		<path class="st6" d="M15.2,24.5c0-0.1,0-0.2,0.1-0.2c0.1-0.1,0.2-0.1,0.3-0.1c0.1,0,0.3,0.2,0.3,0.3c0,0.2-0.2,0.4-0.4,0.4
			C15.3,25,15.2,24.8,15.2,24.5z"/>
		<path class="st6" d="M13.2,24.7c-0.1,0-0.1,0-0.1,0c-0.1,0-0.3,0-0.3-0.1c-0.1-0.2,0.1-0.3,0.2-0.4c0.1-0.1,0.2-0.1,0.3-0.1
			c0.1,0.1,0.2,0.1,0.2,0.2c0.1,0.1,0.1,0.2,0.1,0.3c0,0.1-0.1,0.1-0.2,0.1S13.2,24.7,13.2,24.7z"/>
	</g>
</g>
<polygon class="st8" points="7.8,32.3 7.9,32.4 8,32.4 8,32.4 8,32.4 7.9,32.3 7.8,32.3 "/>
<polyline class="st8" points="8.3,32.7 8.4,32.7 8.4,32.8 8.5,32.8 8.6,32.8 7.6,32.8 7.6,32.1 "/>
<polygon class="st8" points="8.5,32.8 8.6,32.8 8.5,32.8 8.4,32.8 8.4,32.7 8.3,32.7 8.3,32.7 8.3,32.7 8.3,32.7 8.4,32.7 8.4,32.7 
	8.4,32.7 8.5,32.7 8.5,32.8 8.5,32.8 "/>
<circle class="st9" cx="21.1" cy="21" r="19.1"/>
<circle class="st10" cx="21.1" cy="21.3" r="20.1"/>
<g>
	<g>
		<path class="st10" d="M4.3,30.8c0-6.3,0-12.6,0-18.9c11.2,0,22.4,0,33.6,0c0,6.3,0,12.6,0,18.9C26.7,30.8,15.5,30.8,4.3,30.8z
			 M9.4,28.9c0,0.3,0,0.6,0,0.9c0,0.1,0,0.3,0.1,0.4c0.1,0.2,0.2,0.3,0.4,0.3c0.1,0,0.2,0,0.3,0c0.2,0,0.5-0.2,0.5-0.4
			c0-0.1,0.1-0.2,0.1-0.4c0-0.1,0.1-0.2,0.2-0.2c0.1,0,0.3,0,0.4-0.1c0.2-0.1,0.5-0.2,0.6-0.4c0.1-0.1,0.2-0.1,0.2,0
			c0.2,0.2,0.4,0.3,0.7,0.4c0.1,0,0.2,0.1,0.4,0.1c0.1,0,0.2,0,0.3-0.1c0.2,0,0.3-0.1,0.5-0.2c0.1-0.1,0.2-0.1,0.3-0.2
			c0.1-0.1,0.1-0.1,0.2,0c0.2,0.1,0.3,0.2,0.5,0.3c0.4,0.1,0.6,0.2,0.9,0c0.1-0.1,0.1-0.1,0.2,0c0.2,0.1,0.4,0.1,0.5,0.2
			c0.2,0.1,0.5,0.1,0.7,0c0.2-0.1,0.3-0.1,0.5-0.2c0.1-0.1,0.2-0.2,0.3-0.4c0-0.1,0-0.2,0-0.4c-0.1-0.1,0-0.2,0.1-0.3
			c0.1-0.1,0.1-0.3,0.1-0.5s0-0.4-0.1-0.5c-0.1-0.2-0.2-0.5-0.4-0.6c-0.1-0.1-0.3-0.2-0.5-0.3s-0.5-0.1-0.8-0.1
			c-0.2,0.1-0.4,0.1-0.6,0.2c-0.2,0.1-0.2,0.2-0.4,0.4c-0.1,0.1-0.1,0.3-0.2,0.4c0,0,0,0.1-0.1,0.1s0-0.1,0-0.1c0-0.2,0-0.4,0-0.6
			s0-0.4,0-0.6c0-0.2,0-0.4-0.1-0.5s-0.1-0.2-0.2-0.2c-0.1-0.1-0.2-0.1-0.3-0.1c-0.2-0.1-0.5,0-0.7,0.3c-0.1,0.1-0.1,0.1-0.2,0.1
			l-0.1-0.1c-0.2-0.1-0.3-0.2-0.5-0.2c-0.2-0.1-0.4-0.1-0.6,0c-0.2,0.1-0.5,0.2-0.6,0.4C12,26,12,26.2,12,26.4
			c0,0.1,0.1,0.2,0.1,0.3c0,0.1,0,0.1-0.1,0.2s-0.1,0-0.1-0.1c-0.1-0.1-0.2-0.2-0.4-0.3c-0.1-0.1-0.2-0.1-0.3-0.1
			c-0.2-0.1-0.4-0.1-0.5,0c-0.2,0-0.4,0.1-0.5,0.1c-0.2,0.1-0.4,0.3-0.5,0.5c-0.1,0.3-0.2,0.6-0.2,0.9C9.4,28.2,9.4,28.5,9.4,28.9z
			 M29,27.9L29,27.9C29,27.7,29,27.6,29,27.5c0-0.5,0-1,0-1.5c0-0.2-0.2-0.5-0.5-0.5c-0.1,0-0.1,0-0.1,0c-0.2,0-0.4,0.2-0.5,0.4
			c-0.1,0.2-0.1,0.4-0.1,0.6v0.1c0,0.1-0.1,0.1-0.2,0.1c-0.1-0.1-0.2-0.1-0.2-0.1c-0.3-0.1-0.6-0.1-0.9-0.1c-0.1,0-0.2,0.1-0.4,0.1
			c-0.1,0.1-0.2,0.2-0.4,0.3c-0.1,0.1-0.1,0.1-0.3,0c-0.1-0.1-0.1-0.1-0.2-0.2c-0.2-0.1-0.4-0.2-0.6-0.2c-0.3-0.1-0.5-0.1-0.8,0.1
			c-0.2,0.1-0.4,0.1-0.6,0c-0.1,0-0.1-0.1-0.2-0.1c-0.2-0.1-0.5-0.1-0.7,0c-0.2,0.1-0.5,0.2-0.6,0.4c-0.1,0.1-0.1,0.1-0.1,0.1
			c-0.1,0.1-0.1,0.1-0.2,0l-0.1-0.1c-0.1-0.1-0.2-0.2-0.4-0.3c-0.1-0.1-0.3-0.1-0.4-0.1c-0.2-0.1-0.4-0.1-0.6,0
			c-0.3,0.1-0.5,0.2-0.7,0.5c-0.1,0.2-0.2,0.4-0.3,0.6c0,0.2,0,0.4,0,0.6c0,0.2,0.1,0.4,0.1,0.6c0.1,0.2,0.2,0.4,0.4,0.5
			c0.4,0.3,0.8,0.4,1.2,0.3c0.2,0,0.4-0.1,0.6-0.2c0.1-0.1,0.2-0.1,0.4,0c0.1,0.1,0.3,0.1,0.5,0.1c0.2,0,0.4-0.1,0.4-0.4
			c0-0.1,0-0.2,0-0.2c0-0.4,0-0.6,0-1c0-0.1,0-0.2,0.1-0.2c0.1-0.1,0.3-0.1,0.4,0.1c0,0.1,0.1,0.2,0.1,0.3c0,0.2,0,0.5,0,0.8
			c0,0.1,0,0.1,0,0.2c0.1,0.2,0.2,0.5,0.5,0.5h0.1c0.2,0,0.4-0.1,0.5-0.4c0.1-0.1,0.1-0.2,0.1-0.4c0-0.2,0-0.5,0-0.8
			c0-0.1,0-0.2,0.1-0.3c0.1-0.1,0.1-0.1,0.2-0.1c0.1,0,0.2,0.1,0.2,0.2c0,0.2,0.1,0.4,0.1,0.5c0,0.2,0,0.5,0,0.8
			c0,0.2,0.1,0.3,0.2,0.4c0.1,0.1,0.2,0.1,0.4,0.1c0.1,0,0.2,0.1,0.2,0.2s0,0.2,0.1,0.4c0,0.1,0.1,0.2,0.2,0.4
			c0.1,0.1,0.2,0.1,0.4,0.1c0.2,0,0.4-0.1,0.5-0.3c0.1-0.2,0.1-0.3,0.1-0.5c0-0.1,0.1-0.2,0.2-0.2s0.2,0,0.3,0
			c0.2-0.1,0.4-0.1,0.6-0.2c0.1-0.1,0.2-0.2,0.2-0.2c0.1-0.1,0.1-0.1,0.2,0s0.1,0.1,0.1,0.1c0.2,0.2,0.5,0.2,0.7,0.3
			c0.2,0,0.4,0,0.5-0.1c0.1-0.1,0.2-0.1,0.3,0c0.1,0,0.1,0.1,0.2,0.1c0.1,0.1,0.2,0.1,0.4,0.1s0.4,0,0.5-0.1
			c0.2-0.1,0.3-0.1,0.5-0.2c0.1-0.1,0.1-0.1,0.2,0c0.1,0.2,0.3,0.2,0.5,0.2c0.2,0,0.4-0.1,0.4-0.2s0.1-0.3,0.1-0.4
			c0-0.6,0-1.1,0-1.7c0-0.2-0.1-0.4-0.1-0.5c-0.1-0.1-0.1-0.2,0-0.2c0.1-0.1,0.1-0.3,0.1-0.4c0-0.2-0.2-0.4-0.4-0.5
			c-0.1,0-0.2,0-0.2,0c-0.2,0-0.3,0.1-0.4,0.2c-0.1,0.2-0.1,0.4,0,0.6c0.1,0.1,0.1,0.2,0.1,0.3c-0.1,0.1-0.1,0.2-0.2,0.1
			c-0.1-0.1-0.1-0.1-0.2-0.1c-0.4-0.2-0.7-0.2-1.1-0.1c-0.3,0.1-0.5,0.2-0.6,0.4c-0.1,0.2-0.2,0.4-0.2,0.5
			C29.1,27.6,29.1,27.7,29,27.9z M21.1,24.4c0.2,0,0.4,0,0.5-0.1c0.2,0,0.5-0.1,0.7-0.1c0.3-0.1,0.6-0.2,0.9-0.2
			c0.2-0.1,0.5-0.2,0.6-0.3c0.1-0.1,0.3-0.2,0.4-0.2c0.4-0.2,0.6-0.5,0.9-0.7c0.2-0.1,0.3-0.3,0.5-0.5c0.1-0.1,0.1-0.1,0.2-0.2
			C26,22,26,22,26.1,21.9c0.2-0.1,0.5-0.3,0.6-0.5s0.4-0.3,0.5-0.5c0.2-0.3,0.4-0.6,0.4-1c0-0.3-0.1-0.5-0.4-0.6
			c-0.1-0.1-0.2-0.2-0.2-0.3c0-0.1,0-0.1,0-0.1c0-0.1,0.1-0.2,0.2-0.4c0.1-0.1,0.2-0.2,0.3-0.3c0.1-0.2,0.2-0.4,0.2-0.5
			c0-0.1,0-0.3,0-0.4c0-0.2,0-0.3-0.1-0.5s-0.1-0.4-0.1-0.6c-0.1-0.1-0.1-0.2-0.1-0.4c-0.1-0.2-0.2-0.4-0.3-0.5
			c-0.2-0.2-0.4-0.5-0.6-0.6c-0.2-0.1-0.3-0.2-0.5-0.4s-0.4-0.2-0.5-0.4c-0.1-0.2-0.3-0.3-0.5-0.5s-0.4-0.3-0.5-0.5
			c-0.1-0.1-0.2-0.2-0.4-0.2c-0.2-0.2-0.5-0.3-0.8-0.4s-0.5-0.2-0.8-0.3C22.4,12,22.3,12,22.1,12c-0.2-0.1-0.3-0.1-0.5-0.1
			c-0.2-0.1-0.4-0.1-0.6-0.1c-0.2,0-0.4,0-0.5,0c-0.2,0-0.4,0-0.5,0.1c-0.1,0-0.2,0.1-0.4,0.1c-0.2,0.1-0.5,0.1-0.7,0.2
			c-0.2,0.1-0.5,0.2-0.6,0.3c-0.6,0.2-1.1,0.6-1.6,1.1c-0.3,0.2-0.5,0.5-0.8,0.9c-0.4,0.4-0.6,0.9-0.8,1.4c-0.1,0.3-0.2,0.6-0.3,0.8
			c-0.1,0.2-0.1,0.4-0.1,0.6c-0.1,0.2-0.1,0.5-0.1,0.8c0,0.1,0,0.2,0,0.4c0,0.2,0,0.4,0.1,0.5c0,0.2,0.1,0.4,0.1,0.6
			c0.1,0.2,0.1,0.4,0.2,0.6c0.1,0.2,0.2,0.5,0.3,0.7c0.2,0.4,0.4,0.6,0.6,1c0.2,0.2,0.4,0.5,0.5,0.6c0.2,0.2,0.3,0.3,0.5,0.5
			c0.4,0.3,0.7,0.5,1.1,0.8c0.6,0.3,1.1,0.5,1.8,0.6C20.3,24.3,20.7,24.4,21.1,24.4z"/>
		<path class="st11" d="M9.4,28.9c0-0.3,0-0.6,0-0.9s0.1-0.6,0.2-0.9c0.1-0.2,0.3-0.4,0.5-0.5c0.2-0.1,0.4-0.1,0.5-0.1s0.4,0,0.5,0
			c0.1,0,0.2,0.1,0.3,0.1c0.2,0.1,0.3,0.2,0.4,0.3C12,27,12,27,12,27c0.1,0,0.1-0.1,0.1-0.2C12,26.7,12,26.6,12,26.5
			c0-0.2,0.1-0.4,0.2-0.5s0.4-0.3,0.6-0.4c0.2-0.1,0.4-0.1,0.6,0s0.3,0.2,0.5,0.2l0.1,0.1c0.1,0.1,0.2,0.1,0.2-0.1
			c0.1-0.3,0.4-0.4,0.7-0.3c0.1,0,0.2,0.1,0.3,0.1c0.1,0.1,0.1,0.2,0.2,0.2c0.1,0.2,0.1,0.4,0.1,0.5c0,0.2,0,0.4,0,0.6
			c0,0.2,0,0.4,0,0.6v0.1c0.1,0,0.1,0,0.1-0.1c0.1-0.1,0.1-0.3,0.2-0.4c0.1-0.2,0.2-0.3,0.4-0.4s0.4-0.2,0.6-0.2
			c0.2-0.1,0.5,0,0.8,0.1c0.2,0.1,0.4,0.2,0.5,0.3c0.2,0.2,0.3,0.4,0.4,0.6c0.1,0.2,0.1,0.4,0.1,0.5c0,0.2-0.1,0.3-0.1,0.5
			c-0.1,0.1-0.1,0.2-0.1,0.3c0.1,0.1,0.1,0.2,0,0.4c-0.1,0.2-0.2,0.3-0.3,0.4c-0.1,0.1-0.3,0.2-0.5,0.2c-0.2,0.1-0.5,0.1-0.7,0
			c-0.2,0-0.4-0.1-0.5-0.2c-0.1,0-0.1,0-0.2,0c-0.3,0.2-0.6,0.1-0.9,0c-0.2-0.1-0.4-0.2-0.5-0.3c-0.1-0.1-0.1-0.1-0.2,0
			c-0.1,0.1-0.2,0.2-0.3,0.2c-0.2,0.1-0.3,0.1-0.5,0.2c-0.1,0-0.2,0.1-0.3,0.1c-0.1,0-0.2,0-0.4-0.1c-0.3-0.1-0.5-0.2-0.7-0.4
			c-0.1-0.1-0.2-0.1-0.2,0c-0.2,0.2-0.4,0.3-0.6,0.4c-0.1,0-0.3,0.1-0.4,0.1s-0.1,0.1-0.2,0.2c0,0.1,0,0.3-0.1,0.4
			c-0.1,0.2-0.2,0.4-0.5,0.4c-0.1,0-0.2,0-0.3,0c-0.2,0-0.3-0.2-0.4-0.3c-0.1-0.1-0.1-0.3-0.1-0.4C9.4,29.5,9.4,29.2,9.4,28.9z
			 M9.6,28.9c0,0.3,0,0.5,0,0.8c0,0.1,0,0.2,0.1,0.4c0.1,0.1,0.1,0.2,0.2,0.3c0.2,0.1,0.5-0.1,0.5-0.3c0-0.1,0.1-0.2,0.1-0.3
			c0-0.2,0.1-0.2,0.2-0.3c0.1,0,0.2,0,0.3,0c0.4-0.1,0.6-0.2,0.8-0.5c0-0.1,0.1-0.1,0.1-0.1c0.1-0.1,0.1,0,0.1,0
			c0.1,0.1,0.1,0.1,0.1,0.1c0.1,0.2,0.3,0.3,0.5,0.4c0.2,0.1,0.5,0.1,0.8,0.1c0.1,0,0.2-0.1,0.4-0.1c0.2-0.1,0.3-0.2,0.4-0.4
			l0.1-0.1c0.1-0.1,0.2-0.1,0.2,0c0.2,0.2,0.4,0.4,0.6,0.5c0.2,0.1,0.4,0.1,0.6-0.1c0.1-0.1,0.2-0.1,0.3-0.1c0.1,0,0.1,0.1,0.2,0.1
			c0.2,0.1,0.3,0.2,0.5,0.2c0.2,0,0.5,0,0.7-0.1c0.2-0.1,0.4-0.1,0.4-0.3c0.1-0.1,0.1-0.2,0.1-0.2c0-0.1-0.1-0.2-0.1-0.3
			c-0.1-0.1-0.1-0.1,0-0.2s0.1-0.1,0.2-0.2S18,28.1,18,28c0-0.2-0.1-0.5-0.1-0.6c-0.2-0.5-0.6-0.7-1.1-0.7c-0.2,0-0.4,0.1-0.5,0.1
			c-0.2,0.1-0.4,0.3-0.5,0.5s-0.2,0.4-0.2,0.5c0,0.1-0.1,0.3-0.1,0.4s0,0.2,0,0.3c0,0.1-0.1,0.1-0.1,0.1c-0.1,0-0.2-0.1-0.2-0.3
			c0-0.4,0-0.8,0-1.2c0-0.3,0-0.5,0-0.8c0-0.1,0-0.2-0.1-0.4c-0.1-0.2-0.5-0.3-0.7-0.1c-0.1,0.2-0.2,0.3-0.2,0.5c0,0.2,0,0.4,0,0.5
			c0,0.1,0,0.1,0,0.1c0,0.1-0.1,0.1-0.1,0.1c-0.1-0.1-0.1-0.1-0.2-0.2c0-0.1,0-0.1,0-0.1c0.1-0.1,0.1-0.1,0.1-0.2
			c0.1-0.1,0.1-0.1,0-0.2c-0.1-0.2-0.2-0.3-0.3-0.4s-0.2-0.1-0.4-0.2c-0.2-0.1-0.3-0.1-0.5-0.1c-0.2,0.1-0.4,0.2-0.6,0.4
			c-0.1,0.1-0.2,0.4-0.1,0.5c0.1,0.1,0.1,0.2,0,0.2c-0.1,0.1-0.2,0.3-0.3,0.4h-0.1c-0.1,0-0.1-0.1-0.2-0.2c-0.1-0.2-0.3-0.3-0.5-0.4
			c-0.3-0.1-0.5-0.1-0.8-0.1c-0.2,0.1-0.5,0.2-0.6,0.4c-0.1,0.1-0.1,0.1-0.1,0.1c-0.1,0.1-0.1,0.2-0.1,0.4c-0.1,0.2-0.1,0.5-0.1,0.8
			C9.6,28.5,9.6,28.7,9.6,28.9z"/>
		<path class="st11" d="M29,27.9c0.1-0.2,0.1-0.3,0.1-0.4c0.1-0.2,0.1-0.4,0.2-0.5c0.2-0.2,0.4-0.4,0.6-0.4c0.4-0.1,0.8-0.1,1.1,0.1
			c0.1,0.1,0.1,0.1,0.2,0.1c0.1,0.1,0.2,0.1,0.2-0.1c0.1-0.1,0-0.2-0.1-0.3c-0.1-0.2-0.1-0.4,0-0.6s0.2-0.2,0.4-0.2
			c0.1,0,0.2,0,0.2,0c0.2,0.1,0.4,0.2,0.4,0.5c0,0.2,0,0.3-0.1,0.4c-0.1,0.1,0,0.2,0,0.2c0.1,0.2,0.1,0.4,0.1,0.5c0,0.6,0,1.1,0,1.7
			c0,0.1,0,0.3-0.1,0.4c-0.1,0.2-0.2,0.2-0.4,0.2c-0.2,0-0.4-0.1-0.5-0.2c-0.1-0.1-0.1-0.1-0.2,0c-0.1,0.1-0.3,0.2-0.5,0.2
			c-0.2,0.1-0.4,0.1-0.5,0.1c-0.1,0-0.3-0.1-0.4-0.1c-0.1,0-0.1-0.1-0.2-0.1c-0.1-0.1-0.2-0.1-0.3,0c-0.2,0.1-0.3,0.1-0.5,0.1
			c-0.3,0-0.5-0.1-0.7-0.3c-0.1-0.1-0.1-0.1-0.1-0.1c-0.1-0.1-0.1-0.1-0.2,0s-0.2,0.1-0.2,0.2c-0.2,0.1-0.4,0.2-0.6,0.2
			c-0.1,0-0.2,0-0.3,0s-0.2,0.1-0.2,0.2c0,0.2,0,0.4-0.1,0.5c-0.1,0.2-0.2,0.3-0.5,0.3c-0.1,0-0.2,0-0.4-0.1
			c-0.1-0.1-0.2-0.2-0.2-0.4c0-0.1-0.1-0.2-0.1-0.4c0-0.1-0.1-0.2-0.2-0.2s-0.2,0-0.4-0.1c-0.1-0.1-0.2-0.2-0.2-0.4
			c-0.1-0.2,0-0.5,0-0.8c0-0.2,0-0.4-0.1-0.5c0-0.1-0.1-0.2-0.2-0.2c-0.1,0-0.2,0.1-0.2,0.1c-0.1,0.1-0.1,0.2-0.1,0.3
			c0,0.2,0,0.5,0,0.8c0,0.1,0,0.2-0.1,0.4s-0.2,0.4-0.5,0.4h-0.1c-0.3,0.1-0.5-0.2-0.5-0.5c0-0.1,0-0.1,0-0.2c0-0.2,0-0.5,0-0.8
			c0-0.1,0-0.2-0.1-0.3c-0.1-0.2-0.2-0.2-0.4-0.1c-0.1,0.1-0.1,0.2-0.1,0.2c0,0.4,0,0.6,0,1c0,0.1,0,0.2-0.1,0.3
			c-0.1,0.2-0.2,0.3-0.4,0.4c-0.2,0-0.4,0-0.5-0.1s-0.2-0.1-0.4,0c-0.2,0.1-0.4,0.2-0.6,0.2c-0.5,0.1-0.9,0-1.2-0.3
			c-0.2-0.1-0.3-0.4-0.4-0.5c-0.1-0.2-0.1-0.4-0.1-0.6c0-0.2,0-0.4,0.1-0.6c0.1-0.2,0.1-0.5,0.3-0.6c0.2-0.2,0.4-0.4,0.7-0.5
			c0.2-0.1,0.4-0.1,0.6,0c0.1,0.1,0.3,0.1,0.4,0.1c0.2,0.1,0.3,0.2,0.4,0.3l0.1,0.1c0.1,0.1,0.1,0.1,0.2,0s0.1-0.1,0.1-0.1
			c0.2-0.2,0.4-0.3,0.6-0.4s0.5-0.1,0.7,0c0.1,0,0.1,0,0.2,0.1c0.2,0.1,0.4,0.1,0.6,0c0.2-0.1,0.5-0.1,0.8-0.1
			c0.2,0.1,0.4,0.1,0.6,0.2c0.1,0.1,0.1,0.1,0.2,0.2c0.1,0.2,0.2,0.2,0.3,0s0.2-0.2,0.4-0.3c0.1-0.1,0.2-0.1,0.4-0.1
			c0.3-0.1,0.6-0.1,0.9,0.1c0.1,0.1,0.2,0.1,0.2,0.1c0.1,0.1,0.1,0.1,0.2-0.1v-0.1c0-0.2,0-0.4,0.1-0.6s0.2-0.4,0.5-0.4
			c0.1,0,0.1,0,0.1,0c0.3-0.1,0.5,0.2,0.5,0.5c0.1,0.5,0,1,0,1.5C29,27.6,29,27.7,29,27.9L29,27.9z M28.8,27.1c0-0.3,0-0.6,0-0.9
			c0-0.2-0.1-0.4-0.3-0.5c-0.1-0.1-0.2,0-0.2,0c-0.1,0-0.2,0.1-0.2,0.1c-0.1,0.1-0.2,0.3-0.2,0.4c0,0.2,0,0.4,0,0.6
			c0,0.1,0,0.1-0.1,0.2c-0.1,0-0.1,0-0.2-0.1c0,0,0,0-0.1-0.1s-0.2-0.1-0.3-0.2c-0.3-0.1-0.6-0.1-0.9-0.1c-0.2,0.1-0.5,0.2-0.6,0.4
			c-0.1,0.1-0.1,0.1-0.1,0.1c-0.1,0.1-0.1,0.1-0.2,0c-0.1-0.1-0.1-0.1-0.1-0.1c-0.2-0.3-0.5-0.4-0.8-0.5c-0.3,0-0.5,0-0.8,0.1
			c-0.1,0.1-0.2,0.1-0.4,0c-0.2-0.1-0.5-0.1-0.7-0.1c-0.2,0-0.3,0.1-0.4,0.1c-0.2,0.1-0.4,0.2-0.5,0.4c0,0.1-0.1,0.1-0.1,0.1
			c-0.1,0.1-0.1,0.1-0.1,0l-0.1-0.1c-0.1-0.1-0.2-0.2-0.3-0.3c-0.3-0.2-0.7-0.3-1.1-0.2c-0.4,0.1-0.6,0.3-0.8,0.6
			c-0.1,0.2-0.2,0.5-0.2,0.8c0,0.2,0,0.5,0.1,0.7c0.1,0.3,0.3,0.5,0.6,0.7c0.2,0.1,0.5,0.2,0.8,0.2s0.6-0.1,0.8-0.4
			c0.1-0.1,0.2-0.1,0.2,0l0,0c0.1,0.1,0.2,0.2,0.3,0.2c0.2,0,0.4-0.1,0.5-0.3c0.1-0.1,0.1-0.3,0.1-0.4c0-0.2,0-0.5,0-0.6
			c0-0.1,0-0.2,0.1-0.2c0-0.1,0.1-0.2,0.2-0.2c0.2-0.1,0.4,0,0.4,0.2c0,0.1,0.1,0.1,0.1,0.2c0,0.2,0,0.5,0,0.8c0,0.1,0,0.3,0.1,0.4
			c0.1,0.2,0.2,0.2,0.4,0.3c0.2,0,0.3,0,0.4-0.2c0.1-0.1,0.1-0.2,0.1-0.4c0-0.3,0-0.6,0-0.9c0-0.1,0-0.2,0.1-0.2
			c0.1-0.1,0.1-0.1,0.1-0.2c0.2-0.1,0.4,0,0.4,0.2c0,0.1,0.1,0.2,0.1,0.3c0,0.2,0,0.5,0,0.7c0,0.1,0,0.2,0.1,0.4
			c0.1,0.2,0.2,0.3,0.4,0.4c0.1,0,0.1,0,0.2,0s0.1,0.1,0.2,0.1c0.1,0.1,0,0.2,0.1,0.3c0,0.2,0.1,0.4,0.2,0.5
			c0.2,0.2,0.6,0.1,0.7-0.2c0.1-0.1,0.1-0.2,0.1-0.4c0-0.2,0.1-0.3,0.3-0.3c0.1,0,0.2,0,0.4-0.1c0.2-0.1,0.4-0.1,0.5-0.3
			c0.1-0.1,0.1-0.2,0.2-0.2c0.1-0.1,0.1-0.1,0.2,0s0.1,0.1,0.1,0.1c0.1,0.1,0.3,0.2,0.5,0.3c0.2,0.1,0.5,0.1,0.6-0.1
			c0.1-0.1,0.2-0.1,0.2-0.1c0.1,0,0.1,0.1,0.2,0.1c0.2,0.1,0.5,0.1,0.7,0.1c0.1,0,0.3-0.1,0.4-0.1c0.1-0.1,0.2-0.2,0.4-0.2
			c0.1-0.1,0.2-0.1,0.3,0c0.1,0.1,0.1,0.1,0.1,0.2c0.1,0.1,0.4,0.2,0.6,0c0.1-0.1,0.2-0.2,0.2-0.4c0-0.6,0-1.2,0-1.8
			c0-0.2-0.1-0.3-0.2-0.4c-0.1-0.1-0.1-0.1-0.1-0.1c0-0.1-0.1-0.1,0-0.1c0-0.1,0.1-0.1,0.1-0.1c0.1-0.1,0.1-0.1,0.1-0.2
			c0.1-0.2-0.1-0.5-0.4-0.5c-0.2,0-0.3,0.1-0.4,0.2c-0.1,0.2-0.1,0.4,0,0.5c0,0.1,0.1,0.1,0.1,0.1c0.1,0.1,0.1,0.1,0,0.2
			c-0.1,0.1-0.1,0.2-0.2,0.2c-0.1,0.1-0.1,0.1-0.2,0.1c-0.1,0-0.1-0.1-0.1-0.1c-0.1-0.1-0.3-0.2-0.5-0.2c-0.2-0.1-0.5-0.1-0.8,0
			c-0.3,0.1-0.5,0.3-0.6,0.5c-0.2,0.3-0.2,0.7-0.2,1.1c0,0.1,0,0.1,0,0.2c-0.1,0.1-0.1,0.1-0.2,0.1c-0.1-0.1-0.1-0.2-0.1-0.2
			c0-0.1,0-0.2,0-0.4C28.9,27.6,28.8,27.4,28.8,27.1z"/>
		<path class="st11" d="M21.1,24.4c-0.4,0-0.8-0.1-1.2-0.1c-0.6-0.1-1.2-0.4-1.8-0.6c-0.4-0.2-0.8-0.5-1.1-0.8
			c-0.2-0.1-0.4-0.3-0.5-0.5c-0.2-0.2-0.4-0.4-0.5-0.6c-0.2-0.3-0.4-0.6-0.6-1c-0.1-0.2-0.2-0.5-0.3-0.7c-0.1-0.2-0.1-0.4-0.2-0.6
			c-0.1-0.2-0.1-0.4-0.1-0.6c0-0.2-0.1-0.4-0.1-0.5c0-0.1,0-0.2,0-0.4c0-0.2,0-0.5,0.1-0.8c0-0.2,0.1-0.4,0.1-0.6
			c0.1-0.3,0.2-0.6,0.3-0.8c0.2-0.5,0.5-1,0.8-1.4c0.2-0.3,0.5-0.6,0.8-0.9c0.5-0.4,1-0.8,1.6-1.1c0.2-0.1,0.5-0.2,0.6-0.3
			c0.2-0.1,0.5-0.1,0.7-0.2c0.1,0,0.2-0.1,0.4-0.1c0.2,0,0.4-0.1,0.5-0.1c0.2,0,0.4,0,0.5,0c0.2,0,0.4,0.1,0.6,0.1
			c0.2,0,0.3,0.1,0.5,0.1c0.2,0.1,0.4,0.1,0.5,0.1c0.3,0.1,0.6,0.2,0.8,0.3s0.5,0.2,0.8,0.4c0.1,0.1,0.2,0.2,0.4,0.2
			c0.2,0.1,0.4,0.3,0.5,0.5c0.2,0.2,0.3,0.3,0.5,0.5c0.1,0.2,0.4,0.2,0.5,0.4c0.2,0.1,0.4,0.2,0.5,0.4c0.2,0.2,0.4,0.4,0.6,0.6
			c0.1,0.2,0.2,0.4,0.3,0.5c0.1,0.1,0.1,0.2,0.1,0.4c0.1,0.2,0.1,0.4,0.1,0.6c0,0.2,0.1,0.3,0.1,0.5c0,0.1,0,0.3,0,0.4
			c-0.1,0.2-0.1,0.4-0.2,0.5c-0.1,0.1-0.2,0.2-0.3,0.3s-0.2,0.2-0.2,0.4c0,0.1,0,0.1,0,0.1c0,0.1,0,0.2,0.2,0.3
			c0.2,0.1,0.4,0.4,0.4,0.6c0,0.4-0.1,0.7-0.4,1c-0.1,0.2-0.3,0.4-0.5,0.5c-0.2,0.2-0.4,0.4-0.6,0.5c-0.1,0.1-0.2,0.1-0.3,0.2
			c-0.1,0.1-0.1,0.1-0.2,0.2c-0.2,0.2-0.3,0.3-0.5,0.5c-0.3,0.3-0.6,0.5-0.9,0.7c-0.1,0.1-0.3,0.2-0.4,0.2c-0.2,0.1-0.4,0.2-0.6,0.3
			c-0.3,0.1-0.6,0.2-0.9,0.2c-0.2,0.1-0.5,0.1-0.7,0.1C21.4,24.4,21.3,24.4,21.1,24.4z M15,18.1c0,0.2,0,0.5,0.1,0.8
			c0.1,0.4,0.2,0.8,0.3,1.2c0.1,0.2,0.2,0.5,0.3,0.6c0.1,0.2,0.2,0.5,0.4,0.7c0.2,0.2,0.4,0.5,0.5,0.7c0.2,0.2,0.4,0.4,0.5,0.5
			c0.2,0.2,0.4,0.4,0.6,0.5c0.3,0.2,0.6,0.4,0.9,0.5c0.1,0.1,0.3,0.1,0.5,0.2c0.3,0.1,0.6,0.2,1,0.2c0.3,0.1,0.6,0.1,0.9,0.1
			c0.2,0,0.4,0,0.6,0c0.2,0,0.4-0.1,0.6-0.1c0.4-0.1,0.8-0.2,1.1-0.4c0.4-0.1,0.7-0.3,1-0.5c0.2-0.1,0.4-0.2,0.5-0.4
			c0.3-0.2,0.5-0.4,0.7-0.6c0.1-0.1,0.2-0.2,0.4-0.3c0.4-0.2,0.6-0.4,0.9-0.6c0.2-0.2,0.4-0.4,0.5-0.7c0.1-0.2,0.2-0.5,0.2-0.7
			c0-0.1,0-0.2-0.1-0.2c-0.1-0.1-0.2-0.2-0.2-0.2c-0.1-0.1-0.2-0.1-0.2-0.2c0-0.1,0-0.1,0-0.2c0-0.2,0.1-0.4,0.3-0.5
			c0.1-0.1,0.2-0.2,0.3-0.4c0.1-0.1,0.1-0.2,0.1-0.4c0.1-0.2,0-0.5,0-0.7s-0.1-0.5-0.2-0.6c-0.1-0.2-0.2-0.4-0.2-0.6
			c-0.2-0.3-0.4-0.6-0.6-0.8c-0.2-0.1-0.3-0.3-0.5-0.4c-0.2-0.1-0.3-0.2-0.5-0.3c-0.1-0.1-0.1-0.1-0.2-0.2c-0.1-0.2-0.3-0.3-0.4-0.4
			c-0.2-0.2-0.4-0.4-0.6-0.5c-0.3-0.2-0.6-0.4-0.9-0.5c-0.3-0.1-0.6-0.2-0.9-0.4c-0.2-0.1-0.5-0.1-0.7-0.2c-0.4,0-0.7,0-0.9,0
			c-0.2,0-0.4,0-0.5,0c-0.2,0-0.4,0.1-0.6,0.1c-0.2,0.1-0.5,0.1-0.6,0.1c-0.2,0.1-0.4,0.1-0.6,0.2c-0.2,0.1-0.3,0.2-0.5,0.2
			c-0.2,0.1-0.4,0.2-0.6,0.4c-0.2,0.1-0.4,0.3-0.6,0.5c-0.2,0.2-0.5,0.5-0.7,0.7s-0.4,0.5-0.6,0.8c-0.2,0.2-0.3,0.5-0.4,0.8
			c-0.2,0.4-0.2,0.8-0.4,1.2C15,17.4,14.9,17.8,15,18.1z"/>
		<path class="st12" d="M9.6,28.9c0-0.2,0-0.4,0-0.6c0-0.3,0-0.5,0.1-0.8c0-0.1,0.1-0.2,0.1-0.4c0.1-0.1,0.1-0.1,0.1-0.1
			c0.2-0.2,0.4-0.4,0.6-0.4c0.3-0.1,0.6-0.1,0.8,0.1c0.2,0.1,0.4,0.2,0.5,0.4c0.1,0.1,0.1,0.2,0.2,0.2H12c0.1-0.1,0.2-0.2,0.3-0.4
			c0.1-0.1,0.1-0.2,0-0.2c-0.2-0.1-0.1-0.4,0.1-0.5c0.2-0.1,0.4-0.3,0.6-0.4c0.2-0.1,0.3-0.1,0.5,0.1c0.1,0.1,0.3,0.1,0.4,0.2
			c0.1,0.1,0.2,0.2,0.3,0.4c0,0.1,0,0.1,0,0.2c-0.1,0.1-0.1,0.1-0.1,0.2c0,0.1,0,0.1,0,0.1c0,0.1,0.1,0.2,0.2,0.2
			c0.1,0.1,0.1,0,0.1-0.1c0-0.1,0-0.1,0-0.1c0-0.2-0.1-0.4,0-0.5c0-0.2,0.1-0.4,0.2-0.5c0.2-0.2,0.5-0.2,0.7,0.1
			c0.1,0.1,0.1,0.2,0.1,0.4c0,0.3,0,0.5,0,0.8c0,0.4,0,0.8,0,1.2c0,0.2,0.1,0.2,0.2,0.3c0.1,0,0.1,0,0.1-0.1c0-0.1,0-0.2,0-0.3
			s0-0.3,0.1-0.4c0.1-0.2,0.1-0.4,0.2-0.5c0.1-0.2,0.3-0.4,0.5-0.5c0.2-0.1,0.4-0.1,0.5-0.1c0.5,0,0.9,0.2,1.1,0.7
			c0.1,0.2,0.2,0.4,0.1,0.6c0,0.1-0.1,0.2-0.1,0.3c-0.1,0.1-0.1,0.1-0.2,0.2c-0.1,0.1-0.1,0.1,0,0.2S18,28.8,18,29s0,0.2-0.1,0.2
			c-0.1,0.2-0.2,0.2-0.4,0.3c-0.2,0.1-0.5,0.1-0.7,0.1c-0.2,0-0.4-0.1-0.5-0.2c-0.1-0.1-0.1-0.1-0.2-0.1c-0.1-0.1-0.2,0-0.3,0.1
			c-0.2,0.2-0.4,0.2-0.6,0.1c-0.3-0.1-0.5-0.2-0.6-0.5c-0.1-0.1-0.2-0.1-0.2,0l-0.1,0.1c-0.1,0.2-0.2,0.3-0.4,0.4
			c-0.1,0.1-0.2,0.1-0.4,0.1c-0.2,0-0.5,0-0.8-0.1c-0.2-0.1-0.4-0.2-0.5-0.4c-0.1-0.1-0.1-0.1-0.1-0.1s-0.1-0.1-0.1,0
			C12,28.9,12,29,12,29c-0.2,0.3-0.5,0.5-0.8,0.5c-0.1,0-0.2,0-0.3,0c-0.2,0.1-0.2,0.1-0.2,0.3c0,0.1,0,0.2-0.1,0.3
			c-0.1,0.2-0.3,0.4-0.5,0.3c-0.1-0.1-0.2-0.2-0.2-0.3c-0.1-0.1-0.1-0.2-0.1-0.4C9.6,29.4,9.6,29.2,9.6,28.9z M14,26.3L14,26.3
			c0-0.1-0.1-0.1-0.1-0.2c-0.2-0.2-0.4-0.3-0.6-0.4c-0.1,0-0.1-0.1-0.2,0c-0.3,0.1-0.5,0.2-0.7,0.4c-0.1,0.1-0.1,0.1-0.1,0.2
			l-0.1,0.1c0,0.1,0,0.1,0.1,0.1c0.1,0.1,0.1,0.1,0.1,0.1c0.1,0.1,0.1,0.1,0,0.2l-0.1,0.1c-0.1,0.1-0.2,0.2-0.2,0.3
			c-0.1,0.1-0.1,0.1-0.1,0.1c-0.1,0.1-0.1,0.1-0.1,0c-0.1-0.1-0.1-0.2-0.2-0.2c-0.1-0.2-0.2-0.3-0.4-0.4c-0.2-0.1-0.4-0.1-0.6-0.1
			s-0.3,0.1-0.4,0.1c-0.4,0.2-0.5,0.5-0.6,0.8c-0.1,0.2-0.1,0.4-0.1,0.6c0,0.5,0,1,0,1.5c0,0.1,0,0.2,0,0.3c0,0.1,0,0.2,0.1,0.2
			c0,0,0,0,0,0.1c0.1,0.1,0.2,0.1,0.3,0.1c0.1,0,0.1,0,0.1-0.1l0,0l0,0c0.1,0,0.1-0.1,0.1-0.1c0.1-0.1,0.1-0.2,0.1-0.4
			c0-0.2,0.1-0.4,0.3-0.4c0.1,0,0.2,0,0.4,0c0.3-0.1,0.5-0.2,0.7-0.5c0.1-0.1,0.1-0.1,0.1-0.2s0.1-0.1,0.2,0
			c0.1,0.1,0.1,0.1,0.1,0.2c0.1,0.1,0.2,0.2,0.3,0.3c0.3,0.2,0.6,0.2,0.9,0.2c0.3-0.1,0.5-0.2,0.7-0.5c0-0.1,0.1-0.1,0.1-0.1
			c0.1-0.1,0.1-0.1,0.2,0s0.1,0.1,0.1,0.1c0.1,0.2,0.3,0.4,0.5,0.5c0.2,0.1,0.5,0.1,0.8-0.2c0-0.1,0.1-0.1,0.1-0.1
			c0.1,0,0.1,0,0.2,0.1c0.1,0.1,0.2,0.1,0.3,0.2c0.4,0.2,0.8,0.2,1.2-0.1c0.1-0.1,0.2-0.2,0.2-0.4c0,0,0,0,0-0.1
			c0-0.2-0.2-0.4-0.5-0.3c-0.1,0-0.2,0.1-0.2,0.1c-0.1,0.1-0.2,0.1-0.4-0.1c-0.1-0.1-0.1-0.1-0.1-0.2c0-0.1,0.1-0.1,0.2-0.1h0.1
			c0.2,0,0.4,0,0.6,0c0.1,0,0.2-0.1,0.4-0.1c0,0,0,0,0-0.1l0,0c0,0,0,0,0.1,0c0.1-0.1,0.1-0.2,0.1-0.4c0-0.2-0.1-0.4-0.2-0.5
			c-0.1-0.2-0.2-0.4-0.5-0.5c-0.2-0.1-0.4-0.2-0.6-0.1c-0.2,0-0.5,0.1-0.6,0.3c-0.2,0.2-0.4,0.4-0.4,0.7c-0.1,0.2-0.1,0.4-0.1,0.5
			c0,0.1,0,0.2,0,0.3s-0.1,0.2-0.2,0.2c-0.1,0-0.1,0-0.1-0.1c-0.2-0.1-0.2-0.2-0.2-0.4s0-0.4,0-0.6c0-0.5,0-0.9,0-1.4
			c0-0.1,0-0.2-0.1-0.4l0,0c-0.1-0.1-0.2-0.1-0.3-0.1c-0.1,0-0.1,0-0.1,0.1c0,0.8,0,1.7,0,2.5v0.1c0-0.1,0-0.1,0-0.1
			c0-0.8,0-1.5,0-2.3c0,0,0,0,0-0.1l0,0c0-0.1,0-0.1,0-0.2c-0.1,0-0.1,0.1-0.1,0.1c-0.1,0.2-0.1,0.4-0.1,0.6c0,0.2,0,0.4-0.1,0.6
			c-0.1,0.1-0.1,0.1-0.2,0.1C14,27,14,26.9,13.9,26.8c-0.1-0.1-0.1-0.2,0-0.3C13.9,26.4,14,26.4,14,26.3C14,26.4,14,26.4,14,26.3
			L14,26.3L14,26.3z"/>
		<path class="st12" d="M28.8,27.1c0,0.3,0,0.5,0,0.8c0,0.1,0,0.2,0,0.4c0,0.1,0.1,0.2,0.1,0.2c0.1,0.1,0.2,0.1,0.2-0.1
			c0-0.1,0-0.1,0-0.2c-0.1-0.4,0-0.7,0.2-1.1c0.1-0.2,0.4-0.5,0.6-0.5c0.2-0.1,0.5-0.1,0.8,0c0.2,0.1,0.3,0.1,0.5,0.2
			c0.1,0.1,0.1,0.1,0.1,0.1c0.1,0.1,0.2,0.1,0.2-0.1c0.1-0.1,0.1-0.2,0.2-0.2c0.1-0.1,0.1-0.1,0-0.2c0-0.1-0.1-0.1-0.1-0.1
			c-0.1-0.2-0.1-0.3,0-0.5c0.1-0.1,0.2-0.2,0.4-0.2c0.3,0,0.4,0.2,0.4,0.5c0,0.1-0.1,0.1-0.1,0.2c0,0.1-0.1,0.1-0.1,0.1
			c0,0.1,0,0.1,0,0.1c0,0.1,0.1,0.1,0.1,0.1c0.1,0.1,0.2,0.3,0.2,0.4c0,0.6,0,1.2,0,1.8c0,0.2-0.1,0.3-0.2,0.4
			c-0.1,0.2-0.5,0.1-0.6,0c-0.1-0.1-0.1-0.1-0.1-0.2c-0.1-0.2-0.2-0.1-0.3,0c-0.1,0.1-0.2,0.2-0.4,0.2c-0.1,0.1-0.3,0.1-0.4,0.1
			c-0.2,0-0.5,0-0.7-0.1c-0.1-0.1-0.1-0.1-0.2-0.1c-0.1,0-0.2,0-0.2,0.1c-0.2,0.2-0.4,0.2-0.6,0.1c-0.2-0.1-0.4-0.2-0.5-0.3
			c-0.1-0.1-0.1-0.1-0.1-0.1C28.1,29,28,29,28,29s-0.1,0.2-0.2,0.2c-0.2,0.1-0.4,0.2-0.5,0.3c-0.1,0-0.2,0.1-0.4,0.1
			c-0.2,0-0.3,0.1-0.3,0.3c0,0.1,0,0.2-0.1,0.4c-0.1,0.3-0.5,0.4-0.7,0.2c-0.1-0.1-0.2-0.3-0.2-0.5c0-0.1,0-0.2-0.1-0.3
			c-0.1-0.1-0.1-0.1-0.2-0.1c-0.1,0-0.1,0-0.2,0c-0.2-0.1-0.4-0.2-0.4-0.4c0-0.1-0.1-0.2-0.1-0.4c0-0.2,0-0.5,0-0.7
			c0-0.1,0-0.2-0.1-0.3c-0.1-0.2-0.2-0.3-0.4-0.2c-0.1,0-0.1,0.1-0.1,0.2c-0.1,0.1-0.1,0.2-0.1,0.2c0,0.3,0,0.6,0,0.9
			c0,0.1,0,0.3-0.1,0.4s-0.2,0.2-0.4,0.2s-0.3-0.1-0.4-0.3c-0.1-0.2-0.1-0.4-0.1-0.5c0-0.2,0-0.5,0-0.8c0-0.1,0-0.2-0.1-0.2
			c-0.1-0.2-0.2-0.2-0.4-0.2c-0.1,0.1-0.2,0.1-0.2,0.2c0,0.1-0.1,0.2-0.1,0.2c0,0.2,0,0.5,0,0.6s0,0.3-0.1,0.4
			c-0.1,0.2-0.2,0.3-0.5,0.3c-0.1,0-0.2-0.1-0.3-0.2l0,0c-0.1-0.1-0.2-0.1-0.2,0c-0.2,0.2-0.5,0.3-0.8,0.4c-0.3,0-0.5-0.1-0.8-0.2
			c-0.3-0.2-0.5-0.4-0.6-0.7c-0.1-0.2-0.1-0.5-0.1-0.7c0-0.3,0.1-0.5,0.2-0.8c0.2-0.4,0.5-0.5,0.8-0.6c0.4-0.1,0.8,0,1.1,0.2
			c0.1,0.1,0.2,0.2,0.3,0.3l0.1,0.1c0.1,0.1,0.1,0.1,0.1,0c0.1-0.1,0.1-0.1,0.1-0.1c0.1-0.2,0.3-0.4,0.5-0.4
			c0.1-0.1,0.3-0.1,0.4-0.1c0.2,0,0.5,0.1,0.7,0.1c0.1,0.1,0.2,0.1,0.4,0c0.2-0.1,0.5-0.2,0.8-0.1c0.4,0.1,0.6,0.2,0.8,0.5
			c0.1,0.1,0.1,0.1,0.1,0.1c0.1,0.1,0.2,0.1,0.2,0c0.1-0.1,0.1-0.1,0.1-0.1c0.2-0.2,0.4-0.4,0.6-0.4c0.3-0.1,0.6-0.1,0.9,0.1
			c0.1,0.1,0.2,0.1,0.3,0.2c0,0,0,0,0.1,0.1s0.1,0.1,0.2,0.1s0.1-0.1,0.1-0.2c0-0.2,0-0.4,0-0.6s0.1-0.3,0.2-0.4
			c0.1-0.1,0.1-0.1,0.2-0.1c0.1,0,0.2,0,0.2,0c0.2,0.1,0.3,0.2,0.3,0.5C28.9,26.5,28.8,26.8,28.8,27.1z M31.8,26.3
			C31.8,26.4,31.8,26.4,31.8,26.3c0.2,0.1,0.3,0.1,0.4,0l0,0c0.1,0,0.1-0.1,0.1-0.1c0.1-0.1,0-0.2,0-0.3s-0.1-0.1-0.1-0.1l0,0
			c-0.1-0.1-0.4-0.1-0.5,0l0,0C31.7,25.9,31.7,26.2,31.8,26.3L31.8,26.3z M25,29.2c0.1,0.1,0.1,0.1,0.2,0.1c0.1,0,0.2,0,0.3,0
			c0.1,0,0.1,0,0.2,0.1s0.1,0.1,0.1,0.2s0,0.2,0.1,0.4c0,0.1,0.1,0.2,0.1,0.2c0,0.1,0.1,0.1,0.1,0.1c0.1,0,0.1,0,0.1,0.1
			c0.1,0,0.2,0,0.3-0.1l0,0l0,0c0.1,0,0.1,0,0.1-0.1c0.1-0.1,0.1-0.2,0.1-0.2c0-0.1,0-0.2,0.1-0.3c0.1-0.2,0.2-0.2,0.4-0.2
			c0.1,0,0.3,0,0.4-0.1c0.2-0.1,0.4-0.2,0.5-0.4c0.1-0.1,0.1-0.1,0.1-0.2c0.1-0.1,0.1-0.1,0.2,0l0.1,0.1c0.1,0.1,0.2,0.2,0.4,0.4
			c0.2,0.1,0.4,0.2,0.6,0.1c0.1,0,0.1,0,0.1-0.1c0.1,0,0.1,0,0.1-0.1c0.1,0,0.1-0.1,0.1-0.1c0.1-0.1,0.1-0.1,0.2-0.1
			s0.1,0.1,0.1,0.1c0.2,0.2,0.5,0.2,0.9,0.2c0.2,0,0.4-0.1,0.6-0.2c0.1-0.1,0.1-0.1,0.2-0.2c0.1-0.1,0.2-0.1,0.3,0.1
			c0.1,0.1,0.1,0.2,0.1,0.2l0,0c0.1,0.1,0.4,0.1,0.5,0c0-0.1,0-0.1,0-0.1c0.1-0.1,0.1-0.2,0.1-0.3c0-0.6,0-1.1,0-1.7
			c0-0.1-0.1-0.2-0.1-0.3v-0.1l0,0c-0.1-0.1-0.3-0.1-0.4,0l0,0l-0.1,0.1c-0.1,0.1-0.1,0.2-0.1,0.2c-0.1,0.1-0.1,0.1-0.2,0.1
			c-0.1-0.1-0.1-0.1-0.2-0.2c-0.1-0.1-0.2-0.2-0.4-0.2c-0.3-0.1-0.6-0.1-0.9,0.1c-0.2,0.1-0.4,0.2-0.5,0.4c-0.1,0.1-0.1,0.3-0.2,0.4
			c-0.1,0.2-0.1,0.4,0,0.6c0,0.1,0,0.2,0,0.3s-0.1,0.2-0.2,0.1c-0.1-0.1-0.3-0.2-0.3-0.4c0-0.1,0-0.1,0-0.2c0-0.6,0-1.2,0-1.8
			c0-0.2-0.1-0.3-0.1-0.4c-0.2-0.2-0.5-0.1-0.5,0.1c-0.1,0.1-0.1,0.2-0.1,0.4c0,0.2,0,0.4,0,0.5c0,0.1,0,0.1,0,0.2S28,27.2,28,27.2
			c-0.1-0.1-0.1-0.1-0.2-0.1c-0.1-0.1-0.2-0.1-0.2-0.2c-0.2-0.1-0.5-0.2-0.8-0.1c-0.4,0.1-0.6,0.2-0.8,0.5c-0.1,0.1-0.1,0.2-0.2,0.2
			c-0.1,0.1-0.1,0.1-0.1,0c-0.2-0.2-0.2-0.2-0.3-0.3c-0.1-0.1-0.1-0.2-0.2-0.3c-0.2-0.2-0.5-0.3-0.8-0.3c-0.2,0-0.4,0.1-0.6,0.1
			c-0.1,0.1-0.2,0.1-0.4,0.1c-0.1,0-0.2-0.1-0.2-0.1c-0.2-0.1-0.5-0.1-0.8-0.1c-0.2,0.1-0.4,0.2-0.5,0.3c-0.1,0.1-0.2,0.2-0.2,0.4
			c-0.1,0.1-0.2,0.1-0.2,0c0-0.1-0.1-0.1-0.1-0.1c-0.2-0.3-0.4-0.5-0.7-0.5c-0.2-0.1-0.5-0.1-0.8,0.1c-0.2,0.1-0.4,0.3-0.5,0.5
			c-0.1,0.2-0.2,0.5-0.2,0.8c0,0.2,0.1,0.5,0.2,0.7c0.1,0.2,0.3,0.4,0.5,0.5c0.4,0.2,0.8,0.2,1.1,0c0.1-0.1,0.2-0.1,0.4-0.3
			c0.1-0.1,0.1-0.2-0.1-0.4c-0.1-0.1-0.1-0.1-0.2-0.1c-0.1-0.1-0.2-0.1-0.2,0c-0.1,0.1-0.2,0.1-0.3,0.1c-0.1,0-0.2,0-0.2,0
			c-0.1,0-0.2-0.1-0.1-0.2c0-0.1,0.1-0.1,0.2-0.1c0.2-0.1,0.3,0,0.5,0c0.1,0,0.2,0.1,0.3,0c0.1,0,0.1-0.1,0.2-0.1
			c0.2-0.1,0.3-0.1,0.3,0.2c0,0.1,0,0.2,0,0.3c-0.1,0.2,0.1,0.4,0.2,0.5l0,0c0,0.1,0.1,0.1,0.1,0.1c0.1,0.1,0.2,0.1,0.4-0.1l0,0
			c0.1,0,0.1-0.1,0.1-0.1c0.1-0.1,0.1-0.2,0.1-0.4c0-0.2,0-0.5,0-0.7c0-0.1,0-0.2,0.1-0.4c0.1-0.2,0.2-0.3,0.4-0.3s0.3,0.1,0.4,0.3
			c0.1,0.1,0.1,0.2,0.1,0.3c0,0.3,0,0.6,0,0.9c0,0.1,0.1,0.2,0.1,0.3l0,0c0.2,0.1,0.3,0.1,0.5,0l0,0c0.1,0,0.1-0.1,0.1-0.1
			C24,29.1,24,29,24,28.8c0-0.2,0-0.5,0-0.7c0-0.1,0-0.3,0.1-0.4c0.1-0.2,0.2-0.2,0.4-0.2s0.3,0.1,0.4,0.2s0.1,0.2,0.1,0.4
			c0,0.2,0,0.5,0,0.7c0,0.1,0,0.3,0.1,0.4C25,29.2,25,29.2,25,29.2C25,29.2,25,29.2,25,29.2z"/>
		<path class="st12" d="M15,18.1c0-0.4,0.1-0.8,0.1-1.1c0.1-0.4,0.2-0.8,0.4-1.2c0.1-0.3,0.2-0.5,0.4-0.8c0.2-0.3,0.4-0.6,0.6-0.8
			c0.2-0.2,0.4-0.5,0.7-0.7c0.2-0.2,0.4-0.3,0.6-0.5c0.2-0.1,0.4-0.3,0.6-0.4c0.2-0.1,0.3-0.2,0.5-0.2c0.2-0.1,0.4-0.2,0.6-0.2
			s0.5-0.1,0.6-0.1c0.2-0.1,0.4-0.1,0.6-0.1c0.2,0,0.4,0,0.5,0c0.3,0,0.5,0,0.8,0.1c0.2,0.1,0.5,0.1,0.7,0.2
			c0.3,0.1,0.6,0.2,0.9,0.4c0.3,0.1,0.6,0.3,0.9,0.5c0.2,0.2,0.5,0.4,0.6,0.5c0.1,0.1,0.3,0.3,0.4,0.4c0.1,0.1,0.1,0.1,0.2,0.2
			c0.2,0.1,0.3,0.2,0.5,0.3c0.2,0.1,0.4,0.2,0.5,0.4c0.2,0.2,0.5,0.5,0.6,0.8c0.1,0.2,0.2,0.4,0.2,0.6c0.1,0.2,0.1,0.5,0.2,0.6
			c0,0.2,0.1,0.5,0,0.7c0,0.1-0.1,0.2-0.1,0.4c-0.1,0.2-0.2,0.3-0.3,0.4c-0.2,0.1-0.3,0.3-0.3,0.5c0,0.1,0,0.1,0,0.2
			c0,0.1,0.1,0.2,0.2,0.2c0.1,0.1,0.2,0.2,0.2,0.2c0.1,0.1,0.1,0.2,0.1,0.2c0,0.2-0.1,0.5-0.2,0.7s-0.3,0.5-0.5,0.7
			c-0.3,0.3-0.6,0.5-0.9,0.6c-0.2,0.1-0.3,0.2-0.4,0.3c-0.2,0.2-0.5,0.5-0.7,0.6c-0.2,0.1-0.4,0.2-0.5,0.4c-0.3,0.2-0.6,0.4-1,0.5
			c-0.4,0.1-0.7,0.2-1.1,0.4c-0.2,0.1-0.4,0.1-0.6,0.1c-0.2,0-0.4,0-0.6,0c-0.3,0-0.6,0-0.9-0.1c-0.4-0.1-0.6-0.1-1-0.2
			c-0.2-0.1-0.3-0.1-0.5-0.2c-0.3-0.2-0.6-0.3-0.9-0.5c-0.2-0.2-0.4-0.3-0.6-0.5c-0.2-0.2-0.4-0.4-0.5-0.5c-0.2-0.2-0.4-0.5-0.5-0.7
			s-0.3-0.5-0.4-0.7c-0.1-0.2-0.2-0.5-0.3-0.6c-0.1-0.4-0.2-0.8-0.3-1.2C15,18.7,14.9,18.4,15,18.1z M27.7,17.4c0-0.1,0-0.2,0-0.2
			c-0.1-0.4-0.1-0.7-0.3-1.1c-0.2-0.4-0.5-0.8-0.8-1.1c-0.1-0.1-0.2-0.2-0.4-0.3c-0.2-0.1-0.5-0.3-0.6-0.5c-0.4-0.4-0.8-0.8-1.3-1.1
			c-0.4-0.2-0.8-0.5-1.3-0.6c-0.4-0.1-0.7-0.2-1.1-0.2c-0.3-0.1-0.6-0.1-0.9-0.1c-0.2,0-0.4,0-0.6,0.1c-0.2,0-0.5,0.1-0.8,0.1
			c-0.2,0.1-0.3,0.1-0.5,0.1c-0.1,0-0.2,0.1-0.4,0.1c-0.3,0.1-0.5,0.2-0.8,0.4c-0.2,0.1-0.3,0.2-0.5,0.3c-0.1,0.1-0.2,0.2-0.4,0.3
			c-0.2,0.1-0.4,0.3-0.5,0.5c-0.2,0.2-0.4,0.4-0.5,0.6c-0.2,0.2-0.4,0.5-0.5,0.8c-0.1,0.2-0.2,0.5-0.3,0.6c-0.1,0.2-0.1,0.4-0.2,0.5
			c-0.1,0.2-0.1,0.5-0.2,0.8c-0.1,0.2-0.1,0.5-0.1,0.8c0,0.2,0,0.3,0,0.5c0,0.2,0.1,0.5,0.1,0.7c0.1,0.4,0.2,0.7,0.3,1.1
			c0.1,0.3,0.2,0.6,0.4,0.9c0.2,0.4,0.5,0.8,0.8,1.1c0.2,0.2,0.4,0.4,0.6,0.5c0.2,0.2,0.5,0.4,0.7,0.5s0.5,0.3,0.7,0.4
			c0.2,0.1,0.4,0.2,0.6,0.2c0.3,0.1,0.5,0.1,0.8,0.2s0.6,0.1,0.8,0.1c0.2,0,0.3,0,0.5,0c0.3,0,0.5-0.1,0.8-0.1
			c0.4-0.1,0.7-0.2,1.1-0.3c0.3-0.1,0.6-0.2,0.8-0.4c0.3-0.2,0.6-0.4,0.9-0.6c0.2-0.2,0.4-0.4,0.5-0.5c0.1-0.1,0.3-0.2,0.5-0.4
			c0.4-0.2,0.6-0.4,0.9-0.7c0.1-0.1,0.2-0.2,0.3-0.4c0.2-0.2,0.3-0.5,0.2-0.8c0-0.2-0.1-0.4-0.2-0.4c-0.1,0-0.1-0.1-0.1-0.1
			c-0.1-0.1-0.2-0.2-0.2-0.4c0-0.1,0-0.1,0-0.2c0-0.2,0.1-0.4,0.2-0.5c0.2-0.2,0.4-0.4,0.4-0.6C27.7,17.7,27.7,17.6,27.7,17.4z"/>
		<path class="st10" d="M9.8,30.2C9.8,30.2,9.8,30.2,9.8,30.2c0-0.1,0-0.1,0-0.2c0-0.6,0-1.4,0-2c0-0.2,0-0.4,0.1-0.5
			c0.1-0.4,0.3-0.6,0.6-0.6c0.1-0.1,0.3-0.1,0.4-0.1c0.4,0,0.8,0.2,0.9,0.6c0.1,0.4,0.1,0.7,0,1.1c-0.1,0.5-0.4,0.8-0.9,0.8
			c-0.2,0-0.4,0-0.6,0c-0.1,0-0.1,0-0.1,0.1c0,0.2,0,0.5,0,0.8c0,0.1,0,0.1,0,0.2l0,0l0,0C10.1,30.2,9.9,30.2,9.8,30.2z M10.6,28.8
			c0.1,0,0.2,0,0.4,0c0.2,0,0.4-0.1,0.4-0.3c0.1-0.3,0.1-0.6,0-0.9c-0.1-0.2-0.2-0.2-0.4-0.3c-0.1,0-0.2,0-0.4,0
			c-0.2,0.1-0.3,0.1-0.4,0.3c0,0.1-0.1,0.1-0.1,0.2c-0.1,0.3,0,0.6,0,0.9c0,0.1,0,0.1,0.1,0.1C10.4,28.8,10.5,28.8,10.6,28.8z"/>
		<path class="st10" d="M17.8,28.9L17.8,28.9c-0.1,0.1-0.1,0.1-0.1,0.2c0,0-0.1,0-0.1,0.1l0,0c-0.1,0-0.1,0.1-0.2,0.1
			c-0.2,0.1-0.5,0.1-0.8,0.1c-0.4-0.1-0.6-0.3-0.8-0.6c-0.1-0.4-0.1-0.7,0-1.1c0.1-0.3,0.2-0.5,0.5-0.6c0.2-0.1,0.3-0.1,0.5-0.1
			c0.4,0,0.6,0.2,0.8,0.5c0.1,0.2,0.1,0.4,0.1,0.6c0,0.1,0,0.1,0,0.2l0,0c-0.1,0-0.2,0-0.3,0c-0.4,0-0.8,0-1.2,0
			c-0.1,0-0.1,0-0.1,0.1c0,0.3,0.2,0.6,0.5,0.6c0.2,0,0.4,0,0.5-0.2c0.1,0,0.1,0,0.1-0.1c0.1-0.1,0.1-0.1,0.1,0
			C17.6,28.7,17.7,28.8,17.8,28.9z M16.8,27.8L16.8,27.8c0.2,0,0.3,0,0.5,0c0.1,0,0.1,0,0.1-0.1v-0.1c0-0.2-0.1-0.3-0.2-0.4
			c-0.2-0.1-0.4-0.1-0.6,0c-0.2,0.1-0.3,0.3-0.3,0.5c0,0.1,0,0.1,0.1,0.1C16.5,27.8,16.7,27.8,16.8,27.8z"/>
		<path class="st13" d="M10.2,30.1c0-0.2,0-0.5,0-0.8c0-0.1,0-0.1,0.1-0.1c0.2,0,0.4,0,0.6,0c0.5,0,0.8-0.3,0.9-0.8
			c0.1-0.4,0.1-0.7,0-1.1c-0.1-0.4-0.5-0.6-0.9-0.6c-0.1,0-0.3,0-0.4,0.1c-0.4,0.1-0.5,0.3-0.6,0.6c-0.1,0.2-0.1,0.4-0.1,0.5
			c0,0.6,0,1.4,0,2c-0.1-0.1-0.1-0.1-0.1-0.2c0-0.6,0-1.2,0-1.9c0-0.2,0-0.3,0.1-0.4c0.1-0.3,0.2-0.5,0.5-0.7
			c0.1-0.1,0.2-0.1,0.4-0.1c0.2,0,0.4,0,0.5,0.1c0.2,0.1,0.4,0.2,0.5,0.5c0.1,0.1,0.1,0.2,0.2,0.3c0.1,0.1,0.1,0.1,0.1,0
			c0.1-0.1,0.1-0.1,0.1-0.2c0.1-0.2,0.2-0.4,0.5-0.5c0.1-0.1,0.1-0.1,0.2-0.1c0.2,0,0.4,0,0.6,0c0.1,0,0.2,0.1,0.3,0.1
			c0.2,0.1,0.4,0.3,0.5,0.5c0.1,0.1,0.1,0.1,0.1,0.2c0.1,0.1,0.1,0.1,0.1,0c0.1-0.1,0.1-0.2,0.1-0.4c0-0.2,0-0.5,0-0.8
			c0-0.1,0-0.2,0.1-0.2c0,0,0-0.1,0.1-0.1c0,0.8,0,1.5,0,2.3c0,0.1,0,0.1,0,0.1v0.1c0,0.3,0.2,0.5,0.4,0.6c0.1,0.1,0.3,0.1,0.5,0.1
			c-0.1,0.1-0.2,0-0.3,0c-0.3-0.1-0.5-0.3-0.6-0.6c0-0.1-0.1-0.1-0.1-0.2c-0.1-0.1-0.1-0.1-0.2,0c-0.1,0.1-0.1,0.2-0.2,0.4
			c-0.1,0.1-0.2,0.2-0.2,0.3c-0.3,0.2-0.6,0.2-0.9,0.2c-0.3-0.1-0.5-0.2-0.7-0.5c-0.1-0.1-0.1-0.2-0.2-0.2c-0.1-0.1-0.1-0.1-0.2,0
			c-0.1,0.1-0.1,0.1-0.1,0.2c-0.1,0.2-0.2,0.3-0.3,0.4c-0.1,0.1-0.2,0.2-0.4,0.2c-0.1,0.1-0.3,0.1-0.4,0.1c-0.3,0-0.4,0.1-0.4,0.4
			C10.3,29.8,10.3,30,10.2,30.1C10.3,30.1,10.2,30.1,10.2,30.1z M14.2,28c0-0.2,0-0.4-0.1-0.6c-0.1-0.3-0.3-0.5-0.6-0.6
			c-0.2-0.1-0.3-0.1-0.5-0.1c-0.5,0-0.8,0.3-0.9,0.6s-0.1,0.7,0,1.1c0.1,0.4,0.3,0.6,0.6,0.7c0.2,0.1,0.4,0.1,0.6,0
			c0.4-0.1,0.6-0.2,0.7-0.6C14.2,28.4,14.2,28.2,14.2,28z"/>
		<path class="st14" d="M10.2,30.1C10.2,30.1,10.3,30.1,10.2,30.1c0.1-0.1,0.1-0.2,0.1-0.3c0-0.3,0.2-0.4,0.4-0.4
			c0.1,0,0.3,0,0.4-0.1s0.3-0.1,0.4-0.2c0.1-0.1,0.2-0.2,0.3-0.4c0-0.1,0.1-0.1,0.1-0.2s0.1-0.1,0.2,0c0.1,0.1,0.1,0.2,0.2,0.2
			c0.1,0.3,0.4,0.5,0.7,0.5c0.4,0.1,0.6,0.1,0.9-0.2c0.1-0.1,0.2-0.2,0.2-0.3c0.1-0.1,0.1-0.2,0.2-0.4c0.1-0.1,0.1-0.1,0.2,0
			s0.1,0.1,0.1,0.2c0.1,0.3,0.3,0.5,0.6,0.6c0.1,0,0.2,0.1,0.3,0c0.1,0,0.1,0,0.2,0c0.1,0,0.1,0,0.1-0.1c0-0.1,0-0.2,0-0.4
			c0-0.1,0-0.1-0.1-0.1c-0.1,0-0.1,0-0.1,0c0,0,0.1,0,0-0.1c-0.1,0-0.1-0.1-0.2-0.1c-0.2-0.1-0.2-0.2-0.2-0.4c0-0.2,0-0.4,0-0.6
			c0-0.3,0-0.6,0-0.9c0-0.2,0-0.4,0-0.5c0-0.1,0-0.1-0.1-0.2c0-0.1,0-0.2,0-0.2c0.1,0.1,0.1,0.2,0.1,0.4c0.1,0.5,0,0.9,0,1.4
			c0,0.2,0,0.4,0,0.6s0.1,0.3,0.2,0.4c0.1,0,0.1,0.1,0.1,0.1c0.1,0,0.2-0.1,0.2-0.2s0-0.2,0-0.3c0-0.2,0-0.4,0.1-0.5
			c0.1-0.3,0.2-0.5,0.4-0.7c0.2-0.2,0.4-0.2,0.6-0.3c0.2,0,0.5,0,0.6,0.1s0.4,0.2,0.5,0.5c0.1,0.2,0.1,0.4,0.2,0.5
			c0,0.1,0,0.2-0.1,0.4c0,0,0,0-0.1,0c0-0.1,0-0.1,0-0.2c0.1-0.1,0.1-0.1,0.1-0.1c0-0.2-0.1-0.4-0.2-0.6c-0.1-0.2-0.3-0.3-0.5-0.4
			c-0.2-0.1-0.4-0.1-0.6-0.1c-0.2,0-0.4,0.1-0.5,0.2c-0.3,0.2-0.4,0.5-0.4,0.9c0,0.3,0,0.6,0.1,0.9c0,0.1,0.1,0.1,0.1,0.1
			c0.1,0.1,0.2,0.1,0.2,0.2c0.1,0.1,0.2,0.1,0.3,0.2c0.2,0.1,0.4,0.1,0.6,0.1c0.2,0,0.4-0.1,0.5-0.2l0.1-0.1l0,0c0,0,0.1,0,0.1-0.1
			c0.1-0.1,0.1-0.1,0.1-0.1c0,0.2-0.1,0.3-0.2,0.4c-0.4,0.2-0.8,0.2-1.2,0.1c-0.1-0.1-0.2-0.1-0.3-0.2C16.1,29,16,29,16,29
			s-0.1,0-0.1,0.1c-0.2,0.3-0.5,0.3-0.8,0.2c-0.2-0.1-0.4-0.2-0.5-0.5c0-0.1-0.1-0.1-0.1-0.1c-0.1-0.1-0.1-0.1-0.2,0
			s-0.1,0.1-0.1,0.1c-0.2,0.2-0.4,0.4-0.7,0.5c-0.4,0.1-0.6,0-0.9-0.2c-0.1-0.1-0.2-0.2-0.3-0.3c-0.1-0.1-0.1-0.1-0.1-0.2
			s-0.1-0.1-0.2,0c-0.1,0.1-0.1,0.1-0.1,0.2c-0.2,0.2-0.4,0.4-0.7,0.5c-0.1,0-0.2,0-0.4,0c-0.2,0.1-0.3,0.2-0.3,0.4
			c0,0.1,0,0.3-0.1,0.4L10.3,30C10.2,30.2,10.2,30.1,10.2,30.1z"/>
		<path class="st10" d="M15,25.8c0,0.1,0,0.2,0,0.2c0,0.8,0,1.5,0,2.3l0,0c0,0.2,0.1,0.3,0.2,0.4c0.1,0,0.2,0.1,0.2,0.1
			c0.1,0,0.1,0,0.1,0c0.1,0,0.1,0,0.1,0.1c0,0.1,0,0.2,0,0.4c0,0.1,0,0.1-0.1,0.1s-0.1,0-0.2,0c-0.2,0-0.3-0.1-0.5-0.1
			c-0.3-0.1-0.4-0.4-0.4-0.6v-0.1v-0.1c0-0.8,0-1.7,0-2.5C14.7,25.8,14.8,25.8,15,25.8L15,25.8z"/>
		<path class="st14" d="M14.6,26C14.5,26.1,14.5,26.1,14.6,26c-0.1,0.1-0.1,0.2-0.1,0.3c0,0.2,0,0.5,0,0.8c0,0.1,0,0.2-0.1,0.4
			c-0.1,0.1-0.1,0.1-0.1,0c-0.1-0.1-0.1-0.1-0.1-0.2c-0.1-0.2-0.3-0.4-0.5-0.5c-0.1-0.1-0.2-0.1-0.3-0.1c-0.2,0-0.4,0-0.6,0
			c-0.1,0-0.1,0.1-0.2,0.1c-0.2,0.1-0.4,0.3-0.5,0.5c-0.1,0.1-0.1,0.2-0.1,0.2c-0.1,0.1-0.1,0.1-0.1,0c-0.1-0.1-0.1-0.2-0.2-0.3
			c-0.1-0.2-0.3-0.4-0.5-0.5c-0.2-0.1-0.4-0.1-0.5-0.1c-0.1,0-0.3,0.1-0.4,0.1c-0.3,0.1-0.5,0.4-0.5,0.7c-0.1,0.1-0.1,0.3-0.1,0.4
			c0,0.6,0,1.2,0,1.9c0,0.1,0,0.2,0.1,0.2c0,0.1,0,0.1,0,0.2c-0.1-0.1-0.1-0.2-0.1-0.2c0-0.1,0-0.2,0-0.3c0-0.5,0-1,0-1.5
			c0-0.2,0-0.4,0.1-0.6c0.1-0.4,0.3-0.6,0.6-0.8c0.1-0.1,0.3-0.1,0.4-0.1c0.2,0,0.4,0,0.6,0.1c0.2,0.1,0.3,0.2,0.4,0.4
			c0.1,0.1,0.1,0.2,0.2,0.2c0.1,0.1,0.1,0.1,0.1,0c0.1-0.1,0.1-0.1,0.1-0.1c0.1-0.1,0.2-0.2,0.2-0.3l0.1-0.1c0.1-0.1,0.1-0.1,0-0.2
			s-0.1-0.1-0.1-0.1c0-0.1-0.1-0.1-0.1-0.1c0,0.1,0.1,0.1,0.1,0.1c0.1,0.1,0.1,0.1,0.2,0.1l0,0c0.1,0,0.1,0,0.2,0
			c0.1-0.1,0.1-0.1,0.2-0.1c0.1-0.1,0.2-0.1,0.3-0.1c0.1,0,0.2,0.1,0.2,0.1c0.1,0.1,0.2,0.1,0.3,0.1h0.1c0.1,0.1,0.1,0.1,0.1,0
			c0.1-0.1,0.1-0.1,0.1-0.2c0,0.1,0,0.1-0.1,0.2c0,0.1-0.1,0.1-0.1,0.1c-0.1,0.1,0,0.2,0,0.3c0.1,0.1,0.2,0.2,0.2,0.3
			c0.1,0.1,0.1,0.1,0.2-0.1c0.1-0.2,0.1-0.4,0.1-0.6c0-0.2,0-0.4,0.1-0.6C14.4,26,14.4,26,14.6,26C14.6,25.9,14.6,26,14.6,26
			L14.6,26L14.6,26L14.6,26z"/>
		<path class="st10" d="M12.6,26.5C12.6,26.5,12.6,26.5,12.6,26.5c-0.1,0.1-0.1,0.1-0.2-0.1c0-0.1-0.1-0.1-0.1-0.1
			c-0.1-0.1,0-0.1,0.1-0.1c0.2-0.1,0.5-0.3,0.8-0.4c0.1,0,0.1-0.1,0.1,0c0.2,0.2,0.5,0.3,0.8,0.4l0,0c0,0,0,0,0.1,0l0,0
			C14,26.4,14,26.4,14,26.5c-0.1,0.1-0.1,0.1-0.1,0h-0.1c-0.2-0.1-0.4-0.2-0.5-0.3h-0.1C13,26.3,12.8,26.4,12.6,26.5z"/>
		<path class="st14" d="M17.6,28.2c0.1,0,0.2,0,0.3,0v0.1c-0.1,0.1-0.2,0.1-0.4,0.1c-0.2,0-0.4-0.1-0.6,0h-0.1
			c-0.1,0-0.1,0.1-0.2,0.1c0,0.1,0.1,0.1,0.1,0.2c0.1,0.1,0.2,0.1,0.4,0.1c0.1,0,0.2-0.1,0.2-0.1c0.2-0.1,0.4,0.1,0.5,0.3
			c-0.1-0.1-0.2-0.2-0.2-0.2c-0.1-0.1-0.1-0.1-0.1,0l-0.1,0.1c-0.1,0-0.1,0-0.2,0c-0.1,0.1-0.2,0.1-0.3,0.1s-0.2-0.1-0.3-0.1
			c-0.1-0.1-0.1-0.1-0.1-0.2c0-0.1,0.1-0.2,0.2-0.2s0.2-0.1,0.2,0c0.2,0,0.4,0,0.5,0C17.5,28.2,17.6,28.2,17.6,28.2z"/>
		<path class="st14" d="M14,26.3c-0.3-0.1-0.5-0.3-0.8-0.4c-0.1-0.1-0.1,0-0.1,0c-0.2,0.1-0.5,0.3-0.8,0.4c0-0.1,0-0.1,0.1-0.2
			c0.2-0.2,0.5-0.4,0.7-0.4c0.1,0,0.1,0,0.2,0c0.2,0.1,0.4,0.2,0.6,0.4C14,26.1,14,26.2,14,26.3z"/>
		<path class="st14" d="M9.8,30.2c0.1,0,0.3,0,0.4,0c0,0.1-0.1,0.1-0.1,0.1C10,30.3,9.9,30.3,9.8,30.2z"/>
		<path class="st14" d="M15,25.8c-0.1,0-0.3,0-0.4,0c0-0.1,0.1-0.1,0.1-0.1C14.8,25.7,14.8,25.7,15,25.8z"/>
		<path class="st14" d="M14,26.3L14,26.3L14,26.3z"/>
		<path class="st13" d="M14.6,26L14.6,26L14.6,26L14.6,26z"/>
		<path class="st15" d="M23.8,29.2L23.8,29.2c-0.2,0.1-0.3,0.1-0.5,0l0,0c0-0.1,0-0.1,0-0.2c0-0.4,0-0.6,0-1c0-0.1,0-0.2,0-0.3
			c-0.1-0.2-0.2-0.4-0.5-0.5c-0.1,0-0.2,0-0.3,0c-0.2,0-0.2,0.1-0.4,0.2c-0.1,0.1-0.1,0.2-0.1,0.4c0,0.4,0,0.8,0,1.2
			c0,0.1,0,0.1,0,0.2l0,0c-0.2,0-0.3,0-0.4,0l0,0c0,0,0,0,0-0.1c0-0.4,0-0.8,0-1.2c0-0.2,0-0.4,0.1-0.5c0.1-0.3,0.3-0.5,0.6-0.6
			c0.2-0.1,0.4-0.1,0.6,0s0.4,0.1,0.5,0.3c0,0,0,0.1,0.1,0.1c0.1-0.2,0.3-0.3,0.5-0.4c0.1-0.1,0.3-0.1,0.4-0.1
			c0.4,0,0.7,0.2,0.8,0.6c0.1,0.2,0.1,0.5,0.1,0.7c0,0.4,0,0.7,0,1.1v0.1c0,0.1,0,0.1-0.1,0.1c-0.1,0-0.2,0-0.4,0c0-0.4,0-0.9,0-1.3
			c0-0.1,0-0.1,0-0.2c-0.1-0.3-0.2-0.4-0.5-0.5c-0.1,0-0.2,0-0.3,0c-0.2,0.1-0.3,0.1-0.4,0.3c0,0.1-0.1,0.2-0.1,0.2
			c0,0.4,0,0.8,0,1.2C23.8,29.1,23.8,29.1,23.8,29.2z"/>
		<path class="st15" d="M26.2,30.2L26.2,30.2c-0.1,0-0.2,0-0.4,0c-0.1,0-0.1,0-0.1-0.1c0-0.2,0-0.5,0-0.6c0-0.1,0-0.1,0-0.1
			c0-0.5,0-0.9,0-1.3c0-0.2,0-0.5,0.1-0.8c0.1-0.2,0.2-0.4,0.5-0.5c0.2-0.1,0.4-0.1,0.5-0.1c0.5,0,0.8,0.2,0.9,0.7
			c0.1,0.4,0.1,0.6,0,1c-0.1,0.5-0.4,0.8-0.9,0.8c-0.2,0-0.4,0-0.5,0c-0.1,0-0.1,0-0.1,0.1C26.2,29.7,26.2,30,26.2,30.2z M26.2,28.2
			c0,0.2,0,0.3,0,0.5c0,0.1,0,0.1,0.1,0.1c0.2,0,0.4,0,0.6,0c0.3,0,0.5-0.1,0.5-0.4c0.1-0.2,0.1-0.5,0-0.8c-0.1-0.2-0.1-0.3-0.3-0.3
			c-0.2-0.1-0.4-0.1-0.5,0c-0.1,0.1-0.2,0.1-0.2,0.2c-0.1,0.1-0.1,0.2-0.1,0.2C26.2,28,26.2,28.1,26.2,28.2z"/>
		<path class="st14" d="M21.8,29.2C21.8,29.2,21.8,29.2,21.8,29.2c-0.1-0.1-0.2-0.2-0.2-0.5c0-0.1,0-0.2,0-0.3
			c0-0.2-0.1-0.2-0.3-0.2c-0.1,0-0.1,0.1-0.2,0.1c-0.1,0.1-0.2,0-0.3,0c-0.2,0-0.3-0.1-0.5,0c-0.1,0-0.1,0.1-0.2,0.1
			c0,0.1,0.1,0.2,0.1,0.2c0.1,0,0.2,0.1,0.2,0c0.1,0,0.2-0.1,0.3-0.1c0.1-0.1,0.2-0.1,0.2,0c0.1,0.1,0.1,0.1,0.2,0.1
			c0.1,0.1,0.1,0.2,0.1,0.4c-0.1,0.1-0.2,0.2-0.4,0.3c-0.4,0.2-0.8,0.2-1.1,0c-0.2-0.1-0.4-0.3-0.5-0.5c-0.1-0.2-0.2-0.5-0.2-0.7
			c0-0.3,0.1-0.6,0.2-0.8c0.1-0.2,0.3-0.4,0.5-0.5s0.5-0.1,0.8-0.1c0.3,0.1,0.5,0.2,0.7,0.5c0,0.1,0.1,0.1,0.1,0.1
			c0.1,0.1,0.2,0.1,0.2,0c0.1-0.1,0.1-0.2,0.2-0.4c0.1-0.2,0.3-0.2,0.5-0.3c0.2-0.1,0.5-0.1,0.8,0.1c0.1,0,0.2,0.1,0.2,0.1
			c0.1,0.1,0.3,0,0.4-0.1c0.2-0.1,0.4-0.1,0.6-0.1c0.3,0,0.6,0.1,0.8,0.3c0.1,0.1,0.2,0.2,0.2,0.3c0,0.1,0.1,0.1,0.1,0.2
			c0.1,0.1,0.1,0.1,0.1,0c0.1-0.1,0.1-0.2,0.2-0.2c0.2-0.3,0.4-0.5,0.8-0.5c0.3-0.1,0.5,0,0.8,0.1c0.1,0.1,0.2,0.1,0.2,0.2
			c0.1,0.1,0.1,0.1,0.2,0.1c0.1,0.1,0.2,0,0.2-0.1s0-0.1,0-0.2c0-0.2,0-0.4,0-0.5c0-0.1,0-0.2,0.1-0.4c0.1-0.2,0.4-0.3,0.5-0.1l0,0
			c-0.1,0-0.2,0-0.4,0c-0.1,0-0.1,0-0.1,0.1s0,0.1,0,0.1C28,26,28,26.1,28,26.1c0,0.2,0,0.5,0,0.7c0,0.1,0,0.2-0.1,0.4
			c0,0.1-0.1,0.1-0.1,0.1c-0.1,0-0.1,0-0.1-0.1c-0.1-0.1-0.1-0.2-0.2-0.2c-0.1-0.2-0.2-0.3-0.4-0.4c-0.2-0.1-0.4-0.1-0.6-0.1
			c-0.4,0.1-0.6,0.3-0.8,0.6c-0.1,0.1-0.1,0.2-0.1,0.3c-0.1,0.1-0.1,0.1-0.2,0c0,0,0,0,0-0.1c-0.1-0.1-0.1-0.2-0.1-0.2
			c-0.1-0.2-0.2-0.4-0.4-0.5c0.1,0.1-0.1,0.1-0.3,0.1c-0.2,0-0.4,0-0.6,0.1c-0.2,0.1-0.4,0.1-0.6,0s-0.5-0.1-0.7-0.1
			c-0.2,0-0.4,0.1-0.5,0.2c-0.1,0.1-0.2,0.2-0.2,0.2c-0.1,0.2-0.1,0.4-0.2,0.5c-0.1,0.1-0.1,0.2,0,0.2c0,0.1,0.1,0.1,0.1,0.2
			c0.1,0.2,0.1,0.4,0.1,0.6c0,0.1,0,0.2,0.1,0.3C21.8,29.1,21.8,29.1,21.8,29.2z M21.2,29.1L21.2,29.1
			C21.2,29.1,21.3,29.1,21.2,29.1L21.2,29.1C21.3,29,21.3,29,21.2,29.1L21.2,29.1C21.3,29,21.3,29,21.2,29.1L21.2,29.1L21.2,29.1
			L21.2,29.1c0.1-0.1,0.1-0.1,0.1-0.1s0.1-0.1,0-0.1c-0.1-0.1-0.1-0.1-0.2-0.2s-0.1-0.1-0.1,0c-0.1,0.1-0.2,0.1-0.4,0.1
			c-0.2,0-0.4,0-0.5-0.1s-0.1-0.3,0.1-0.4c0.1,0,0.1,0,0.2,0c0.4,0,0.7,0,1-0.1l0,0c0-0.1,0.1-0.2,0.1-0.2c0.1-0.1,0.1-0.1,0-0.2
			c0-0.1-0.1-0.1-0.1-0.1c-0.1-0.2-0.1-0.4-0.2-0.5c-0.1-0.1-0.2-0.2-0.4-0.3s-0.4-0.1-0.5-0.1c-0.2,0-0.4,0.1-0.5,0.2
			c-0.2,0.2-0.4,0.4-0.4,0.6c-0.1,0.4-0.1,0.7,0.1,1.1c0.1,0.2,0.2,0.4,0.5,0.5c0.2,0.1,0.5,0.1,0.8,0.1c0.1,0,0.2-0.1,0.4-0.1
			C21.1,29.2,21.1,29.1,21.2,29.1L21.2,29.1L21.2,29.1z"/>
		<path class="st13" d="M21.8,29.2c0-0.1,0-0.1,0-0.2c-0.1-0.1-0.1-0.2-0.1-0.3c0-0.2,0-0.4-0.1-0.6c0-0.1,0-0.1-0.1-0.2
			c-0.1-0.1,0-0.2,0-0.2c0.1-0.2,0.2-0.4,0.2-0.5c0.1-0.1,0.1-0.2,0.2-0.2c0.2-0.1,0.4-0.2,0.5-0.2c0.2,0,0.5,0,0.7,0.1
			c0.2,0.1,0.4,0.1,0.6,0c0.2-0.1,0.4-0.1,0.6-0.1c0.2,0,0.4,0.1,0.5,0.1c0.2,0.1,0.3,0.3,0.4,0.5c0.1,0.1,0.1,0.2,0.1,0.2
			c0,0,0,0,0,0.1c0.1,0.1,0.1,0.1,0.2,0s0.1-0.2,0.1-0.3c0.2-0.4,0.4-0.6,0.8-0.6c0.2,0,0.4,0,0.6,0.1c0.2,0.1,0.3,0.2,0.4,0.4
			c0.1,0.1,0.1,0.2,0.2,0.2c0,0.1,0.1,0.1,0.1,0.1c0.1,0,0.1-0.1,0.1-0.1c0.1-0.1,0.1-0.2,0.1-0.4c0-0.2,0-0.5,0-0.7
			c0-0.1,0-0.2,0.1-0.3c0,0.1,0,0.1,0,0.2c0,0.7,0,1.4,0,2.1c0,0.1,0,0.2,0,0.3c0.1,0.2,0.2,0.5,0.4,0.6c0.2,0.1,0.4,0.1,0.6,0.1
			c0.1,0,0.1,0,0.1-0.1c0,0,0,0,0,0.1s-0.1,0.1-0.1,0.1c-0.1,0-0.1,0-0.2,0c-0.1,0-0.1,0-0.1,0c-0.3-0.1-0.5-0.2-0.7-0.4
			c-0.1-0.1-0.1-0.1-0.1-0.2c-0.1-0.1-0.2-0.2-0.2,0c-0.1,0.1-0.1,0.2-0.1,0.2c-0.2,0.2-0.4,0.4-0.7,0.5c-0.1,0-0.3,0-0.4,0.1
			c-0.2,0.1-0.4,0.2-0.4,0.4c0,0.1,0,0.2-0.1,0.3c0,0.1,0,0.1,0,0.2l0,0c0-0.3,0-0.6,0-0.9c0-0.1,0-0.1,0.1-0.1c0.2,0,0.4,0,0.5,0
			c0.5,0,0.8-0.2,0.9-0.8c0.1-0.4,0.1-0.6,0-1c-0.1-0.4-0.4-0.7-0.9-0.7c-0.2,0-0.4,0-0.5,0.1C26.2,27,26,27.1,26,27.4
			c-0.1,0.2-0.1,0.5-0.1,0.8c0,0.5,0,0.9,0,1.3c0,0.1,0,0.1,0,0.1c0,0.2,0,0.3,0,0.5c-0.1-0.2,0-0.4-0.1-0.5c0-0.1-0.1-0.2-0.1-0.4
			c0-0.1-0.1-0.1-0.1-0.1c-0.1,0-0.1,0.1-0.1,0.1c0-0.4,0-0.7,0-1.1c0-0.2,0-0.5-0.1-0.7c-0.1-0.4-0.4-0.6-0.8-0.6
			c-0.1,0-0.3,0-0.4,0.1c-0.2,0.1-0.4,0.2-0.5,0.4c0,0-0.1,0-0.1-0.1c-0.1-0.2-0.3-0.2-0.5-0.3s-0.4-0.1-0.6,0
			c-0.4,0.1-0.5,0.3-0.6,0.6c-0.1,0.2-0.1,0.4-0.1,0.5C21.8,28.4,21.8,28.8,21.8,29.2z"/>
		<path class="st15" d="M32.2,26.8L32.2,26.8c0,0.8,0,1.6,0,2.4c0,0.1,0,0.1,0,0.1c-0.2,0-0.3,0-0.5,0l0,0c0-0.1,0-0.1,0-0.1
			c0-0.1,0-0.1,0-0.1c0-0.5,0-1,0-1.5c0-0.2,0-0.4,0-0.5c0-0.1,0-0.1,0-0.2l0,0C32,26.8,32.1,26.8,32.2,26.8z"/>
		<path class="st14" d="M31.8,26.8c0,0.1,0,0.1,0,0.2c-0.1,0.1-0.1,0.1-0.1,0.2s0,0.2-0.1,0.2c-0.1,0.1-0.1,0.1-0.1,0
			c-0.1-0.1-0.1-0.1-0.1-0.2c-0.1-0.1-0.2-0.3-0.4-0.4c-0.3-0.2-0.6-0.2-0.9-0.1c-0.3,0.1-0.5,0.2-0.6,0.5c-0.2,0.3-0.2,0.6-0.1,1
			c0,0.1,0,0.3,0,0.4c0,0.1-0.1,0.1-0.1,0.1c-0.1,0-0.1,0-0.1-0.1c-0.3-0.1-0.5-0.3-0.5-0.6c0-0.6,0-1.2,0-1.8c0-0.1,0-0.2-0.1-0.4
			c0-0.1,0-0.1,0-0.1l0,0c0.1,0.1,0.1,0.2,0.1,0.4c0.1,0.6,0,1.2,0,1.8c0,0.1,0,0.1,0,0.2c0,0.2,0.1,0.4,0.3,0.4
			c0.1,0.1,0.2,0,0.2-0.1s0-0.2,0-0.3c0-0.2,0-0.4,0-0.6s0.1-0.3,0.2-0.4c0.1-0.2,0.3-0.4,0.5-0.4c0.3-0.1,0.6-0.1,0.9-0.1
			c0.2,0.1,0.3,0.1,0.4,0.2c0.1,0.1,0.1,0.1,0.2,0.2c0.1,0.1,0.2,0.1,0.2-0.1C31.7,27,31.7,27,31.8,26.8
			C31.8,26.8,31.8,26.8,31.8,26.8z"/>
		<path class="st14" d="M23.8,29.2c0-0.1,0-0.1,0-0.2c0-0.1,0.1-0.1,0.1-0.2c0-0.3,0-0.6,0-0.8c0-0.1,0-0.2,0.1-0.3
			c0.1-0.2,0.1-0.3,0.3-0.4c0.3-0.1,0.5,0,0.6,0.3C25,27.8,25,28,25,28.1c0,0.2,0,0.5,0,0.7c0,0.1,0,0.1,0,0.2s0,0.2,0,0.2
			c-0.1,0-0.1-0.1-0.1-0.1c0-0.1,0-0.3,0-0.4c0-0.2,0-0.5,0-0.7c0-0.1,0-0.2-0.1-0.4c-0.1-0.1-0.2-0.2-0.4-0.2
			c-0.2,0-0.3,0.1-0.4,0.2S24,28,24,28.1c0,0.2,0,0.5,0,0.7c0,0.1,0,0.2-0.1,0.4C23.9,29.2,23.9,29.2,23.8,29.2z"/>
		<path class="st14" d="M26.2,30.2c0-0.1,0-0.1,0-0.2c0.1-0.1,0.1-0.2,0.1-0.3c0-0.2,0.1-0.4,0.4-0.4c0.1,0,0.3,0,0.4-0.1
			c0.3-0.1,0.5-0.2,0.7-0.5c0.1-0.1,0.1-0.2,0.1-0.2c0.1-0.1,0.2-0.1,0.2,0c0.1,0.1,0.1,0.1,0.1,0.2c0.2,0.2,0.4,0.4,0.7,0.4
			c0.1,0,0.1,0,0.1,0c0.1,0,0.1,0,0.2,0c0,0.1-0.1,0.1-0.1,0.1c-0.2,0.1-0.5,0-0.6-0.1c-0.1-0.1-0.2-0.2-0.4-0.4l-0.1-0.1
			c-0.1-0.1-0.1-0.1-0.2,0s-0.1,0.1-0.1,0.2c-0.1,0.2-0.3,0.3-0.5,0.4c-0.1,0.1-0.3,0.1-0.4,0.1c-0.2,0-0.3,0.1-0.4,0.2
			c-0.1,0.1,0,0.2-0.1,0.3c0,0.1-0.1,0.2-0.1,0.2C26.3,30.2,26.3,30.2,26.2,30.2z"/>
		<path class="st14" d="M23.4,29c0,0.1,0,0.1,0,0.2c-0.1-0.1-0.1-0.2-0.1-0.3c-0.1-0.3,0-0.6,0-0.9c0-0.1,0-0.2-0.1-0.3
			c-0.1-0.2-0.2-0.3-0.4-0.3s-0.4,0.1-0.4,0.3c-0.1,0.1-0.1,0.2-0.1,0.4c0,0.2,0,0.5,0,0.7c0,0.1,0,0.3-0.1,0.4
			c0,0.1-0.1,0.1-0.1,0.1c0-0.1,0-0.1,0-0.2c0.1-0.1,0.1-0.2,0.1-0.2c0-0.2,0-0.5,0-0.8c0-0.1,0-0.3,0.1-0.4
			c0.1-0.2,0.2-0.3,0.4-0.3c0.2,0,0.4,0.1,0.5,0.2c0.1,0.1,0.1,0.3,0.1,0.4c0,0.2,0,0.5,0,0.8C23.3,28.8,23.3,29,23.4,29z"/>
		<path class="st14" d="M31.8,29.1c0,0.1,0,0.1,0,0.1c-0.1-0.1-0.1-0.1-0.1-0.2c-0.1-0.2-0.1-0.2-0.3-0.1c-0.1,0.1-0.1,0.1-0.2,0.2
			c-0.2,0.1-0.4,0.2-0.6,0.2c-0.3,0-0.6-0.1-0.9-0.2c-0.1,0-0.1,0-0.1,0s-0.1,0-0.2,0.1c0,0-0.1,0.1-0.1,0.1c0,0,0,0,0-0.1v-0.1
			c0-0.1,0.1-0.1,0.1-0.2s0.1-0.1,0.1,0c0.1,0.1,0.1,0.1,0.2,0.1c0.1,0.1,0.1,0.1,0.2,0.1c0.2,0.1,0.5,0.2,0.8,0.1
			c0.2-0.1,0.5-0.2,0.6-0.4c0.1-0.1,0.1-0.2,0.2-0.2c0.1-0.1,0.1-0.1,0.1-0.1c0.1,0,0.1,0.1,0.1,0.1l0,0
			C31.7,28.9,31.7,29,31.8,29.1z"/>
		<path class="st13" d="M25,29.2c0-0.1,0-0.2,0-0.2c0-0.1,0-0.1,0-0.2c0-0.2,0-0.5,0-0.7c0-0.1,0-0.3-0.1-0.4
			c-0.1-0.3-0.4-0.4-0.6-0.3c-0.2,0.1-0.2,0.2-0.3,0.4C24,27.8,24,27.9,24,28c0,0.3,0,0.6,0,0.8c0,0.1,0,0.1-0.1,0.2
			c0-0.4,0-0.8,0-1.2c0-0.1,0-0.2,0.1-0.2c0.1-0.2,0.2-0.3,0.4-0.3c0.1,0,0.2,0,0.3,0c0.3,0.1,0.4,0.2,0.5,0.5c0,0.1,0,0.1,0,0.2
			C25,28.4,25,28.8,25,29.2C25,29.2,25,29.2,25,29.2C25,29.2,25,29.2,25,29.2z"/>
		<path class="st13" d="M32.2,29.1c0-0.8,0-1.5,0-2.3c0.1,0.1,0.1,0.2,0.1,0.3c0,0.6,0,1.1,0,1.7C32.3,29,32.3,29.1,32.2,29.1z"/>
		<path class="st15" d="M32.2,25.8L32.2,25.8c0,0.2,0,0.3,0,0.5l0,0c-0.2,0-0.3,0-0.4,0l0,0c0-0.2,0-0.3,0-0.5l0,0
			C32,25.8,32.1,25.8,32.2,25.8z"/>
		<path class="st14" d="M25,29.2L25,29.2c0.1,0,0.3,0,0.4,0c0.1,0,0.1,0,0.1-0.1v-0.1c0.1-0.1,0.1-0.1,0.1-0.1c0.1,0,0.1,0,0.1,0.1
			c0.1,0.1,0.1,0.2,0.1,0.4s0,0.4,0.1,0.5c0-0.2,0-0.3,0-0.5c0,0.2,0,0.5,0,0.6c0,0.1,0,0.1,0.1,0.1c0.1,0,0.2,0,0.4,0
			c-0.1,0.1-0.2,0.1-0.3,0.1c-0.1,0-0.1,0-0.1-0.1c-0.1,0-0.1-0.1-0.1-0.1c0-0.1-0.1-0.2-0.1-0.2c0-0.1,0-0.2-0.1-0.4
			c0-0.1,0-0.1-0.1-0.2c-0.1-0.1-0.1-0.1-0.2-0.1s-0.2,0.1-0.3,0C25.1,29.3,25.1,29.3,25,29.2z"/>
		<path class="st14" d="M31.8,25.8c0,0.2,0,0.3,0,0.5C31.7,26.2,31.7,25.9,31.8,25.8z"/>
		<path class="st14" d="M32.2,26.2c0-0.2,0-0.3,0-0.4c0.1,0,0.1,0,0.1,0.1C32.3,26,32.4,26.1,32.2,26.2
			C32.3,26.2,32.2,26.2,32.2,26.2z"/>
		<path class="st14" d="M31.8,26.3c0.2,0,0.3,0,0.4,0C32.1,26.4,32,26.4,31.8,26.3C31.8,26.3,31.8,26.3,31.8,26.3z"/>
		<path class="st14" d="M32.2,25.8c-0.2,0-0.3,0-0.5,0C31.9,25.7,32.1,25.7,32.2,25.8z"/>
		<path class="st14" d="M32.2,26.8c-0.2,0-0.3,0-0.5,0C32,26.7,32.1,26.7,32.2,26.8L32.2,26.8z"/>
		<path class="st14" d="M21.8,29.2c0.2,0,0.3,0,0.4,0C22.1,29.4,22,29.3,21.8,29.2C21.8,29.3,21.8,29.3,21.8,29.2z"/>
		<path class="st14" d="M31.8,29.2c0.2,0,0.3,0,0.5,0C32.1,29.4,31.9,29.4,31.8,29.2z"/>
		<path class="st14" d="M23.4,29.2c0.2,0,0.3,0,0.5,0C23.7,29.3,23.5,29.3,23.4,29.2z"/>
		<path class="st14" d="M27.7,17.4c0,0.2,0,0.4-0.1,0.5c-0.1,0.2-0.2,0.5-0.4,0.6S27,18.7,27,18.9c0,0.1,0,0.1,0,0.2
			c0,0.2,0.1,0.3,0.2,0.4c0,0,0.1,0.1,0.1,0.1c0.2,0.1,0.2,0.2,0.2,0.4c0,0.3-0.1,0.5-0.2,0.8c-0.1,0.1-0.2,0.3-0.3,0.4
			c-0.3,0.3-0.6,0.5-0.9,0.7c-0.2,0.1-0.3,0.2-0.5,0.4s-0.4,0.4-0.5,0.5c-0.3,0.2-0.6,0.5-0.9,0.6s-0.5,0.3-0.8,0.4
			C23,23.8,22.7,24,22.3,24c-0.2,0.1-0.5,0.1-0.8,0.1c-0.2,0-0.3,0-0.5,0c-0.3,0-0.6-0.1-0.8-0.1c-0.3-0.1-0.5-0.1-0.8-0.2
			c-0.2-0.1-0.4-0.2-0.6-0.2c-0.2-0.1-0.5-0.2-0.7-0.4c-0.2-0.2-0.5-0.3-0.7-0.5c-0.2-0.2-0.4-0.4-0.6-0.5c-0.3-0.4-0.6-0.7-0.8-1.1
			c-0.2-0.3-0.3-0.6-0.4-0.9s-0.2-0.7-0.3-1.1c-0.1-0.2-0.1-0.5-0.1-0.7c0-0.2,0-0.3,0-0.5c0-0.2,0.1-0.5,0.1-0.8
			c0.1-0.2,0.1-0.5,0.2-0.8c0.1-0.2,0.1-0.4,0.2-0.5c0.1-0.2,0.2-0.5,0.3-0.6c0.2-0.3,0.4-0.5,0.5-0.8c0.2-0.2,0.3-0.4,0.5-0.6
			c0.2-0.2,0.3-0.3,0.5-0.5c0.1-0.1,0.2-0.2,0.4-0.3c0.2-0.1,0.3-0.2,0.5-0.3c0.2-0.2,0.5-0.3,0.8-0.4c0.1-0.1,0.2-0.1,0.4-0.1
			c0.2-0.1,0.3-0.1,0.5-0.1c0.2-0.1,0.5-0.1,0.8-0.1c0.2,0,0.4-0.1,0.6-0.1c0.3,0,0.6,0,0.9,0.1c0.4,0.1,0.7,0.1,1.1,0.2
			c0.5,0.2,0.9,0.4,1.3,0.6c0.5,0.3,0.9,0.7,1.3,1.1c0.2,0.2,0.4,0.4,0.6,0.5c0.2,0.1,0.3,0.2,0.4,0.3c0.4,0.3,0.6,0.7,0.8,1.1
			c0.1,0.4,0.2,0.6,0.3,1.1C27.7,17.3,27.7,17.3,27.7,17.4z M27.4,18.2L27.4,18.2C27.4,18.2,27.4,18.1,27.4,18.2
			c0.1-0.1,0.1-0.1,0.1-0.1c0.1-0.1,0.1-0.2,0.1-0.3c0.1-0.2,0.1-0.5,0-0.8c-0.1-0.2-0.1-0.5-0.2-0.6c-0.1-0.2-0.2-0.4-0.3-0.6
			c-0.1-0.1-0.1-0.2-0.2-0.2c-0.1-0.2-0.3-0.4-0.4-0.5c-0.2-0.1-0.4-0.2-0.5-0.4c-0.2-0.1-0.4-0.3-0.5-0.5c-0.2-0.3-0.5-0.5-0.8-0.8
			s-0.6-0.5-1-0.6c-0.3-0.1-0.6-0.2-0.9-0.4c-0.5-0.2-1.1-0.2-1.6-0.3c-0.3,0-0.6,0-0.9,0c-0.4,0.1-0.7,0.1-1.1,0.2
			c-0.5,0.1-1,0.4-1.5,0.6c-0.3,0.2-0.6,0.4-0.8,0.6c-0.3,0.2-0.5,0.5-0.8,0.8c-0.2,0.2-0.4,0.5-0.5,0.8c-0.2,0.3-0.3,0.6-0.4,0.9
			c-0.2,0.6-0.3,1.2-0.3,1.9c0,0.2,0,0.5,0.1,0.8c0.1,0.3,0.1,0.6,0.2,0.9c0.1,0.3,0.2,0.6,0.3,0.8s0.2,0.4,0.4,0.6
			c0.2,0.3,0.4,0.5,0.6,0.8c0.2,0.2,0.4,0.5,0.7,0.6c0.2,0.2,0.4,0.4,0.6,0.5c0.2,0.2,0.5,0.3,0.8,0.4c0.2,0.1,0.5,0.2,0.7,0.2
			c0.2,0.1,0.5,0.1,0.8,0.2c0.2,0.1,0.5,0.1,0.7,0.1c0.2,0,0.4,0,0.6,0c0.2,0,0.4-0.1,0.6-0.1c0.2-0.1,0.4-0.1,0.6-0.1
			c0.2-0.1,0.5-0.2,0.8-0.3c0.3-0.1,0.5-0.2,0.8-0.4c0.4-0.2,0.6-0.5,0.9-0.8c0.1-0.1,0.2-0.3,0.4-0.4c0.1-0.1,0.2-0.1,0.2-0.2
			c0.2-0.1,0.4-0.2,0.5-0.2c0.2-0.2,0.5-0.4,0.6-0.5c0.2-0.2,0.4-0.5,0.5-0.7c0.1-0.1,0.1-0.2,0-0.4l0,0V20
			c-0.1-0.1-0.1-0.2-0.2-0.2c0-0.1-0.1-0.1-0.1-0.1c-0.1-0.1-0.2-0.2-0.2-0.4c0-0.1,0-0.2,0-0.2c0-0.2,0.1-0.4,0.2-0.5
			c0.1-0.1,0.1-0.1,0.1-0.1l0.1-0.1l0,0C27.3,18.3,27.3,18.3,27.4,18.2C27.3,18.3,27.4,18.2,27.4,18.2L27.4,18.2L27.4,18.2z"/>
		<path class="st13" d="M10.6,28.8c-0.1,0-0.2,0-0.4,0c-0.1,0-0.1,0-0.1-0.1c0-0.3,0-0.6,0-0.9c0-0.1,0-0.1,0.1-0.2
			c0.1-0.2,0.2-0.2,0.4-0.3c0.1,0,0.2,0,0.4,0c0.2,0.1,0.3,0.1,0.4,0.3c0.1,0.3,0.1,0.6,0,0.9c-0.1,0.2-0.2,0.3-0.4,0.3
			C10.9,28.8,10.7,28.8,10.6,28.8z M11.3,28c0-0.1,0-0.1,0-0.2s0-0.1-0.1-0.1c-0.1-0.2-0.3-0.4-0.5-0.4c-0.2,0-0.4,0.1-0.5,0.4
			c-0.1,0.2-0.1,0.5-0.1,0.7c0,0.2,0.1,0.2,0.3,0.3c0.1,0,0.1,0,0.2,0c0.2,0,0.5-0.2,0.5-0.4C11.3,28.2,11.3,28.1,11.3,28z"/>
		<path class="st13" d="M17.6,29.1C17.6,29.1,17.6,29.1,17.6,29.1c-0.2,0.2-0.4,0.2-0.5,0.2c-0.2,0-0.4,0-0.6-0.1
			c-0.1-0.1-0.2-0.1-0.3-0.2S16,29,15.9,28.9c-0.1-0.1-0.1-0.1-0.1-0.1c0-0.3-0.1-0.6-0.1-0.9c0.1-0.4,0.2-0.6,0.4-0.9
			c0.1-0.1,0.3-0.2,0.5-0.2c0.2-0.1,0.4,0,0.6,0.1c0.2,0.1,0.4,0.2,0.5,0.4s0.2,0.4,0.2,0.6c0,0.1,0,0.1-0.1,0.1
			c0-0.2,0-0.5-0.1-0.6c-0.2-0.4-0.5-0.5-0.8-0.5c-0.2,0-0.4,0-0.5,0.1c-0.3,0.1-0.5,0.4-0.5,0.6c-0.1,0.4-0.1,0.7,0,1.1
			c0.1,0.4,0.4,0.6,0.8,0.6c0.2,0.1,0.5,0,0.8-0.1C17.5,29.1,17.6,29.1,17.6,29.1z"/>
		<path class="st13" d="M16.8,27.8c-0.2,0-0.3,0-0.5,0c-0.1,0-0.1,0-0.1-0.1c0-0.2,0.1-0.4,0.3-0.5c0.2-0.1,0.4-0.1,0.6,0
			c0.2,0.1,0.2,0.2,0.2,0.4v0.1c0,0.1,0,0.1-0.1,0.1C17.1,27.8,17,27.8,16.8,27.8L16.8,27.8z M16.8,27.8c0.1,0,0.1,0,0.1,0
			c0.2-0.1,0.3-0.2,0.2-0.4c-0.1-0.1-0.2-0.2-0.3-0.2s-0.2,0.1-0.3,0.2c-0.1,0.1,0,0.2,0.1,0.2C16.7,27.8,16.7,27.8,16.8,27.8z"/>
		<path class="st13" d="M17.6,28.2c0,0.1-0.1,0.1-0.1,0.1c-0.2,0-0.4,0-0.5,0c-0.1,0-0.2,0-0.2,0c-0.1,0-0.2,0.1-0.2,0.2
			s0,0.2,0.1,0.2c0.1,0.1,0.2,0.1,0.3,0.1s0.2,0,0.3-0.1c0.1,0,0.1-0.1,0.2,0c-0.2,0.1-0.4,0.2-0.5,0.2c-0.4-0.1-0.5-0.3-0.5-0.6
			c0-0.1,0-0.1,0.1-0.1C16.8,28.2,17.2,28.2,17.6,28.2z"/>
		<path class="st13" d="M17.7,29.1C17.7,29.1,17.6,29.1,17.7,29.1C17.6,29.1,17.7,29.1,17.7,29.1z"/>
		<path class="st10" d="M14.2,28c0,0.2,0,0.4-0.1,0.6c-0.1,0.4-0.4,0.5-0.7,0.6c-0.2,0.1-0.4,0-0.6,0c-0.4-0.1-0.6-0.4-0.6-0.7
			c-0.1-0.4-0.1-0.7,0-1.1c0.1-0.4,0.4-0.6,0.9-0.6c0.2,0,0.3,0,0.4,0.1c0.3,0.1,0.5,0.3,0.6,0.6C14.2,27.6,14.2,27.8,14.2,28z
			 M12.6,28.2L12.6,28.2C12.6,28.2,12.6,28.2,12.6,28.2c0,0.4,0.2,0.5,0.5,0.6c0.1,0,0.1,0,0.2,0c0.2-0.1,0.3-0.1,0.4-0.3
			c0.1-0.3,0.1-0.5,0-0.8c-0.1-0.1-0.1-0.2-0.2-0.3c-0.2-0.1-0.4-0.1-0.5,0c-0.2,0.1-0.3,0.3-0.3,0.5v0.1
			C12.6,28,12.6,28.1,12.6,28.2C12.6,28.2,12.6,28.2,12.6,28.2L12.6,28.2z"/>
		<path class="st13" d="M15.5,28.8c-0.1,0-0.2,0-0.2-0.1c-0.2-0.1-0.2-0.2-0.2-0.4l0,0c0-0.8,0-1.5,0-2.3c0.1,0.1,0.1,0.1,0.1,0.2
			c0,0.2,0,0.4,0,0.5c0,0.3,0,0.6,0,0.9c0,0.2,0,0.4,0,0.6c0,0.2,0.1,0.4,0.2,0.4C15.4,28.7,15.4,28.7,15.5,28.8
			C15.5,28.7,15.5,28.8,15.5,28.8z"/>
		<path class="st13" d="M12.6,26.5c0.2-0.1,0.4-0.2,0.5-0.3h0.1c0.2,0.1,0.4,0.2,0.5,0.3c-0.1,0.1-0.2,0-0.3-0.1
			c-0.1-0.1-0.2-0.1-0.2-0.1c-0.1,0-0.2,0-0.3,0.1c-0.1,0.1-0.1,0.1-0.2,0.1C12.7,26.5,12.7,26.5,12.6,26.5z"/>
		<path class="st13" d="M23.4,29c-0.1-0.1-0.1-0.2-0.1-0.2c0-0.2,0-0.5,0-0.8c0-0.1,0-0.3-0.1-0.4c-0.1-0.2-0.2-0.2-0.5-0.2
			c-0.2,0-0.3,0.1-0.4,0.3c-0.1,0.1-0.1,0.2-0.1,0.4c0,0.2,0,0.5,0,0.8c0,0.1,0,0.2-0.1,0.2c0-0.4,0-0.8,0-1.2c0-0.1,0-0.2,0.1-0.4
			c0.1-0.1,0.2-0.2,0.4-0.2c0.1,0,0.2,0,0.3,0c0.3,0.1,0.4,0.2,0.5,0.5c0,0.1,0,0.2,0,0.3C23.4,28.4,23.4,28.7,23.4,29z"/>
		<path class="st13" d="M26.2,28.2c0-0.1,0-0.3,0-0.5c0-0.1,0-0.2,0.1-0.2c0.1-0.1,0.1-0.2,0.2-0.2c0.2-0.1,0.4-0.1,0.5,0
			c0.2,0.1,0.2,0.2,0.3,0.3c0.1,0.2,0.1,0.5,0,0.8c-0.1,0.2-0.2,0.4-0.5,0.4c-0.2,0-0.4,0-0.6,0c-0.1,0-0.1,0-0.1-0.1
			C26.2,28.5,26.2,28.4,26.2,28.2z M26.3,28.1c0,0.1,0,0.1,0,0.2c0,0.2,0.1,0.3,0.3,0.4c0.1,0,0.1,0,0.2,0c0.3,0,0.5-0.2,0.6-0.5
			c0-0.1,0-0.2,0-0.4c0-0.1-0.1-0.2-0.1-0.4c-0.1-0.2-0.3-0.2-0.5-0.2c-0.2,0.1-0.3,0.1-0.4,0.3C26.3,27.8,26.3,28,26.3,28.1z"/>
		<path class="st15" d="M21.4,28.2L21.4,28.2c-0.1,0-0.1,0-0.1,0c-0.5,0-0.9,0-1.4,0c-0.1,0-0.1,0-0.1,0.1c0,0.2,0.1,0.4,0.4,0.5
			c0.3,0.1,0.5,0.1,0.8-0.1c0.1-0.1,0.1-0.1,0.1,0c0.1,0.1,0.1,0.1,0.2,0.2s0.1,0.1,0,0.1c0,0-0.1,0-0.1,0.1l0,0l0,0l0,0l0,0l0,0
			c0,0,0,0-0.1,0l0,0l0,0l0,0l0,0l0,0c-0.1,0.1-0.1,0.1-0.2,0.1c-0.2,0.1-0.5,0.1-0.8,0.1c-0.4-0.1-0.6-0.2-0.8-0.6
			c-0.1-0.4-0.1-0.7-0.1-1.1c0.1-0.3,0.2-0.5,0.4-0.6c0.2-0.1,0.4-0.2,0.6-0.2c0.2,0,0.5,0.1,0.6,0.2c0.2,0.2,0.2,0.4,0.3,0.6
			C21.4,27.8,21.4,28,21.4,28.2z M20.4,27.8c0.2,0,0.4,0,0.5,0c0.1,0,0.1,0,0.1-0.1s0-0.2-0.1-0.2c-0.1-0.4-0.5-0.4-0.8-0.3
			c-0.2,0.1-0.4,0.4-0.3,0.5c0,0.1,0.1,0.1,0.1,0.1C20.1,27.8,20.3,27.8,20.4,27.8z"/>
		<path class="st15" d="M29.3,29.1C29.3,29.1,29.3,29.2,29.3,29.1c0,0.1,0,0.1-0.1,0.1c-0.2,0-0.4-0.1-0.6-0.1
			c-0.2-0.1-0.4-0.3-0.4-0.6c0-0.1,0-0.2,0-0.3c0-0.7,0-1.4,0-2.1c0-0.1,0-0.1,0-0.2c0-0.1,0-0.1,0-0.1c0-0.1,0-0.1,0.1-0.1
			c0.1,0,0.2,0,0.4,0c0,0.1,0,0.1,0,0.1c0,0.1,0,0.1,0,0.1c0,0.6,0,1.2,0,1.8c0,0.2,0,0.4,0,0.5c0,0.2,0.1,0.2,0.2,0.3
			c0.1,0.1,0.2,0.1,0.4,0.1c0.1,0,0.1,0,0.1,0.1C29.3,29,29.3,29,29.3,29.1z"/>
		<path class="st13" d="M21.4,28.2c0-0.2,0-0.4-0.1-0.6c-0.1-0.2-0.1-0.4-0.3-0.6s-0.4-0.2-0.6-0.2s-0.5,0-0.6,0.2
			c-0.2,0.2-0.4,0.4-0.4,0.6c-0.1,0.4-0.1,0.7,0.1,1.1c0.1,0.4,0.4,0.6,0.8,0.6c0.2,0.1,0.5,0,0.8-0.1c0.1-0.1,0.1-0.1,0.2-0.1
			c0,0.1-0.1,0.1-0.2,0.2c-0.1,0.1-0.2,0.1-0.4,0.1c-0.3,0-0.5,0-0.8-0.1c-0.2-0.1-0.4-0.3-0.5-0.5c-0.1-0.4-0.2-0.7-0.1-1.1
			c0.1-0.2,0.2-0.5,0.4-0.6c0.2-0.1,0.4-0.2,0.5-0.2c0.2,0,0.4,0,0.5,0.1c0.2,0.1,0.3,0.2,0.4,0.3c0.1,0.2,0.2,0.4,0.2,0.5
			c0,0.1,0.1,0.1,0.1,0.1c0,0.1,0,0.1,0,0.2C21.5,28,21.4,28.1,21.4,28.2z"/>
		<path class="st13" d="M21,28.7c-0.2,0.2-0.5,0.2-0.8,0.1c-0.2-0.1-0.3-0.3-0.4-0.5c0-0.2,0-0.1,0.1-0.1c0.5,0,0.9,0,1.4,0h0.1
			c-0.4,0.1-0.7,0.1-1,0.1c-0.1,0-0.1,0-0.2,0c-0.2,0.1-0.2,0.2-0.1,0.4c0.1,0.1,0.3,0.2,0.5,0.1C20.7,28.7,20.8,28.7,21,28.7z"/>
		<path class="st13" d="M21.3,29C21.3,29,21.3,29,21.3,29C21.3,29,21.3,29,21.3,29z"/>
		<path class="st13" d="M21.3,29L21.3,29L21.3,29z"/>
		<path class="st13" d="M21.3,29C21.3,29,21.3,29,21.3,29C21.3,29,21.3,29,21.3,29z"/>
		<path class="st13" d="M21.3,29L21.3,29L21.3,29z"/>
		<path class="st13" d="M21.2,29.1C21.2,29.1,21.3,29.1,21.2,29.1L21.2,29.1z"/>
		<path class="st13" d="M21.2,29.1L21.2,29.1L21.2,29.1z"/>
		<path class="st13" d="M29.3,29.1c0-0.1,0-0.2,0-0.3c0-0.1,0-0.1-0.1-0.1c-0.1,0-0.2,0-0.4-0.1c-0.2-0.1-0.2-0.2-0.2-0.3
			c0-0.2,0-0.4,0-0.5c0-0.6,0-1.2,0-1.8c0-0.1,0-0.1,0-0.1c0.1,0.1,0.1,0.2,0.1,0.4c0,0.6,0,1.2,0,1.8c0,0.3,0.2,0.5,0.5,0.6
			c0.1,0,0.1,0.1,0.1,0.1c0.1,0,0.1,0,0.1-0.1c0-0.1,0-0.3,0-0.4c0-0.4,0-0.6,0.1-1c0.1-0.2,0.4-0.4,0.6-0.5
			c0.4-0.1,0.6-0.1,0.9,0.1c0.1,0.1,0.2,0.2,0.4,0.4c0.1,0.1,0.1,0.1,0.1,0.2s0.1,0.1,0.1,0c0.1-0.1,0.1-0.2,0.1-0.2
			c0-0.1,0-0.1,0.1-0.2c0,0.2,0,0.4,0,0.5c0,0.5,0,1,0,1.5c0,0.1,0,0.1,0,0.1c-0.1-0.1-0.1-0.2-0.1-0.4l0,0c0-0.1-0.1-0.1-0.1-0.1
			c-0.1,0-0.1,0.1-0.1,0.1c-0.1,0.1-0.1,0.2-0.2,0.2c-0.2,0.2-0.4,0.3-0.6,0.4c-0.3,0.1-0.5,0-0.8-0.1c-0.1-0.1-0.1-0.1-0.2-0.1
			c-0.1-0.1-0.1-0.1-0.2-0.1c-0.1,0-0.1,0-0.1,0C29.3,29,29.3,29.1,29.3,29.1z M29.4,28c0,0.3,0,0.5,0.1,0.7
			c0.1,0.3,0.3,0.5,0.6,0.6c0.2,0.1,0.3,0.1,0.5,0c0.4-0.1,0.6-0.2,0.8-0.6c0.1-0.4,0.1-0.8,0-1.2c-0.1-0.3-0.2-0.5-0.5-0.6
			c-0.2-0.1-0.4-0.1-0.5-0.1c-0.4,0-0.6,0.2-0.8,0.5C29.4,27.5,29.4,27.8,29.4,28z"/>
		<path class="st13" d="M27.3,18.3C27.3,18.3,27.3,18.3,27.3,18.3c-0.1,0.1-0.1,0.1-0.2,0.2c-0.2,0.1-0.2,0.4-0.2,0.5
			c0,0.1,0,0.2,0,0.2c0,0.1,0.1,0.2,0.2,0.4l0.1,0.1c-0.1-0.1-0.3-0.1-0.4,0c0.1-0.4,0.2-0.8,0.2-1.1c-0.2,0.1-0.4,0.1-0.6,0.1
			c-0.4,0-0.6,0-1,0c-0.9,0-1.9,0-2.9,0c-0.2,0-0.2,0.1-0.2,0.2c0,0.2,0.1,0.4,0.1,0.6c0.1,0.5,0.4,0.9,0.8,1.2
			c0.5,0.4,1,0.4,1.5,0.4c0.4-0.1,0.8-0.2,1.1-0.5c0.3-0.2,0.5-0.5,0.8-0.7c0.1-0.1,0.2-0.1,0.2-0.2c-0.2,0.8-0.6,1.6-1.1,2.2
			c0,0,0,0,0.1,0c0.4-0.1,0.6-0.4,0.9-0.6c0.4-0.4,0.7-0.8,0.8-1.3c0.1,0.1,0,0.2,0,0.4c-0.1,0.3-0.2,0.5-0.5,0.7
			c-0.2,0.2-0.4,0.4-0.6,0.5c-0.2,0.1-0.3,0.2-0.5,0.2c-0.1,0.1-0.2,0.1-0.2,0.2c-0.1,0.1-0.2,0.3-0.4,0.4c-0.3,0.3-0.6,0.5-0.9,0.8
			c-0.2,0.2-0.5,0.3-0.8,0.4c-0.2,0.1-0.5,0.2-0.8,0.3c-0.2,0.1-0.4,0.1-0.6,0.1C21.9,24,21.7,24,21.5,24s-0.4,0-0.6,0
			c-0.2,0-0.5-0.1-0.7-0.1c-0.2-0.1-0.5-0.1-0.8-0.2c-0.2-0.1-0.5-0.2-0.7-0.2c-0.3-0.1-0.5-0.2-0.8-0.4c-0.2-0.1-0.5-0.3-0.6-0.5
			c-0.2-0.2-0.5-0.4-0.7-0.6c-0.2-0.2-0.4-0.5-0.6-0.8c-0.1-0.2-0.2-0.4-0.4-0.6c-0.1-0.3-0.2-0.5-0.3-0.8s-0.2-0.6-0.2-0.9
			c-0.1-0.2-0.1-0.5-0.1-0.8c0-0.6,0.1-1.2,0.3-1.9c0.1-0.3,0.2-0.6,0.4-0.9c0.2-0.3,0.3-0.5,0.5-0.8c0.2-0.3,0.5-0.6,0.8-0.8
			c0.2-0.2,0.5-0.5,0.8-0.6c0.5-0.3,0.9-0.5,1.5-0.6c0.4-0.1,0.7-0.2,1.1-0.2c0.3-0.1,0.6-0.1,0.9,0c0.5,0,1.1,0.1,1.6,0.3
			c0.3,0.1,0.6,0.2,0.9,0.4c0.4,0.2,0.6,0.4,1,0.6c0.3,0.2,0.5,0.5,0.8,0.8c0.2,0.2,0.4,0.4,0.5,0.5c0.2,0.1,0.4,0.2,0.5,0.4
			c0.2,0.1,0.3,0.3,0.4,0.5c0.1,0.1,0.1,0.2,0.2,0.2c0.1,0.2,0.2,0.4,0.3,0.6c0.1,0.2,0.1,0.4,0.2,0.6c0.1,0.2,0.1,0.5,0,0.8
			c0,0.1-0.1,0.2-0.1,0.3c0,0,0,0.1-0.1,0.1l0,0c0.1-0.1,0.1-0.3,0.1-0.5c0-0.2,0-0.5-0.1-0.7c-0.1-0.4-0.2-0.8-0.5-1.2
			c-0.2-0.4-0.6-0.6-0.9-0.9c-0.1-0.1-0.3-0.2-0.4-0.2c0.9,1.2,1.2,2.4,1.2,3.8C27,18.4,27.1,18.3,27.3,18.3L27.3,18.3z M25.7,16.5
			L25.7,16.5c0-0.1,0-0.1,0-0.1c-0.3-0.6-0.7-0.9-1.4-1c-0.4-0.1-0.8,0-1.2,0.2c-0.2,0.1-0.4,0.2-0.4,0.4l0,0c0,0-0.1,0-0.1,0.1
			l-0.1,0.1c-0.2,0.4-0.4,0.8-0.4,1.2c0,0.1,0.1,0.2,0.2,0.2c0.1,0,0.1,0,0.1,0c1.1,0,2.1,0,3.2,0c0.1,0,0.1,0,0.1,0
			c0.1,0,0.2-0.1,0.2-0.2C25.9,17.1,25.8,16.8,25.7,16.5C25.7,16.6,25.7,16.6,25.7,16.5L25.7,16.5L25.7,16.5z M23.9,14.3L23.9,14.3
			C24,14.3,24,14.3,23.9,14.3c0.1,0,0.1,0,0.2,0h0.1c0.1,0,0.3,0,0.4,0s0.2,0,0.3,0.1c0,0,0,0,0.1,0c0.2,0.1,0.5,0.1,0.7,0.2l0,0
			c-0.2-0.3-0.5-0.6-0.8-0.9c-0.5-0.5-1.1-0.8-1.8-1.1c-0.6-0.2-1.3-0.4-1.9-0.4c-0.4,0-0.8,0.1-1.1,0.1c-0.7,0.1-1.4,0.4-1.9,0.8
			c-0.5,0.3-1,0.7-1.4,1.2c-0.2,0.2-0.3,0.4-0.4,0.6c-0.3,0.4-0.5,0.9-0.7,1.4c-0.1,0.2-0.2,0.5-0.2,0.8c0,0.1-0.1,0.1,0,0.1l0,0
			l0,0c0,0,0,0,0,0.1c-0.1,0.3-0.1,0.6-0.1,0.9c0,0.3,0,0.5,0.1,0.8c0.1,0.4,0.1,0.7,0.2,1c0.1,0.2,0.1,0.4,0.2,0.6l0,0l0,0v0.1
			c0.4,0.8,0.9,1.5,1.5,2.1c0.6,0.5,1.4,0.9,2.2,1.2c0.4,0.1,0.8,0.2,1.2,0.2c0.4,0.1,0.9,0,1.3-0.1s0.8-0.2,1.2-0.3
			c0.8-0.3,1.5-0.8,2.1-1.4c0.2-0.2,0.3-0.3,0.5-0.5C25.5,22,25.3,22,25.1,22c-0.6,0.1-1.2,0.1-1.7,0c-0.6-0.1-1.1-0.3-1.6-0.7
			c-0.2-0.2-0.5-0.4-0.6-0.7l0,0c-0.4-0.6-0.6-1.4-0.6-2.1c0-0.2,0-0.4,0-0.5c0-0.1,0-0.1,0-0.1c0-0.2,0-0.4,0.1-0.5
			c0.1-0.5,0.2-1,0.5-1.4l0.1-0.1c0,0,0,0,0-0.1l0.1-0.1c0.3-0.4,0.6-0.8,1.1-1c0.4-0.2,0.7-0.3,1.1-0.4h0.1c0.1,0,0.1,0,0.2,0l0,0
			c0,0,0,0,0.1,0l0,0c0.1,0,0.1,0,0.1,0l0,0c0.1,0,0.1,0,0.1,0c0.1,0,0.1,0,0.1,0C23.8,14.3,23.8,14.3,23.9,14.3L23.9,14.3z"/>
		<path class="st15" d="M26.7,19.6c0.1-0.1,0.3-0.1,0.4,0s0.2,0.1,0.2,0.2c0,0.1,0,0.1,0,0.1l0,0c-0.1,0.6-0.4,0.9-0.8,1.3
			c-0.3,0.2-0.6,0.5-0.9,0.6c0,0,0,0-0.1,0C26.1,21.1,26.5,20.4,26.7,19.6L26.7,19.6z"/>
		<path class="st13" d="M27.4,18.1L27.4,18.1L27.4,18.1L27.4,18.1L27.4,18.1z"/>
		<path class="st13" d="M27.4,19.9L27.4,19.9L27.4,19.9z"/>
		<path class="st13" d="M27.4,18.2L27.4,18.2L27.4,18.2L27.4,18.2L27.4,18.2z"/>
		<path class="st13" d="M27.4,18.2C27.3,18.2,27.3,18.3,27.4,18.2L27.4,18.2C27.3,18.2,27.3,18.2,27.4,18.2L27.4,18.2z"/>
		<path class="st13" d="M27.3,18.3L27.3,18.3L27.3,18.3L27.3,18.3L27.3,18.3z"/>
		<path class="st13" d="M27.4,18.1C27.4,18.1,27.4,18.2,27.4,18.1L27.4,18.1C27.4,18.2,27.4,18.1,27.4,18.1L27.4,18.1z"/>
		<path class="st13" d="M27.3,18.3L27.3,18.3L27.3,18.3L27.3,18.3L27.3,18.3z"/>
		<path class="st13" d="M27.4,18.2L27.4,18.2L27.4,18.2L27.4,18.2L27.4,18.2z"/>
		<path class="st14" d="M11.3,28c0,0.1,0,0.2,0,0.3c-0.1,0.2-0.3,0.4-0.5,0.4c-0.1,0-0.1,0-0.2,0c-0.2,0-0.2-0.1-0.3-0.3
			c-0.1-0.2-0.1-0.5,0.1-0.7c0.1-0.2,0.3-0.4,0.5-0.4c0.2,0,0.4,0.2,0.5,0.4c0,0.1,0,0.1,0.1,0.1C11.3,27.9,11.3,28,11.3,28z
			 M11.3,28c0-0.2,0-0.4-0.1-0.5c-0.2-0.2-0.5-0.2-0.6,0.1c-0.1,0.2-0.1,0.5-0.1,0.7c0,0.1,0.1,0.2,0.2,0.2c0.1,0,0.1,0,0.2,0
			c0.2,0,0.4-0.1,0.5-0.4C11.2,28.2,11.3,28.1,11.3,28z"/>
		<path class="st14" d="M16.8,27.8c-0.1,0-0.2,0-0.3-0.1c-0.1-0.1-0.1-0.2-0.1-0.2c0.1-0.1,0.2-0.2,0.3-0.2s0.2,0.1,0.3,0.2
			C17.2,27.7,17.1,27.8,16.8,27.8C16.9,27.8,16.9,27.8,16.8,27.8z M16.8,27.7c0.1,0,0.1,0,0.1,0c0.1,0,0.1-0.1,0.1-0.2
			c-0.1-0.1-0.1-0.1-0.2-0.1s-0.1,0-0.2,0.1c0,0.1,0,0.1,0,0.1C16.7,27.7,16.8,27.7,16.8,27.7z"/>
		<path class="st13" d="M12.6,28.1c0-0.1,0-0.2,0-0.3v-0.1c0-0.2,0.1-0.4,0.3-0.5c0.2-0.1,0.4-0.1,0.5,0c0.1,0.1,0.2,0.2,0.2,0.3
			c0.1,0.3,0.1,0.5,0,0.8c-0.1,0.2-0.2,0.3-0.4,0.3c-0.1,0-0.1,0-0.2,0C12.7,28.7,12.5,28.5,12.6,28.1L12.6,28.1
			C12.6,28.2,12.6,28.2,12.6,28.1C12.6,28.2,12.6,28.2,12.6,28.1C12.6,28.2,12.6,28.2,12.6,28.1C12.6,28.2,12.6,28.2,12.6,28.1z
			 M13.1,27.4c-0.1,0-0.2,0.1-0.3,0.1c-0.1,0.1-0.2,0.2-0.2,0.4c0,0.2,0,0.4,0.1,0.6s0.2,0.2,0.4,0.2c0.2,0,0.4-0.2,0.4-0.4
			s0.1-0.4,0-0.5C13.6,27.5,13.4,27.4,13.1,27.4z"/>
		<path class="st14" d="M12.6,27.8L12.6,27.8C12.6,27.8,12.6,27.8,12.6,27.8z"/>
		<path class="st14" d="M12.6,28.2C12.6,28.2,12.6,28.2,12.6,28.2C12.6,28.2,12.6,28.2,12.6,28.2C12.6,28.2,12.6,28.2,12.6,28.2
			L12.6,28.2z"/>
		<path class="st14" d="M12.6,28.1C12.6,28.2,12.6,28.2,12.6,28.1C12.6,28.2,12.6,28.2,12.6,28.1C12.6,28.2,12.6,28.2,12.6,28.1z"/>
		<path class="st14" d="M26.3,28.1c0-0.2,0-0.4,0.1-0.5c0.1-0.2,0.2-0.3,0.4-0.3c0.2-0.1,0.4,0,0.5,0.2c0.1,0.1,0.1,0.2,0.1,0.4
			c0,0.1,0,0.2,0,0.4c-0.1,0.3-0.3,0.5-0.6,0.5c-0.1,0-0.1,0-0.2,0c-0.2-0.1-0.3-0.2-0.3-0.4C26.3,28.3,26.3,28.2,26.3,28.1z
			 M26.4,28.2c0,0.1,0,0.1,0,0.1c0,0.2,0.1,0.3,0.3,0.4c0.1,0,0.1,0,0.2,0c0.1,0,0.2-0.1,0.3-0.2c0.1-0.2,0.1-0.5,0.1-0.7
			c-0.1-0.2-0.2-0.2-0.4-0.2s-0.3,0.1-0.4,0.3C26.4,27.9,26.4,28,26.4,28.2z"/>
		<path class="st13" d="M20.4,27.8c-0.2,0-0.4,0-0.5,0c0,0-0.1,0-0.1-0.1c0-0.2,0.1-0.5,0.3-0.5c0.2-0.1,0.6-0.1,0.8,0.3
			c0,0.1,0.1,0.2,0.1,0.2c0,0.1,0,0.1-0.1,0.1C20.7,27.8,20.5,27.8,20.4,27.8z M20.4,27.8c0.1,0,0.1,0,0.1,0c0.1,0,0.2-0.1,0.2-0.1
			c0-0.1,0-0.2-0.1-0.2c-0.2-0.1-0.3-0.1-0.5,0.1c-0.1,0.1-0.1,0.2,0,0.3C20.3,27.8,20.3,27.8,20.4,27.8z"/>
		<path class="st15" d="M29.4,28c0-0.1,0-0.4,0.1-0.6c0.2-0.4,0.4-0.5,0.8-0.5c0.2,0,0.4,0,0.5,0.1c0.3,0.1,0.5,0.3,0.5,0.6
			c0.1,0.4,0.1,0.8,0,1.2c-0.1,0.4-0.4,0.5-0.8,0.6c-0.2,0-0.3,0-0.5,0c-0.4-0.1-0.5-0.3-0.6-0.6C29.4,28.4,29.4,28.2,29.4,28z
			 M31,28c0-0.1,0-0.2-0.1-0.4s-0.2-0.3-0.4-0.4c-0.1-0.1-0.2-0.1-0.4,0c-0.2,0.1-0.4,0.2-0.4,0.4c-0.1,0.2-0.1,0.5,0,0.8
			c0.1,0.2,0.1,0.3,0.3,0.4c0.1,0.1,0.2,0.1,0.4,0c0.2-0.1,0.4-0.2,0.4-0.4C31,28.3,31,28.1,31,28z"/>
		<path class="st16" d="M15.7,20.5C15.7,20.5,15.6,20.5,15.7,20.5L15.7,20.5c0.1,0.1,0.1,0.1,0.2,0.1h0.1c1.6,0,3.2,0,4.8,0
			c0.1,0,0.1,0,0.1,0c0.1,0,0.1-0.1,0.1,0c0.1,0,0.1,0.1,0.1,0.1v-0.1c0.2,0.2,0.4,0.5,0.6,0.7c0.5,0.4,1,0.6,1.6,0.7
			c0.6,0.1,1.2,0.1,1.7,0c0.2,0,0.4-0.1,0.5-0.1c-0.2,0.2-0.3,0.4-0.5,0.5c-0.6,0.6-1.3,1.1-2.1,1.4c-0.4,0.1-0.8,0.2-1.2,0.3
			S20.8,24,20.4,24s-0.8-0.1-1.2-0.2c-0.8-0.2-1.5-0.6-2.2-1.2c-0.6-0.6-1.2-1.2-1.5-2.1C15.7,20.6,15.7,20.5,15.7,20.5
			C15.7,20.5,15.7,20.5,15.7,20.5z"/>
		<path class="st12" d="M16.1,14.8c0.1-0.2,0.3-0.4,0.4-0.6c0.4-0.5,0.9-0.8,1.4-1.2c0.6-0.4,1.3-0.6,1.9-0.8
			c0.4-0.1,0.8-0.1,1.1-0.1c0.6,0,1.3,0.1,1.9,0.4c0.6,0.2,1.2,0.6,1.8,1.1c0.3,0.2,0.6,0.5,0.8,0.9l0,0c-0.2-0.1-0.5-0.2-0.7-0.2
			c0,0,0,0-0.1,0c-0.2-0.2-0.4-0.3-0.5-0.5c-0.3-0.2-0.6-0.4-0.9-0.6c-0.4-0.2-0.9-0.4-1.3-0.5c-0.2-0.1-0.5-0.1-0.8-0.1
			c-0.3,0-0.5,0-0.8,0c-0.2,0-0.5,0.1-0.8,0.1c-0.5,0.1-1,0.3-1.5,0.6c-0.1,0-0.1,0.1-0.1,0.1s0,0.1-0.1,0.1c0,0-0.1,0-0.1,0.1l0,0
			c0.2,0.1,0.3,0.1,0.5,0.1c0.2,0,0.5,0,0.7,0.1c0.2,0,0.4,0.1,0.6,0.1c0.1,0,0.2,0,0.2,0c0.2,0.1,0.4,0.1,0.6,0.1
			c0.2,0,0.3,0,0.5,0.1c0.3,0.1,0.5,0.1,0.8,0.1c0.2,0,0.5,0.1,0.7,0.1c0,0,0,0,0.1,0C23,14,23.1,14,23.3,14c0.1,0,0.2,0.1,0.3,0.1
			l0,0c0,0.1,0.1,0.1,0.1,0.1c0.1,0,0.1,0,0.2,0.1l0,0h-0.1c0,0,0,0-0.1,0s-0.1,0-0.1,0c-0.1,0-0.1,0-0.1,0l0,0c-0.1,0-0.1,0-0.1,0
			l0,0c0,0,0,0-0.1,0l0,0c-0.1,0-0.1,0-0.2,0h-0.1c-0.4,0.1-0.8,0.2-1.1,0.4c-0.5,0.2-0.8,0.6-1.1,1c0,0,0,0.1-0.1,0.1
			c-0.1-0.1-0.1,0-0.1,0.1s-0.1,0.1-0.1,0.1c-0.1,0-0.1,0-0.2,0c-0.1,0-0.1,0-0.1,0c-0.1-0.1-0.1-0.1-0.2,0c-0.1,0.1-0.2-0.1-0.4,0
			l0,0c-0.1-0.1-0.1-0.1-0.1,0c-0.1,0.1-0.2,0-0.3,0c-0.1,0-0.2,0-0.2,0c-0.1,0-0.1,0-0.1,0c-0.1,0-0.1,0-0.1,0
			c-0.1,0-0.2,0.1-0.2-0.1h-0.1c-0.1,0-0.2,0-0.3,0c0,0,0,0-0.1,0c-0.1-0.1-0.1-0.1-0.1-0.1c-0.2,0-0.4-0.1-0.5,0h-0.1
			c-0.1-0.1-0.1-0.1-0.2,0h-0.1c-0.1-0.1-0.2,0-0.2-0.1H17c-0.1,0-0.2,0-0.2,0c-0.1,0-0.1,0-0.2,0s-0.1,0-0.1,0
			c-0.1,0-0.1-0.1-0.2-0.1s-0.1,0-0.1-0.1s0-0.1,0-0.1c0.1-0.1,0.2-0.2,0.2-0.4c0,0,0.1-0.1,0-0.1c0,0-0.1-0.1-0.1,0
			C16.3,14.8,16.2,14.8,16.1,14.8C16.3,14.8,16.2,14.8,16.1,14.8C16.2,14.8,16.2,14.8,16.1,14.8z M18,13.6C18,13.6,18,13.6,18,13.6
			C18,13.6,18,13.6,18,13.6z"/>
		<path class="st11" d="M16.1,14.8C16.2,14.8,16.2,14.8,16.1,14.8c0.1-0.1,0.1,0,0.1,0c0.1,0.1,0.2,0.1,0.2,0.1c0.1,0,0.1,0,0.1,0
			V15c-0.1,0.1-0.2,0.2-0.2,0.4c0,0.1,0,0.1,0,0.1c0,0.1,0.1,0.1,0.1,0.1c0.1,0,0.1,0.1,0.2,0.1s0.1,0.1,0.1,0c0.1,0,0.1,0,0.2,0
			c0.1,0,0.2,0,0.2,0h0.1c0.1,0,0.1,0,0.2,0h0.1c0.1-0.1,0.1,0,0.2,0h0.1c0.2,0,0.4,0,0.5,0c0.1,0,0.1,0,0.1,0.1c0,0,0,0,0.1,0
			c0.1-0.1,0.2,0,0.3,0h0.1c0.1,0.1,0.2,0.1,0.2,0.1s0.1,0,0.1,0c0.1,0,0.1,0,0.1,0c0.1,0,0.2,0,0.2,0c0.1,0,0.2,0.1,0.3,0
			c0.1,0,0.1-0.1,0.1,0l0,0c0.1,0,0.2,0.1,0.4,0c0.1,0,0.1,0,0.2,0c0.1,0.1,0.1,0,0.1,0c0.1,0,0.1,0,0.2,0c0.1,0,0.1,0,0.1-0.1
			c0-0.1,0-0.1,0.1-0.1c0,0,0,0,0,0.1c-0.1,0-0.1,0-0.1,0.1c-0.2,0.5-0.4,0.9-0.5,1.4c0,0.2-0.1,0.4-0.1,0.5c0,0.1,0,0.1,0,0.1
			c-0.1,0-0.1,0-0.1,0c-0.2-0.1-0.4-0.1-0.6-0.1c-0.4,0-0.6,0-1,0.1c-0.4,0.1-0.7,0.2-1.1,0.4c-0.2,0.1-0.4,0.2-0.6,0.4
			c-0.1,0.1-0.1,0.1-0.2,0.1c-0.3-0.1-0.6-0.1-0.8-0.1c-0.1,0-0.1,0-0.1,0c-0.1,0-0.2-0.1-0.2-0.2c0-0.4,0-0.8,0.1-1.2
			c0-0.1,0-0.1,0-0.2c0,0,0-0.1-0.1-0.1c-0.1,0.1-0.1,0-0.2,0c-0.1,0-0.1,0-0.1-0.1c0.1-0.3,0.1-0.5,0.2-0.8
			C15.6,15.7,15.8,15.3,16.1,14.8z M16.2,15.7C16.1,15.7,16.1,15.7,16.2,15.7C16.1,15.7,16.1,15.7,16.2,15.7L16.2,15.7L16.2,15.7z
			 M16.3,15.5L16.3,15.5C16.3,15.6,16.3,15.6,16.3,15.5C16.3,15.6,16.3,15.5,16.3,15.5C16.3,15.5,16.3,15.5,16.3,15.5z M16.3,15.6
			C16.3,15.6,16.3,15.6,16.3,15.6C16.3,15.6,16.3,15.6,16.3,15.6L16.3,15.6L16.3,15.6z M16.3,15.6L16.3,15.6
			C16.2,15.6,16.2,15.6,16.3,15.6C16.2,15.6,16.2,15.6,16.3,15.6C16.3,15.6,16.3,15.6,16.3,15.6z M20.7,16.1L20.7,16.1
			C20.7,16.1,20.7,16,20.7,16.1C20.7,16,20.7,16,20.7,16.1C20.7,16,20.7,16,20.7,16.1z"/>
		<path class="st10" d="M15.3,17c0,0.1,0.1,0.1,0.1,0.1c0.1,0,0.1,0.1,0.2,0c0,0,0.1,0,0.1,0.1s0,0.1,0,0.2
			c-0.1,0.4-0.1,0.8-0.1,1.2c0,0.1,0.1,0.2,0.2,0.2c0.1,0,0.1,0,0.1,0c0.3,0,0.6,0,0.8,0.1c0.1,0,0.1,0,0.2-0.1
			c0.2-0.2,0.4-0.3,0.6-0.4c0.4-0.2,0.6-0.3,1.1-0.4c0.4-0.1,0.6-0.1,1-0.1c0.2,0,0.4,0,0.6,0.1c0.1,0,0.1,0,0.1,0
			c0,0.2,0,0.4,0,0.5c0.1,0.8,0.2,1.5,0.6,2.1l0,0v0.1c0-0.1-0.1-0.1-0.1-0.1c-0.1,0-0.1,0-0.1,0c-0.1,0-0.1,0-0.1,0
			c-1.6,0-3.2,0-4.8,0h-0.1c-0.1,0-0.1,0.1-0.1-0.1l0,0c-0.1-0.2-0.2-0.4-0.2-0.6c-0.1-0.4-0.2-0.6-0.2-1c-0.1-0.3-0.1-0.5-0.1-0.8
			s0-0.6,0.1-0.9C15.3,17.1,15.3,17.1,15.3,17L15.3,17L15.3,17L15.3,17C15.2,17.1,15.3,17,15.3,17z"/>
		<path class="st10" d="M26.7,19.6c-0.1,0.1-0.2,0.1-0.2,0.2c-0.2,0.2-0.5,0.5-0.8,0.7c-0.4,0.2-0.7,0.4-1.1,0.5
			C24,21,23.5,21,23,20.6c-0.4-0.3-0.6-0.7-0.8-1.2c-0.1-0.2-0.1-0.4-0.1-0.6c0-0.2,0.1-0.2,0.2-0.2c0.9,0,1.9,0,2.9,0
			c0.4,0,0.6,0,1,0c0.2,0,0.4-0.1,0.6-0.1C26.8,18.8,26.8,19.2,26.7,19.6L26.7,19.6z"/>
		<path class="st14" d="M24,14.3c-0.1-0.1-0.1-0.1-0.2-0.1c-0.1,0-0.1,0-0.1-0.1l0,0c-0.1,0-0.2-0.1-0.3-0.1c-0.2,0-0.4,0-0.5-0.1
			c0,0,0,0-0.1,0c-0.2,0.1-0.5-0.1-0.7-0.1c-0.3,0-0.5-0.1-0.8-0.1c-0.2,0-0.3-0.1-0.5-0.1c-0.2,0-0.4,0-0.6-0.1c-0.1,0-0.2,0-0.2,0
			c-0.2,0-0.4-0.1-0.6-0.1c-0.2,0-0.5,0-0.7-0.1c-0.2,0-0.3-0.1-0.5-0.1l0,0l0.1-0.1c0.1,0,0.1,0,0.1-0.1s0.1-0.1,0.1-0.1
			c0.5-0.3,0.9-0.5,1.5-0.6c0.2-0.1,0.5-0.1,0.8-0.1s0.5,0,0.8,0c0.2,0,0.5,0.1,0.8,0.1c0.5,0.1,0.9,0.2,1.3,0.5
			c0.3,0.2,0.6,0.4,0.9,0.6c0.2,0.1,0.4,0.3,0.5,0.5c-0.1,0-0.2,0-0.3-0.1c-0.1,0-0.3,0-0.4,0h-0.1c0-0.1,0-0.1-0.1-0.1
			C24,14.2,24,14.2,24,14.3L24,14.3z"/>
		<path class="st11" d="M25.7,16.6c0.1,0.2,0.1,0.5,0.2,0.8c0,0.1-0.1,0.2-0.2,0.2c-0.1,0-0.1,0-0.1,0c-1.1,0-2.1,0-3.2,0
			c-0.1,0-0.1,0-0.1,0c-0.1,0-0.2-0.1-0.2-0.2c0.1-0.5,0.2-0.9,0.4-1.2l0.1-0.1c0,0.1,0.1,0.1,0.1,0.1c0.1,0,0.2,0,0.3,0.1
			c0.1,0,0.1,0,0.1,0c0.2-0.1,0.4,0,0.5,0.1c0.2,0,0.4,0.1,0.6,0.1c0.1,0,0.3,0.1,0.4,0.1c0.2,0,0.5,0.1,0.7,0.1c0.1,0,0.1,0,0.1,0
			c0.1,0,0.1,0,0.1,0.1C25.7,16.6,25.7,16.6,25.7,16.6C25.7,16.7,25.7,16.7,25.7,16.6z M25.5,16.5L25.5,16.5L25.5,16.5L25.5,16.5
			L25.5,16.5z"/>
		<path class="st15" d="M27.4,18.2L27.4,18.2L27.4,18.2C27.3,18.2,27.3,18.2,27.4,18.2C27.3,18.3,27.3,18.3,27.4,18.2L27.4,18.2
			c-0.2,0.1-0.3,0.2-0.5,0.2c0.1-1.4-0.4-2.7-1.2-3.8c0.2,0.1,0.3,0.2,0.4,0.2c0.4,0.2,0.7,0.5,0.9,0.9c0.2,0.4,0.4,0.8,0.5,1.2
			c0.1,0.2,0.1,0.5,0.1,0.7c0,0.2-0.1,0.3-0.1,0.5C27.4,18.1,27.4,18.1,27.4,18.2C27.4,18.1,27.4,18.2,27.4,18.2z"/>
		<path class="st12" d="M25.7,16.6C25.7,16.7,25.7,16.7,25.7,16.6c-0.1-0.1-0.1-0.1-0.1-0.1c-0.1-0.1-0.1-0.1-0.1-0.1
			c-0.1,0-0.1,0-0.1,0c-0.2,0-0.5-0.1-0.7-0.1c-0.1,0-0.3-0.1-0.4-0.1c-0.2,0-0.4,0-0.6-0.1c-0.2,0-0.4-0.1-0.5-0.1c0,0-0.1,0-0.1,0
			c-0.1,0-0.2-0.1-0.3-0.1c-0.1,0-0.1,0-0.1-0.1c0,0,0-0.1,0.1-0.1l0,0c0.1-0.2,0.3-0.3,0.4-0.4c0.4-0.2,0.8-0.3,1.2-0.2
			c0.6,0.1,1.1,0.4,1.4,1v0.1l0,0l0,0l0,0c0,0,0,0,0,0.1C25.7,16.6,25.7,16.6,25.7,16.6z"/>
		<path class="st12" d="M24,14.3c0-0.1,0.1-0.1,0.1-0.1c0.1,0,0.1,0.1,0.1,0.1C24.1,14.3,24,14.3,24,14.3z"/>
		<path class="st14" d="M23.7,14.3c0.1,0,0.1,0,0.1,0C23.8,14.3,23.7,14.3,23.7,14.3z"/>
		<path class="st12" d="M20.9,15.9C20.9,15.9,20.9,15.8,20.9,15.9L20.9,15.9z"/>
		<path class="st14" d="M23.2,14.3L23.2,14.3L23.2,14.3z"/>
		<path class="st14" d="M23.9,14.3L23.9,14.3L23.9,14.3z"/>
		<path class="st11" d="M15.3,17.1L15.3,17.1C15.2,17.1,15.2,17.1,15.3,17.1z"/>
		<path class="st11" d="M25.7,16.6C25.7,16.6,25.7,16.5,25.7,16.6C25.7,16.5,25.7,16.5,25.7,16.6z"/>
		<path class="st11" d="M22.7,16C22.7,16,22.7,16.1,22.7,16C22.7,16.1,22.7,16,22.7,16z"/>
		<path class="st14" d="M23.4,14.3C23.5,14.3,23.5,14.3,23.4,14.3C23.5,14.3,23.5,14.3,23.4,14.3z"/>
		<path class="st14" d="M23.4,14.3L23.4,14.3L23.4,14.3z"/>
		<path class="st14" d="M23.5,14.3C23.6,14.3,23.6,14.3,23.5,14.3C23.6,14.3,23.6,14.3,23.5,14.3z"/>
		<path class="st10" d="M15.7,20.5C15.7,20.5,15.7,20.5,15.7,20.5C15.7,20.5,15.7,20.5,15.7,20.5z"/>
		<path class="st11" d="M25.7,16.5L25.7,16.5L25.7,16.5L25.7,16.5z"/>
		<path class="st11" d="M15.3,17.1L15.3,17.1L15.3,17.1L15.3,17.1z"/>
		<path class="st12" d="M11.3,28c0,0.1,0,0.1,0,0.2c-0.1,0.2-0.2,0.4-0.5,0.4c-0.1,0-0.1,0-0.2,0c-0.1-0.1-0.2-0.1-0.2-0.2
			c-0.1-0.2-0.1-0.5,0.1-0.7c0.1-0.3,0.5-0.3,0.6-0.1C11.2,27.7,11.3,27.8,11.3,28z M10.4,28.1c0,0.1,0,0.1,0,0.2
			c0,0.1,0.1,0.2,0.2,0.2c0.2,0.1,0.4-0.1,0.5-0.2c0.1-0.2,0.1-0.4,0-0.5c-0.1-0.1-0.1-0.3-0.4-0.2c-0.1,0-0.2,0.1-0.3,0.2
			C10.4,27.9,10.4,28,10.4,28.1z"/>
		<path class="st12" d="M16.8,27.7c-0.1,0-0.1,0-0.2-0.1s-0.1-0.1,0-0.1c0.1-0.1,0.1-0.1,0.2-0.1s0.1,0.1,0.2,0.1
			c0.1,0.1,0,0.1-0.1,0.2C16.9,27.7,16.8,27.7,16.8,27.7z"/>
		<path class="st14" d="M13.1,27.4c0.2,0,0.5,0.2,0.5,0.4c0.1,0.2,0.1,0.4,0,0.5c-0.1,0.2-0.2,0.4-0.4,0.4c-0.2,0-0.4-0.1-0.4-0.2
			c-0.1-0.2-0.1-0.4-0.1-0.6c0-0.2,0.1-0.3,0.2-0.4C13,27.4,13,27.4,13.1,27.4z M12.7,28c0,0.1,0,0.2,0,0.2c0,0.1,0.1,0.2,0.2,0.4
			c0.2,0.1,0.5,0,0.6-0.2c0.1-0.2,0.1-0.3,0.1-0.5c0-0.1-0.1-0.2-0.2-0.4c-0.2-0.2-0.5-0.1-0.6,0.1C12.7,27.8,12.7,27.9,12.7,28z"/>
		<path class="st12" d="M26.4,28.2c0-0.2,0-0.3,0.1-0.5s0.2-0.3,0.4-0.3c0.2,0,0.3,0.1,0.4,0.2c0.1,0.2,0.1,0.5-0.1,0.7
			c-0.1,0.1-0.2,0.2-0.3,0.2c-0.1,0-0.1,0.1-0.2,0C26.5,28.5,26.4,28.4,26.4,28.2C26.4,28.2,26.4,28.2,26.4,28.2z M26.5,28.2
			L26.5,28.2c0,0.2,0.1,0.2,0.1,0.3c0.1,0.1,0.2,0,0.4-0.1c0.1-0.1,0.1-0.1,0.1-0.1c0.1-0.2,0.1-0.4,0-0.5c-0.1-0.1-0.1-0.2-0.2-0.2
			c-0.2-0.1-0.4,0.1-0.4,0.2C26.5,28,26.5,28.1,26.5,28.2z"/>
		<path class="st14" d="M20.4,27.8c-0.1,0-0.2,0-0.2-0.1c-0.1-0.1-0.1-0.2,0-0.3c0.1-0.1,0.3-0.1,0.5-0.1c0.1,0.1,0.1,0.1,0.1,0.2
			c0,0.1-0.1,0.1-0.2,0.1C20.5,27.8,20.4,27.8,20.4,27.8z M20.4,27.7c0.1,0,0.1-0.1,0.1-0.1s-0.1-0.1-0.1-0.1
			c-0.1,0-0.1,0.1-0.1,0.1C20.3,27.6,20.3,27.7,20.4,27.7z"/>
		<path class="st13" d="M31,28c0,0.1,0,0.2-0.1,0.4c-0.1,0.2-0.2,0.4-0.4,0.4c-0.1,0-0.2,0-0.4,0c-0.2-0.1-0.3-0.2-0.3-0.4
			c-0.1-0.2-0.1-0.5,0-0.8c0.1-0.2,0.2-0.3,0.4-0.4c0.1,0,0.2,0,0.4,0c0.2,0.1,0.3,0.2,0.4,0.4C31,27.8,31,27.9,31,28z M31,28
			c0-0.1,0-0.1,0-0.1c0-0.2-0.1-0.3-0.2-0.4c-0.2-0.2-0.6-0.2-0.8,0.2c-0.1,0.2-0.1,0.4,0,0.6c0.1,0.1,0.1,0.2,0.2,0.3
			c0.3,0.2,0.6,0.1,0.7-0.2C31,28.2,31,28.1,31,28z"/>
		<path class="st14" d="M18,13.6C18,13.6,18,13.6,18,13.6C18,13.6,18,13.6,18,13.6z"/>
		<path class="st12" d="M16.3,15.5C16.3,15.5,16.3,15.5,16.3,15.5C16.3,15.6,16.3,15.6,16.3,15.5L16.3,15.5L16.3,15.5z"/>
		<path class="st12" d="M16.3,15.6L16.3,15.6L16.3,15.6C16.3,15.6,16.3,15.6,16.3,15.6C16.3,15.6,16.3,15.6,16.3,15.6z"/>
		<path class="st12" d="M16.3,15.6C16.3,15.6,16.3,15.6,16.3,15.6C16.2,15.6,16.2,15.6,16.3,15.6C16.2,15.6,16.2,15.6,16.3,15.6
			L16.3,15.6z"/>
		<path class="st12" d="M20.7,16.1C20.7,16,20.7,16,20.7,16.1C20.7,16,20.7,16,20.7,16.1C20.7,16,20.7,16.1,20.7,16.1L20.7,16.1z"/>
		<path class="st12" d="M16.2,15.7C16.1,15.7,16.1,15.7,16.2,15.7C16.1,15.7,16.1,15.7,16.2,15.7L16.2,15.7z"/>
		<path class="st12" d="M16.2,15.7L16.2,15.7L16.2,15.7L16.2,15.7z"/>
		<path class="st12" d="M25.5,16.5L25.5,16.5L25.5,16.5L25.5,16.5L25.5,16.5z"/>
		<path class="st11" d="M10.4,28.1c0-0.1,0-0.2,0.1-0.3c0.1-0.2,0.2-0.2,0.3-0.2c0.2,0,0.3,0.1,0.4,0.2c0.1,0.2,0.1,0.4,0,0.5
			c-0.1,0.2-0.4,0.3-0.5,0.2c-0.1-0.1-0.2-0.1-0.2-0.2C10.4,28.2,10.4,28.2,10.4,28.1z M11,28c0-0.1,0-0.1,0-0.2s-0.1-0.2-0.2-0.2
			c-0.1,0-0.2,0.1-0.2,0.2c0,0.1,0,0.2,0,0.4c0,0.1,0,0.1,0.1,0.2s0.1,0,0.2,0c0.1,0,0.2-0.1,0.2-0.2S11,28.1,11,28z"/>
		<path class="st12" d="M12.7,28c0-0.1,0-0.2,0.1-0.4c0.1-0.2,0.4-0.4,0.6-0.1c0.1,0.1,0.1,0.2,0.2,0.4c0,0.2,0,0.4-0.1,0.5
			c-0.1,0.2-0.4,0.4-0.6,0.2c-0.1-0.1-0.2-0.2-0.2-0.4C12.7,28.2,12.7,28.1,12.7,28z M13.5,28c0-0.1,0-0.1,0-0.2s-0.1-0.2-0.2-0.2
			c-0.2,0-0.3,0.1-0.4,0.2c-0.1,0.2-0.1,0.4,0,0.6c0.1,0.1,0.2,0.2,0.3,0.2s0.2-0.1,0.2-0.2C13.5,28.2,13.5,28.1,13.5,28z"/>
		<path class="st11" d="M26.5,28.2c0-0.1,0-0.2,0.1-0.4c0.1-0.2,0.2-0.3,0.4-0.2c0.1,0,0.2,0.1,0.2,0.2c0.1,0.2,0.1,0.4,0,0.5
			c0,0.1-0.1,0.1-0.1,0.1c-0.1,0.1-0.2,0.1-0.4,0.1c-0.1-0.1-0.1-0.1-0.1-0.2C26.5,28.2,26.5,28.2,26.5,28.2z M27.1,28
			c0-0.1,0-0.1,0-0.2c0-0.1-0.1-0.1-0.2-0.1s-0.2,0-0.2,0.1c-0.1,0.2-0.1,0.3-0.1,0.5c0,0.1,0,0.1,0.1,0.1c0.1,0,0.2-0.1,0.2-0.1
			C27.1,28.2,27,28.1,27.1,28z"/>
		<path class="st12" d="M20.4,27.7c-0.1,0-0.1-0.1-0.1-0.1c0-0.1,0.1-0.1,0.1-0.1c0.1,0,0.1,0.1,0.1,0.1
			C20.5,27.6,20.4,27.7,20.4,27.7z"/>
		<path class="st14" d="M31,28c0,0.1,0,0.2-0.1,0.4c-0.1,0.2-0.5,0.4-0.7,0.2c-0.1-0.1-0.2-0.2-0.2-0.3c-0.1-0.2-0.1-0.4,0-0.6
			c0.1-0.4,0.6-0.4,0.8-0.2c0.1,0.1,0.2,0.2,0.2,0.4C31,28,31,28,31,28z M30.9,28c0-0.2,0-0.3-0.1-0.4s-0.2-0.2-0.4-0.2
			c-0.2,0-0.3,0.1-0.4,0.3C30,27.8,30,28,30,28.1c0,0.1,0.1,0.2,0.2,0.4c0.2,0.2,0.5,0.1,0.6-0.1C30.9,28.2,30.9,28.1,30.9,28z"/>
		<path class="st10" d="M11,28c0,0.1,0,0.1,0,0.2c0,0.1-0.1,0.2-0.2,0.2c-0.1,0-0.1,0.1-0.2,0c-0.1-0.1-0.1-0.1-0.1-0.2
			c0-0.1,0-0.2,0-0.4c0-0.1,0.1-0.2,0.2-0.2c0.1,0,0.2,0.1,0.2,0.2C11,27.9,11,28,11,28z"/>
		<path class="st11" d="M13.5,28c0,0.1,0,0.2,0,0.2c0,0.1-0.1,0.2-0.2,0.2c-0.1,0-0.3-0.1-0.3-0.2c-0.1-0.2-0.1-0.4,0-0.6
			c0.1-0.2,0.2-0.2,0.4-0.2c0.1,0,0.2,0.1,0.2,0.2C13.5,27.9,13.5,28,13.5,28z M13,28c0,0.1,0,0.1,0,0.2v0.1
			c0.1,0.1,0.1,0.1,0.2,0.1c0.1,0,0.2-0.1,0.2-0.2s0-0.2,0-0.4c0-0.1-0.1-0.2-0.2-0.2c-0.1,0-0.2,0.1-0.2,0.1C13,27.9,13,28,13,28z"
			/>
		<path class="st10" d="M27.1,28c0,0.1,0,0.2-0.1,0.2c-0.1,0.1-0.2,0.1-0.2,0.1c-0.1,0-0.1-0.1-0.1-0.1c0-0.2,0-0.3,0.1-0.5
			c0-0.1,0.1-0.1,0.2-0.1s0.1,0.1,0.2,0.1C27,27.9,27.1,28,27.1,28z"/>
		<path class="st12" d="M30.9,28c0,0.1,0,0.2-0.1,0.3c-0.1,0.2-0.5,0.4-0.6,0.1c-0.1-0.1-0.1-0.2-0.2-0.4c0-0.1,0-0.2,0.1-0.4
			c0.1-0.2,0.2-0.3,0.4-0.3s0.3,0.1,0.4,0.2C30.9,27.7,30.9,27.9,30.9,28z M30.4,27.5c-0.2,0-0.3,0.1-0.4,0.2s-0.1,0.3,0,0.4
			c0,0.2,0.2,0.3,0.3,0.3c0.2,0,0.3-0.1,0.4-0.2c0.1-0.2,0.1-0.4,0-0.5C30.7,27.6,30.6,27.5,30.4,27.5z"/>
		<path class="st10" d="M13,28c0-0.1,0-0.1,0-0.2c0-0.1,0.1-0.1,0.2-0.1c0.1,0,0.2,0.1,0.2,0.2s0,0.2,0,0.4c0,0.1-0.1,0.2-0.2,0.2
			c-0.1,0-0.1-0.1-0.2-0.1v-0.1C13,28.1,13,28.1,13,28z"/>
		<path class="st11" d="M30.4,27.5c0.1,0,0.2,0.1,0.3,0.2c0.1,0.2,0.1,0.4,0,0.5c-0.1,0.2-0.2,0.2-0.4,0.2c-0.2,0-0.3-0.1-0.3-0.3
			c0-0.1,0-0.3,0-0.4C30.2,27.6,30.3,27.5,30.4,27.5z M30.7,28.1c0-0.1,0-0.2,0-0.2c0-0.1-0.1-0.2-0.2-0.2c-0.1,0-0.2,0-0.2,0.1
			c0,0.1-0.1,0.1-0.1,0.1c-0.1,0.1,0,0.2,0,0.4c0,0.1,0.1,0.1,0.1,0.2c0.1,0.1,0.3,0.1,0.4-0.1C30.7,28.2,30.7,28.1,30.7,28.1z"/>
		<path class="st10" d="M30.7,28.1c0,0.1,0,0.1-0.1,0.2c-0.1,0.2-0.2,0.2-0.4,0.1c-0.1-0.1-0.1-0.1-0.1-0.2c0-0.1,0-0.2,0-0.4
			c0-0.1,0-0.1,0.1-0.1c0.1-0.1,0.1-0.1,0.2-0.1s0.2,0.1,0.2,0.2C30.7,27.9,30.7,28,30.7,28.1z"/>
	</g>
</g>
</svg>
