<?xml version="1.0" encoding="utf-8"?>
<!-- Generator: Adobe Illustrator 23.0.3, SVG Export Plug-In . SVG Version: 6.00 Build 0)  -->
<svg version="1.2" baseProfile="tiny" id="Calque_1"
	 xmlns="http://www.w3.org/2000/svg" xmlns:xlink="http://www.w3.org/1999/xlink" x="0px" y="0px" viewBox="0 0 88.1 84.1"
	 xml:space="preserve">
<g>
	<g>
		<path fill="#030303" d="M49.9,17c5.5,0.2,10.6,1.6,15,5c3.5,2.7,6.4,5.9,7.6,10.3c1.1,4.2,0.5,8.3-1.7,12.1
			c-0.6,1.1-1.7,1.9-2.6,2.8c-0.2,0.2-0.3,0.3-0.5,0.4c0.2,0.1,0.4,0.2,0.6,0.3c0.5,0.3,1.1,0.5,1.6,0.8c0.2,0.1,0.4,0.4,0.4,0.6
			c0,0.1-0.3,0.3-0.5,0.4c-0.4,0.2-0.9,0.3-1.3,0.5c0.4,0.2,0.9,0.3,1.3,0.6c0.9,0.5,1.7,1,2.5,1.6c0.6,0.4,0.4,0.8-0.2,1
			c-0.4,0.2-0.8,0.4-1.2,0.5c0.3,0.3,0.7,0.6,1,0.9c1.4,1.3,2.4,2.7,3.2,4.4c0.1,0.3,0.1,0.6,0.2,0.9c-0.3,0-0.7,0.1-1,0.1
			c-3.2-0.4-6.4-0.9-9.6-1.1c-2.5-0.1-5,0.2-7.5,0.2c-0.7,0-1.1,0.4-1.2,1.1c-0.1,0.3-0.2,0.6-0.3,0.9c-0.3,1-0.9,1.6-1.9,1.7
			c-1.1,0.1-1.9-0.3-2.4-1.2c-0.8-1.3-0.8-1.2-2.1-0.5c-3.3,1.8-6.8,2.9-10.6,3.2c-0.2,0-0.3,0-0.5,0c-0.3,0-0.6,0-0.9,0
			c-1.1,0-2.3,0-3.4,0c-0.2,0-0.5,0-0.7,0c-0.2,0-0.5,0-0.7,0c-5.7-0.6-10.6-3.1-14.4-7.4c-3-3.3-5.1-7.1-5.7-11.6
			c0-0.2,0-0.5,0-0.7c-0.1-0.3-0.1-0.5-0.2-0.8c0-0.7,0-1.4,0-2.2c0.1-0.3,0.1-0.5,0.2-0.8c0-0.2,0-0.5,0-0.7
			c0.7-4.4,2.8-8.1,5.9-11.2c7.8-7.7,17.3-11.5,28.2-12.3C47.5,17,48.7,17,49.9,17z M73.6,59.3c0.2,0,0.4,0,0.5,0
			c-0.8-1.9-2.1-3.3-3.6-4.5c-0.4-0.3-0.7-0.7-1.1-1c0.4-0.2,0.9-0.5,1.3-0.7c0.2-0.1,0.3-0.2,0.5-0.3c-0.1-0.2-0.2-0.4-0.4-0.5
			c-1-0.4-2-0.8-3-1.2c-0.3-0.1-0.5-0.4-0.6-0.6c0-0.2,0.2-0.5,0.4-0.6c0.1-0.1,0.4-0.2,0.5-0.3c0.2-0.1,0.3-0.3,0.5-0.4
			c-0.2-0.1-0.4-0.3-0.6-0.4c-1-0.2-2-0.3-3.1-0.5c-0.6-0.1-1,0.2-1.4,0.6c-0.8,1-1.8,1.9-2.6,2.8c-1.6,1.8-3,3.8-4,6
			c-0.4,0.9-0.3,0.9,0.6,0.9c1,0,2-0.2,3-0.2C65,58.1,69.3,58.6,73.6,59.3z M51.2,59.7c0.3,0.6,0.6,1.3,1,1.9c0.8,1.1,2.2,1,2.7-0.3
			c0.1-0.3,0.2-0.6,0.3-0.9c1.2-3.9,3.3-7.2,6.1-10.2c0.6-0.6,1.2-1.2,1.8-1.8c2.3-2.3,3-5,1.4-7.9c-0.3-0.6-0.1-0.9,0.3-1.3
			c1-0.9,1.9-2.1,2-3.5c0.1-2.6-0.2-5.2-0.3-7.8c0-0.4-0.2-0.5-0.5-0.2c-2.5,2.5-5.5,4.4-7.4,7.5C58,35.9,57.7,36,57,35.8
			C55,35,53,34.9,51,35.7c-0.9,0.3-1.2,0.1-1.5-0.7c-0.9-1.8-2.2-3.2-4-4.1c-1.6-0.8-3.3-1.7-4.9-2.6c-0.7-0.4-0.8-0.1-0.8,0.5
			c-0.1,3.7,1.1,7,3.3,9.9c0.6,0.7,0.6,1.2,0.1,2c-1.6,2.6-1.6,5.2,0.2,7.7c0.3,0.5,0.6,0.9,1,1.4C46.9,52.9,49.2,56.2,51.2,59.7z
			 M21.1,59.1c1.2,0.8,2.3,1.7,3.6,2.4c8.4,4.1,16.7,3.2,24.8-1.1c0.8-0.4,0.7-0.8,0.3-1.4c-1.6-2.4-3.3-4.8-4.9-7.2
			c-1.1-1.6-2.2-3.2-3.2-4.9c-0.4-0.6-0.7-1-1.3-1.2c-5.4-1.9-11.7-0.1-15.5,4.4c-0.3,0.4-0.7,0.7-1.1,1.1c-0.6-0.4-0.2-0.8,0.1-1.1
			c1-1,1.9-2.1,3.1-3c4-2.9,8.5-3.7,13.3-2.3c0.8,0.2,0.9,0.1,1.1-0.7c0.2-1.1,0.5-2.3,1-3.3c0.3-0.8,0.4-1.2-0.1-2
			c-2.4-3.2-3.3-6.8-3.1-10.8c0.1-1.2,0.3-1.3,1.3-0.7c1.6,0.9,3.1,1.8,4.7,2.6c2.2,1,3.9,2.4,5,4.6c0.2,0.4,0.4,0.6,0.9,0.4
			c2-0.6,4-0.6,6,0.1c0.5,0.2,0.7,0.1,1-0.3c2.1-3.2,5.4-5.3,8-8c0.2-0.2,0.5-0.2,0.7-0.3c0.1,0.2,0.3,0.5,0.3,0.7
			c0.2,2.3,0.3,4.5,0.5,6.8c0.2,2.3-0.4,4.2-2,5.8c-0.4,0.4-0.4,0.7-0.2,1.1c0.9,2,1.1,4.1,0,6.1c-0.3,0.6-0.2,0.7,0.4,0.6
			c2.1-0.3,3.5-1.6,4.6-3.3c3.1-5.2,2.8-11.7-0.9-16.6c-4.7-6.3-11.1-9.2-18.8-9.7c-5.3-0.3-10.5,0.4-15.6,2.2
			c-6.6,2.3-12.5,5.6-17.2,10.9c-3,3.4-5,7.3-5,11.9C12.7,49.5,15.9,54.8,21.1,59.1z"/>
		<path fill="#9F9F9F" d="M46.3,17c0-0.1,0-0.1,0-0.2c1.2,0,2.4,0,3.6,0c0,0.1,0,0.1,0,0.2C48.7,17,47.5,17,46.3,17z"/>
		<path fill="#1F1F1F" d="M33.8,64.5c1.1,0,2.3,0,3.4,0c0,0.1,0,0.1,0,0.2c-1.1,0-2.2,0-3.4,0C33.8,64.7,33.8,64.6,33.8,64.5z"/>
		<path fill="#5A5A5A" d="M37.2,64.8c0-0.1,0-0.1,0-0.2c0.3,0,0.6,0,0.9,0c0,0.1,0,0.1,0,0.2C37.8,64.8,37.5,64.8,37.2,64.8z"/>
		<path fill="#707070" d="M12,40.5c0.1,0,0.1,0,0.2,0c0,0.2,0,0.5,0,0.7c-0.1,0-0.1,0-0.2,0.1C12,41,12,40.8,12,40.5z"/>
		<path fill="#222222" d="M12,41.3c0.1,0,0.1,0,0.2-0.1C12.1,41.5,12,41.7,12,42C12,41.7,12,41.5,12,41.3z"/>
		<path fill="#262626" d="M12,44.1c0.1,0.3,0.1,0.5,0.2,0.8c-0.1,0-0.1,0-0.2,0C12,44.6,12,44.4,12,44.1z"/>
		<path fill="#707070" d="M12,44.9c0.1,0,0.1,0,0.2,0c0,0.2,0,0.5,0,0.7c-0.1,0-0.1,0-0.2,0C12,45.3,12,45.1,12,44.9z"/>
		<path fill="#ACACAC" d="M32.4,64.8c0-0.1,0-0.1,0-0.2c0.2,0,0.5,0,0.7,0c0,0.1,0,0.1,0,0.2C32.8,64.8,32.6,64.8,32.4,64.8z"/>
		<path fill="#525252" d="M33.1,64.8c0-0.1,0-0.1,0-0.2c0.2,0,0.5,0,0.7,0c0,0.1,0,0.2,0,0.2C33.6,64.8,33.3,64.8,33.1,64.8z"/>
		<path fill="#9D9D9D" d="M38.1,64.8c0-0.1,0-0.1,0-0.2c0.2,0,0.3,0,0.5,0c0,0.1,0,0.1,0,0.2C38.4,64.8,38.3,64.8,38.1,64.8z"/>
		<path fill="#888888" d="M21.1,59.1c1.8-1.8,2.5-4,2.7-6.4c0-0.5,0-1,0-1.5c0.4-0.4,0.7-0.7,1.1-1.1c3.8-4.5,10.1-6.3,15.5-4.4
			c0.6,0.2,1,0.6,1.3,1.2c1,1.7,2.1,3.3,3.2,4.9c1.6,2.4,3.3,4.8,4.9,7.2c0.4,0.6,0.4,1-0.3,1.4c-8.1,4.2-16.4,5.2-24.8,1.1
			C23.4,60.8,22.2,59.9,21.1,59.1z"/>
		<path fill="#888888" d="M73.6,59.3c-4.3-0.7-8.6-1.2-13-1c-1,0-2,0.2-3,0.2c-1,0-1-0.1-0.6-0.9c1-2.2,2.3-4.2,4-6
			c0.9-0.9,1.8-1.8,2.6-2.8c0.4-0.5,0.8-0.7,1.4-0.6c1,0.1,2,0.3,3.1,0.5c0.2,0,0.4,0.2,0.6,0.4c-0.2,0.1-0.3,0.3-0.5,0.4
			c-0.2,0.1-0.4,0.1-0.5,0.3c-0.2,0.2-0.5,0.5-0.4,0.6c0.1,0.2,0.4,0.5,0.6,0.6c1,0.4,2,0.8,3,1.2c0.2,0.1,0.3,0.3,0.4,0.5
			c-0.2,0.1-0.3,0.2-0.5,0.3c-0.4,0.2-0.9,0.5-1.3,0.7c0.4,0.3,0.7,0.7,1.1,1c1.6,1.2,2.9,2.7,3.6,4.5C74,59.3,73.8,59.3,73.6,59.3z
			"/>
		<path fill="#565656" d="M73.6,59.3c0.2,0,0.4,0,0.5,0C74,59.3,73.8,59.3,73.6,59.3z"/>
		<path fill="#050505" d="M45.8,37.3c-0.1,0-0.4,0.2-0.5,0.1c-1.6-0.6-3.3-3.3-3.2-4.9c0-0.1,0.4-0.3,0.5-0.3
			C44.1,32.8,45.9,35.4,45.8,37.3z"/>
		<path fill="#040404" d="M65.4,32.9c-0.4,2-1.3,3.5-3,4.6c-0.2,0.1-0.5,0.2-0.8,0.3c0-0.3-0.1-0.6,0-0.8c0.4-1.9,1.4-3.4,3-4.3
			c0.2-0.1,0.4-0.1,0.6-0.1C65.4,32.5,65.4,32.9,65.4,32.9z"/>
		<path fill="#060606" d="M49.2,48c-1.5-0.6-2.5-1.6-3.1-3.1c-0.2-0.5-0.2-0.8,0.5-0.8c2-0.1,4,1.5,4.1,3.4c0,0.5,0.1,1.1-0.8,1
			c0.1-0.2,0.2-0.5,0.3-0.7c-0.3-0.8-0.4-0.7-1,0C49.2,47.8,49.2,47.9,49.2,48z M46.5,44.6C46.5,44.6,46.5,44.6,46.5,44.6
			c0-0.1-0.1-0.1-0.1-0.1C46.5,44.6,46.5,44.6,46.5,44.6c0.3,0.4,0.5,0.8,0.8,1.2c0.1,0.2,0.5,0.4,0.6,0.4c0.2-0.1,0.4-0.4,0.5-0.6
			c0-0.2-0.3-0.4-0.5-0.5C47.5,44.9,47,44.8,46.5,44.6z"/>
		<path fill="#060606" d="M54.9,60.2c-1.2,1.7-2.1,1.6-3.3-0.5c-0.1-1.3-0.1-1.3,1.2-1.4c0.1,0,0.2,0,0.4,0
			C55.1,58.3,55.1,58.3,54.9,60.2z"/>
		<path fill="#070707" d="M56.4,48c-0.9,0.3-1.1,0.2-1-0.7c0.1-1.8,1.9-3.5,3.7-3.5c0.6,0,0.7,0.3,0.6,0.8c-0.5,1.4-1.5,2.4-2.8,3.2
			c-0.1,0-0.2,0-0.3-0.1l0,0c0.2-0.5-0.1-0.6-0.4-0.7c-0.1,0-0.2,0.3-0.4,0.5c0.2,0.1,0.4,0.2,0.5,0.3C56.4,47.9,56.4,47.9,56.4,48z
			 M58.1,46.2c0.1-0.1,0.2-0.3,0.3-0.5c0.3-0.5,0.6-1,0.9-1.4c-0.5,0.2-1.1,0.4-1.6,0.7c-0.2,0.1-0.4,0.4-0.3,0.5
			C57.4,45.7,57.7,45.8,58.1,46.2z"/>
		<path fill="#090909" d="M59.3,42.4c-0.2,0.1-0.3,0.3-0.5,0.3c-1.5,0.5-2.7,1.4-3.4,2.9c-0.1,0.2-0.5,0.3-0.7,0.4
			c0-0.2-0.1-0.5,0-0.7c0.7-1.7,2-2.7,3.7-3.2c0.3-0.1,0.6,0,0.9,0C59.3,42.2,59.3,42.3,59.3,42.4z"/>
		<path fill="#090909" d="M51.6,46.1c0,0.1-0.1,0.3-0.2,0.3c-0.2,0-0.4-0.1-0.5-0.2c-0.1-0.1-0.2-0.3-0.3-0.5
			c-0.7-1.4-1.8-2.2-3.2-2.7c-0.2-0.1-0.4-0.3-0.6-0.5c0.2-0.1,0.5-0.2,0.7-0.2c1.4,0.2,3.6,2.1,4,3.5
			C51.5,45.8,51.5,45.9,51.6,46.1z"/>
		<path fill="#5F5F5F" d="M50.2,47.7c-0.1,0.2-0.2,0.5-0.3,0.7c-0.1,0-0.2-0.1-0.3-0.1c0-0.1,0-0.2,0-0.3
			C49.8,47.9,50,47.8,50.2,47.7z"/>
		<path fill="#070707" d="M49.6,48c0,0.1,0,0.2,0,0.3c-0.2-0.1-0.3-0.2-0.5-0.3c0-0.1,0-0.1,0-0.2C49.3,47.8,49.5,47.9,49.6,48z"/>
		<path fill="#070707" d="M56.4,48c0-0.1,0-0.1,0-0.2c0.1,0,0.2,0,0.2-0.1c0,0,0,0,0,0c0,0.1,0,0.2,0,0.3C56.5,48,56.4,48,56.4,48z"
			/>
		<path fill="#AFAFAF" d="M56.6,48c0-0.1,0-0.2,0-0.3c0.1,0,0.2,0,0.3,0.1C56.8,47.9,56.7,47.9,56.6,48z"/>
		<path fill="#E8E8E8" d="M49.6,48c-0.2-0.1-0.3-0.2-0.5-0.2c0.6-0.8,0.7-0.8,1,0C50,47.8,49.8,47.9,49.6,48z"/>
		<path fill="#F0F0F0" d="M58.1,46.2c-0.4-0.3-0.7-0.5-0.8-0.7c0-0.1,0.2-0.4,0.3-0.5c0.5-0.3,1.1-0.5,1.6-0.7
			c-0.3,0.5-0.6,1-0.9,1.4C58.3,45.8,58.2,46,58.1,46.2z"/>
		<path fill="#AFAFAF" d="M56.6,47.7c-0.1,0-0.2,0-0.2,0.1c-0.2-0.1-0.4-0.2-0.5-0.3c0.1-0.2,0.3-0.5,0.4-0.5
			C56.6,47.1,56.9,47.3,56.6,47.7z"/>
	</g>
</g>
</svg>
