<?xml version="1.0" encoding="utf-8"?>
<!-- Generator: Adobe Illustrator 23.0.3, SVG Export Plug-In . SVG Version: 6.00 Build 0)  -->
<svg version="1.2" baseProfile="tiny" id="Calque_1"
	 xmlns="http://www.w3.org/2000/svg" xmlns:xlink="http://www.w3.org/1999/xlink" x="0px" y="0px" viewBox="0 0 175.8 84.1"
	 xml:space="preserve">
<path fill="#243C76" d="M128.5,46.2c0,1.7,0,3.4,0,5.1c0,0.3-0.1,0.7-0.2,1c-0.1,0.3-0.2,0.7-0.3,0.9c-0.2,0.3-0.4,0.7-0.6,0.9
	c-0.3,0.2-0.5,0.5-0.8,0.7c-0.3,0.2-0.7,0.4-1,0.5c-0.1,0-0.2,0.1-0.3,0.1c-0.2,0-0.4,0.1-0.5,0.1c-0.2,0-0.3,0.1-0.5,0.1
	c-0.3,0.1-0.5,0-0.8,0.1c-0.2,0-0.4,0.1-0.5,0c-0.3-0.1-0.6,0-0.9-0.1c-0.3,0-0.5-0.1-0.8-0.1c-0.3-0.1-0.5-0.1-0.8-0.2
	c-0.4-0.2-0.9-0.4-1.2-0.7c-0.3-0.2-0.5-0.5-0.7-0.8c-0.1-0.2-0.2-0.5-0.4-0.7c-0.1-0.2-0.2-0.4-0.2-0.7c0-0.1,0-0.1,0-0.2
	c0-0.1,0-0.2,0.1-0.2c0.7,0,1.5,0,2.2,0c0.1,0,0.1,0.1,0.2,0.1c0.1,0.1,0.1,0.2,0.1,0.3c0.2,0.5,0.6,0.8,1.1,1
	c0.3,0.1,0.7,0.2,1.1,0.2c0.2,0,0.5,0,0.7,0c0.6,0,1.2-0.2,1.7-0.6c0.2-0.1,0.3-0.3,0.4-0.5c0.1-0.3,0.3-0.5,0.4-0.8
	c0.1-0.3,0.1-0.7,0.1-1c0-0.5,0-0.9,0-1.4c0,0,0,0,0-0.1c0,0,0,0,0,0c-0.2,0.2-0.3,0.5-0.6,0.7c-0.3,0.2-0.5,0.4-0.8,0.6
	c-0.3,0.2-0.5,0.3-0.8,0.4c-0.2,0.1-0.5,0.1-0.7,0.2c-0.2,0-0.4,0.1-0.6,0c-0.1,0-0.3,0-0.4,0c-0.1-0.1-0.3,0-0.4-0.1
	c-0.5,0-0.8-0.2-1.2-0.4c-0.3-0.1-0.5-0.3-0.7-0.5c-0.1-0.1-0.3-0.3-0.4-0.4c-0.4-0.4-0.7-0.9-1-1.4c-0.2-0.4-0.3-0.8-0.4-1.2
	c-0.2-0.7-0.1-1.4-0.1-2c0.1-0.5,0.2-0.9,0.3-1.4c0.2-0.5,0.5-1,0.8-1.5c0.2-0.3,0.4-0.5,0.7-0.7c0.2-0.2,0.4-0.3,0.7-0.5
	c0.3-0.2,0.6-0.3,1-0.4c0.1,0,0.3-0.1,0.4-0.1c0.2,0,0.3-0.1,0.5-0.1c0.2-0.1,0.5,0,0.7-0.1c0.1,0,0.2,0,0.4,0.1
	c0.1,0,0.2-0.1,0.3,0.1c0.4,0,0.8,0.2,1.1,0.4c0.3,0.1,0.5,0.3,0.7,0.5c0.2,0.2,0.5,0.5,0.7,0.8c0,0,0,0,0.1,0c0,0,0-0.1,0-0.1
	c0-0.4,0-0.9,0-1.3c0-0.1,0-0.1,0.1-0.1c0.4,0,0.8,0,1.2,0c0.4,0,0.7,0,1.1,0c0.1,0,0.1,0,0.1,0.1c0,0.1,0,0.1,0,0.2
	C128.5,42.9,128.5,44.6,128.5,46.2z M120.2,46c0,0,0,0.1,0,0.1c0,0.4,0,0.8,0.1,1.1c0.1,0.5,0.4,1,0.8,1.3c0.1,0.1,0.2,0.2,0.3,0.3
	c0.3,0.2,0.5,0.3,0.8,0.4c0.1,0,0.2,0.1,0.4,0.1c0.1,0,0.3,0,0.4,0.1c0,0,0.1,0,0.1,0c0.1-0.1,0.2-0.1,0.3-0.1
	c0.3,0,0.5-0.1,0.8-0.1c0.2-0.2,0.5-0.3,0.8-0.4c0.3-0.2,0.6-0.6,0.7-0.9c0.2-0.5,0.4-1,0.4-1.5c0-0.1,0-0.2,0-0.3
	c0-0.1,0-0.2,0-0.3c0-0.1,0-0.1,0-0.2c0-0.2,0-0.4,0-0.6c-0.1-0.3-0.2-0.6-0.3-1c-0.2-0.4-0.4-0.7-0.7-0.9c-0.2-0.2-0.5-0.3-0.8-0.4
	c-0.3-0.1-0.5-0.1-0.8-0.1c-0.2,0-0.4,0-0.6,0c-0.3,0-0.6,0.2-0.9,0.3c-0.2,0.1-0.8,0.6-0.9,0.8c-0.4,0.6-0.6,1.2-0.6,1.8
	C120.2,45.7,120.2,45.8,120.2,46z"/>
<path fill="#243C76" d="M40.3,30.2c0.3,0,0.7,0,1,0c0.1,0,0.1,0.1,0.2,0.1c0.2,0.3,0.4,0.6,0.6,0.9c0.2,0.3,0.4,0.6,0.5,0.9
	c0.2,0.4,0.5,0.8,0.7,1.2c0.1,0.2,0.2,0.4,0.3,0.6c0.2,0.4,0.5,0.9,0.8,1.3c0.2,0.3,0.3,0.6,0.5,0.9c0.2,0.3,0.4,0.7,0.6,1
	c0.2,0.3,0.3,0.5,0.5,0.8c0.2,0.3,0.4,0.6,0.6,1c0.2,0.3,0.4,0.6,0.5,0.9c0.2,0.4,0.5,0.8,0.7,1.2c0.2,0.3,0.3,0.6,0.5,0.8
	c0.2,0.4,0.5,0.9,0.8,1.3c0.2,0.3,0.3,0.6,0.5,0.9c0.2,0.3,0.4,0.6,0.5,0.9c0.1,0.2,0.2,0.3,0.3,0.5c0.2,0.3,0.4,0.7,0.6,1
	c0.1,0.1,0.1,0.2,0.2,0.4c-0.1,0.1-0.2,0.1-0.3,0.2c-0.3,0.2-0.6,0.4-0.9,0.6c-0.2,0.1-0.4,0.2-0.6,0.3c-0.1,0-0.1,0.1-0.2,0.1
	c-0.2,0.1-0.3,0.1-0.4-0.1c-0.2-0.4-0.5-0.9-0.7-1.3c-0.2-0.4-0.5-0.8-0.7-1.2c-0.2-0.3-0.4-0.6-0.5-0.9c-0.2-0.4-0.5-0.8-0.7-1.2
	c-0.2-0.3-0.3-0.6-0.5-0.9c-0.2-0.3-0.4-0.6-0.5-0.9c-0.1-0.2-0.2-0.3-0.3-0.5c-0.2-0.3-0.4-0.6-0.5-0.9c-0.1-0.2-0.2-0.3-0.3-0.5
	c-0.2-0.3-0.4-0.6-0.6-0.9c-0.1-0.1-0.2-0.3-0.3-0.4c-0.3-0.4-0.5-0.9-0.8-1.3c-0.2-0.3-0.3-0.6-0.5-0.8c-0.2-0.4-0.5-0.9-0.8-1.3
	c-0.2-0.3-0.4-0.6-0.5-0.9c0,0,0-0.1-0.1-0.1c0-0.1-0.1-0.2-0.1-0.2c0,0.1-0.1,0.1-0.1,0.2C40,33.8,40,34,39.8,34.2
	c-0.3,0.4-0.5,0.9-0.8,1.4c-0.2,0.3-0.3,0.6-0.5,0.9c-0.2,0.3-0.4,0.6-0.5,0.9c-0.1,0.1-0.2,0.3-0.3,0.4c-0.3,0.4-0.5,0.9-0.8,1.3
	c-0.1,0.1-0.2,0.3-0.2,0.4c-0.1,0.3-0.3,0.5-0.4,0.7c-0.1,0.1-0.1,0.2-0.1,0.3c-0.1-0.1-0.2-0.1-0.3-0.2c-0.3-0.2-0.6-0.4-0.9-0.5
	c-0.3-0.2-0.6-0.3-0.9-0.5c-0.2-0.1-0.2-0.1-0.1-0.3c0.2-0.4,0.5-0.9,0.7-1.3c0.1-0.2,0.2-0.3,0.3-0.5c0.2-0.3,0.4-0.7,0.6-1
	c0.2-0.3,0.4-0.6,0.5-0.9c0.2-0.4,0.5-0.8,0.7-1.2c0.1-0.2,0.2-0.3,0.3-0.5c0.3-0.5,0.5-0.9,0.8-1.4c0.2-0.3,0.3-0.6,0.5-0.9
	c0.2-0.4,0.5-0.9,0.7-1.2c0-0.1,0-0.1,0.1-0.1C39.6,30.2,40,30.2,40.3,30.2z"/>
<path fill="#243C76" d="M29,41.6c0.3,0,0.7,0,1,0c0.1,0,0.2,0,0.2,0.1c0.1,0.1,0.2,0.2,0.3,0.3c0.2,0.2,0.5,0.4,0.7,0.6
	c0.4,0.3,0.9,0.5,1.3,0.8c0.2,0.1,0.4,0.2,0.7,0.2c0.3,0.1,0.5,0.1,0.8,0.2c0.5,0.1,1.1,0.1,1.6,0.1c0.1,0,0.3,0,0.4,0
	c0.5,0,0.9-0.1,1.4-0.3c0.5-0.2,1-0.4,1.5-0.6c0.4-0.2,0.7-0.4,1-0.7c0.3-0.2,0.5-0.5,0.8-0.7c0.1-0.1,0.2-0.2,0.2-0.2
	c0.1,0.1,0.1,0.2,0.2,0.2c0.1,0.1,0.2,0.2,0.3,0.3c0.3,0.3,0.6,0.6,0.9,0.8c0.1,0.1,0.3,0.2,0.4,0.3c0.1,0.1,0.1,0.2,0,0.2
	c-0.3,0.3-0.5,0.6-0.8,0.8c-0.5,0.4-1,0.8-1.6,1.2c-0.3,0.2-0.7,0.4-1.1,0.6c-0.3,0.1-0.6,0.3-1,0.4c-0.3,0.1-0.5,0.1-0.8,0.2
	c-0.3,0.1-0.6,0.1-0.8,0.2c0,0,0,0-0.1,0c-0.2,0-0.5,0.1-0.7,0.1c-0.2,0-0.5,0-0.7,0c-0.2,0-0.4,0-0.6,0c-0.1,0-0.3-0.1-0.4-0.1
	c-0.1,0-0.2,0-0.4,0c-0.1-0.1-0.3,0-0.5-0.1c-0.3-0.1-0.6-0.1-0.8-0.2c-0.4-0.1-0.8-0.3-1.1-0.4c-0.3-0.1-0.5-0.3-0.8-0.4
	c-0.4-0.2-0.8-0.5-1.2-0.7c0,0-0.1-0.1-0.1-0.1c-0.1,0-0.1-0.2-0.2-0.1c-0.1,0-0.1,0.1-0.1,0.2c-0.1,0.2-0.2,0.4-0.3,0.6
	c-0.3,0.5-0.6,1-0.9,1.5c-0.2,0.3-0.4,0.6-0.5,0.9c-0.2,0.4-0.5,0.8-0.7,1.2c-0.2,0.3-0.3,0.5-0.4,0.8c-0.2,0.3-0.4,0.6-0.6,0.9
	c-0.2,0.3-0.3,0.6-0.5,0.8c-0.2,0.4-0.5,0.9-0.8,1.3c-0.1,0.2-0.2,0.4-0.3,0.6c0,0-0.1,0.1-0.1,0.1c-0.1,0.1-0.1,0.1-0.2,0
	c-0.2-0.1-0.4-0.2-0.6-0.3c-0.3-0.2-0.6-0.4-0.9-0.6c-0.2-0.1-0.3-0.2-0.5-0.3c-0.1-0.1-0.1-0.1-0.1-0.2c0.1-0.1,0.2-0.3,0.3-0.4
	c0.2-0.3,0.3-0.6,0.5-0.9c0.2-0.3,0.3-0.6,0.5-0.8c0.2-0.4,0.5-0.9,0.8-1.3c0.2-0.3,0.3-0.5,0.5-0.8c0.2-0.3,0.4-0.6,0.6-1
	c0.2-0.3,0.4-0.6,0.5-0.9c0.2-0.4,0.5-0.8,0.7-1.2c0.2-0.3,0.3-0.6,0.5-0.9c0.2-0.3,0.4-0.6,0.6-0.9c0.2-0.3,0.3-0.5,0.5-0.8
	c0,0,0-0.1,0.1-0.1c0.1-0.2,0.1-0.2,0.4-0.2C28.3,41.6,28.7,41.6,29,41.6z"/>
<path fill="#233C78" d="M111.8,46.9c-1.3,0-2.5,0-3.8,0c-0.2,0-0.2,0-0.2,0.2c0,0.1,0,0.1,0,0.2c0,0.3,0.1,0.6,0.2,0.9
	c0.1,0.4,0.3,0.8,0.6,1.1c0.3,0.3,0.7,0.5,1.1,0.6c0.2,0.1,0.5,0.1,0.7,0.1c0.2,0,0.4,0,0.7,0c0.4,0,0.8-0.1,1.1-0.3
	c0.4-0.2,0.7-0.6,0.9-1c0,0,0-0.1,0-0.1c0.1-0.2,0.1-0.2,0.3-0.2c0.7,0,1.4,0,2.1,0c0.2,0,0.2,0,0.1,0.2c-0.1,0.2-0.1,0.4-0.1,0.6
	c-0.1,0.4-0.3,0.7-0.6,1c-0.1,0.1-0.2,0.2-0.3,0.4c-0.3,0.4-0.8,0.6-1.2,0.8c-0.4,0.2-0.8,0.3-1.2,0.4c-0.1,0.1-0.3,0-0.5,0.1
	c-0.1,0.1-0.3,0-0.5,0c-0.2,0-0.3,0.1-0.5,0.1c-0.3,0-0.6-0.1-0.9-0.1c-0.2-0.1-0.5-0.1-0.7-0.2c-0.2-0.1-0.5-0.2-0.7-0.2
	c-0.2-0.1-0.4-0.2-0.6-0.3c-0.2-0.1-0.4-0.2-0.6-0.4c-0.3-0.2-0.6-0.5-0.9-0.8c-0.3-0.3-0.5-0.7-0.7-1.1c-0.1-0.3-0.3-0.7-0.3-1.1
	c-0.1-0.3-0.1-0.5-0.1-0.8c-0.1-0.3,0-0.7,0-1c0-0.2,0-0.3,0-0.5c0.1-0.1,0-0.3,0.1-0.5c0-0.3,0.2-0.6,0.2-0.9
	c0-0.1,0.1-0.2,0.1-0.4c0.1-0.3,0.3-0.7,0.5-1c0.2-0.3,0.5-0.7,0.8-0.9c0.2-0.2,0.4-0.4,0.7-0.5c0.2-0.1,0.5-0.2,0.7-0.4
	c0.3-0.2,0.6-0.2,0.9-0.3c0.3-0.1,0.6-0.1,0.8-0.1c0.2,0,0.4-0.1,0.6,0c0.5,0,1,0.1,1.5,0.2c0.6,0.1,1.1,0.4,1.6,0.8
	c0.3,0.2,0.5,0.4,0.7,0.7c0.3,0.3,0.5,0.7,0.7,1c0.2,0.4,0.3,0.8,0.4,1.2c0.1,0.3,0.1,0.7,0.1,1c0.1,0.4,0,0.8,0,1.2
	c0,0.1,0,0.1-0.1,0.1C114.4,46.9,113.1,46.9,111.8,46.9z M110.6,45.2c0.8,0,1.6,0,2.4,0c0.1,0,0.2,0,0.3,0c0-0.1,0-0.2,0-0.3
	c0,0,0-0.1,0-0.1c0-0.4-0.1-0.7-0.3-1.1c-0.2-0.4-0.6-0.7-1-1c-0.2-0.1-0.7-0.2-0.9-0.2c-0.2,0-0.4,0-0.6,0c-0.4,0-0.7,0.1-1,0.3
	c-0.3,0.2-0.6,0.4-0.8,0.7c-0.1,0.2-0.3,0.4-0.4,0.6c-0.1,0.2-0.1,0.3-0.2,0.5c-0.1,0.2-0.1,0.3-0.1,0.5c-0.1,0.1,0,0.2,0.2,0.2
	C108.9,45.2,109.7,45.2,110.6,45.2z"/>
<path fill="#243C76" d="M147.4,46.3c0,0.2,0,0.4,0,0.5c0,0.4-0.1,0.8-0.2,1.3c-0.1,0.4-0.3,0.8-0.4,1.1c-0.1,0.2-0.2,0.4-0.3,0.5
	c-0.2,0.3-0.5,0.6-0.9,0.9c-0.4,0.3-0.9,0.6-1.4,0.8c-0.3,0.1-0.7,0.2-1,0.3c-0.1,0-0.3,0-0.4,0.1c-0.3,0-0.7,0.1-1,0.1
	c-0.1,0-0.3,0-0.4-0.1c-0.1,0-0.3,0-0.4-0.1c-0.3,0-0.6-0.1-0.9-0.2c-0.1,0-0.1-0.1-0.2-0.1c-0.5-0.1-0.8-0.4-1.2-0.6
	c-0.3-0.2-0.6-0.5-0.9-0.8c-0.3-0.4-0.6-0.8-0.8-1.3c-0.1-0.3-0.3-0.7-0.3-1.1c-0.1-0.1,0-0.3-0.1-0.4c-0.1-0.1,0-0.3,0-0.4
	c0-0.1,0-0.3-0.1-0.4c0-0.1,0-0.3,0-0.4c0-0.2,0-0.3,0.1-0.5c0-0.1-0.1-0.3,0.1-0.4c0-0.2,0.1-0.4,0.1-0.6c0.1-0.4,0.2-0.7,0.4-1.1
	c0.2-0.4,0.4-0.8,0.7-1.1c0.2-0.2,0.3-0.3,0.5-0.5c0.2-0.1,0.4-0.3,0.6-0.4c0.1-0.1,0.3-0.2,0.4-0.2c0.1-0.1,0.3-0.2,0.5-0.2
	c0.2,0,0.3-0.2,0.5-0.1c0.1-0.1,0.3-0.1,0.5-0.2c0.1-0.1,0.3,0,0.4-0.1c0.4,0,0.8-0.1,1.2-0.1c0.1,0,0.2,0,0.4,0.1
	c0.1,0,0.3,0,0.4,0.1c0.3,0,0.6,0.2,0.9,0.2c0.1,0,0.2,0.1,0.4,0.2c0.2,0.1,0.3,0.1,0.5,0.2c0.1,0.1,0.3,0.2,0.5,0.3
	c0.1,0.1,0.2,0.1,0.3,0.2c0.2,0.2,0.5,0.3,0.7,0.6c0.1,0.1,0.2,0.2,0.3,0.3c0.3,0.3,0.4,0.7,0.6,1.1c0.1,0.3,0.2,0.5,0.3,0.8
	C147.4,45.2,147.5,45.7,147.4,46.3z M144.9,46.3c0-0.3,0-0.5,0-0.8c0-0.2-0.1-0.5-0.2-0.7c-0.1-0.3-0.3-0.7-0.4-1
	c-0.1-0.2-0.3-0.4-0.5-0.6c-0.2-0.1-0.3-0.3-0.5-0.3c-0.4-0.2-0.8-0.2-1.2-0.3c-0.2,0-0.4,0-0.6,0c-0.3,0-0.6,0.1-0.9,0.2
	c-0.6,0.3-0.8,0.5-1.2,1.1c-0.3,0.4-0.4,0.9-0.5,1.4c0,0.3-0.1,0.6-0.1,0.9c0,0.1,0,0.2,0,0.2c0,0.1,0,0.2,0.1,0.2
	c0,0.2,0,0.4,0.1,0.6c0.1,0.2,0.2,0.8,0.3,1c0.2,0.5,0.6,0.9,1,1.2c0.2,0.1,0.4,0.2,0.6,0.3c0.2,0.1,0.5,0.1,0.7,0.1
	c0.4,0,0.7,0,1.1-0.1c0.3-0.1,0.5-0.2,0.8-0.3c0.2-0.1,0.4-0.3,0.5-0.5c0.1-0.2,0.3-0.3,0.4-0.5c0.2-0.3,0.4-0.7,0.4-1
	c0.1-0.1,0-0.2,0.1-0.3c0.1-0.1,0.1-0.2,0.1-0.4C144.9,46.6,144.9,46.5,144.9,46.3z"/>
<path fill="#243C76" d="M149.3,46.3c0-1.7,0-3.4,0-5.1c0-0.1,0-0.1,0-0.2c0-0.1,0-0.1,0.1-0.1c0.6,0,1.1,0,1.7,0c0.2,0,0.4,0,0.6,0
	c0.1,0,0.1,0,0.1,0.1c0,0.4,0,0.8,0,1.3c0,0.1,0,0.1,0,0.2c0,0,0,0,0,0c0,0,0,0,0,0c0.2-0.3,0.4-0.6,0.6-0.8
	c0.2-0.2,0.4-0.3,0.6-0.4c0.2-0.1,0.4-0.2,0.6-0.3c0.2-0.1,0.4-0.1,0.6-0.2c0.1,0,0.2,0,0.3-0.1c0.1,0,0.2,0,0.3,0
	c0.2-0.1,0.4,0,0.5-0.1c0.1,0,0.2,0,0.4,0c0.1,0,0.3,0,0.3,0c0.1,0.1,0.3,0,0.3,0.1c0.4,0,0.8,0.3,1.1,0.5c0.3,0.2,0.5,0.5,0.7,0.8
	c0.2,0.3,0.4,0.8,0.5,1.2c0,0.2,0.1,0.4,0.1,0.6c0.1,0.3,0,0.6,0,0.9c0,2.2,0,4.3,0,6.5c0,0,0,0,0,0.1c0,0.2,0,0.2-0.3,0.2
	c-0.3,0-0.6,0-0.9,0c-0.4,0-0.8,0-1.1,0c-0.3,0-0.3,0-0.3-0.2c0-1.1,0-2.2,0-3.3c0-1.1,0-2.3,0-3.4c0-0.3-0.1-0.6-0.1-0.8
	c-0.1-0.4-0.4-0.8-0.8-1c-0.3-0.1-0.5-0.2-0.8-0.2c-0.2,0-0.3-0.1-0.5-0.1c-0.4,0-0.8,0.1-1.2,0.3c-0.5,0.3-0.9,0.7-1.1,1.2
	c0,0.1-0.1,0.2-0.1,0.3c0,0.2-0.1,0.5-0.1,0.7c0,2,0,4.1,0,6.1c0,0.1,0,0.1,0,0.2c0,0.1,0,0.1-0.1,0.1c-0.5,0-1,0-1.6,0
	c-0.2,0-0.5,0-0.7,0c-0.1,0-0.1,0-0.1-0.1c0-0.1,0-0.1,0-0.2C149.3,49.7,149.3,48,149.3,46.3z"/>
<path fill="#223B76" d="M40.6,50.8c3.9,0,7.8,0,11.7,0c0.2,0,0.2,0,0.2,0.2c0,0.7,0,1.5,0,2.2c0,0.1,0,0.2-0.1,0.1
	c-0.1,0-0.1,0-0.2,0c-7.8,0-15.5,0-23.3,0c0,0,0,0-0.1,0c-0.2,0-0.2,0-0.2-0.2c0-0.7,0-1.5,0-2.2c0-0.1,0-0.2,0.1-0.1
	c0.1,0,0.1,0,0.2,0C32.8,50.8,36.7,50.8,40.6,50.8z"/>
<path fill="#FCDF09" d="M47.2,17.7c0.8,0,1.7,0,2.5,0c0.1,0,0.2-0.1,0.2-0.1c0.1-0.5,0.3-0.9,0.4-1.4c0-0.2,0.1-0.4,0.2-0.6
	c0.1-0.2,0.1-0.4,0.2-0.5c0.1-0.4,0.2-0.7,0.3-1.1c0.1-0.4,0.2-0.8,0.4-1.2c0,0,0-0.1,0.1-0.1c0,0,0,0,0-0.1c0,0,0,0,0,0.1
	c0.1,0.2,0.1,0.3,0.2,0.5c0.1,0.6,0.4,1.1,0.5,1.6c0.1,0.5,0.3,1,0.5,1.5c0.1,0.4,0.3,0.8,0.4,1.2c0,0.2,0.1,0.2,0.3,0.2
	c1.6,0,3.2,0,4.8,0c0.1,0,0.1,0,0.2,0c0,0,0.1,0,0.1,0c0,0-0.1,0.1-0.1,0.1c-0.2,0.1-0.3,0.2-0.5,0.4c-0.3,0.2-0.6,0.4-0.8,0.6
	c-0.2,0.2-0.4,0.3-0.7,0.5c-0.3,0.2-0.5,0.4-0.8,0.6c-0.2,0.2-0.5,0.4-0.7,0.5c-0.2,0.1-0.4,0.3-0.6,0.4c-0.1,0-0.1,0.1,0,0.2
	c0.1,0.4,0.3,0.8,0.4,1.2c0.2,0.6,0.4,1.2,0.6,1.8c0.1,0.5,0.3,1,0.5,1.5c0,0,0,0.1,0,0.1c0,0,0,0.1,0,0.1c0,0-0.1,0-0.1-0.1
	c-0.2-0.1-0.4-0.3-0.6-0.4c-0.3-0.2-0.5-0.4-0.8-0.6c-0.3-0.2-0.5-0.4-0.8-0.6c-0.3-0.2-0.5-0.4-0.8-0.6c-0.3-0.2-0.5-0.4-0.8-0.6
	c-0.1-0.1-0.2-0.1-0.3-0.2c-0.1-0.1-0.1,0-0.2,0c-0.4,0.3-0.7,0.6-1.1,0.8c-0.5,0.3-0.9,0.7-1.4,1c-0.4,0.3-0.8,0.6-1.3,0.9
	c0,0-0.1,0-0.1,0.1c-0.1,0-0.1,0.1-0.2,0.1c0,0,0-0.1,0-0.2c0.1-0.4,0.2-0.7,0.3-1.1c0.1-0.3,0.2-0.7,0.3-1.1c0.1-0.3,0.2-0.6,0.3-1
	c0.1-0.1,0-0.2,0.1-0.3c0.1-0.1,0.1-0.2,0.1-0.3s0-0.2,0.1-0.3c0.1-0.1,0.1-0.2,0.1-0.3c0,0,0-0.1,0-0.1c0-0.1,0.1-0.2,0.1-0.2
	c0-0.1-0.1-0.2-0.2-0.2c-0.5-0.3-1-0.7-1.5-1.1c-0.3-0.2-0.6-0.4-0.9-0.6c-0.3-0.3-0.7-0.5-1-0.7c-0.2-0.2-0.4-0.3-0.6-0.4
	c0,0,0,0-0.1-0.1c0,0,0.1,0,0.1,0C45.5,17.7,46.4,17.7,47.2,17.7z"/>
<path fill="#FCDF09" d="M58.1,29.8c0.3,0,0.7,0,1,0c0.3,0,0.6,0.1,0.9,0.1c0.3,0,0.6,0,0.9,0c0,0,0.1,0,0.1,0c0.1,0,0.2,0,0.2-0.2
	c0.1-0.4,0.3-0.9,0.4-1.3c0.2-0.7,0.4-1.3,0.6-2c0.1-0.2,0.1-0.4,0.2-0.7c0,0,0-0.1,0.1-0.1c0,0,0.1,0,0.1,0c0,0.3,0.2,0.5,0.2,0.8
	c0.1,0.5,0.3,1,0.5,1.6c0.1,0.3,0.2,0.5,0.3,0.8c0.1,0.3,0.2,0.5,0.3,0.8c0,0.1,0,0.1,0.1,0.2c0,0,0,0.1,0.1,0.1c0.1,0,0.1,0,0.2,0
	c1.3,0,2.6,0,3.9,0c0.1,0,0.1,0,0.2,0c0,0,0,0.1,0,0.1c0,0-0.1,0-0.1,0.1c-0.5,0.3-0.9,0.7-1.4,1c-0.5,0.3-1,0.7-1.4,1
	c-0.1,0.1-0.3,0.2-0.4,0.3c-0.1,0-0.1,0.1-0.2,0.1c0,0.1,0,0.2,0,0.3c0.1,0.2,0.2,0.5,0.2,0.7c0.1,0.5,0.3,1,0.5,1.4
	c0.2,0.5,0.3,1.1,0.5,1.6c0,0,0,0.1,0,0.1c0,0,0,0,0,0c0,0-0.1,0-0.1,0c-0.1,0-0.1-0.1-0.2-0.1c-0.4-0.3-0.9-0.6-1.3-0.9
	c-0.3-0.3-0.7-0.5-1-0.8c-0.3-0.2-0.6-0.4-0.8-0.6c-0.1,0-0.1,0-0.1,0c-0.2,0.1-0.3,0.3-0.5,0.4c-0.2,0.1-0.4,0.3-0.5,0.4
	c-0.3,0.2-0.5,0.4-0.8,0.6c-0.3,0.2-0.6,0.4-0.9,0.6c-0.2,0.1-0.4,0.3-0.5,0.4c0,0-0.1,0-0.1,0c0,0,0-0.1,0-0.1
	c0.1-0.2,0.1-0.3,0.2-0.5c0.1-0.4,0.2-0.7,0.4-1.1c0.2-0.5,0.3-1,0.5-1.5c0.1-0.3,0.2-0.5,0.3-0.8c0,0,0-0.1,0-0.1
	c0-0.1-0.1-0.1-0.1-0.1c-0.2-0.1-0.4-0.3-0.6-0.4c-0.3-0.2-0.6-0.4-0.8-0.6c-0.2-0.1-0.4-0.3-0.6-0.4c-0.3-0.2-0.6-0.4-0.9-0.6
	c-0.1-0.1-0.3-0.2-0.4-0.3c0,0,0-0.1,0-0.1c0,0,0.1,0,0.1,0C57.3,29.8,57.7,29.8,58.1,29.8z"/>
<path fill="#FCDF09" d="M31.5,16c0.7,0,1.4,0,2.1,0c0.1,0,0.2-0.1,0.2-0.1c0-0.2,0.2-0.5,0.2-0.7c0-0.3,0.1-0.5,0.2-0.7
	c0.2-0.4,0.3-0.8,0.4-1.3c0.1-0.3,0.2-0.5,0.3-0.8c0.1-0.2,0.1-0.4,0.2-0.6c0,0,0,0,0-0.1c0,0,0,0,0,0c0.1,0.1,0.1,0.3,0.1,0.4
	c0.1,0.4,0.2,0.7,0.3,1.1c0.1,0.4,0.2,0.9,0.4,1.3c0.1,0.3,0.2,0.5,0.3,0.8c0.1,0.2,0.1,0.3,0.1,0.5c0,0.1,0.1,0.2,0.2,0.2
	c0.1,0,0.1,0,0.2,0c1.2,0,2.5,0,3.7,0c0.1,0,0.1,0,0.2,0c0,0,0.1,0,0.1,0c0,0-0.1,0.1-0.1,0.1c-0.2,0.1-0.3,0.2-0.5,0.4
	c-0.3,0.2-0.7,0.5-1,0.7c-0.2,0.1-0.4,0.3-0.6,0.5c-0.3,0.2-0.5,0.4-0.8,0.6c-0.1,0.1-0.3,0.2-0.4,0.3c-0.1,0-0.1,0.1,0,0.2
	c0.1,0.5,0.3,1,0.5,1.6c0.1,0.3,0.2,0.5,0.3,0.8c0.1,0.3,0.1,0.5,0.2,0.8c0.1,0.3,0.1,0.5,0.3,0.8c0,0,0,0.1,0,0.1
	c0,0.1,0,0.1-0.1,0c-0.1-0.1-0.1-0.1-0.2-0.1c-0.1,0-0.1-0.1-0.2-0.1c-0.3-0.2-0.6-0.5-0.9-0.7c-0.2-0.2-0.4-0.3-0.6-0.4
	c-0.3-0.2-0.6-0.5-0.9-0.7c-0.1-0.1-0.3-0.2-0.4-0.3c-0.1-0.1-0.2-0.1-0.3,0c-0.3,0.2-0.6,0.5-0.9,0.7c-0.4,0.3-0.7,0.5-1.1,0.8
	c-0.2,0.1-0.4,0.3-0.6,0.5c-0.2,0.2-0.4,0.3-0.7,0.5c0,0-0.1,0-0.1,0c0-0.1,0-0.1,0-0.2c0.2-0.5,0.3-1,0.5-1.4
	c0.2-0.6,0.4-1.3,0.6-1.9c0-0.2,0.1-0.4,0.1-0.5c0-0.1,0-0.2-0.1-0.2c-0.2-0.2-0.4-0.3-0.6-0.5c-0.2-0.1-0.4-0.3-0.6-0.4
	c-0.3-0.2-0.6-0.4-0.8-0.6c-0.2-0.2-0.4-0.3-0.6-0.4c-0.3-0.2-0.5-0.4-0.8-0.5c0,0,0,0,0,0c0,0,0,0,0,0c0.1,0,0.1,0,0.2,0
	C30.2,16,30.9,16,31.5,16z"/>
<path fill="#223B76" d="M97.6,46.3c0-1.7,0-3.4,0-5.1c0-0.1,0-0.1,0-0.2c0-0.1,0.1-0.1,0.1-0.2c0,0,0.1,0,0.1,0c0.7,0,1.4,0,2.2,0
	c0.1,0,0.1,0,0.1,0.1c0,0.6,0,1.2,0,1.8c0,0,0,0.1,0,0.1c0,0,0,0,0.1-0.1c0.1-0.1,0.1-0.2,0.2-0.3c0.1-0.3,0.3-0.5,0.5-0.7
	c0.2-0.2,0.5-0.4,0.7-0.6c0.3-0.2,0.7-0.3,1.1-0.4c0.1,0,0.2,0,0.4-0.1c0.1,0,0.2,0,0.4-0.1c0.1,0,0.1,0,0.1,0.1c0,0.7,0,1.5,0,2.2
	c0,0.1,0,0.1-0.1,0.1c-0.1,0-0.2,0-0.3,0c-0.2,0-0.4,0-0.5,0c-0.2,0-0.4,0.1-0.6,0.1c-0.2,0-0.3,0.1-0.5,0.2
	c-0.2,0.1-0.4,0.2-0.5,0.3c-0.1,0.1-0.1,0.1-0.2,0.2c-0.3,0.3-0.5,0.7-0.6,1.1c-0.1,0.2,0,0.4-0.1,0.6c-0.1,0.6,0,1.3-0.1,1.9
	c0,0.7,0,1.3,0,2c0,0.7,0,1.3,0,2c0,0.2,0,0.2-0.2,0.2c-0.3,0-0.5,0-0.8,0c-0.4,0-0.8,0-1.2,0c-0.1,0-0.2,0-0.3,0
	c-0.1,0,0-0.2,0-0.3c0-1.6,0-3.3,0-4.9C97.6,46.4,97.6,46.4,97.6,46.3z"/>
<path fill="#FCDF09" d="M84.6,49.6c2.2,0,4.4,0,6.5,0c0.1,0,0.2,0,0.2,0c0.1,0,0.1,0,0.1,0.1c0,0.7,0,1.3,0,2c0,0.1,0,0.1-0.1,0.1
	c-0.1,0-0.1,0-0.2,0c-4.4,0-8.8,0-13.2,0c-0.1,0-0.1,0-0.2,0c-0.1,0-0.1,0-0.1-0.1c0-0.7,0-1.3,0-2c0-0.1,0-0.1,0.1-0.1
	c0.1,0,0.2,0,0.2,0C80.2,49.6,82.4,49.6,84.6,49.6z"/>
<path fill="#FCDF09" d="M60.6,43.2c0.5,0.1,1,0,1.5,0.1c0.5,0,1.1,0,1.6,0c0.1,0,0.2,0,0.3,0c0.1,0,0-0.2,0.1-0.2
	c0.2-0.6,0.4-1.2,0.6-1.8c0.2-0.4,0.3-0.9,0.4-1.4c0,0,0,0,0-0.1c0,0,0,0,0,0c0,0,0,0,0,0c0,0.3,0.2,0.6,0.2,0.9
	c0,0.3,0.1,0.5,0.2,0.7c0.2,0.4,0.3,0.8,0.4,1.3c0,0.1,0,0.1,0.1,0.2c0,0.1,0.1,0.3,0.1,0.4c0.1,0.1,0.2,0,0.4,0c1,0,2,0,3.1,0
	c0.1,0,0.1,0,0.2,0c0,0,0,0.1,0,0.1c0,0-0.1,0.1-0.1,0.1c-0.3,0.2-0.6,0.4-1,0.7c-0.3,0.2-0.6,0.5-0.9,0.7c-0.2,0.2-0.4,0.3-0.7,0.5
	c-0.2,0.2-0.2,0.2-0.1,0.4c0.1,0.5,0.3,1,0.5,1.6c0.2,0.5,0.3,1,0.5,1.4c0,0,0,0,0,0.1c0,0,0,0.1,0,0.1c0,0-0.1,0-0.1,0
	c-0.5-0.3-0.9-0.7-1.4-1c-0.4-0.3-0.8-0.6-1.2-0.8c0,0,0,0,0,0c-0.2-0.2-0.2-0.2-0.4,0c-0.4,0.3-0.8,0.6-1.2,0.9
	c-0.3,0.2-0.7,0.5-1,0.7c-0.2,0.1-0.3,0.2-0.5,0.4c0,0,0,0-0.1,0c0,0,0-0.1,0-0.1c0.1-0.3,0.2-0.5,0.2-0.8c0.1-0.4,0.3-0.9,0.4-1.3
	c0.2-0.4,0.2-0.8,0.4-1.2c0-0.1,0.1-0.2-0.1-0.2c-0.4-0.3-0.8-0.6-1.3-0.9c-0.4-0.3-0.8-0.6-1.2-0.9c-0.1-0.1-0.2-0.1-0.3-0.2
	c0,0,0-0.1-0.1-0.1c0,0,0.1,0,0.1,0C60.5,43.2,60.5,43.2,60.6,43.2z"/>
<path fill="#FCDF09" d="M19.7,21.9c0.5,0,1.1,0,1.6,0c0.1,0,0.2,0,0.2-0.2c0.1-0.3,0.2-0.6,0.3-0.9c0.1-0.3,0.2-0.6,0.3-0.9
	c0.2-0.5,0.3-1,0.5-1.5c0,0,0,0,0-0.1c0,0,0.1,0,0.1,0c0.1,0.1,0.1,0.3,0.1,0.4c0,0.4,0.2,0.7,0.3,1.1c0.1,0.4,0.2,0.7,0.3,1.1
	c0.1,0.3,0.2,0.6,0.3,0.9c0,0.1,0,0.1,0.1,0.1c0.1,0,0.3,0,0.4,0c1,0,2,0,3,0c0,0,0.1,0,0.1,0c0,0,0,0.1-0.1,0.1
	c-0.4,0.2-0.7,0.5-1,0.7c-0.2,0.2-0.4,0.3-0.7,0.5c-0.3,0.2-0.5,0.4-0.8,0.5c-0.1,0.1-0.2,0.1-0.3,0.2c-0.2,0.1-0.2,0.1-0.1,0.3
	c0.1,0.3,0.2,0.7,0.3,1c0.1,0.4,0.2,0.7,0.3,1.1c0.1,0.3,0.2,0.7,0.4,1c0,0,0,0,0,0.1c0,0,0,0.1,0,0.1c0,0,0,0-0.1,0
	c-0.1-0.1-0.2-0.2-0.4-0.2c-0.3-0.3-0.7-0.5-1-0.7c-0.2-0.1-0.4-0.3-0.6-0.4c-0.2-0.2-0.5-0.4-0.8-0.6c-0.1-0.1-0.2-0.1-0.3,0
	c-0.2,0.1-0.3,0.3-0.5,0.4c-0.3,0.2-0.6,0.4-0.8,0.6c-0.3,0.2-0.5,0.4-0.8,0.6c-0.1,0.1-0.2,0.2-0.4,0.3c-0.1,0-0.1,0.1-0.2,0.1
	c0,0-0.1,0-0.1,0c0,0,0-0.1,0-0.1c0.1-0.2,0.1-0.4,0.2-0.6c0.2-0.5,0.4-1.1,0.5-1.6c0.1-0.3,0.2-0.6,0.3-0.9c0-0.1,0-0.2,0-0.2
	c0-0.1-0.1-0.1-0.2-0.1c-0.4-0.3-0.8-0.6-1.2-0.9c-0.3-0.3-0.7-0.5-1.1-0.8C18.2,22.2,18.1,22,18,22c-0.1,0-0.1-0.1-0.1-0.1
	c0.1,0,0.1,0,0.2,0C18.6,21.9,19.2,21.9,19.7,21.9z"/>
<path fill="#243C76" d="M134,46.3c0,1.7,0,3.5,0,5.2c0,0.1,0,0.2-0.1,0.2c-0.7,0-1.5,0-2.2,0c-0.1,0-0.2,0-0.1-0.1c0,0,0-0.1,0-0.1
	c0-3.4,0-6.9,0-10.3c0-0.2,0-0.2,0.2-0.2c0.7,0,1.4,0,2,0c0.3,0,0.3,0,0.3,0.2c0,1.6,0,3.3,0,4.9C134,46.1,134,46.2,134,46.3z"/>
<path fill="#243D78" d="M81.7,44.5c-0.8,0-1.6,0-2.4,0c-0.1,0-0.1,0-0.1,0.1c0,0.6,0.2,1.1,0.6,1.5c0.2,0.2,0.4,0.3,0.7,0.3
	c0.3,0.1,0.7,0.1,1,0c0.3,0,0.6-0.2,0.8-0.4c0.1-0.1,0.2-0.3,0.2-0.4c0.1-0.2,0.1-0.2,0.2-0.2c0.4,0,0.8,0,1.2,0
	c0.1,0,0.1,0,0.1,0.1c0,0.2,0,0.3-0.1,0.4c-0.2,0.4-0.3,0.7-0.7,1c-0.1,0.1-0.2,0.1-0.3,0.2c-0.2,0.1-0.3,0.2-0.5,0.2
	c-0.2,0.2-0.4,0.1-0.6,0.2c0,0-0.1,0-0.1,0c-0.2,0-0.4,0-0.6,0.1c-0.2,0-0.4,0-0.6,0c-0.2,0-0.5-0.1-0.7-0.1
	c-0.4-0.1-0.8-0.2-1.1-0.5c-0.6-0.4-1-0.9-1.2-1.5c-0.1-0.2-0.1-0.4-0.1-0.6c-0.1-0.5-0.1-1,0-1.5c0-0.3,0.1-0.7,0.3-1
	c0.1-0.1,0.1-0.3,0.2-0.4c0.2-0.3,0.4-0.6,0.7-0.8c0.2-0.1,0.4-0.3,0.6-0.4c0.3-0.1,0.6-0.2,0.9-0.3c0.4-0.1,0.8-0.1,1.2,0
	c0.5,0,0.9,0.2,1.3,0.5c0.5,0.3,0.8,0.7,1,1.2c0.1,0.3,0.2,0.7,0.3,1c0.1,0.4,0,0.7,0,1.1c0,0.1,0,0.1-0.1,0.1c-0.4,0-0.8,0-1.3,0
	C82.4,44.5,82,44.5,81.7,44.5z M80.9,43.5c0.5,0,1.1,0,1.6,0c0.1,0,0.1,0,0.1-0.1c-0.1-0.1-0.1-0.3-0.1-0.5
	c-0.1-0.4-0.3-0.7-0.6-0.8c-0.4-0.3-0.9-0.3-1.5-0.2c-0.4,0.1-0.6,0.3-0.9,0.7c-0.1,0.1-0.1,0.2-0.2,0.4c-0.1,0.2-0.1,0.3-0.2,0.5
	c0,0,0,0.1,0.1,0.1C79.8,43.5,80.3,43.5,80.9,43.5z"/>
<path fill="#243D78" d="M85.5,44.2c0-1.1,0-2.2,0-3.2c0-0.2,0-0.2,0.2-0.2c0.4,0,0.9,0,1.3,0c0.2,0,0.2,0,0.2,0.2c0,0.2,0,0.5,0,0.7
	c0,0,0,0.1,0,0.1c0,0,0-0.1,0-0.1c0.3-0.4,0.6-0.7,1.1-0.9c0.5-0.2,1-0.2,1.5-0.2c0.3,0,0.6,0.2,0.9,0.3c0.4,0.2,0.6,0.6,0.8,1
	c0.1,0.2,0.1,0.4,0.1,0.6c0,0.4,0.1,0.8,0.1,1.1c0,0.4,0,0.8,0,1.2c0,0.4,0,0.8,0,1.2c0,0.4,0,0.8,0,1.2c0,0,0,0.1,0,0.1
	c0,0.1,0,0.1-0.1,0.1c-0.5,0-1,0-1.4,0c-0.1,0-0.1,0-0.1-0.1c0-0.1,0-0.1,0-0.2c0-1.3,0-2.7,0-4c0-0.3-0.1-0.6-0.2-0.9
	c-0.1-0.2-0.3-0.3-0.6-0.4c-0.2-0.1-0.5-0.1-0.7,0c-0.3,0-0.6,0.1-0.9,0.4c-0.2,0.2-0.4,0.5-0.4,0.8c0,0.1,0,0.3,0,0.4
	c0,1.3,0,2.5,0,3.8c0,0.2,0,0.2-0.3,0.2c-0.4,0-0.8,0-1.2,0c-0.2,0-0.2,0-0.2-0.2C85.5,46.3,85.5,45.2,85.5,44.2z"/>
<path fill="#FCDF09" d="M158.8,20.5c0.5,0,1,0,1.6,0c0.1,0,0.1,0,0.1-0.1c0.1-0.3,0.2-0.5,0.3-0.8c0.2-0.7,0.4-1.3,0.6-1.9
	c0-0.1,0.1-0.2,0.1-0.4c0,0,0,0,0,0c0,0,0,0,0,0c0.1,0.5,0.3,0.9,0.4,1.4c0.1,0.1,0.1,0.3,0.2,0.5c0.1,0.1,0.1,0.3,0.2,0.5
	c0.1,0.2,0.1,0.3,0.2,0.5c0,0,0,0,0,0c0,0.1,0.1,0.3,0.1,0.3c0.1,0.1,0.2,0,0.3,0c1,0,1.9,0,2.9,0c0,0,0.1,0,0.1,0c0,0,0,0-0.1,0.1
	c-0.4,0.3-0.7,0.5-1.1,0.8c-0.3,0.2-0.6,0.4-0.9,0.6c-0.2,0.1-0.4,0.3-0.6,0.4c-0.1,0.1-0.1,0.1,0,0.2c0.2,0.5,0.4,1.1,0.5,1.6
	c0.1,0.4,0.2,0.8,0.4,1.1c0,0.1,0,0.1,0,0.2c0,0.1,0,0-0.1,0c-0.5-0.3-0.9-0.7-1.4-1c-0.4-0.3-0.8-0.5-1.1-0.8
	c-0.1-0.1-0.1-0.1-0.2,0c-0.2,0.2-0.4,0.3-0.6,0.5c-0.2,0.1-0.4,0.3-0.6,0.4c-0.2,0.1-0.4,0.3-0.6,0.4c-0.2,0.1-0.4,0.3-0.6,0.4
	c0,0-0.1,0-0.1,0c0,0,0-0.1,0-0.1c0.1-0.2,0.1-0.4,0.2-0.6c0.2-0.4,0.3-0.8,0.4-1.3c0.1-0.3,0.1-0.5,0.3-0.8c0-0.1,0-0.2,0.1-0.3
	c0,0,0-0.1,0-0.1c-0.1-0.1-0.2-0.2-0.3-0.3c-0.3-0.2-0.6-0.4-0.9-0.6c-0.3-0.2-0.6-0.4-0.8-0.6c-0.2-0.1-0.4-0.2-0.5-0.4
	c0,0,0-0.1-0.1-0.1c0,0,0.1,0,0.1,0C157.8,20.5,158.3,20.5,158.8,20.5z"/>
<path fill="#FCDF09" d="M12.6,32.3c0.4,0,0.9,0,1.3,0c0.2,0,0.2,0,0.3-0.2c0.3-0.7,0.5-1.5,0.8-2.3c0-0.1,0-0.2,0.1-0.3
	c0,0,0,0,0.1-0.1c0,0,0,0,0,0.1c0.2,0.7,0.4,1.3,0.6,2c0.1,0.2,0.1,0.4,0.2,0.7c0.1,0.2,0.1,0.2,0.2,0.2c0.9,0,1.7,0,2.6,0
	c0.1,0,0.2,0,0.3,0c0,0,0.1,0,0.1,0c0,0,0,0.1,0,0.1c-0.3,0.1-0.4,0.3-0.7,0.4c-0.2,0.2-0.5,0.3-0.7,0.5c-0.2,0.2-0.5,0.4-0.7,0.5
	c-0.1,0.1-0.2,0.1-0.3,0.2c0,0,0,0.1,0,0.2c0.1,0.3,0.2,0.6,0.3,0.9c0.2,0.6,0.4,1.2,0.6,1.7c0,0,0,0.1,0,0.1c0,0-0.1,0-0.1,0
	c-0.2-0.1-0.4-0.2-0.5-0.4c-0.3-0.2-0.5-0.4-0.8-0.6c-0.3-0.2-0.6-0.4-0.8-0.6c-0.2-0.1-0.3-0.1-0.4,0c-0.4,0.3-0.8,0.6-1.3,0.9
	c-0.3,0.2-0.5,0.4-0.8,0.6c0,0-0.1,0-0.1,0c0,0,0,0,0-0.1c0-0.2,0.1-0.4,0.1-0.5c0.1-0.4,0.3-0.7,0.4-1.1c0.1-0.3,0.2-0.7,0.3-1
	c0,0,0-0.2-0.1-0.1c-0.4-0.3-0.8-0.6-1.2-0.9c-0.3-0.3-0.7-0.5-1.1-0.8c0,0,0-0.1,0-0.1c0,0,0.1-0.1,0.1-0.1
	C11.7,32.3,12.2,32.3,12.6,32.3z"/>
<path fill="#FCDF09" d="M58.6,55.7c0.5,0,1,0,1.4,0c0.1,0,0.1,0,0.1-0.1c0.2-0.6,0.4-1.2,0.6-1.7c0.1-0.3,0.2-0.6,0.3-0.8
	c0-0.1,0-0.1,0.1-0.2c0,0,0,0,0-0.1c0,0,0,0.1,0,0.1c0.1,0.2,0.1,0.4,0.2,0.5c0.2,0.4,0.3,0.9,0.4,1.3c0.1,0.3,0.2,0.6,0.3,0.9
	c0,0.1,0,0.1,0.1,0.1c0.7,0,1.3,0,2,0c0.3,0,0.6,0,0.8,0c0,0,0.1,0,0.1,0c0,0,0,0.1-0.1,0.1c-0.1,0.1-0.3,0.2-0.4,0.3
	c-0.3,0.2-0.6,0.4-0.9,0.6c-0.3,0.2-0.6,0.4-0.9,0.6c-0.2,0.1-0.2,0.2-0.1,0.3c0.1,0.2,0.1,0.4,0.2,0.5c0.1,0.4,0.3,0.8,0.4,1.2
	c0.1,0.2,0.1,0.4,0.2,0.6c0,0.1,0,0.1,0,0.2c-0.1,0-0.1-0.1-0.2-0.1c-0.3-0.2-0.7-0.5-1-0.7c-0.2-0.1-0.4-0.3-0.6-0.4
	c-0.2-0.1-0.4-0.2-0.5-0.4c0,0-0.1-0.1-0.1-0.1c0,0-0.1,0-0.1,0.1c-0.2,0.1-0.3,0.2-0.5,0.3c-0.4,0.3-0.8,0.6-1.3,0.9
	c-0.1,0.1-0.2,0.2-0.3,0.3c-0.1,0-0.1,0.1-0.2,0.1c0,0-0.1,0.1-0.1,0c0-0.1,0-0.2,0.1-0.3c0.2-0.5,0.3-1.1,0.5-1.6
	c0.1-0.2,0.1-0.4,0.2-0.6c0-0.1,0-0.1,0-0.2c0,0,0-0.1-0.1-0.1c-0.4-0.3-0.9-0.6-1.3-0.9c-0.3-0.2-0.6-0.4-0.8-0.6
	c-0.1-0.1-0.2-0.1-0.3-0.2c0,0,0,0,0,0c0,0,0,0,0,0c0.3,0,0.6,0,0.9,0C58.2,55.7,58.4,55.7,58.6,55.7z"/>
<path fill="#263E78" d="M136.6,31.3c0,0.9,0,1.8,0,2.7c0,0.1,0,0.1-0.1,0.1c-0.4,0-0.7,0-1.1,0c-0.1,0-0.1,0-0.1-0.1
	c-0.2-0.4-0.5-0.8-0.7-1.2c-0.2-0.3-0.4-0.6-0.5-0.9c-0.1-0.3-0.3-0.5-0.4-0.7c-0.1-0.2-0.2-0.4-0.3-0.6c-0.1-0.1-0.2-0.3-0.2-0.4
	c0,0,0,0,0,0c0,0,0,0,0,0.1c0,0.1,0,0.2,0,0.2c0,1.2,0,2.4,0,3.6c0,0.1,0,0.2-0.1,0.2c-0.3,0-0.6,0-0.9,0c-0.1,0-0.1,0-0.1-0.2
	c0-1.7,0-3.4,0-5.2c0-0.1,0-0.1,0-0.2c0-0.2,0-0.2,0.2-0.2c0.3,0,0.5,0,0.8,0c0.1,0,0.1,0,0.2,0c0.3,0,0.3,0,0.5,0.3
	c0.3,0.5,0.5,0.9,0.8,1.4c0.2,0.4,0.4,0.8,0.7,1.1c0.2,0.3,0.3,0.5,0.5,0.8c0,0,0,0,0,0c0,0,0,0,0-0.1c0-0.2,0-0.5,0-0.7
	c0-0.9,0-1.9,0-2.8c0-0.1,0-0.1,0.1-0.1c0.3,0,0.6,0,0.9,0c0.1,0,0.1,0,0.1,0.1C136.6,29.4,136.6,30.3,136.6,31.3z"/>
<path fill="#243D78" d="M102.5,28.3c0.4,0,0.7,0.1,1.1,0.2c0.2,0.1,0.4,0.2,0.6,0.3c0.4,0.2,0.7,0.5,0.8,0.9
	c0.2,0.3,0.3,0.7,0.3,1.1c0,0.1,0.1,0.3,0.1,0.4c-0.1,0.5-0.1,1-0.3,1.4c-0.4,0.7-0.9,1.1-1.6,1.4c-0.1,0-0.3,0.1-0.4,0.1
	c-0.1,0-0.2,0-0.3,0.1c-0.1,0-0.2,0-0.3,0c-0.6,0-1.2-0.2-1.7-0.5c-0.2-0.2-0.4-0.3-0.5-0.5c-0.1-0.2-0.3-0.4-0.4-0.6
	c-0.1-0.3-0.3-0.6-0.3-1c0-0.1-0.1-0.2-0.1-0.3c0-0.3,0-0.7,0.1-1c0.1-0.3,0.2-0.6,0.4-0.9c0.3-0.3,0.6-0.6,1-0.8
	c0.2-0.1,0.5-0.2,0.7-0.3C101.9,28.3,102.2,28.3,102.5,28.3z M102.4,33.2c0.2,0,0.3,0,0.4,0c0.2-0.1,0.4-0.2,0.6-0.3
	c0.2-0.1,0.3-0.3,0.4-0.5c0.2-0.3,0.2-0.7,0.3-1.1c0-0.2-0.1-0.3-0.1-0.5c0-0.1,0-0.3-0.1-0.4c-0.1-0.5-0.4-0.7-0.8-1
	c-0.1-0.1-0.2-0.1-0.4-0.1c-0.3-0.2-0.5,0-0.8,0c-0.4,0.2-0.8,0.5-0.9,0.9c-0.1,0.2-0.1,0.3-0.1,0.5c0,0.2-0.1,0.3-0.1,0.5
	c0,0.1,0.1,0.3,0.1,0.4c0,0.1,0,0.2,0.1,0.4c0.1,0.4,0.4,0.7,0.7,0.9C101.9,33.1,102.1,33.2,102.4,33.2z"/>
<path fill="#243D78" d="M141.9,31.1c0.4,0,0.8,0,1.2,0c0.1,0,0.1,0,0.1,0.1c0,0.2,0,0.4,0,0.6c0,0.1-0.1,0.2-0.1,0.4
	c0,0.1,0,0.2-0.1,0.3c0,0.1-0.1,0.2-0.1,0.3c0,0.1-0.1,0.2-0.1,0.3c-0.2,0.2-0.3,0.4-0.6,0.6c-0.2,0.1-0.3,0.2-0.5,0.3
	c-0.1,0.1-0.3,0.1-0.5,0.2c-0.2,0.1-1,0.1-1.1,0.1c-0.2-0.1-0.4,0-0.6-0.1c-0.2-0.1-0.4-0.1-0.5-0.2c-0.1-0.1-0.3-0.1-0.4-0.2
	c-0.3-0.2-0.5-0.4-0.7-0.7c-0.2-0.3-0.3-0.5-0.4-0.8c0-0.1,0-0.2-0.1-0.2c0-0.1,0-0.2,0-0.3c-0.1-0.2-0.1-0.3-0.1-0.5
	c0-0.3,0-0.6,0.1-0.9c0.1-0.3,0.2-0.5,0.4-0.8c0.2-0.3,0.4-0.6,0.7-0.8c0.4-0.2,0.8-0.4,1.1-0.5c0.1,0,0.2,0,0.3,0
	c0.2,0,0.4,0,0.6,0c0.5,0,0.9,0.1,1.3,0.3c0.3,0.2,0.6,0.4,0.7,0.7c0.1,0.2,0.2,0.4,0.3,0.7c0,0,0,0.1,0,0.1c0,0.3,0,0.3-0.2,0.3
	c-0.3,0-0.6,0-0.9,0c-0.1,0-0.2,0-0.2-0.1c-0.1-0.4-0.1-0.4-0.4-0.6c-0.1-0.1-0.3-0.2-0.5-0.2c-0.1,0-0.2-0.1-0.4-0.1
	c-0.2,0-0.4,0.1-0.6,0.1c-0.2,0.1-0.3,0.1-0.4,0.3c-0.2,0.2-0.4,0.5-0.4,0.8c0,0.1,0,0.2-0.1,0.2c0,0.1,0,0.2,0,0.3
	c0,0.1-0.1,0.2-0.1,0.3c0,0.1,0.1,0.3,0.1,0.4c0,0.1,0,0.3,0.1,0.4c0.1,0.2,0.2,0.5,0.4,0.7c0.2,0.2,0.4,0.2,0.6,0.3
	c0.1,0,0.2,0,0.3,0.1c0.4,0,0.8-0.1,1.2-0.3c0.2-0.1,0.2-0.3,0.3-0.5c0-0.1,0.1-0.2,0-0.3c-0.1-0.1-0.2,0-0.3,0c-0.3,0-0.6,0-0.9,0
	c-0.1,0-0.1,0-0.1-0.1c0-0.2,0-0.5,0-0.7c0-0.1,0-0.1,0.1-0.1C141.1,31.1,141.5,31.1,141.9,31.1z"/>
<path fill="#243D78" d="M153.3,31.1c0.4,0,0.8,0,1.2,0c0.1,0,0.1,0,0.1,0.1c0,0.3,0.1,0.5-0.1,0.8c0,0,0,0.1,0,0.1
	c0,0.4-0.2,0.8-0.4,1.1c-0.2,0.4-0.6,0.6-1,0.8c-0.2,0.1-0.5,0.2-0.7,0.2c-0.1,0-0.3,0.1-0.4,0.1c-0.1,0-0.3,0-0.4,0
	c-0.2,0-1-0.1-1.2-0.3c-0.2-0.1-0.4-0.2-0.5-0.3c-0.2-0.1-0.3-0.3-0.4-0.4c-0.1-0.2-0.2-0.4-0.3-0.6c-0.1-0.2-0.1-0.4-0.2-0.6
	c0,0,0,0,0,0c0-0.3-0.1-0.7-0.1-1c0.1-0.4,0.1-0.9,0.4-1.3c0.2-0.3,0.4-0.6,0.8-0.9c0.2-0.1,0.4-0.2,0.6-0.4
	c0.2-0.1,0.4-0.1,0.7-0.2c0,0,0.1,0,0.1,0c0.2,0,0.5,0,0.7,0c0.3,0,0.6,0.1,0.9,0.2c0.3,0.1,0.5,0.3,0.7,0.4
	c0.3,0.2,0.4,0.6,0.5,0.9c0,0.1,0,0.1,0,0.2c0,0.1,0,0.2,0,0.3c0,0-0.1,0-0.2,0c-0.3,0-0.6,0-0.9,0c-0.2,0-0.2,0-0.2-0.2
	c-0.1-0.2-0.2-0.4-0.3-0.6c-0.2-0.1-0.3-0.2-0.5-0.2c-0.1,0-0.2-0.1-0.4-0.1c-0.4,0-0.7,0.1-1,0.3c-0.2,0.2-0.3,0.4-0.4,0.7
	c-0.1,0.4-0.2,0.8-0.2,1.2c0,0.2,0.1,0.3,0.1,0.5c0,0.1,0.1,0.3,0.1,0.4c0.1,0.4,0.6,0.7,0.9,0.8c0.2,0,0.4,0.1,0.5,0.1
	c0.2,0,0.4-0.1,0.6-0.1c0.1,0,0.2-0.2,0.4-0.2c0.1-0.2,0.2-0.3,0.3-0.5c0-0.1,0-0.1,0.1-0.2c0-0.1,0-0.1-0.1-0.1c-0.4,0-0.7,0-1.1,0
	c-0.1,0-0.1,0-0.1-0.1c0-0.2,0-0.5,0-0.7c0-0.1,0-0.1,0.1-0.1C152.5,31.1,152.9,31.1,153.3,31.1z"/>
<path fill="#253C77" d="M94.4,31.3c0-0.9,0-1.7,0-2.6c0-0.1,0-0.1,0-0.2c0-0.1,0.1-0.1,0.1-0.1c0.1,0,0.1,0,0.2,0c0.6,0,1.2,0,1.8,0
	c0.3,0,0.5,0,0.8,0.1c0.3,0.1,0.6,0.2,0.8,0.3c0.3,0.2,0.5,0.5,0.6,0.9c0.1,0.4,0.1,0.7,0,1c-0.1,0.3-0.3,0.5-0.5,0.7
	c-0.1,0.1-0.3,0.2-0.4,0.2c-0.1,0-0.1,0-0.1,0.1c0.1,0.2,0.2,0.4,0.4,0.6c0.2,0.3,0.4,0.7,0.6,1c0.1,0.2,0.2,0.4,0.4,0.6
	c0,0,0,0.1,0,0.1c0,0-0.1,0-0.1,0c-0.4,0-0.8,0-1.2,0c-0.1,0-0.1,0-0.2-0.1c-0.2-0.4-0.5-0.7-0.7-1.1c-0.2-0.3-0.4-0.6-0.6-0.9
	c-0.1-0.1-0.1-0.1-0.2-0.1c-0.1,0-0.2,0-0.4,0c0,0.1,0,0.2,0,0.3c0,0.6,0,1.1,0,1.7c0,0.1,0,0.2-0.1,0.2c-0.3,0-0.7,0-1,0
	c-0.1,0-0.1,0-0.1-0.2C94.4,33.1,94.4,32.2,94.4,31.3z M95.7,30.2C95.7,30.2,95.7,30.2,95.7,30.2c0,0.2,0,0.5,0,0.7
	c0,0.1,0,0.1,0.1,0.1c0.3,0,0.6,0,0.9,0c0.2,0,0.4-0.1,0.5-0.2c0.2-0.2,0.3-0.5,0.2-0.8c-0.1-0.3-0.2-0.5-0.5-0.6
	c-0.1,0-0.3,0-0.4,0c-0.3,0-0.5,0-0.8,0C95.7,29.7,95.7,29.9,95.7,30.2z"/>
<path fill="#273E79" d="M89.8,30.4c0,0.6,0,1.2,0,1.8c0,0.2,0.1,0.4,0.2,0.6c0.1,0.2,0.3,0.3,0.6,0.3c0.2,0,0.3,0,0.5,0
	c0.3,0,0.7-0.3,0.7-0.6c0-0.2,0-0.3,0.1-0.5c0.1-0.6,0-1.2,0-1.7c0-0.6,0-1.2,0-1.8c0-0.1,0-0.1,0.1-0.2c0.3,0,0.7,0,1,0
	c0.2,0,0.2,0,0.2,0.2c0,0.5,0,1,0,1.6c0,0.5,0,1,0,1.5c0,0.3,0,0.6-0.1,0.9c-0.1,0.3-0.2,0.6-0.4,0.9c-0.3,0.3-0.5,0.5-0.7,0.6
	c-0.2,0.1-0.5,0.2-0.7,0.2c-0.2,0-0.5,0-0.7,0c-0.4,0-0.8-0.1-1.1-0.2c-0.3-0.1-0.6-0.4-0.8-0.7c-0.2-0.3-0.2-0.6-0.3-0.9
	c-0.1-0.3,0-0.6,0-1c0-1,0-1.9,0-2.9c0-0.2,0-0.2,0.2-0.2c0.3,0,0.7,0,1,0c0.2,0,0.2,0,0.2,0.2C89.8,29.2,89.8,29.8,89.8,30.4z"/>
<path fill="#253E79" d="M119.9,32.3c0.2,0,0.4,0,0.5,0c0.1,0,0.2,0.1,0.2,0.2c0,0.4,0.2,0.6,0.6,0.7c0.2,0.1,0.4,0.1,0.6,0.1
	c0.2,0,0.4-0.1,0.5-0.2c0.3-0.2,0.4-0.7,0.2-1c0,0-0.1-0.1-0.1-0.1c-0.2-0.1-0.4-0.2-0.6-0.2c-0.3-0.1-0.7-0.1-1-0.2
	c-0.4-0.1-0.7-0.2-1-0.5c-0.2-0.2-0.3-0.4-0.4-0.6c-0.1-0.3-0.1-0.5-0.1-0.8c0-0.2,0.1-0.5,0.3-0.7c0.1-0.2,0.3-0.3,0.5-0.4
	c0.2-0.2,0.5-0.2,0.7-0.3c0.4-0.1,0.8-0.1,1.1,0c0.2,0,0.5,0.1,0.7,0.2c0.2,0.1,0.4,0.3,0.5,0.4c0.1,0.2,0.3,0.4,0.3,0.6
	c0,0,0,0.1,0,0.1c0.1,0.2,0,0.3-0.2,0.3c-0.3,0-0.5,0-0.8,0c-0.1,0-0.2,0-0.2-0.2c0-0.2-0.1-0.3-0.2-0.4c-0.1-0.2-0.3-0.2-0.4-0.2
	c-0.3,0-0.5,0-0.8,0.1c-0.3,0.2-0.4,0.5-0.3,0.8c0,0.1,0.1,0.1,0.2,0.2c0.2,0.1,0.4,0.2,0.6,0.2c0.1,0,0.2,0,0.3,0.1
	c0.1,0,0.2,0,0.2,0.1c0.1,0,0.3,0,0.4,0.1c0.3,0.1,0.6,0.2,0.9,0.4c0.3,0.2,0.4,0.5,0.5,0.8c0,0.2,0.1,0.3,0,0.5
	c0,0.4-0.1,0.7-0.4,1c-0.1,0,0,0.2-0.1,0.2c-0.2,0.2-0.3,0.3-0.6,0.4c-0.1,0.1-0.3,0.1-0.4,0.2c-0.2,0.1-0.9,0.1-1.1,0.1
	c-0.3-0.1-0.6-0.1-0.9-0.2c-0.5-0.2-0.8-0.6-1-1.1c0-0.1,0-0.2-0.1-0.3c-0.1-0.1,0-0.2,0.2-0.2C119.6,32.3,119.7,32.3,119.9,32.3z"
	/>
<path fill="#243D78" d="M146.1,28.4c0.2,0,0.5,0,0.7,0c0.1,0,0.1,0,0.1,0.1c0,0.2,0.1,0.4,0.2,0.6c0.2,0.5,0.3,0.9,0.5,1.4
	c0.1,0.3,0.2,0.5,0.3,0.8c0.2,0.5,0.3,0.9,0.5,1.4c0.1,0.3,0.2,0.5,0.3,0.8c0.1,0.2,0.1,0.3,0.2,0.5c0,0.1,0,0.1-0.1,0.1
	c-0.4,0-0.8,0-1.2,0c-0.1,0-0.1,0-0.1-0.1c-0.1-0.4-0.2-0.7-0.3-1c0-0.1-0.1-0.1-0.1-0.1c0,0-0.1,0-0.1,0c-0.4,0-0.8,0-1.1,0
	c-0.2,0-0.5,0-0.7,0c0,0.2-0.1,0.4-0.2,0.6c0,0.1-0.1,0.3-0.1,0.4c0,0.1-0.1,0.2-0.2,0.2c-0.3,0-0.7,0-1,0c-0.1,0-0.1-0.1-0.1-0.1
	c0-0.1,0.1-0.2,0.1-0.3c0.1-0.5,0.3-1,0.5-1.5c0.2-0.5,0.3-1,0.5-1.4c0.2-0.5,0.4-1.1,0.5-1.6c0.1-0.2,0.1-0.4,0.2-0.7
	c0-0.1,0.1-0.2,0.2-0.2C145.6,28.4,145.9,28.4,146.1,28.4z M145.9,32c0.2,0,0.5,0,0.7,0c0.1,0,0.1,0,0.1-0.1c0-0.1,0-0.2-0.1-0.4
	c-0.2-0.5-0.3-1-0.5-1.5c0-0.2-0.1-0.3-0.1-0.5c0,0,0,0-0.1,0c0,0-0.1,0-0.1,0c0,0.1,0,0.1-0.1,0.2c-0.1,0.4-0.2,0.8-0.4,1.2
	c-0.1,0.3-0.2,0.6-0.3,0.9c0,0.1,0,0.1,0.1,0.1C145.5,32,145.7,32,145.9,32z"/>
<path fill="#253E79" d="M111.4,31.2c0-0.9,0-1.8,0-2.7c0-0.2,0-0.2,0.1-0.2c1.2,0,2.3,0,3.5,0c0.1,0,0.1,0,0.1,0.1
	c0,0.3,0,0.5,0,0.8c0,0.1,0,0.1-0.1,0.1c-0.7,0-1.4,0-2,0c-0.1,0-0.1,0-0.2,0c-0.1,0-0.1,0-0.1,0.1c0,0.4,0,0.7,0,1.1
	c0,0.1,0,0.1,0.1,0.1c0.5,0,1,0,1.6,0c0.1,0,0.1,0,0.2,0c0.1,0,0.1,0.1,0.1,0.1c0,0.3,0,0.5,0,0.8c0,0.1,0,0.1-0.1,0.1
	c-0.5,0-1,0-1.5,0c-0.1,0-0.2,0-0.4,0c0,0.1,0,0.2,0,0.4c0,0.3,0,0.6,0,0.9c0,0.1,0,0.1,0.1,0.1c0.5,0,1,0,1.5,0c0.3,0,0.6,0,0.8,0
	c0.1,0,0.1,0,0.1,0.1c0,0.3,0,0.6,0,0.9c-0.3,0-0.6,0-0.9,0c-1,0-1.9,0-2.9,0c-0.2,0-0.2,0-0.2-0.2
	C111.4,33.1,111.4,32.1,111.4,31.2z"/>
<path fill="#253E79" d="M155.5,31.3c0-0.9,0-1.8,0-2.7c0-0.2,0-0.2,0.2-0.2c1.1,0,2.3,0,3.4,0c0.2,0,0.2,0,0.2,0.1
	c0,0.3,0,0.6,0,0.9c-0.3,0-0.6,0-0.8,0c-0.5,0-1,0-1.5,0c-0.1,0-0.1,0-0.1,0.1c0,0.4,0,0.7,0,1.1c0,0.1,0,0.1,0.1,0.1
	c0.5,0,1,0,1.5,0c0.3,0,0.4,0,0.3,0.3c0,0.1,0,0.3,0,0.4c0,0.3,0,0.3-0.3,0.3c-0.5,0-1.1,0-1.6,0c-0.1,0-0.1,0-0.1,0.1
	c0,0.4,0,0.8,0,1.1c0,0.1,0,0.1,0.1,0.1c0.7,0,1.4,0,2.2,0c0.1,0,0.1,0,0.2,0c0.1,0,0.1,0,0.1,0.1c0,0.3,0,0.5,0,0.8
	c0,0.1,0,0.1-0.1,0.1c-0.8,0-1.6,0-2.4,0c-0.4,0-0.8,0-1.3,0c-0.1,0-0.1,0-0.1-0.1C155.5,33.1,155.5,32.2,155.5,31.3z"/>
<path fill="#253E79" d="M83.7,31.3c0-0.9,0-1.8,0-2.7c0-0.2,0-0.2,0.2-0.2c1.2,0,2.3,0,3.5,0c0.1,0,0.1,0,0.1,0.1c0,0.3,0,0.5,0,0.8
	c0,0.1,0,0.1-0.1,0.1c-0.7,0-1.4,0-2.1,0c-0.1,0-0.1,0-0.2,0c-0.1,0-0.1,0-0.1,0.1c0,0.4,0,0.8,0,1.1c0,0.1,0,0.1,0.1,0.1
	c0.5,0,1,0,1.6,0c0.1,0,0.1,0,0.2,0c0.1,0,0.1,0.1,0.1,0.1c0,0.2,0,0.5,0,0.7c0,0.1-0.1,0.1-0.2,0.1c-0.4,0-0.8,0-1.2,0
	c-0.2,0-0.4,0-0.6,0c0,0.2,0,0.4,0,0.6c0,0.2,0,0.4,0,0.6c0,0.2,0,0.2,0.2,0.2c0.7,0,1.4,0,2.1,0c0.1,0,0.1,0,0.2,0
	c0.1,0,0.1,0,0.1,0.1c0,0.3,0,0.5,0,0.8c0,0.1,0,0.1-0.1,0.1c-0.6,0-1.3,0-1.9,0c-0.6,0-1.1,0-1.7,0c-0.1,0-0.1,0-0.1-0.1
	C83.7,33.1,83.7,32.2,83.7,31.3z"/>
<path fill="#253C77" d="M127,31.2c0-0.9,0-1.8,0-2.7c0-0.2,0-0.2,0.2-0.2c1.1,0,2.3,0,3.4,0c0.1,0,0.1,0,0.1,0.1c0,0.2,0,0.5,0,0.7
	c0,0.2,0,0.2-0.2,0.2c-0.7,0-1.3,0-2,0c-0.3,0-0.3,0-0.3,0.3c0,0.3,0,0.6,0,0.9c0,0.1,0,0.1,0.1,0.1c0.6,0,1.1,0,1.7,0
	c0.1,0,0.1,0,0.1,0.1c0,0.3,0,0.6,0,0.9c-0.3,0-0.6,0-0.9,0c-0.3,0-0.6,0-1,0c-0.1,0-0.1,0-0.1,0.1c0,0.4,0,0.8,0,1.1
	c0,0.1,0,0.1,0.1,0.1c0.5,0,1.1,0,1.6,0c0.2,0,0.5,0,0.7,0c0.1,0,0.2,0,0.2,0.2c0,0.2,0,0.5,0,0.7c0,0.1,0,0.1-0.1,0.1
	c-0.4,0-0.9,0-1.3,0c-0.7,0-1.4,0-2.2,0c-0.1,0-0.2,0-0.3,0c0,0,0-0.2,0-0.3C127,33,127,32.1,127,31.2z"/>
<path fill="#263E78" d="M106.3,31.2c0-0.9,0-1.8,0-2.7c0-0.2,0-0.2,0.2-0.2c0.7,0,1.3,0,2,0c0.1,0,0.2,0,0.2,0
	c0.2,0.1,0.4,0,0.6,0.1c0.2,0.1,0.3,0.1,0.5,0.2c0.3,0.2,0.6,0.5,0.7,0.9c0.1,0.3,0.1,0.7,0,1c-0.1,0.4-0.2,0.7-0.7,1
	c-0.4,0.3-0.7,0.4-1.2,0.4c-0.2,0-0.3,0-0.5,0.1c-0.2,0-0.3,0-0.5,0c-0.1,0-0.1,0.1-0.1,0.1c0,0.3,0,0.6,0,0.9c0,0.3,0,0.6,0,1
	c0,0.1,0,0.1-0.1,0.1c-0.4,0-0.7,0-1.1,0c-0.1,0-0.1,0-0.1-0.1C106.3,33.1,106.3,32.2,106.3,31.2z M107.6,30.2
	C107.6,30.2,107.6,30.2,107.6,30.2c0,0.3,0,0.6,0,0.9c0.3,0,0.6,0,0.9,0c0.3,0,0.6-0.2,0.7-0.5c0-0.2,0.1-0.3,0.1-0.5
	c0-0.4-0.3-0.7-0.7-0.8c-0.3,0-0.5,0-0.8,0c-0.1,0-0.1,0-0.1,0.1C107.6,29.7,107.6,30,107.6,30.2z"/>
<path fill="#FCDF09" d="M10.9,44.9c0.3,0,0.6,0.1,0.8,0.1c0.3,0,0.6,0,0.9,0c0.3,0,0.3,0,0.4-0.3c0.2-0.6,0.4-1.2,0.6-1.9
	c0-0.1,0.1-0.1,0.1-0.2c0,0.1,0.1,0.1,0.1,0.2c0.1,0.4,0.3,0.7,0.3,1.1c0.1,0.3,0.2,0.6,0.3,0.9c0,0.2,0.1,0.2,0.2,0.2
	c0.7,0,1.4,0,2.1,0c0,0,0.1,0,0.1,0c0,0,0.1,0,0.1,0c0,0,0,0.1,0,0.1c-0.3,0.1-0.4,0.3-0.7,0.4c-0.2,0.2-0.5,0.3-0.7,0.5
	c-0.1,0.1-0.2,0.2-0.3,0.2c-0.2,0.1-0.2,0.2-0.1,0.4c0.1,0.3,0.2,0.6,0.3,0.9c0,0.2,0.1,0.3,0.1,0.5c0.1,0.2,0.1,0.3,0.2,0.5
	c0,0,0,0,0,0.1c0,0,0,0.1,0,0.1c0,0-0.1,0-0.1,0c-0.1-0.1-0.2-0.1-0.3-0.2c-0.4-0.3-0.9-0.7-1.3-1c-0.1-0.1-0.2-0.2-0.3-0.2
	c-0.1,0-0.2,0.1-0.3,0.2c-0.3,0.3-0.7,0.5-1,0.8c-0.1,0.1-0.3,0.2-0.5,0.4c0,0-0.1,0-0.1,0.1c0,0,0-0.1,0-0.1
	c0.1-0.2,0.1-0.4,0.2-0.5c0.1-0.5,0.3-0.9,0.5-1.4c0.1-0.1,0-0.3-0.1-0.4c-0.5-0.3-1-0.7-1.5-1.1c-0.1-0.1-0.2-0.1-0.3-0.2
	C10.6,44.9,10.7,44.9,10.9,44.9C10.9,44.9,10.9,44.9,10.9,44.9C10.9,44.9,10.9,44.9,10.9,44.9z"/>
<path fill="#FCE009" d="M50,64.6c0.4,0,0.7,0,1.1,0c0.1,0,0.2,0,0.2-0.2c0.2-0.6,0.4-1.2,0.6-1.8c0-0.1,0-0.2,0.1-0.3
	c0,0,0,0,0.1-0.1c0,0,0.1,0,0.1,0.1c0.1,0.2,0.1,0.3,0.2,0.5c0.1,0.1,0.1,0.3,0.1,0.5c0.1,0.4,0.3,0.8,0.4,1.1
	c0,0.1,0.1,0.1,0.2,0.1c0.1,0,0.3,0,0.4,0c0.6,0,1.2,0,1.9,0c0,0,0.1,0,0.1,0c0,0-0.1,0-0.1,0c-0.4,0.3-0.8,0.6-1.2,0.9
	c-0.2,0.1-0.3,0.2-0.5,0.3c-0.1,0-0.1,0.1-0.1,0.2c0,0.1,0,0.1,0,0.2c0.2,0.7,0.4,1.3,0.6,1.9c0,0,0,0.1,0.1,0.1c0,0,0,0,0,0.1
	c0,0-0.1,0-0.1,0c-0.1-0.1-0.2-0.1-0.2-0.2c-0.4-0.2-0.7-0.5-1-0.8c-0.2-0.1-0.4-0.2-0.5-0.4c-0.1,0-0.1-0.1-0.2,0
	c-0.2,0.2-0.4,0.3-0.6,0.5c-0.2,0.1-0.4,0.3-0.6,0.4c-0.1,0.1-0.2,0.2-0.4,0.3c0,0-0.1,0-0.1,0.1c0,0,0-0.1,0-0.1
	c0-0.2,0.1-0.3,0.1-0.5c0.1-0.4,0.3-0.9,0.4-1.3c0-0.1,0-0.2,0.1-0.2c0,0,0-0.1,0-0.1c-0.1-0.1-0.1-0.1-0.2-0.2
	c-0.4-0.3-0.7-0.6-1.1-0.8c-0.2-0.1-0.4-0.2-0.5-0.4c0,0,0,0-0.1-0.1c0,0,0.1,0,0.1,0c0.2,0,0.5,0,0.7,0
	C49.7,64.6,49.9,64.6,50,64.6z"/>
<path fill="#253E79" d="M77.8,31.2c0-0.9,0-1.8,0-2.7c0-0.2,0-0.2,0.2-0.2c0.3,0,0.7,0,1,0c0.1,0,0.1,0,0.1,0.1c0,1.4,0,2.9,0,4.3
	c0,0.1,0,0.2,0,0.3c0.1,0.1,0.2,0,0.3,0c0.6,0,1.3,0,1.9,0c0.1,0,0.1,0,0.1,0.1c0,0.3,0,0.6,0,0.9c-0.3,0-0.6,0-0.9,0
	c-0.8,0-1.7,0-2.5,0c-0.1,0-0.2,0-0.3,0c0-0.1,0-0.2,0-0.3C77.8,33,77.8,32.1,77.8,31.2z"/>
<path fill="#263E78" d="M148.5,68.4c0-0.6,0-1.3,0-1.9c0-0.1,0-0.1,0.1-0.1c0.5,0,1.1,0,1.6,0c0.5,0,1,0.2,1.3,0.6
	c0.2,0.2,0.3,0.5,0.4,0.8c0.1,0.4,0.1,0.8,0,1.1c0,0.3-0.2,0.7-0.4,0.9c-0.1,0.1-0.2,0.2-0.4,0.3c-0.2,0.2-0.5,0.2-0.7,0.3
	c-0.2,0-0.3,0.1-0.5,0.1c-0.4,0-0.9,0-1.3,0c-0.2,0-0.2,0-0.2-0.2C148.5,69.7,148.5,69,148.5,68.4z M149.4,68.4c0,0.3,0,0.6,0,0.8
	c0,0.2,0,0.3,0,0.5c0.2,0,0.4,0,0.6,0c0.1,0,0.2-0.1,0.3-0.1c0.1,0,0.2-0.1,0.3-0.2c0.2-0.2,0.3-0.5,0.3-0.8c0-0.3,0-0.7-0.1-1
	c-0.1-0.2-0.3-0.4-0.5-0.5c-0.3-0.1-0.6-0.1-0.9-0.1c-0.1,0-0.1,0-0.1,0.1C149.4,67.6,149.4,68,149.4,68.4z"/>
<path fill="#243C76" d="M156.1,68.4c0-0.6,0-1.3,0-1.9c0-0.2,0-0.2,0.2-0.2c0.5,0,1.1,0,1.6,0c0.5,0,0.9,0.2,1.2,0.6
	c0.1,0.1,0.1,0.3,0.1,0.4c0,0.2,0,0.4,0,0.6c-0.1,0.4-0.4,0.6-0.7,0.7c-0.1,0-0.1,0.1,0,0.2c0.1,0.2,0.2,0.3,0.3,0.5
	c0.2,0.4,0.4,0.7,0.7,1.1c0,0.1,0.1,0.1,0,0.1c-0.3,0-0.6,0-0.8,0c-0.1,0-0.1,0-0.2-0.1c-0.2-0.3-0.4-0.7-0.6-1
	c0-0.1-0.1-0.2-0.1-0.2c-0.1-0.1-0.1-0.2-0.2-0.2c-0.3,0-0.3,0-0.3,0.3c0,0.4,0,0.8,0,1.1c0,0.1,0,0.1-0.1,0.1c-0.2,0-0.5,0-0.7,0
	c-0.1,0-0.1,0-0.1-0.1C156.1,69.7,156.1,69.1,156.1,68.4z M157.4,67.1c-0.1,0-0.2,0-0.4,0c0,0.1,0,0.3,0,0.4c0,0,0,0.1,0,0.1
	c0,0.2,0,0.4,0,0.6c0.2,0,0.4,0,0.6,0c0.3,0,0.5-0.1,0.6-0.4c0-0.1,0-0.2,0-0.3c0-0.2-0.2-0.4-0.3-0.4
	C157.8,67.1,157.6,67.1,157.4,67.1z"/>
<path fill="#FCE00E" d="M38.3,68c0.3,0,0.6,0,0.8,0c0.1,0,0.1,0,0.1-0.1c0.2-0.6,0.4-1.1,0.5-1.7c0,0,0,0,0,0c0,0,0,0,0,0
	c0,0,0,0,0,0c0,0.3,0.1,0.5,0.2,0.7c0.1,0.2,0.2,0.5,0.3,0.7c0,0,0,0,0,0c0,0.1,0,0.2,0.1,0.2c0.1,0,0.2,0,0.3,0c0.5,0,1.1,0,1.6,0
	c0,0,0.1,0,0.1,0c0,0,0,0.1-0.1,0.1c-0.2,0.2-0.5,0.3-0.7,0.5c-0.2,0.2-0.5,0.3-0.7,0.5c-0.1,0.1-0.1,0.2,0,0.2
	c0.2,0.5,0.3,1,0.5,1.5c0,0,0,0.1,0,0.1c0,0,0,0,0,0.1c0,0,0,0,0,0c-0.3-0.2-0.6-0.5-0.9-0.7c-0.2-0.1-0.4-0.2-0.5-0.4
	c0,0,0,0-0.1,0c-0.3,0.2-0.6,0.4-0.9,0.6c-0.2,0.1-0.4,0.2-0.5,0.4c0,0-0.1,0-0.1,0c0-0.1,0-0.1,0-0.2c0.2-0.5,0.3-1,0.5-1.4
	c0,0,0-0.1-0.1-0.2c-0.3-0.2-0.7-0.5-1-0.7c-0.2-0.1-0.3-0.2-0.5-0.3c0,0,0,0,0,0c0,0,0.1,0,0.1,0C37.7,68,38,68,38.3,68z"/>
<path fill="#FCE009" d="M16.5,56.9c0.2,0,0.5,0,0.7,0c0.2,0,0.2,0,0.3-0.2c0.1-0.4,0.3-0.9,0.4-1.4c0-0.1,0-0.1,0.1-0.2
	c0,0,0,0,0.1,0c0,0,0,0,0,0.1c0.1,0.3,0.2,0.5,0.3,0.8c0.1,0.2,0.1,0.5,0.2,0.7c0,0,0,0.1,0,0.1c0,0.1,0.1,0.1,0.1,0.1
	c0.5,0,1.1,0,1.6,0c0.1,0,0.2,0,0.3,0c-0.1,0-0.1,0.1-0.2,0.1c-0.4,0.3-0.8,0.5-1.1,0.8c0,0-0.1,0-0.1,0.1c-0.1,0.1-0.1,0.2-0.1,0.3
	c0.2,0.5,0.3,1,0.5,1.5c0,0,0,0.1,0,0.1c0,0-0.1,0.1-0.1,0c-0.2-0.1-0.4-0.3-0.5-0.4c-0.2-0.2-0.5-0.4-0.8-0.6
	c-0.1-0.1-0.2-0.1-0.3,0c-0.2,0.1-0.3,0.2-0.5,0.4c-0.2,0.2-0.5,0.4-0.8,0.6c0,0-0.1,0-0.1,0c0,0,0,0,0,0c0-0.1,0-0.1,0.1-0.2
	c0.1-0.5,0.3-1,0.5-1.4c0-0.1,0-0.2-0.1-0.3c-0.2-0.1-0.4-0.3-0.6-0.4c-0.2-0.1-0.4-0.3-0.6-0.4c-0.1,0-0.1-0.1-0.2-0.1c0,0,0,0,0,0
	c0,0,0,0,0,0C15.9,56.9,16.2,56.9,16.5,56.9z"/>
<path fill="#FCDF09" d="M112.1,37c0,0.4,0,0.6-0.1,0.9c-0.1,0.2-0.2,0.5-0.3,0.7c-0.3,0.4-0.6,0.6-1,0.8c-0.2,0.1-0.4,0.2-0.5,0.2
	c0,0-0.1,0-0.1,0c0-0.1,0-0.3,0.1-0.3c0.3-0.2,0.4-0.4,0.5-0.7c0-0.1,0-0.1-0.1-0.1c-0.3,0-0.6-0.1-0.9-0.3c-0.3-0.3-0.5-0.6-0.5-1
	c0-0.2,0-0.4,0.1-0.6c0.1-0.2,0.1-0.3,0.3-0.4c0.1-0.1,0.2-0.2,0.3-0.3c0.3-0.3,0.7-0.3,1.1-0.3c0.2,0.1,0.4,0.1,0.5,0.2
	c0.3,0.2,0.5,0.5,0.6,0.9C112.2,36.8,112.1,36.9,112.1,37z"/>
<path fill="#223B76" d="M152.7,68.4c0-0.6,0-1.3,0-1.9c0-0.1,0-0.1,0.1-0.1c0.8,0,1.6,0,2.4,0c0.1,0,0.1,0,0.1,0.1
	c0,0.2,0,0.4,0,0.6c-0.2,0-0.4,0-0.6,0c-0.3,0-0.7,0-1,0c-0.1,0-0.1,0-0.1,0.1c0,0.2,0,0.5,0,0.7c0,0.1,0,0.1,0.1,0.1
	c0.3,0,0.6,0,0.9,0c0.1,0,0.2,0,0.3,0c0,0.1,0,0.2,0,0.3c0,0.1,0,0.2,0,0.3c-0.1,0.1-0.2,0-0.3,0c-0.3,0-0.6,0-1,0
	c-0.1,0-0.1,0-0.1,0.1c0,0.3,0,0.6,0,0.8c0,0.1,0,0.1,0.1,0.1c0.5,0,1.1,0,1.6,0c0.1,0,0.2,0,0.1,0.1c0,0.2,0,0.4,0,0.6
	c-0.2,0-0.4,0-0.6,0c-0.7,0-1.4,0-2,0c-0.1,0-0.1,0-0.1-0.1C152.7,69.7,152.7,69.1,152.7,68.4z"/>
<path fill="#223B76" d="M145,68.4c0-0.6,0-1.3,0-1.9c0-0.1,0-0.1,0.1-0.1c0.8,0,1.6,0,2.4,0c0.1,0,0.1,0,0.1,0.1c0,0.2,0,0.4,0,0.6
	c-0.2,0-0.4,0-0.6,0c-0.4,0-0.7,0-1.1,0c-0.1,0-0.1,0-0.1,0.1c0,0.3,0,0.5,0,0.8c0,0.1,0,0.1,0.1,0.1c0.3,0,0.7,0,1,0
	c0.1,0,0.1,0,0.2,0c0.1,0,0.1,0,0.1,0.1c0,0.2,0,0.3,0,0.5c0,0.1,0,0.1-0.1,0.1c-0.4,0-0.7,0-1.1,0c-0.2,0-0.2,0-0.2,0.2
	c0,0.3,0,0.6,0,0.9c0.3,0,0.6,0,0.9,0c0.3,0,0.6,0,0.8,0c0.1,0,0.1,0,0.1,0.1c0,0.2,0,0.4,0,0.6c-0.2,0-0.4,0-0.6,0
	c-0.7,0-1.3,0-2,0c-0.2,0-0.2,0-0.2-0.2C145,69.7,145,69.1,145,68.4z"/>
<path fill="#253C77" d="M132.7,39.1c-0.2,0-0.5,0-0.7-0.2c-0.4-0.2-0.6-0.5-0.7-0.9c-0.1-0.3,0-0.6,0.1-0.9c0.2-0.4,0.5-0.7,1-0.8
	c0.1,0,0.3-0.1,0.5-0.1c0.4,0,0.7,0.2,1,0.4c0.2,0.2,0.4,0.4,0.4,0.7c0,0.2,0,0.3,0,0.5c0,0.1,0,0.2,0,0.2c0,0.1,0,0.1-0.1,0.2
	c-0.1,0.3-0.4,0.6-0.7,0.8c-0.1,0-0.2,0.1-0.3,0.1C133,39.1,132.9,39.1,132.7,39.1z"/>
<path fill="#273E79" d="M141.7,68.4c0-0.6,0-1.3,0-1.9c0-0.2,0-0.2,0.1-0.2c0.8,0,1.6,0,2.4,0c0.1,0,0.1,0,0.1,0.1
	c0,0.2,0,0.3,0,0.5c0,0.1,0,0.1-0.1,0.1c-0.5,0-1,0-1.5,0c-0.1,0-0.1,0-0.1,0.1c0,0.3,0,0.6,0,0.8c0,0.1,0,0.1,0.1,0.1
	c0.4,0,0.8,0,1.1,0c0.1,0,0.1,0,0.1,0.1c0,0.2,0,0.3,0,0.5c0,0.1,0,0.1-0.1,0.1c-0.4,0-0.7,0-1.1,0c-0.1,0-0.1,0-0.1,0.1
	c0,0.4,0,0.9,0,1.3c0,0.1,0,0.1-0.1,0.1c-0.2,0-0.5,0-0.7,0c-0.1,0-0.1,0-0.1-0.1C141.7,69.7,141.7,69.1,141.7,68.4z"/>
<path fill="#FCE00E" d="M26.3,65.4c0.2,0,0.5,0,0.7,0c0.1,0,0.1,0,0.1-0.1c0.1-0.2,0.1-0.3,0.2-0.5c0.1-0.3,0.2-0.5,0.2-0.8
	c0,0,0,0,0.1-0.1c0,0,0.1,0,0.1,0.1c0.1,0.4,0.3,0.8,0.4,1.2c0,0,0,0.1,0,0.1c0,0.1,0.1,0.1,0.1,0.1c0.4,0,0.8,0,1.3,0
	c0,0,0.1,0,0.1,0c0,0,0,0,0.1,0c0,0,0,0,0,0c-0.1,0.1-0.2,0.2-0.3,0.3c-0.2,0.2-0.5,0.3-0.7,0.5c-0.1,0.1-0.1,0.2-0.1,0.3
	c0,0.1,0.1,0.1,0.1,0.2c0.1,0.3,0.2,0.7,0.3,1c0,0,0,0.1,0,0.1c0,0-0.1,0-0.1,0c-0.2-0.1-0.3-0.3-0.5-0.4c-0.2-0.1-0.4-0.2-0.5-0.4
	c-0.1,0-0.1-0.1-0.2,0c-0.2,0.1-0.4,0.2-0.5,0.4c-0.2,0.1-0.3,0.3-0.5,0.4c0,0-0.1,0-0.1,0c0,0,0-0.1,0-0.1c0.1-0.4,0.3-0.8,0.4-1.2
	c0-0.1,0-0.2-0.1-0.3c-0.3-0.2-0.5-0.4-0.8-0.6c-0.1,0-0.1-0.1-0.2-0.1c-0.1,0-0.1-0.1-0.1-0.1c0.1,0,0.1,0,0.2,0
	C25.9,65.4,26.1,65.4,26.3,65.4z"/>
<path fill="#29407A" d="M128.8,69.1c-0.3,0-0.7,0-1,0c-0.1,0-0.1,0-0.1,0.1c0,0.2,0,0.4,0.1,0.6c0.2,0.2,0.4,0.4,0.7,0.4
	c0.2,0,0.3,0,0.5-0.1c0.1-0.1,0.3-0.1,0.3-0.3c0.1-0.2,0.1-0.2,0.3-0.2c0,0,0.1,0,0.1,0c0,0,0.1,0,0.1,0.1c0,0.1,0,0.2-0.1,0.3
	c-0.2,0.2-0.4,0.4-0.7,0.5c-0.5,0.2-1.1,0.1-1.5-0.3c-0.2-0.2-0.4-0.4-0.4-0.7c-0.1-0.3-0.1-0.6,0-0.8c0.1-0.5,0.3-0.8,0.7-1.1
	c0.3-0.2,0.7-0.2,1-0.2c0.2,0,0.5,0.1,0.7,0.3c0.2,0.2,0.3,0.4,0.4,0.7c0,0,0.1,0.1,0.1,0.1c0,0.2,0,0.4,0,0.5c-0.1,0-0.3,0-0.4,0
	C129.3,69.1,129.1,69.1,128.8,69.1z M128.6,68.7c0.2,0,0.3,0,0.5,0c0.1,0,0.2,0,0.3,0c0,0,0.1,0,0.1,0c0.1-0.2-0.1-0.5-0.3-0.7
	c-0.2-0.1-0.4-0.1-0.5-0.1c-0.2,0-0.3,0-0.4,0.1c-0.2,0.1-0.4,0.3-0.4,0.6c0,0.1,0,0.1,0.1,0.1C128,68.7,128.3,68.7,128.6,68.7z"/>
<path fill="#29407A" d="M138.4,69.1c-0.3,0-0.7,0-1,0c-0.1,0-0.1,0-0.1,0.1c0,0.5,0.3,0.9,0.9,0.9c0.2,0,0.3,0,0.5,0
	c0.2-0.1,0.3-0.2,0.4-0.3c0-0.1,0.1-0.2,0.2-0.2c0.1,0,0.1,0,0.2,0c0.1,0,0.1,0,0.1,0.1c0,0.2-0.1,0.4-0.3,0.6
	c-0.1,0.1-0.3,0.2-0.5,0.3c-0.1,0-0.1,0-0.2,0c-0.1,0-0.3,0-0.4,0c-0.5,0-1.1-0.5-1.3-0.9c-0.1-0.4-0.1-0.8,0-1.2
	c0.1-0.4,0.4-0.7,0.9-0.9c0.2-0.1,0.5-0.1,0.7-0.1c0.2,0,0.3,0,0.5,0.1c0.3,0.2,0.6,0.5,0.6,0.9c0,0.1,0.1,0.1,0.1,0.2
	c0,0.2,0,0.3,0,0.5c-0.2,0-0.3,0-0.5,0C138.8,69.1,138.6,69.1,138.4,69.1z M138.1,68.7c0.3,0,0.5,0,0.8,0c0,0,0.1,0,0.1-0.1
	c0-0.3-0.1-0.5-0.3-0.7c-0.2-0.1-0.3-0.1-0.5-0.1c-0.3,0-0.6,0.1-0.7,0.4c-0.1,0.1-0.2,0.2-0.2,0.4c0,0.1,0,0.1,0.1,0.1
	C137.6,68.7,137.9,68.7,138.1,68.7z"/>
<path fill="#27407A" d="M123.5,69.3c0,0.4,0,0.7,0,1.1c0,0.1,0,0.1-0.1,0.1c-0.1,0-0.1,0-0.2,0c-0.2,0-0.2,0-0.2-0.2
	c0,0,0-0.1,0-0.1c0,0,0,0,0,0c-0.2,0.2-0.5,0.3-0.8,0.3c-0.1,0-0.3,0-0.4,0c-0.2-0.1-0.3-0.2-0.4-0.3c-0.1-0.1-0.2-0.3-0.2-0.5
	c0-0.1,0-0.2,0-0.2c0-0.1,0-0.2,0.1-0.2c0.2-0.3,0.5-0.4,0.9-0.5c0.3-0.1,0.6-0.1,0.9-0.1c0.1,0,0.1,0,0.1-0.1c0-0.1,0-0.2-0.1-0.4
	c0-0.1,0-0.2-0.1-0.2c-0.1-0.1-0.2-0.2-0.4-0.1c-0.1,0-0.3,0-0.4,0c-0.2,0.1-0.2,0.1-0.3,0.3c0,0.1-0.1,0.1-0.2,0.1c0,0-0.1,0-0.1,0
	c-0.2,0-0.2-0.1-0.2-0.2c0.1-0.2,0.1-0.3,0.3-0.5c0.1-0.2,0.3-0.3,0.6-0.3c0.3,0,0.6-0.1,0.8,0.1c0.1,0.1,0.3,0.1,0.4,0.2
	c0.1,0.2,0.2,0.4,0.2,0.6C123.5,68.7,123.5,69,123.5,69.3z M122.7,69.1c-0.2,0-0.4,0-0.6,0.1c-0.4,0.1-0.5,0.3-0.5,0.7
	c0,0.2,0.1,0.3,0.3,0.4c0.3,0.1,0.5,0,0.8-0.1c0.3-0.1,0.4-0.3,0.4-0.6c0-0.1,0-0.3,0-0.4C122.9,69.1,122.7,69.1,122.7,69.1z"/>
<path fill="#FCE009" d="M125.2,26.6c0.4-0.1,0.9,0.3,0.9,0.8c0,0.1,0.1,0.2,0.1,0.3c-0.1,0.3-0.1,0.6-0.2,0.8
	c-0.2,0.3-0.5,0.6-0.9,0.7c0,0-0.1,0-0.1,0c0,0-0.1,0-0.1,0c0,0,0-0.1,0-0.1c0.1-0.1,0.2-0.2,0.3-0.3c0.1-0.1,0.1-0.1,0.1-0.2
	c0-0.1,0-0.1-0.1-0.1c-0.4,0-0.8-0.5-0.8-0.9c0-0.3,0.1-0.5,0.3-0.7C124.7,26.7,124.9,26.6,125.2,26.6z"/>
<path fill="#FCE009" d="M82.9,27.6c0,0.4-0.1,0.7-0.2,0.9c-0.1,0.2-0.3,0.3-0.4,0.4c-0.1,0.1-0.3,0.1-0.4,0.2c-0.1,0-0.1,0-0.2,0
	c-0.1,0-0.1-0.1-0.1-0.1c0-0.1,0.1-0.1,0.1-0.2c0.1-0.1,0.1-0.1,0.2-0.2c0.1-0.2,0.1-0.2-0.1-0.2c-0.3,0-0.5-0.2-0.6-0.4
	C81,27.9,81,27.8,81,27.6c0-0.2,0.1-0.4,0.2-0.6c0.3-0.4,0.7-0.4,1.1-0.3c0.2,0.1,0.3,0.2,0.4,0.4C82.8,27.3,82.9,27.4,82.9,27.6z"
	/>
<path fill="#29407B" d="M130.4,69c-0.1-0.3,0.1-0.6,0.2-0.8c0.2-0.3,0.4-0.6,0.8-0.6c0.2-0.1,0.5-0.1,0.7,0c0.2,0,0.5,0.1,0.7,0.3
	c0.2,0.1,0.2,0.4,0.3,0.5c0,0,0,0.1,0,0.2c0,0.1,0,0.1-0.1,0.1c0,0-0.1,0-0.1,0c-0.1,0-0.2,0-0.3-0.2c-0.1-0.4-0.4-0.5-0.7-0.5
	c-0.2,0-0.4,0.1-0.6,0.2c-0.1,0.1-0.2,0.2-0.2,0.3c-0.1,0.2-0.2,0.4-0.2,0.7c0,0.2,0,0.4,0.1,0.6c0.1,0.3,0.4,0.5,0.7,0.5
	c0.2,0,0.3,0.1,0.5-0.1c0.3,0,0.5-0.3,0.6-0.6c0-0.1,0-0.1,0.1-0.1c0.1,0,0.2,0,0.3,0c0.1,0,0.1,0,0.1,0.1c0,0.1,0,0.2-0.1,0.2
	c-0.2,0.4-0.5,0.7-0.9,0.7c-0.4,0.1-0.8,0.1-1.2-0.2c-0.3-0.2-0.5-0.4-0.6-0.7c0,0,0,0,0,0c0-0.1,0-0.2-0.1-0.3
	C130.4,69.2,130.4,69.1,130.4,69z"/>
<path fill="#29407B" d="M125.4,70.5c-0.1,0-0.2,0-0.3,0c-0.1,0-0.1-0.2-0.1-0.3c-0.2-0.5-0.4-1-0.5-1.5c-0.1-0.3-0.3-0.6-0.4-1
	c0,0,0-0.1,0-0.1c0-0.1,0-0.1,0.1-0.1c0.1,0,0.3,0,0.4,0c0.1,0,0.1,0.2,0.1,0.3c0.1,0.2,0.1,0.4,0.2,0.6c0.2,0.4,0.3,0.8,0.5,1.2
	c0,0,0,0.1,0,0.1c0,0,0,0.1,0.1,0.1c0,0,0.1,0,0.1-0.1c0.1-0.4,0.3-0.9,0.5-1.3c0.1-0.3,0.2-0.6,0.3-0.9c0-0.1,0-0.1,0.1-0.1
	c0.1,0,0.3,0,0.4,0c0,0.1-0.1,0.3-0.1,0.4c-0.1,0.2-0.1,0.4-0.2,0.6c-0.1,0.2-0.1,0.4-0.2,0.6c-0.2,0.4-0.3,0.7-0.4,1.1
	c0,0.1-0.1,0.1-0.2,0.1C125.6,70.5,125.5,70.5,125.4,70.5C125.4,70.5,125.4,70.5,125.4,70.5z"/>
<path fill="#223B76" d="M135.5,68.2c0-0.7,0-1.4,0-2.1c0-0.1,0-0.1,0.1-0.1c0.1,0,0.2,0,0.4,0c0,0.1,0,0.2,0,0.4c0,1.3,0,2.7,0,4
	c0,0.1,0,0.2-0.1,0.1c-0.1,0-0.3,0-0.3,0c-0.1-0.1,0-0.2,0-0.3C135.5,69.5,135.5,68.9,135.5,68.2z"/>
<path fill="#FCDF09" d="M19.7,27.4C19.7,27.5,19.7,27.5,19.7,27.4C19.7,27.5,19.7,27.4,19.7,27.4C19.7,27.4,19.7,27.4,19.7,27.4
	C19.7,27.4,19.7,27.4,19.7,27.4z"/>
<path fill="#FCDF09" d="M58.7,60.4C58.7,60.4,58.7,60.4,58.7,60.4C58.7,60.4,58.6,60.3,58.7,60.4C58.7,60.3,58.7,60.3,58.7,60.4
	C58.7,60.3,58.7,60.3,58.7,60.4z"/>
<path fill="#FCDF09" d="M47.3,25.8C47.3,25.8,47.2,25.8,47.3,25.8C47.2,25.8,47.2,25.8,47.3,25.8C47.2,25.8,47.3,25.8,47.3,25.8
	C47.3,25.8,47.3,25.8,47.3,25.8z"/>
<path fill="#FCDF09" d="M12.7,37C12.7,37,12.7,37,12.7,37C12.7,37,12.7,37,12.7,37C12.7,36.9,12.7,36.9,12.7,37
	C12.7,36.9,12.7,37,12.7,37z"/>
<path fill="#FCE009" d="M50.1,68.4C50.1,68.4,50.1,68.4,50.1,68.4C50.1,68.4,50.1,68.4,50.1,68.4C50.1,68.4,50.1,68.4,50.1,68.4
	C50.1,68.4,50.1,68.4,50.1,68.4z"/>
<text transform="matrix(1 0 0 1 74.6242 64.0996)" fill="#1F3B77" font-family="'ArialMT'" font-size="12.5658px">Bretagne</text>
</svg>
