<?xml version="1.0" encoding="utf-8"?>
<!-- Generator: Adobe Illustrator 23.0.3, SVG Export Plug-In . SVG Version: 6.00 Build 0)  -->
<svg version="1.2" baseProfile="tiny" id="Calque_1"
	 xmlns="http://www.w3.org/2000/svg" xmlns:xlink="http://www.w3.org/1999/xlink" x="0px" y="0px" viewBox="0 0 88.1 84.1"
	 xml:space="preserve">
<path fill="#FDDA04" d="M43.6,75C25,75,10,60,10,41.4S25,7.8,43.6,7.8"/>
<path fill="#051821" d="M43.6,7.8c18.6,0,33.6,15,33.6,33.6S62.1,75,43.6,75"/>
<path fill="#FFFFFF" d="M43.6,59.7c-9.8,0-19.6,0-29.3,0c-0.1,0-0.2,0-0.3,0c-0.1,0-0.1,0-0.1-0.1s0-0.2,0-0.3c0-13,0-25.9,0-38.9
	c0-0.1,0-0.2,0-0.3s0-0.1,0.1-0.1s0.2,0,0.3,0c19.6,0,39.2,0,58.8,0c0.1,0,0.3,0,0.4,0c0.1,0.1,0,0.2,0,0.4c0,13,0,25.9,0,38.9
	c0,0.1,0,0.2,0,0.3s0,0.1-0.1,0.1s-0.2,0-0.3,0C63.1,59.7,53.4,59.7,43.6,59.7z M43.6,24.6c-8.2,0-16.5,0-24.7,0c-0.1,0-0.2,0-0.3,0
	c-0.1,0-0.2,0-0.2,0.1s0,0.2,0,0.2c0,9.9,0,19.8,0,29.6c0,0.4,0,0.4,0.4,0.4c8.3,0,16.5,0,24.8,0c8.2,0,16.5,0,24.7,0
	c0.1,0,0.2,0,0.3,0s0.2,0,0.2-0.1s0-0.1,0-0.2c0-6,0-11.9,0-17.9c0-0.4,0-0.4-0.4-0.3c-0.1,0-0.3,0-0.4,0.1
	c-0.3,0.2-0.6,0.1-0.9,0.1c-0.3,0-0.6-0.1-0.8-0.3c-0.4-0.3-0.5-0.8-0.6-1.3c-0.1-0.6,0-1.1,0.2-1.7c0.2-0.5,0.7-1,1.2-1
	c0.6-0.1,1.1,0,1.5,0.5c0,0,0,0,0.1,0.1v-0.1c0-0.1,0-0.2,0-0.2c0-2.5,0-5,0-7.5c0-0.4,0-0.4-0.4-0.4C60.1,24.6,51.9,24.6,43.6,24.6
	z M67.8,34.8c-0.2,0-0.5,0-0.7,0s-0.2,0-0.2,0.2c0,0.5,0.2,0.8,0.7,0.8c0.3,0,0.6,0,0.9-0.1c0.1,0,0.3,0,0.3-0.1
	c0.1-0.1,0-0.2,0-0.3s0-0.2,0-0.3s0-0.2-0.2-0.2C68.4,34.8,68.1,34.8,67.8,34.8z M67.4,34.1c0.1,0,0.2,0,0.3,0c0.3,0,0.3,0,0.3-0.3
	v-0.1c0-0.4-0.4-0.8-0.9-0.5c-0.3,0.2-0.3,0.5-0.3,0.8C66.9,34.2,67.1,34,67.4,34.1C67.3,34.1,67.4,34.1,67.4,34.1z"/>
<path fill="#051821" d="M43.6,24.6c8.3,0,16.5,0,24.8,0c0.4,0,0.4,0,0.4,0.4c0,2.5,0,5,0,7.5c0,0.1,0,0.2,0,0.2v0.1c0,0,0,0-0.1-0.1
	c-0.4-0.5-0.9-0.6-1.5-0.5c-0.6,0.1-1,0.5-1.2,1s-0.2,1.1-0.2,1.7c0,0.5,0.1,1,0.6,1.3c0.3,0.2,0.5,0.3,0.8,0.3s0.6,0.1,0.9-0.1
	c0.1-0.1,0.3,0,0.4-0.1c0.4-0.1,0.4-0.1,0.4,0.3c0,6,0,11.9,0,17.9c0,0.1,0,0.1,0,0.2c0,0.1-0.1,0.1-0.2,0.1c-0.1,0-0.2,0-0.3,0
	c-8.2,0-16.5,0-24.7,0c0-6.2,0-12.3,0-18.5c0.3,0,0.6,0,0.8,0s0.2,0,0.2-0.2c0-0.6,0-1.3,0-1.9c0-0.1,0-0.2,0.2-0.2s0.4,0,0.5,0
	c0.2,0,0.5,0,0.7,0c0-0.2,0-0.5,0-0.7c0-0.1,0-0.2-0.2-0.2c-0.3,0-0.6,0-0.9,0c-0.3,0-0.3-0.1-0.3-0.3c0-0.2,0-0.5,0-0.7
	c0-0.1,0-0.2,0.2-0.2c0.4,0,0.7,0,1.1,0c0.2,0,0.3-0.1,0.3-0.3c0-0.2,0-0.3,0-0.5s-0.1-0.2-0.2-0.2c-0.8,0-1.7,0-2.5,0
	C43.6,28.9,43.6,26.8,43.6,24.6z M50.3,47.6c0-0.1-0.1-0.1-0.2-0.1v-0.1c0,0,0,0.1-0.1,0.1s-0.3-0.1-0.5-0.1s-0.3,0-0.5,0
	c-0.1,0-0.1,0-0.1,0.1c0,0.7,0,1.4,0,2.1l0.1,0.1c0.4,0,0.8,0,1.2-0.2c0,0,0,0.1,0.1,0.1v-0.1v-0.1c0.1,0,0.3-0.1,0.3,0.2
	c0,0,0.1,0,0.2,0l0.1,0.1c0.3,0,0.5,0,0.8,0s0.3,0,0.3-0.3c0-0.2,0-0.2-0.2-0.2c-0.1,0-0.2,0-0.3,0c0,0-0.1,0-0.1-0.1s0-0.3,0-0.4
	c0,0,0.2,0,0.3,0h0.1c0.2,0,0.1-0.1,0.2-0.2c0-0.1,0-0.2-0.1-0.2s-0.1,0-0.2,0c-0.2,0-0.2,0-0.2-0.2c0-0.3,0-0.3,0.3-0.3
	c0.1,0,0.2,0,0.3,0h0.1c0.1-0.1,0-0.3-0.1-0.4c0,0-0.1,0-0.2-0.1c-0.4,0-0.7,0-0.9,0.1c-0.1,0-0.2,0-0.2,0.1
	C50.6,47.7,50.5,47.6,50.3,47.6C50.4,47.6,50.4,47.6,50.3,47.6z M63.9,47.4L63.9,47.4c-0.2,0.1-0.2,0.1-0.3,0.1l0,0
	c-0.3,0-0.7,0-1,0c-0.1,0-0.2,0.1-0.2,0.2c0,0.6,0,1.3,0,1.9c0,0.1,0.1,0.2,0.2,0.2c0.3,0,0.6,0,0.9,0c0.1,0,0.2,0,0.3,0
	c0.1,0.1,0.3,0.1,0.4,0c0-0.2,0-0.5,0-0.7s0-0.4,0-0.5c0.1,0.2,0.2,0.3,0.3,0.5c0.1,0.2,0.2,0.3,0.3,0.5s0.2,0.3,0.4,0.3
	s0.2,0,0.2-0.2c0-0.3,0-0.6,0-0.9c0-0.4,0-0.7,0-1.1c0-0.1-0.1-0.2-0.2-0.2c-0.2,0-0.3,0.1-0.3,0.3s0,0.5,0,0.7v0.1
	c0,0,0-0.1-0.1-0.1c-0.2-0.4-0.3-0.7-0.5-1.1C64.3,47.2,64.1,47.2,63.9,47.4z M59.9,49.6c0.3,0.2,0.5,0.1,0.5-0.2s0-0.6,0-0.9
	c0.1,0,0.1,0,0.2,0c0,0.4,0.2,0.7,0.3,1.1c0.1,0.1,0.1,0.1,0.2,0.1c0.1,0,0.2,0,0.2-0.1c0.1-0.3,0.3-0.7,0.3-1.1c0.1,0,0.1,0,0.2,0
	c0,0.3,0,0.6,0,0.9c0,0.2,0.1,0.3,0.3,0.3s0.2-0.2,0.2-0.3s0-0.3,0-0.4c0-0.5-0.2-1-0.1-1.5c0-0.1-0.1-0.2-0.1-0.2
	c-0.2,0-0.3-0.1-0.5,0c-0.1,0-0.1,0.2-0.2,0.4v0.1c-0.1,0.2-0.1,0.4-0.2,0.7v0.1c0,0-0.1,0-0.1-0.1c0,0,0-0.1-0.1-0.2
	c-0.1-0.3-0.1-0.5-0.2-0.8c0-0.1-0.1-0.2-0.3-0.2c-0.1,0-0.2,0-0.3,0S60,47.4,60,47.5c0,0.2,0,0.4,0,0.6c-0.1,0-0.2,0.1-0.3,0.1
	s-0.3,0-0.4,0c-0.2,0-0.2-0.1-0.2-0.2c0-0.3,0-0.3,0.3-0.3c0.1,0,0.2,0,0.3,0h0.1c0.1-0.1,0-0.4-0.2-0.5c-0.3,0-0.6,0-0.9,0
	c-0.1,0-0.2,0.1-0.2,0.1c-0.4-0.2-0.8,0-1.2-0.1c-0.1,0-0.2,0.1-0.2,0.2c0,0.1,0,0.2-1.5,0.9c0,0.3,0,0.6,0,0.9v0.1
	c0.1,0,0.2,0,0.3,0l0.1-0.1c0-0.2,0-0.4,0-0.6c0,0,0-0.1,0.1-0.1h0.1c0.1,0.2,0.2,0.4,0.3,0.6c0.1,0.4,0.1,0.4,0.5,0.4
	c0.2,0,0.2-0.1,0.1-0.2c-0.1-0.2-0.1-0.4-0.2-0.6c-0.1-0.2-0.2-0.3,0-0.5c0.1-0.1,0.1-0.2,0.2-0.3c0.1-0.3-0.1-0.8-0.4-0.8
	c-0.3,0-0.7,0-1,0c0,0.3,0,0.6,0,0.9c0,0.1,0,0.1,1.5-0.5c0.1,0,0.2,0,0.2,0c0.2,0,0.2,0,0.2,0.2c0,0.5,0,1,0,1.5v0.1
	c0.1,0,0.3,0,0.4,0c0.1,0,0.1-0.1,0.1-0.2c0-0.5,0-1,0-1.5c0-0.1,0-0.2,0.2-0.2c0.1,0,0.2,0,0.2,0c0.1-0.1,0.1-0.1,0.1,0.1
	c0,0.5,0,1,0,1.5c0,0.2,0.1,0.3,0.3,0.3s0.4,0,0.5,0c0.2,0,0.3,0,0.5-0.1C59.8,49.6,59.8,49.6,59.9,49.6z M48.5,34.5
	c0,0.4,0,0.8,0,1.2c0,0.3,0,0.6,0,0.8c0.3,0,0.6,0,0.8,0s0.2,0,0.2-0.3c0-0.8,0-1.7,0-2.5c0-0.2,0-0.3,0.2-0.3
	c0.1,0,0.2-0.1,0.2-0.1c0.1-0.1,0.2-0.1,0.3,0c0.2,0.1,0.3,0.3,0.3,0.5c0,0.6,0,1.2,0,1.8c0,0.3,0,0.6,0,0.9c0.3,0,0.6,0,0.9,0
	c0.2,0,0.2-0.1,0.2-0.2c0-1,0-1.9,0-2.9c0-0.3-0.1-0.5-0.2-0.7c-0.1-0.1-0.2-0.3-0.4-0.3c-0.3-0.1-0.6-0.2-1,0
	c-0.2,0.1-0.4,0.2-0.6,0.4c-0.1,0-0.1,0.1-0.1,0c-0.1-0.2-0.2-0.4-0.5-0.3c-0.1,0-0.2,0-0.3,0c-0.2,0-0.2,0-0.2,0.2
	C48.6,33.2,48.5,33.8,48.5,34.5z M61.8,34.8L61.8,34.8c0.4,0,0.7,0,1,0c0-0.3,0-0.7,0-1c0-0.1-0.1-0.2-0.1-0.4
	c-0.1-0.4-0.4-0.8-0.9-1c-0.3-0.1-0.7-0.1-1-0.1c-0.4,0.1-0.8,0.3-1,0.7c-0.3,0.5-0.3,1.1-0.4,1.6v0.1c0.2,0.1,0.1,0.3,0.1,0.5
	s0.1,0.4,0.1,0.6c0.1,0.3,0.3,0.5,0.5,0.6c0.2,0.2,0.4,0.2,0.7,0.3c0.5,0.1,0.9,0,1.4-0.1c0.1,0,0.3-0.1,0.4-0.2l0.1-0.1
	c0.1-0.2-0.1-0.4-0.1-0.6c0,0-0.1-0.1-0.1,0c-0.1,0.1-0.2,0.1-0.3,0.1c-0.2,0-0.3,0-0.5,0.1c-0.2,0.1-0.4,0.1-0.6,0
	c-0.3-0.1-0.5-0.2-0.5-0.6c0-0.4,0-0.4,0.3-0.4C61.2,34.7,61.5,34.8,61.8,34.8z M58.5,31.7c0-0.2,0-0.3,0-0.5c0-0.1-0.1-0.1-0.1-0.1
	c-0.3,0-0.6,0.2-0.9,0.1l-0.1,0.1c0,0.3,0,0.6,0,0.9l-0.1,0.1c-0.1,0-0.3,0-0.4,0.1c-0.1,0.1,0,0.3,0,0.4c0,0.1,0,0.2,0,0.3l0.1,0.1
	h0.1c0.2,0,0.2,0,0.2,0.2c0,0.7,0,1.5,0,2.2c0,0.5,0.4,0.9,0.9,0.9c0.1,0,0.3,0,0.4,0c0.2,0,0.3,0,0.4-0.1c0.1-0.1,0-0.2,0-0.4
	c0-0.2,0-0.4-0.1-0.5c-0.1-0.1-0.3,0-0.4,0c-0.2,0-0.2,0-0.2-0.2c0-0.6,0-1.3,0-1.9c0-0.2,0-0.2,0.2-0.2c0.1,0,0.3,0,0.4,0
	c0.1-0.1,0-0.3,0-0.4c0-0.1,0-0.2,0-0.2c0-0.2,0-0.2-0.2-0.2s-0.4,0-0.5,0c-0.1-0.1,0-0.3,0-0.5C58.5,31.8,58.5,31.8,58.5,31.7z
	 M55.2,36.6c0.1,0,0.2,0,0.2,0c0.7,0,1.5-0.6,1.3-1.3c0-0.1,0-0.1,0-0.2c0-0.2,0-0.4-0.2-0.5c-0.2-0.2-0.4-0.5-0.8-0.6
	c-0.2,0-0.3-0.2-0.5-0.3c-0.1-0.1-0.2-0.4-0.2-0.5c0.1-0.1,0.2-0.2,0.3-0.1c0.2,0,0.4-0.1,0.6,0.1c0.1,0,0.2,0,0.3,0
	c0,0,0-0.1,0-0.2c0-0.1,0.1-0.1,0.1-0.2c0.1-0.2,0.1-0.3-0.1-0.4c-0.6-0.3-1.1-0.3-1.7,0c-0.4,0.2-0.8,0.8-0.7,1.2
	c0.1,0.4,0.3,0.8,0.7,1c0.2,0.1,0.4,0.2,0.6,0.4c0.1,0,0.2,0.1,0.2,0.2c0,0.1,0.1,0.3,0,0.3c-0.1,0.1-0.2,0.1-0.4,0.2
	c-0.2,0-0.4,0-0.6-0.1c-0.2-0.1-0.4-0.1-0.4,0.1s-0.1,0.3-0.2,0.5v0.1C54.5,36.5,54.9,36.7,55.2,36.6z M63.4,34.4c0,0.4,0,0.8,0,1.2
	c0,0.3,0,0.6,0,0.9c0.3,0,0.6,0,0.9,0c0.2,0,0.2-0.1,0.2-0.2c0-0.7,0-1.5,0-2.2c0-0.4,0.1-0.5,0.5-0.7c0.2-0.1,0.4,0,0.5-0.1
	c0.1-0.1,0-0.4,0-0.5c0-0.1,0-0.3,0-0.4c0,0,0-0.1-0.1-0.1c-0.1,0-0.3,0-0.4,0c-0.2,0.1-0.3,0.2-0.5,0.3c-0.1,0.1-0.2,0.1-0.2,0
	c0-0.2-0.1-0.3-0.3-0.3c-0.1,0-0.3,0-0.4,0c-0.2,0-0.2,0.1-0.2,0.2C63.4,33.2,63.4,33.8,63.4,34.4z M47.8,34.4c0-0.4,0-0.8,0-1.2
	c0-0.3,0-0.6,0-0.8c-0.3,0-0.6,0-0.8,0s-0.2,0-0.2,0.3c0,1,0,2,0,3c0,0.3,0,0.6,0,0.9c0.3,0,0.6,0,0.9,0c0.2,0,0.2-0.1,0.2-0.2
	C47.8,35.7,47.8,35.1,47.8,34.4z M52.5,34.5c0,0.4,0,0.8,0,1.2c0,0.3,0,0.6,0,0.8c0.3,0,0.6,0,0.8,0s0.2,0,0.2-0.2c0-1,0-2,0-3
	c0-0.3,0-0.6,0-0.9c-0.3,0-0.6,0-0.9,0c-0.2,0-0.2,0.1-0.2,0.2C52.5,33.2,52.5,33.8,52.5,34.5z M60.1,41.9c0.6,0,0.6,0,0.9-0.2
	c0.3-0.2,0.4-0.6,0.2-1c-0.1-0.1-0.1-0.2,0-0.2c0.2-0.2,0.2-0.4,0.2-0.6c0-0.3-0.2-0.4-0.5-0.4c-0.2,0-0.5,0-0.7,0s-0.3,0.1-0.3,0.3
	c0,0.3-0.1,0.6-0.2,0.9c0,0.3-0.1,0.6-0.1,0.9c0,0.3,0,0.3,0.3,0.3C60,41.9,60.1,41.9,60.1,41.9z M65.1,39.5c0-0.3-0.1-0.4-0.3-0.3
	c-0.1,0-0.1,0.1-0.2,0.2c0,0.2-0.1,0.4-0.1,0.6c0,0.1,0,0.1-0.1,0.1C64.3,40,64.1,39.9,64,40c-0.2,0.1-0.4,0.2-0.4,0.4
	c-0.1,0.2-0.2,0.4-0.3,0.6c-0.1,0.3-0.1,0.7,0.2,1c0.1,0.1,0.2,0.1,0.3,0.1C64,42,64,42,64.3,42c0.2,0,0.3-0.1,0.4-0.2
	c0-0.2,0-0.5,0.1-0.7c0.1-0.2,0-0.5,0.2-0.7C65.1,40,65.1,39.7,65.1,39.5z M47.7,41.9c0.2,0.1,0.2-0.1,0.3-0.3c0,0,0.1,0,0.1-0.1
	s-0.1-0.4,0.1-0.4c0.1,0,0.3-0.1,0.4-0.1h0.1c0.2-0.1,0.4-0.2,0.6-0.4c0.1-0.1,0-0.3,0.1-0.4c0.2-0.2,0-0.4,0-0.5
	c0-0.2-0.3-0.2-0.5-0.2c-0.3,0-0.6,0-0.8,0c-0.1,0-0.1,0-0.1,0.1s-0.1,0.2-0.1,0.3c0,0.2-0.1,0.4-0.1,0.7c0,0.2-0.1,0.5-0.1,0.7
	c-0.2,0.2,0,0.5-0.2,0.6c0,0,0,0.1,0.1,0.1C47.5,41.9,47.6,41.9,47.7,41.9z M53.6,49.5c0,0.3,0,0.3,0.2,0.2c0.2,0,0.2-0.1,0.2-0.2
	c0-0.1,0-0.2,0.1-0.2c0.2,0,0.3,0,0.5,0c0.1,0,0.1,0.1,0.1,0.2l0,0c0.1,0.2,0.3,0.1,0.4,0.1c0.1,0,0.1-0.2,0.1-0.3
	c-0.1-0.3-0.1-0.5-0.2-0.8c-0.1-0.3-0.1-0.6-0.2-1c-0.1-0.3-0.1-0.3-0.4-0.3c-0.1,0-0.2,0-0.2,0c-0.2,0-0.2,0.1-0.2,0.2
	c0,0.1,0,0.1-0.1,0.2c-0.1,0.4-0.1,0.8-0.3,1.2C53.6,49.1,53.6,49.3,53.6,49.5z M55.7,41.2c0,0.5,0,0.5,0.2,0.7
	c0.1,0.1,0.2,0.1,0.4,0c0.1-0.1,0.2-0.2,0.5-0.1c0.1,0.1,0.4-0.1,0.4-0.3s0.1-0.5,0.1-0.7s0.1-0.4,0.1-0.6c0-0.1,0-0.1,0.1-0.2
	c-0.1,0-0.2,0-0.2,0c-0.1-0.1-0.3,0.2-0.4,0c-0.3-0.2-0.5-0.1-0.7,0.1C55.8,40.5,55.7,40.9,55.7,41.2z M52.7,40.5
	c0-0.3-0.1-0.4-0.2-0.5c-0.2-0.2-0.4-0.1-0.5,0.1c-0.1,0.1-0.1,0-0.2,0c-0.4-0.1-0.5,0-0.5,0.3c0,0.1,0,0.1,0,0.2
	c-0.2,0.4-0.1,0.8-0.3,1.2c0,0.1,0,0.2,0.1,0.2s0.2,0,0.3,0s0.2-0.1,0.2-0.2c0.1-0.2,0.1-0.5,0.1-0.7c0-0.1,0.1-0.2,0.1-0.3
	c0.1-0.1,0.3-0.3,0.3-0.2s0,0.2,0,0.3s0,0.2,0,0.3c-0.1,0.2,0,0.5-0.2,0.7c0,0.1,0,0.2,0.1,0.1c0.1,0,0.1,0,0.2,0
	c0.2,0,0.2-0.1,0.3-0.3c0-0.1,0-0.2,0.1-0.4C52.7,41,52.7,40.7,52.7,40.5z M54.5,40.6L54.5,40.6c0-0.1,0-0.2,0-0.2
	c0-0.3-0.3-0.5-0.6-0.4c-0.1,0-0.2,0.1-0.3,0.2c0-0.2-0.1-0.2-0.2-0.2c-0.2,0-0.3,0-0.2,0.2c0,0.1-0.1,0.2-0.1,0.4
	c0,0.1,0,0.2-0.1,0.4s-0.1,0.5-0.1,0.8c0,0.1,0,0.2,0.1,0.1c0.1,0,0.1,0,0.2,0c0.1,0,0.1,0,0.2-0.2c0.1-0.3,0.2-0.6,0.2-1
	c0-0.2,0.3-0.4,0.4-0.4c0.2,0.1,0,0.3,0.1,0.4L54,40.8c0,0.3-0.1,0.6-0.1,0.8c0,0.1,0,0.1,0.1,0.1s0.2,0,0.2,0s0.1,0,0.1-0.1
	C54.4,41.4,54.5,41,54.5,40.6z M46.9,48.6L46.9,48.6c0,0.4,0,0.7,0,1.1c0.3,0,0.7,0,1,0H48c0,0,0.1,0,0.1-0.1s0-0.3,0-0.4
	c0,0-0.2,0-0.3,0s-0.2,0-0.3,0c0,0-0.1,0-0.1-0.1s0-0.3,0-0.4c0,0,0.2,0,0.3,0s0.1,0,0.2,0c0.1,0,0.2-0.1,0.2-0.3s-0.1-0.1-0.2-0.1
	c-0.1,0-0.2,0-0.2,0c-0.2,0-0.2-0.1-0.2-0.3s0.1-0.1,0.2-0.1c0.1,0,0.2,0,0.2,0c0.2,0,0.2,0,0.2-0.2c0-0.3,0-0.3-0.3-0.3
	c-0.2,0-0.4,0-0.6,0c-0.2,0-0.3,0.1-0.3,0.3C46.9,48,46.9,48.3,46.9,48.6z M50.2,41.5C50.1,41.5,50.1,41.5,50.2,41.5
	c-0.2,0-0.3,0-0.3-0.2s0.1-0.2,0.2-0.2c0.3,0,0.5-0.1,0.7-0.2c0.2-0.1,0.3-0.5,0.2-0.7c-0.2-0.2-0.6-0.4-0.8-0.3
	c-0.3,0.2-0.6,0.3-0.6,0.7c-0.2,0.1,0,0.4-0.1,0.5c-0.2,0.2,0,0.4,0.1,0.6c0,0.2,0.3,0.2,0.5,0.2s0.3,0,0.5-0.1
	c0.3-0.1,0.3-0.1,0.3-0.3s0-0.2-0.2-0.1C50.3,41.5,50.2,41.5,50.2,41.5z M52.2,48.6c0,0.3,0,0.7,0,1c0,0.1,0,0.1,0.1,0.1
	c0.3,0,0.4-0.1,0.4-0.3c0-0.1,0-0.1,0-0.2c0-0.2,0-0.2,0.2-0.3c0.2,0,0.3-0.1,0.5-0.2c0.3-0.2,0.3-0.4,0.3-0.7s-0.2-0.5-0.4-0.6
	c-0.3-0.1-0.6-0.2-0.9-0.1c-0.1,0-0.2,0.1-0.2,0.3C52.2,47.9,52.2,48.3,52.2,48.6z M61.5,41.3c0,0.1,0,0.3,0.1,0.4
	c0.1,0.1,0.2,0.2,0.4,0.3c0.3,0.1,0.6-0.1,0.9-0.1c0.1,0,0.1-0.1,0.1-0.2c0-0.2-0.1-0.1-0.2-0.1c-0.1,0-0.3,0-0.4,0
	c-0.2,0-0.3-0.1-0.2-0.3c0-0.2,0.2-0.1,0.2-0.1c0.1,0,0.3,0,0.4-0.1c0.4-0.2,0.4-0.2,0.4-0.6c0-0.3-0.1-0.5-0.4-0.5
	c-0.3,0-0.5,0-0.8,0.2C61.7,40.4,61.5,40.8,61.5,41.3z M45.7,48.5c0,0.3,0,0.6,0,0.9c0,0.2,0.1,0.3,0.3,0.3s0.4,0,0.6,0
	c0.1,0,0.2,0,0.2,0c0-0.1,0-0.3,0-0.4c0,0-0.2,0-0.3,0s-0.2,0-0.2-0.2c0-0.5,0-1,0-1.4c0-0.2-0.1-0.3-0.3-0.3s-0.3,0.1-0.3,0.3
	C45.7,47.9,45.7,48.2,45.7,48.5z M66.1,48.8c0,0.3,0,0.5,0,0.8c0,0.2,0.1,0.2,0.2,0.2c0.2,0,0.3-0.1,0.3-0.3c0-0.4,0-0.9,0-1.3
	c0-0.2,0-0.3,0.2-0.3c0.1,0,0.2,0,0.2-0.1c0-0.3,0-0.3-0.3-0.3c-0.1,0-0.3,0-0.4,0c-0.1,0-0.3,0-0.4,0c-0.2,0-0.3,0.1-0.3,0.4
	c0,0.2,0.2,0.1,0.2,0.1c0.2,0,0.2,0,0.2,0.2C66.1,48.3,66.1,48.5,66.1,48.8z M61,32c0.2,0,0.3-0.1,0.5-0.1c0.1,0,0.2-0.1,0.1-0.2
	c-0.1-0.1-0.1-0.2-0.2-0.3c-0.1-0.2-0.3-0.4-0.5-0.6c-0.1-0.1-0.1-0.2-0.3-0.1s-0.4,0.1-0.6,0.1c0,0-0.1,0-0.1,0.1V31
	c0.3,0.3,0.6,0.6,0.9,0.9C60.9,31.9,61,32,61,32z M57.8,41.9c0.2,0,0.2,0,0.2-0.2c0-0.3,0.2-0.5,0.2-0.8c0-0.2,0.2-0.3,0.3-0.3
	c0.3,0,0.3-0.2,0.3-0.3s0-0.2,0-0.3c-0.1,0-0.2,0-0.3,0.1s-0.2,0.1-0.3,0c-0.1,0-0.2,0-0.2,0c-0.1,0-0.1,0-0.2,0.2
	c-0.1,0.3-0.1,0.6-0.2,1c-0.1,0.2-0.1,0.3-0.1,0.5C57.5,41.9,57.4,41.9,57.8,41.9z M47.3,30.7L47.3,30.7c-0.1,0-0.2,0-0.2,0
	c-0.3,0-0.3,0-0.3,0.3c0,0.1,0,0.1,0,0.2c0,0.2,0,0.4,0,0.5c0.1,0.1,0.3,0,0.5,0c0.5,0,0.6,0,0.5-0.5c0-0.2,0-0.4,0-0.5
	C47.7,30.7,47.5,30.7,47.3,30.7z M53.6,31.3L53.6,31.3v-0.1c0-0.4,0-0.4-0.4-0.4h-0.1c-0.2,0-0.4,0-0.5,0c-0.1,0.1,0,0.3,0,0.5
	c0,0.5,0,0.5,0.5,0.5c0.2,0,0.4,0,0.5,0C53.6,31.6,53.6,31.4,53.6,31.3z M59.2,40.6c-0.1,0-0.2,0-0.3,0c-0.2,0-0.2,0.1-0.2,0.2
	c0,0.3,0,0.3,0.3,0.3c0.1,0,0.3,0,0.4,0c0,0,0.1,0,0.1-0.1s0.1-0.3,0.1-0.4C59.4,40.6,59.3,40.6,59.2,40.6L59.2,40.6z M55.1,41.1
	c0.1,0,0.1,0,0.2,0c0.3,0,0.4-0.1,0.3-0.4c0,0,0-0.1-0.1-0.1c-0.2,0-0.4,0-0.6,0l-0.1,0.1c-0.1,0.1-0.2,0.2-0.1,0.3
	C54.8,41.1,54.9,41.1,55.1,41.1C55,41.1,55.1,41.1,55.1,41.1z M51.7,46.8L51.7,46.8c-0.1,0-0.2,0-0.2,0c-0.1,0.1-0.2,0.3-0.2,0.4
	c0,0,0,0.1,0.1,0.1c0.2,0,0.5-0.2,0.6-0.4c0,0,0-0.1-0.1-0.1S51.7,46.8,51.7,46.8z"/>
<path fill="#FDDA04" d="M43.6,24.6c0,2.2,0,4.3,0,6.5c0,1.8,0,3.6,0,5.5c0,6.2,0,12.3,0,18.5c-8.3,0-16.5,0-24.8,0
	c-0.4,0-0.4,0-0.4-0.4c0-9.9,0-19.8,0-29.6c0-0.1,0-0.2,0-0.2c0-0.1,0.1-0.1,0.2-0.1c0.1,0,0.2,0,0.3,0
	C27.1,24.6,35.3,24.6,43.6,24.6z M31,30.4c-2.5,0-5.1,0-7.6,0c-0.1,0-0.2,0-0.3,0c-0.1,0-0.1,0-0.1,0.1v0.1c0,5.2,0,10.3,0,15.5
	c0,0.3,0.1,0.4,0.3,0.5c0.3,0.1,0.5,0.3,0.8,0.4c0.6,0.4,1.2,0.7,1.8,1.1c0.6,0.3,1.1,0.7,1.7,1s1.2,0.7,1.8,1.1
	c0.4,0.3,0.8,0.5,1.3,0.8c0.2,0.1,0.3,0.2,0.5,0.2s0.4-0.2,0.5-0.3c0.1,0,0.2-0.1,0.3-0.2c0.6-0.3,1.1-0.7,1.7-1
	c0.6-0.4,1.2-0.8,1.9-1.1c0.4-0.2,0.8-0.4,1.1-0.6c0.8-0.5,1.5-1,2.3-1.4c0.2-0.1,0.4-0.3,0.4-0.5c0-0.4,0-0.8,0-1.2
	c0-4.7,0-9.5,0-14.2c0-0.4,0.1-0.3-0.3-0.3C36.2,30.4,33.6,30.4,31,30.4z"/>
<path fill="#081A21" d="M67.8,34.8c0.3,0,0.6,0,0.8,0c0.1,0,0.2,0,0.2,0.2c0,0.1,0,0.2,0,0.3c0,0.1,0,0.3,0,0.3c0,0.1-0.2,0-0.3,0.1
	c-0.3,0.1-0.6,0.1-0.9,0.1c-0.5,0-0.7-0.2-0.7-0.8c0-0.3,0-0.2,0.2-0.2S67.5,34.8,67.8,34.8z"/>
<path fill="#081A21" d="M67.4,34.1C67.4,34.1,67.3,34.1,67.4,34.1c-0.3,0-0.5,0.1-0.6-0.1c-0.1-0.3,0-0.6,0.3-0.8
	c0.5-0.3,0.9,0.1,0.9,0.5v0.1c0,0.3,0,0.3-0.3,0.3C67.6,34.1,67.5,34.1,67.4,34.1z"/>
<path fill="#F8F9F7" d="M48.5,34.5c0-0.6,0-1.3,0-1.9c0-0.2,0.1-0.2,0.2-0.2c0.1,0,0.2,0,0.3,0c0.3-0.1,0.4,0.1,0.5,0.3
	c0,0.1,0,0.1,0.1,0c0.2-0.1,0.4-0.3,0.6-0.4c0.3-0.1,0.7-0.1,1,0c0.2,0.1,0.3,0.2,0.4,0.3c0.1,0.2,0.2,0.4,0.2,0.7c0,1,0,1.9,0,2.9
	c0,0.1,0,0.2-0.2,0.2c-0.3,0-0.6,0-0.9,0c0-0.3,0-0.6,0-0.9c0-0.6,0-1.2,0-1.8c0-0.2-0.1-0.4-0.3-0.5c-0.1-0.1-0.2-0.1-0.3,0
	c-0.1,0.1-0.2,0.1-0.2,0.1c-0.2,0-0.2,0.2-0.2,0.3c0,0.8,0,1.7,0,2.5c0,0.2,0,0.3-0.2,0.3c-0.3,0-0.6,0-0.8,0c0-0.3,0-0.6,0-0.8
	C48.5,35.3,48.5,34.9,48.5,34.5z"/>
<path fill="#F8F9F7" d="M61.8,34.8c-0.3,0-0.6,0-0.8,0c-0.3,0-0.3,0-0.3,0.4c0,0.4,0.2,0.5,0.5,0.6c0.2,0.1,0.5,0.1,0.6,0
	c0.2-0.1,0.3-0.1,0.5-0.1c0.1,0,0.2,0,0.3-0.1h0.1c0,0.2,0.2,0.4,0.1,0.6l-0.1,0.1c-0.1,0.1-0.3,0.2-0.4,0.2
	c-0.5,0.1-0.9,0.2-1.4,0.1c-0.2,0-0.5-0.1-0.7-0.3c-0.2-0.2-0.4-0.4-0.5-0.6c0-0.2-0.1-0.4-0.1-0.6s0.1-0.3-0.1-0.5v-0.1
	c0.1-0.5,0.1-1.1,0.4-1.6c0.2-0.4,0.6-0.7,1-0.7c0.3-0.1,0.7-0.1,1,0.1c0.4,0.2,0.8,0.6,0.9,1c0,0.1,0.1,0.2,0.1,0.4
	c0,0.3,0,0.7,0,1c-0.3,0-0.6,0-0.9,0C61.9,34.8,61.8,34.8,61.8,34.8z M61.2,34.1c0.1,0,0.3,0,0.4,0c0.3,0,0.4,0,0.3-0.4
	c0-0.3-0.2-0.4-0.4-0.6c-0.1-0.1-0.3-0.1-0.4,0c-0.2,0.1-0.4,0.3-0.4,0.5c0,0.1,0,0.3,0,0.4c0,0.1,0.2,0,0.3,0
	C61,34.1,61.1,34.1,61.2,34.1z"/>
<path fill="#F8F9F7" d="M43.6,36.5c0-1.8,0-3.6,0-5.5c0.8,0,1.7,0,2.5,0c0.1,0,0.2,0,0.2,0.2s0,0.3,0,0.5S46.2,32,46,32
	c-0.4,0-0.7,0-1.1,0c-0.2,0-0.2,0.1-0.2,0.2c0,0.2,0,0.5,0,0.7c0,0.3,0.1,0.3,0.3,0.3c0.3,0,0.6,0,0.9,0c0.1,0,0.2,0,0.2,0.2
	s0,0.5,0,0.7c-0.2,0-0.5,0-0.7,0s-0.4,0-0.5,0s-0.2,0.1-0.2,0.2c0,0.6,0,1.3,0,1.9c0,0.2,0,0.2-0.2,0.2
	C44.1,36.5,43.9,36.5,43.6,36.5z"/>
<path fill="#F8F9F7" d="M58.5,31.7v0.1c0,0.2,0,0.4,0,0.5c0.1,0.1,0.3,0,0.5,0c0.1,0,0.2,0,0.2,0.2c0,0.1,0,0.2,0,0.2
	c0,0.1,0,0.3,0,0.4c-0.1,0.1-0.3,0-0.4,0c-0.2,0-0.2,0-0.2,0.2c0,0.6,0,1.3,0,1.9c0,0.2,0.1,0.2,0.2,0.2c0.1,0,0.4,0,0.4,0
	c0.1,0.1,0,0.3,0.1,0.5c0,0.1,0,0.3,0,0.4c-0.1,0.1-0.3,0.1-0.4,0.1c-0.1,0-0.3,0-0.4,0c-0.5,0-0.9-0.4-0.9-0.9c0-0.7,0-1.5,0-2.2
	c0-0.2,0-0.2-0.2-0.2h-0.1L57.2,33c0-0.1,0-0.2,0-0.3c0-0.1,0-0.3,0-0.4c0.1-0.1,0.2,0,0.4-0.1l0.1-0.1c0-0.3,0-0.6,0-0.9l0.1-0.1
	c0.3,0.1,0.6-0.1,0.9-0.1c0.1,0,0.2,0,0.1,0.1C58.5,31.4,58.5,31.5,58.5,31.7z"/>
<path fill="#F8F9F7" d="M55.2,36.6c-0.4,0.1-0.7-0.1-1.1-0.3c0,0-0.1-0.1,0-0.1c0.1-0.1,0.2-0.3,0.2-0.5s0.2-0.2,0.4-0.1
	c0.2,0.1,0.4,0.2,0.6,0.1c0.1,0,0.3-0.1,0.4-0.2c0.1-0.1,0-0.2,0-0.3s-0.1-0.1-0.2-0.2c-0.2-0.1-0.4-0.3-0.6-0.4
	c-0.5-0.2-0.6-0.6-0.7-1c-0.1-0.4,0.2-1,0.7-1.2c0.6-0.3,1.2-0.2,1.7,0c0.2,0.1,0.2,0.1,0.1,0.4c0,0.1-0.1,0.1-0.1,0.2
	c0,0.1,0,0.2,0,0.2c-0.1,0-0.2,0.1-0.3,0c-0.2-0.2-0.4-0.1-0.6-0.1c-0.1,0-0.3,0-0.3,0.1c-0.1,0.1,0,0.4,0.2,0.5
	c0.2,0.1,0.3,0.2,0.5,0.3c0.3,0.1,0.5,0.3,0.8,0.6c0.1,0.1,0.2,0.3,0.2,0.5c0,0.1,0,0.1,0,0.2c0.1,0.7-0.6,1.3-1.3,1.3
	C55.4,36.6,55.3,36.6,55.2,36.6z"/>
<path fill="#F8F9F7" d="M63.4,34.4c0-0.6,0-1.2,0-1.8c0-0.1,0-0.2,0.2-0.2c0.1,0,0.3,0,0.4,0c0.2,0,0.3,0,0.3,0.3
	c0,0.1,0.1,0.1,0.2,0c0.1-0.1,0.3-0.3,0.5-0.3c0.1-0.1,0.3,0,0.4,0l0.1,0.1c0,0.1,0,0.3,0,0.4c0,0.2,0.1,0.4,0,0.5
	c-0.1,0.1-0.3,0.1-0.5,0.1c-0.4,0.2-0.5,0.3-0.5,0.7c0,0.7,0,1.5,0,2.2c0,0.1,0,0.2-0.2,0.2c-0.3,0-0.6,0-0.9,0c0-0.3,0-0.6,0-0.9
	C63.4,35.2,63.4,34.8,63.4,34.4z"/>
<path fill="#F8F9F7" d="M47.8,34.4c0,0.6,0,1.3,0,1.9c0,0.1,0,0.2-0.2,0.2c-0.3,0-0.6,0-0.9,0c0-0.3,0-0.6,0-0.9c0-1,0-2,0-3
	c0-0.2,0-0.3,0.2-0.3c0.3,0,0.6,0,0.8,0c0,0.3,0,0.6,0,0.8C47.9,33.6,47.8,34,47.8,34.4z"/>
<path fill="#F8F9F7" d="M52.5,34.5c0-0.6,0-1.3,0-1.9c0-0.1,0-0.2,0.2-0.2c0.3,0,0.6,0,0.9,0c0,0.3,0,0.6,0,0.9c0,1,0,2,0,3
	c0,0.2,0,0.3-0.2,0.2c-0.3,0-0.6,0-0.8,0c0-0.3,0-0.6,0-0.8C52.5,35.3,52.5,34.9,52.5,34.5z"/>
<path fill="#F8F9F7" d="M57,47.9c0-0.1,0-0.2,0-0.2c0-0.2,0.1-0.3,0.2-0.2c0.4,0,0.8-0.1,1.2,0.1c0,0,0.1-0.1,0.2-0.1
	c0.3,0,0.6,0,0.9,0c0.2,0,0.3,0.3,0.2,0.5h-0.1c-0.1,0-0.2,0-0.3,0c-0.3,0-0.2,0-0.3,0.3c0,0.2,0,0.3,0.2,0.2c0.1,0,0.3,0,0.4,0
	c0,0.1,0,0.1,0,0.2c0,0.1,0,0.2-0.2,0.2h-0.1c-0.3,0-0.3,0-0.3,0.3c0,0.2,0.1,0.2,0.2,0.2h0.1c0.3,0,0.4,0,0.4,0.4
	c-0.1,0.1-0.3,0.1-0.5,0.1s-0.4,0-0.5,0c-0.2,0-0.3-0.1-0.3-0.3c0-0.5,0-1,0-1.5c0-0.1,0-0.2-0.1-0.1c0,0-0.1,0-0.2,0
	c-0.1,0-0.2,0-0.2,0.2c0,0.5,0,1,0,1.5c0,0.1,0,0.2-0.1,0.2s-0.3,0-0.4,0v-0.1c0-0.5,0-1,0-1.5c0-0.2,0-0.2-0.2-0.2
	C57.1,47.9,57.1,47.9,57,47.9z"/>
<path fill="#F8F9F7" d="M60,48.3c0-0.2,0-0.4,0-0.6c0-0.2,0.1-0.2,0.2-0.2c0.1,0,0.2,0,0.3,0c0.2,0,0.2,0.1,0.3,0.2
	c0.1,0.3,0.1,0.5,0.2,0.8c0,0.1,0,0.1,0.1,0.2l0.1,0.1v-0.1c0.1-0.2,0.1-0.5,0.2-0.7v-0.1c0-0.1,0.1-0.3,0.2-0.4
	c0.1-0.1,0.3,0,0.5,0c0.1,0,0.2,0.2,0.1,0.2c-0.1,0.5,0.1,1,0.1,1.5c0,0.1,0,0.3,0,0.4c0,0.1,0.1,0.3-0.2,0.3
	c-0.2,0-0.3-0.1-0.3-0.3c0-0.3,0-0.6,0-0.9c0-0.1,0-0.2,0-0.2c0-0.1,0-0.2,0-0.2c0,0.1-0.1,0.1-0.1,0.2c0,0.1,0,0.2,0,0.3
	c0,0.4-0.2,0.7-0.3,1.1C61.3,50,61.3,50,61.2,50c-0.1,0-0.2,0-0.2-0.1c-0.1-0.3-0.3-0.7-0.3-1.1c0-0.2-0.1-0.3-0.1-0.5
	c-0.1,0.1,0,0.3-0.1,0.5c0,0.3,0,0.6,0,0.9c0,0.3-0.2,0.4-0.5,0.2C59.9,49.2,59.9,48.7,60,48.3z"/>
<path fill="#F8F9F7" d="M64.4,47.4c0.2,0.4,0.3,0.7,0.5,1.1c0,0,0,0.1,0.1,0.1v-0.1c0-0.2,0-0.5,0-0.7s0.1-0.3,0.3-0.3
	c0.1,0,0.2,0,0.2,0.2c0,0.4,0,0.7,0,1.1c0,0.3,0,0.6,0,0.9c0,0.2-0.1,0.2-0.2,0.2c-0.2,0-0.3,0-0.4-0.3c0-0.2-0.2-0.3-0.3-0.5
	s-0.2-0.3-0.3-0.5c0,0.2,0,0.4,0,0.5c0,0.2,0,0.5,0,0.7c-0.1,0-0.3,0-0.4,0c-0.1-0.1-0.1-0.3-0.1-0.4c0-0.6,0-1.3,0-1.9l0.1-0.1
	C64.1,47.4,64.3,47.4,64.4,47.4z"/>
<path fill="#F8F9F7" d="M60.1,41.9c-0.1,0-0.1,0-0.2,0c-0.3,0-0.3,0-0.3-0.3s0.1-0.6,0.1-0.9c0-0.3,0.2-0.6,0.2-0.9
	c0-0.2,0.2-0.3,0.3-0.3c0.2,0,0.5,0,0.7,0c0.3,0,0.4,0.1,0.5,0.4c0,0.3,0,0.5-0.2,0.6c-0.1,0.1-0.1,0.1,0,0.2c0.2,0.3,0.1,0.8-0.2,1
	C60.7,41.9,60.7,41.9,60.1,41.9z M60.4,40.8c-0.1,0-0.2,0-0.2,0.1s0,0.2-0.1,0.3c-0.1,0.2,0,0.3,0.2,0.2c0.1,0,0.2,0,0.3-0.1
	s0.2-0.3,0.1-0.3C60.8,40.9,60.6,40.8,60.4,40.8z M60.7,39.8c-0.2,0-0.3,0-0.3,0.2c0,0,0,0,0,0.1s0,0.2,0,0.3c0.1,0,0.2,0,0.3,0
	s0.1-0.1,0.2-0.1H61c0-0.1,0-0.3,0-0.4C60.9,39.7,60.8,39.8,60.7,39.8z"/>
<path fill="#F8F9F7" d="M65.1,39.5c0,0.2,0,0.5-0.1,0.7s0,0.5-0.2,0.7c-0.1,0.2-0.1,0.5-0.1,0.7s-0.2,0.2-0.4,0.2
	c-0.3,0-0.3,0-0.5,0.1c-0.1,0.1-0.2,0-0.3-0.1c-0.3-0.3-0.3-0.6-0.2-1c0.1-0.2,0.2-0.4,0.3-0.6c0.1-0.2,0.3-0.3,0.4-0.4
	c0.2-0.1,0.3,0.1,0.4,0.1s0.1,0.1,0.1-0.1c0-0.2,0.1-0.4,0.1-0.6c0-0.1,0.1-0.2,0.2-0.2C65,39.1,65.1,39.2,65.1,39.5z M63.7,41.2
	c0,0.1,0.1,0.2,0.1,0.2c0.1,0.2,0.2-0.1,0.3-0.1s0.2-0.1,0.2-0.3c0-0.1,0-0.2,0.1-0.4c0.1-0.1,0-0.3-0.1-0.3c-0.1,0-0.3,0-0.3,0.2
	C63.9,40.8,63.8,41,63.7,41.2z"/>
<path fill="#F8F9F7" d="M50.2,49.5c-0.4,0.2-0.8,0.2-1.2,0.2l-0.1-0.1c0-0.7,0-1.4,0-2.1c0-0.1,0-0.1,0.1-0.1c0.2,0,0.3,0,0.5,0
	s0.3,0.1,0.5,0.1h0.1c0,0.1,0.1,0.1,0.2,0.1l0.1,0.1c0,0.1,0.1,0.2,0.1,0.3s0,0.3,0,0.4c0.2,0.2-0.1,0.3,0,0.4
	C50.6,49.1,50.5,49.3,50.2,49.5C50.3,49.5,50.3,49.5,50.2,49.5z M49.4,48.5c0,0.2,0,0.5,0,0.7c0,0,0,0.1,0.1,0.1s0.2,0,0.4-0.1
	l0.1-0.1c0.1-0.1,0.2-0.3,0.2-0.4c0-0.2-0.1-0.5-0.1-0.7L50,47.9c-0.1,0-0.3-0.1-0.4-0.1c0,0.1,0,0.3,0,0.4
	C49.4,48.3,49.4,48.4,49.4,48.5z"/>
<path fill="#F8F9F7" d="M47.7,41.9c-0.1,0-0.2,0-0.3,0l-0.1-0.1c0.2-0.2,0-0.5,0.2-0.6c0-0.2,0.1-0.5,0.1-0.7s0.2-0.4,0.1-0.7
	c0-0.1,0.1-0.2,0.1-0.3s0-0.1,0.1-0.1c0.3,0,0.6,0,0.8,0s0.4,0.1,0.5,0.2c0,0.1,0.3,0.3,0,0.5c-0.1,0.1,0,0.3-0.1,0.4
	c-0.1,0.3-0.3,0.4-0.6,0.4h-0.1c-0.2,0-0.3,0.1-0.4,0.1c-0.2,0.1,0,0.3-0.1,0.4c0,0-0.1,0-0.1,0.1C47.9,41.8,47.9,42,47.7,41.9z
	 M48.3,40.6c0.3,0,0.5-0.2,0.5-0.5c0-0.2-0.1-0.2-0.3-0.3c-0.2,0-0.3,0.1-0.3,0.2c0,0.1,0,0.3,0,0.4C48.1,40.6,48.1,40.6,48.3,40.6z
	"/>
<path fill="#F8F9F7" d="M53.6,49.5c0-0.2,0-0.4,0.1-0.6c0.2-0.4,0.2-0.8,0.3-1.2c0-0.1,0-0.1,0.1-0.2c0-0.1,0.1-0.2,0.2-0.2
	c0.1,0,0.2,0,0.2,0c0.3,0,0.3,0,0.4,0.3c0.1,0.3,0.1,0.6,0.2,1c0.1,0.3,0.1,0.6,0.2,0.8c0,0.1,0.1,0.3-0.1,0.3c-0.1,0-0.3,0-0.4-0.1
	l0,0c0-0.1-0.1-0.2-0.1-0.2c-0.2,0-0.3,0-0.5,0c0,0,0,0.1-0.1,0.2c0,0.1-0.1,0.2-0.2,0.2C53.6,49.8,53.6,49.8,53.6,49.5z M54.5,48.9
	L54.5,48.9l0.2-0.1c-0.1-0.3-0.1-0.6-0.2-0.8v-0.1c0,0,0,0,0,0.1c-0.1,0.3-0.1,0.5-0.2,0.8c0,0.1,0,0.2,0.1,0.2
	C54.4,48.9,54.4,48.9,54.5,48.9z"/>
<path fill="#F8F9F7" d="M55.5,48.5c0-0.1,0-0.1,0-0.2c0-0.3,0-0.6,0-0.9c0.3,0,0.7,0,1,0s0.5,0.5,0.4,0.8c0,0.1-0.1,0.2-0.2,0.3
	c-0.2,0.2-0.1,0.3,0,0.5s0.2,0.4,0.2,0.6c0,0.1,0,0.2-0.1,0.2c-0.3,0-0.3,0-0.5-0.4c-0.1-0.2-0.2-0.4-0.3-0.6c0,0-0.1-0.1-0.1,0
	l-0.1,0.1c0,0.2,0,0.4,0,0.6c0,0,0,0.1-0.1,0.1s-0.2,0-0.3,0v-0.1C55.5,49.2,55.5,48.9,55.5,48.5z M55.9,48
	C55.9,48.1,55.9,48.1,55.9,48c0,0.3,0,0.3,0.2,0.3h0.1c0.1,0,0.2-0.1,0.3-0.1s0-0.2-0.1-0.3s-0.2-0.2-0.4-0.2
	c-0.1,0-0.1,0.1-0.1,0.1C55.9,47.9,55.9,48,55.9,48z"/>
<path fill="#F8F9F7" d="M55.7,41.2c0-0.3,0.1-0.8,0.4-1.1c0.2-0.2,0.4-0.3,0.7-0.1c0.2,0.1,0.3-0.1,0.4,0c0.1,0,0.2,0,0.2,0
	c0,0.1-0.1,0.1-0.1,0.2c0,0.2-0.1,0.4-0.1,0.6c0,0.2-0.1,0.5-0.1,0.7s-0.3,0.4-0.4,0.3c-0.2-0.2-0.3,0-0.5,0.1s-0.3,0.1-0.4,0
	C55.7,41.7,55.7,41.7,55.7,41.2z M56.6,40.4L56.6,40.4c-0.4,0.1-0.5,0.8-0.4,1c0.1,0.1,0.1,0.2,0.2,0.1c0.2-0.1,0.3-0.2,0.3-0.4
	c0-0.1,0-0.2,0-0.3C56.9,40.5,56.8,40.4,56.6,40.4z"/>
<path fill="#F8F9F7" d="M52.7,40.5c0,0.2,0,0.5-0.1,0.7c0,0.1,0,0.2-0.1,0.4c0,0.2-0.1,0.2-0.3,0.3c-0.1,0-0.1,0-0.2,0
	c-0.1,0-0.2-0.1-0.1-0.1c0.1-0.2,0-0.5,0.2-0.7c0-0.1,0-0.2,0-0.3s0-0.2,0-0.3s-0.3,0.1-0.3,0.2c-0.1,0.1-0.1,0.2-0.1,0.3
	c0,0.2-0.1,0.5-0.1,0.7c0,0.1-0.1,0.2-0.2,0.2c-0.1,0-0.2,0-0.3,0S51,41.8,51,41.7c0.1-0.4,0.1-0.8,0.3-1.2c0-0.1,0-0.1,0-0.2
	c0-0.4,0.1-0.4,0.5-0.3c0.1,0,0.1,0.1,0.2,0c0.2-0.2,0.3-0.2,0.5-0.1C52.6,40.1,52.7,40.2,52.7,40.5z"/>
<path fill="#F8F9F7" d="M63.6,49.7c-0.3,0-0.6,0-0.9,0c-0.2,0-0.2-0.1-0.2-0.2c0-0.6,0-1.3,0-1.9c0-0.1,0.1-0.2,0.2-0.2
	c0.3,0,0.7,0,1,0l0,0c0,0.1,0,0.3,0,0.4c-0.2,0-0.4,0-0.6,0c0,0-0.1,0-0.1,0.1c-0.1,0.2,0,0.4,0.3,0.4c0.1,0,0.3,0,0.4,0
	c0,0.1,0,0.3,0,0.4c-0.1,0-0.3,0-0.4,0c-0.2,0-0.2,0-0.2,0.2c0,0.3,0,0.3,0.3,0.3c0.1,0,0.2,0,0.3,0s0.2,0.1,0.2,0.2
	C63.7,49.6,63.7,49.7,63.6,49.7z"/>
<path fill="#F8F9F7" d="M54.5,40.6c-0.1,0.4-0.1,0.8-0.2,1.3L54.2,42c-0.1,0-0.2,0-0.2,0c-0.1,0-0.2,0-0.1-0.1
	c0-0.3,0.1-0.6,0.1-0.8l0.1-0.1c0-0.1,0.1-0.3-0.1-0.4c-0.1-0.1-0.4,0.2-0.4,0.4c0,0.3-0.1,0.6-0.2,1c0,0.1,0,0.2-0.2,0.2
	c-0.1,0-0.1,0-0.2,0c-0.1,0-0.1,0-0.1-0.1c0-0.3,0-0.5,0.1-0.8c0-0.1,0.1-0.2,0.1-0.4c0-0.1,0.1-0.2,0.1-0.4s0.1-0.3,0.2-0.2
	c0.1,0,0.2,0,0.3,0.1c0.1-0.1,0.2-0.1,0.3-0.2C54.3,40.1,54.6,40.3,54.5,40.6C54.5,40.4,54.5,40.5,54.5,40.6L54.5,40.6z"/>
<path fill="#F8F9F7" d="M46.9,48.6c0-0.3,0-0.7,0-1c0-0.2,0.1-0.3,0.3-0.3s0.4,0,0.6,0c0.3,0,0.3,0,0.3,0.3c0,0.2-0.1,0.2-0.2,0.2
	c-0.1,0-0.2,0-0.2,0c-0.1,0-0.2-0.1-0.2,0.1c0,0.2,0.1,0.3,0.2,0.3c0.1,0,0.2,0,0.2,0c0.1,0,0.2-0.1,0.2,0.1c0,0.1-0.1,0.3-0.2,0.3
	c-0.1,0-0.1,0-0.2,0c-0.1,0-0.3,0-0.3,0c0,0.1,0,0.3,0,0.4l0.1,0.1c0.1,0,0.2,0,0.3,0s0.3,0,0.3,0c0,0.1,0,0.3,0,0.4
	c0,0,0,0.1-0.1,0.1h-0.1c-0.3,0-0.7,0-1,0C46.9,49.3,46.9,49,46.9,48.6C46.9,48.7,46.9,48.7,46.9,48.6z"/>
<path fill="#F8F9F7" d="M50.2,41.5c0,0,0.1,0,0.2-0.1c0.2-0.1,0.2-0.1,0.2,0.1c0,0.2,0,0.2-0.3,0.3C50.2,42,50,42,49.9,42
	c-0.2,0-0.5-0.1-0.5-0.2c0-0.2-0.3-0.3-0.1-0.6c0.1-0.1-0.1-0.4,0.1-0.5c0-0.4,0.4-0.5,0.6-0.7c0.2-0.1,0.6,0,0.8,0.3
	c0.1,0.2,0,0.6-0.2,0.7c-0.2,0.1-0.4,0.2-0.7,0.2c-0.1,0-0.2,0-0.2,0.2s0.1,0.2,0.2,0.2C50.1,41.5,50.1,41.5,50.2,41.5z M50.1,40.7
	c0.1,0,0.2,0,0.2,0c0.1,0,0.1-0.1,0.1-0.2c0-0.1-0.1-0.1-0.1-0.2c0,0-0.1,0-0.2,0.1L50,40.5c0,0,0,0.1-0.1,0.2
	C50,40.7,50,40.7,50.1,40.7z"/>
<path fill="#F8F9F7" d="M52.2,48.6c0-0.3,0-0.7,0-1c0-0.2,0.1-0.2,0.2-0.3c0.3-0.1,0.6,0,0.9,0.1c0.2,0.1,0.4,0.3,0.4,0.6
	s0,0.6-0.3,0.7c-0.1,0.1-0.3,0.1-0.5,0.2c-0.2,0.1-0.2,0-0.2,0.3c0,0.1,0,0.1,0,0.2c0,0.3-0.1,0.3-0.4,0.3c-0.1,0-0.1,0-0.1-0.1
	C52.2,49.3,52.2,48.9,52.2,48.6z M53.2,48.2c0-0.1,0.1-0.2-0.1-0.3c-0.3-0.2-0.4-0.2-0.4,0.2c0,0.1,0,0.2,0,0.2
	c0,0.1-0.1,0.2,0.1,0.2c0.2,0,0.3-0.1,0.3-0.2C53.2,48.3,53.2,48.2,53.2,48.2z"/>
<path fill="#F8F9F7" d="M61.5,41.3c0-0.4,0.1-0.9,0.5-1.1c0.2-0.2,0.5-0.2,0.8-0.2s0.4,0.2,0.4,0.5c0,0.4,0,0.4-0.4,0.6
	c-0.1,0.1-0.3,0.1-0.4,0.1c-0.1,0-0.2-0.1-0.2,0.1c0,0.2,0.1,0.3,0.2,0.3c0.1,0,0.3,0,0.4,0c0.1,0,0.2-0.1,0.2,0.1
	c0,0.1,0,0.2-0.1,0.2C62.6,42,62.3,42.1,62,42c-0.1-0.1-0.3-0.2-0.4-0.3C61.5,41.6,61.6,41.4,61.5,41.3z M62.4,40.7h0.2
	c0-0.1,0-0.2,0-0.3h-0.2c-0.1,0-0.2,0.2-0.2,0.2v0.1C62.3,40.7,62.3,40.7,62.4,40.7z"/>
<path fill="#F8F9F7" d="M50.8,47.5c0.2-0.1,0.5-0.1,0.9-0.1c0.1,0,0.1,0,0.2,0.1c0.1,0,0.1,0.3,0.1,0.4h-0.1c-0.1,0-0.2,0-0.3,0
	c-0.3,0-0.3,0-0.3,0.3c0,0.2,0,0.2,0.2,0.2c0.1,0,0.1,0,0.2,0c0.2,0,0.2,0.1,0.1,0.2c0,0.1,0,0.2-0.2,0.2h-0.1c-0.1,0-0.3,0-0.3,0
	c0,0.1,0,0.3,0,0.4l0.1,0.1c0.1,0,0.2,0,0.3,0c0.2,0,0.2,0,0.2,0.2s0,0.3-0.3,0.3s-0.5,0-0.8,0l-0.1-0.1
	C50.8,48.9,50.8,48.2,50.8,47.5z"/>
<path fill="#F8F9F7" d="M45.7,48.5c0-0.3,0-0.6,0-0.9c0-0.2,0.1-0.3,0.3-0.3s0.3,0.1,0.3,0.3c0,0.5,0,1,0,1.4c0,0.2,0,0.2,0.2,0.2
	c0.1,0,0.3,0,0.3,0c0,0.1,0,0.3,0,0.4c0,0-0.1,0-0.2,0c-0.2,0-0.4,0-0.6,0c-0.2,0-0.3-0.1-0.3-0.3C45.7,49.1,45.7,48.8,45.7,48.5z"
	/>
<path fill="#F8F9F7" d="M66.1,48.8c0-0.2,0-0.5,0-0.7s0-0.2-0.2-0.2c-0.1,0-0.2,0.1-0.2-0.1c0-0.2,0.1-0.4,0.3-0.4
	c0.1,0,0.3,0,0.4,0c0.1,0,0.3,0,0.4,0c0.3,0,0.3,0,0.3,0.3c0,0.1-0.1,0.2-0.2,0.1c-0.2,0-0.2,0.1-0.2,0.3c0,0.4,0,0.9,0,1.3
	c0,0.2-0.1,0.3-0.3,0.3c-0.1,0-0.2,0-0.2-0.2C66.1,49.3,66.1,49,66.1,48.8z"/>
<path fill="#F8F9F7" d="M61,32c0,0-0.1,0-0.2-0.1c-0.3-0.3-0.6-0.6-0.9-0.9v-0.1l0.1-0.1c0.2,0,0.5,0,0.6-0.1c0.2-0.1,0.3,0,0.3,0.1
	c0.1,0.2,0.3,0.4,0.5,0.6c0.1,0.1,0.1,0.2,0.2,0.3c0.1,0.1,0,0.2-0.1,0.2C61.4,31.9,61.2,31.9,61,32z"/>
<path fill="#F8F9F7" d="M57.8,41.9c-0.3,0-0.3,0-0.3-0.3c0-0.2,0-0.3,0.1-0.5c0.1-0.3,0.1-0.6,0.2-1c0-0.1,0.1-0.2,0.2-0.2
	c0.1,0,0.2,0,0.2,0c0.1,0.1,0.2,0.1,0.3,0s0.2-0.1,0.3-0.1c0,0.1,0.1,0.2,0,0.3c0,0.2-0.1,0.3-0.3,0.3c-0.1,0-0.3,0.1-0.3,0.3
	c0,0.3-0.1,0.5-0.2,0.8C58,41.9,57.9,41.9,57.8,41.9z"/>
<path fill="#F8F9F7" d="M47.3,30.7c0.2,0,0.3,0,0.5,0c0,0.2,0,0.4,0,0.5c0,0.5,0,0.6-0.5,0.5c-0.2,0-0.4,0.1-0.5,0s0-0.3,0-0.5
	c0-0.1,0-0.1,0-0.2c0-0.3,0-0.3,0.3-0.3C47.2,30.7,47.2,30.7,47.3,30.7L47.3,30.7z"/>
<path fill="#F8F9F7" d="M53.6,31.3c0,0.2,0,0.3,0,0.5c-0.2,0-0.4,0-0.5,0c-0.5,0-0.6,0-0.5-0.5c0-0.2-0.1-0.4,0-0.5s0.3,0,0.5,0h0.1
	c0.4,0,0.4,0,0.4,0.4C53.6,31.2,53.6,31.2,53.6,31.3L53.6,31.3z"/>
<path fill="#081A21" d="M50.8,47.5c0,0.7,0,1.5,0,2.2c-0.1,0-0.2,0-0.2,0c0-0.2-0.2-0.1-0.3-0.2c0.1-0.2,0.3-0.4,0.2-0.6
	c0-0.2,0.2-0.2,0-0.4c-0.1-0.1,0-0.3,0-0.4c0-0.1-0.1-0.2-0.1-0.3c0.1,0,0.2,0,0.2-0.1C50.6,47.4,50.8,47.5,50.8,47.5z"/>
<path fill="#081A21" d="M60,48.3c0,0.5-0.1,0.9-0.1,1.4h-0.1c0-0.4,0-0.4-0.4-0.4h-0.1c-0.2,0-0.2,0-0.2-0.2c0-0.3,0-0.3,0.3-0.3
	h0.1c0.2,0,0.2-0.1,0.2-0.2c0-0.1,0-0.1,0-0.2C59.8,48.3,59.9,48.3,60,48.3z"/>
<path fill="#081A21" d="M63.6,48.9c0.1-0.3,0.1-0.5,0.1-0.6c0.1-0.2,0.1-0.3,0-0.5c0-0.1,0-0.3,0-0.4c0.1,0,0.1,0,0.2,0
	c0,0.6,0,1.3,0,1.9c0,0.1,0,0.3,0.1,0.4c-0.1,0-0.2,0-0.3,0c0-0.1,0.1-0.2,0.1-0.3s-0.1-0.2-0.2-0.2c-0.1,0-0.2,0-0.3,0
	c-0.3,0-0.3,0-0.3-0.3c0-0.2,0-0.2,0.2-0.2C63.3,48.7,63.5,48.7,63.6,48.9c0,0.2,0.1,0.2,0.1,0.2C63.7,49,63.7,48.9,63.6,48.9
	L63.6,48.9c-0.1,0.1-0.3-0.1-0.4,0L63.1,49c0,0,0,0.1,0.1,0.1C63.3,49.2,63.4,49.1,63.6,48.9z"/>
<path fill="#F8F9F7" d="M59.2,40.6L59.2,40.6c0.2,0,0.3,0,0.4,0c0,0.1,0,0.3-0.1,0.4l-0.1,0.1c-0.1,0-0.3,0-0.4,0
	c-0.3,0-0.3,0-0.3-0.3c0-0.2,0-0.3,0.2-0.2C59,40.6,59.1,40.6,59.2,40.6z"/>
<path fill="#F8F9F7" d="M55.1,41.1C55.1,41.1,55,41.1,55.1,41.1c-0.2,0-0.3,0-0.4-0.1c-0.1-0.1,0-0.2,0.1-0.3l0.1-0.1
	c0.2,0,0.4,0,0.6,0l0.1,0.1c0,0.3-0.1,0.4-0.3,0.4C55.2,41.1,55.1,41.1,55.1,41.1z"/>
<path fill="#F8F9F7" d="M51.7,46.8c0.1,0,0.1,0,0.2,0l0.1,0.1c-0.1,0.2-0.4,0.4-0.6,0.4l-0.1-0.1c0.1-0.1,0.1-0.3,0.2-0.4
	C51.5,46.7,51.6,46.8,51.7,46.8L51.7,46.8z"/>
<path fill="#168CCD" d="M61.6,48.6c0-0.1,0-0.2,0-0.3s0.1-0.1,0.1-0.2c0,0.1,0,0.2,0,0.2C61.7,48.4,61.7,48.5,61.6,48.6
	C61.7,48.6,61.6,48.6,61.6,48.6z"/>
<path fill="#081A21" d="M60.4,48.6c0-0.2-0.1-0.3,0.1-0.5c0,0.2,0.1,0.3,0.1,0.5C60.5,48.6,60.4,48.6,60.4,48.6z"/>
<path fill="#081A21" d="M64.4,47.4c-0.2,0-0.3,0-0.5,0C64.1,47.2,64.3,47.2,64.4,47.4z"/>
<path fill="#081A21" d="M63.9,49.7c0.1,0,0.3,0,0.4,0C64.2,49.9,64.1,49.9,63.9,49.7z"/>
<path fill="#081A21" d="M50.3,47.6c-0.1,0-0.2,0-0.2-0.1C50.2,47.5,50.3,47.4,50.3,47.6z"/>
<path fill="#081A21" d="M50.2,49.5C50.3,49.5,50.3,49.5,50.2,49.5C50.3,49.5,50.3,49.5,50.2,49.5C50.3,49.6,50.3,49.6,50.2,49.5
	C50.3,49.6,50.3,49.6,50.2,49.5z"/>
<path fill="#081A21" d="M50.1,47.5L50.1,47.5C50.1,47.4,50.1,47.4,50.1,47.5C50.1,47.4,50.1,47.4,50.1,47.5z"/>
<path fill="#081A21" d="M63.9,47.4L63.9,47.4L63.9,47.4z"/>
<path fill="#081A21" d="M50.4,47.7C50.4,47.6,50.4,47.6,50.4,47.7C50.4,47.6,50.4,47.6,50.4,47.7z"/>
<path fill="#081A21" d="M31,30.4c2.6,0,5.2,0,7.8,0c0.4,0,0.3,0,0.3,0.3c0,4.7,0,9.5,0,14.2c0,0.4,0,0.8,0,1.2
	c0,0.3-0.1,0.4-0.4,0.5c-0.8,0.5-1.6,1-2.3,1.4c-0.4,0.2-0.8,0.4-1.1,0.6c-0.6,0.4-1.2,0.8-1.9,1.1c-0.6,0.3-1.1,0.7-1.7,1
	c-0.1,0.1-0.2,0.1-0.3,0.2c-0.2,0.1-0.4,0.2-0.5,0.3c-0.2,0-0.3-0.1-0.5-0.2c-0.4-0.3-0.8-0.5-1.3-0.8c-0.6-0.4-1.2-0.8-1.8-1.1
	c-0.6-0.3-1.1-0.7-1.7-1c-0.6-0.4-1.2-0.7-1.8-1.1c-0.2-0.2-0.5-0.3-0.8-0.4c-0.2-0.1-0.3-0.3-0.3-0.5c0-5.2,0-10.3,0-15.5v-0.1
	c0-0.1,0-0.1,0.1-0.1c0.1,0,0.2,0,0.3,0C25.9,30.4,28.4,30.4,31,30.4z M31,39.2c-0.1,0.1-0.3,0.2-0.4,0.3s-0.2,0.3-0.3,0.4
	c-0.1,0.2-0.2,0.4-0.3,0.6c-0.1,0.1-0.1,0.2-0.3,0.2c-0.1,0-0.3,0-0.3,0c-0.2,0.1,0.1,0.2,0.1,0.3c0.1,0.2,0.1,0.4,0.1,0.7
	c0,0.2,0.2,0.3,0.4,0.3c0.1,0,0.4-0.3,0.4-0.5c0-0.1,0-0.2,0-0.3s0.2-0.1,0.2-0.1c0.1,0,0.3-0.1,0.4-0.1v0.1c0,0.6,0,1.2,0,1.8V43
	c-0.1,0-0.3,0-0.4,0c-0.2,0-0.5,0-0.7,0c-0.2,0.1-0.5-0.1-0.7,0.1c-0.2,0-0.3,0.1-0.5,0.2c-0.2,0.1-0.3,0.1-0.3-0.2
	c0-0.2,0-0.4,0-0.6l-0.1-0.1l-0.1,0.1c-0.4,0-0.5,0.4-0.8,0.6v0.1c0,0.5,0,1,0.2,1.5c0.1,0.2,0.1,0.3-0.1,0.4
	c-0.2,0.1-0.4,0.2-0.7,0.3l-0.1,0.1c0,0.2,0,0.3,0,0.5c0.2,0.6,0.8,1,1.4,1c0.2,0,0.3,0.1,0.4,0.3c0,0.1,0,0.2,0,0.2
	c0.2,0.4,0.1,0.7-0.2,0.9c-0.1,0.1,0,0.2,0,0.2c0.4,0.2,0.7,0.4,1.1,0.6c0.4,0.2,0.8,0.5,1.2,0.7c0.2,0.1,0.4,0.3,0.7,0.4h0.1
	c0.6-0.5,1.3-0.8,1.9-1.2c0.4-0.3,0.9-0.5,1.3-0.8c0.6-0.4,1.2-0.7,1.8-1.1c0.3-0.1,0.5-0.3,0.8-0.5c0.4-0.3,0.9-0.5,1.3-0.8
	c0.1-0.1,0.1-0.1,0.1-0.2c0-0.1,0-0.2,0-0.3c0-3.3,0-6.6,0-9.9c0-0.1,0-0.2,0-0.2c0-1.3,0-2.7,0-4c0-0.1,0-0.2-0.2-0.2
	c-0.1,0-0.2,0-0.2,0c-4.7,0-9.4,0-14,0c-0.1,0-0.2,0-0.2,0c-0.2,0-0.2,0.1-0.2,0.2c0,1.4,0,2.8,0,4.3c0,3.3,0,6.6,0,9.9
	c0,0.1,0,0.2,0,0.3s0.1,0.1,0.1,0.2c0.4,0.3,0.9,0.5,1.4,0.9c0.2,0,0.2,0.3,0.5,0.3c0,0,0,0,0-0.1l0,0c0,0,0,0,0.1,0
	c0,0,0,0-0.1-0.1c0-0.1,0-0.2-0.1-0.3c-0.1-0.3-0.2-0.7-0.4-1c-0.1-0.2-0.1-0.4,0-0.6c0.1-0.4,0.3-0.7,0.1-1.1c0-0.1,0-0.2-0.1-0.2
	c-0.2-0.1-0.1,0.2-0.2,0.2c-0.1,0.1-0.2,0.2-0.2,0.2c-0.1,0.1-0.1,0.1-0.2,0C24.2,43.6,24,42.8,24,42c0-0.3,0.1-0.5,0.1-0.8
	c0.1-0.2,0.2-0.5,0.3-0.7c0.1-0.4,0.3-0.7,0.2-1.1c0-0.2,0-0.3-0.2-0.5c-0.1-0.1-0.3-0.2-0.4-0.3c-0.1-0.2,0-0.4,0-0.6
	c0-0.4,0-0.8,0-1.1c0-0.2,0.1-0.2,0.2-0.2c0.4,0.2,0.8,0.5,1,0.9c0.1,0.1,0.1,0.2,0.1,0.4c0,0.5,0,1,0,1.5c0,0.1,0,0.2-0.1,0.3
	c-0.1,0.6-0.4,1.1-0.6,1.6s-0.1,0.9-0.1,1.4c0,0.1,0.1,0.1,0.1,0.2c0,0,0,0.1,0.1,0.1l0.1-0.1c0.2-0.4,0.5-0.6,0.7-1
	c0.1-0.1,0.2-0.2,0.3-0.3c0.2,0,0.3-0.2,0.4-0.3c0,0,0.1-0.1,0.1-0.2c-0.1-0.1-0.1-0.2-0.1-0.4v-0.1c0,0,0,0-0.1,0.1L26,40.9
	c-0.1,0.1-0.1,0.1-0.2-0.1c0-0.1-0.1-0.1-0.1-0.2c0-0.4,0-0.8,0-1.2s0.1-0.8,0.2-1.2c0.1-0.5,0.2-0.9,0.5-1.3
	c0.1-0.1,0.1-0.2,0.2-0.3c0.3-0.1,0.6-0.5,1-0.4c0.2-0.2,0.3,0,0.4,0.1c0.1,0.1,0.1,0.3,0.3,0.2c0.3,0.2,0.6,0.2,0.8,0.5
	c0.2,0.2,0.2,0.6,0,0.7c-0.1,0.1-0.4,0.2-0.5,0c-0.1-0.1-0.3-0.2-0.5-0.2c-0.1,0-0.2,0.1-0.2,0.2C28,37.8,28,38,28.1,38
	c0.1,0.1,0.2,0,0.3,0c0.1,0,0.3,0,0.4,0c0.2,0,0.1,0.1,0.1,0.1c0,0.2,0,0.3-0.2,0.3s-0.4,0.1-0.6,0c0,0-0.1,0-0.2,0
	c0,0.1,0,0.1,0,0.2c0.2,0.3,0.4,0.6,0.6,0.9c0,0,0.1,0,0.2,0c0.4-0.3,0.8-0.7,1.2-1c0.1-0.1,0.1-0.2,0.2-0.3c0-0.2,0-0.4,0.2-0.5
	c0.2-0.1,0.4-0.3,0.6-0.3C31,38.1,31,38.7,31,39.2z M30.9,31.1c2.3,0,4.7,0,7,0c0.1,0,0.3,0,0.4,0c0,0,0,0,0-0.1l0,0
	c-0.1,0-0.1,0-0.2,0c-4.8,0-9.6,0-14.4,0c-0.1,0-0.1,0-0.2,0c0,0,0,0,0,0.1l0,0c0.1,0,0.3,0,0.4,0C26.3,31.1,28.6,31.1,30.9,31.1z
	 M28.2,37.1c0.1-0.1,0.2-0.1,0.4-0.2v-0.1c-0.1,0-0.3-0.1-0.4-0.1s-0.1,0-0.1,0.1C28,37,28.1,37.1,28.2,37.1z"/>
<path fill="#081A21" d="M61.2,34.1c-0.1,0-0.2,0-0.2,0c-0.1,0-0.3,0-0.3,0c-0.1-0.1-0.1-0.3,0-0.4c0.1-0.2,0.2-0.4,0.4-0.5
	c0.1-0.1,0.3,0,0.4,0c0.2,0.1,0.4,0.3,0.4,0.6c0,0.3,0,0.4-0.3,0.4C61.4,34.1,61.3,34.1,61.2,34.1z"/>
<path fill="#081A21" d="M60.4,40.8c0.2,0,0.3,0.1,0.4,0.2c0,0.1-0.1,0.3-0.1,0.3c-0.1,0.1-0.2,0.1-0.3,0.1c-0.2,0-0.3-0.1-0.2-0.2
	C60.3,41.1,60.3,41,60.4,40.8C60.2,40.8,60.3,40.8,60.4,40.8z"/>
<path fill="#081A21" d="M60.7,39.8c0.1,0,0.2-0.1,0.2,0.1c0,0.1,0,0.3,0,0.4h-0.1c-0.1,0-0.1,0.1-0.2,0.1c-0.1,0-0.2,0-0.3,0
	c0-0.1,0-0.2,0-0.3V40C60.4,39.8,60.6,39.8,60.7,39.8z"/>
<path fill="#081A21" d="M63.7,41.2c0.1-0.3,0.1-0.5,0.2-0.7c0.1-0.1,0.2-0.2,0.3-0.2c0.1,0,0.2,0.2,0.1,0.3
	c-0.1,0.1-0.1,0.2-0.1,0.4c0,0.1-0.1,0.3-0.2,0.3c-0.1,0-0.2,0.2-0.3,0.1C63.8,41.4,63.7,41.3,63.7,41.2z"/>
<path fill="#081A21" d="M49.4,48.5c0-0.1,0-0.3,0-0.4c0-0.1,0-0.3,0-0.4c0.1,0,0.3,0,0.4,0.1c0.1,0,0.1,0.1,0.1,0.1
	c0.1,0.2,0.1,0.5,0.1,0.7c0,0.1-0.1,0.3-0.2,0.4c0,0.1,0,0.1-0.1,0.1s-0.2,0.1-0.4,0.1l-0.1-0.1C49.4,49,49.4,48.8,49.4,48.5z"/>
<path fill="#081A21" d="M48.3,40.6c-0.2,0-0.2,0-0.1-0.2c0-0.1,0-0.3,0-0.4c0-0.2,0.1-0.2,0.3-0.2s0.3,0.1,0.3,0.3
	C48.9,40.4,48.7,40.6,48.3,40.6z"/>
<path fill="#081A21" d="M54.5,48.9L54.5,48.9c-0.2,0-0.2-0.1-0.2-0.2c0.1-0.3,0.1-0.5,0.2-0.8c0,0,0,0,0-0.1v0.1
	c0.1,0.3,0.1,0.6,0.2,0.8c0,0,0,0.1-0.1,0.1C54.6,49,54.5,48.9,54.5,48.9z"/>
<path fill="#081A21" d="M55.9,48L55.9,48c0-0.2,0-0.2,0.1-0.2c0.2,0,0.3,0,0.4,0.2c0.1,0.1,0.1,0.2,0.1,0.3s-0.1,0.2-0.3,0.1h-0.1
	C55.9,48.4,55.9,48.3,55.9,48C55.9,48.1,55.9,48.1,55.9,48z"/>
<path fill="#081A21" d="M56.6,40.4c0.2,0,0.3,0.1,0.2,0.3c0,0.1,0,0.2,0,0.3c0,0.2-0.2,0.3-0.3,0.4c-0.1,0.1-0.2,0-0.2-0.1
	C56.1,41.2,56.3,40.5,56.6,40.4L56.6,40.4z"/>
<path fill="#051821" d="M63.6,47.9c0.1,0.2,0.1,0.3,0,0.5c-0.1,0-0.3,0-0.4,0c-0.3,0-0.4-0.2-0.3-0.4l0.1-0.1
	C63.2,47.9,63.4,47.9,63.6,47.9z"/>
<path fill="#081A21" d="M50.1,40.7c0,0-0.1,0-0.2-0.1c0-0.1,0-0.1,0.1-0.2l0.1-0.1c0,0,0.1-0.1,0.2-0.1c0.1,0,0.1,0.1,0.1,0.2
	c0,0.1-0.1,0.1-0.1,0.2C50.3,40.7,50.2,40.7,50.1,40.7z"/>
<path fill="#081A21" d="M53.2,48.2L53.2,48.2c0,0.3-0.1,0.3-0.3,0.3s-0.1-0.1-0.1-0.2c0-0.1,0-0.2,0-0.2c0-0.4,0.1-0.4,0.4-0.2
	C53.3,47.9,53.2,48.1,53.2,48.2z"/>
<path fill="#081A21" d="M62.4,40.7c-0.1,0-0.2,0-0.2,0s-0.1-0.1,0-0.1c0.1-0.1,0.1-0.2,0.2-0.2c0.1,0,0.2,0,0.2,0c0,0.1,0,0.2,0,0.3
	C62.6,40.7,62.5,40.7,62.4,40.7z"/>
<path fill="#051821" d="M63.5,49.1c-0.2,0-0.2,0-0.3,0L63.1,49c0,0,0-0.1,0.1-0.1c0.1-0.1,0.3,0.1,0.4-0.1h0.1c0,0.1,0,0.2,0,0.3
	S63.5,49.1,63.5,49.1z"/>
<path fill="#F8F9F7" d="M23.5,35.6c0-1.4,0-2.8,0-4.3c0-0.1,0-0.2,0.2-0.2c0.1,0,0.2,0,0.2,0c4.7,0,9.4,0,14,0c0.1,0,0.2,0,0.2,0
	c0.2,0,0.2,0.1,0.2,0.2c0,1.3,0,2.7,0,4c0,0.1,0,0.2,0,0.2c-2.5,0-5,0-7.4,0C28.5,35.6,26,35.6,23.5,35.6z M34.4,34.9
	c0.2,0.1,0.3,0,0.3-0.2c0-0.1,0-0.2-0.1-0.3c-0.1,0-0.1-0.1-0.2-0.2c-0.2-0.3-0.4-0.6-0.6-0.9c-0.1-0.1-0.2-0.1-0.3,0
	c-0.3,0.4-0.5,0.7-0.8,1.1c-0.1,0.2-0.1,0.4,0.1,0.4c0.1,0,0.2,0,0.3,0c0.1-0.1,0.2,0,0.3,0c0.1,0.1,0.1,0.2,0.1,0.2
	c0.1,0.1,0.1,0.1,0.2,0c0.1-0.1,0.1-0.2,0.1-0.2c0.1-0.1,0.2-0.2,0.3,0C34.3,34.8,34.4,34.8,34.4,34.9z M37.2,34.9
	c0.1-0.1,0.2-0.1,0.3-0.2c0.1-0.1,0-0.2,0-0.3c-0.3-0.3-0.5-0.7-0.8-1.1c-0.1-0.1-0.2-0.1-0.3,0c-0.2,0.4-0.5,0.8-0.8,1.1
	c-0.1,0.1,0,0.4,0.2,0.4c0.1,0,0.2,0,0.2,0c0.2-0.2,0.3,0,0.3,0.1c0,0.1,0.1,0.1,0.1,0.2h0.2C36.7,34.8,36.9,34.7,37.2,34.9z
	 M31.7,34.9c0,0,0.1-0.1,0.2-0.1c0-0.1,0-0.2,0-0.3c-0.3-0.3-0.5-0.7-0.8-1.1c-0.1-0.1-0.2-0.1-0.3,0c-0.3,0.4-0.5,0.8-0.8,1.1
	c-0.1,0.1,0,0.4,0.2,0.4c0.1,0,0.2,0,0.2,0c0.1-0.2,0.2-0.1,0.3,0c0.1,0.1,0.1,0.2,0.1,0.2s0.1,0,0.2,0
	C31.1,34.8,31.2,34.7,31.7,34.9C31.6,34.9,31.6,34.9,31.7,34.9z M28.9,34.9c0.1,0,0.2-0.1,0.2-0.1c0-0.1,0.1-0.2,0-0.3
	c-0.3-0.4-0.6-0.7-0.8-1.1c-0.1-0.1-0.2-0.1-0.2,0c-0.1,0.1-0.1,0.2-0.2,0.3c-0.2,0.3-0.4,0.6-0.6,0.8c-0.1,0.2-0.1,0.4,0.1,0.4
	c0.1,0,0.2,0,0.2,0c0.2-0.2,0.3,0,0.4,0.1c0,0,0,0.1,0.1,0.2c0.1,0.1,0.2,0.1,0.2,0c0-0.1,0.1-0.2,0.2-0.2
	C28.6,34.9,28.7,34.8,28.9,34.9C28.7,34.8,28.8,34.8,28.9,34.9z M26.1,34.9c0.1,0,0.2-0.1,0.3-0.1c0.2-0.1,0-0.2-0.1-0.3
	c-0.2-0.4-0.5-0.8-0.8-1.1c-0.1-0.1-0.2-0.1-0.3,0c-0.3,0.4-0.6,0.8-0.9,1.2c-0.1,0.1-0.1,0.1,0,0.2c0.1,0,0.3,0.1,0.3,0.1
	c0.3-0.2,0.4,0,0.5,0.1c0.1,0.1,0.2,0.1,0.3,0l0.1-0.1c0.1-0.1,0.2-0.2,0.3,0C26,34.8,26,34.8,26.1,34.9z M30.4,32.5
	c-0.1,0-0.4,0.5-0.3,0.5c0.1,0.1,0.2,0.2,0.4,0.3h0.1c0,0,0-0.1,0.1-0.2c0.2-0.1,0.1-0.3,0-0.4C30.6,32.7,30.5,32.6,30.4,32.5
	C30.5,32.5,30.4,32.5,30.4,32.5z M33.6,32.9c-0.1-0.2-0.2-0.3-0.3-0.5c-0.1,0.1-0.2,0.2-0.3,0.3s-0.1,0.2,0,0.4
	c0.1,0.1,0.1,0.1,0.2,0.2h0.1C33.4,33.2,33.5,33.1,33.6,32.9z M34.3,32.5C34.3,32.5,34.2,32.5,34.3,32.5c-0.1,0.2-0.2,0.3-0.3,0.4
	c-0.1,0.1-0.1,0.2,0,0.2c0.1,0.1,0.1,0.2,0.2,0.3c0.1-0.1,0.2-0.2,0.3-0.2c0.1-0.1,0.1-0.2,0-0.3C34.5,32.7,34.4,32.6,34.3,32.5
	L34.3,32.5z M31.5,32.5L31.5,32.5c-0.2,0.2-0.3,0.3-0.3,0.5c0,0.1,0.2,0.2,0.2,0.3c0.1,0.2,0.1,0.1,0.2,0c0.1-0.1,0.2-0.2,0.2-0.3
	C31.8,32.8,31.7,32.6,31.5,32.5C31.6,32.5,31.5,32.5,31.5,32.5z M24.9,33.4c0.1-0.1,0.1-0.1,0.2-0.2c0.2-0.2,0.2-0.2,0.1-0.5
	c0-0.1-0.1-0.1-0.2-0.2c-0.1-0.1-0.1,0-0.1,0c-0.1,0.1-0.2,0.3-0.3,0.4c0,0.1,0.1,0.2,0.2,0.4C24.8,33.3,24.8,33.4,24.9,33.4z
	 M25.9,33.4L25.9,33.4c0.2-0.1,0.3-0.2,0.4-0.4c0,0-0.1-0.2-0.2-0.3v-0.1c0,0-0.1-0.2-0.2,0c0,0.1-0.1,0.1-0.2,0.2
	c-0.1,0.2-0.1,0.2,0,0.4C25.8,33.2,25.8,33.3,25.9,33.4C25.8,33.3,25.9,33.3,25.9,33.4z M37.1,33.3L37.1,33.3
	c0.1-0.1,0.3-0.2,0.3-0.3s0-0.2-0.1-0.3c-0.2-0.3-0.3-0.3-0.5,0c0,0.1-0.1,0.2-0.1,0.3C36.8,33.2,37,33.2,37.1,33.3z M36,32.5
	C36,32.5,35.9,32.5,36,32.5c-0.4,0.5-0.4,0.6,0,0.9l0,0h0.1c0.1-0.1,0.2-0.2,0.2-0.3c0-0.1,0-0.2-0.1-0.2
	C36.2,32.7,36.1,32.6,36,32.5z M29.1,32.9c-0.1-0.1-0.1-0.1-0.2-0.2c-0.1-0.1-0.1-0.2-0.2-0.3c-0.1,0.1-0.2,0.2-0.2,0.2
	c0,0.1-0.1,0.2-0.1,0.3s0.1,0.1,0.1,0.2c0,0,0,0.1,0.1,0.1c0,0.1,0.1,0.1,0.2,0C28.9,33.1,29,33,29.1,32.9
	C29.1,33,29.1,33,29.1,32.9z M28,33c-0.1-0.2-0.2-0.3-0.4-0.5h-0.1c-0.1,0.1-0.2,0.3-0.3,0.4c0,0.1,0.2,0.2,0.2,0.3
	c0.1,0.1,0.1,0.1,0.2,0C27.8,33.2,27.9,33.1,28,33z M36.9,32.2c0-0.2-0.2-0.3-0.3-0.4h-0.1c-0.1,0-0.3,0.4-0.2,0.6
	c0.1,0.1,0.1,0.2,0.2,0.3h0.1C36.7,32.5,36.8,32.3,36.9,32.2z M28.2,31.8c-0.2,0-0.4,0.4-0.3,0.5c0.1,0.1,0.1,0.2,0.2,0.3h0.1
	c0.1-0.1,0.2-0.2,0.2-0.3C28.5,32.2,28.3,31.8,28.2,31.8L28.2,31.8z M25.7,32.2c-0.1-0.1-0.2-0.3-0.3-0.4h-0.1
	c-0.2,0.1-0.3,0.4-0.2,0.5c0.1,0.1,0.1,0.2,0.2,0.3h0.1C25.5,32.5,25.6,32.4,25.7,32.2z M33.7,31.8L33.7,31.8
	c-0.2,0.2-0.3,0.3-0.3,0.5c0,0.1,0.1,0.3,0.2,0.4h0.1c0.1-0.1,0.2-0.2,0.2-0.3C34.1,32.2,33.9,31.8,33.7,31.8
	C33.8,31.8,33.8,31.8,33.7,31.8z M31.3,32.3c0-0.2-0.2-0.5-0.3-0.5c-0.1,0-0.3,0.3-0.3,0.5s0.2,0.3,0.2,0.4H31
	C31.1,32.5,31.2,32.4,31.3,32.3z"/>
<path fill="#FFFFFF" d="M31,42.9c0-0.6,0-1.2,0-1.8c0.2,0,0.3,0.2,0.4,0.2c0.2,0.1,0.3,0.3,0.5,0.3c0.1,0,0.3-0.1,0.4-0.2
	c0.2-0.1,0.4-0.1,0.6-0.2l0.1-0.1c-0.1-0.2-0.1-0.4-0.3-0.5s-0.3-0.3-0.4-0.5c-0.1-0.2-0.2-0.5-0.4-0.7c-0.2-0.4-0.2-0.4-0.7-0.3
	c-0.1,0-0.1,0-0.2,0c0-0.6,0-1.1,0-1.7c0.1,0.1,0.2,0.1,0.2,0.2c0.2,0.2,0.3,0.4,0.5,0.5c0.5,0.4,0.9,0.8,1.2,1.3
	c0.1,0.3,0.1,0.2,0.4,0.1c0.2-0.1,0.3-0.2,0.5-0.4c0.1-0.1,0.2-0.3,0.2-0.5c0-0.1,0-0.2-0.2-0.2c-0.1,0-0.3,0-0.4,0
	s-0.1-0.1-0.2-0.2c0-0.1,0.1-0.1,0.1-0.1c0.1-0.1,0.2-0.1,0.3-0.1h0.1c0,0,0,0-0.1-0.1c-0.2-0.1-0.4-0.1-0.6-0.1
	c-0.1,0-0.1,0-0.2-0.1c0-0.1-0.1-0.3-0.1-0.5c0-0.1,0.1-0.1,0.2-0.2c0.1-0.1,0.2-0.1,0.4-0.2c0.2-0.1,0.5-0.2,0.7-0.4
	c0.1-0.1,0.3-0.2,0.5-0.3c0.5-0.2,0.9,0,1.4-0.1c0,0,0,0,0.1,0.1c0.6,0.2,0.7,0.3,1,0.9c0.2,0.3,0.1,0.8-0.2,1.1
	c-0.2,0.1-0.4,0.2-0.7,0C36,38,36,38,36,37.9c0-0.1,0.1-0.1,0.2-0.1h0.1c0.2,0,0.2-0.1,0.1-0.2c-0.1-0.4-0.5-0.5-0.8-0.3
	c-0.2,0.1-0.2,0.1-0.2,0.3c0.1,0.2,0.1,0.4,0.2,0.6c0.1,0.3,0,0.5,0.1,0.8c0.1,0.2,0.1,0.5,0.1,0.6c-0.1,0.2,0,0.5-0.2,0.7
	c-0.1,0.1-0.1,0.3-0.1,0.4c0,0.1,0.2,0.2,0.3,0.3c0.1,0,0.1,0.1,0.2,0.1c0.3,0.2,0.7,0.5,0.8,0.8c0,0.1,0.1,0.2,0.2,0.2
	c0.2,0,0.2-0.2,0.3-0.3c0.1-0.2,0.1-0.4,0-0.6c-0.1-0.2-0.2-0.5-0.3-0.7c-0.3-0.4-0.2-0.9-0.2-1.3c0-0.1,0.1-0.1,0.1-0.2
	c0.1-0.5,0.5-0.7,0.9-0.9c0.1-0.1,0.2,0,0.2,0.1c0,0.3,0,0.6,0,0.9c0,0.2,0,0.4-0.2,0.6c0,0-0.1,0.1-0.1,0.2c0,0.3,0,0.6,0.1,0.9
	c0.1,0.4,0.3,0.7,0.1,1.2c-0.1,0.3-0.2,0.7-0.6,0.8c-0.1,0.1-0.1,0.2-0.1,0.3c0,0.4,0,0.8,0,1.1c0,0.1,0,0.2,0.1,0.3
	s0.1,0.1,0.2,0.2c0.1,0.1,0.1,0.1,0,0.2c-0.2,0.3-0.3,0.5-0.5,0.8s-0.4,0.7-0.6,1c-0.2,0.3-0.2,0.3-0.2,0.5v0.1
	c-0.6,0.4-1.2,0.7-1.8,1.1c-0.1-0.4,0.1-0.8,0.1-1.2c0-0.2,0.1-0.3,0.3-0.3c0.1,0,0.2-0.1,0.4-0.1c0.2,0,0.3-0.2,0.3-0.3
	c0.1-0.4,0.3-0.7,0.4-1.1c0.1-0.2,0-0.4-0.1-0.4c-0.2-0.1-0.3-0.3-0.5-0.4c-0.4-0.3-0.5-0.8-0.5-1.3c0-0.2,0.1-0.4-0.1-0.5
	s-0.4-0.1-0.6-0.2c-0.1,0-0.1,0-0.2,0c-0.6-0.1-1-0.1-1.5,0.1c-0.1,0.1-0.3,0.1-0.4,0.1c-0.2,0-0.4,0-0.6,0.2
	C31.2,42.9,31.1,42.9,31,42.9z M34.1,37.3c0,0,0.1,0,0.1-0.1C34.1,37.1,34.1,37,34,37s-0.3,0-0.3,0.1v0.1
	C33.7,37.3,33.9,37.4,34.1,37.3C34,37.3,34,37.3,34.1,37.3z"/>
<path fill="#168CCD" d="M36.1,47.4L36.1,47.4c0-0.3,0-0.3,0.2-0.6c0.2-0.3,0.4-0.6,0.6-1c0.2-0.3,0.3-0.5,0.5-0.8
	c0.1-0.1,0.1-0.2,0-0.2c-0.1-0.1-0.1-0.1-0.2-0.2c-0.1-0.1-0.2-0.2-0.1-0.3c0-0.4,0-0.8,0-1.1c0-0.1,0-0.2,0.1-0.3
	c0.3-0.2,0.4-0.5,0.6-0.8c0.2-0.4,0-0.8-0.1-1.2c-0.1-0.3,0-0.6-0.1-0.9c0,0,0-0.1,0.1-0.2c0.2-0.1,0.2-0.3,0.2-0.6s0-0.6,0-0.9
	c0-0.1-0.1-0.2-0.2-0.1c-0.4,0.2-0.8,0.5-0.9,0.9c0,0.1-0.1,0.1-0.1,0.2c0,0.5-0.1,0.9,0.2,1.3c0.1,0.2,0.2,0.5,0.3,0.7
	c0.1,0.2,0.1,0.4,0,0.6c-0.1,0.1-0.1,0.3-0.3,0.3c-0.1,0-0.1-0.2-0.2-0.2c-0.2-0.3-0.6-0.7-0.8-0.8c-0.1,0-0.1-0.1-0.2-0.1
	c-0.1-0.1-0.3-0.1-0.3-0.3c0-0.1,0-0.3,0.1-0.4c0.2-0.2,0-0.5,0.2-0.7c0.1-0.2,0-0.4-0.1-0.6c-0.1-0.2,0-0.5-0.1-0.8
	c-0.1-0.2-0.1-0.4-0.2-0.6c-0.1-0.2,0-0.2,0.2-0.3c0.4-0.2,0.7,0,0.8,0.3c0,0.1,0,0.2-0.1,0.2h-0.1c-0.1,0-0.2,0-0.2,0.1
	s0,0.1,0.1,0.2c0.2,0.1,0.5,0.1,0.7,0c0.4-0.3,0.4-0.8,0.2-1.1c-0.3-0.5-0.4-0.7-1-0.9c0,0,0-0.1-0.1-0.1c-0.4,0-0.9-0.1-1.4,0.1
	c-0.2,0.1-0.3,0.2-0.5,0.3c-0.2,0.2-0.5,0.3-0.7,0.4C33.1,37,33,37,32.8,37.1c-0.1,0.1-0.2,0.1-0.2,0.2c0,0.1,0,0.3,0.1,0.5
	c0,0,0.1,0.1,0.2,0.1c0.2,0,0.4,0,0.6,0.1c0,0,0,0,0.1,0.1h-0.1c-0.1,0-0.2,0-0.3,0.1c-0.1,0-0.2,0-0.1,0.1c0,0.1,0.1,0.2,0.2,0.2
	s0.3,0,0.4,0c0.2,0,0.2,0,0.2,0.2s-0.1,0.3-0.2,0.5c-0.1,0.1-0.3,0.3-0.5,0.4c-0.2,0.2-0.2,0.2-0.4-0.1c-0.3-0.5-0.7-0.9-1.2-1.3
	c-0.2-0.1-0.4-0.3-0.5-0.5c-0.1-0.1-0.1-0.1-0.2-0.2c0-0.6,0-1.3,0-1.9c2.5,0,5,0,7.4,0c0,3.3,0,6.6,0,9.9c0,0.1,0,0.2,0,0.3
	s0,0.1-0.1,0.2c-0.4,0.3-0.9,0.5-1.3,0.8C36.7,47.1,36.4,47.2,36.1,47.4z"/>
<path fill="#FDDA04" d="M31,35.6c0,0.6,0,1.3,0,1.9c-0.2,0-0.4,0.2-0.6,0.3c-0.2,0.1-0.2,0.3-0.2,0.5c0,0.1-0.1,0.2-0.2,0.3
	c-0.4,0.3-0.8,0.7-1.2,1c0,0-0.1,0-0.2,0c-0.2-0.3-0.4-0.6-0.6-0.9c0,0,0-0.1,0-0.2c0.1,0,0.1,0,0.2,0c0.2,0.1,0.4,0.1,0.6,0
	c0.2,0,0.2-0.2,0.2-0.3s0.1-0.2-0.1-0.1c-0.1,0-0.3,0-0.4,0s-0.2,0-0.3,0C28.1,38,28,37.9,28,37.8c-0.1-0.1,0-0.2,0.2-0.2
	s0.3,0.1,0.5,0.2c0.2,0.1,0.4,0.1,0.5,0c0.2-0.2,0.1-0.6,0-0.7c-0.2-0.3-0.6-0.3-0.8-0.5c-0.2,0.1-0.2-0.1-0.3-0.2
	c-0.1-0.1-0.2-0.3-0.4-0.1c-0.4-0.1-0.7,0.3-1,0.4c-0.1,0-0.1,0.2-0.2,0.3c-0.3,0.4-0.5,0.8-0.5,1.3c-0.1,0.4-0.2,0.8-0.2,1.2
	s0,0.8,0,1.2c0,0.1,0,0.1,0.1,0.2c0.1,0.2,0.1,0.2,0.2,0.1l0.1-0.1c0,0,0,0,0.1-0.1v0.1c0,0.1,0,0.3,0.1,0.4c0,0,0,0.1-0.1,0.2
	c-0.1,0.1-0.2,0.3-0.4,0.3c-0.1,0-0.2,0.2-0.3,0.3c-0.2,0.4-0.6,0.6-0.7,1l-0.1,0.1c0,0,0-0.1-0.1-0.1c0-0.1-0.1-0.1-0.1-0.2
	c0-0.5-0.1-0.9,0.1-1.4s0.5-1,0.6-1.6c0-0.1,0.1-0.2,0.1-0.3c0-0.5,0-1,0-1.5c0-0.1,0-0.3-0.1-0.4c-0.3-0.4-0.6-0.7-1-0.9
	c-0.1-0.1-0.2,0-0.2,0.2c0,0.4,0,0.8,0,1.1c0,0.2,0,0.4,0,0.6c0.1,0.1,0.2,0.2,0.4,0.3c0.2,0.1,0.2,0.3,0.2,0.5
	c0,0.4-0.1,0.8-0.2,1.1c-0.1,0.2-0.2,0.5-0.3,0.7c-0.1,0.3-0.1,0.5-0.1,0.8c-0.1,0.8,0.2,1.6,0.4,2.3c0,0.1,0.1,0.1,0.2,0
	s0.2-0.2,0.2-0.2c0.1-0.1,0-0.3,0.2-0.2c0,0,0,0.2,0.1,0.2c0.2,0.4,0.1,0.8-0.1,1.1c-0.1,0.2-0.1,0.4,0,0.6c0.1,0.3,0.3,0.6,0.4,1
	c0,0.1,0,0.2,0.1,0.3c-0.2,0.1-0.3-0.2-0.5-0.2c-0.4-0.3-0.9-0.5-1.4-0.9c-0.1-0.1-0.2-0.1-0.1-0.2c0-0.1,0-0.2,0-0.3
	c0-3.3,0-6.6,0-9.9C26,35.6,28.5,35.6,31,35.6z"/>
<path fill="#168CCD" d="M31,42.9c0.1,0,0.2,0,0.3,0c0.2-0.2,0.4-0.2,0.6-0.2c0.1,0,0.3,0,0.4-0.1c0.5-0.2,1-0.3,1.5-0.1
	c0.1,0,0.1,0,0.2,0c0.2,0.1,0.4,0.1,0.6,0.2c0.2,0.1,0.1,0.3,0.1,0.5c0.1,0.5,0.2,0.9,0.5,1.3c0.2,0.1,0.3,0.3,0.5,0.4
	c0.1,0.1,0.2,0.2,0.1,0.4c-0.1,0.4-0.2,0.8-0.4,1.1c-0.1,0.1-0.2,0.3-0.3,0.3c-0.1,0-0.2,0-0.4,0.1c-0.1,0.1-0.3,0.2-0.3,0.3
	c0,0.4-0.2,0.8-0.1,1.2c-0.4,0.3-0.9,0.5-1.3,0.8c-0.6,0.4-1.3,0.7-1.9,1.2H31c0-1.1,0-2.3,0-3.4c0.1,0,0.2,0,0.3-0.1
	c0.1-0.1,0.3-0.3,0.5-0.1c0,0,0.1,0,0.2,0c0.5-0.3,1.4-0.7,2-0.8c0.1,0,0.1,0,0.2-0.1c0.2-0.2,0.3-0.5,0.5-0.7
	c0.1-0.1,0.1-0.2,0-0.3c-0.2-0.3-0.3-0.6-0.3-0.9c0-0.2,0-0.4,0-0.6c0-0.1-0.1-0.2-0.2-0.1c-0.1,0.1-0.2,0.2-0.4,0.3
	c-0.3,0.1-0.3,0.3-0.4,0.5c-0.1,0.1-0.1,0.3-0.1,0.4c0.1,0.4-0.1,0.5-0.4,0.7c-0.2,0.1-0.3,0.2-0.5,0.4c-0.3,0.2-0.4,0.2-0.7,0
	c-0.1,0-0.1-0.1-0.2-0.2c-0.1-0.1-0.3-0.2-0.4-0.2C31,44.4,31,43.7,31,42.9C31,43,31,42.9,31,42.9z"/>
<path fill="#FDDA04" d="M31,43c0,0.7,0,1.5,0,2.2c-0.3,0-0.6,0.1-0.9,0.3c-0.2,0.2-0.6,0.2-1,0.1c-0.1-0.1-0.2-0.1-0.1-0.2
	c0.2-0.3,0.3-0.6,0.4-0.9c0-0.1,0-0.2,0-0.3c-0.5-0.2-1-0.5-1.6-0.5h-0.1c-0.1,0.1-0.2,0-0.1,0.2c0.3,0.5,0.4,1.1,0.3,1.7
	c0,0.1-0.1,0.2-0.1,0.4c0,0.1,0,0.2,0.1,0.2s0.1,0.1,0.2,0.1c0.5,0.2,1.1,0.3,1.6,0.5c0.4,0.1,0.7,0.3,1.1,0.3c0,1.1,0,2.3,0,3.4
	c-0.3,0-0.5-0.2-0.7-0.4c-0.4-0.2-0.8-0.5-1.2-0.7c-0.4-0.2-0.7-0.4-1.1-0.6c-0.1,0-0.2-0.1,0-0.2c0.3-0.3,0.4-0.5,0.2-0.9
	c0-0.1,0-0.2,0-0.2c0-0.2-0.2-0.3-0.4-0.3c-0.6,0-1.2-0.4-1.4-1c0-0.1,0-0.3,0-0.5l0.1-0.1c0.2-0.1,0.5-0.2,0.7-0.3s0.2-0.2,0.1-0.4
	c-0.2-0.5-0.2-1-0.2-1.5v-0.1c0.3-0.2,0.4-0.6,0.8-0.6l0.1-0.1c0,0,0.1,0,0.1,0.1c0,0.2,0,0.4,0,0.6c0,0.2,0.1,0.3,0.3,0.2
	c0.2-0.1,0.3-0.2,0.5-0.2c0.2-0.2,0.5-0.1,0.7-0.1c0.2-0.1,0.5,0,0.7,0C30.7,43,30.8,43,31,43z"/>
<path fill="#168CCD" d="M31,39.2c0.1,0,0.1,0,0.2,0c0.5-0.1,0.5-0.1,0.7,0.3c0.1,0.2,0.3,0.4,0.4,0.7c0.1,0.2,0.2,0.4,0.4,0.5
	s0.2,0.4,0.3,0.5l-0.1,0.1c-0.2,0.1-0.4,0.1-0.6,0.2c-0.1,0.1-0.3,0.2-0.4,0.2c-0.2,0-0.3-0.2-0.5-0.3c-0.1-0.1-0.2-0.3-0.4-0.2
	v-0.1C31,40.4,31,39.8,31,39.2z"/>
<path fill="#FDDA04" d="M31,39.2c0,0.6,0,1.2,0,1.8c-0.1,0-0.3,0.1-0.4,0.1s-0.2,0-0.2,0.1s0,0.2,0,0.3c0,0.2-0.2,0.5-0.4,0.5
	c-0.2,0.1-0.4,0-0.4-0.3c0-0.2,0-0.4-0.1-0.7c0.1-0.1-0.2-0.2-0.1-0.3s0.2,0,0.3,0c0.2,0,0.2-0.1,0.3-0.2c0.1-0.2,0.2-0.4,0.3-0.6
	c0.1-0.1,0.2-0.3,0.3-0.4C30.7,39.4,30.8,39.3,31,39.2z"/>
<path fill="#051821" d="M30.9,31.1c-2.3,0-4.6,0-6.9,0c-0.1,0-0.3,0-0.4,0l0,0V31c0.1,0,0.1,0,0.2,0c4.8,0,9.6,0,14.4,0
	c0.1,0,0.1,0,0.2,0l0,0v0.1c-0.1,0-0.3,0-0.4,0C35.6,31.1,33.3,31.1,30.9,31.1z"/>
<path fill="#FDDA04" d="M28.2,37.1c-0.1,0-0.2-0.1-0.2-0.2c0-0.1,0-0.2,0.1-0.1c0.1,0,0.3,0.1,0.4,0.1V37
	C28.5,37,28.3,37.1,28.2,37.1z"/>
<path fill="#FDDA04" d="M25.6,47.2L25.6,47.2C25.5,47.2,25.5,47.2,25.6,47.2C25.5,47.2,25.5,47.2,25.6,47.2L25.6,47.2z"/>
<path fill="#081A21" d="M34.4,34.9h-0.1c-0.1-0.1-0.2-0.1-0.3,0c-0.1,0.1-0.1,0.2-0.1,0.2c-0.1,0.1-0.1,0.1-0.2,0
	c-0.1-0.1-0.1-0.2-0.1-0.2c-0.1-0.1-0.1-0.2-0.3,0c-0.1,0.1-0.2,0-0.3,0c-0.2,0-0.2-0.2-0.1-0.4c0.3-0.4,0.5-0.7,0.8-1.1
	c0.1-0.1,0.2-0.1,0.3,0c0.2,0.3,0.4,0.6,0.6,0.9c0,0.1,0.1,0.1,0.2,0.2c0.1,0.1,0.1,0.2,0.1,0.3C34.7,34.8,34.6,34.9,34.4,34.9z"/>
<path fill="#081A21" d="M37.2,34.9c-0.3-0.2-0.5-0.1-0.6,0.2c0,0-0.1,0-0.2,0c-0.1,0-0.1-0.1-0.1-0.2c-0.1-0.1-0.2-0.3-0.3-0.1h-0.2
	c-0.2,0-0.3-0.2-0.2-0.4c0.3-0.3,0.6-0.7,0.8-1.1c0.1-0.1,0.2-0.1,0.3,0c0.3,0.4,0.5,0.7,0.8,1.1c0.1,0.1,0.1,0.2,0,0.3
	C37.4,34.8,37.3,34.8,37.2,34.9z"/>
<path fill="#081A21" d="M31.7,34.9c-0.1,0-0.1,0-0.1,0c-0.3-0.2-0.5,0-0.6,0.3c0,0-0.1,0-0.2,0c-0.1-0.1-0.1-0.2-0.1-0.2
	c-0.1-0.1-0.2-0.2-0.3,0h-0.2c-0.2,0-0.3-0.2-0.2-0.4c0.3-0.3,0.5-0.7,0.8-1.1c0.1-0.1,0.2-0.1,0.3,0c0.3,0.4,0.5,0.8,0.8,1.1
	c0,0.1,0.1,0.2,0,0.3C31.9,34.8,31.8,34.8,31.7,34.9z"/>
<path fill="#081A21" d="M28.9,34.9c-0.1,0-0.1,0-0.2-0.1c-0.1-0.1-0.2,0-0.3,0c-0.1,0.1-0.1,0.1-0.2,0.2c0,0.1-0.1,0.1-0.2,0
	c0,0,0-0.1-0.1-0.2c-0.1-0.1-0.2-0.3-0.4-0.1h-0.2c-0.2-0.1-0.2-0.2-0.1-0.4c0.2-0.3,0.4-0.6,0.6-0.8c0.1-0.1,0.1-0.2,0.2-0.3
	s0.2-0.1,0.2,0c0.3,0.4,0.5,0.8,0.8,1.1c0,0,0,0.2,0,0.3C29.1,34.8,29,34.8,28.9,34.9z"/>
<path fill="#081A21" d="M26.1,34.9c-0.1,0-0.2,0-0.2-0.1c-0.1-0.1-0.2,0-0.3,0l-0.1,0.1c-0.1,0.1-0.2,0.1-0.3,0
	c-0.1-0.2-0.3-0.3-0.5-0.1c0,0-0.2-0.1-0.3-0.1c-0.1,0-0.1-0.1,0-0.2c0.3-0.4,0.6-0.8,0.9-1.2c0.1-0.1,0.2-0.1,0.3,0
	c0.3,0.4,0.5,0.7,0.8,1.1c0,0.1,0.2,0.2,0.1,0.3C26.3,34.8,26.2,34.8,26.1,34.9z"/>
<path fill="#081A21" d="M30.4,32.5C30.4,32.5,30.5,32.5,30.4,32.5c0.1,0.1,0.2,0.2,0.3,0.3c0.1,0.1,0.2,0.3,0,0.4c0,0,0,0.1-0.1,0.2
	c0,0-0.1,0.1-0.1,0c-0.1-0.1-0.2-0.2-0.4-0.3C30,33,30.3,32.5,30.4,32.5z"/>
<path fill="#081A21" d="M33.6,32.9c-0.1,0.1-0.2,0.3-0.3,0.4h-0.1c-0.1-0.1-0.1-0.1-0.2-0.2c-0.2-0.1-0.1-0.2,0-0.4
	c0.1-0.1,0.2-0.2,0.3-0.3C33.3,32.6,33.5,32.8,33.6,32.9z"/>
<path fill="#081A21" d="M34.3,32.5L34.3,32.5c0.1,0.2,0.2,0.2,0.3,0.3c0.1,0.1,0.1,0.2,0,0.3c-0.1,0.1-0.2,0.2-0.3,0.2
	c-0.1-0.1-0.1-0.2-0.2-0.3s-0.1-0.1,0-0.2C34.1,32.8,34.2,32.6,34.3,32.5C34.2,32.5,34.3,32.5,34.3,32.5z"/>
<path fill="#081A21" d="M31.5,32.5C31.5,32.5,31.6,32.5,31.5,32.5c0.2,0.2,0.3,0.3,0.3,0.5c0,0.1-0.1,0.2-0.2,0.3
	c-0.1,0.1-0.2,0.2-0.2,0c0-0.1-0.2-0.2-0.2-0.3C31.2,32.8,31.4,32.7,31.5,32.5L31.5,32.5z"/>
<path fill="#081A21" d="M24.9,33.4c-0.1,0-0.1,0-0.1,0c-0.1-0.1-0.2-0.2-0.2-0.4s0.1-0.3,0.3-0.4c0.1,0,0.1-0.1,0.1,0
	c0,0.1,0.1,0.1,0.2,0.2c0.2,0.2,0.1,0.3-0.1,0.5C25,33.2,24.9,33.3,24.9,33.4z"/>
<path fill="#081A21" d="M25.9,33.4C25.9,33.3,25.8,33.3,25.9,33.4c-0.1-0.1-0.1-0.2-0.2-0.2c-0.1-0.2-0.1-0.2,0-0.4
	c0.1-0.1,0.1-0.1,0.2-0.2c0.1-0.1,0.1,0,0.2,0v0.1c0.1,0.1,0.2,0.2,0.2,0.3C26.2,33.1,26.1,33.2,25.9,33.4L25.9,33.4z"/>
<path fill="#081A21" d="M37.1,33.3c-0.1-0.1-0.2-0.2-0.3-0.3c0-0.1,0-0.2,0.1-0.3c0.2-0.3,0.3-0.3,0.5,0c0,0.1,0.1,0.2,0.1,0.3
	C37.3,33.1,37.2,33.2,37.1,33.3L37.1,33.3z"/>
<path fill="#081A21" d="M36,32.5c0.1,0.1,0.2,0.2,0.2,0.3c0,0.1,0.1,0.2,0.1,0.2c0,0.1-0.1,0.2-0.2,0.3H36l0,0
	C35.6,33,35.6,32.9,36,32.5C35.9,32.5,36,32.5,36,32.5z"/>
<path fill="#081A21" d="M29.1,32.9C29.1,33,29.1,33,29.1,32.9c-0.1,0.2-0.2,0.3-0.3,0.4c-0.1,0.1-0.1,0.1-0.2,0c0,0,0-0.1-0.1-0.1
	c0-0.1-0.1-0.1-0.1-0.2c0-0.1,0-0.2,0.1-0.3c0.1-0.1,0.2-0.2,0.2-0.2c0.1,0.1,0.1,0.2,0.2,0.3C29,32.8,29,32.9,29.1,32.9z"/>
<path fill="#081A21" d="M28,33c-0.1,0.1-0.2,0.2-0.3,0.3c-0.1,0.1-0.1,0.1-0.2,0c-0.1-0.1-0.2-0.2-0.2-0.3c0-0.2,0.1-0.3,0.3-0.4
	h0.1C27.8,32.6,27.9,32.8,28,33z"/>
<path fill="#081A21" d="M36.9,32.2c-0.1,0.2-0.2,0.3-0.3,0.5h-0.1c-0.1-0.1-0.1-0.2-0.2-0.3s0.1-0.5,0.2-0.6h0.1
	C36.7,31.9,36.9,32,36.9,32.2z"/>
<path fill="#081A21" d="M28.2,31.8L28.2,31.8c0.2,0.1,0.4,0.4,0.3,0.5c-0.1,0.1-0.1,0.2-0.2,0.3h-0.1c-0.1-0.1-0.2-0.2-0.2-0.3
	C27.8,32.1,28,31.8,28.2,31.8z"/>
<path fill="#081A21" d="M25.7,32.2c-0.1,0.2-0.2,0.3-0.3,0.5h-0.1c-0.1-0.1-0.2-0.2-0.2-0.3c-0.1-0.1,0.1-0.5,0.2-0.5h0.1
	C25.6,31.9,25.6,32.1,25.7,32.2z"/>
<path fill="#081A21" d="M33.7,31.8C33.8,31.8,33.8,31.8,33.7,31.8c0.2,0.1,0.4,0.4,0.3,0.5c-0.1,0.1-0.1,0.2-0.2,0.3h-0.1
	c-0.1-0.1-0.2-0.2-0.2-0.4C33.4,32.1,33.5,32,33.7,31.8L33.7,31.8z"/>
<path fill="#081A21" d="M31.3,32.3c-0.1,0.1-0.2,0.3-0.3,0.4h-0.1c-0.1-0.1-0.2-0.3-0.2-0.4c0-0.1,0.2-0.4,0.3-0.5
	C31.1,31.7,31.3,32,31.3,32.3z"/>
<path fill="#168CCD" d="M34.1,37.3C34,37.3,34,37.3,34.1,37.3c-0.2,0-0.4,0-0.4-0.1c0,0,0,0,0-0.1C33.8,37,33.9,37,34,37
	s0.1,0.1,0.2,0.2C34.2,37.3,34.1,37.3,34.1,37.3z"/>
<path fill="#F8F9F7" d="M31,45.2c0.2,0,0.3,0.1,0.4,0.2c0.1,0,0.1,0.1,0.2,0.2c0.2,0.2,0.4,0.2,0.7,0c0.2-0.1,0.3-0.3,0.5-0.4
	c0.3-0.1,0.5-0.3,0.4-0.7c0-0.2,0-0.3,0.1-0.4c0.2-0.1,0.2-0.4,0.4-0.5c0.1,0,0.3-0.2,0.4-0.3c0.1-0.1,0.2,0,0.2,0.1
	c0,0.2,0,0.4,0,0.6c0,0.4,0.1,0.6,0.3,0.9c0.1,0.1,0.1,0.2,0,0.3c-0.2,0.2-0.3,0.5-0.5,0.7c0,0-0.1,0.1-0.2,0.1
	c-0.6,0.1-1.5,0.5-2,0.8c0,0-0.1,0.1-0.2,0c-0.2-0.2-0.4,0-0.5,0.1S31.1,47,30.9,47C31,46.4,31,45.8,31,45.2z"/>
<path fill="#081A21" d="M31,45.2c0,0.6,0,1.3,0,1.9c-0.4,0-0.7-0.2-1.1-0.3c-0.5-0.2-1.1-0.3-1.6-0.5c-0.1,0-0.1-0.1-0.2-0.1
	c-0.2,0-0.1-0.1-0.1-0.2c0-0.1,0.1-0.2,0.1-0.4c0-0.6-0.1-1.2-0.3-1.7c-0.1-0.2,0-0.2,0.1-0.2H28c0.6,0,1.1,0.3,1.6,0.5
	c0,0,0,0.2,0,0.3c-0.1,0.3-0.3,0.6-0.4,0.9c-0.1,0.2,0,0.2,0.1,0.2c0.4,0.1,0.7,0.1,1-0.1C30.4,45.2,30.6,45.1,31,45.2z"/>
<polygon fill="#FDDA04" points="18.3,54.9 13.8,57 13.8,25.9 14.4,24.7 18.3,24.7 20.5,30.3 "/>
<polyline fill="#FDDA04" points="43.6,55 43.6,59.7 15.4,59.7 13.8,57 18.3,54.9 18.3,56.1 18.3,59.7 15.4,59.7 13.8,57 18.3,54.1 
	"/>
<g>
	<g>
		<path fill="#FCD24A" d="M18,53.5c-0.1,0.1-0.2,0.2-0.2,0.3c-0.1,0.1-0.1,0.2-0.1,0.4v0.1c0,0.1,0,0.1,0,0.2c0,0,0,0.1,0.1,0.1
			c0,0.1,0.1,0.1,0.1,0.1s0.1,0,0.1,0.1h0.1c0.1,0,0.1,0,0.2,0s0.1-0.1,0.2-0.1c0.1-0.1,0.2-0.2,0.3-0.4l0.1-0.1
			c0-0.1,0.1-0.2,0.1-0.3c-0.3,0-0.7,0.1-1,0.1c0.1,0.1,0.1,0.2,0.2,0.3c0,0.1,0.1,0.1,0.1,0.1s0.1,0.1,0.2,0.1s0.1,0,0.2,0
			c0.1,0,0.1,0,0.2-0.1c0.1-0.1,0.2-0.2,0.2-0.3V54c0-0.1,0-0.2-0.1-0.3c0-0.1-0.1-0.2-0.2-0.3l-0.1-0.1l-0.1-0.1c0,0-0.1,0-0.1-0.1
			c-0.1,0-0.1,0-0.2,0h-0.1c0,0-0.1,0-0.1,0.1C18.1,53.3,18.1,53.4,18,53.5L18,53.5c0,0.1,0,0.2-0.1,0.2c0,0,0-0.1,0.1-0.1
			c-0.1,0.1-0.1,0.2-0.2,0.3l0.1-0.1c0,0,0,0-0.1,0.1c0.3,0.2,0.6,0.3,0.9,0.5c0-0.1,0-0.1,0.1-0.2c0,0,0,0.1-0.1,0.1
			c0-0.1,0.1-0.1,0.1-0.2l-0.1,0.1l0,0c0.1,0,0.1-0.1,0.1-0.2c0-0.1,0-0.1,0-0.2c0-0.1,0-0.1,0-0.2c0-0.1-0.1-0.1-0.1-0.2
			c-0.1-0.1-0.2-0.2-0.4-0.2h-0.1C18.1,53.4,18,53.4,18,53.5L18,53.5z"/>
	</g>
</g>
<g>
	<g>
		<path fill="#FDDA04" d="M19.4,54.3c-0.1-0.1-0.3-0.3-0.4-0.4c-0.1-0.1-0.1-0.1-0.2-0.2c-0.1-0.1-0.2-0.3-0.4-0.3
			c-0.3-0.1-0.5,0-0.7,0.3c0,0.1-0.1,0.2-0.1,0.2c-0.1,0.3-0.2,0.5-0.1,0.8c0.1,0.6,0.8,0.7,1.3,0.7c0.3,0,0.6-0.1,0.8-0.4
			c0.1-0.2,0.2-0.4,0.2-0.6c0.1-0.5,0.1-1-0.3-1.4c-0.2-0.2-0.4-0.3-0.7-0.3c-0.3,0-0.6,0.2-0.8,0.4c-0.1,0.2-0.2,0.3-0.3,0.5
			c-0.1,0.3-0.1,0.7,0.1,0.9s0.4,0.3,0.6,0.3c0.2,0.1,0.4,0.1,0.6,0.1c0.3,0,0.6-0.2,0.7-0.5c0.1-0.2,0.2-0.5,0.1-0.7
			c-0.1-0.5-0.4-0.8-0.8-1c-0.3-0.1-0.5-0.2-0.8-0.1c-0.2,0-0.5,0.2-0.6,0.3c-0.3,0.2-0.6,0.6-0.6,1c0,0.3,0,0.5,0.1,0.7
			s0.4,0.4,0.6,0.4c0.4,0.1,0.9,0.1,1.3,0c0.2,0,0.5-0.1,0.6-0.3c0.2-0.2,0.3-0.6,0.1-0.9c-0.3-0.4-0.9-0.6-1.3-0.6
			c-0.2,0-0.5,0-0.7,0.1c-0.3,0.1-0.5,0.3-0.6,0.6c-0.1,0.3,0,0.6,0.2,0.9c0.1,0.2,0.4,0.3,0.6,0.4c0.5,0.2,1,0.1,1.4-0.2
			s0.5-0.9,0.2-1.3c-0.1-0.2-0.3-0.4-0.6-0.4c-0.1,0-0.3,0-0.4,0.1c-0.1,0.1-0.2,0.2-0.2,0.3c-0.1,0.3,0.1,0.6,0.4,0.7l0,0
			c-0.1,0-0.1-0.1,0,0c0,0-0.1-0.1,0,0l0,0c0,0-0.1-0.1,0,0l0,0c0,0,0-0.1,0,0c0,0,0,0,0,0.1v-0.1v0.1v-0.1c0,0,0,0,0,0.1
			s0.1-0.1,0,0l0,0c0,0,0,0,0.1-0.1c0,0,0,0-0.1,0.1c0,0,0.1-0.1,0,0c0,0,0,0-0.1,0c0,0,0.1,0,0,0h-0.1h0.1c-0.1,0-0.2,0-0.3,0h0.1
			c-0.1,0-0.1,0-0.2,0h-0.1c0,0,0,0,0.1,0c0,0,0,0-0.1,0c0,0,0,0-0.1,0c0.1,0.1,0.1,0.1,0,0l0,0c-0.1-0.1,0.1,0.1,0,0l0,0
			c0,0,0,0,0-0.1v0.1v-0.1v0.1c0,0,0,0,0-0.1c0,0.1,0,0.1,0,0.1l0,0c-0.1,0.1,0,0,0,0s-0.1,0.1,0,0l0,0c0,0-0.1,0,0,0s0.1,0,0.2,0
			h-0.1c0.2,0,0.4,0,0.6,0h-0.1c0.1,0,0.1,0,0.2,0c0,0,0.1,0,0.2,0c0,0-0.1-0.1,0,0c0.1,0,0,0,0,0l0,0l0,0v-0.1c0,0,0,0,0,0.1v-0.1
			c0,0,0,0,0,0.1v-0.1c0,0.1,0-0.1,0,0s0.1-0.1,0,0c0,0,0.1-0.1,0,0c0,0-0.1,0,0,0c-0.1,0-0.2,0.1-0.3,0.1h0.1c-0.3,0-0.5,0-0.8,0
			h0.1H18h-0.1c0,0,0.1,0,0,0c-0.1,0,0.1,0.1,0,0c0,0,0.1,0.1,0,0c0-0.1,0,0.1,0,0.1v-0.1v0.1c0,0,0-0.1,0-0.2v0.1
			c0-0.1,0-0.1,0-0.2c0-0.1,0,0.1,0,0c0,0,0,0,0-0.1s0.1-0.1,0.1-0.1c0-0.1-0.1,0.1,0,0c0,0,0,0,0.1-0.1l0.1-0.1c0,0,0,0,0.1-0.1
			c0,0-0.1,0.1,0,0l0.1-0.1l0,0l0,0h0.1h-0.1c0.1,0,0.1,0,0.2,0h-0.1h0.1c0,0,0,0,0.1,0s-0.1,0,0,0s0.1,0.1,0.2,0.1l0,0
			c0,0-0.1-0.1,0,0l0.1,0.1c0,0-0.1-0.1,0,0c0,0,0,0.1,0,0s0,0,0,0s0,0,0,0.1v-0.1c0,0.1,0,0.1,0,0.2V54v0.1c0,0,0,0,0,0.1
			s0-0.1,0,0s0.1-0.1,0,0c0,0,0.1-0.1,0,0c0,0,0.1,0,0,0c0,0,0,0-0.1,0H19c-0.1,0-0.2,0-0.2,0h0.1c-0.1,0-0.2,0-0.3-0.1
			c0,0,0,0-0.1,0c-0.1,0,0.1,0,0,0h-0.1c0,0,0,0,0.1,0.1c0.1,0.2,0.1,0.2,0.1,0.1v0.1v-0.1v0.1c0-0.1,0-0.1,0-0.2c0,0,0.1-0.1,0,0
			c0,0.1,0,0,0,0v-0.1l0,0c-0.1,0.1-0.1,0.1,0,0c0,0,0.1-0.1,0,0l0,0l0,0h-0.1c0,0,0,0,0.1,0h-0.1c0.1,0,0.1,0,0,0h0.1
			c0,0-0.1-0.1,0,0c0.1,0.1,0-0.1,0,0c0,0,0,0,0,0.1l0,0l0,0c0,0.1,0,0.1,0,0.2v-0.1c0,0.1,0,0.2,0,0.3v-0.1c0,0.1-0.1,0.3-0.1,0.4
			V55c0,0,0,0,0,0.1c0,0,0,0,0-0.1l0,0c0,0,0,0,0-0.1l0.1-0.1c0,0,0,0-0.1,0h0.1c-0.1,0-0.3,0-0.4,0h0.1c-0.1,0-0.2,0-0.3-0.1
			c0,0-0.1,0,0,0s0,0,0.1,0l0.1,0.1c0,0.1,0,0,0,0v0.1c0,0,0,0,0-0.1v0.1v-0.1c0,0,0-0.1,0,0s0,0,0,0s0-0.1,0.1-0.1c0,0,0,0,0-0.1
			c0.1-0.1,0,0-0.1,0.1c-0.1,0-0.2,0-0.3,0.1l0,0c-0.1,0-0.2,0-0.3-0.1s-0.1-0.1,0,0l0,0l0.1,0.1c0.1,0.1,0.1,0.1,0.2,0.2
			c0.1,0.1,0.3,0.2,0.4,0.4c0.2,0.2,0.6,0.2,0.8,0C19.6,54.9,19.6,54.5,19.4,54.3L19.4,54.3z"/>
	</g>
</g>
<g>
	<g>
		<path fill="#FDDA04" d="M36.9,22.1c-2.2,0.5-4.3,1.2-6.3,2c-0.4,0.2-0.3,0.7,0,0.9c1,0.6,2.3-0.4,3-1.1c0.6-0.6,2-1.9,1-2.8
			c-0.4-0.3-1-0.2-1.4,0c-0.5,0.2-1.1,0.4-1.6,0.7c-1,0.6-1.9,1.3-2.7,2.2c-0.4,0.4,0,1,0.5,0.9c1.1-0.2,2.5-1.2,2.5-2.4
			c0-1.4-2-1.4-3-1.5c-3-0.2-6,0.3-8.8,1.4c-0.6,0.2-0.5,1,0.1,1.1C24.1,24,28,24,31.9,23.7c0.6,0,0.7-0.9,0.1-1.1
			c-1.9-0.5-3.9-0.5-5.7,0.2c-0.6,0.2-0.4,1.2,0.3,1c1.6-0.5,3-1.4,4.2-2.5c0.2-0.2,0.2-0.6,0-0.8c-0.4-0.4-1-0.4-1.5-0.1
			c-0.7,0.3-1.3,0.7-2,1c-1.3,0.7-2.6,1.5-3.8,2.3c-0.6,0.4,0,1.3,0.5,0.9c0.7-0.5,1.3-1.1,1.8-1.8c0.3-0.4-0.2-0.8-0.6-0.8
			c-0.6,0.1-1,0.4-1.5,0.7c-0.4,0.3-0.8,0.6-1,1c-0.4,0.8,0,2,1,1.9c0.7,0,0.7-1.1,0-1.1c-0.4,0,0.3-0.7,0.3-0.8
			c0.4-0.4,0.9-0.7,1.4-0.8c-0.2-0.3-0.4-0.5-0.6-0.8c-0.4,0.6-0.9,1-1.5,1.4c0.2,0.3,0.4,0.6,0.5,0.9c1-0.7,2-1.3,3.1-1.9
			c0.5-0.3,1-0.6,1.5-0.8c0.2-0.1,1.2-0.7,1.3-0.6c0-0.3,0-0.5,0-0.8c-1.1,1-2.3,1.8-3.7,2.3c0.1,0.3,0.2,0.7,0.3,1
			c1.7-0.6,3.4-0.7,5.1-0.2c0-0.3,0.1-0.7,0.1-1.1c-3.9,0.3-7.7,0.3-11.6-0.1c0,0.3,0.1,0.7,0.1,1.1c2.2-0.8,4.6-1.3,6.9-1.4
			c0.6,0,1.2,0,1.7,0s1.1,0,1.5,0.2c0.3,0.1,0.3,0.2,0.2,0.4c-0.1,0.2-0.2,0.4-0.4,0.6c-0.3,0.3-0.8,0.5-1.2,0.6
			c0.2,0.3,0.3,0.6,0.5,0.9c1-1.1,2.2-2.1,3.7-2.6c0.1-0.1,0.3-0.1,0.4-0.1s0.1,0,0.2,0c-0.1-0.1-0.1-0.1-0.1,0
			c-0.1,0.1-0.2,0.3-0.3,0.5c-0.1,0.1-0.3,0.3-0.4,0.4c-0.3,0.3-0.6,0.5-0.9,0.8c-0.2,0.2-0.7,0.5-1,0.3c0,0.3,0,0.6,0,0.9
			c1.9-0.8,4-1.5,6-1.9C37.9,23,37.6,22,36.9,22.1L36.9,22.1z"/>
	</g>
</g>
<g>
	<g>
		<path fill="#FDDA04" d="M36.9,23.8c-2.6,0-5.2,0-7.8-0.1c0,0.3,0.1,0.7,0.1,1.1c1.3-0.2,2.7-0.2,4-0.1c0-0.4,0-0.7,0-1.1
			c-3.2,0-6.5,0.1-9.7,0c-0.7,0-0.7,1.1,0,1.1c3.3,0.1,6.7,0.1,10,0.2c0.7,0,0.7-1,0-1.1c-3.1-0.2-6.1-0.5-9.2-0.7
			c0,0.4,0,0.7,0,1.1c1.4-0.2,2.7-0.2,4.1,0c0-0.3,0-0.7,0-1c-0.7,0.2-1.3,0.3-2,0.3c-0.7,0.1-1.4,0.1-2.1,0.2
			c-1.4,0.1-2.8,0.3-4.2,0.4c-0.7,0.1-0.7,1.1,0,1.1c0.4,0,0.9,0,1.3,0c0-0.3-0.1-0.7-0.1-1.1c-0.3,0.1-0.8,0.1-1-0.1
			s-0.2-0.5,0-0.7c0.4-0.3,0.1-0.9-0.4-0.9c-0.8,0-1.7-0.1-2.5-0.1c0,0.3,0.1,0.7,0.1,1.1c0.7-0.2,1.5-0.4,2.3-0.7
			c0.6-0.2,1.1-0.6,1.2-1.3c0.1-1.4-1.3-2-2.4-1.5c-0.6,0.3-0.1,1.2,0.5,0.9c0.5-0.3,1.2,0.4,0.6,0.7c-0.3,0.2-0.7,0.2-1,0.3
			c-0.4,0.1-0.9,0.3-1.3,0.4c-0.6,0.2-0.5,1,0.1,1.1c0.8,0,1.7,0.1,2.5,0.1c-0.1-0.3-0.3-0.6-0.4-0.9c-0.6,0.5-0.6,1.4-0.1,2
			c0.5,0.7,1.5,0.8,2.2,0.5c0.6-0.2,0.5-1.1-0.1-1.1c-0.4,0-0.9,0-1.3,0c0,0.4,0,0.7,0,1.1c1.4-0.1,2.9-0.3,4.3-0.4
			c0.7-0.1,1.4-0.1,2.1-0.2s1.4-0.1,2.1-0.4c0.4-0.1,0.6-1,0-1c-1.5-0.2-2.9-0.2-4.4-0.1c-0.7,0.1-0.7,1,0,1.1
			c3.1,0.2,6.1,0.5,9.2,0.7c0-0.4,0-0.7,0-1.1c-3.3-0.1-6.7-0.1-10-0.2c0,0.4,0,0.7,0,1.1c3.2,0,6.5,0,9.7,0c0.7,0,0.7-1,0-1.1
			c-1.4-0.2-2.9-0.1-4.3,0.1c-0.6,0.1-0.4,1,0.1,1.1c2.6,0,5.2,0,7.8,0.1C37.6,24.9,37.6,23.8,36.9,23.8L36.9,23.8z"/>
	</g>
</g>
<polyline fill="#FDDA04" points="20.1,24.7 19.8,25.5 17.5,24.7 18.8,24.7 43.6,24.7 43.6,19.9 17.8,19.9 14.4,24.7 "/>
<path fill="#FDDA04" d="M43.6,59.7"/>
<polyline fill="#051821" points="71.8,59.7 73.4,57 73.4,25.9 69.4,19.9 43.6,19.9 43.6,24.7 67.8,25.5 68.7,25.5 68.7,54.9 
	44,54.9 43.6,59.7 "/>
<g>
	<g>
		<path fill="#FDDA04" d="M42.8,58.9c-3.4,0-6.8,0-10.1,0.2c-0.7,0-0.7,1.1,0,1.1c1.6-0.1,3.2-0.1,4.8,0c0.7,0,0.7-1,0-1.1
			c-2.9-0.3-5.8-0.7-8.7-1c-0.6-0.1-0.7,0.9-0.1,1.1c1.8,0.3,3.5,0.6,5.3,0.9c0-0.3,0.1-0.7,0.1-1.1c-4,0.1-8.1,0.1-12.1,0
			c0,0.4,0,0.7,0,1.1c1.8,0,3.6,0,5.4,0.4c0-0.3,0-0.7,0-1c-1.8,0.4-3.7,0.3-5.5-0.1c0,0.3-0.1,0.7-0.1,1.1c1.6-0.1,3.1-0.2,4.7-0.1
			c0.7,0,0.7-1,0-1.1c-1.4-0.1-2.8-0.3-4.3-0.6c0,0.3-0.1,0.7-0.1,1.1c0.5,0,1,0,1.5,0.1c0-0.3,0.1-0.7,0.1-1.1
			c-1.1,0-2.2-0.2-3.2-0.4c-0.7-0.2-0.9,0.9-0.3,1c1.1,0.3,2.3,0.5,3.5,0.5c0.6,0,0.7-0.9,0.1-1.1c-0.6-0.1-1.2-0.2-1.7-0.2
			c-0.6,0-0.8,0.9-0.1,1.1c1.5,0.3,3,0.5,4.5,0.6c0-0.4,0-0.7,0-1.1c-1.6-0.1-3.1,0-4.7,0.1c-0.6,0-0.8,0.9-0.1,1.1
			c2,0.5,4.1,0.5,6.1,0.1c0.5-0.1,0.5-0.9,0-1C25.9,59,24,59,22.1,59.1c-0.7,0-0.7,1.1,0,1.1c4,0,8.1,0,12.1,0
			c0.6,0,0.8-0.9,0.1-1.1c-1.8-0.3-3.5-0.6-5.3-0.9c0,0.3-0.1,0.7-0.1,1.1c2.9,0.3,5.8,0.7,8.7,1c0-0.4,0-0.7,0-1.1
			c-1.6-0.1-3.2,0-4.8,0c0,0.4,0,0.7,0,1.1c3.4-0.2,6.8-0.3,10.1-0.2C43.5,60,43.5,58.9,42.8,58.9L42.8,58.9z"/>
	</g>
</g>
<g>
	<g>
		<path fill="#FDDA04" d="M21.6,59.6C20.4,59,19,58.8,17.7,59c-0.3,0-0.5,0.4-0.4,0.7c0.1,0.3,0.4,0.4,0.7,0.4l0,0h0.1
			c0.1,0,0.1,0,0.2,0c0.1,0,0.3,0,0.4,0c0.1,0,0.3,0,0.4,0c0.1,0,0.1,0,0.2,0h0.1l0,0c0.5,0.1,1.1,0.2,1.5,0.4
			c0.3,0.1,0.6,0.1,0.7-0.2C21.9,60.1,21.9,59.7,21.6,59.6L21.6,59.6z"/>
	</g>
</g>
<g>
	<g>
		<path fill="#FDDA04" d="M13.7,26.8c0.1,0.7-0.3,1.3-0.6,2c-0.1,0.6-0.2,1.2-0.3,1.9c-0.1,1.3,0.1,2.7,0.3,4c0.1,0.5,0.8,0.5,1,0.1
			c0.4-0.7,0.7-1.4,1-2.1c-0.3,0-0.7-0.1-1.1-0.1c0,2.4,0,4.8,0.1,7.3c0.3,0,0.7-0.1,1.1-0.1c-0.4-1.4-0.8-2.9-1-4.4
			c-0.1-0.7-1.1-0.7-1.1,0c0.1,1.4,0,2.9-0.1,4.3c0.4,0,0.7,0,1.1,0c0-0.6,0.1-1.3,0.1-1.9c-0.4,0-0.7,0-1.1,0c0,0.8,0,1.6,0,2.4
			c0,0.4,0,0.8,0,1.2c0,0.2,0,0.3,0,0.5c0,0.1,0,0.2,0,0.3c-0.1,0.3,0.1,0.4,0.6,0.3c-0.3-0.5-1.1-0.2-1,0.4c0.2,1,0.5,2,0.6,3.1
			c0.1,1,0.2,2,0.1,3c0,2.1-0.3,4.1-0.6,6.1c0,0.3,0.3,0.5,0.5,0.5c0.3,0,0.5-0.2,0.5-0.5c0.3-2.1,0.5-4.2,0.6-6.3
			c0-2.1-0.3-4.2-0.8-6.2c-0.3,0.1-0.7,0.3-1,0.4c0.3,0.4,0.7,0.5,1.1,0.2c0.4-0.4,0.3-1.1,0.3-1.6c0-1.3,0-2.6-0.1-3.9
			c0-0.7-1-0.7-1.1,0c0,0.6-0.1,1.3-0.1,1.9c0,0.7,1,0.7,1.1,0c0.1-1.4,0.1-2.9,0.1-4.3c-0.4,0-0.7,0-1.1,0c0.2,1.6,0.6,3.1,1,4.7
			c0.2,0.6,1.1,0.5,1.1-0.1c0-2.4-0.1-4.9-0.1-7.3c0-0.6-0.9-0.7-1.1-0.1c-0.2,0.7-0.5,1.3-0.8,1.9c0.3,0,0.7,0.1,1,0.1
			c-0.2-1.3-0.3-2.6-0.2-3.9c0.1-0.6,0.2-1.2,0.5-1.8c0.2-0.6,0.5-1.2,0.4-1.9C14.8,26.1,13.7,26.1,13.7,26.8L13.7,26.8z"/>
	</g>
</g>
<g>
	<g>
		<path fill="#FDDA04" d="M18.4,20.6c6.2-0.6,12.4-0.7,18.6-0.4c1.8,0.1,3.5,0.2,5.3,0.3c0.7,0.1,0.7-1,0-1.1
			c-6.2-0.5-12.4-0.6-18.6-0.3c-1.8,0.1-3.5,0.2-5.3,0.4C17.7,19.6,17.7,20.7,18.4,20.6L18.4,20.6z"/>
	</g>
</g>
<g>
	<g>
		<path fill="#051821" d="M44.4,20.7c6.4-0.1,12.7-0.1,19.1,0.1c1.8,0,3.6,0.1,5.4,0.1c0.7,0,0.7-1,0-1.1
			c-6.4-0.2-12.7-0.3-19.1-0.3c-1.8,0-3.6,0-5.4,0C43.7,19.6,43.7,20.7,44.4,20.7L44.4,20.7z"/>
	</g>
</g>
<g>
	<g>
		<path fill="#051821" d="M44.2,60.3c4.2,0.4,8.5,0.5,12.8,0.4c0.7,0,0.7-1,0-1.1c-1.4-0.2-2.9-0.3-4.3-0.5c0,0.3,0.1,0.7,0.1,1.1
			c5.9-1.7,12.1,1.4,18-0.8c0.6-0.2,0.4-1.3-0.3-1c-2.9,1.1-5.9,0.8-8.9,0.5s-6.1-0.6-9,0.3c-0.6,0.2-0.4,1,0.1,1.1
			c1.4,0.2,2.9,0.3,4.3,0.5c0-0.4,0-0.7,0-1.1c-4.3,0.1-8.5,0-12.8-0.4C43.5,59.2,43.5,60.2,44.2,60.3L44.2,60.3z"/>
	</g>
</g>
<g>
	<g>
		<path fill="#051821" d="M70.4,60c0.7,0,0.7-1.1,0-1.1S69.7,60,70.4,60L70.4,60z"/>
	</g>
</g>
<g>
	<g>
		<path fill="#051821" d="M70.4,60c0.7,0,0.7-1.1,0-1.1S69.7,60,70.4,60L70.4,60z"/>
	</g>
</g>
<g>
	<g>
		<path fill="#051821" d="M71.1,60.1c0.7,0,0.7-1.1,0-1.1C70.4,59.1,70.4,60.1,71.1,60.1L71.1,60.1z"/>
	</g>
</g>
<g>
	<g>
		<path fill="#051821" d="M69.4,61.2c0.7,0,0.7-1.1,0-1.1C68.7,60.1,68.7,61.2,69.4,61.2L69.4,61.2z"/>
	</g>
</g>
<g>
	<g>
		<path fill="#051821" d="M74.3,44.2c0-0.7,0-1.3,0-2c0-0.5-0.7-0.7-1-0.3c-0.5,0.9-0.5,2-0.5,3c0,1.2,0,2.4,0,3.6
			c0,2.4,0,4.8,0,7.1c0,0.7,1.1,0.7,1.1,0c0-2.3,0-4.5,0-6.8c0-1.1,0-2.2,0-3.3c0-1-0.2-2.2,0.3-3c-0.3-0.1-0.7-0.2-1-0.3
			c0,0.7,0,1.3,0,2C73.2,44.9,74.3,44.9,74.3,44.2L74.3,44.2z"/>
	</g>
</g>
<g>
	<g>
		<path fill="#051821" d="M74.3,42c0-1.3,0-2.6,0-3.8c0-1.3,0.1-2.5,0-3.8c-0.1-1.2-0.6-2.2-0.6-3.4c-0.1-1.2,0.1-2.5,0.3-3.7
			c0.1-0.7-0.9-1-1-0.3c-0.2,1.2-0.4,2.4-0.4,3.7c0,0.6,0.1,1.2,0.2,1.8s0.3,1.1,0.4,1.7c0.1,1.3,0,2.6,0,3.9s0,2.6,0,3.9
			C73.2,42.7,74.3,42.7,74.3,42L74.3,42z"/>
	</g>
</g>
<g>
	<g>
		<path fill="#051821" d="M44.4,55c-0.2,0.2-0.3,0.5-0.3,0.8s0.1,0.6,0.3,0.8c0,0.1,0.1,0.1,0.1,0.2c0,0,0,0.1,0,0s0,0,0,0
			c0,0.1,0,0.1,0,0.2v0.1c0,0.1,0-0.1,0,0c0,0.3,0,0.5,0,0.8c0.4,0,0.7,0,1.1,0c0-0.5,0-1,0-1.5c0-0.2-0.1-0.4-0.3-0.5
			s-0.4-0.1-0.5,0c-0.3,0.2-0.5,0.5-0.4,0.9c0.1,0.3,0.3,0.4,0.6,0.4s0.5-0.3,0.5-0.5c0-0.1,0-0.3,0-0.4c0-0.3-0.2-0.5-0.5-0.5
			s-0.5,0.2-0.5,0.5v-0.1c0-0.1,0.1-0.2,0.1-0.2l0,0c0.3,0,0.5,0,0.8,0l0,0c0,0.1,0.1,0.2,0.1,0.2c0-0.1,0-0.1,0-0.2
			c0-0.1,0-0.2-0.1-0.3c0-0.3-0.1-0.5-0.2-0.7C45,54.8,44.6,54.8,44.4,55c-0.1,0.1-0.1,0.2-0.1,0.4c0,0.3,0.3,0.5,0.5,0.5
			c0.3,0,0.5-0.2,0.5-0.5v0.1c0,0.1-0.1,0.2-0.1,0.2l0,0c-0.3,0-0.5,0-0.8,0l0,0c0-0.1-0.1-0.2-0.1-0.2c0,0.1,0,0.1,0,0.2
			c0,0.1,0,0.2,0.1,0.3c0,0.3,0.1,0.5,0.2,0.7c0.2,0.2,0.6,0.2,0.8,0c0.1-0.1,0.2-0.2,0.2-0.4c-0.4,0-0.7,0-1.1,0c0,0.1,0,0.3,0,0.4
			c0.3,0,0.7-0.1,1.1-0.1c0,0.1,0,0.1,0,0.1s0,0,0,0.1s-0.1,0.1-0.1,0.2c-0.3-0.2-0.5-0.3-0.8-0.5c0,0.5,0,1,0,1.5
			c0,0.3,0.3,0.5,0.5,0.5c0.3,0,0.5-0.2,0.5-0.5c0-0.5,0-1-0.2-1.5c0-0.1-0.1-0.2-0.2-0.3c0,0,0-0.1-0.1-0.1c0-0.1,0-0.1,0,0
			c0,0,0,0,0-0.1v-0.1c0,0,0,0,0,0.1c0,0,0,0,0-0.1s0,0,0,0s0,0,0-0.1s0,0,0,0l0,0c0.2-0.2,0.2-0.5,0-0.8
			C44.9,54.8,44.6,54.8,44.4,55z"/>
	</g>
</g>
<g>
	<g>
		<path fill="#051821" d="M44.7,59.4c0-1.5,0-3.1,0-4.6c0-0.7-1.1-0.7-1.1,0c0,1.5,0,3.1,0,4.6C43.6,60.1,44.7,60.1,44.7,59.4
			L44.7,59.4z"/>
	</g>
</g>
<line fill="none" stroke="#000000" stroke-width="0.25" stroke-miterlimit="10" x1="43.6" y1="7.8" x2="43.6" y2="75"/>
</svg>
