<?xml version="1.0" encoding="utf-8"?>
<!-- Generator: Adobe Illustrator 23.0.3, SVG Export Plug-In . SVG Version: 6.00 Build 0)  -->
<svg version="1.2" baseProfile="tiny" id="Calque_1"
	 xmlns="http://www.w3.org/2000/svg" xmlns:xlink="http://www.w3.org/1999/xlink" x="0px" y="0px" viewBox="0 0 88.1 84.1"
	 xml:space="preserve">
<circle fill="#0F5297" cx="44" cy="42.1" r="34"/>
<g>
	<g>
		<path fill="#0F5297" d="M69.3,32.8c0,1.3,0,2.6,0,3.9c-0.6,0.3-0.3,0.8-0.4,1.2c-0.9,5-3.3,9.3-7.5,13.1c0-6.6,0-12.9,0-19.1
			c1.9-0.3,3.6,0.1,5.3-0.3c0.4-1,0.4-1,0-2c-4.6,0-9.2,0-13.6,0c-0.7,0.8-0.6,1.4,0,2c1.7,0.4,3.5-0.1,5.2,0.3
			c0.4,0.7,0.3,1.5,0.3,2.1c0,5.2,0,10.3,0,15.5c0,1.1-0.1,2.2,1,3.1c-2.1,1.7-4.3,2.8-6.6,4c-10.7,0-21.5,0-32.2,0
			c-0.3-1.5-0.7-2.9-1.3-4.3c0-1.7,0-3.4,0-5c0.1-0.2,0.3-0.4,0.3-0.7c0.9-6.8,3.8-12.9,8.9-18c13,0,26,0,38.9,0
			C68.5,29.9,68.7,31.4,69.3,32.8z M20.9,52.1c1.6,0.2,2-0.9,2.4-1.8c1.9-3.6,3.8-7.2,5.6-10.8c0.9-1.8,1.9-3.6,2.9-5.6
			c0.6,0.9,0.3,1.6,0.4,2.3c0,4.5-0.1,9,0.3,13.5c0.1,1,0.1,2.1,1.4,2.5c1.1-0.3,1.1-1.1,1.1-1.9c0-6.3,0-12.7-0.1-19
			c0-1.3-0.6-2.2-2-2.4c-1.2,0.2-1.7,0.9-2.1,1.8c-3.3,6.3-6.6,12.6-10,18.9C20.4,50.5,20.1,51.3,20.9,52.1z M51.9,51
			c-2.9-2.9-5.8-5.8-8.8-8.9c1.1-0.1,1.7-0.1,2.4-0.1c3.6-0.4,5.8-2.6,6-5.9c0.2-3.6-1.7-5.8-5.4-6.5c-1.8-0.3-3.6-0.3-5.4-0.1
			c-0.8,0.1-1.7,0.2-1.7,1.3c0.1,0.1,0.3,0.4,0.4,0.4c1.8,0.2,3.6,0.3,5.4,0.5c3,0.2,4.4,1.8,4.1,4.5c-0.2,2.4-1.8,3.5-4.8,3.5
			c-1.6,0-3.2-0.4-4.7,0.1c-0.1,0.7-0.1,1.3,0.1,2.1c3.2,3.2,6.4,6.5,9.7,9.7C50,52.4,50.9,52.6,51.9,51z"/>
		<path fill="#F0F4F8" d="M53,56.5c2.2-1.1,4.5-2.3,6.6-4c-1.1-0.9-1-2-1-3.1c0-5.2,0-10.3,0-15.5c0-0.7,0.2-1.4-0.3-2.1
			c-1.7-0.3-3.6,0.1-5.2-0.3c-0.7-0.6-0.7-1.2,0-2c4.5,0,9.1,0,13.6,0c0.4,1,0.4,1,0,2c-1.7,0.4-3.4,0-5.3,0.3c0,6.3,0,12.5,0,19.1
			c4.2-3.8,6.7-8,7.5-13.1c0.1-0.4-0.2-0.9,0.4-1.2c0,6.6,0,13.2,0,19.8C63.9,56.5,58.5,56.5,53,56.5z"/>
		<path fill="#F0F4F8" d="M28.7,28.5c-5.1,5.1-7.9,11.1-8.9,18c0,0.2-0.2,0.4-0.3,0.7c0-6.2,0-12.4,0-18.6
			C22.6,28.5,25.7,28.5,28.7,28.5z"/>
		<path fill="#F0F4F8" d="M69.3,32.8c-0.7-1.4-0.8-2.9-1.7-4.3c0.5,0,1.1,0,1.7,0C69.3,30,69.3,31.4,69.3,32.8z"/>
		<path fill="#F0F4F8" d="M19.5,52.2c0.6,1.4,1,2.8,1.3,4.3c-0.3,0-0.7,0-1.3,0C19.5,55,19.5,53.6,19.5,52.2z"/>
		<path fill="#F0F4F8" d="M20.9,52.1c-0.8-0.9-0.5-1.6-0.1-2.4c3.3-6.3,6.7-12.6,10-18.9c0.4-0.9,1-1.6,2.1-1.8c1.5,0.2,2,1.1,2,2.4
			c0,6.3,0,12.7,0.1,19c0,0.8-0.1,1.6-1.1,1.9c-1.3-0.4-1.3-1.5-1.4-2.5c-0.3-4.5-0.2-9-0.3-13.5c0-0.7,0.2-1.4-0.4-2.3
			c-1,2-2,3.8-2.9,5.6c-1.9,3.6-3.7,7.2-5.6,10.8C22.8,51.2,22.4,52.3,20.9,52.1z"/>
		<path fill="#F0F4F8" d="M51.9,51c-1,1.7-2,1.5-2.9,0.6c-3.3-3.3-6.5-6.6-9.7-9.7c-0.2-0.8-0.2-1.4-0.1-2.1
			c1.6-0.5,3.2-0.1,4.7-0.1c3,0.1,4.6-1.1,4.8-3.5c0.3-2.7-1.1-4.2-4.1-4.5c-1.8-0.1-3.6-0.3-5.4-0.5c-0.1,0-0.3-0.3-0.4-0.4
			c0-1.1,1-1.2,1.7-1.3c1.8-0.2,3.6-0.3,5.4,0.1c3.7,0.7,5.5,3,5.4,6.5c-0.2,3.3-2.4,5.5-6,5.9c-0.6,0.1-1.2,0.1-2.4,0.1
			C46.2,45.2,49,48,51.9,51z"/>
	</g>
</g>
<path fill="#0F5297" stroke="#0F5297" stroke-miterlimit="10" d="M19.5,47.2c0.4-0.7,0.4-0.7,0.4-0.7l0.6-3.5l1.1-3.6l0.4-0.9l1-2.1
	l2.7-4.4l0.7-0.8l2.3-2.6h-9.2C19.5,28.6,19.5,47.2,19.5,47.2z"/>
<polyline fill="#0F5297" stroke="#0F5297" stroke-miterlimit="10" points="19.5,56.5 20.8,56.5 19.5,52.2 19.3,51.7 "/>
<polygon fill="#0F5297" stroke="#0F5297" stroke-miterlimit="10" points="67.7,28.5 69.3,32.9 69.4,28.5 "/>
<path fill="#0F5297" stroke="#0F5297" stroke-miterlimit="10" d="M53,56.5c2.8,0.4,16.4,0,16.4,0v-20L53,56.7"/>
<circle fill="#1D65AF" cx="43.7" cy="41.7" r="33.6"/>
<g>
	<g>
		<path fill="#1D65AE" d="M43.3,64.9c-7.7,0-15.5,0-23.3,0c-0.4,0-0.4-0.1-0.4-0.4c0-15.2,0-30.4,0-45.6c0-0.4,0.1-0.4,0.4-0.4
			c15.5,0,31,0,46.5,0c0.4,0,0.4,0.1,0.4,0.4c0,15.2,0,30.4,0,45.6c0,0.4-0.1,0.4-0.4,0.4C58.8,64.9,51.1,64.9,43.3,64.9z
			 M42.7,28.4c0,0.7,0.3,1,0.9,0.7c0.1-0.1,0.3-0.1,0.4-0.2c0.9-0.7,1.7-0.7,2.6,0c0.7,0.6,1.2,0.3,1.3-0.6s0.3-1.9,0.4-2.8
			c0-0.4,0.2-0.7,0.6-0.9c0.6-0.3,1.1-0.6,1.7-1c0.4-0.2,0.7-0.4,0.9-0.7c0.4-0.5,0.4-1.3,0.1-1.8c-0.4-0.5-1-0.7-1.7-0.4
			c-0.2,0.1-0.4,0.2-0.5,0.3c-0.8,0.4-1.6,0.8-2.3,1.3s-1.3,0.5-2-0.1c-0.6-0.5-1.4-0.9-2.1-1.4c-0.8-0.5-1.8-0.2-2.3,0.6
			c-0.5,0.8-0.3,1.5,0.5,2.1c0.4,0.3,0.8,0.6,1.3,0.8c0.6,0.3,0.7,0.7,0.6,1.2C42.9,26.6,42.8,27.5,42.7,28.4z M31.3,44.4
			c0,0.8,0.2,1,0.9,0.7c0.2-0.1,0.3-0.1,0.5-0.2c0.9-0.7,1.6-0.6,2.5,0.1c0.7,0.6,1.2,0.3,1.3-0.6c0.1-0.9,0.3-1.9,0.4-2.8
			c0.1-0.4,0.2-0.7,0.6-0.9c0.7-0.3,1.3-0.7,1.9-1.1c0.4-0.2,0.7-0.4,0.8-0.8c0.3-0.5,0.2-1.2-0.1-1.6c-0.4-0.4-0.9-0.6-1.6-0.4
			c-0.2,0.1-0.5,0.2-0.7,0.3c-0.9,0.5-1.8,1-2.7,1.5c-0.4,0.2-0.7,0.2-1.1,0c-0.5-0.3-0.9-0.6-1.4-1c-0.4-0.3-0.8-0.5-1.2-0.8
			c-0.8-0.4-1.7-0.1-2.2,0.7c-0.4,0.7-0.2,1.5,0.5,2c0.5,0.4,1,0.7,1.6,1c0.3,0.2,0.4,0.4,0.4,0.8C31.5,42.4,31.4,43.4,31.3,44.4z
			 M49.6,44.5c0,0.7,0.2,0.9,0.9,0.6c0.5-0.2,0.9-0.5,1.4-0.7c0.3-0.1,0.5-0.1,0.7,0c0.4,0.3,0.8,0.5,1.2,0.7c0.5,0.2,0.8,0.1,1-0.4
			c0-0.1,0-0.3,0.1-0.4c0.1-0.9,0.3-1.8,0.4-2.7c0.1-0.5,0.2-0.8,0.7-1c0.7-0.3,1.3-0.7,1.9-1.1c0.4-0.2,0.7-0.5,0.9-0.9
			c0.2-0.5,0.2-1-0.1-1.5c-0.4-0.5-0.8-0.5-1.4-0.4c-0.3,0.1-0.6,0.2-0.9,0.4c-0.8,0.4-1.6,0.8-2.3,1.3c-0.6,0.4-1.1,0.4-1.7-0.1
			c-0.7-0.5-1.5-1-2.2-1.4c-0.8-0.5-1.7-0.2-2.2,0.6c-0.4,0.6-0.4,1.6,0.5,2.1c0.5,0.3,1,0.7,1.6,1C50,40.8,50,41,50,41.4
			C49.8,42.4,49.7,43.5,49.6,44.5z M39.7,49.9c0,0.5,0.3,0.7,0.7,0.6c0.2,0,0.3-0.1,0.5-0.2c0.5-0.2,0.9-0.6,1.4-0.7
			c0.5-0.1,0.9,0.5,1.4,0.7c0.7,0.4,1.1,0.2,1.2-0.6c0.2-1,0.3-2,0.4-3c0-0.5,0.3-0.7,0.7-1c0.7-0.4,1.3-0.8,2-1.1
			c0.4-0.2,0.7-0.5,0.8-1c0.4-1.1-0.4-2-1.5-1.8c-0.3,0-0.6,0.2-0.9,0.3c-0.8,0.5-1.7,0.9-2.5,1.4c-0.6,0.4-1,0.3-1.5-0.1
			c-0.7-0.5-1.5-1-2.3-1.5s-1.8-0.2-2.3,0.6c-0.4,0.7-0.4,1.5,0.5,2.1c0.5,0.3,0.9,0.7,1.4,0.9c0.4,0.2,0.5,0.5,0.4,1
			C39.9,47.9,39.8,48.9,39.7,49.9z M32.8,33.7c0,0.7,0.3,1,0.8,0.7c0.4-0.2,0.9-0.4,1.3-0.7c0.3-0.2,0.6-0.2,0.9,0
			c0.3,0.2,0.6,0.4,0.9,0.6c0.6,0.3,0.9,0.2,1.1-0.5c0-0.1,0.1-0.3,0.1-0.4c0.1-0.9,0.3-1.8,0.4-2.7c0-0.4,0.2-0.7,0.6-0.9
			c0.7-0.3,1.3-0.7,1.9-1.1c0.5-0.3,0.8-0.6,1-1.1c0.3-1-0.4-1.9-1.4-1.8c-0.4,0-0.7,0.2-1,0.4c-0.8,0.5-1.7,0.9-2.5,1.4
			c-0.5,0.3-0.9,0.3-1.4,0c-0.8-0.6-1.6-1.1-2.4-1.6c-0.8-0.4-1.7-0.1-2.2,0.7c-0.5,0.8-0.3,1.5,0.5,2.1c0.4,0.3,0.9,0.6,1.4,0.9
			s0.6,0.7,0.5,1.2C33,31.9,32.9,32.9,32.8,33.7z M51.1,33.7c0,0.7,0.2,0.9,0.8,0.7c0.1,0,0.3-0.1,0.4-0.2c0.9-0.7,1.7-0.8,2.6,0
			c0.7,0.6,1.2,0.3,1.3-0.7c0.1-0.9,0.3-1.9,0.4-2.8c0-0.4,0.2-0.7,0.6-0.9c0.7-0.3,1.3-0.8,2-1.1c0.4-0.2,0.7-0.6,0.9-1
			c0.1-0.5,0.1-1-0.3-1.4c-0.4-0.4-0.9-0.5-1.4-0.3c-0.3,0.1-0.7,0.3-1,0.5c-0.8,0.4-1.6,0.9-2.4,1.3c-0.4,0.3-0.8,0.3-1.1,0
			c-0.1-0.1-0.1-0.1-0.2-0.1c-0.8-0.5-1.6-1.1-2.4-1.5c-0.8-0.4-1.8-0.1-2.2,0.7c-0.4,0.7-0.3,1.6,0.5,2.1c0.5,0.3,1,0.7,1.5,1
			c0.4,0.2,0.5,0.5,0.4,0.9C51.3,31.8,51.2,32.8,51.1,33.7z M41.2,39.1c0,0.7,0.2,0.9,0.9,0.7c0.2-0.1,0.3-0.1,0.5-0.2
			c0.9-0.7,1.6-0.6,2.5,0.1c0.7,0.6,1.2,0.3,1.3-0.6c0.1-0.9,0.3-1.9,0.4-2.8c0.1-0.5,0.2-0.8,0.7-1c0.6-0.3,1.2-0.7,1.9-1
			c0.2-0.1,0.5-0.3,0.7-0.5c0.4-0.5,0.5-1,0.3-1.6c-0.2-0.5-0.6-0.7-1.1-0.8c-0.4,0-0.8,0.1-1.1,0.3c-0.8,0.4-1.5,0.9-2.3,1.3
			c-1.4,0.7-0.9,0.7-2.2-0.1c-0.7-0.4-1.3-0.9-2-1.3c-0.8-0.5-1.9-0.1-2.3,0.6c-0.5,0.8-0.3,1.5,0.6,2.1c0.5,0.3,1,0.7,1.5,1
			c0.3,0.2,0.4,0.4,0.4,0.8C41.4,37.1,41.3,38.1,41.2,39.1z M25.9,41.1L25.9,41.1c1.4,0,2.9,0,4.3,0c0.1,0,0.2,0,0.2-0.1
			s0-0.1-0.1-0.2c-0.4-0.2-0.7-0.5-1.1-0.7c-0.7-0.4-1.2-1-1.1-1.9c0-0.3-0.1-0.5-0.4-0.5c-2.1,0-4.1,0-6.2,0
			c-0.4,0-0.5,0.2-0.5,0.5c0,0.7,0,1.5,0,2.2c0,0.5,0,0.6,0.6,0.6C23.1,41.1,24.5,41.1,25.9,41.1z M61,41.1L61,41.1
			c1.4,0,2.8,0,4.2,0c0.4,0,0.6-0.1,0.5-0.5c0-0.8,0-1.5,0-2.3c0-0.3-0.1-0.5-0.4-0.5c-1.8,0-3.5,0-5.3,0c-0.3,0-0.4,0-0.4,0.4
			C59.5,39,59,39.6,58.3,40c-0.5,0.3-1,0.6-1.6,0.9c-0.1,0-0.2,0.1-0.2,0.2c0,0.1,0.2,0.1,0.3,0.1C58.2,41.1,59.6,41.1,61,41.1z
			 M38.1,60.5c0-0.2,0-0.3,0-0.5c0-0.1,0-0.2-0.1-0.3c-0.1,0-0.3,0-0.4,0.1c-0.1,0.1-0.2,0.3-0.3,0.4c-0.4,0.5-0.7,1.1-1.1,1.6
			c-0.1,0.2-0.2,0.4-0.4,0.4c-0.3,0-0.3-0.3-0.3-0.5c-0.2-0.5-0.3-1.1-0.5-1.6c0-0.2-0.1-0.3-0.3-0.4c-0.2,0-0.3,0.1-0.4,0.3
			c-0.4,1.2-0.8,2.4-1.2,3.5c0,0.1,0,0.2,0.1,0.3c0.1,0,0.3,0,0.3-0.1c0.1-0.1,0.1-0.3,0.2-0.5c0.2-0.5,0.3-1,0.5-1.5
			c0-0.1,0.1-0.2,0.2-0.3c0.1,0.1,0.1,0.2,0.2,0.3c0.2,0.6,0.4,1.2,0.6,1.8c0.1,0.3,0.3,0.3,0.5,0.1c0.1-0.2,0.2-0.3,0.3-0.5
			c0.4-0.5,0.7-1,1.1-1.5c0-0.1,0.1-0.1,0.2-0.1c0,0,0,0.1,0,0.2c0,0.6-0.1,1.1-0.2,1.7c0,0.3,0,0.5,0.4,0.5c0.5,0,0.6,0,0.6-0.5
			C37.9,62.3,38,61.4,38.1,60.5z M52.7,57.8c1.7,0,2.9-1.2,2.8-2.8c0-0.7-0.4-1.1-1.1-1.4c-1.4-0.5-3.1,0.4-3.5,1.9
			C50.6,56.8,51.3,57.8,52.7,57.8z M34.4,57.8c1.5,0,2.7-1,2.8-2.4c0.1-0.9-0.3-1.5-1.1-1.8c-1.1-0.3-3,0.1-3.5,1.9
			C32.3,56.9,32.9,57.8,34.4,57.8z M53.1,38.1c1,0,1.8-0.9,1.8-1.9c0-0.8-0.6-1.4-1.5-1.3c-1,0-1.8,0.9-1.8,1.9
			C51.7,37.5,52.3,38.1,53.1,38.1z M46.2,22c1,0,1.9-0.9,1.9-1.8c0-0.8-0.6-1.4-1.4-1.4c-1,0-1.9,0.9-1.9,1.8
			C44.8,21.5,45.3,22,46.2,22z M36.2,27.3c1,0,1.9-0.9,1.9-1.8c0-0.8-0.6-1.4-1.4-1.4c-1,0-1.9,0.9-1.8,1.9
			C34.9,26.8,35.4,27.3,36.2,27.3z M54.6,27.3c1,0,1.8-0.9,1.8-1.9c0-0.8-0.7-1.4-1.4-1.4c-1,0-1.8,1-1.8,1.9
			C53.2,26.8,53.8,27.4,54.6,27.3z M45,41.6c0.1-0.8-0.5-1.5-1.3-1.5c-1-0.1-1.9,0.7-2,1.7c-0.1,0.8,0.5,1.4,1.3,1.5
			C44,43.4,44.9,42.6,45,41.6z M46.5,30.9c0-0.8-0.5-1.4-1.3-1.5c-1,0-1.9,0.8-1.9,1.7c0,0.9,0.5,1.4,1.4,1.4
			C45.6,32.7,46.5,31.9,46.5,30.9z M55.9,57.3c0,0.2,0,0.3,0.1,0.4c0.2,0,0.3-0.1,0.3-0.3c0.1-0.5,0.2-1,0.3-1.4
			c0.1-0.3-0.1-0.8,0.3-0.9c0.3,0,0.5,0.4,0.7,0.7c0.4,0.5,0.8,1.1,1.2,1.7c0.1,0.2,0.3,0.3,0.5,0.2c0.3,0,0.3-0.3,0.3-0.5
			c0.1-0.6,0.2-1.3,0.4-1.9c0.1-0.4,0.2-0.9,0.3-1.3c0-0.1,0.1-0.3-0.1-0.3c-0.2-0.1-0.3,0.1-0.4,0.2c0,0.2-0.1,0.3-0.1,0.5
			c-0.1,0.5-0.2,0.9-0.3,1.4c0,0.1,0,0.3-0.2,0.3c-0.1,0-0.2-0.1-0.2-0.2c-0.5-0.7-1-1.4-1.5-2.1c-0.2-0.2-0.3-0.3-0.6-0.2
			c-0.2,0-0.3,0.3-0.3,0.5C56.3,55.1,56.1,56.2,55.9,57.3z M34.7,38c1,0,1.9-0.9,1.9-1.8c0-0.8-0.6-1.4-1.5-1.4
			c-1,0-1.8,0.9-1.8,1.8C33.3,37.4,34,38,34.7,38z M25.3,57.7c0.5,0,0.6-0.1,0.5-0.6c-0.2-1-0.4-2.1-0.6-3.1c0-0.2,0-0.4-0.3-0.5
			c-0.2,0-0.4,0.1-0.5,0.3c-0.7,1.2-1.4,2.3-2.1,3.5c-0.1,0.1-0.2,0.3,0,0.3c0.1,0.1,0.3,0,0.4-0.1c0.1-0.2,0.2-0.4,0.4-0.7
			c0.2-0.4,0.7-0.6,1.3-0.4c0.4,0.1,0.4,0.4,0.4,0.7C24.8,57.6,24.9,57.8,25.3,57.7z M32.2,63.7c0.2,0,0.5,0.1,0.4-0.3
			c-0.2-1.1-0.5-2.3-0.7-3.4c0-0.2-0.1-0.3-0.3-0.4c-0.2,0-0.3,0.1-0.4,0.2c-0.7,1.2-1.4,2.4-2.2,3.6c-0.1,0.1-0.1,0.2,0,0.3
			c0.1,0,0.3,0,0.3,0c0.2-0.2,0.3-0.4,0.4-0.6c0.3-0.5,0.6-0.6,1.4-0.5c0.5,0.1,0.4,0.5,0.4,0.7C31.6,63.7,31.8,63.8,32.2,63.7z
			 M44.9,57.3c-0.2-1.1-0.5-2.3-0.7-3.4c0-0.1,0-0.3-0.2-0.3s-0.3,0-0.4,0.2c-0.2,0.3-0.4,0.6-0.5,0.9c-0.5,0.9-1.1,1.8-1.6,2.7
			c-0.1,0.1-0.2,0.3,0,0.4c0.1,0.1,0.3,0,0.4-0.1c0.1-0.2,0.2-0.4,0.3-0.6c0.3-0.5,0.7-0.6,1.4-0.5c0.5,0.1,0.3,0.5,0.4,0.7
			c0,0.1,0,0.2,0.1,0.3c0.2,0.3,0.5,0.2,0.8,0.2C44.9,57.7,44.9,57.5,44.9,57.3z M48.5,63.7c0.3,0.1,0.5,0,0.4-0.4
			c-0.2-1.1-0.5-2.2-0.7-3.3c0-0.2,0-0.4-0.2-0.4s-0.4,0.1-0.5,0.3c-0.7,1.2-1.4,2.3-2.1,3.5c0,0.1-0.2,0.2,0,0.3
			c0.1,0.1,0.3,0.1,0.4-0.1c0.1-0.2,0.3-0.4,0.4-0.7c0.3-0.7,0.9-0.4,1.3-0.4c0.5,0,0.4,0.4,0.4,0.7C47.9,63.6,48.1,63.8,48.5,63.7z
			 M53.7,63.7c0.3,0,0.5,0,0.8,0c0.2,0,0.4,0,0.4-0.2s-0.2-0.2-0.4-0.2c-0.1,0-0.2,0-0.3,0c-0.6,0-0.7,0-0.6-0.7c0-0.1,0-0.1,0-0.2
			c0.1-0.6,0.1-0.6,0.7-0.6c0.2,0,0.3,0,0.5,0s0.3-0.1,0.3-0.3s-0.1-0.2-0.3-0.2s-0.4,0-0.6,0c-0.1,0-0.3,0-0.3-0.2
			c-0.1-0.6,0.2-1,0.8-1c0.1,0,0.3,0,0.4,0c0.2,0,0.3-0.1,0.3-0.2c0-0.2-0.1-0.2-0.3-0.2c-0.5,0-1,0-1.4,0s-0.5,0.1-0.6,0.5
			c-0.1,0.8-0.3,1.7-0.5,2.5C52.6,63.7,52.6,63.7,53.7,63.7z M58.2,62.3c0-0.4-0.1-0.7-0.5-0.9c-0.2-0.1-0.5-0.3-0.7-0.5
			c-0.3-0.3-0.3-0.6,0-0.9c0.3-0.2,0.6-0.3,0.9,0c0.1,0.1,0.1,0.3,0.3,0.1c0.1-0.1,0.2-0.2,0.2-0.4c0-0.1-0.1-0.2-0.3-0.3
			c-0.4-0.1-0.8-0.1-1.3,0.1c-0.6,0.2-0.9,0.7-0.9,1.3c-0.1,0.5,0.3,0.8,0.7,1c0.1,0.1,0.3,0.2,0.4,0.3c0.3,0.3,0.3,0.8-0.1,1
			c-0.4,0.2-0.7,0.2-1.1-0.2c-0.1-0.1-0.1-0.3-0.2-0.2c-0.2,0.1-0.2,0.3-0.3,0.5c0,0.1,0,0.2,0.2,0.3C56.6,64.2,58.1,63.4,58.2,62.3
			z M39.3,57.8c0.3,0,0.6,0,0.9-0.1s0.6-0.2,0.5-0.5c-0.1-0.2-0.3,0.1-0.5,0.1c-0.1,0-0.2,0.1-0.2,0.1c-0.9,0.2-1.5-0.3-1.5-1.1
			c0-0.6,0.2-1.2,0.5-1.7c0.6-0.8,1.2-0.9,2-0.4c0.1,0.1,0.2,0.2,0.3,0c0.1-0.1,0.2-0.3,0-0.5c-0.1-0.1-0.3-0.1-0.4-0.2
			c-1.4-0.4-2.9,0.5-3.3,1.8C37.2,56.8,37.9,57.7,39.3,57.8z M61.1,57.8c0.6,0,1.1-0.2,1.5-0.5c0.7-0.6,0.6-1.5-0.1-2
			c-0.2-0.1-0.4-0.2-0.6-0.4c-0.3-0.2-0.3-0.7,0-0.9s0.6-0.3,0.9,0c0.1,0.1,0.1,0.3,0.3,0.2c0.1-0.1,0.2-0.2,0.2-0.4
			s-0.2-0.2-0.3-0.2c-0.7-0.3-1.7,0.1-2,0.8c-0.3,0.6-0.2,1.1,0.4,1.5c0.2,0.1,0.4,0.2,0.5,0.3c0.4,0.3,0.4,0.9-0.1,1.1
			c-0.4,0.2-0.8,0.2-1-0.2c0-0.1-0.1-0.2-0.3-0.1c-0.1,0.1-0.2,0.3-0.2,0.5c0,0.1,0.2,0.2,0.3,0.3C60.9,57.7,61,57.8,61.1,57.8z
			 M28.2,59.7C28.2,59.6,28.2,59.6,28.2,59.7c-0.2,0-0.5,0-0.7,0c-0.4,0-0.5,0.1-0.6,0.5c-0.2,1.1-0.4,2.2-0.6,3.3
			c0,0.1-0.1,0.2,0,0.3c0.2,0.2,0.8,0,0.9-0.3c0.1-0.4,0.1-0.7,0.2-1.1c0-0.3,0.2-0.5,0.6-0.5c0.3,0,0.5,0,0.8,0
			c0.1,0,0.1-0.1,0.1-0.3c0-0.1-0.1-0.2-0.2-0.2c-0.3,0-0.5,0-0.8,0c-0.1,0-0.3,0-0.3-0.2c0-0.3,0-0.6,0.1-0.9
			c0.1-0.3,0.4-0.2,0.6-0.2s0.4,0,0.6,0c0.1,0,0.2-0.1,0.2-0.2c0-0.1-0.1-0.2-0.2-0.2C28.7,59.6,28.4,59.7,28.2,59.7z M41.7,63.7
			c0.2,0,0.3,0,0.5,0s0.7,0.2,0.6-0.3c0-0.4-0.4-0.2-0.6-0.2c-0.6,0-0.6,0-0.5-0.6c0.1-0.8,0.3-1.7,0.5-2.5c0.1-0.3,0-0.5-0.4-0.5
			s-0.5,0.1-0.6,0.5c-0.1,0.8-0.3,1.7-0.5,2.5C40.6,63.7,40.5,63.7,41.7,63.7z M30.6,57.7c0.1,0,0.3,0,0.4,0
			c0.3-0.1,0.8,0.2,0.7-0.3c0-0.4-0.5-0.2-0.7-0.2c-0.5,0-0.5,0-0.4-0.5c0.1-0.9,0.3-1.7,0.5-2.6c0.1-0.3,0-0.5-0.4-0.5
			s-0.5,0.2-0.6,0.5c-0.2,0.8-0.3,1.7-0.5,2.5C29.5,57.8,29.3,57.7,30.6,57.7z M47.4,53.6L47.4,53.6c-0.4,0-0.8,0-1.2,0
			c-0.2,0-0.4,0.1-0.3,0.3c0,0.3,0.2,0.2,0.4,0.2c0.6,0,0.6,0,0.6,0.6c-0.1,0.4-0.2,0.8-0.2,1.3c-0.1,0.5-0.2,0.9-0.3,1.4
			c0,0.2,0,0.4,0.3,0.4s0.5,0,0.6-0.4c0.2-0.9,0.4-1.8,0.5-2.8c0.1-0.4,0.2-0.6,0.6-0.5c0.1,0,0.2,0,0.3,0c0.2,0,0.3-0.1,0.3-0.2
			c0-0.2-0.1-0.2-0.3-0.2C48.2,53.6,47.8,53.6,47.4,53.6z M27.6,57.7c0.2,0,0.4,0,0.6,0s0.6,0.1,0.5-0.3c0-0.3-0.4-0.1-0.6-0.1
			c-0.7,0-0.7,0-0.6-0.7c0.2-0.9,0.3-1.7,0.5-2.6c0.1-0.3,0-0.3-0.3-0.4c-0.4,0-0.6,0-0.6,0.5c-0.1,0.8-0.3,1.7-0.5,2.5
			C26.5,57.7,26.2,57.7,27.6,57.7z M50.8,63.7c0.1,0,0.3,0,0.4,0c0.3,0,0.7,0.1,0.7-0.3c0-0.4-0.4-0.2-0.7-0.2c-0.6,0-0.6,0-0.5-0.6
			c0.2-0.9,0.3-1.8,0.5-2.7c0-0.1,0.1-0.3-0.1-0.4c-0.3-0.2-0.8,0-0.8,0.4c-0.2,0.8-0.3,1.7-0.5,2.5C49.6,63.7,49.6,63.7,50.8,63.7z
			 M44.2,63.7c0.2,0,0.4,0,0.4-0.3c0.2-1.1,0.4-2.2,0.7-3.3c0.1-0.3-0.1-0.4-0.4-0.4c-0.3,0-0.5,0.1-0.6,0.4
			c-0.2,1.1-0.4,2.2-0.6,3.3C43.6,63.8,43.9,63.7,44.2,63.7z M49.3,57.7c0.3,0.1,0.5-0.1,0.6-0.5c0-0.3,0.1-0.5,0.1-0.7
			c0.2-0.8,0.3-1.7,0.5-2.5c0-0.1,0.1-0.3-0.1-0.3c-0.4-0.2-0.7,0-0.8,0.4c-0.2,1.1-0.4,2.1-0.6,3.2C48.9,57.6,49,57.7,49.3,57.7z
			 M39.9,59.7c-0.3-0.1-0.5,0.1-0.6,0.4c-0.2,1.1-0.4,2.2-0.6,3.3c0,0.1-0.1,0.3,0.1,0.4c0.3,0.1,0.7,0,0.8-0.3
			c0.2-1.1,0.4-2.2,0.7-3.3C40.3,59.7,40.2,59.6,39.9,59.7z M39.6,41.1c0.2,0,0.5,0,0.7,0c0.3,0,0.5,0,0.8,0c0.2,0,0.3-0.2,0.3-0.3
			c0.1-0.2-0.2-0.2-0.3-0.2c-0.2-0.1-0.4-0.3-0.6-0.5c-0.1-0.1-0.2-0.2-0.4-0.1c-0.6,0.3-1.3,0.6-1.9,1l-0.1,0.1c0,0,0.1,0,0.2,0
			C38.7,41.1,39.1,41.1,39.6,41.1z M47.5,41.1L47.5,41.1c0.1,0,0.1,0,0.2,0c0.4,0,0.8,0.1,1.2-0.1c-0.3-0.3-0.7-0.5-1-0.7
			c-0.5-0.4-0.9-0.6-1.4,0c-0.1,0.1-0.3,0.1-0.5,0.2c-0.1,0.1-0.3,0-0.3,0.2s0.2,0.3,0.4,0.3C46.6,41.1,47,41.1,47.5,41.1z"/>
		<path fill="#F7FBFC" d="M42.7,28.4c0.1-0.9,0.2-1.8,0.4-2.7c0.1-0.6,0-1-0.6-1.2c-0.5-0.2-0.9-0.6-1.3-0.8c-0.8-0.6-1-1.4-0.5-2.1
			c0.5-0.8,1.5-1.1,2.3-0.6c0.7,0.4,1.4,0.9,2.1,1.4c0.7,0.6,1.2,0.6,2,0.1c0.7-0.5,1.5-0.9,2.3-1.3c0.2-0.1,0.4-0.2,0.5-0.3
			c0.7-0.3,1.3-0.1,1.7,0.4c0.3,0.5,0.3,1.2-0.1,1.8c-0.2,0.3-0.6,0.5-0.9,0.7c-0.6,0.3-1.1,0.7-1.7,1c-0.4,0.2-0.6,0.5-0.6,0.9
			c-0.1,0.9-0.2,1.9-0.4,2.8c-0.1,0.9-0.6,1.2-1.3,0.6c-0.9-0.7-1.7-0.7-2.6,0c-0.1,0.1-0.2,0.1-0.4,0.2
			C43,29.4,42.7,29.2,42.7,28.4z"/>
		<path fill="#F7FBFC" d="M31.3,44.4c0.1-0.9,0.2-2,0.4-3c0.1-0.4,0-0.6-0.4-0.8c-0.5-0.3-1-0.7-1.6-1c-0.7-0.5-0.9-1.3-0.5-2
			c0.5-0.8,1.4-1.1,2.2-0.7c0.4,0.2,0.8,0.5,1.2,0.8c0.5,0.3,1,0.6,1.4,1c0.4,0.3,0.7,0.3,1.1,0c0.9-0.5,1.8-1,2.7-1.5
			c0.2-0.1,0.5-0.2,0.7-0.3c0.6-0.2,1.2-0.1,1.6,0.4c0.3,0.4,0.4,1.1,0.1,1.6c-0.2,0.4-0.5,0.6-0.8,0.8c-0.6,0.4-1.3,0.8-1.9,1.1
			c-0.4,0.2-0.6,0.5-0.6,0.9c-0.1,0.9-0.3,1.9-0.4,2.8c-0.1,0.9-0.6,1.2-1.3,0.6c-0.9-0.7-1.6-0.8-2.5-0.1c-0.1,0.1-0.3,0.2-0.5,0.2
			C31.5,45.3,31.2,45.1,31.3,44.4z"/>
		<path fill="#F7FBFC" d="M49.6,44.5c0.1-1,0.2-2,0.4-3.1c0.1-0.4,0-0.6-0.3-0.8c-0.5-0.3-1-0.7-1.6-1c-0.9-0.5-0.9-1.5-0.5-2.1
			c0.5-0.8,1.5-1,2.2-0.6c0.8,0.5,1.5,0.9,2.2,1.4c0.6,0.5,1.1,0.5,1.7,0.1c0.7-0.5,1.5-0.9,2.3-1.3c0.3-0.2,0.6-0.3,0.9-0.4
			c0.5-0.1,1,0,1.4,0.4c0.3,0.4,0.3,0.9,0.1,1.5c-0.2,0.4-0.5,0.7-0.9,0.9c-0.6,0.4-1.3,0.8-1.9,1.1c-0.4,0.2-0.6,0.5-0.7,1
			c-0.1,0.9-0.2,1.8-0.4,2.7c0,0.1,0,0.3-0.1,0.4c-0.2,0.5-0.5,0.7-1,0.4c-0.4-0.2-0.8-0.4-1.2-0.7c-0.2-0.2-0.4-0.2-0.7,0
			c-0.4,0.3-0.9,0.5-1.4,0.7C49.8,45.4,49.5,45.2,49.6,44.5z"/>
		<path fill="#F7FBFC" d="M39.7,49.9c0.1-1,0.3-2.1,0.4-3.1c0.1-0.5,0-0.7-0.4-1c-0.5-0.3-0.9-0.6-1.4-0.9c-0.9-0.6-1-1.4-0.5-2.1
			c0.5-0.8,1.5-1.1,2.3-0.6s1.5,1,2.3,1.5c0.5,0.4,1,0.5,1.5,0.1c0.8-0.5,1.7-1,2.5-1.4c0.3-0.2,0.6-0.3,0.9-0.3
			c1.1-0.2,1.9,0.7,1.5,1.8c-0.1,0.4-0.4,0.7-0.8,1c-0.7,0.4-1.3,0.8-2,1.1c-0.4,0.2-0.7,0.4-0.7,1c-0.1,1-0.3,2-0.4,3
			c-0.1,0.8-0.5,0.9-1.2,0.6c-0.5-0.3-0.9-0.8-1.4-0.7c-0.5,0-0.9,0.4-1.4,0.7c-0.2,0.1-0.3,0.2-0.5,0.2
			C40,50.6,39.7,50.4,39.7,49.9z"/>
		<path fill="#F7FBFC" d="M32.8,33.7c0.1-0.8,0.2-1.8,0.4-2.8c0.1-0.5,0-0.9-0.5-1.2c-0.5-0.3-0.9-0.6-1.4-0.9
			c-0.8-0.5-1-1.3-0.5-2.1c0.5-0.8,1.4-1.1,2.2-0.7c0.8,0.5,1.7,1,2.4,1.6c0.5,0.4,0.9,0.4,1.4,0c0.8-0.5,1.7-1,2.5-1.4
			c0.3-0.2,0.7-0.4,1-0.4c1-0.1,1.7,0.8,1.4,1.8c-0.2,0.5-0.5,0.9-1,1.1c-0.7,0.4-1.3,0.7-1.9,1.1c-0.4,0.2-0.5,0.5-0.6,0.9
			c-0.1,0.9-0.2,1.8-0.4,2.7c0,0.1,0,0.3-0.1,0.4c-0.2,0.6-0.5,0.8-1.1,0.5c-0.3-0.2-0.6-0.4-0.9-0.6s-0.6-0.2-0.9,0
			c-0.4,0.2-0.8,0.5-1.3,0.7C33,34.7,32.7,34.4,32.8,33.7z"/>
		<path fill="#F7FBFC" d="M51.1,33.7c0.1-0.9,0.2-1.9,0.4-3c0.1-0.4-0.1-0.7-0.4-0.9c-0.5-0.3-1-0.7-1.5-1c-0.8-0.4-0.9-1.4-0.5-2.1
			c0.4-0.8,1.5-1.1,2.2-0.7c0.8,0.5,1.6,1,2.4,1.5c0.1,0,0.1,0.1,0.2,0.1c0.4,0.3,0.7,0.3,1.1,0c0.8-0.5,1.6-0.9,2.4-1.3
			c0.3-0.2,0.7-0.4,1-0.5c0.5-0.2,1-0.1,1.4,0.3s0.4,0.9,0.3,1.4c-0.1,0.5-0.4,0.8-0.9,1c-0.7,0.4-1.3,0.8-2,1.1
			c-0.4,0.2-0.6,0.5-0.6,0.9c-0.1,0.9-0.3,1.9-0.4,2.8c-0.1,0.9-0.6,1.2-1.3,0.7c-0.9-0.8-1.8-0.7-2.6,0c-0.1,0.1-0.2,0.1-0.4,0.2
			C51.3,34.6,51.1,34.4,51.1,33.7z"/>
		<path fill="#F7FBFC" d="M41.2,39.1c0.1-1,0.2-2,0.4-3c0.1-0.4,0-0.6-0.4-0.8c-0.5-0.3-1-0.7-1.5-1c-0.8-0.6-1-1.3-0.6-2.1
			c0.4-0.7,1.5-1.2,2.3-0.6c0.7,0.5,1.3,0.9,2,1.3c1.3,0.8,0.8,0.8,2.2,0.1c0.8-0.4,1.5-0.9,2.3-1.3c0.3-0.2,0.7-0.4,1.1-0.3
			c0.5,0.1,1,0.3,1.1,0.8c0.2,0.6,0.1,1.1-0.3,1.6c-0.2,0.2-0.4,0.4-0.7,0.5c-0.6,0.4-1.2,0.7-1.9,1c-0.5,0.2-0.6,0.5-0.7,1
			c-0.1,0.9-0.3,1.9-0.4,2.8c-0.1,0.9-0.6,1.2-1.3,0.6c-0.9-0.7-1.6-0.7-2.5-0.1c-0.1,0.1-0.3,0.2-0.5,0.2
			C41.4,40,41.2,39.8,41.2,39.1z"/>
		<path fill="#F7FBFC" d="M25.9,41.1c-1.4,0-2.8,0-4.3,0c-0.6,0-0.6,0-0.6-0.6c0-0.7,0-1.5,0-2.2c0-0.3,0.1-0.5,0.5-0.5
			c2.1,0,4.1,0,6.2,0c0.3,0,0.5,0.1,0.4,0.5c-0.1,0.9,0.4,1.4,1.1,1.9c0.4,0.2,0.7,0.5,1.1,0.7c0.1,0,0.2,0.1,0.1,0.2
			c0,0-0.1,0.1-0.2,0.1C28.8,41.1,27.4,41.1,25.9,41.1L25.9,41.1z"/>
		<path fill="#F7FBFC" d="M61,41.1c-1.4,0-2.8,0-4.2,0c-0.1,0-0.2,0.1-0.3-0.1c0,0,0.1-0.1,0.2-0.2c0.5-0.3,1-0.6,1.6-0.9
			c0.7-0.4,1.2-1,1.3-1.8c0-0.3,0.2-0.4,0.4-0.4c1.8,0,3.5,0,5.3,0c0.3,0,0.4,0.1,0.4,0.5c0,0.8,0,1.5,0,2.3c0,0.4-0.1,0.5-0.5,0.5
			C63.8,41.1,62.4,41.1,61,41.1L61,41.1z"/>
		<path fill="#F7FBFC" d="M38.1,60.5c-0.1,0.9-0.2,1.9-0.2,2.8c0,0.4-0.1,0.5-0.6,0.5c-0.4,0-0.4-0.2-0.4-0.5
			c0.1-0.6,0.1-1.1,0.2-1.7c0-0.1,0-0.1,0-0.2c-0.1,0-0.2,0-0.2,0.1c-0.4,0.5-0.7,1-1.1,1.5c-0.1,0.2-0.2,0.3-0.3,0.5
			c-0.2,0.3-0.4,0.3-0.5-0.1c-0.2-0.6-0.4-1.2-0.6-1.8c0-0.1-0.1-0.2-0.2-0.3c-0.1,0.1-0.1,0.2-0.2,0.3c-0.2,0.5-0.3,1-0.5,1.5
			c0,0.2-0.1,0.3-0.2,0.5c-0.1,0.1-0.2,0.1-0.3,0.1c-0.1,0-0.2-0.1-0.1-0.3c0.4-1.2,0.8-2.4,1.2-3.5c0.1-0.2,0.2-0.3,0.4-0.3
			c0.2,0,0.3,0.2,0.3,0.4c0.2,0.5,0.3,1.1,0.5,1.6c0.1,0.2,0.1,0.5,0.3,0.5c0.2,0,0.3-0.2,0.4-0.4c0.4-0.5,0.8-1.1,1.1-1.6
			c0.1-0.1,0.2-0.3,0.3-0.4c0.1-0.1,0.3-0.1,0.4-0.1s0.1,0.2,0.1,0.3C38.1,60.1,38.1,60.3,38.1,60.5z"/>
		<path fill="#F7FBFC" d="M52.7,57.8c-1.4,0-2.1-0.9-1.7-2.3c0.4-1.4,2.1-2.4,3.5-1.9c0.7,0.2,1,0.7,1.1,1.4
			C55.7,56.5,54.4,57.8,52.7,57.8z M54.6,55.1c0-0.8-0.4-1.3-1.1-1.2c-0.4,0-0.8,0.2-1,0.5c-0.4,0.6-0.6,1.2-0.7,1.9
			c0,1,0.8,1.4,1.7,0.9c0.2-0.1,0.3-0.2,0.4-0.4C54.4,56.3,54.6,55.7,54.6,55.1z"/>
		<path fill="#F7FBFC" d="M34.4,57.8c-1.5,0-2.1-0.8-1.8-2.3c0.5-1.8,2.3-2.3,3.5-1.9c0.8,0.2,1.2,0.9,1.1,1.8
			C37.1,56.7,35.9,57.8,34.4,57.8z M36.2,55.1c0-0.5-0.1-0.9-0.6-1.1c-0.5-0.2-1-0.1-1.3,0.3c-0.6,0.7-0.9,1.5-0.8,2.4
			c0.1,0.6,0.6,0.8,1.2,0.7c0.4-0.1,0.7-0.3,0.9-0.6C36,56.3,36.2,55.7,36.2,55.1z"/>
		<path fill="#F7FBFC" d="M53.1,38.1c-0.8,0-1.4-0.5-1.4-1.4c0-1,0.8-1.9,1.8-1.9c0.8,0,1.4,0.5,1.5,1.3
			C54.9,37.1,54.1,38,53.1,38.1z"/>
		<path fill="#F7FBFC" d="M46.2,22c-0.8,0-1.4-0.6-1.4-1.4c0-1,0.9-1.9,1.9-1.8c0.8,0,1.4,0.6,1.4,1.4C48,21.2,47.2,22,46.2,22z"/>
		<path fill="#F7FBFC" d="M36.2,27.3c-0.8,0-1.4-0.5-1.4-1.4c0-1,0.9-1.9,1.8-1.9c0.8,0,1.4,0.6,1.4,1.4
			C38.1,26.5,37.2,27.3,36.2,27.3z"/>
		<path fill="#F7FBFC" d="M54.6,27.3c-0.8,0-1.4-0.5-1.5-1.3c0-1,0.8-1.9,1.8-1.9c0.8,0,1.4,0.6,1.4,1.4
			C56.4,26.5,55.6,27.3,54.6,27.3z"/>
		<path fill="#F7FBFC" d="M45,41.6c-0.1,1-1,1.8-2,1.7c-0.8-0.1-1.3-0.7-1.3-1.5c0.1-1,1-1.8,2-1.7C44.6,40.2,45.1,40.8,45,41.6z"/>
		<path fill="#F7FBFC" d="M46.5,30.9c0,1-0.9,1.8-1.8,1.7c-0.9,0-1.4-0.6-1.4-1.4c0-1,0.9-1.8,1.9-1.7C46,29.5,46.5,30.1,46.5,30.9z
			"/>
		<path fill="#F7FBFC" d="M55.9,57.3c0.2-1.1,0.4-2.2,0.6-3.2c0-0.2,0.1-0.4,0.3-0.5c0.2,0,0.4,0,0.6,0.2c0.5,0.7,1,1.4,1.5,2.1
			c0.1,0.1,0.2,0.2,0.2,0.2c0.2,0,0.2-0.2,0.2-0.3c0.1-0.5,0.2-0.9,0.3-1.4c0-0.2,0.1-0.3,0.1-0.5s0.2-0.3,0.4-0.2s0.1,0.2,0.1,0.3
			c-0.1,0.4-0.2,0.9-0.3,1.3c-0.1,0.6-0.2,1.3-0.4,1.9c0,0.2,0,0.4-0.3,0.5c-0.2,0-0.4-0.1-0.5-0.2c-0.4-0.6-0.8-1.1-1.2-1.7
			c-0.2-0.3-0.4-0.8-0.7-0.7c-0.4,0.1-0.2,0.6-0.3,0.9c-0.1,0.5-0.2,0.9-0.3,1.4c0,0.2-0.1,0.3-0.3,0.3
			C55.9,57.6,55.9,57.4,55.9,57.3z"/>
		<path fill="#F7FBFC" d="M34.7,38c-0.8,0-1.4-0.6-1.4-1.4c0-0.9,0.8-1.8,1.8-1.8c0.9,0,1.5,0.5,1.5,1.4C36.6,37.1,35.7,38,34.7,38z
			"/>
		<path fill="#F7FBFC" d="M25.3,57.7c-0.3,0.1-0.5-0.1-0.5-0.5c0-0.3,0-0.7-0.4-0.7c-0.6-0.1-1.1,0-1.3,0.4
			c-0.1,0.2-0.2,0.5-0.4,0.7c-0.1,0.1-0.2,0.2-0.4,0.1c-0.2-0.1-0.1-0.2,0-0.3c0.7-1.2,1.4-2.3,2.1-3.5c0.1-0.2,0.2-0.3,0.5-0.3
			s0.3,0.3,0.3,0.5c0.2,1,0.4,2.1,0.6,3.1C25.9,57.6,25.8,57.7,25.3,57.7z M24.5,55.6c-0.1-0.2,0.1-0.6-0.2-0.6
			c-0.2,0-0.3,0.4-0.4,0.5s-0.1,0.2-0.2,0.3v0.1c0.2,0.1,0.4,0.1,0.7,0.1C24.6,56,24.5,55.8,24.5,55.6z"/>
		<path fill="#F7FBFC" d="M32.2,63.7c-0.4,0.1-0.6-0.1-0.6-0.5c0-0.3,0.1-0.7-0.4-0.7c-0.7-0.1-1.1,0-1.4,0.5
			c-0.1,0.2-0.3,0.4-0.4,0.6c0,0.1-0.2,0.1-0.3,0c-0.1,0-0.1-0.2,0-0.3c0.7-1.2,1.4-2.4,2.2-3.6c0.1-0.2,0.2-0.3,0.4-0.2
			c0.2,0,0.3,0.2,0.3,0.4c0.2,1.1,0.5,2.3,0.7,3.4C32.7,63.8,32.4,63.7,32.2,63.7z M30.8,62.2c0.2,0,0.3,0,0.4-0.2s-0.1-1-0.2-1
			c-0.3,0-0.3,0.4-0.5,0.5c0,0-0.1,0.1-0.1,0.2C30.4,62.1,30.4,62.2,30.8,62.2z"/>
		<path fill="#F7FBFC" d="M44.9,57.3c0,0.2,0.1,0.4-0.2,0.4s-0.6,0.2-0.8-0.2c-0.1-0.1-0.1-0.2-0.1-0.3c-0.1-0.3,0.1-0.7-0.4-0.7
			c-0.7-0.1-1.1,0-1.4,0.5c-0.1,0.2-0.2,0.4-0.3,0.6c-0.1,0.1-0.2,0.2-0.4,0.1c-0.2-0.1-0.1-0.2,0-0.4c0.5-0.9,1.1-1.8,1.6-2.7
			c0.2-0.3,0.4-0.6,0.5-0.9c0.1-0.2,0.3-0.2,0.4-0.2c0.2,0,0.2,0.2,0.2,0.3C44.4,55,44.6,56.2,44.9,57.3z M43.1,56.1
			c0.2,0,0.5,0.1,0.5-0.2s0-0.8-0.2-0.9c-0.3-0.1-0.3,0.4-0.5,0.5c0,0,0,0,0,0.1C42.6,56,42.7,56,43.1,56.1z"/>
		<path fill="#F7FBFC" d="M48.5,63.7c-0.4,0.1-0.6-0.1-0.6-0.5c0-0.3,0.1-0.7-0.4-0.7s-1.1-0.2-1.3,0.4c-0.1,0.2-0.2,0.5-0.4,0.7
			c-0.1,0.1-0.2,0.1-0.4,0.1c-0.2-0.1,0-0.2,0-0.3c0.7-1.2,1.4-2.3,2.1-3.5c0.1-0.2,0.2-0.3,0.5-0.3c0.2,0,0.2,0.2,0.2,0.4
			c0.2,1.1,0.4,2.2,0.7,3.3C49,63.7,48.9,63.8,48.5,63.7z M47.3,62.2c0.2,0,0.5,0,0.4-0.4c-0.1-0.3,0-0.7-0.2-0.7
			c-0.3,0-0.3,0.4-0.5,0.6c0,0,0,0,0,0.1C46.7,62.1,46.8,62.2,47.3,62.2z"/>
		<path fill="#F7FBFC" d="M53.7,63.7c-1.1,0-1.1,0-0.9-1.1c0.2-0.8,0.3-1.7,0.5-2.5c0.1-0.3,0.2-0.5,0.6-0.5c0.5,0,1,0,1.4,0
			c0.2,0,0.3,0.1,0.3,0.2c0,0.2-0.1,0.2-0.3,0.2c-0.1,0-0.3,0-0.4,0c-0.6,0-0.9,0.4-0.8,1c0,0.2,0.2,0.2,0.3,0.2c0.2,0,0.4,0,0.6,0
			c0.1,0,0.3,0,0.3,0.2s-0.1,0.3-0.3,0.3s-0.3,0-0.5,0c-0.6,0-0.6,0-0.7,0.6c0,0.1,0,0.1,0,0.2c-0.1,0.6-0.1,0.7,0.6,0.7
			c0.1,0,0.2,0,0.3,0c0.2,0,0.4,0,0.4,0.2s-0.2,0.2-0.4,0.2C54.2,63.7,54,63.7,53.7,63.7z"/>
		<path fill="#F7FBFC" d="M58.2,62.3c0,1.1-1.5,1.9-2.5,1.4c-0.1-0.1-0.2-0.1-0.2-0.3c0.1-0.2,0.1-0.4,0.3-0.5
			c0.1-0.1,0.1,0.1,0.2,0.2c0.4,0.4,0.7,0.4,1.1,0.2c0.4-0.2,0.4-0.7,0.1-1c-0.1-0.1-0.3-0.2-0.4-0.3c-0.4-0.2-0.8-0.5-0.7-1
			c0.1-0.6,0.3-1.1,0.9-1.3c0.4-0.2,0.8-0.2,1.3-0.1c0.1,0,0.3,0.1,0.3,0.3c0,0.1-0.1,0.3-0.2,0.4c-0.2,0.2-0.2-0.1-0.3-0.1
			c-0.3-0.3-0.6-0.2-0.9,0c-0.3,0.2-0.3,0.6,0,0.9c0.2,0.2,0.5,0.3,0.7,0.5C58,61.6,58.2,62,58.2,62.3z"/>
		<path fill="#F7FBFC" d="M39.3,57.8c-1.5,0-2.2-1-1.7-2.4c0.4-1.4,2-2.2,3.3-1.8c0.1,0,0.3,0.1,0.4,0.2c0.2,0.1,0.1,0.3,0,0.5
			s-0.2,0.1-0.3,0c-0.8-0.5-1.4-0.4-2,0.4c-0.4,0.5-0.6,1.1-0.5,1.7c0,0.9,0.6,1.3,1.5,1.1c0.1,0,0.2-0.1,0.2-0.1
			c0.2,0,0.4-0.3,0.5-0.1c0.1,0.3-0.2,0.4-0.5,0.5C40,57.8,39.7,57.8,39.3,57.8z"/>
		<path fill="#F7FBFC" d="M61.1,57.8c-0.1,0-0.3,0-0.4-0.1c-0.1,0-0.3-0.1-0.3-0.3s0.1-0.3,0.2-0.5c0.1-0.2,0.2,0,0.3,0.1
			c0.3,0.4,0.6,0.5,1,0.2c0.5-0.2,0.5-0.8,0.1-1.1c-0.2-0.1-0.3-0.2-0.5-0.3c-0.6-0.4-0.7-0.9-0.4-1.5c0.4-0.7,1.3-1.1,2-0.8
			c0.1,0,0.3,0.1,0.3,0.2c0,0.1-0.1,0.3-0.2,0.4C63,54.3,63,54,62.9,53.9c-0.3-0.3-0.6-0.2-0.9,0c-0.3,0.2-0.3,0.6,0,0.9
			c0.2,0.1,0.4,0.2,0.6,0.4c0.8,0.5,0.8,1.4,0.1,2C62.3,57.6,61.8,57.8,61.1,57.8z"/>
		<path fill="#F7FBFC" d="M28.2,59.7c0.3,0,0.6,0,0.9,0c0.1,0,0.2,0.1,0.2,0.2c0,0.1-0.1,0.2-0.2,0.2c-0.2,0-0.4,0-0.6,0
			S28,60,27.9,60.3s-0.2,0.6-0.1,0.9c0,0.1,0.1,0.1,0.3,0.2c0.3,0,0.5,0,0.8,0c0.1,0,0.2,0.1,0.2,0.2c0,0.1,0,0.3-0.1,0.3
			c-0.3,0-0.5,0-0.8,0c-0.4,0-0.5,0.1-0.6,0.5s-0.1,0.7-0.2,1.1c-0.1,0.3-0.6,0.5-0.9,0.3c-0.1-0.1,0-0.2,0-0.3
			c0.2-1.1,0.4-2.2,0.6-3.3c0.1-0.3,0.2-0.5,0.6-0.5C27.7,59.7,27.9,59.6,28.2,59.7C28.2,59.6,28.2,59.6,28.2,59.7z"/>
		<path fill="#F7FBFC" d="M41.7,63.7c-1.2,0-1.2,0-0.9-1.1c0.2-0.8,0.3-1.7,0.5-2.5c0.1-0.3,0.2-0.5,0.6-0.5c0.4,0,0.4,0.2,0.4,0.5
			c-0.2,0.8-0.3,1.7-0.5,2.5c-0.1,0.6-0.1,0.6,0.5,0.6c0.2,0,0.6-0.2,0.6,0.2c0,0.5-0.4,0.3-0.6,0.3C42.1,63.8,41.9,63.7,41.7,63.7z
			"/>
		<path fill="#F7FBFC" d="M30.6,57.7c-1.3,0-1.1,0.1-0.9-1.1c0.1-0.8,0.3-1.7,0.5-2.5c0.1-0.3,0.2-0.5,0.6-0.5s0.4,0.1,0.4,0.5
			c-0.2,0.9-0.4,1.7-0.5,2.6c-0.1,0.5-0.1,0.5,0.4,0.5c0.2,0,0.7-0.2,0.7,0.2c0,0.5-0.5,0.2-0.7,0.3C30.8,57.7,30.7,57.7,30.6,57.7z
			"/>
		<path fill="#F7FBFC" d="M47.4,53.6c0.4,0,0.8,0,1.2,0c0.2,0,0.3,0,0.3,0.2s-0.1,0.3-0.3,0.2c-0.1,0-0.2,0-0.3,0
			c-0.4-0.1-0.6,0.1-0.6,0.5c-0.2,0.9-0.4,1.8-0.5,2.8c-0.1,0.4-0.3,0.4-0.6,0.4s-0.4-0.2-0.3-0.4c0.1-0.5,0.2-0.9,0.3-1.4
			c0.1-0.4,0.2-0.8,0.2-1.3c0.1-0.6,0.1-0.6-0.6-0.6c-0.2,0-0.4,0.1-0.4-0.2c0-0.2,0.2-0.3,0.3-0.3C46.6,53.6,47,53.6,47.4,53.6
			L47.4,53.6z"/>
		<path fill="#F7FBFC" d="M27.6,57.7c-1.4,0-1.1,0-0.9-1.1c0.2-0.8,0.4-1.7,0.5-2.5c0.1-0.4,0.3-0.5,0.6-0.5c0.3,0,0.4,0.1,0.3,0.4
			c-0.2,0.9-0.3,1.7-0.5,2.6c-0.1,0.6-0.1,0.7,0.6,0.7c0.2,0,0.5-0.2,0.6,0.1c0.1,0.4-0.3,0.3-0.5,0.3C28,57.7,27.8,57.7,27.6,57.7z
			"/>
		<path fill="#F7FBFC" d="M50.8,63.7c-1.2,0-1.2,0-1-1.2c0.2-0.8,0.3-1.7,0.5-2.5c0.1-0.4,0.5-0.6,0.8-0.4c0.2,0.1,0.1,0.2,0.1,0.4
			c-0.2,0.9-0.3,1.8-0.5,2.7c-0.1,0.6-0.1,0.5,0.5,0.6c0.2,0,0.7-0.2,0.7,0.2s-0.4,0.2-0.7,0.3C51,63.8,50.9,63.7,50.8,63.7z"/>
		<path fill="#F7FBFC" d="M44.2,63.7c-0.3,0-0.6,0-0.5-0.4c0.2-1.1,0.4-2.2,0.6-3.3c0.1-0.3,0.2-0.5,0.6-0.4c0.3,0,0.4,0.1,0.4,0.4
			c-0.2,1.1-0.5,2.2-0.7,3.3C44.6,63.7,44.4,63.8,44.2,63.7z"/>
		<path fill="#F7FBFC" d="M49.3,57.7c-0.4,0-0.4-0.1-0.4-0.5c0.2-1.1,0.4-2.1,0.6-3.2c0.1-0.4,0.4-0.6,0.8-0.4
			c0.2,0.1,0.1,0.2,0.1,0.3c-0.2,0.8-0.3,1.7-0.5,2.5c0,0.2-0.1,0.5-0.1,0.7C49.8,57.6,49.7,57.8,49.3,57.7z"/>
		<path fill="#F7FBFC" d="M39.9,59.7c0.3,0,0.4,0,0.4,0.4c-0.2,1.1-0.4,2.2-0.7,3.3c-0.1,0.3-0.5,0.5-0.8,0.3
			c-0.2-0.1-0.1-0.2-0.1-0.4c0.2-1.1,0.4-2.2,0.6-3.3C39.4,59.8,39.5,59.6,39.9,59.7z"/>
		<path fill="#F7FBFC" d="M39.6,41.1c-0.4,0-0.8,0-1.3,0c0,0-0.1,0-0.2,0c0,0,0-0.1,0.1-0.1c0.6-0.3,1.3-0.7,1.9-1
			c0.1-0.1,0.3,0,0.4,0.1c0.2,0.2,0.3,0.4,0.6,0.5c0.1,0,0.3,0,0.3,0.2c0,0.1-0.1,0.3-0.3,0.3c-0.3,0-0.5,0-0.8,0
			C40,41.1,39.8,41.1,39.6,41.1z"/>
		<path fill="#F7FBFC" d="M47.5,41.1c-0.5,0-0.9,0-1.4,0c-0.2,0-0.3-0.1-0.4-0.3c0-0.2,0.2-0.2,0.3-0.2c0.2-0.1,0.4-0.1,0.5-0.2
			c0.4-0.6,0.9-0.4,1.4,0c0.3,0.3,0.7,0.4,1,0.7c-0.4,0.1-0.8,0-1.2,0.1C47.6,41.1,47.5,41.1,47.5,41.1L47.5,41.1z"/>
		<path fill="#1D65AE" d="M54.6,55.1c0,0.6-0.2,1.2-0.6,1.7c-0.1,0.2-0.3,0.3-0.4,0.4c-0.8,0.5-1.7,0-1.7-0.9c0-0.7,0.2-1.3,0.7-1.9
			c0.3-0.3,0.6-0.5,1-0.5C54.2,53.8,54.6,54.3,54.6,55.1z"/>
		<path fill="#1D65AE" d="M36.2,55.1c0,0.6-0.2,1.2-0.6,1.7c-0.2,0.3-0.5,0.5-0.9,0.6c-0.6,0.1-1.1-0.2-1.2-0.7
			c-0.2-0.9,0.1-1.8,0.8-2.4c0.3-0.4,0.8-0.5,1.3-0.3C36.2,54.2,36.2,54.6,36.2,55.1z"/>
		<path fill="#1D65AE" d="M24.5,55.6c0,0.2,0.1,0.4-0.1,0.4s-0.5,0.1-0.7-0.1v-0.1c0-0.1,0.1-0.2,0.2-0.3c0.2-0.2,0.2-0.6,0.4-0.5
			C24.6,55,24.4,55.4,24.5,55.6z"/>
		<path fill="#1D65AE" d="M30.8,62.2c-0.4,0-0.5-0.1-0.3-0.4c0,0,0-0.1,0.1-0.2c0.2-0.2,0.2-0.5,0.5-0.5c0.1,0,0.3,0.8,0.2,1
			C31.2,62.2,31,62.1,30.8,62.2z"/>
		<path fill="#1D65AE" d="M43.1,56.1c-0.4,0-0.4-0.1-0.3-0.4v-0.1c0.2-0.2,0.2-0.7,0.5-0.5c0.2,0.1,0.2,0.6,0.2,0.9
			C43.6,56.1,43.3,56,43.1,56.1z"/>
		<path fill="#1D65AE" d="M47.3,62.2c-0.5,0-0.6-0.1-0.4-0.4c0,0,0,0,0-0.1c0.2-0.2,0.2-0.7,0.5-0.6c0.2,0,0.2,0.5,0.2,0.7
			C47.8,62.1,47.5,62.2,47.3,62.2z"/>
	</g>
</g>
<circle fill="#396BAE" cx="43.7" cy="41.9" r="34.1"/>
<g>
	<g>
		<path fill="#396BAE" d="M66.8,64.9c-15.4,0-30.8,0-46.2,0c0-15.4,0-30.8,0-46.1c15.4,0,30.8,0,46.2,0
			C66.8,34.2,66.8,49.6,66.8,64.9z M43.4,38.5L43.4,38.5c-0.1-0.3,0-0.5,0-0.8c0-0.6,0-1.2,0-1.8c0-0.3-0.2-0.3-0.4-0.4
			c-0.2-0.1-0.3,0.1-0.4,0.3c-0.3,0.7-0.5,1.4-0.8,2C41.3,38.9,40.7,40,40,41c-0.3,0.4-0.7,0.4-1-0.1c0-0.1-0.1-0.2-0.1-0.2
			c-0.2-0.3-0.3-0.6,0-1c0.2-0.3,0.4-0.6,0.6-0.9c0.4-0.7,0.8-1.4,1.2-2.1c0.4-0.9,0.7-1.9,0.7-3c0-0.6-0.2-1-0.8-1.3
			s-1.1-0.2-1.6,0.1c-0.3,0.2-0.5,0.5-0.7,0.8c-0.5,0.8-0.7,1.7-0.8,2.7c-0.1,1.2,0,2.5,0.2,3.7c0,0.1,0,0.3-0.1,0.4
			c-1,1-2.8,1-3.6-0.3c-0.3-0.5-0.5-1-0.7-1.6c-0.6-2.6-0.5-5.2,0.4-7.7c0.4-1.1,0.9-2.2,1.7-3.1c0.5-0.5,1-1,1.7-1.2
			c0.6-0.2,0.9,0,1.1,0.6c0.1,0.2,0.1,0.4,0.2,0.6c0,0.1,0.1,0.2,0.2,0.3c0.1,0.2,0.3,0.3,0.5,0.2c0.1-0.1,0.2-0.2,0.2-0.4
			c0.1-0.4,0-0.9-0.2-1.3c-0.3-0.7-0.9-1.1-1.7-1c-0.5,0.1-1,0.3-1.4,0.6c-0.7,0.5-1.3,1.1-1.7,1.8c-1.9,3.1-2.5,6.4-1.9,10
			c0.1,0.9,0.4,1.7,0.8,2.5c0.6,1.1,1.5,1.8,2.8,1.6c0.6,0,1.1-0.3,1.6-0.6c0.2-0.1,0.3-0.2,0.5-0.3c0.2,0.5,0.5,0.9,0.9,1.2
			c0.6,0.4,1.1,0.3,1.5-0.3c0.4-0.6,0.7-1.2,1.1-1.7c0.4-0.6,0.7-1.2,1-1.8c0-0.1,0.1-0.2,0.1-0.2s0,0,0.1,0c-0.1,0.7-0.2,1.3-0.2,2
			c-0.1,0.9-0.1,1.8-0.1,2.7c0,0.1,0.1,0.3,0.2,0.4c0.3,0.2,0.6,0.1,0.7-0.3c0.2-0.9,0.3-1.9,0.4-2.9c0.1-1,0.4-2,0.9-3
			c0.1-0.2,0.2-0.4,0.4-0.4c0.3,0,0.3,0.3,0.3,0.5c0.1,0.5,0.1,1.1,0.2,1.6c0.2,1.1,0.4,2.1,0.6,3.2c0.1,0.4,0.3,0.6,0.7,0.6
			c0.3,0,0.5,0,0.8-0.1c0.7-0.3,1.1-0.9,1.4-1.5c0.2-0.3,0.3-0.6,0.4-0.9c0.3,0.2,0.6,0.5,0.9,0.6c0.5,0.3,0.9,0.1,1.2-0.4
			c0.2-0.5,0.5-1.1,0.6-1.6c0.2-1,0.3-2,0.4-3c0-0.2,0-0.5,0.2-0.7c0.1-0.1,0.4-0.1,0.6-0.1c0.3-0.1,0.5-0.1,0.8-0.2
			c0.3-0.1,0.5-0.1,0.8-0.2c0,0.2,0.1,0.3,0.1,0.4c0,0.3-0.1,0.6-0.1,0.9c-0.3,1.4-0.6,2.7-0.9,4.1c-0.1,0.7-0.2,1.4-0.1,2.1
			c0.1,0.8,0.9,1.3,1.7,1c0.4-0.1,0.8-0.3,1.1-0.7c0-0.1,0.1-0.1,0.2-0.2c0.1,0.1,0.2,0.2,0.3,0.4c0.3,0.3,0.5,0.4,0.8,0.1
			c0.3-0.3,0.5-0.6,0.7-0.9c0.9-1.3,1.8-2.6,2.7-3.9c0.1-0.2,0.3-0.3,0.4-0.5c0.4,0.3,0.7,0.7,0.8,1.2c0.1,0.6-0.2,1.1-0.5,1.6
			c-0.6,0.8-1.4,1.3-2.2,1.9c-0.1,0.1-0.2,0.1-0.3,0.2c0.3,0.3,0.7,0.3,1,0.1c0.8-0.5,1.6-1.1,2.2-1.8c0.6-0.7,0.9-1.4,0.6-2.3
			c-0.2-0.7-0.6-1.2-1.1-1.7c-0.3-0.3-0.5-0.3-0.8,0c-0.2,0.2-0.4,0.4-0.5,0.6c-0.9,1.3-1.8,2.6-2.8,3.9c-0.1,0.1-0.2,0.2-0.3,0.3
			c-0.2,0.2-0.4,0.2-0.6-0.1c0.6-1.2,0.7-2.4,0.6-3.7c0-0.6-0.1-1.2-0.4-1.7c-0.3-0.5-0.6-0.5-1-0.2c-0.3,0.3-0.6,0.7-0.7,1.1
			c-0.5,1.5-0.3,2.9,0.4,4.3c0.2,0.4,0.2,0.6-0.2,0.8c-0.2,0.2-0.5,0.3-0.7,0.3c-0.5,0.1-0.8-0.1-0.8-0.6c0-0.7,0-1.4,0.1-2.1
			c0.2-1.1,0.5-2.2,0.7-3.3c0.1-0.5,0.2-0.9,0.3-1.4c0.1-0.9-0.5-1.3-1.3-1c-0.2,0.1-0.5,0.2-0.7,0.3S53.2,33.9,53,34
			c-0.4,0-0.5-0.1-0.5-0.4s-0.1-0.5-0.2-0.8c-0.1-0.2-0.3-0.3-0.5-0.2c-0.5,0.4-0.9,1-0.4,1.7c0.1,0.1,0.2,0.2,0.3,0.4
			c0.1,0.1,0.1,0.2,0.1,0.3c-0.1,0.9-0.1,1.7-0.2,2.6c-0.1,0.7-0.3,1.4-0.6,2c-0.1,0.4-0.5,0.5-0.8,0.1c-0.2-0.2-0.3-0.5-0.3-0.7
			c-0.1-0.6-0.1-1.3-0.1-1.9c-0.1-1.6,0.2-3.2,0.3-4.8c0-0.4,0.2-0.6,0.6-0.7c0.6-0.1,1.2-0.2,1.7-0.4c0.3-0.1,0.7-0.2,1-0.4
			c0.3-0.1,0.2-0.3,0.2-0.6c-0.1-0.2-0.3-0.1-0.4-0.1c-0.6,0.2-1.2,0.4-1.7,0.6c-0.4,0.1-0.8,0.3-1.2,0.4c0-0.4,0-0.8,0.1-1.2
			c0-0.8,0.1-1.6,0.1-2.4c0-0.2-0.1-0.4-0.2-0.5c-0.3,0-0.5,0-0.5,0.3c-0.1,0.3-0.1,0.6-0.1,0.9c-0.1,1-0.2,2-0.3,2.9
			c0,0.3-0.2,0.5-0.6,0.6c-0.2,0-0.5,0.1-0.7,0.2c-0.1,0.1-0.2,0.2-0.2,0.4c0,0.2,0.2,0.3,0.3,0.3s0.3,0,0.4-0.1
			c0.2-0.1,0.4-0.1,0.6-0.2c0,0.1,0,0.2,0,0.3c0.1,1.4,0,2.9-0.1,4.3c-0.1,0.9-0.2,1.9-0.4,2.8c-0.1,0.8-0.5,1.4-1.2,1.9
			c-0.3,0.3-0.7,0.2-0.9-0.2c0-0.1-0.1-0.2-0.1-0.3c-0.2-1-0.3-2-0.5-3c-0.1-0.6-0.2-1.2-0.4-1.8c-0.1-0.4-0.3-0.4-0.6-0.4
			s-0.6,0.2-0.8,0.5s-0.3,0.5-0.4,0.8C43.7,37.7,43.6,38.1,43.4,38.5z M54.8,49.9L54.8,49.9c0.3,0.3,0.5,0.6,0.7,0.9
			c0.6,0.9,1.3,1.9,2.1,2.7c0.4,0.4,0.4,0.4,0.1,0.9c-0.5,1.1-1,2.1-1.5,3.2c-0.1,0.3-0.2,0.7-0.2,1c0,0.1,0.1,0.3,0.2,0.4
			c0.4,0.3,0.8,0.3,1.2-0.1c0.4-0.5,0.6-1.2,0.8-1.8c0.3-0.8,0.5-1.7,0.8-2.6c0.1-0.4,0.2-0.4,0.6-0.2c0.6,0.3,1.2,0.5,1.8,0.6
			c1.1,0.1,1.8-0.5,1.8-1.6c0.1-1.4,0-2.7-0.3-4.1c-0.1-0.5-0.3-1-0.5-1.4s-0.5-0.5-0.9-0.2c-0.2,0.2-0.5,0.4-0.7,0.6
			c-0.5,0.6-0.9,1.4-1.2,2.2c-0.3,0.6-0.5,1.3-0.8,1.9c-0.2,0.4-0.6,0.5-1,0.2c-0.2-0.2-0.4-0.4-0.5-0.6c-0.5-0.7-0.9-1.4-1.4-2.1
			c-0.2-0.3-0.5-0.6-0.8-0.8c-0.5-0.3-0.9-0.1-0.9,0.5c0,0.5,0,1,0.1,1.5c0,0.6,0.1,1.2,0.2,1.8c0,0.2,0,0.5-0.3,0.5
			c-0.2,0-0.4-0.1-0.5-0.2c-0.2-0.3-0.5-0.6-0.6-0.9c-0.5-1-0.8-2.1-0.9-3.2c-0.1-0.5-0.1-1-0.1-1.4c0-0.3-0.2-0.5-0.5-0.4
			c-0.3,0-0.3,0.2-0.3,0.4c0,0.3,0,0.7,0,1c0,1.2-0.1,2.4-0.1,3.6c0,0.3-0.1,0.7-0.2,1c-0.1,0.3-0.3,0.5-0.6,0.5s-0.5-0.3-0.5-0.5
			c-0.1-0.3-0.2-0.7-0.2-1c0-1.1,0.2-2.1,0.2-3.2c0-0.8,0.1-1.6,0.1-2.3c0-0.1-0.1-0.3-0.2-0.4c-0.3-0.2-0.6-0.1-0.7,0.3
			c-0.3,1.3-0.4,2.6-0.5,3.8c0,0.6-0.1,1.3-0.1,1.9c-0.1,0.5-0.2,1-0.7,1.4c-0.4,0.4-0.8,0.4-1.2,0c-0.5-0.5-0.6-1.2-0.4-1.8
			c0.1-0.5,0.4-1.1,0.5-1.6s0.2-0.9,0.2-1.4c0-0.3-0.3-0.3-0.5-0.4c-0.2-0.1-0.4,0-0.5,0.2c-0.1,0.3-0.3,0.6-0.3,1
			c-0.1,0.7-0.2,1.4-0.3,2.1c-0.1,0.5-0.3,1-0.8,1.4c-0.4,0.3-0.8,0.2-0.9-0.2c-0.1-0.3-0.2-0.7-0.2-1c0-0.6,0.1-1.2,0.2-1.8
			c0.2-1,0.6-1.9,1.3-2.6c0.4-0.5,0.8-0.5,1.1,0.1c0.1,0.1,0.2,0.2,0.3,0.3c0.3,0.3,0.5,0.2,0.6-0.1c0.1-0.1,0.1-0.3,0-0.4
			c-0.1-0.3-0.2-0.5-0.4-0.7c-0.5-0.6-1.2-0.6-1.8-0.1c-0.4,0.4-0.8,0.8-1.1,1.4c-0.4,0.8-0.7,1.7-0.9,2.6c-0.2,1-0.2,1.9,0.1,2.9
			c0.3,0.9,1.3,1.2,2,0.6c0.1-0.1,0.3-0.2,0.4-0.4c0.1-0.2,0.2-0.1,0.3,0c0.2,0.3,0.4,0.7,0.7,0.9c0.4,0.4,0.9,0.5,1.4,0.4
			c0.4-0.1,0.6-0.4,0.9-0.7c0.1-0.2,0.3-0.4,0.4-0.6c0.1,0.2,0.2,0.4,0.4,0.6c0.7,0.9,1.8,0.8,2.3-0.2c0.1-0.3,0.2-0.7,0.3-1
			s0.1-0.6,0.2-0.9c0.2,0.2,0.2,0.4,0.3,0.6c0.5,0.9,1.1,1.6,2,2.2c0.4,0.3,0.7,0.2,0.7-0.3c0-0.3,0.1-0.6,0.1-0.8
			c-0.1-0.8-0.2-1.5-0.3-2.3C54.8,50.8,54.7,50.4,54.8,49.9z M29,48.4c-1.7,1.8-3.3,3.6-4.9,5.4c-0.2,0.2-0.3,0.4-0.4,0.6
			c-0.4,0.7-0.2,1.4,0.6,1.7c0.8,0.4,1.6,0.3,2.5-0.1c1.4-0.7,2.7-1.7,3.7-3c0.1-0.2,0.3-0.4,0.5-0.6c0.1,0.5,0.1,0.9,0.2,1.2
			c0.1,0.4,0.3,0.8,0.6,1.2c0.7,0.9,1.9,0.8,2.6-0.1c0.2-0.3,0.3-0.5,0.5-0.8c0.3-0.6,0.3-1.3,0.3-2c0-1.3-0.3-2.6-1.1-3.7
			c-0.7-1.1-1.7-1.3-2.8-0.7c-0.6,0.3-1.2,0.3-1.8,0c-1.5-0.8-3.1-1.5-4.6-2.3c-0.7-0.4-0.8-0.6-0.4-1.4c0.1-0.2,0.2-0.4,0.3-0.5
			c0.3-0.5,0.7-1,1-1.5c0.7-1,1.5-2,2.3-3c0.2-0.3,0.4-0.4,0.7-0.4c0.4,0,0.9,0,1.3,0c0.5,0,0.8-0.2,0.8-0.7c0-0.6-0.4-1.1-1-1.1
			c-1-0.1-1.8,0.3-2.5,1.1c-1.4,1.9-2.6,3.8-3.9,5.8c-0.2,0.3-0.3,0.5-0.5,0.8c-0.2,0.4-0.1,0.7,0.2,1c0.2,0.2,0.3,0.3,0.5,0.5
			c0.5,0.3,1,0.6,1.5,0.9c0.9,0.4,1.9,0.8,2.9,1.3C28.4,48.1,28.7,48.3,29,48.4z M40.1,53.1c0.1,0.2,0.2,0.3,0.3,0.5
			c0.2,0.4,0.3,0.8,0.6,1.2c0.2,0.3,0.5,0.4,0.8,0.2c0.3-0.1,0.4-0.4,0.3-0.7c-0.1-0.2-0.2-0.3-0.3-0.5c-0.2-0.3-0.4-0.6-0.6-0.9
			C41,52.6,41,52.2,41,51.7c0.1-0.9,0.1-1.8,0.1-2.6c0-0.4-0.2-0.6-0.6-0.6c-0.3,0-0.4,0.1-0.4,0.6c-0.1,0.8-0.2,1.6-0.3,2.5
			c-0.2,0.8-0.5,1.6-1.2,2.1c-0.5,0.4-1,0.4-1.4-0.2c-0.3-0.5-0.4-1-0.5-1.6c-0.1-1.1,0.1-2.2,0.3-3.3c0.2-0.8,0.6-1.4,1.2-1.9
			c0.3-0.3,0.4-0.3,0.6,0.1c0.1,0.2,0.3,0.3,0.6,0.2c0.3-0.1,0.2-0.3,0.2-0.5c0-0.1,0-0.2-0.1-0.3c-0.2-0.6-0.7-0.8-1.2-0.5
			c-0.8,0.4-1.4,1.1-1.7,2c-0.6,1.9-0.8,3.8-0.4,5.7c0.2,0.7,0.6,1.1,1.3,1.3c0.6,0.2,1.2,0,1.6-0.5C39.6,54,39.8,53.6,40.1,53.1z
			 M62.4,62.8c0.7,0,1.5,0,2.2,0c0-0.7,0-1.5,0-2.2c-0.8,0-1.5,0-2.2,0C62.4,61.4,62.4,62.1,62.4,62.8z M22.7,21c0,0.8,0,1.5,0,2.2
			c0.7,0,1.5,0,2.2,0c0-0.7,0-1.5,0-2.2C24.2,21,23.5,21,22.7,21z M41.7,45c0-0.2-0.4-1.1-0.6-1.2c-0.2-0.1-0.5-0.1-0.8,0.2
			c-0.2,0.2-0.3,0.4-0.1,0.6c0.2,0.3,0.5,0.6,0.8,0.8C41.4,45.6,41.7,45.4,41.7,45z"/>
		<path fill="#FAFBFC" d="M43.4,38.5c0.2-0.4,0.3-0.8,0.5-1.2c0.1-0.3,0.2-0.6,0.4-0.8c0.2-0.3,0.4-0.5,0.8-0.5c0.4,0,0.5,0,0.6,0.4
			c0.2,0.6,0.3,1.2,0.4,1.8c0.2,1,0.4,2,0.5,3c0,0.1,0,0.2,0.1,0.3c0.2,0.4,0.5,0.5,0.9,0.2c0.6-0.5,1-1.2,1.2-1.9
			c0.2-0.9,0.3-1.9,0.4-2.8c0.1-1.4,0.2-2.9,0.1-4.3c0-0.1,0-0.1,0-0.3c-0.2,0.1-0.4,0.1-0.6,0.2c-0.1,0-0.3,0.1-0.4,0.1
			c-0.2,0-0.4-0.1-0.3-0.3c0-0.1,0.1-0.3,0.2-0.4c0.2-0.1,0.4-0.1,0.7-0.2s0.5-0.2,0.6-0.6c0.1-1,0.2-2,0.3-2.9
			c0-0.3,0.1-0.6,0.1-0.9c0.1-0.3,0.2-0.4,0.4-0.1c0.1,0.1,0.2,0.3,0.2,0.5c0,0.8-0.1,1.6-0.1,2.4c0,0.4,0,0.7-0.1,1.2
			c0.4-0.2,0.8-0.3,1.2-0.4c0.6-0.2,1.2-0.4,1.7-0.6c0.1,0,0.3-0.1,0.4,0.1c0,0.2,0.1,0.4-0.2,0.6c-0.3,0.1-0.7,0.3-1,0.4
			c-0.6,0.1-1.2,0.3-1.7,0.4c-0.4,0.1-0.5,0.3-0.6,0.7c-0.2,1.6-0.4,3.2-0.3,4.8c0,0.6,0,1.3,0.1,1.9c0,0.3,0.2,0.5,0.3,0.7
			c0.3,0.3,0.6,0.3,0.8-0.1c0.2-0.7,0.5-1.3,0.6-2c0.1-0.9,0.2-1.7,0.2-2.6c0-0.1-0.1-0.2-0.1-0.3c-0.1-0.1-0.2-0.2-0.3-0.4
			c-0.5-0.7-0.1-1.3,0.4-1.7c0.2-0.1,0.4-0.1,0.5,0.2c0.1,0.2,0.1,0.5,0.2,0.8c0.1,0.4,0.1,0.5,0.5,0.4c0.2,0,0.5-0.1,0.7-0.2
			c0.2-0.1,0.5-0.2,0.7-0.3c0.8-0.3,1.4,0.2,1.3,1c-0.1,0.5-0.2,0.9-0.3,1.4c-0.2,1.1-0.5,2.2-0.7,3.3c-0.1,0.7-0.1,1.4-0.1,2.1
			c0,0.5,0.3,0.7,0.8,0.6c0.3-0.1,0.5-0.2,0.7-0.3c0.3-0.2,0.4-0.5,0.2-0.8c-0.7-1.4-0.9-2.8-0.4-4.3c0.1-0.4,0.4-0.8,0.7-1.1
			c0.4-0.4,0.8-0.3,1,0.2c0.3,0.5,0.4,1.1,0.4,1.7c0.1,1.3,0,2.5-0.6,3.7c0.2,0.2,0.4,0.2,0.6,0.1c0.1-0.1,0.2-0.2,0.3-0.3
			c0.9-1.3,1.8-2.6,2.8-3.9c0.2-0.2,0.3-0.4,0.5-0.6c0.3-0.2,0.5-0.2,0.8,0c0.5,0.5,0.9,1,1.1,1.7c0.3,0.9,0,1.7-0.6,2.3
			c-0.6,0.7-1.4,1.3-2.2,1.8c-0.3,0.2-0.7,0.1-1-0.1c0.1-0.1,0.2-0.1,0.3-0.2c0.8-0.5,1.6-1.1,2.2-1.9c0.4-0.5,0.6-1,0.5-1.6
			c-0.1-0.5-0.4-0.8-0.8-1.2c-0.1,0.2-0.3,0.3-0.4,0.5c-0.9,1.3-1.8,2.6-2.7,3.9c-0.2,0.3-0.5,0.6-0.7,0.9c-0.3,0.3-0.5,0.3-0.8-0.1
			c-0.1-0.1-0.2-0.2-0.3-0.4c-0.1,0.1-0.1,0.1-0.2,0.2c-0.3,0.3-0.7,0.5-1.1,0.7c-0.8,0.3-1.6-0.2-1.7-1c-0.1-0.7,0-1.4,0.1-2.1
			c0.2-1.4,0.6-2.7,0.9-4.1c0.1-0.3,0.1-0.6,0.1-0.9c0-0.1,0-0.3-0.1-0.4c-0.3,0.1-0.6,0.2-0.8,0.2c-0.3,0.1-0.5,0.1-0.8,0.2
			c-0.2,0-0.5,0-0.6,0.1c-0.1,0.2-0.1,0.5-0.2,0.7c-0.1,1-0.2,2-0.4,3c-0.1,0.6-0.3,1.1-0.6,1.6c-0.2,0.5-0.7,0.7-1.2,0.4
			c-0.3-0.2-0.6-0.4-0.9-0.6c-0.1,0.3-0.3,0.6-0.4,0.9c-0.3,0.6-0.7,1.2-1.4,1.5c-0.2,0.1-0.5,0.1-0.8,0.1c-0.4,0-0.7-0.2-0.7-0.6
			C46,41,45.8,40,45.6,38.9c-0.1-0.5-0.1-1.1-0.2-1.6c0-0.2-0.1-0.5-0.3-0.5c-0.3,0-0.3,0.2-0.4,0.4c-0.4,0.9-0.7,1.9-0.9,3
			c-0.1,1-0.3,1.9-0.4,2.9c-0.1,0.4-0.4,0.5-0.7,0.3c-0.1-0.1-0.2-0.3-0.2-0.4c0-0.9,0-1.8,0.1-2.7c0-0.7,0.1-1.3,0.2-2
			c0,0,0,0-0.1,0c0,0.1-0.1,0.2-0.1,0.2c-0.3,0.6-0.7,1.2-1,1.8s-0.7,1.2-1.1,1.7c-0.4,0.6-0.9,0.7-1.5,0.3
			c-0.4-0.3-0.7-0.7-0.9-1.2c-0.2,0.1-0.4,0.2-0.5,0.3c-0.5,0.3-1,0.5-1.6,0.6c-1.3,0.1-2.2-0.6-2.8-1.6c-0.4-0.8-0.7-1.6-0.8-2.5
			c-0.5-3.6,0.1-6.9,1.9-10c0.4-0.7,1-1.4,1.7-1.8c0.4-0.3,0.9-0.5,1.4-0.6c0.8-0.1,1.4,0.2,1.7,1c0.2,0.4,0.2,0.9,0.2,1.3
			c0,0.1-0.1,0.3-0.2,0.4c-0.2,0.1-0.4,0-0.5-0.2c-0.1-0.1-0.1-0.2-0.2-0.3c-0.1-0.2-0.1-0.4-0.2-0.6c-0.2-0.6-0.4-0.7-1.1-0.6
			c-0.7,0.2-1.2,0.7-1.7,1.2c-0.8,0.9-1.3,2-1.7,3.1c-0.9,2.5-1,5.1-0.4,7.7c0.1,0.6,0.4,1.1,0.7,1.6c0.8,1.3,2.6,1.3,3.6,0.3
			c0.1-0.1,0.1-0.3,0.1-0.4c-0.2-1.2-0.3-2.4-0.2-3.7c0.1-1,0.3-1.9,0.8-2.7c0.2-0.3,0.4-0.6,0.7-0.8c0.5-0.4,1-0.4,1.6-0.1
			c0.5,0.3,0.7,0.7,0.8,1.3c0.1,1.1-0.2,2-0.7,3c-0.4,0.7-0.8,1.4-1.2,2.1c-0.2,0.3-0.4,0.6-0.6,0.9c-0.3,0.3-0.2,0.7,0,1
			c0,0.1,0.1,0.2,0.1,0.2c0.3,0.4,0.7,0.5,1,0.1c0.7-1,1.3-2,1.8-3.2c0.3-0.7,0.5-1.3,0.8-2c0.1-0.2,0.1-0.3,0.4-0.3
			c0.2,0,0.4,0.1,0.4,0.4c0,0.6,0,1.2,0,1.8C43.4,38,43.4,38.3,43.4,38.5L43.4,38.5z M38.5,39.2C38.6,39.1,38.6,39.1,38.5,39.2
			c0.9-1.1,1.4-2.2,1.9-3.4c0.3-0.7,0.4-1.3,0.3-2.1c-0.1-0.7-0.6-0.9-1.2-0.6c-0.5,0.3-0.9,0.7-1,1.3c-0.3,1.3-0.5,2.5-0.3,3.8
			C38.4,38.6,38.4,38.9,38.5,39.2z M56.8,40.5c0.1,0,0.1,0,0.2,0c0.1-0.1,0.1-0.3,0.2-0.4c0.2-1.1,0.3-2.1,0.3-3.2
			c0-0.1,0-0.2-0.1-0.3s-0.1-0.2-0.2-0.2c-0.1,0-0.3,0.1-0.3,0.2c-0.1,0.1-0.2,0.3-0.2,0.5c-0.2,0.9-0.2,1.8,0,2.7
			C56.6,39.9,56.7,40.2,56.8,40.5z"/>
		<path fill="#FBFCFD" d="M54.8,49.9c-0.1,0.4,0,0.9,0,1.3c0.1,0.8,0.2,1.5,0.3,2.3c0,0.3,0,0.6-0.1,0.8c-0.1,0.5-0.3,0.6-0.7,0.3
			c-0.9-0.5-1.5-1.3-2-2.2c-0.1-0.2-0.2-0.4-0.3-0.6c-0.1,0.3-0.1,0.6-0.2,0.9c-0.1,0.3-0.1,0.7-0.3,1c-0.5,1-1.7,1.1-2.3,0.2
			c-0.1-0.2-0.2-0.4-0.4-0.6c-0.2,0.2-0.3,0.4-0.4,0.6c-0.2,0.3-0.5,0.6-0.9,0.7c-0.5,0.2-1,0-1.4-0.4c-0.3-0.3-0.5-0.6-0.7-0.9
			c-0.1-0.2-0.2-0.2-0.3,0c-0.1,0.1-0.2,0.3-0.4,0.4c-0.7,0.6-1.7,0.3-2-0.6c-0.3-1-0.3-1.9-0.1-2.9c0.2-0.9,0.5-1.8,0.9-2.6
			c0.3-0.5,0.6-1,1.1-1.4c0.6-0.5,1.3-0.5,1.8,0.1c0.2,0.2,0.3,0.5,0.4,0.7c0.1,0.1,0,0.3,0,0.4c-0.1,0.3-0.4,0.4-0.6,0.1
			c-0.1-0.1-0.2-0.2-0.3-0.3c-0.4-0.6-0.7-0.6-1.1-0.1c-0.7,0.8-1.1,1.6-1.3,2.6c-0.1,0.6-0.2,1.2-0.2,1.8c0,0.3,0.1,0.7,0.2,1
			c0.2,0.4,0.6,0.5,0.9,0.2c0.5-0.4,0.7-0.9,0.8-1.4c0.1-0.7,0.2-1.4,0.3-2.1c0.1-0.3,0.2-0.7,0.3-1c0.1-0.2,0.3-0.2,0.5-0.2
			c0.2,0.1,0.4,0.1,0.5,0.4c0.1,0.5,0,1-0.2,1.4c-0.2,0.5-0.4,1.1-0.5,1.6c-0.2,0.7-0.1,1.3,0.4,1.8c0.4,0.4,0.8,0.4,1.2,0
			s0.6-0.9,0.7-1.4c0.1-0.6,0.1-1.2,0.1-1.9c0.1-1.3,0.2-2.6,0.5-3.8c0.1-0.4,0.4-0.6,0.7-0.3c0.1,0.1,0.2,0.2,0.2,0.4
			c0,0.8-0.1,1.6-0.1,2.3c-0.1,1.1-0.2,2.1-0.2,3.2c0,0.3,0.1,0.7,0.2,1c0.1,0.3,0.2,0.5,0.5,0.5s0.5-0.2,0.6-0.5s0.2-0.7,0.2-1
			c0.1-1.2,0.1-2.4,0.1-3.6c0-0.3,0-0.7,0-1c0-0.2,0-0.4,0.3-0.4s0.5,0.2,0.5,0.4c0,0.5,0.1,1,0.1,1.4c0.2,1.1,0.4,2.2,0.9,3.2
			c0.2,0.3,0.4,0.7,0.6,0.9c0.1,0.1,0.3,0.2,0.5,0.2s0.3-0.3,0.3-0.5c0-0.6-0.1-1.2-0.2-1.8c0-0.5-0.1-1-0.1-1.5
			c0-0.6,0.4-0.8,0.9-0.5c0.3,0.2,0.6,0.5,0.8,0.8c0.5,0.7,1,1.4,1.4,2.1c0.2,0.2,0.3,0.5,0.5,0.6c0.4,0.3,0.7,0.2,1-0.2
			c0.3-0.6,0.6-1.2,0.8-1.9c0.3-0.8,0.7-1.5,1.2-2.2c0.2-0.2,0.4-0.4,0.7-0.6c0.4-0.3,0.7-0.2,0.9,0.2s0.4,0.9,0.5,1.4
			c0.3,1.3,0.4,2.7,0.3,4.1c-0.1,1.1-0.8,1.6-1.8,1.6c-0.7,0-1.3-0.2-1.8-0.6c-0.3-0.2-0.4-0.2-0.6,0.2c-0.3,0.8-0.5,1.7-0.8,2.6
			c-0.2,0.6-0.3,1.3-0.8,1.8c-0.3,0.4-0.8,0.5-1.2,0.1c0,0.5-0.1,0.3-0.1,0.1c0-0.3,0.1-0.7,0.2-1c0.5-1.1,1-2.2,1.5-3.2
			c0.3-0.5,0.3-0.5-0.1-0.9c-0.8-0.8-1.5-1.7-2.1-2.7C55.4,50.5,55.1,50.2,54.8,49.9C54.9,49.9,54.9,49.9,54.8,49.9z M61.9,49.3
			c-0.2,0.1-0.4,0.2-0.5,0.4c-0.2,0.1-0.3,0.3-0.4,0.5c-0.6,0.9-1,2-1.3,3c-0.1,0.4,0,0.5,0.4,0.7c0.3,0.1,0.7,0.2,1,0.2
			c0.9,0,1.2-0.3,1.4-1.2c0.2-1.1,0.1-2.2-0.3-3.2C62.1,49.6,62,49.4,61.9,49.3z"/>
		<path fill="#FBFCFD" d="M29,48.4c-0.3-0.2-0.6-0.4-0.9-0.5c-1-0.4-1.9-0.8-2.9-1.3c-0.5-0.2-1-0.6-1.5-0.9
			c-0.2-0.1-0.4-0.3-0.5-0.5c-0.3-0.3-0.4-0.7-0.2-1c0.1-0.3,0.3-0.5,0.5-0.8c1.3-2,2.5-3.9,3.9-5.8c0.6-0.9,1.5-1.2,2.5-1.1
			c0.6,0,1,0.4,1,1.1c0,0.5-0.3,0.7-0.8,0.7c-0.4,0-0.9,0-1.3,0c-0.3,0-0.6,0.1-0.7,0.4c-0.8,1-1.5,2-2.3,3c-0.4,0.5-0.7,1-1,1.5
			c-0.1,0.2-0.2,0.4-0.3,0.5c-0.4,0.7-0.3,1,0.4,1.4c1.5,0.8,3.1,1.5,4.6,2.3c0.6,0.3,1.2,0.3,1.8,0c1.1-0.6,2.1-0.4,2.8,0.7
			c0.7,1.1,1.1,2.4,1.1,3.7c0,0.7-0.1,1.3-0.3,2c-0.1,0.3-0.3,0.6-0.5,0.8c-0.7,0.9-1.9,1-2.6,0.1c-0.3-0.3-0.4-0.7-0.6-1.2
			c-0.1-0.4-0.1-0.8-0.2-1.2c-0.2,0.2-0.3,0.4-0.5,0.6c-1,1.3-2.2,2.3-3.7,3c-0.8,0.4-1.6,0.4-2.5,0.1c-0.7-0.3-1-1-0.6-1.7
			c0.1-0.2,0.2-0.4,0.4-0.6C25.7,52.1,27.3,50.3,29,48.4z M30.4,50.9c0-0.5-0.2-1-0.5-1.4c-0.2-0.3-0.3-0.3-0.6,0
			c-0.6,0.6-1.2,1.1-1.7,1.7c-0.6,0.6-1.1,1.3-1.6,2c-0.4,0.5-0.4,1.1-0.1,1.7c0.1,0.3,0.3,0.4,0.6,0.3c0.3-0.1,0.6-0.2,0.8-0.4
			c1-0.7,1.8-1.5,2.6-2.3C30.2,52,30.4,51.5,30.4,50.9z M31.9,51.3C31.9,51.3,31.8,51.3,31.9,51.3c0,0.4,0,0.8,0,1.2
			c0,0.5,0,1.1,0.3,1.6c0.4,0.6,1,0.7,1.5,0.1c0.2-0.2,0.3-0.5,0.4-0.8c0.3-1.7,0-3.2-0.7-4.8c-0.3-0.6-1.1-0.8-1.7-0.4
			c-0.2,0.1-0.3,0.2-0.2,0.5c0.1,0.3,0.2,0.6,0.3,1C31.8,50.1,31.8,50.7,31.9,51.3z M30.4,48.8c0.1,0.6,0.3,1,0.7,1.2
			c0.1-0.3,0.1-0.7,0-1C31,48.6,30.8,48.6,30.4,48.8z"/>
		<path fill="#FBFCFD" d="M40.1,53.1c-0.3,0.4-0.6,0.9-0.9,1.2c-0.4,0.5-1,0.7-1.6,0.5c-0.7-0.2-1.1-0.6-1.3-1.3
			c-0.5-1.9-0.3-3.8,0.4-5.7c0.3-0.9,0.9-1.5,1.7-2c0.6-0.3,1-0.1,1.2,0.5c0,0.1,0.1,0.2,0.1,0.3c0,0.2,0.1,0.4-0.2,0.5
			c-0.2,0.1-0.4,0-0.6-0.2c-0.2-0.4-0.2-0.4-0.6-0.1c-0.6,0.5-1,1.1-1.2,1.9c-0.2,1.1-0.4,2.1-0.3,3.3c0,0.6,0.2,1.1,0.5,1.6
			c0.4,0.6,0.8,0.6,1.4,0.2c0.7-0.6,1-1.3,1.2-2.1c0.2-0.8,0.2-1.6,0.3-2.5c0.1-0.5,0.1-0.6,0.4-0.6c0.3,0,0.6,0.2,0.6,0.6
			c0,0.9-0.1,1.8-0.1,2.6c0,0.4,0,0.8,0.3,1.2c0.2,0.3,0.4,0.6,0.6,0.9c0.1,0.2,0.2,0.3,0.3,0.5c0.1,0.3,0,0.6-0.3,0.7
			c-0.3,0.1-0.7,0.1-0.8-0.2c-0.2-0.4-0.4-0.8-0.6-1.2C40.4,53.4,40.3,53.3,40.1,53.1z"/>
		<path fill="#FAFBFC" d="M62.4,62.8c0-0.7,0-1.5,0-2.2c0.7,0,1.5,0,2.2,0c0,0.7,0,1.4,0,2.2C63.8,62.8,63.1,62.8,62.4,62.8z"/>
		<path fill="#FBFCFD" d="M22.7,21c0.7,0,1.5,0,2.2,0c0,0.7,0,1.5,0,2.2c-0.7,0-1.4,0-2.2,0C22.7,22.4,22.7,21.7,22.7,21z"/>
		<path fill="#FAFBFC" d="M41.7,45c0,0.4-0.3,0.6-0.6,0.4c-0.3-0.2-0.6-0.5-0.8-0.8c-0.2-0.2-0.1-0.4,0.1-0.6
			c0.3-0.2,0.6-0.3,0.8-0.2C41.3,43.9,41.7,44.7,41.7,45z"/>
		<path fill="#3A6CAF" d="M38.5,39.2c-0.1-0.3-0.1-0.6-0.2-1c-0.2-1.3-0.1-2.6,0.3-3.8c0.2-0.6,0.5-1,1-1.3c0.6-0.3,1.1-0.1,1.2,0.6
			c0.1,0.7,0,1.4-0.3,2.1c-0.5,1.2-1,2.3-1.8,3.3C38.6,39.1,38.6,39.1,38.5,39.2z"/>
		<path fill="#3A6CAF" d="M56.8,40.5c-0.1-0.3-0.2-0.6-0.2-0.9c-0.2-0.9-0.2-1.8,0-2.7c0-0.2,0.1-0.3,0.2-0.5
			c0.1-0.1,0.2-0.2,0.3-0.2s0.2,0.1,0.2,0.2c0,0.1,0.1,0.2,0.1,0.3c0.1,1.1,0,2.2-0.3,3.2c0,0.2-0.1,0.3-0.2,0.4
			C56.9,40.5,56.8,40.5,56.8,40.5z"/>
		<path fill="#3A6CAF" d="M61.9,49.3c0.1,0.2,0.2,0.3,0.2,0.4c0.3,1,0.5,2.1,0.3,3.2c-0.2,0.9-0.5,1.2-1.4,1.2c-0.3,0-0.7-0.1-1-0.2
			c-0.4-0.1-0.5-0.2-0.4-0.7c0.3-1.1,0.7-2.1,1.3-3c0.1-0.2,0.3-0.4,0.4-0.5C61.5,49.5,61.7,49.4,61.9,49.3z"/>
		<path fill="#3A6CAF" d="M30.4,50.9c0,0.6-0.2,1.1-0.5,1.5c-0.8,0.9-1.7,1.7-2.6,2.3c-0.2,0.2-0.5,0.3-0.8,0.4
			c-0.3,0.1-0.5,0-0.6-0.3c-0.3-0.6-0.2-1.2,0.1-1.7c0.5-0.7,1.1-1.4,1.6-2s1.1-1.2,1.7-1.7c0.3-0.3,0.3-0.3,0.6,0
			C30.2,49.9,30.4,50.4,30.4,50.9z"/>
		<path fill="#3A6CAF" d="M31.9,51.3c0-0.6,0-1.2-0.1-1.7c0-0.3-0.1-0.7-0.3-1c-0.1-0.2-0.1-0.4,0.2-0.5c0.7-0.4,1.5-0.2,1.7,0.4
			c0.7,1.5,1,3.1,0.7,4.8c-0.1,0.3-0.2,0.6-0.4,0.8c-0.5,0.6-1.1,0.5-1.5-0.1c-0.3-0.5-0.3-1-0.3-1.6C31.8,52.1,31.8,51.7,31.9,51.3
			C31.8,51.3,31.9,51.3,31.9,51.3z"/>
		<path fill="#3A6CAF" d="M30.4,48.8c0.4-0.3,0.6-0.2,0.7,0.2c0.1,0.3,0,0.6,0,1C30.7,49.8,30.5,49.4,30.4,48.8z"/>
	</g>
</g>
</svg>
