<?xml version="1.0" encoding="utf-8"?>
<!-- Generator: Adobe Illustrator 23.0.3, SVG Export Plug-In . SVG Version: 6.00 Build 0)  -->
<svg version="1.1" id="Calque_1" xmlns="http://www.w3.org/2000/svg" xmlns:xlink="http://www.w3.org/1999/xlink" x="0px" y="0px"
	 viewBox="0 0 42 42" style="enable-background:new 0 0 42 42;" xml:space="preserve">
<style type="text/css">
	.st0{fill:none;}
	.st1{display:none;}
	.st2{display:inline;}
	.st3{fill:#1F3563;}
	.st4{fill:#1F3461;}
	.st5{fill:#20325E;}
	.st6{fill:#FDFDFD;}
	.st7{fill:#030304;}
	.st8{fill:#020203;}
	.st9{fill:none;stroke:#051821;stroke-width:1.7192;stroke-miterlimit:10;}
</style>
<rect class="st0" width="42" height="42"/>
<g class="st1">
	<g class="st2">
		<path class="st3" d="M15.2,22.8c0.3,0,0.7,0,1,0c0.2,0.6,0.4,0.8,1,0.8c1,0,2.1,0,3.1,0c0.6,0,0.9-0.3,0.9-0.8
			c0-0.4-0.2-0.7-0.6-0.8c-0.5-0.1-1-0.1-1.5-0.2c-0.8,0-1.6,0-2.5,0c-1.3-0.1-1.7-1.1-1.5-2.2c0.1-0.5,0.5-0.9,1-1
			c0.2,0,0.4-0.1,0.6-0.1c1.3,0,2.6,0,3.9,0c0.9,0,1.5,0.6,1.5,1.5c0,0,0,0.1,0,0.2c-0.3,0-0.7,0-1,0c-0.2-0.6-0.4-0.8-1.1-0.8
			c-1,0-2,0-3,0c-0.6,0-0.9,0.4-0.8,0.9c0.1,0.3,0.3,0.5,0.6,0.5c0.6,0.1,1.3,0.1,1.9,0.1c0.7,0,1.5-0.1,2.2,0.2
			c1.2,0.3,1.7,2,0.9,2.9c-0.2,0.2-0.4,0.3-0.6,0.4c-0.3,0.1-0.6,0.1-0.9,0.1c-1.1,0-2.3,0-3.4,0c-0.3,0-0.6,0-0.8-0.1
			C15.5,24.1,15.1,23.5,15.2,22.8z"/>
		<path class="st3" d="M29.9,22.7c0.3,0,0.6,0,0.9,0c0.2,0.7-0.2,1.4-0.9,1.6c-0.5,0.1-1.1,0.2-1.6,0.2c-1,0-2,0-3,0
			c-1.1-0.1-1.6-0.6-1.7-1.7c0-0.9,0-1.8,0-2.7c0.1-1,0.5-1.4,1.5-1.5c1.5-0.2,3-0.3,4.4,0.1c0.9,0.2,1.3,0.8,1.3,1.6
			c-0.3,0-0.6,0-0.9,0c0-0.6-0.4-0.8-0.9-0.8c-1.1,0-2.3,0-3.4,0c-0.8,0-1.2,0.7-1,1.5c1.3,0,2.7,0,4.1,0c0,0.3,0,0.6,0,0.9
			c-1.4,0-2.7,0-4.2,0c0.1,0.4,0.1,0.7,0.2,1.1c0.1,0.3,0.3,0.5,0.6,0.6c0.3,0,0.7,0.1,1.1,0.1c0.9,0,1.7,0,2.6,0
			C29.6,23.5,29.8,23.3,29.9,22.7z"/>
		<path class="st4" d="M35.7,24.5c-0.6,0-1.2,0-1.9-0.1c-1-0.1-1.5-0.6-1.6-1.6c-0.1-1-0.1-2,0-3c0.1-0.7,0.6-1.1,1.2-1.3
			c0.2,0,0.5-0.1,0.7-0.1c1.1,0,2.2,0,3.4,0.1c1.1,0.1,1.6,0.6,1.6,1.6c0.1,0.9,0.1,1.9,0,2.8c-0.1,0.9-0.6,1.4-1.6,1.5
			C37,24.5,36.3,24.5,35.7,24.5z M35.6,23.5c0.6,0,1.1,0,1.7-0.1c0.5,0,0.8-0.3,0.8-0.8c0-0.8,0-1.6,0-2.4c0-0.5-0.3-0.8-0.8-0.8
			c-1.1,0-2.2,0-3.3,0c-0.4,0-0.7,0.3-0.8,0.6c-0.2,0.9-0.2,1.8,0,2.6c0.1,0.4,0.3,0.6,0.7,0.6C34.6,23.4,35.2,23.5,35.6,23.5z"/>
		<path class="st3" d="M3.6,18.4c0.4,0,0.7,0,1.1,0c0.1,0,0.2,0.1,0.2,0.2c0.8,1.5,1.6,3.1,2.4,4.6c0,0.1,0.1,0.2,0.2,0.4
			c0.1-0.2,0.2-0.3,0.2-0.4c0.8-1.5,1.5-3,2.3-4.6c0.1-0.2,0.2-0.3,0.4-0.3c0.3,0,0.6,0,0.9,0c-0.1,0.2-0.1,0.3-0.2,0.4
			c-0.9,1.8-1.9,3.6-2.8,5.4c-0.1,0.2-0.2,0.3-0.4,0.3c-0.4,0-0.7,0-1.1,0c-0.1,0-0.3-0.1-0.3-0.2c-1-1.9-1.9-3.8-2.9-5.7
			C3.6,18.5,3.6,18.5,3.6,18.4z"/>
		<path class="st5" d="M12.7,18.4c0.3,0,0.7,0,1,0c0,2,0,4,0,6.1c-0.3,0-0.6,0-1,0C12.7,22.4,12.7,20.4,12.7,18.4z"/>
	</g>
</g>
<g>
	<g>
		<path class="st6" d="M8.6,31.7c-0.3,0-0.7,0-1,0c-0.1,0-0.1,0-0.1-0.1c0-0.1,0-0.2,0-0.3c0-7.6,0-15.2,0-22.8c0-0.1,0-0.2,0-0.3
			c0-0.1,0-0.1,0.1-0.1c0.1,0,0.2,0,0.3,0c8.8,0,17.7,0,26.4,0c0.1,0,0.2,0,0.3,0s0.1,0,0.1,0.1c0,0.1,0,0.3,0,0.4
			c0,6.4,0,12.7,0,19.1c-0.3,0-0.7,0-1,0c-0.3,0-0.5,0.2-0.8,0.4c-0.2,0.2-0.2,0.3-0.2,0.5c-0.1,0.5,0.2,0.9-0.2,1.3V30
			c-0.1,0.3-0.1,0.6,0,0.9c0.1,0.3,0.2,0.6,0.5,0.7c0.1,0.2,0.3,0,0.4,0.2c-0.5,0-1,0-1.5,0c-0.1-0.2,0.3-0.1,0.2-0.3
			c-0.1-0.1,0-0.2,0-0.3c0-0.2-0.1-0.2-0.2-0.2c-0.1,0-0.1-0.1-0.1-0.1c0-0.2,0-0.5,0-0.7c0.1-0.5-0.1-0.9-0.1-1.4
			c0-0.2-0.1-0.3-0.2-0.5c-0.2-0.2-0.4-0.5-0.7-0.6c-0.3-0.1-0.7-0.1-1.1,0.1c-0.3,0.2-0.5,0.1-0.7-0.1l-0.1-0.1
			c-0.1-0.1-0.3,0.1-0.5,0.2c-0.1,0.1,0,0.2,0.1,0.3c0.1,0.1,0.2,0.2,0.2,0.2c0.1,0.1,0.1,0.2,0.1,0.3c-0.1,0.2-0.2,0.3-0.2,0.6
			c0,0.7,0,1.5,0,2.3c0,0.1,0,0.2,0.1,0.2c0.2,0,0.5,0,0.7,0c0,0,0.1-0.1,0.1-0.2c0-0.7,0-1.4,0-2c0-0.3,0.1-0.6,0.3-0.9
			c0.3-0.2,0.7-0.2,0.9,0.1c0.1,0.2,0.2,0.3,0.2,0.5c0,0.6,0,1.1,0,1.7c0,0.5,0.1,0.7,0.5,0.9c-1.5,0-3.1,0-4.6,0
			c0.2-0.2,0.5-0.2,0.6-0.3c0.1-0.1,0.3,0,0.5,0c0.1,0,0.2,0,0.2-0.1c0-0.5,0-0.9,0-1.4c0-0.1-0.1-0.1-0.1-0.1c-0.4,0-0.7,0-1.1,0
			c-0.1,0-0.1,0.1-0.1,0.1c0,0.1,0,0.2,0,0.3s0.1,0.2,0.2,0.1c0.1,0,0.2,0,0.2,0c0.2,0,0.2,0.1,0.2,0.2c0,0.2-0.3,0.5-0.5,0.6
			c-0.3,0.1-0.6-0.1-0.8-0.3c-0.3-0.4-0.2-0.9-0.2-1.4c0-0.3,0.1-0.7,0.4-0.9c0.1-0.1,0.6-0.1,0.7,0c0.1,0.1,0.3,0.2,0.3,0.5
			c0,0.1,0.1,0.1,0.1,0.1c0.3,0.1,0.5,0,0.5-0.3c0-0.1,0-0.2,0-0.2c0-0.2,0.1-0.3,0-0.5c-0.1-0.1-0.3,0-0.4-0.1
			c-0.3-0.2-0.6-0.2-0.9-0.2c-0.1,0-0.2,0-0.3,0c-0.2,0-0.5,0.1-0.6,0.2c-0.5,0.4-0.6,1-0.7,1.5c-0.1,0.4,0.1,0.9,0.1,1.3
			c0.1,0.4,0.3,0.9,0.9,0.9c0.1,0,0.1,0.1,0.2,0.1c-0.5,0-1,0-1.5,0c0.1-0.1,0.2-0.1,0.2-0.1c0.1-0.2,0.1-0.3,0.1-0.6
			c0-0.2-0.2-0.1-0.2-0.1c-0.1-0.1-0.2-0.1-0.2-0.2c-0.2-0.9-0.6-1.7-0.8-2.6c-0.1-0.4-0.2-0.5-0.6-0.5c-0.2,0-0.3,0-0.5,0
			c-0.2,0-0.2,0.1-0.3,0.2c-0.1,0.1-0.1,0.2-0.1,0.3c-0.1,0.6-0.4,1.2-0.5,1.8c-0.1,0.5-0.3,0.9-0.5,1.4c-0.1,0.1-0.1,0.2,0.1,0.2
			c0.1,0,0.2,0,0.3,0c0.4,0,0.4,0,0.5-0.4c0.1-0.2,0.1-0.4,0.2-0.6c0-0.1,0.1-0.1,0.1-0.1c0.3-0.1,0.7,0.1,1-0.1
			c0,0,0.1,0.1,0.1,0.1c0.1,0.5,0.2,0.9,0.6,1.2c-1.3,0-2.6,0-3.8,0c0.2-0.2,0.2-0.2,0.2-0.5c0-0.1,0-0.1,0-0.1
			c0-0.2-0.1-0.2-0.2-0.2c-0.3,0-0.3-0.1-0.3-0.3c0-0.5,0-0.9,0-1.4c0-0.3,0-0.6,0-0.9c0.3,0,0.6-0.1,0.9-0.1h0.1
			c0.2,0,0.2-0.1,0.2-0.2c0-0.1,0-0.2,0-0.3c0-0.1-0.1-0.2-0.2-0.2c-0.9,0-1.8,0-2.7,0c-0.1,0-0.2,0-0.2,0.2c0,0.1,0,0.2,0,0.3
			c0,0.1,0,0.2,0.2,0.2c0.2,0,0.5,0,0.7,0c0.2,0,0.2,0.1,0.2,0.2c0,0.8,0,1.6,0,2.4c0,0.4,0.1,0.5,0.3,0.7c-0.9,0-1.7,0-2.6,0
			c0.1-0.2,0.3-0.2,0.6-0.3c0.3-0.1,0.3-0.1,0.3-0.4c0-0.1,0-0.2,0-0.2c0-0.5,0-0.4-0.5-0.4c-0.2,0-0.2,0.1-0.2,0.2
			c-0.1,0.3-0.5,0.6-0.7,0.5c-0.2-0.1-0.4-0.1-0.5-0.2c-0.1-0.2-0.2-0.3-0.2-0.5c0-0.3,0.1-0.4,0.4-0.4c0.2,0,0.5,0,0.7,0
			c0.4,0,0.3,0.1,0.3-0.3c0-0.3,0-0.3-0.3-0.3c-0.1,0-0.2,0-0.3,0c-0.5,0-0.6-0.2-0.6-0.6c0-0.2,0.1-0.3,0.3-0.2
			c0.3,0.1,0.7-0.1,1,0.1c0,0,0.1-0.1,0.1-0.1c0.1-0.1,0.1-0.2,0.1-0.2c0.1-0.2,0.1-0.2-0.2-0.3c-0.1-0.1-0.2-0.1-0.3-0.1
			c-0.2,0-0.5,0-0.7,0c-0.3,0-0.5,0.1-0.7,0.2s-0.3,0.2-0.3,0.4c-0.1,0.2-0.3,0.5-0.1,0.7c0.2,0.3,0.1,0.6-0.1,0.8
			c-0.3,0.6-0.2,0.7,0,1.3c0.2,0.3,0.4,0.5,0.8,0.5c0.1,0,0.2-0.1,0.3,0.1c-0.6,0-1.2,0-1.8,0c0.2-0.2,0.2-0.2,0.2-0.5
			c0-0.1,0-0.1,0-0.2c0-0.1-0.1-0.2-0.2-0.2s-0.3,0.1-0.4-0.1c-0.2-0.2-0.3-0.5-0.5-0.7c-0.1-0.1-0.1-0.2,0.1-0.3
			c0.3-0.1,0.5-0.5,0.5-0.8c0-0.1,0-0.2,0-0.3c0.1-0.7-0.5-0.9-0.9-1c-0.5-0.1-0.9,0-1.4,0c-0.3,0-0.3,0.1-0.3,0.3
			c0,1.1,0,2.2,0,3.4c0,0.2,0.1,0.2,0.2,0.2c0.1,0,0.3,0,0.4,0c0.2,0,0.2-0.1,0.2-0.2c0-0.4,0-0.8,0-1.3c0-0.1,0.1-0.2,0.2-0.2
			c0.2,0,0.3,0,0.4,0.2c0.1,0.1,0.2,0.3,0.2,0.4c0.4,0.9,0.4,0.9,0.8,1.1c-1.3,0-2.6,0-3.8,0c0.1-0.1,0.1-0.1,0.2-0.1
			c0.3,0,0.5-0.2,0.6-0.3c0.1-0.2,0.3-0.5,0.3-0.7c-0.1-0.3-0.1-0.8-0.6-1c-0.1-0.1-0.1-0.1-0.1-0.2c0.1-0.1,0.1-0.1,0.2-0.2
			c0.2-0.3,0.3-0.6,0.1-0.9c-0.2-0.3-0.4-0.6-0.7-0.6c-0.6-0.1-1.1,0-1.7,0c-0.1,0-0.1,0.1-0.1,0.1c0,1.1,0,2.1,0,3.2
			c0,0.1,0.1,0.2,0.1,0.2c0.2,0,0.3,0.2,0.5,0.3C8.2,31.6,8.5,31.5,8.6,31.7z M30,13.7c0-0.2,0-0.3,0-0.4c0-0.2-0.1-0.1-0.2-0.1
			c-0.1,0.1-0.2,0.1-0.3,0.2c-0.7,0.6-1.5,1-2.3,1.3c-0.6,0.2-1.1,0.5-1.8,0.5c-0.2,0.2-0.6,0-0.8,0.1c-0.3,0.2-0.6,0.1-0.9,0.1
			c-0.7,0-1.4,0.1-2.1-0.1c-0.2-0.1-0.5,0-0.8-0.1c-0.2-0.1-0.5-0.1-0.8-0.1c-0.5-0.1-1-0.2-1.5-0.3c-0.7-0.2-1.4-0.4-2.1-0.7
			c-0.7-0.3-1.5-0.7-2.1-1.2c-0.1,0-0.1,0-0.2,0c0,0.1,0,0.2,0,0.2c0.2,0.2,0.4,0.4,0.5,0.6c0.2,0.3,0.5,0.5,0.6,0.8
			c0.2,0.3,0.5,0.5,0.7,0.8c0.1,0.1,0.3,0.2,0.4,0.4c0.4,0.7,1,1.1,1.6,1.7c0.5,0.4,0.9,0.8,1.3,1.1c0.4,0.3,0.8,0.7,1.3,1
			c0.5,0.3,1,0.7,1.6,1c0.5,0.3,1,0.6,1.5,0.9c0.7,0.3,1.4,0.7,2.1,1c0.5,0.2,1,0.5,1.6,0.6c0.5,0.2,0.9,0.3,1.4,0.5
			c0.5,0.2,1,0.2,1.4,0.5c0,0,0.1-0.1,0.2-0.1c0.1-0.3-0.1-0.7-0.2-1c-0.1-0.5-0.3-0.9-0.6-1.2c-0.3-0.4-0.5-0.9-1-1
			c-0.1,0-0.1-0.1-0.1-0.2c0.1,0,0.1-0.1,0.2-0.1c0.3,0,0.7,0.1,1,0c0.4-0.1,0.8-0.3,1.2-0.5c0.7-0.4,1.4-0.9,1.9-1.5
			c0.2-0.2,0.2-0.2-0.1-0.5c-0.5-0.3-1-0.5-1.5-0.6c-0.6-0.2-1.3-0.5-2.1-0.3c-0.1,0-0.2,0-0.3,0c-0.1,0-0.1-0.1-0.2-0.1
			c0.1-0.1,0.1-0.1,0.1-0.1c0.1-0.1,0.2-0.2,0.3-0.3c0.3-0.5,0.6-1,0.7-1.5C29.8,14.4,30,14,30,13.7z M14,10.8c0,0.1,0,0.3,0,0.4
			c0,0.1,0.1,0.1,0.1,0.1c0.3,0.1,0.7-0.1,1-0.2c0.6-0.2,0.9-0.7,1.3-1.1c0.3-0.4,0.4-0.9,0.3-1.4c-0.1-0.3-0.3-0.6-0.5-0.5
			c-0.2,0.1-0.5,0.1-0.6,0.2c-0.2,0.1-0.4,0.2-0.6,0.3C14.4,9.3,14,10,14,10.8z M12.8,12.9c0-0.2,0-0.3-0.1-0.4
			c-0.1-0.1-0.3-0.2-0.4-0.1c-0.3,0.1-0.7,0.1-1,0.3c-0.6,0.3-1.3,1-1.6,1.7c-0.1,0.2-0.1,0.5-0.1,0.7c0,0.1,0.1,0.1,0.1,0.1
			c0.3-0.1,0.6,0.2,1,0.1c0.4-0.1,0.8-0.3,1.1-0.5C12.3,14.2,12.6,13.6,12.8,12.9z M12,11.2c0.1,0,0.3,0,0.4,0
			c0.1,0,0.1-0.1,0.1-0.1c0.1-0.5,0-0.9-0.3-1.3c-0.3-0.5-0.7-0.9-1.2-1.2c-0.4-0.2-0.8-0.4-1.3-0.4c-0.1,0-0.2,0.1-0.2,0.1
			c-0.1,0.5,0,1,0.3,1.5c0.2,0.3,0.5,0.6,0.8,0.9C11.1,11,11.5,11.3,12,11.2z M9.4,24.6c0,0.4,0,0.7,0,1.1c0,0.2,0.1,0.2,0.2,0.2
			c0.1,0,0.2-0.1,0.2-0.2c0-0.2,0-0.5,0-0.7c0-0.1,0.1-0.1,0.1-0.1c0.2-0.1,0.3,0,0.5,0.2c0.1,0.1,0.2,0.3,0.2,0.4
			c0.1,0.2,0.2,0.3,0.3,0.5c0.1,0.1,0.3,0.1,0.4,0.1c0.1,0,0.1-0.2,0.2-0.3c0-0.1-0.1-0.2-0.1-0.2c-0.4,0-0.5-0.3-0.6-0.6
			c-0.1-0.1-0.1-0.2,0-0.2c0.3-0.2,0.4-0.5,0.3-0.9c0-0.2-0.3-0.5-0.5-0.5c-0.4,0-0.8,0-1.1,0c0,0.3-0.1,0.7-0.1,1
			C9.4,24.3,9.4,24.5,9.4,24.6z M20.4,25c0-0.1,0-0.1,0-0.1c0-0.3-0.3-0.9-0.5-0.9c-0.4-0.1-0.7,0-1,0.3c-0.2,0.2-0.3,0.6-0.3,1
			c0.1,0.7,0.7,1,1.3,0.6C20.3,25.7,20.4,25.4,20.4,25z M21.4,25.1c0,0.2,0,0.4,0,0.6c0,0.2,0.1,0.2,0.2,0.2c0.1,0,0.3,0.1,0.2-0.2
			c0-0.3,0-0.7,0-1c0-0.1,0.2-0.3,0.3-0.4c0.2-0.1,0.2,0.1,0.3,0.2c0.1,0.1,0.1,0.2,0.1,0.3c0,0.3,0,0.6,0,0.9c0,0.1,0,0.2,0.2,0.2
			c0.3,0,0.3,0,0.3-0.3s0-0.5,0-0.8c0-0.3-0.2-0.5-0.4-0.7c-0.2-0.2-0.4-0.2-0.6-0.1c-0.2,0.1-0.5,0.1-0.7,0c-0.1,0-0.1,0-0.1,0.1
			s0,0.1,0.1,0.2c0.1,0.1,0.2,0.2,0.2,0.3C21.3,24.7,21.4,24.9,21.4,25.1z M15.7,23.9c-0.1,0-0.3,0-0.4,0c-0.2,0.1-0.3,0.1-0.4,0.3
			c-0.1,0.3-0.2,0.5,0.1,0.7c0.1,0.1,0.1,0.1,0.1,0.1c-0.1,0.3,0.1,0.6,0.3,0.7c0.2,0.1,0.1,0.3-0.1,0.4c-0.1,0-0.1,0-0.2,0
			c-0.2,0-0.1,0.1-0.1,0.2c0,0.1,0.1,0.1,0.1,0.1c0.1,0,0.2,0,0.3,0c0.2-0.1,0.4-0.2,0.5-0.4c0.1-0.2,0.1-0.3-0.2-0.5
			c-0.1-0.1-0.2-0.2-0.2-0.2c-0.1-0.2-0.1-0.3,0.1-0.3c0.3-0.1,0.6-0.5,0.5-0.7C16,24.3,16,24.2,16,24c0-0.1-0.1-0.1-0.1-0.1
			C15.9,23.9,15.8,23.9,15.7,23.9z M13.3,25c0.2,0,0.3,0,0.5,0c0.1,0,0.1,0,0.1-0.1c0-0.2,0.1-0.4,0-0.6c-0.1-0.3-0.6-0.5-1-0.3
			c-0.5,0.2-0.6,0.5-0.6,1c0,0.6,0.4,1,1.1,1c0.2,0,0.5-0.2,0.5-0.4c0-0.1-0.1-0.2-0.1-0.2c-0.2,0.2-0.5,0.1-0.7,0.1
			c-0.2,0-0.3-0.1-0.3-0.4c0-0.2,0.2-0.1,0.3-0.1C13.1,24.9,13.2,25,13.3,25z M17.6,25c0-0.3,0-0.5,0-0.8c0-0.2-0.1-0.2-0.2-0.2
			s-0.2,0.1-0.2,0.2c0,0.5,0,1,0,1.4c0,0.2,0.1,0.2,0.2,0.2s0.2-0.1,0.2-0.2C17.6,25.5,17.6,25.3,17.6,25z M13.4,23.1
			c-0.1,0-0.2,0-0.2,0.1c-0.1,0.1-0.2,0.5-0.2,0.6l0.1,0.1c0.2,0,0.2-0.2,0.3-0.3c0.1-0.1,0.1-0.1,0.1-0.2
			C13.5,23.3,13.5,23.2,13.4,23.1z M17.6,23.4c-0.1,0-0.2-0.1-0.3-0.1l-0.1,0.1c0.1,0.2,0.2,0.1,0.3,0.1
			C17.5,23.6,17.5,23.5,17.6,23.4z"/>
		<path class="st7" d="M8.6,31.7c-0.1-0.2-0.3-0.2-0.5-0.3c-0.1-0.1-0.2-0.3-0.5-0.3c0,0-0.1-0.1-0.1-0.2c0-1.1,0-2.1,0-3.2
			c0-0.1,0.1-0.1,0.1-0.1c0.6,0,1.1-0.1,1.7,0c0.3,0,0.6,0.2,0.7,0.6s0.1,0.6-0.1,0.9c-0.1,0.1-0.1,0.1-0.2,0.2
			c-0.1,0.1-0.1,0.2,0.1,0.2c0.5,0.2,0.5,0.6,0.6,1c0,0.2-0.1,0.5-0.3,0.7c-0.1,0.2-0.3,0.3-0.6,0.3c-0.1,0-0.1,0.1-0.2,0.1
			C9.2,31.7,8.9,31.7,8.6,31.7z M8.4,30.3c0,0.1,0,0.2,0,0.3c0,0.2,0.3,0.5,0.5,0.5c0.3,0.1,0.6-0.1,0.7-0.3c0.1-0.2,0-0.6-0.2-0.7
			c-0.1-0.2-0.3-0.3-0.5-0.2c-0.1,0-0.3,0-0.4,0c-0.1,0-0.2,0.1-0.2,0.2C8.4,30.1,8.4,30.2,8.4,30.3z M8.4,28.7c0,0.5,0,0.5,0.5,0.5
			c0.1,0,0.2,0,0.2-0.1c0.1-0.1,0.3,0,0.2-0.2c-0.1-0.2,0.2-0.3,0.1-0.5c-0.1-0.2-0.2-0.3-0.5-0.3c-0.1,0-0.3,0-0.4,0
			c-0.2,0-0.2,0.1-0.2,0.2C8.4,28.5,8.4,28.6,8.4,28.7z"/>
		<path class="st7" d="M13.3,31.7c-0.4-0.3-0.4-0.3-0.8-1.1c-0.1-0.1-0.2-0.3-0.2-0.4C12.1,30,12,30,11.9,30c-0.1,0-0.2,0-0.2,0.2
			c0,0.4,0,0.8,0,1.3c0,0.1,0,0.2-0.2,0.2c-0.1,0-0.3,0-0.4,0c-0.2,0-0.2-0.1-0.2-0.2c0-1.1,0-2.2,0-3.4c0-0.3,0.1-0.3,0.3-0.3
			c0.5,0,0.9-0.1,1.4,0s1,0.3,0.9,1c0,0.1,0,0.2,0,0.3c0.1,0.3-0.1,0.7-0.5,0.8c-0.2,0.1-0.2,0.2-0.1,0.3c0.1,0.3,0.3,0.5,0.5,0.7
			c0.1,0.2,0.3,0.1,0.4,0.1c0.1,0,0.2,0.1,0.2,0.2c0,0.1,0,0.1,0,0.2c0,0.3,0,0.3-0.2,0.5C13.7,31.7,13.5,31.7,13.3,31.7z
			 M11.7,28.8c0,0.2,0,0.3,0,0.5c0,0.1,0.1,0.1,0.2,0.2c0.2,0.1,0.3,0.2,0.6,0.1c0.4-0.2,0.5-0.3,0.4-0.7c0-0.2-0.2-0.5-0.5-0.5
			C11.7,28.1,11.7,28.1,11.7,28.8z"/>
		<path class="st7" d="M31.2,31.7c-0.3-0.2-0.5-0.5-0.5-0.9c0-0.6,0-1.1,0-1.7c0-0.2-0.1-0.4-0.2-0.5c-0.2-0.3-0.6-0.3-0.9-0.1
			c-0.3,0.2-0.3,0.5-0.3,0.9c0,0.7,0,1.4,0,2c0,0.1,0,0.2-0.1,0.2c-0.2,0-0.5,0-0.7,0c0,0-0.1-0.1-0.1-0.2c0-0.7,0-1.5,0-2.3
			c0-0.2,0.1-0.4,0.2-0.6c0.1-0.1,0.1-0.2-0.1-0.3c-0.1-0.1-0.2-0.2-0.2-0.2c-0.1-0.1-0.2-0.1-0.1-0.3c0.1-0.2,0.4-0.3,0.5-0.2
			c0.1,0,0.1,0.1,0.1,0.1c0.2,0.2,0.5,0.2,0.7,0.1c0.3-0.2,0.7-0.1,1.1-0.1c0.3,0.1,0.5,0.3,0.7,0.6c0.1,0.1,0.1,0.3,0.2,0.5
			c0.1,0.5,0.2,0.9,0.1,1.4c0,0.2,0,0.5,0,0.7c0,0.1,0.1,0.1,0.1,0.1c0.2,0,0.2,0.1,0.2,0.2c0,0.1,0,0.2,0,0.3
			c0.1,0.2-0.3,0.1-0.2,0.3C31.6,31.7,31.3,31.7,31.2,31.7z"/>
		<path class="st7" d="M25.8,31.7c-0.1-0.1-0.1-0.1-0.2-0.1c-0.5-0.1-0.7-0.5-0.9-0.9c-0.1-0.4-0.2-0.8-0.1-1.3
			c0.1-0.6,0.2-1.1,0.7-1.5c0.2-0.2,0.4-0.3,0.6-0.2c0.1,0,0.2,0,0.3,0c0.3,0,0.6-0.1,0.9,0.2c0.1,0.1,0.3,0,0.4,0.1s0,0.3,0,0.5
			c0,0.1,0,0.2,0,0.2c0,0.3-0.1,0.5-0.5,0.3C27,29,27,28.9,27,28.9c0.1-0.3-0.2-0.3-0.3-0.5c-0.1-0.1-0.6-0.1-0.7,0
			c-0.3,0.2-0.4,0.5-0.4,0.9c0,0.5-0.1,0.9,0.2,1.4c0.2,0.3,0.5,0.5,0.8,0.3c0.2-0.1,0.4-0.4,0.5-0.6c0-0.1,0-0.2-0.2-0.2
			c-0.1,0-0.2,0-0.2,0c-0.1,0-0.2,0-0.2-0.1s0-0.2,0-0.3c0-0.1,0.1-0.1,0.1-0.1c0.4,0,0.7,0,1.1,0c0.1,0,0.1,0.1,0.1,0.1
			c0,0.5,0,0.9,0,1.4c0,0.1-0.1,0.1-0.2,0.1c-0.2,0-0.3-0.1-0.5,0c-0.2,0.2-0.5,0.1-0.6,0.3C26.3,31.7,26.1,31.7,25.8,31.7z"/>
		<path class="st7" d="M23.7,31.7c-0.3-0.3-0.5-0.8-0.6-1.2c0-0.1-0.1-0.1-0.1-0.1c-0.3,0.2-0.6,0.1-1,0.1c-0.1,0-0.1,0.1-0.1,0.1
			c-0.1,0.2-0.1,0.4-0.2,0.6c-0.1,0.4-0.1,0.4-0.5,0.4c-0.1,0-0.2,0-0.3,0c-0.1,0-0.1-0.1-0.1-0.2c0.2-0.5,0.3-0.9,0.5-1.4
			c0.2-0.6,0.5-1.1,0.5-1.8c0-0.1,0.1-0.2,0.1-0.3c0.1-0.1,0.1-0.2,0.3-0.2c0.2,0,0.3,0,0.5,0c0.4,0,0.5,0.1,0.6,0.5
			c0.2,0.9,0.6,1.7,0.8,2.6c0,0.1,0.1,0.2,0.2,0.2c0.1,0.1,0.2-0.1,0.2,0.1s0,0.3-0.1,0.6c0,0.1-0.1,0.1-0.2,0.1
			C24,31.7,23.8,31.7,23.7,31.7z M22.5,29.8c0.1,0,0.1,0,0.2,0c0.2,0,0.3-0.1,0.2-0.2c-0.1-0.2-0.1-0.5-0.2-0.7
			c-0.1-0.1-0.1-0.2-0.2-0.3c-0.1,0.1-0.1,0.2-0.2,0.4c-0.1,0.2-0.1,0.5-0.2,0.6c-0.1,0.2,0,0.3,0.2,0.3
			C22.3,29.8,22.4,29.8,22.5,29.8z"/>
		<path class="st7" d="M15.6,31.7c0-0.2-0.2-0.1-0.3-0.1c-0.4,0-0.6-0.2-0.8-0.5c-0.2-0.6-0.2-0.7,0-1.3c0.1-0.2,0.2-0.5,0.1-0.8
			c-0.1-0.2,0.1-0.5,0.1-0.7c0.1-0.2,0.2-0.3,0.3-0.4c0.2-0.1,0.5-0.2,0.7-0.2c0.2,0,0.5,0,0.7,0c0.1,0,0.2,0.1,0.3,0.1
			c0.2,0.1,0.2,0.1,0.2,0.3c0,0.1-0.1,0.2-0.1,0.2c0,0.1-0.1,0.1-0.1,0.1c-0.3-0.2-0.7-0.1-1-0.1c-0.2,0-0.3,0.1-0.3,0.2
			c-0.1,0.5,0.1,0.6,0.6,0.6c0.1,0,0.2,0,0.3,0c0.3,0,0.3,0,0.3,0.3c0,0.4,0.1,0.3-0.3,0.3c-0.2,0-0.5,0-0.7,0
			c-0.3,0-0.3,0.1-0.4,0.4c0,0.2,0.1,0.3,0.2,0.5c0.1,0.2,0.3,0.2,0.5,0.2c0.3,0.1,0.7-0.2,0.7-0.5c0.1-0.2,0.1-0.2,0.2-0.2
			c0.5,0,0.5,0,0.5,0.4c0,0.1,0,0.2,0,0.2c0,0.3,0,0.2-0.3,0.4c-0.2,0.1-0.5,0.1-0.6,0.3C16.3,31.7,16,31.7,15.6,31.7z"/>
		<path class="st7" d="M33.3,31.7c-0.1-0.2-0.3,0-0.4-0.2c-0.3-0.1-0.5-0.3-0.5-0.7c-0.1-0.3-0.1-0.6,0-0.9v-0.1
			c0.3-0.4,0.2-0.9,0.2-1.3c0-0.2,0-0.4,0.2-0.5c0.2-0.2,0.4-0.5,0.8-0.4c0.3,0,0.7,0,1,0c0,0.2,0,0.5,0,0.7c-0.1,0-0.2,0.1-0.2,0
			c-0.3-0.2-0.5-0.1-0.8,0c-0.2,0.1-0.2,0.3-0.3,0.5s0.1,0.3,0.2,0.4c0.1,0.1,0.1,0.1,0.2,0.1c0.3,0,0.6,0,0.9,0c0,0.2,0,0.5,0,0.7
			c-0.4,0-0.8,0-1.2,0c-0.2,0-0.2,0.1-0.3,0.3c-0.1,0.4,0.2,0.9,0.8,0.9c0.2,0,0.5-0.1,0.7-0.1c0,0.2,0,0.5,0,0.7
			c-0.1,0-0.3,0-0.4,0c-0.1,0-0.1,0.1-0.1,0.1C33.9,31.7,33.6,31.7,33.3,31.7z"/>
		<path class="st7" d="M19.1,31.7c-0.3-0.2-0.3-0.3-0.3-0.7c0-0.8,0-1.6,0-2.4c0-0.2-0.1-0.2-0.2-0.2c-0.2,0-0.5,0-0.7,0
			c-0.2,0-0.2-0.1-0.2-0.2c0-0.1,0-0.2,0-0.3c0-0.1,0.1-0.2,0.2-0.2c0.9,0,1.8,0,2.7,0c0.1,0,0.2,0,0.2,0.2c0,0.1,0,0.2,0,0.3
			c0,0.1,0,0.2-0.2,0.2h-0.1c-0.3,0-0.6,0.1-0.9,0.1c0,0.3,0,0.6,0,0.9c0,0.5,0,0.9,0,1.4c0,0.2,0.1,0.3,0.2,0.2
			c0.2-0.1,0.2,0.1,0.2,0.2c0,0.1,0,0.1,0,0.1c0,0.3,0,0.3-0.2,0.5C19.6,31.7,19.4,31.7,19.1,31.7z"/>
		<path class="st6" d="M34.7,30.9c-0.2,0.1-0.5,0.1-0.7,0.1c-0.6,0.1-0.9-0.5-0.8-0.9c0-0.2,0.1-0.3,0.3-0.3c0.4,0,0.8,0,1.2,0
			C34.7,30.2,34.7,30.6,34.7,30.9z"/>
		<path class="st6" d="M34.7,29.2c-0.3,0-0.6,0-0.9,0c-0.1,0-0.2,0-0.2-0.1c-0.1-0.1-0.3-0.2-0.2-0.4c0.1-0.2,0.1-0.4,0.3-0.5
			c0.3-0.1,0.5-0.2,0.8,0c0.1,0.1,0.2,0,0.2,0C34.7,28.6,34.7,28.9,34.7,29.2z"/>
		<path class="st6" d="M34.1,31.7c0.1-0.1,0.1-0.1,0.1-0.1c0.1,0,0.3,0,0.4,0c0,0.1-0.1,0.1-0.1,0.1C34.4,31.7,34.3,31.7,34.1,31.7z
			"/>
		<path class="st7" d="M30,13.7c0.1,0.4-0.2,0.7-0.3,1.1c-0.2,0.6-0.5,1-0.7,1.5c-0.1,0.1-0.2,0.2-0.3,0.3c-0.1,0.1-0.1,0.1-0.1,0.1
			c0.1,0.1,0.1,0.1,0.2,0.1c0.1,0,0.2,0,0.3,0c0.7-0.1,1.4,0.1,2.1,0.3c0.5,0.2,1,0.3,1.5,0.6c0.3,0.2,0.3,0.2,0.1,0.5
			c-0.6,0.6-1.2,1.1-1.9,1.5c-0.4,0.2-0.8,0.4-1.2,0.5c-0.3,0.1-0.7,0-1,0c-0.1,0-0.1,0-0.2,0.1c0.1,0.1,0.1,0.1,0.1,0.2
			c0.5,0.2,0.7,0.7,1,1c0.3,0.3,0.5,0.7,0.6,1.2c0.1,0.3,0.2,0.7,0.2,1c0,0.1-0.1,0.1-0.2,0.1c-0.5-0.2-1-0.3-1.4-0.5
			c-0.5-0.2-0.9-0.3-1.4-0.5c-0.5-0.2-1.1-0.4-1.6-0.6c-0.7-0.3-1.4-0.6-2.1-1c-0.5-0.3-1-0.6-1.5-0.9c-0.5-0.3-1.1-0.7-1.6-1
			c-0.4-0.3-0.8-0.7-1.3-1c-0.5-0.3-0.9-0.7-1.3-1.1c-0.6-0.5-1.2-1-1.6-1.7c-0.1-0.2-0.3-0.3-0.4-0.4c-0.2-0.3-0.5-0.5-0.7-0.8
			c-0.2-0.3-0.5-0.5-0.6-0.8c-0.1-0.2-0.3-0.4-0.5-0.6c-0.1-0.1,0-0.1,0-0.2c0.1,0,0.1,0,0.2,0c0.6,0.5,1.4,0.9,2.1,1.2
			c0.6,0.3,1.3,0.6,2.1,0.7c0.5,0.1,1,0.2,1.5,0.3c0.3,0.1,0.6,0,0.8,0.1c0.3,0.1,0.6,0.1,0.8,0.1c0.7,0.2,1.4,0.1,2.1,0.1
			c0.3,0,0.6,0.1,0.9-0.1c0.2-0.1,0.5,0.1,0.8-0.1c0.6,0,1.2-0.2,1.8-0.5c0.8-0.3,1.7-0.7,2.3-1.3c0.1-0.1,0.2-0.1,0.3-0.2
			c0.1-0.1,0.1-0.2,0.2,0.1C30,13.4,30,13.5,30,13.7z"/>
		<path class="st7" d="M14,10.8c0.1-0.9,0.5-1.5,1.1-2.1c0.2-0.1,0.4-0.2,0.6-0.3c0.2-0.2,0.5-0.1,0.6-0.2c0.2-0.1,0.5,0.1,0.5,0.5
			c0.1,0.5-0.1,1-0.3,1.4c-0.3,0.4-0.7,0.9-1.3,1.1c-0.3,0.1-0.7,0.2-1,0.2c-0.1,0-0.1-0.1-0.1-0.1C14,11.1,14,10.9,14,10.8z"/>
		<path class="st7" d="M12.8,12.9c-0.1,0.7-0.5,1.3-1,1.7c-0.3,0.2-0.7,0.4-1.1,0.5c-0.3,0.1-0.6-0.1-1-0.1c0,0-0.1-0.1-0.1-0.1
			c0-0.2,0-0.5,0.1-0.7c0.3-0.6,1-1.3,1.6-1.7c0.3-0.2,0.7-0.1,1-0.3c0.1-0.1,0.3,0,0.4,0.1C12.7,12.6,12.7,12.8,12.8,12.9z"/>
		<path class="st7" d="M12,11.2c-0.5,0.1-1-0.2-1.3-0.6c-0.3-0.3-0.6-0.6-0.8-0.9c-0.3-0.5-0.3-1-0.3-1.5c0-0.1,0.1-0.1,0.2-0.1
			c0.5,0,0.9,0.2,1.3,0.4c0.5,0.3,0.9,0.7,1.2,1.2c0.3,0.4,0.3,0.9,0.3,1.3c0,0.1-0.1,0.1-0.1,0.1C12.3,11.2,12.1,11.2,12,11.2z"/>
		<path class="st7" d="M9.4,24.6c0-0.1,0-0.2,0-0.3c0-0.3,0-0.7,0.1-1c0.4,0,0.8,0,1.1,0c0.2,0,0.5,0.3,0.5,0.5
			c0.1,0.3-0.1,0.6-0.3,0.9c-0.1,0.1-0.1,0.2,0,0.2c0.1,0.3,0.2,0.6,0.6,0.6c0.1,0,0.1,0.1,0.1,0.2c-0.1,0.1-0.1,0.2-0.2,0.3
			S11,26.1,10.9,26c-0.2-0.1-0.2-0.3-0.3-0.5c-0.1-0.1-0.2-0.3-0.2-0.4c-0.1-0.2-0.3-0.2-0.5-0.2c-0.1,0-0.1,0.1-0.1,0.1
			c0,0.2,0,0.5,0,0.7c0,0.1-0.1,0.2-0.2,0.2c-0.2,0-0.2-0.1-0.2-0.2C9.4,25.3,9.4,24.9,9.4,24.6z M9.8,24c0,0.1,0,0.2,0,0.3
			c0.1,0.1,0.1,0.2,0.2,0.2c0.1,0,0.1,0,0.2,0c0.4,0,0.6,0,0.5-0.5c0-0.2-0.1-0.3-0.2-0.4C10,23.4,9.8,23.5,9.8,24z"/>
		<path class="st7" d="M20.4,25c0.1,0.4-0.1,0.7-0.5,0.9c-0.6,0.3-1.2,0-1.3-0.6c-0.1-0.4,0-0.7,0.3-1c0.2-0.2,0.6-0.3,1-0.3
			C20.2,24.1,20.4,24.6,20.4,25C20.4,24.9,20.4,24.9,20.4,25z M19.9,25c0-0.1,0-0.2,0-0.3c0-0.1-0.2-0.3-0.3-0.3
			c-0.2-0.1-0.3,0-0.5,0.2c-0.2,0.3-0.2,0.6,0,0.9c0.2,0.3,0.4,0.3,0.7,0.1C20,25.3,19.9,25.1,19.9,25z"/>
		<path class="st7" d="M21.4,25.1c0.1-0.2-0.1-0.5,0.1-0.7c0,0-0.1-0.2-0.2-0.3c0-0.1-0.1-0.1-0.1-0.2l0.1-0.1
			c0.2,0.1,0.5,0.1,0.7,0c0.2-0.1,0.4-0.1,0.6,0.1c0.2,0.2,0.4,0.4,0.4,0.7c0,0.3,0,0.5,0,0.8c0,0.3,0,0.3-0.3,0.3
			c-0.2,0-0.2-0.1-0.2-0.2c0-0.3,0-0.6,0-0.9c0-0.1,0-0.2-0.1-0.3c-0.1-0.1-0.2-0.2-0.3-0.2c-0.1,0.1-0.3,0.3-0.3,0.4
			c0,0.3,0,0.7,0,1c0,0.2-0.1,0.2-0.2,0.2c-0.1,0-0.2,0-0.2-0.2C21.4,25.5,21.4,25.4,21.4,25.1z"/>
		<path class="st7" d="M15.7,23.9c0.1,0,0.2,0,0.3,0c0.1,0,0.1,0.1,0.1,0.1c0,0.2,0.1,0.3,0.1,0.5c0.1,0.2-0.2,0.6-0.5,0.7
			c-0.2,0.1-0.2,0.2-0.1,0.3c0.1,0.1,0.2,0.2,0.2,0.2c0.2,0.1,0.2,0.3,0.2,0.5c-0.1,0.2-0.2,0.3-0.5,0.4c-0.1,0-0.2,0-0.3,0
			c-0.1,0-0.1-0.1-0.1-0.1c0-0.1-0.1-0.2,0.1-0.2c0.1,0,0.1,0,0.2,0c0.2-0.1,0.2-0.2,0.1-0.4c-0.2-0.2-0.5-0.5-0.4-0.8
			c0-0.1-0.1-0.1-0.1-0.1c-0.2-0.2-0.2-0.5-0.1-0.7c0.1-0.2,0.2-0.3,0.4-0.3C15.5,23.9,15.6,23.9,15.7,23.9z M15.2,24.5
			c0,0.3,0.1,0.5,0.3,0.5c0.2,0,0.5-0.2,0.4-0.4c0-0.1-0.2-0.4-0.3-0.3c-0.1,0-0.2,0.1-0.3,0.1C15.2,24.3,15.2,24.5,15.2,24.5z"/>
		<path class="st7" d="M13.3,25c-0.1,0-0.2,0-0.3,0c-0.1,0-0.3-0.1-0.3,0.1c0,0.3,0.1,0.4,0.3,0.4s0.5,0.1,0.7-0.1
			c0.1-0.1,0.2,0.1,0.1,0.2c0,0.2-0.2,0.3-0.5,0.4c-0.6,0.1-1-0.3-1.1-1c0-0.5,0.1-0.8,0.6-1c0.4-0.2,0.9-0.1,1,0.3
			c0.1,0.2,0,0.4,0,0.6c0,0-0.1,0.1-0.1,0.1C13.6,25,13.5,25,13.3,25z M13.2,24.7c0.1,0,0.1,0,0.2,0c0.1,0,0.2,0,0.2-0.1
			s0-0.2-0.1-0.3c-0.1-0.1-0.1-0.2-0.2-0.2c-0.1-0.1-0.2-0.1-0.3,0.1c-0.1,0.1-0.3,0.2-0.2,0.4c0,0.1,0.2,0.1,0.3,0.1
			C13.1,24.7,13.1,24.7,13.2,24.7z"/>
		<path class="st7" d="M17.6,25c0,0.2,0,0.5,0,0.7c0,0.1,0,0.2-0.2,0.2c-0.1,0-0.2,0-0.2-0.2c0-0.5,0-1,0-1.4c0-0.1,0-0.2,0.2-0.2
			c0.1,0,0.2,0,0.2,0.2C17.5,24.5,17.6,24.7,17.6,25z"/>
		<path class="st7" d="M13.4,23.1c0.1,0.1,0.1,0.1,0.1,0.2c0,0.1,0,0.1-0.1,0.2c-0.1,0.1-0.1,0.3-0.3,0.3c-0.1,0-0.1-0.1-0.1-0.1
			c-0.1-0.1,0.1-0.5,0.2-0.6C13.2,23.1,13.3,23.1,13.4,23.1z"/>
		<path class="st7" d="M17.6,23.4c-0.1,0.1-0.1,0.2-0.1,0.2c-0.1,0-0.2,0.1-0.3-0.1c0-0.1,0.1-0.1,0.1-0.1
			C17.4,23.4,17.5,23.4,17.6,23.4z"/>
		<path class="st6" d="M8.4,30.3c0-0.1,0-0.2,0-0.3c0-0.1,0.1-0.2,0.2-0.2c0.1,0,0.3,0,0.4,0c0.2-0.1,0.4,0.1,0.5,0.2
			c0.1,0.2,0.2,0.6,0.2,0.7c-0.1,0.2-0.5,0.4-0.7,0.3c-0.2-0.1-0.5-0.3-0.5-0.5C8.4,30.5,8.4,30.4,8.4,30.3z"/>
		<path class="st6" d="M8.4,28.7c0-0.1,0-0.2,0-0.3c0-0.2,0-0.2,0.2-0.2c0.1,0,0.3,0,0.4,0c0.2,0,0.3,0.1,0.5,0.3
			c0.2,0.2-0.1,0.3-0.1,0.5c0.1,0.2-0.2,0.1-0.2,0.2S9,29.2,8.9,29.2C8.4,29.3,8.4,29.3,8.4,28.7z"/>
		<path class="st6" d="M11.7,28.8c0-0.6,0-0.6,0.6-0.6c0.2,0.1,0.5,0.3,0.5,0.5c0.1,0.5-0.1,0.6-0.4,0.7c-0.2,0.1-0.3,0.1-0.6-0.1
			c-0.1-0.1-0.2-0.1-0.2-0.2S11.7,29,11.7,28.8z"/>
		<path class="st6" d="M22.5,29.8c-0.1,0-0.1,0-0.2,0c-0.2,0-0.3-0.1-0.2-0.3c0.1-0.2,0.2-0.4,0.2-0.6c0-0.1,0.1-0.3,0.2-0.4
			c0.1,0.1,0.2,0.2,0.2,0.3c0.1,0.2,0.2,0.5,0.2,0.7c0.1,0.2,0,0.2-0.2,0.2C22.6,29.8,22.5,29.8,22.5,29.8z"/>
		<path class="st6" d="M9.8,24c0-0.5,0.2-0.6,0.7-0.4c0.2,0.1,0.2,0.2,0.2,0.4c0,0.5-0.1,0.6-0.5,0.5c-0.1,0-0.1,0-0.2,0
			c-0.1-0.1-0.2-0.1-0.2-0.2C9.8,24.2,9.8,24.1,9.8,24z"/>
		<path class="st6" d="M19.9,25c0,0.2,0.1,0.3-0.1,0.5c-0.3,0.2-0.5,0.2-0.7-0.1c-0.2-0.3-0.1-0.6,0-0.9c0.1-0.2,0.2-0.3,0.5-0.2
			c0.1,0,0.3,0.2,0.3,0.3C19.9,24.7,19.9,24.9,19.9,25z"/>
		<path class="st6" d="M15.2,24.5c0-0.1,0-0.2,0.1-0.2c0.1-0.1,0.2-0.1,0.3-0.1c0.1,0,0.3,0.2,0.3,0.3c0,0.2-0.2,0.4-0.4,0.4
			C15.3,25,15.2,24.8,15.2,24.5z"/>
		<path class="st6" d="M13.2,24.7c-0.1,0-0.1,0-0.1,0c-0.1,0-0.3,0-0.3-0.1c-0.1-0.2,0.1-0.3,0.2-0.4c0.1-0.1,0.2-0.1,0.3-0.1
			c0.1,0.1,0.2,0.1,0.2,0.2c0.1,0.1,0.1,0.2,0.1,0.3c0,0.1-0.1,0.1-0.2,0.1S13.2,24.7,13.2,24.7z"/>
	</g>
</g>
<polygon class="st8" points="7.8,32.3 7.9,32.4 8,32.4 8,32.4 8,32.4 7.9,32.3 7.8,32.3 "/>
<polyline class="st8" points="8.3,32.7 8.4,32.7 8.4,32.8 8.5,32.8 8.6,32.8 7.6,32.8 7.6,32.1 "/>
<polygon class="st8" points="8.5,32.8 8.6,32.8 8.5,32.8 8.4,32.8 8.4,32.7 8.3,32.7 8.3,32.7 8.3,32.7 8.3,32.7 8.4,32.7 8.4,32.7 
	8.4,32.7 8.5,32.7 8.5,32.8 8.5,32.8 "/>
<circle class="st9" cx="21.1" cy="21" r="19.1"/>
</svg>
