<?xml version="1.0" encoding="utf-8"?>
<!-- Generator: Adobe Illustrator 23.0.3, SVG Export Plug-In . SVG Version: 6.00 Build 0)  -->
<svg version="1.2" baseProfile="tiny" id="Calque_1"
	 xmlns="http://www.w3.org/2000/svg" xmlns:xlink="http://www.w3.org/1999/xlink" x="0px" y="0px" viewBox="0 0 88.1 84.1"
	 xml:space="preserve">
<g>
	<g>
		<path fill="#E1081B" d="M43.8,32.5c4,0,8.1,0,12.1,0c0,0,0.1,0,0.1,0c0.2,0,0.2-0.1,0.2-0.2c0-0.1,0-0.2,0-0.2
			c0-6.9,0-13.8,0-20.7c0,0,0-0.1,0-0.1c0-0.2,0.1-0.2,0.3-0.2c0,0,0,0,0,0c0.2,0.1,0.5,0.2,0.7,0.3c0.2,0.1,0.4,0.2,0.5,0.3
			c0.4,0.2,0.8,0.4,1.2,0.5c0.2,0.1,0.3,0.2,0.5,0.3c0.3,0.2,0.6,0.3,0.8,0.5c0.3,0.2,0.6,0.4,0.9,0.6c0.1,0.1,0.2,0.1,0.4,0.2
			c0.3,0.2,0.6,0.4,0.9,0.5c0.2,0.1,0.3,0.2,0.5,0.4c0.1,0.1,0.2,0.2,0.4,0.3c0.4,0.3,0.8,0.5,1.1,0.8c0.3,0.2,0.6,0.5,0.9,0.8
			c0.3,0.3,0.6,0.5,0.9,0.8c0.1,0.1,0.1,0.1,0.2,0.2c0.4,0.4,0.9,0.8,1.3,1.2c0.5,0.5,1,1,1.5,1.6c0.3,0.3,0.5,0.6,0.8,1
			c0.2,0.3,0.4,0.5,0.6,0.8c0.3,0.4,0.5,0.7,0.8,1.1c0.2,0.3,0.4,0.6,0.6,0.8c0.2,0.3,0.4,0.6,0.6,0.9c0.2,0.3,0.4,0.6,0.6,1
			c0.1,0.1,0.1,0.3,0.2,0.4c0.1,0.2,0.2,0.4,0.3,0.7c0.1,0.2,0.2,0.4,0.4,0.6c0.1,0.2,0.2,0.4,0.2,0.6c0.1,0.2,0.2,0.5,0.3,0.7
			c0.1,0.3,0.2,0.5,0.4,0.8c0.1,0.3,0.2,0.6,0.3,0.9c0.1,0.3,0.2,0.6,0.3,0.9c0,0.1,0.1,0.2,0.1,0.3c0,0.1,0.1,0.3,0.1,0.4
			c0,0.1,0.1,0.3,0.1,0.4c0,0.1,0.1,0.2,0.1,0.3c0,0.1,0.1,0.3,0.1,0.4c0,0.2,0.1,0.3,0.1,0.5c0,0,0,0.1,0,0.1
			c0.1,0.4,0.2,0.7,0.3,1.1c0.1,0.3,0.1,0.6,0.2,0.9c0,0.1,0,0.2,0,0.3c0.1,0.3,0.1,0.6,0.2,0.9c0,0.3,0.1,0.5,0.1,0.8
			c0,0.3,0.1,0.5,0.1,0.8c0,0.3,0.1,0.5,0.1,0.8c0,0.6,0,1.2,0,1.7c0,0.4,0.1,0.8,0,1.2c0,0.5,0,1-0.1,1.6c0,0.4,0,0.9-0.1,1.3
			c0,0.1,0,0.3,0,0.4c0,0.4-0.1,0.8-0.2,1.2c0,0.3,0,0.7-0.2,1c0,0.1-0.1,0.2-0.1,0.3c0,0.3-0.1,0.5-0.1,0.7
			c-0.1,0.2-0.1,0.5-0.2,0.8c-0.2,0.4-0.2,0.9-0.4,1.4c0,0,0,0.1,0,0.1c0,0.2-0.1,0.4-0.2,0.6c0,0.1-0.1,0.2-0.1,0.3
			c0,0,0,0.1,0,0.1c-0.1,0.3-0.2,0.6-0.3,0.9c0,0.1-0.1,0.2-0.1,0.3c0,0.1-0.1,0.2-0.1,0.3c0,0,0,0.1-0.1,0.1
			c-0.1,0.3-0.2,0.6-0.3,0.9c0,0.1-0.1,0.1-0.1,0.2c0,0-0.1,0.1-0.1,0.1c-0.1,0.2-0.2,0.5-0.3,0.7c-0.1,0.2-0.2,0.5-0.4,0.7
			c-0.1,0.2-0.2,0.3-0.2,0.5c-0.1,0.2-0.2,0.5-0.3,0.7c-0.1,0.2-0.2,0.4-0.3,0.6c-0.1,0.2-0.2,0.4-0.3,0.5c-0.2,0.3-0.4,0.7-0.6,1
			c-0.1,0.1-0.2,0.3-0.3,0.4c-0.2,0.3-0.3,0.6-0.5,0.8c-0.2,0.3-0.4,0.5-0.6,0.8c-0.1,0.1-0.2,0.3-0.3,0.4c-0.3,0.3-0.5,0.6-0.8,1
			c-0.1,0.1-0.2,0.3-0.3,0.4c-0.2,0.3-0.5,0.5-0.7,0.8c-0.3,0.4-0.7,0.8-1.1,1.1c-0.5,0.5-1,0.9-1.5,1.4c-0.5,0.4-1,0.8-1.5,1.2
			c-0.2,0.2-0.4,0.3-0.6,0.5c-0.3,0.2-0.5,0.4-0.8,0.6c-0.3,0.2-0.6,0.4-0.9,0.6c-0.3,0.2-0.6,0.4-0.9,0.6c-0.3,0.2-0.6,0.4-1,0.6
			c-0.2,0.1-0.4,0.2-0.5,0.3c-0.2,0.1-0.4,0.2-0.6,0.4c-0.2,0.1-0.4,0.2-0.6,0.3c-0.3,0.1-0.5,0.3-0.8,0.4c-0.3,0.1-0.5,0.3-0.8,0.3
			c0,0,0,0,0,0c-0.2,0.2-0.5,0.2-0.7,0.3c0,0,0,0,0,0c-0.3,0.1-0.6,0.2-0.9,0.3c-0.2,0.1-0.3,0.1-0.5,0.2c-0.4,0.1-0.7,0.3-1.1,0.4
			c0,0,0,0-0.1,0c-0.3,0.1-0.6,0.2-1,0.3c-0.1,0-0.3,0.1-0.4,0.1c-0.2,0-0.4,0.1-0.5,0.1c-0.2,0.1-0.5,0.1-0.7,0.2
			c-0.2,0.1-0.5,0.1-0.7,0.2c-0.1,0-0.3,0.1-0.4,0.1c-0.3,0-0.5,0.1-0.8,0.2C49.3,75,49,75,48.7,75.1c-0.2,0-0.3,0-0.5,0.1
			c-0.5,0.1-1,0.1-1.5,0.1c-0.2,0-0.3,0-0.5,0c-0.2,0-0.3,0-0.5,0c-0.2,0-0.3,0-0.5,0.1c-0.1,0-0.1,0-0.2,0c-0.7,0-1.4,0-2.1,0
			c-0.1,0-0.2,0-0.3-0.1c-0.1,0-0.2,0-0.2,0c-0.5,0-0.9,0-1.4-0.1c-0.4,0-0.7,0-1.1-0.1c-0.3,0-0.6-0.1-0.8-0.1
			c-0.3,0-0.6-0.1-1-0.1c-0.3-0.1-0.7-0.1-1-0.2c-0.3-0.1-0.6-0.1-1-0.2c-0.2,0-0.4-0.1-0.6-0.2c-0.3-0.1-0.6-0.2-1-0.3
			c-0.1,0-0.2-0.1-0.2-0.2c0-0.1,0-0.1,0-0.2c0-6.2,0-12.3,0-18.5c0-0.3,0.1-0.4,0.4-0.4c6.8,0,13.6,0,20.4,0c0.2,0,0.4,0,0.6,0
			c0.2,0,0.2,0,0.3-0.2c0,0,0-0.1,0-0.1c0-0.8,0-1.7,0-2.5c0-0.1,0-0.1,0-0.2c0-0.1-0.1-0.2-0.2-0.2c-0.1,0-0.2,0-0.3,0
			c-8,0-15.9,0-23.9,0c-0.1,0-0.2,0-0.3,0.1c-0.1,0.1-0.1,0.2-0.1,0.3c0,0.1,0,0.3,0,0.4c0,6.7,0,13.4,0,20.1c0,0.1,0,0.1,0,0.2
			c0,0.1-0.1,0.2-0.2,0.2c-0.1,0-0.2,0-0.4-0.1c-0.1-0.1-0.3-0.1-0.4-0.2c-0.2-0.1-0.4-0.2-0.6-0.3c-0.1-0.1-0.2-0.1-0.3-0.2
			c-0.2-0.1-0.4-0.2-0.7-0.4c-0.2-0.1-0.4-0.2-0.6-0.3c-0.1-0.1-0.3-0.1-0.4-0.2c-0.2-0.1-0.3-0.2-0.5-0.3c-0.2-0.1-0.4-0.2-0.5-0.3
			c-0.4-0.2-0.8-0.5-1.2-0.8c-0.4-0.3-0.7-0.5-1.1-0.8c-0.5-0.4-1-0.7-1.5-1.2c-0.4-0.3-0.8-0.7-1.2-1c-0.7-0.5-1.2-1.1-1.8-1.7
			c-0.3-0.3-0.6-0.7-0.9-1c-0.1-0.2-0.3-0.3-0.4-0.5c-0.2-0.3-0.4-0.5-0.7-0.8c-0.2-0.3-0.4-0.5-0.6-0.8c-0.3-0.4-0.5-0.7-0.7-1.1
			c-0.2-0.3-0.4-0.6-0.6-0.9c-0.1-0.2-0.2-0.3-0.3-0.5c-0.1-0.2-0.3-0.5-0.4-0.7c-0.1-0.2-0.2-0.4-0.3-0.6c-0.1-0.2-0.2-0.4-0.3-0.6
			c-0.1-0.1-0.2-0.3-0.2-0.4c-0.1-0.2-0.2-0.4-0.3-0.6c-0.1-0.3-0.3-0.6-0.4-0.9c0,0,0,0,0,0c-0.1-0.3-0.2-0.5-0.3-0.8
			c-0.1-0.3-0.2-0.5-0.3-0.7c0-0.1-0.1-0.2-0.1-0.3c0-0.1-0.1-0.2-0.1-0.3c0,0,0,0,0,0c-0.1-0.3-0.2-0.6-0.3-0.9
			c0-0.1-0.1-0.2-0.1-0.3c0-0.1-0.1-0.3-0.1-0.4c0-0.1,0-0.2-0.1-0.2c-0.1-0.2-0.2-0.5-0.2-0.7c0-0.1-0.1-0.2-0.1-0.4
			c-0.1-0.5-0.3-0.9-0.3-1.4c0,0,0-0.1,0-0.1c-0.1-0.3-0.2-0.7-0.2-1c0-0.1,0-0.1,0-0.2c0-0.2-0.1-0.5-0.1-0.7c0-0.3-0.1-0.7-0.1-1
			c-0.1-0.2,0-0.4-0.1-0.6c0-0.4-0.1-0.8-0.1-1.1c0-0.4-0.1-0.8-0.1-1.1c0-0.8,0-1.6,0-2.4c0,0,0-0.1,0-0.1c0-0.2,0.1-0.5,0.1-0.7
			c0-0.4,0.1-0.8,0.1-1.2c0-0.2,0-0.5,0.1-0.7c0,0,0-0.1,0-0.1c0.1-0.2,0.1-0.4,0.1-0.6c0-0.4,0.1-0.7,0.2-1.1
			c0-0.2,0.1-0.5,0.1-0.7c0.1-0.5,0.3-1,0.4-1.5c0.1-0.3,0.2-0.6,0.3-0.9c0.1-0.4,0.2-0.7,0.3-1.1c0.1-0.2,0.2-0.4,0.2-0.7
			c0.1-0.4,0.3-0.8,0.4-1.2c0.1-0.3,0.2-0.6,0.4-0.8c0-0.1,0-0.1,0.1-0.2c0,0,0-0.1,0-0.1c0.1-0.2,0.2-0.5,0.3-0.7c0,0,0,0,0,0
			c0.1-0.2,0.2-0.4,0.3-0.6c0.1-0.1,0.1-0.2,0.2-0.4c0.1-0.2,0.2-0.4,0.3-0.6c0-0.1,0.1-0.2,0.1-0.3c0,0,0,0,0-0.1
			c0-0.2,0.2-0.4,0.3-0.6c0.1-0.2,0.2-0.3,0.3-0.5c0.1-0.2,0.2-0.3,0.3-0.5c0.2-0.3,0.4-0.6,0.5-0.9c0.2-0.3,0.4-0.5,0.6-0.8
			c0.1-0.1,0.2-0.3,0.3-0.4c0.2-0.3,0.4-0.6,0.6-0.9c0.3-0.3,0.5-0.7,0.8-1c0.2-0.2,0.4-0.4,0.6-0.6c0.2-0.3,0.4-0.5,0.7-0.8
			c0.3-0.3,0.5-0.5,0.8-0.8c0.2-0.2,0.4-0.4,0.6-0.6c0.2-0.2,0.5-0.4,0.7-0.6c0.2-0.2,0.4-0.4,0.6-0.6c0.2-0.2,0.4-0.3,0.6-0.5
			c0.4-0.3,0.7-0.6,1.1-0.8c0.3-0.2,0.5-0.4,0.8-0.6c0.3-0.2,0.5-0.4,0.8-0.5c0.3-0.2,0.6-0.4,0.9-0.6c0.2-0.1,0.3-0.2,0.5-0.3
			c0.2-0.1,0.4-0.2,0.6-0.4c0.2-0.1,0.3-0.2,0.5-0.3c0.1-0.1,0.2-0.1,0.4-0.2c0,0,0.1,0,0.1,0c0.3-0.2,0.6-0.3,0.8-0.4
			c0.4-0.2,0.8-0.4,1.2-0.5c0.2-0.1,0.5-0.3,0.8-0.3c0.1,0,0.1,0,0.2-0.1c0,0,0.1-0.1,0.1-0.1c0.3-0.1,0.5-0.2,0.8-0.3c0,0,0,0,0,0
			c0.3-0.1,0.7-0.3,1-0.4c0,0,0.1,0,0.1,0c0.2,0,0.4-0.1,0.5-0.2c0.1,0,0.1,0,0.2-0.1c0.1,0,0.3-0.1,0.4-0.1c0,0,0.1,0,0.1,0
			c0.3-0.1,0.7-0.2,1-0.3c0.3-0.1,0.6-0.2,0.9-0.2c0.2,0,0.4-0.1,0.6-0.1c0.4-0.1,0.9-0.1,1.3-0.2c0.4-0.1,0.8-0.1,1.2-0.2
			c0.2,0,0.4-0.1,0.5-0.1c0.2,0,0.4-0.1,0.6-0.1c0.5,0,1,0,1.5-0.1c0.1,0,0.1,0,0.2,0c0.2-0.1,0.5-0.1,0.7-0.1c0.6,0,1.1,0,1.7,0
			c0.3,0,0.5,0,0.8,0.1c0,0,0.1,0,0.1,0c0.4,0,0.8,0,1.2,0c0.3,0,0.6,0.1,0.9,0.1c0.4,0,0.9,0.1,1.3,0.1c0,0,0.1,0,0.1,0
			c0.4,0.2,0.8,0.1,1.2,0.2c0.3,0.1,0.5,0.1,0.8,0.2c0.4,0.1,0.9,0.3,1.3,0.3c0.1,0,0.3,0.1,0.4,0.2C53,9.9,53,10,53,10
			c0,0.1,0,0.1,0,0.2c0,6.2,0,12.4,0,18.6c0,0.4,0,0.4-0.4,0.4c-7,0-13.9,0-20.9,0c-0.3,0-0.4,0.1-0.4,0.4c0,0.8,0,1.6,0,2.5
			c0,0.1,0,0.1,0,0.2c0,0.1,0.1,0.2,0.3,0.2c0.1,0,0.1,0,0.2,0C35.8,32.5,39.8,32.5,43.8,32.5z"/>
	</g>
</g>
</svg>
