<?xml version="1.0" encoding="utf-8"?>
<!-- Generator: Adobe Illustrator 23.0.3, SVG Export Plug-In . SVG Version: 6.00 Build 0)  -->
<svg version="1.2" baseProfile="tiny" id="Calque_1"
	 xmlns="http://www.w3.org/2000/svg" xmlns:xlink="http://www.w3.org/1999/xlink" x="0px" y="0px" viewBox="0 0 88.1 84.1"
	 xml:space="preserve">
<circle fill="#FFFFFF" stroke="#020203" stroke-miterlimit="10" cx="43.8" cy="41.6" r="34.1"/>
<g>
	<g>
		<path fill="#5EBAEA" d="M23.7,43.4c-0.1,0-0.2,0-0.3,0c-1.3-0.2-2.1,0-2.6,1.6c-0.6,1.8-2.8,2.8-4.6,2.5s-3.4-1.9-3.6-3.5
			c-0.3-2.6,0.9-4.2,2.6-4.8c2.4-0.9,5,0.1,5.8,2.6c0.2,0.7,0.5,0.9,1.2,0.9c1,0,2,0,3,0c0.3,0,0.9-0.3,0.9,0.5
			c0,0.7-0.6,0.4-0.9,0.4C24.7,43.4,24.2,43.4,23.7,43.4z M16.9,39.6c-2,0-3.5,1.5-3.5,3.5s1.6,3.6,3.6,3.6c1.9,0,3.6-1.7,3.6-3.5
			C20.5,41.1,18.9,39.5,16.9,39.6z"/>
		<path fill="#8DBF22" d="M20.2,55.4c-1.7,0-3.2-1-3.8-2.5c-0.6-1.6-0.2-3.4,1-4.5c1.3-1.2,3.1-1.5,4.6-0.7c0.8,0.4,1.1,0.3,1.7-0.3
			c0.8-0.9,1.7-1.7,2.6-2.6c0.2-0.2,0.4-0.4,0.7-0.1c0.4,0.3,0,0.5-0.1,0.6c-0.9,0.9-1.8,1.8-2.7,2.7c-0.5,0.4-0.6,0.7-0.2,1.4
			C25.3,52.2,23.3,55.4,20.2,55.4z M20.3,54.6c1.8,0,3.3-1.4,3.3-3.3c0-1.8-1.4-3.3-3.3-3.3c-1.8,0-3.3,1.4-3.3,3.3
			C17,53.2,18.4,54.6,20.3,54.6z"/>
		<path fill="#1B1B1B" d="M48.8,43.6c0.3-2,0.6-4.1,0.9-6.1c0.1-0.5,0.4-0.5,0.8-0.5c0.5,0,0.5,0.2,0.5,0.6c0.1,2.6,0.2,5.2,0.3,7.8
			c0,0.2,0.2,0.6-0.3,0.6c-0.4,0-0.2-0.3-0.2-0.6c-0.1-2.3-0.2-4.5-0.2-6.8c0-0.2,0-0.4,0-0.6c0-0.1,0.1-0.3-0.1-0.3
			c-0.2,0-0.2,0.2-0.2,0.3c-0.2,1.4-0.4,2.7-0.6,4.1c-0.2,1-0.3,2-0.5,3c0,0.3,0,0.7-0.4,0.7s-0.4-0.4-0.4-0.7
			c-0.4-2.3-0.7-4.5-1-6.8c0-0.2,0-0.3-0.1-0.5c0-0.1-0.1-0.1-0.1-0.1c-0.2-0.1-0.1,0.1-0.1,0.2c0,0.2,0,0.4,0,0.6
			c-0.1,2.3-0.2,4.6-0.2,6.9c0,0.1,0,0.2,0,0.3c0,0.2-0.1,0.3-0.3,0.3s-0.3-0.1-0.3-0.3c0-0.6,0.1-1.1,0.1-1.7
			c0.1-2.1,0.2-4.2,0.2-6.3c0-0.3,0-0.7,0.5-0.6c0.4,0,0.7,0,0.8,0.5c0.3,2,0.6,4.1,0.8,6.1c0,0.1,0,0.2,0,0.3c0,0.2,0,0.4,0.2,0.3
			c0.1,0,0.1-0.2,0.1-0.3C48.8,43.8,48.8,43.7,48.8,43.6z"/>
		<path fill="#E41681" d="M24.4,35.4c0,0.6-0.1,1.1-0.4,1.5c-0.3,0.5-0.2,0.8,0.2,1.1c0.9,0.8,1.7,1.7,2.6,2.6
			c0.2,0.2,0.5,0.3,0.2,0.6s-0.5,0.2-0.7,0c-0.8-0.8-1.6-1.6-2.4-2.4c-0.5-0.5-0.8-0.6-1.4-0.3c-1.5,0.7-3.3,0.1-4.2-1.4
			c-0.9-1.5-0.4-3.4,1-4.4c1.4-1,3.3-0.7,4.4,0.5C24.1,33.9,24.3,34.6,24.4,35.4z M23.5,35.4c0-1.4-1.1-2.5-2.5-2.5
			s-2.5,1.2-2.5,2.5s1.2,2.5,2.5,2.5C22.4,38,23.5,36.8,23.5,35.4z"/>
		<path fill="#892D87" d="M28.1,38.1c0-0.7,0-1.3,0-2c0-0.3-0.1-0.5-0.5-0.5c-0.3,0-0.7-0.1-1-0.2c-2-0.7-3.2-2.8-2.6-4.8
			c0.5-2,2.6-3.3,4.6-3c0.1,0,0.2,0.1,0.3,0.1c0.5,0,0.6,0.4,0.5,0.8s-0.4,0.1-0.7,0c-1.5-0.3-3.1,0.4-3.7,1.8c-0.7,1.4-0.2,3,1,4
			c0.8,0.6,1.8,0.8,2.8,0.5c0.2,0,0.4-0.2,0.5,0s0.2,0.5-0.1,0.6c-0.5,0.3-0.3,0.7-0.4,1.1c0,1.2,0,2.4,0,3.6c0,0.3,0.1,0.6-0.4,0.6
			S28,40.4,28,40.1C28.1,39.3,28.1,38.7,28.1,38.1L28.1,38.1z"/>
		<path fill="#F07F1F" d="M28,47.7c0-0.6,0-1.3,0-1.9c0-0.3,0-0.5,0.4-0.5s0.4,0.2,0.4,0.5c0,1.2,0,2.4,0,3.6c0,0.4-0.2,0.8,0.4,1
			c0.2,0,0.2,0.3,0.1,0.5c-0.1,0.3-0.3,0.2-0.5,0.2c-0.5-0.1-1.1-0.1-1.6,0.2c-1.2,0.6-1.9,1.9-1.5,3.2c0.3,1.3,1.6,2,3.1,1.9
			c0.2,0,0.5-0.3,0.5,0.1c0.1,0.3,0,0.6-0.4,0.7c-0.1,0-0.3,0-0.4,0c-1.4,0.1-2.9-0.8-3.4-2.2c-0.5-1.3-0.2-2.9,0.9-3.9
			c0.4-0.3,0.7-0.6,1.2-0.7c0.6-0.1,0.8-0.4,0.8-1C27.9,48.9,28,48.3,28,47.7z"/>
		<path fill="#1B1B1B" d="M41.2,31.4c0-1.3,0-2.6,0-3.8c0-0.5,0.1-0.6,0.6-0.6c0.4,0,0.9,0,1.3,0c0.7,0,1.2,0.4,1.3,1.1
			c0.1,1,0.4,2.1-0.5,3c-0.2,0.2-0.1,0.3,0.1,0.5c0.4,0.4,0.5,0.8,0.5,1.4c0,0.9,0,1.8,0,2.7c0,0.2,0,0.4-0.2,0.3
			c-0.2,0-0.2-0.2-0.2-0.4c0-0.9,0-1.8,0-2.7c0-0.6-0.2-1-0.7-1.2c-0.9-0.4-1.5-0.1-1.5,0.9c0,1,0,2,0,2.9c0,0.2,0.1,0.5-0.3,0.5
			c-0.4,0-0.3-0.3-0.3-0.5C41.2,34.1,41.2,32.7,41.2,31.4z M41.7,29.2c0,0.3,0,0.5,0,0.8c0,1,0.2,1.1,1.1,1c0.5-0.1,0.8-0.4,0.9-0.9
			c0-0.5,0-0.9,0-1.4c0-0.9-0.2-1.1-1.3-1.1c-0.8,0-0.8,0-0.8,1.1C41.7,28.8,41.7,29,41.7,29.2z"/>
		<path fill="#1B1B1B" d="M53.1,32.7c0-0.6,0-1.1,0-1.7c0.1-0.9,0.7-1.5,1.6-1.5c0.8,0,1.4,0.6,1.5,1.5c0.1,1.5,0.1,1.4-1.4,1.5
			c-1.3,0-1.1-0.2-1.1,1.1c0,0.3,0,0.7,0,1c0,0.6,0.4,0.8,0.9,0.9c0.5,0,0.9-0.3,1-0.8v-0.1c0.1-0.3-0.2-0.8,0.3-0.8
			s0.3,0.6,0.2,0.9c0,0.8-0.6,1.3-1.5,1.3c-0.8,0-1.4-0.4-1.5-1.3C53.1,34.1,53.1,33.4,53.1,32.7L53.1,32.7z M54.6,31.9
			c0.3-0.1,1,0.3,1-0.6c-0.1-0.8-0.3-1.2-1-1.2c-0.6,0-0.9,0.4-1,1.1C53.5,32.1,54.1,31.9,54.6,31.9z"/>
		<path fill="#1B1B1B" d="M35.4,32.8c0-0.6,0-1.2,0-1.8c0-0.9,0.6-1.4,1.4-1.4s1.4,0.4,1.6,1.3c0,0.1,0,0.3,0,0.4
			c0.1,1.3,0.1,1.3-1.2,1.3c-1.3,0-1.3,0-1.3,1.3c0,0.3,0,0.5,0,0.8c0.1,0.6,0.5,0.9,1,0.9c0.5-0.1,0.8-0.3,0.9-0.9
			c0-0.3-0.2-0.9,0.2-0.8c0.5,0.1,0.3,0.7,0.2,1c-0.1,0.8-0.7,1.3-1.6,1.2c-0.9,0-1.3-0.5-1.4-1.4C35.4,34,35.4,33.4,35.4,32.8z
			 M36.9,31.9c0.3-0.2,1.1,0.4,1-0.6c0-0.8-0.3-1.2-1-1.2c-0.7,0-1,0.4-1,1.2C35.9,32.2,36.5,31.8,36.9,31.9z"/>
		<path fill="#1B1B1B" d="M36.5,42.8c0-0.6,0-1.2,0-1.8c0.1-0.9,0.6-1.4,1.5-1.4s1.4,0.5,1.5,1.4c0.2,1.5,0.1,1.5-1.3,1.5
			c-0.2,0-0.4,0-0.6,0c-0.4,0-0.6,0.1-0.6,0.5c0,0.5,0,1.1,0,1.6s0.4,0.8,0.9,0.8c0.6,0,0.9-0.3,1-0.8v-0.1c0.1-0.3-0.2-0.8,0.3-0.8
			s0.3,0.6,0.2,0.9c0,0.9-0.6,1.4-1.4,1.4s-1.5-0.5-1.5-1.4C36.5,44,36.5,43.4,36.5,42.8L36.5,42.8z M38,41.9c0.4-0.1,1,0.3,1-0.6
			c0-0.8-0.3-1.2-1-1.2c-0.6,0-0.9,0.4-1,1.2C37,42.2,37.6,41.8,38,41.9z"/>
		<path fill="#1B1B1B" d="M45.4,32.8c0-0.6,0-1.2,0-1.8c0-0.8,0.6-1.3,1.3-1.4c0.8-0.1,1.4,0.3,1.6,1.1c0.2,0.5,0.1,1,0.1,1.5
			c0,0.3-0.1,0.4-0.4,0.4c-0.3,0-0.6,0-0.9,0c-1.3,0-1.3,0-1.2,1.3c0,0.2,0,0.5,0,0.7c0.1,0.7,0.5,1,1,1c0.6,0,0.9-0.4,0.9-1
			c0-0.1,0-0.2,0-0.3c0-0.2,0-0.4,0.2-0.5c0.4,0,0.3,0.3,0.3,0.5c0.1,1-0.5,1.8-1.5,1.8s-1.5-0.5-1.6-1.6
			C45.4,33.8,45.4,33.3,45.4,32.8L45.4,32.8z M46.8,31.9c1,0,1,0,1.1-0.6c0-0.8-0.3-1.2-1-1.2c-0.6,0-1,0.4-1,1.2
			C45.8,32.2,46.5,31.8,46.8,31.9z"/>
		<path fill="#1B1B1B" d="M52.3,51.5c0,0.9,0,0.9-0.8,0.9c-0.5,0-1.3-0.3-1.5,0.1c-0.4,0.7-0.2,1.5-0.1,2.3c0.1,0.3,0.3,0.5,0.6,0.6
			c0.7,0.1,1.1-0.2,1.2-0.9c0-0.2,0-0.3,0-0.5s0.1-0.3,0.3-0.3s0.2,0.1,0.2,0.3c0.2,0.9-0.4,1.9-1.3,2c-1,0.1-1.7-0.5-1.7-1.6
			c0-1,0-2.1,0-3.1c0-1.1,0.5-1.8,1.5-1.8s1.5,0.6,1.5,1.7C52.3,51.3,52.3,51.4,52.3,51.5z M50.7,51.9c1,0,1,0,1-0.6
			c0-0.9-0.3-1.2-1-1.2s-1,0.4-1,1.2C49.7,52.1,50.3,51.8,50.7,51.9z"/>
		<path fill="#1B1B1B" d="M38.4,52.8c0,0.6,0,1.1,0,1.7c-0.1,0.9-0.7,1.5-1.6,1.5c-0.8,0-1.4-0.6-1.4-1.5c0-1.2,0-2.4,0-3.5
			c0-0.9,0.6-1.4,1.5-1.5c0.9,0,1.4,0.5,1.5,1.4c0,0.1,0,0.1,0,0.2C38.4,51.7,38.4,52.2,38.4,52.8L38.4,52.8z M35.9,52.7
			c0,0.6,0,1.1,0,1.7c0,0.7,0.4,1,1,0.9c0.6,0,0.9-0.3,0.9-0.9c0-1.1,0-2.3,0-3.4c0-0.6-0.3-0.9-0.9-0.9c-0.6,0-1,0.3-1,1
			C35.9,51.6,35.9,52.2,35.9,52.7z"/>
		<path fill="#1B1B1B" d="M35.3,41.6c0,1.2,0,2.5,0,3.7c0,0.2,0.1,0.4-0.2,0.5c-0.3,0.1-0.3-0.1-0.3-0.3c-0.1-0.3-0.2-0.1-0.3,0
			c-1.7,0.9-2.1,0.6-2.2-1.4c0-0.9,0-1.9,0-2.8c0-1.4,0.7-2,2.1-1.7c0.4,0.1,0.5,0,0.4-0.3c0-0.4,0-0.9,0-1.3c0-0.2-0.2-0.6,0.3-0.6
			c0.3,0,0.2,0.4,0.2,0.6C35.3,39.2,35.3,40.4,35.3,41.6z M32.9,42.9c0,0.6,0,1.3,0,1.9c0,0.3,0.1,0.6,0.5,0.6
			c0.5,0.1,1.5-0.8,1.5-1.3c0-1,0-2.1,0-3.1c0-0.6-0.5-1-1-1S33,40.4,33,41C32.9,41.6,32.9,42.3,32.9,42.9z"/>
		<path fill="#1B1B1B" d="M68.3,42.8c0-0.8,0-1.7,0-2.5c0-0.2-0.1-0.5,0.2-0.6s0.3,0.2,0.3,0.4s0.2,0.1,0.3,0.1
			c0.2-0.1,0.4-0.3,0.6-0.4c0.8-0.4,1.5,0,1.6,0.9c0,1.6,0,3.2,0,4.9c0,0.2,0,0.5-0.3,0.4c-0.3-0.1-0.2-0.3-0.2-0.5
			c0-1.4,0-2.8,0-4.1c0-0.4,0.2-1-0.5-1.1c-0.5-0.1-1.5,0.7-1.5,1.3c0,1.1,0,2.3,0,3.4c0,0.2,0,0.4,0,0.6c0,0.2,0.1,0.4-0.2,0.5
			c-0.4,0-0.3-0.3-0.3-0.5c0-0.5,0-0.9,0-1.4C68.3,43.6,68.3,43.2,68.3,42.8z"/>
		<path fill="#1B1B1B" d="M64,32.8c0,0.9,0,1.8,0,2.7c0,0.2,0,0.4-0.2,0.4c-0.1,0-0.3,0-0.3-0.1c-0.1-0.8-0.5-0.3-0.8-0.1
			c-1,0.7-1.9,0-1.8-1c0.1-1.5,0-3,0-4.5c0-0.2-0.1-0.5,0.3-0.5c0.4,0,0.3,0.3,0.3,0.5c0,1.3,0,2.7,0,4c0,0.5-0.2,1.1,0.5,1.2
			c0.5,0.1,1.4-0.8,1.4-1.3c0-1.1,0-2.3,0-3.4c0-0.3-0.3-1,0.3-1c0.5,0,0.2,0.6,0.2,1C64.1,31.4,64,32.1,64,32.8z"/>
		<path fill="#1B1B1B" d="M54.3,44.3c0-0.1,0-0.3,0-0.4c0-0.2,0.1-0.3,0.3-0.3c0.1,0,0.2,0.1,0.2,0.3s0,0.4,0,0.6
			c0,0.5,0.2,0.9,0.7,1c0.4,0.1,0.8,0.1,1.1-0.3c0.3-0.5,0.3-1,0-1.4s-0.7-0.6-1.1-0.9c-0.4-0.3-0.8-0.6-1-1
			c-0.3-0.6-0.2-1.2,0.2-1.7s0.9-0.6,1.5-0.5s0.9,0.5,1.1,1c0.1,0.2,0.2,0.5-0.1,0.6s-0.4-0.1-0.4-0.4c0-0.2-0.1-0.5-0.4-0.6
			c-0.5-0.3-0.9-0.3-1.3,0.1c-0.4,0.4-0.4,0.8,0,1.3c0.2,0.3,0.6,0.6,0.9,0.8c0.3,0.2,0.7,0.5,0.9,0.8c0.5,0.6,0.6,1.5,0.2,2.2
			c-0.3,0.5-1,0.8-1.7,0.6C54.7,45.8,54.3,45.2,54.3,44.3z"/>
		<path fill="#1B1B1B" d="M58.1,44.2c0-0.1,0-0.3,0-0.4c0-0.2,0.1-0.3,0.3-0.3c0.1,0,0.2,0.1,0.2,0.3s0,0.4,0,0.6
			c0,0.5,0.2,0.9,0.7,1c0.4,0.1,0.8,0.1,1.1-0.3c0.3-0.5,0.3-1,0-1.4s-0.7-0.6-1.1-0.9c-0.4-0.3-0.8-0.6-1-1
			c-0.3-0.6-0.2-1.1,0.1-1.6c0.4-0.6,0.9-0.7,1.6-0.6c0.6,0.1,0.9,0.5,1.1,1c0.1,0.2,0.2,0.5-0.1,0.6s-0.4-0.1-0.4-0.4
			c0-0.2-0.2-0.4-0.4-0.6C59.8,40,59.3,40,59,40.4s-0.4,0.9,0,1.3c0.3,0.4,0.8,0.7,1.2,0.9c0.5,0.4,1,0.8,1.1,1.4
			c0.2,1-0.4,1.9-1.4,2C58.8,46.1,58.1,45.4,58.1,44.2z"/>
		<path fill="#1B1B1B" d="M72.4,44.3c0-0.2,0-0.3,0-0.5s0.1-0.2,0.3-0.2c0.1,0,0.3,0.1,0.3,0.2c0,0.2,0,0.4,0,0.6
			c0,0.5,0.1,0.9,0.6,1c0.4,0.1,0.9,0.1,1.2-0.4c0.2-0.4,0.3-0.9-0.1-1.3c-0.3-0.4-0.7-0.6-1.1-0.9c-0.4-0.3-0.8-0.6-1-1.1
			c-0.3-0.6-0.2-1.1,0.1-1.6c0.4-0.6,1-0.7,1.6-0.6c0.6,0.1,0.9,0.5,1.1,1.1c0.1,0.2,0.2,0.5-0.2,0.6c-0.3,0.1-0.3-0.2-0.4-0.4
			c0-0.2-0.1-0.5-0.4-0.6C74,40,73.5,40,73.2,40.4c-0.4,0.4-0.4,0.8-0.1,1.3c0.3,0.4,0.8,0.7,1.2,1c0.6,0.4,1.1,0.9,1,1.7
			c0,1-0.6,1.6-1.5,1.6C72.9,46,72.3,45.4,72.4,44.3z"/>
		<path fill="#1B1B1B" d="M59.8,33.2c0,0.8,0,1.6,0,2.4c0,0.1,0,0.3-0.2,0.3c-0.1,0-0.2,0-0.3-0.1c-0.1-0.7-0.4-0.3-0.7-0.2
			c-1.1,0.7-1.9,0.3-1.9-1.1c0-1.3,0.3-1.8,1.7-2.3c0.9-0.3,1-0.6,0.9-1.5c-0.1-0.4-0.3-0.7-0.8-0.8c-0.4,0-0.7,0.2-0.9,0.6
			c0,0.1-0.1,0.2-0.1,0.3c0,0.2,0,0.3-0.3,0.3c-0.2,0-0.2-0.2-0.2-0.4c0-0.7,0.6-1.3,1.3-1.3c0.7-0.1,1.4,0.5,1.4,1.2
			C59.8,31.6,59.8,32.4,59.8,33.2L59.8,33.2z M59.3,33.7c0-0.2,0-0.5,0-0.7s-0.1-0.3-0.3-0.3c-1.2,0.1-1.9,1.1-1.7,2.2
			c0.1,0.4,0.3,0.6,0.7,0.4C58.9,35.1,59.3,34.6,59.3,33.7z"/>
		<path fill="#1B1B1B" d="M40.3,44.3c0-0.2,0-0.3,0-0.5s0.1-0.3,0.2-0.2c0.1,0,0.2,0.1,0.2,0.3s0,0.4,0,0.6c0,0.5,0.2,0.9,0.7,1
			c0.4,0.1,0.9,0.1,1.1-0.4c0.2-0.4,0.2-0.9-0.1-1.3c-0.3-0.4-0.8-0.7-1.3-1c-0.6-0.4-1.1-0.9-1-1.8c0.1-0.8,0.6-1.3,1.3-1.4
			c0.9-0.1,1.5,0.4,1.6,1.2c0.1,0.2,0.2,0.5-0.2,0.5c-0.3,0-0.3-0.1-0.3-0.4c0-0.3-0.2-0.5-0.4-0.6c-0.5-0.2-0.9-0.2-1.3,0.2
			c-0.3,0.4-0.3,0.8,0,1.2s0.6,0.6,1,0.8c0.3,0.2,0.7,0.5,0.9,0.8c0.5,0.6,0.5,1.5,0.1,2.2c-0.4,0.5-1,0.7-1.7,0.5
			C40.6,45.7,40.3,45.2,40.3,44.3z"/>
		<path fill="#1B1B1B" d="M64.2,42.8c0-0.6,0-1.2,0-1.8c0-0.9,0.6-1.4,1.4-1.4c0.9,0,1.6,0.4,1.6,1.3c0.1,1.3,0.1,2.6,0,3.8
			c0,0.9-0.7,1.4-1.6,1.4c-0.8,0-1.4-0.6-1.4-1.5C64.2,43.9,64.2,43.4,64.2,42.8L64.2,42.8z M66.7,42.8c0-0.6,0-1.1,0-1.7
			c0-0.6-0.3-0.9-0.9-1c-0.5-0.1-1,0.3-1,0.9c0,1.2-0.1,2.4,0,3.6c0,0.6,0.4,0.9,1,0.9c0.6,0,0.9-0.3,0.9-1
			C66.7,43.9,66.7,43.3,66.7,42.8z"/>
		<path fill="#1B1B1B" d="M46.1,53.1c0,0.8,0,1.5,0,2.3c0,0.2,0,0.4-0.2,0.4s-0.3-0.1-0.3-0.3c0-0.3-0.2-0.2-0.3-0.1
			c-0.2,0.1-0.3,0.2-0.5,0.3c-0.9,0.5-1.6,0.1-1.7-0.9c-0.1-1.5,0.2-2,1.7-2.5c0.8-0.3,0.9-0.4,0.8-1.3c0-0.4-0.2-0.8-0.7-0.9
			c-0.5-0.1-0.8,0.1-1,0.6c-0.1,0.2,0,0.6-0.4,0.5s-0.2-0.5-0.1-0.7c0.2-0.6,0.7-1,1.4-1s1.2,0.5,1.3,1.2
			C46.1,51.5,46,52.3,46.1,53.1C46,53.1,46.1,53.1,46.1,53.1z M45.6,53.5c-0.1-0.2,0.3-0.7-0.2-0.8c-1.1-0.2-2.1,1.2-1.7,2.3
			c0.1,0.4,0.4,0.5,0.8,0.3C45.2,55,45.6,54.5,45.6,53.5z"/>
		<path fill="#1B1B1B" d="M49.2,34.2c0-0.1,0-0.2,0-0.3c0-0.2,0-0.4,0.3-0.4c0.2,0,0.2,0.2,0.2,0.4c0,0.2,0,0.3,0,0.5
			c0,0.5,0.3,0.9,0.8,1c0.4,0.1,0.8,0,1-0.4c0.2-0.4,0.3-0.9-0.1-1.3c-0.4-0.5-0.9-0.7-1.3-1.1c-0.7-0.5-1.1-1.1-0.9-2
			c0.2-0.7,0.8-1.2,1.6-1.1c0.7,0.1,1.3,0.6,1.4,1.3c0,0.2,0.1,0.4-0.1,0.4c-0.3,0.1-0.3-0.1-0.4-0.3c-0.1-0.5-0.4-0.8-1-0.8
			c-0.5,0-0.8,0.2-0.9,0.6c-0.2,0.5,0.1,0.9,0.5,1.2c0.3,0.2,0.5,0.4,0.8,0.6c0.2,0.2,0.5,0.4,0.7,0.6c0.6,0.6,0.7,1.6,0.2,2.2
			c-0.4,0.5-1.1,0.8-1.8,0.6C49.5,35.8,49.2,35.2,49.2,34.2z"/>
		<path fill="#1B1B1B" d="M55.5,54.3c0.1-0.5-0.3-0.8-0.7-1.1c-0.5-0.4-1.1-0.7-1.5-1.2s-0.4-1.4-0.1-1.9c0.4-0.6,1-0.7,1.6-0.6
			c0.6,0.1,1.1,0.7,1.1,1.3c0,0.2,0,0.3-0.2,0.4c-0.2,0-0.3-0.1-0.3-0.3c-0.1-0.6-0.4-0.8-1-0.8c-0.4,0-0.7,0.1-0.9,0.5
			s-0.2,0.7,0.1,1c0.4,0.5,0.9,0.7,1.3,1.1c0.7,0.5,1.1,1.2,0.9,2.1c-0.2,0.8-0.8,1.3-1.6,1.2s-1.3-0.6-1.4-1.4c0-0.1,0-0.1,0-0.2
			c0.1-0.3-0.2-0.8,0.2-0.8c0.5,0,0.2,0.5,0.3,0.8c0.1,0.7,0.4,1.1,1.1,1C55.2,55.4,55.5,55,55.5,54.3z"/>
		<path fill="#1B1B1B" d="M32.3,51.3c0-1.2,0-2.4,0-3.6c0-0.2,0-0.4,0-0.6c0-0.1,0.1-0.2,0.3-0.2c0.1,0,0.2,0.1,0.2,0.2
			c0,0.2,0,0.5,0,0.7c0,2.3,0,4.5,0,6.8c0,0.6,0.2,0.8,0.8,0.8c0.3,0,0.6,0,0.9,0c0.2,0,0.3,0,0.4,0.2c0,0.2-0.1,0.3-0.3,0.3
			c-0.6,0-1.3,0-1.9,0c-0.4,0-0.4-0.3-0.4-0.6C32.3,54,32.3,52.7,32.3,51.3z"/>
		<path fill="#1B1B1B" d="M39.5,52.7c0-0.6,0-1.1,0-1.7c0-0.7,0.3-1.2,0.9-1.4c0.6-0.2,1.1-0.1,1.6,0.3c0.5,0.5,0.5,1.1,0.5,1.7
			c0,0.2-0.1,0.2-0.3,0.2s-0.3-0.1-0.3-0.3s0-0.4,0-0.6c-0.1-0.5-0.4-0.8-0.9-0.8s-1,0.2-1,0.7c-0.1,1.3-0.1,2.6,0,3.8
			c0,0.5,0.4,0.8,1,0.8s0.8-0.3,0.9-0.9c0-0.3-0.3-0.8,0.3-0.8c0.5,0,0.3,0.6,0.2,0.9c-0.1,0.9-0.8,1.4-1.6,1.3
			c-0.8-0.1-1.3-0.6-1.4-1.5c0-0.1,0-0.1,0-0.2C39.5,53.8,39.5,53.3,39.5,52.7z"/>
		<path fill="#1B1B1B" d="M32.3,31.5c0-1.1,0-2.3,0-3.4c0-0.4-0.3-1,0.2-1c0.6,0,0.3,0.6,0.3,1c0,2.2,0,4.3,0,6.5
			c0,1-0.1,0.9,0.8,0.9c0.3,0,0.6,0,0.9,0c0.2,0,0.3,0.1,0.3,0.3c0,0.2-0.1,0.3-0.3,0.3c-0.6,0-1.3,0-1.9,0c-0.5,0-0.4-0.3-0.4-0.6
			C32.3,34,32.3,32.8,32.3,31.5z"/>
		<path fill="#1B1B1B" d="M62.3,42.5c0-0.8,0-1.5,0-2.3c0-0.2-0.1-0.5,0.3-0.5c0.4,0,0.3,0.3,0.3,0.5c0,1.4,0,2.8,0,4.1
			c0,0.4-0.1,0.9,0.5,1.1c0.2,0.1,0.3,0.3,0.1,0.5c-0.1,0.2-0.3,0-0.5,0c-0.5-0.2-0.7-0.6-0.7-1.1C62.3,44,62.3,43.2,62.3,42.5z"/>
		<path fill="#1B1B1B" d="M53.1,42.4c0,0.6,0,1.2,0,1.8c0,0.5-0.1,1,0.5,1.2c0.2,0.1,0.2,0.3,0.1,0.4c-0.1,0.2-0.3,0.1-0.4,0
			c-0.4-0.2-0.7-0.5-0.7-1c0-1.6,0-3.2,0-4.9c0-0.2,0-0.4,0.3-0.4s0.3,0.3,0.3,0.5C53.1,40.9,53.1,41.6,53.1,42.4z"/>
		<path fill="#1B1B1B" d="M47.3,51.2c0-1.1,0-2.3,0-3.4c0-0.2-0.1-0.5,0.2-0.5c0.4,0,0.3,0.3,0.3,0.5c0,2.1,0,4.2,0,6.3
			c0,0.5-0.1,1,0.5,1.3c0.2,0.1,0.2,0.3,0.1,0.4c-0.1,0.3-0.3,0.1-0.5,0c-0.5-0.2-0.7-0.7-0.7-1.2C47.4,53.5,47.3,52.4,47.3,51.2z"
			/>
		<path fill="#1B1B1B" d="M47.8,27.5c0,0.2-1,1.4-1.2,1.3c-0.1,0-0.2,0-0.2-0.2c0.3-0.5,0.5-1,1-1.3C47.6,27.3,47.8,27.3,47.8,27.5z
			"/>
		<path fill="#1B1B1B" d="M62.8,38c-0.1,0.2,0.1,0.6-0.3,0.6c-0.4,0-0.2-0.4-0.2-0.7c0-0.2-0.1-0.5,0.3-0.5
			C63,37.4,62.8,37.7,62.8,38z"/>
		<path fill="#1B1B1B" d="M53.1,37.9c-0.1,0.3,0.1,0.7-0.3,0.6c-0.4-0.1-0.2-0.4-0.2-0.7c0-0.2-0.1-0.5,0.3-0.5
			C53.2,37.4,53,37.8,53.1,37.9z"/>
		<path fill="#892D87" d="M48.8,43.6c0,0.1,0,0.2,0,0.3s0,0.3-0.1,0.3c-0.2,0-0.2-0.2-0.2-0.3s0-0.2,0-0.3
			C48.6,43.6,48.7,43.6,48.8,43.6z"/>
	</g>
</g>
</svg>
